<?xml version="1.0" encoding="UTF-8"?>
<!-- Generator: Adobe Illustrator 25.2.1, SVG Export Plug-In . SVG Version: 6.00 Build 0)  -->
<svg xmlns="http://www.w3.org/2000/svg" xmlns:xlink="http://www.w3.org/1999/xlink" version="1.1" id="Capa_1" x="0px" y="0px" viewBox="0 0 512 512" style="enable-background:new 0 0 512 512;" xml:space="preserve" width="512" height="512">
<g>
	<g>
		<g>
			<g>
				<g>
					<path style="fill:#FFCF00;" d="M433.446,301.581l-8.411,124.219l-5.314,59.399c-1.255,13.935-14.73,24.71-30.945,24.71H173       c-2.323,0-4.604-0.23-6.8-0.649c-13.056-2.511-23.078-12.135-24.145-24.061l-5.335-59.399l-8.391-124.219l152.548-154.284       l122.564,123.946L433.446,301.581z"/>
					<path style="opacity:0.5;fill:#FC09B2;" d="M426.541,255.76l-37.681-38.1l-19.563-19.793l0.607-21.466l0.084-2.887       l0.711-20.065c0.147-4.582,4.52-8.264,9.855-8.264h33.1c5.335,0,9.687,3.682,9.855,8.264l0.69,20.065l0.084,2.887       L426.541,255.76z"/>
				</g>
				<g>
					<polygon style="fill:#FC09B2;" points="202.656,509.9 280.883,509.9 359.11,509.9 363.421,466.072 368.234,400.064        280.883,319.667 193.531,400.064 198.345,466.072      "/>
					<path style="fill:#FC09B2;" d="M424.282,176.4h-54.379l0.084-2.887l0.711-20.065c0.147-4.582,4.52-8.264,9.855-8.264h33.1       c5.335,0,9.687,3.682,9.855,8.264l0.69,20.065L424.282,176.4z"/>
				</g>
				<g>
					<path style="fill:#007AF4;" d="M369.748,410.644c-2.967,0-5.931-1.14-8.183-3.416l-80.681-81.591l-80.681,81.591       c-4.471,4.52-11.753,4.56-16.274,0.091c-4.52-4.469-4.561-11.755-0.092-16.274l84.755-85.71       c3.177-3.21,7.656-5.051,12.292-5.051c4.636,0,9.115,1.841,12.29,5.049l84.758,85.712c4.468,4.519,4.428,11.805-0.092,16.274       C375.595,409.536,372.671,410.644,369.748,410.644z"/>
					<path style="fill:#007AF4;" d="M244.047,289.128h73.672c1.922,0,3.48-1.558,3.48-3.48v-54.172       c0-21.811-17.682-39.493-39.493-39.493h-1.647c-21.811,0-39.493,17.682-39.493,39.493v54.172       C240.567,287.57,242.125,289.128,244.047,289.128z"/>
					<path style="fill:#007AF4;" d="M474.455,325.035c-2.867,2.824-6.591,4.226-10.294,4.226c-3.787,0-7.554-1.444-10.42-4.331       l-53.98-54.588l-31.614-31.97l-87.269-88.252l-172.842,174.81c-5.691,5.754-14.961,5.795-20.714,0.105       c-5.754-5.691-5.816-14.96-0.126-20.714l174.789-176.755c4.855-4.917,11.737-7.72,18.894-7.72       c7.155,0,14.039,2.803,18.893,7.72l69.526,70.3l57.244,57.894l48.018,48.562C480.251,310.075,480.209,319.344,474.455,325.035z       "/>
					<g>
						<path style="fill:#007AF4;" d="M328.292,482.032h-94.818c-4.044,0-7.323-3.278-7.323-7.323c0-4.044,3.279-7.323,7.323-7.323        h94.818c4.043,0,7.323,3.279,7.323,7.323C335.615,478.754,332.336,482.032,328.292,482.032z"/>
					</g>
				</g>
				<g>
					
						<ellipse transform="matrix(0.7071 -0.7071 0.7071 0.7071 -206.2902 318.14)" style="fill:#FFFFFF;" cx="280.884" cy="408.084" rx="38.707" ry="38.707"/>
					<path style="fill:#FFFFFF;" d="M283.775,187.798h-5.782c-22.944,0-41.611,18.666-41.611,41.609v51.172       c0,7.021,5.713,12.732,12.734,12.732h63.536c7.021,0,12.731-5.712,12.731-12.732v-51.172       C325.384,206.464,306.719,187.798,283.775,187.798z M317.015,229.408v6.963h-31.946v-40.138       C302.795,196.92,317.015,211.516,317.015,229.408z M276.699,196.233v40.138h-31.948v-6.963       C244.752,211.515,258.972,196.92,276.699,196.233z M244.752,280.58V244.74h31.948v40.203h-27.583       C246.709,284.943,244.752,282.985,244.752,280.58z M312.652,284.943h-27.584V244.74h31.946v35.839       C317.015,282.985,315.057,284.943,312.652,284.943z"/>
				</g>
				<g style="opacity:0.25;">
					<path style="fill:#00328D;" d="M388.86,217.66c24.73-28.309,25.212-60.174,24.291-72.477h0.503       c5.335,0,9.687,3.682,9.855,8.264l0.69,20.065l0.084,2.887l2.259,79.36L388.86,217.66z"/>
					<path style="fill:#000E3F;" d="M433.446,301.581l-8.411,124.219l-5.314,59.399c-1.255,13.935-14.73,24.71-30.945,24.71       c-226.955-0.237-216.171,0.573-222.576-0.649c104.467-14.081,220.567-7.365,229.634-146.159       c2.171-33.24-0.697-81.599,7.608-91.858L433.446,301.581z"/>
					<path style="fill:#00328D;" d="M319.585,408.078c0,21.383-17.325,38.707-38.707,38.707c-12.784,0-24.124-6.193-31.154-15.755       c3.955,1.381,8.202,2.113,12.617,2.113c21.362,0,38.707-17.324,38.707-38.707c0-8.599-2.804-16.529-7.554-22.952       C308.684,376.714,319.585,391.13,319.585,408.078z"/>
				</g>
				<path style="opacity:0.5;fill:#FFFFFF;" d="M158.64,307.753c4.676,27.206,8.94,77.34,7.999,106.843      c-0.227,7.124-9.304,7.922-10.417,0.919c-4.746-29.797-6.625-80.543-5.458-107.069      C150.998,303.13,157.744,302.533,158.64,307.753z"/>
			</g>
			<g>
				<g>
					<path style="fill:#000E3F;" d="M508.504,13.652H53.261c-1.156,0-2.092-0.937-2.092-2.092s0.936-2.092,2.092-2.092h455.243       c1.156,0,2.092,0.937,2.092,2.092S509.661,13.652,508.504,13.652z"/>
				</g>
				<path style="fill:#000E3F;" d="M476.048,302.857l-47.432-47.976l-2.238-78.544l-0.775-22.973      c-0.209-5.754-5.461-10.273-11.947-10.273h-33.1c-6.508,0-11.759,4.519-11.948,10.273l-0.711,20.085l-0.544,19.479      l-66.095-66.827c-3.808-3.85-8.725-6.486-14.081-7.679c2.615-9.185,5.566-26.342,9.729-57.454l0.335-2.532      c2.699-20.044,2.49-35.025-0.607-44.796c-0.46-1.527-1.004-2.908-1.632-4.184c-0.816-1.716-1.779-3.18-2.867-4.436      C289.208,1.695,285.421,0,280.881,0c-4.541,0-8.327,1.695-11.257,5.021c-1.087,1.255-2.049,2.72-2.866,4.436      c-0.628,1.277-1.172,2.657-1.633,4.184c-3.097,9.771-3.305,24.752-0.607,44.796l0.335,2.532      c4.163,31.112,7.113,48.268,9.729,57.454c-5.356,1.192-10.294,3.829-14.081,7.679L85.713,302.857      c-6.486,6.57-6.423,17.177,0.126,23.664c3.16,3.139,7.344,4.833,11.779,4.833h0.084c4.478-0.021,8.662-1.779,11.822-4.959      l17.198-17.407l7.91,117l5.335,59.399c1.15,12.763,11.528,23.183,25.84,25.924c2.386,0.46,4.812,0.69,7.197,0.69h29.647h156.461      h29.668c17.177,0,31.677-11.695,33.037-26.614l5.314-59.441l7.908-116.958l17.22,17.407c3.16,3.201,7.386,4.959,11.906,4.959      c4.435,0,8.599-1.716,11.758-4.833C482.492,320.034,482.555,309.426,476.048,302.857z M371.999,176.462l0.795-22.952      c0.105-3.432,3.599-6.235,7.763-6.235h33.1c4.142,0,7.636,2.803,7.762,6.235l0.69,20.065l2.197,76.954l-52.892-53.478      L371.999,176.462z M268.997,60.404l-0.335-2.532c-3.179-23.789-1.799-36.971,0.858-44.231c0.607-1.695,1.297-3.075,2.009-4.184      c0.419-0.649,0.837-1.193,1.255-1.674c2.114-2.427,4.77-3.599,8.097-3.599c3.326,0,5.983,1.172,8.096,3.599      c0.419,0.481,0.838,1.025,1.256,1.674c0.712,1.109,1.403,2.49,2.008,4.184c2.657,7.26,4.059,20.442,0.858,44.231l-0.335,2.532      c-1.779,13.244-5.9,44-9.666,57.454c-0.732-0.084-1.465-0.105-2.218-0.105c-0.753,0-1.485,0.021-2.218,0.105      C274.897,104.404,270.775,73.648,268.997,60.404z M204.555,507.816l-4.122-41.887l-3.933-53.98      c1.903-0.628,3.682-1.716,5.189-3.243l79.193-80.092l79.193,80.092c1.486,1.485,3.243,2.615,5.188,3.264l-3.933,53.897      l-4.121,41.95H204.555z M196.186,407.575c-1.297,0.628-2.721,0.962-4.143,0.962c-2.406,0.021-4.813-0.879-6.654-2.699      c-1.779-1.778-2.761-4.142-2.783-6.653c-0.021-2.511,0.942-4.875,2.719-6.674l84.758-85.7c2.783-2.825,6.716-4.436,10.797-4.436      c4.079,0,8.012,1.611,10.795,4.436l84.758,85.7c1.779,1.799,2.741,4.164,2.72,6.674c0,2.511-1.004,4.875-2.782,6.653      c-1.779,1.737-4.122,2.72-6.633,2.72h-0.02c-1.465,0-2.867-0.335-4.143-0.983c-0.92-0.46-1.779-1.067-2.532-1.82l-80.678-81.599      c-0.377-0.398-0.92-0.607-1.485-0.607s-1.088,0.209-1.485,0.607l-80.678,81.599      C197.963,406.529,197.106,407.135,196.186,407.575z M422.946,425.61l-5.315,59.4c-1.15,12.784-13.83,22.806-28.852,22.806      h-27.367l4.101-41.594l3.892-53.5c0.104,0.021,0.23,0.021,0.334,0.021c3.619,0,7.009-1.402,9.562-3.933      c2.594-2.553,4.017-5.963,4.037-9.604c0.021-3.619-1.36-7.051-3.912-9.625l-84.758-85.72c-3.578-3.599-8.599-5.67-13.788-5.67      c-5.189,0-10.211,2.071-13.767,5.67l-84.758,85.72c-2.552,2.574-3.954,6.005-3.933,9.625c0.022,3.641,1.444,7.051,4.039,9.604      c2.741,2.699,6.319,3.996,9.896,3.891l3.913,53.583l4.079,41.531h-27.346c-2.134,0-4.289-0.209-6.403-0.607      c-12.26-2.364-21.508-11.486-22.45-22.199l-5.335-59.358l-8.139-120.64l150.204-151.92l150.225,151.92L422.946,425.61z       M472.973,323.549c-2.365,2.343-5.482,3.619-8.808,3.619c-3.39,0-6.57-1.318-8.935-3.724l-19.793-20.023l-3.368-3.39      L282.366,148.656c-0.775-0.795-2.176-0.795-2.971,0L129.714,300.011l-3.368,3.389l-19.814,20.044      c-2.343,2.385-5.502,3.724-8.85,3.724c-3.326,0.062-6.508-1.255-8.892-3.619c-4.917-4.875-4.959-12.826-0.104-17.742      L263.473,129.03c3.327-3.347,7.679-5.628,12.407-6.59c1.36-0.272,2.741-0.439,4.143-0.481c0.293-0.021,0.565-0.021,0.858-0.021      c0.293,0,0.565,0,0.857,0.021c1.402,0.042,2.783,0.209,4.144,0.481c4.728,0.962,9.101,3.243,12.407,6.59l69.484,70.28      l0.042,0.042l57.266,57.914l47.997,48.541C477.952,310.723,477.91,318.674,472.973,323.549z"/>
			</g>
		</g>
		<g>
			<g>
				<path style="fill:#FC09B2;" d="M156.41,48.325c-21.786,4.74-44.013,36.597-54.692,55.991      c-1.145,2.077-32.242,48.632-33.822,52.287c-2.539,0.476-4.479,0.848-4.752,0.869c-21.446,1.634-68.216,39.76-58.179,44.784      c5.852,2.929,21.949-6.108,22.608-5.926c-0.067,0.203-9.507,12.536-8.498,18.999c0.527,3.374,3.648,3.757,6.992,2.753      c14.213-4.262,27.76-24.356,27.97-24.31c0.523,0.115-4.437,10.39-2.125,15.922c0.872,2.084,3.498,2.384,5.589,1.559      c4.253-1.678,9.004-6.868,11.825-10.464c11.723-14.944,9.444-20.096,16.207-26.565c10.25,7.25,22.089,13.536,27.148,11.944      c60.262-18.964,39.978-72.887,40.007-73.787c0.244-9.055-7.63-38.049,10.325-51.533c9.045-6.792,18.51-5.238,20.463-5.636      C186.285,54.62,172.926,44.735,156.41,48.325z"/>
				<g>
					<path style="fill:#FFFFFF;" d="M195.871,97.944c1.521-7.358,1.175-16.373,0.53-18.849c-0.135-0.519-0.452-0.831-1.013-0.847       c-8.36-0.249-13.411-11.003-6.869-16.345c1.195-0.976,1.736-0.842-1.854-4.668c-2.215-2.361-1.432-1.95-4.531-2.076       c-17.783-0.721-29.395,12.773-31.711,29.489c-1.316,9.496,0.675,18.025,2.899,27.161c10.002,41.077-9.093,50.028-30.207,64.602       c-0.925,0.638-14.747,9.921-13.191,10.869c5.42,3.302,28.268,8.9,50.43-0.634c15.646-6.73,29.528-19.137,35.982-35.122       C206.581,126.149,192.492,114.295,195.871,97.944z"/>
					<path style="fill:#FFFFFF;" d="M78.464,107.401c-9.371,7.06-24.365,9.85-24.365,9.85s0.698,20.574,21.272,25.805       c20.574,5.231,24.41,3.487,24.41,3.487s-0.552,7.524,3.139,8.541c3.69,1.017,22.415,4.793,33.002-0.479       c8.056-4.012-2.623-25.682-7.974-37.729c-2.292-5.16-3.964-10.17-8.796-13.674C106.93,94.334,90.426,98.388,78.464,107.401z"/>
				</g>
				<path style="fill:#FD8A02;" d="M197.42,77.814c3.833-2.634,8.452-7.694,10.965-12.509c1.069-2.048,1.542-3.661-0.572-4.612      c-4.242-1.908-12.273-1.239-16.388-0.141c-2.463,0.657-4.482,1.926-5.449,4.43c-0.768,1.988-0.781,4.014-0.144,6.043      C187.811,77.335,194.854,79.578,197.42,77.814z"/>
				<g>
					<path style="fill:#FF8EDE;" d="M168.456,90.329c0.292,4.68,8.357,6.494,11.836,1.915c1.285-1.691,1.094-4.381-0.726-5.936       C175.388,82.739,168.156,85.529,168.456,90.329z"/>
					<path style="fill:#FF8EDE;" d="M97.361,112.462c6.458,4.524,12.666,2.727,12.636,3.521c-0.011,0.237-2.943,0.967-5.088,4.003       c-3.257,4.635-0.565,10,4.356,12.609c1.716,0.913,3.565,1.529,5.483,1.83c1.491,0.243,2.993,0.212,4.491,0.36       c-0.366,0.497-1.396,1.24-2.327,2.469c0,0,0,0-0.011,0.003c-0.743,0.997-1.405,2.263-1.633,3.959       c-0.31,2.319,0.406,4.658,1.65,6.616c1.446,2.236,3.573,4.01,5.94,5.219c2.77,1.417,5.887,2.084,8.988,2.03       c1.375-0.027,2.743-0.192,4.075-0.476c1.407-0.306,2.998-0.667,4.281-1.347c5.214-2.178,10.1-5.101,14.208-9.008       c13.988-13.323,12.105-29.593,0.275-39.707c-7.308-6.261-18.428-10.157-31.941-9.547c-14.135,0.644-21.55,3.378-24.286,3.978       c-1.375,0.297-5.647,1.676-6.405,1.962c-0.696,0.256-0.731,0.372-0.669,1.162c0.009,0.185,0.01,0.384,0.051,0.559       C92.285,106.608,93.975,110.083,97.361,112.462z"/>
					<g>
						<path style="fill:#FF8EDE;" d="M18.294,190.592c5.264-5.444,11.438-9.909,17.916-13.772c6.519-3.788,13.422-7.058,20.81-8.882        c0.566-0.14,1.137,0.206,1.277,0.772c0.121,0.487-0.12,0.979-0.55,1.195l-0.014,0.007        c-6.604,3.325-13.065,6.788-19.406,10.515c-6.362,3.693-12.535,7.655-18.776,11.687c-0.459,0.3-1.075,0.172-1.375-0.287        C17.919,191.433,17.982,190.919,18.294,190.592z"/>
					</g>
					<g>
						<path style="fill:#FF8EDE;" d="M30.18,201.715c4.262-4.35,8.738-8.336,13.178-12.382c4.483-3.999,8.912-8.036,13.682-11.815        c0.459-0.364,1.125-0.288,1.49,0.17c0.301,0.38,0.298,0.905,0.028,1.28c-3.597,4.982-7.872,9.383-12.404,13.478        c-4.575,4.047-9.423,7.808-14.77,10.835c-0.479,0.271-1.087,0.103-1.359-0.376C29.8,202.509,29.878,202.024,30.18,201.715z"/>
					</g>
					<g>
						<path style="fill:#FF8EDE;" d="M57.688,199.957c1.98-3.174,4.007-6.087,5.89-9.151c1.934-3.029,3.684-6.143,5.777-9.259        c0.326-0.496,0.993-0.633,1.489-0.307c0.358,0.236,0.527,0.658,0.472,1.056c-0.572,3.854-2.15,7.461-4.2,10.743        c-2.1,3.245-4.718,6.237-8.037,8.319c-0.474,0.297-1.098,0.154-1.395-0.319c-0.211-0.339-0.199-0.754-0.002-1.072        L57.688,199.957z"/>
					</g>
					<g>
						<path style="fill:#FF8EDE;" d="M68.581,126.499c4.955,3.195,10.312,5.304,15.958,6.554c5.64,1.286,11.457,1.676,17.421,1.703        h0.012c0.586,0.002,1.057,0.479,1.055,1.063c-0.002,0.484-0.33,0.891-0.774,1.015c-6.011,1.681-12.477,1.672-18.637,0.298        c-6.116-1.415-12.168-4.343-16.337-9.151c-0.361-0.416-0.316-1.045,0.1-1.405c0.342-0.297,0.83-0.319,1.191-0.085        L68.581,126.499z"/>
					</g>
					<g>
						<path style="fill:#FF8EDE;" d="M80.545,117.164c3.004,0.875,5.737,1.822,8.587,2.579c2.832,0.812,5.682,1.407,8.694,2.279        l0.018,0.006c0.576,0.166,0.907,0.768,0.741,1.343c-0.111,0.383-0.417,0.659-0.778,0.75c-3.233,0.812-6.622,0.523-9.804-0.351        c-3.163-0.931-6.227-2.481-8.51-4.937c-0.384-0.413-0.361-1.059,0.052-1.443c0.273-0.253,0.647-0.33,0.98-0.234        L80.545,117.164z"/>
					</g>
				</g>
				<path style="fill:#FC09B2;" d="M146.887,141.587l-0.013,0.002c-2.471,0.29-9.455,0.505-10.092-1.898      c-1.408-2.565,3.208-7.03,5.18-8.951c0.75-0.716,0.237-1.815-0.653-1.856c-2.786-0.326-9.004-0.668-10.347-4.28      c-0.63-1.443-0.338-2.928,0.82-4.575c1.154-1.609,2.886-3.077,4.678-4.528l0.023-0.018c0.31-0.253,0.451-0.678,0.323-1.082      c-0.019-0.061-0.06-0.107-0.09-0.162c-0.104-0.282-0.314-0.523-0.615-0.642l-0.052-0.02c-6.352-2.507-8.415-4.282-12.338-7.727      c-0.737-0.668-1.898-0.005-1.7,0.966c0.88,4.304,5.005,7.883,9.44,8.856c-8.635,5.569-5.309,15.589,4.997,15.991      c-3.938,3.29-5.657,8.068-1.991,11.778c2.292,1.644,1.602,0.906,3.018,1.566c1.555,0.223,1.029,0.342,2.967,0.329      c1.957-0.037,7.861-0.864,7.632-2.813C148.004,141.937,147.474,141.519,146.887,141.587z"/>
				<path style="opacity:0.5;fill:#FC09B2;" d="M154.403,144.241c-4.101,3.913-8.976,6.842-14.206,9.018      c-1.276,0.67-2.866,1.046-4.268,1.339c-1.339,0.293-2.699,0.46-4.079,0.481c-0.816,0.021-1.633-0.021-2.448-0.105      c-2.281-0.251-4.499-0.879-6.549-1.925c-2.364-1.213-4.478-2.992-5.942-5.209c-1.234-1.967-1.946-4.31-1.632-6.633      c0.208-1.694,0.879-2.95,1.632-3.954c0.042-0.021,0.084-0.042,0.126-0.063c1.486-0.774,3.348-1.277,5.273-1.779      c13.077-3.389,24.898-13.181,30.422-25.568c1.13-2.532,1.632-4.268,1.967-5.294C166.517,114.657,168.4,130.935,154.403,144.241z      "/>
				<g style="opacity:0.25;">
					<path style="fill:#000E3F;" d="M195.947,97.471c0.072-0.492,1.126-3.781-0.167-3.328c-10.431,3.651-8.283,17.764-8.124,26.318       c0.302,16.239-3.779,35.005-15.146,47.218c-10.302,11.068-25.318,17.097-38.802,23.224c1.241-0.564,4.126-0.003,5.543-0.075       c30.478-1.541,53.891-21.782,59.538-46.793C202.865,125.976,193.535,113.948,195.947,97.471z"/>
					<path style="fill:#000E3F;" d="M23.783,206.548c-2.437-0.44-2.627-0.244-3.358,1.844c-0.408,1.167-1.731,3.922-1.338,6.947       c0.438,3.376,3.683,3.73,6.989,2.739c4.485-1.345,8.771-4.402,12.494-7.438c10.551-8.605,15.133-17.06,15.556-16.849       c0.218,0.109-4.576,11.194-2.172,16.014c0.996,1.997,3.523,2.248,5.523,1.457c13.7-5.418,26.864-36.784,26.272-38.526       c-1.06-3.12-9.09-0.912-11.169-0.267C55.397,177.796,41.25,209.699,23.783,206.548z"/>
					<path style="fill:#000E3F;" d="M129.4,154.975c-31.489,6.884-27.786-9.31-27.786-9.31       c-25.63,1.925-37.409-12.972-37.409-12.972c25.107,10.713,52.767,4.478,52.767,4.478s0.021,0,0.063,0.021       c-0.042,0.021-0.084,0.042-0.126,0.063c-0.753,1.004-1.423,2.26-1.632,3.954c-0.315,2.323,0.397,4.666,1.632,6.633       c1.464,2.217,3.578,3.996,5.942,5.209C124.901,154.096,127.119,154.723,129.4,154.975z"/>
				</g>
			</g>
			<g>
				<path style="fill:#000E3F;" d="M210.874,61.387c-0.712-1.862-2.699-2.552-4.562-2.992c-3.536-0.837-7.303-0.9-12.24-0.188      c-1.004,0.147-2.176,0.314-3.368,0.649c-2.762-3.348-5.378-6.047-8.704-8.16c-10.566-6.716-28.015-8.767-45.256,5.586      c-13.704,11.403-24.145,26.614-31.468,38.456c-6.988,1.59-14.332,4.164-21.949,7.846c-2.196,1.067-4.393,2.197-6.569,3.327      c-6.8,3.515-13.831,7.155-21.362,8.704c-1.214,0.23-2.072,0.795-2.573,1.632c-0.732,1.276-0.273,2.699-0.105,3.222      c4.478,13.663,11.863,20.797,20.086,24.521l-7.281,10.67c-34.083,7.03-60.969,30.171-63.877,42.578      c-0.858,3.703,0.753,5.586,1.779,6.382c3.159,2.427,9.477,1.527,18.83-2.678c-4.645,7.574-6.214,13.119-4.667,16.55      c0.816,1.8,2.448,2.909,4.603,3.117c0.23,0.021,0.46,0.042,0.711,0.042c5.796,0,15.964-6.046,26.259-17.763      c-0.273,2.594-0.042,5.168,1.172,7.198c0.962,1.632,2.991,3.599,7.134,3.599c13.328,0,23.811-27.304,27.283-37.494      c16.508,10.755,31.823,16.257,47.202,16.906c-0.047,0.421-0.093,0.863-0.139,1.273c-1.607,14.289-1.443,22.344,18.238,30.812      c-3.678,4.598-4.543,10.644-2.009,16.299c0.347,0.776,1.11,1.237,1.911,1.237c0.286,0,0.576-0.059,0.854-0.184      c1.054-0.473,1.526-1.71,1.052-2.765c-2.065-4.607-1.105-9.406,2.324-12.909c5.281,2.022,11.705,4.092,19.539,6.298      c0.19,0.054,0.382,0.08,0.57,0.08c0.914,0,1.753-0.604,2.013-1.526c0.312-1.113-0.335-2.268-1.447-2.58      c-6.549-1.844-12.039-3.562-16.642-5.211c5.777-3.122,12.481-3.424,20.447-0.859c1.107,0.353,2.278-0.251,2.634-1.352      c0.353-1.099-0.251-2.278-1.351-2.633c-10.038-3.228-18.459-2.467-25.741,2.333c-0.312,0.205-0.603,0.425-0.896,0.644      c-19.505-7.932-18.742-14.71-17.338-27.215c0.061-0.548,0.124-1.132,0.186-1.699c0.007-0.001,0.014,0,0.021,0      c2.803-0.042,5.608-0.23,8.453-0.607c12.009-1.548,22.889-5.88,31.886-12.386c0.288,9.54,3.965,13.324,15.792,18.018      c0.253,0.1,0.515,0.148,0.772,0.148c0.832,0,1.618-0.501,1.945-1.322c0.425-1.074-0.1-2.29-1.173-2.717      c-12.17-4.829-13.532-7.72-13.132-17.413c0,0,0.001,0,0.001,0c9.729-8.306,16.717-19.374,19.751-32.096      c3.202-13.474,0.962-21.676-1.026-28.936c-1.569-5.691-2.907-10.608-1.652-17.471c1.632-8.934,1.172-14.248,0.879-17.408      c-0.063-0.648-0.105-1.213-0.126-1.673c0.585-0.293,1.15-0.691,1.673-1.172c1.339-1.235,2.95-2.992,4.52-4.854      c1.549-1.883,3.075-3.871,4.205-5.545C210.413,65.614,211.647,63.417,210.874,61.387z M58.639,123.256      c-0.669-1.444-1.255-3.013-1.82-4.666c7.867-1.737,14.981-5.398,21.865-8.976c2.156-1.109,4.31-2.218,6.465-3.264      c5.859-2.825,11.549-4.98,17.01-6.507c1.946-0.544,3.871-1.025,5.754-1.402c24.606-5.126,43.834,2.406,51.345,14.855      c6.486,10.713,2.595,23.225-10.147,32.598c-5.859,4.331-13.244,7.197-20.379,8.662c-9.75,2.029-19.082,1.423-23.6-1.695      c-2.239-1.569-2.95-3.473-2.218-6.047c0.126-0.46,0.104-0.9-0.042-1.318c-0.272-0.837-1.046-1.465-1.988-1.485l-1.213-0.021      c-6.486-0.063-13.643-0.146-20.359-2.113c-1.38-0.376-2.74-0.858-4.079-1.443C68.682,137.63,62.761,132.546,58.639,123.256z       M196.394,143.802c-5.628,23.727-26.153,41.239-52.307,44.587c-1.987,0.251-3.954,0.418-5.92,0.502      c-17.345,0.774-34.481-4.938-53.375-17.701c-0.565-0.376-1.255-0.46-1.861-0.251c-0.273,0.105-0.523,0.251-0.732,0.46      c-0.273,0.23-0.461,0.545-0.587,0.9c-5.648,17.91-15.608,37.201-24.145,37.201c-2.343,0-3.139-0.9-3.536-1.548      c-1.799-3.013,0.21-10.064,2.344-13.998c0.503-0.942,0.146-2.176-0.732-2.782c-0.941-0.649-2.238-0.419-2.887,0.523      c-11.989,16.884-25.17,25.191-30.066,24.751c-0.92-0.083-1.088-0.46-1.192-0.669c-0.587-1.297-0.063-4.331,2.49-9.206      c1.38-2.678,3.39-5.942,6.172-9.771c0.586-0.775,0.523-1.862-0.104-2.594c-0.649-0.732-1.715-0.92-2.574-0.481      c-17.177,9.185-21.027,6.884-21.404,6.59c-0.523-0.397-0.419-1.381-0.251-2.134c2.386-10.147,27.514-32.87,61.471-39.586      c0.523-0.105,1.005-0.418,1.319-0.879l8.306-12.177c7.261,2.344,14.939,2.574,21.655,2.636      c-0.168,3.243,1.297,6.067,4.268,8.118c3.452,2.407,8.996,3.641,15.399,3.641c10.608,0,23.58-3.41,33.456-10.67      c14.624-10.775,18.935-25.38,11.235-38.142c-7.887-13.098-27.241-21.425-51.95-17.471c7.05-11.026,16.549-24.145,28.539-34.146      c13.181-10.964,28.246-12.951,40.339-5.273c2.636,1.674,4.812,3.85,7.093,6.549c-0.858,0.691-1.633,1.611-2.218,2.804      c-2.679,5.419,0.062,11.319,4.121,14.353c1.821,1.36,3.787,2.113,5.65,2.218c0.02,0.356,0.062,0.753,0.104,1.172      c0.251,2.782,0.607,6.842-0.376,13.558c-0.126,0.858-0.293,1.757-0.461,2.72c-1.422,7.784,0.104,13.391,1.737,19.333      C197.357,124.03,199.366,131.374,196.394,143.802z M197.671,75.322c-0.461,0.439-0.984,0.732-1.527,0.9      c-0.126,0.042-0.251,0.062-0.397,0.083c-0.021,0.021-0.042,0.021-0.063,0.021c-1.611,0.293-3.348-0.418-4.666-1.402      c-2.825-2.113-4.77-6.109-3.013-9.667c1.172-2.364,3.578-2.887,6.612-3.326c2.092-0.293,3.954-0.439,5.649-0.439      c1.883,0,3.577,0.188,5.168,0.565c1.485,0.355,1.841,0.627,1.904,0.627c0,0.042,0,0.209-0.147,0.607      c-0.042,0.063-0.084,0.126-0.104,0.189c-0.231,0.502-0.67,1.235-1.234,2.092c0,0-0.021,0-0.021,0.021      c-0.251,0.376-0.545,0.774-0.858,1.213c-0.007,0.009-0.015,0.02-0.022,0.029c-0.024,0.011-0.05,0.008-0.075,0.02      c-3.042,1.503-7.174,1.295-11.33-0.567c-0.948-0.426-2.064-0.001-2.489,0.948c-0.425,0.949,0,2.064,0.948,2.489      c1.906,0.854,4.944,1.911,8.314,1.911c0.285,0,0.576-0.027,0.865-0.042c-0.006,0.008-0.012,0.016-0.019,0.024      C199.931,73.042,198.696,74.359,197.671,75.322z"/>
				<path style="fill:#000E3F;" d="M175.122,72.559c-1.78,0.705-2.646,2.994-1.92,4.707c1.957,4.616,8.642,1.515,6.811-2.684      C179,72.255,176.738,71.92,175.122,72.559z"/>
			</g>
		</g>
	</g>
	<g>
		<path style="fill:#FD8A02;" d="M405.543,68.182c-1.723,10.827-9.049,24.704-18.925,30.275    c-7.935,4.477-32.874-6.291-38.595-18.595c-3.716-7.991,0.141-16.746,8.167-17.757c6.66-0.839,13.523,2.754,18.617,7.05    c1.431,1.207,1.823,1.769,2.095,0.912c0.544-1.717,1.757-5.954,3.192-8.498C391.049,42.156,408.012,52.667,405.543,68.182z"/>
		<path style="fill:#FD8A02;" d="M490.051,179.675c-5.907,5.167-16.294,9.444-24.279,7.985c-6.416-1.172-15.202-18.52-12.714-27.909    c1.617-6.098,7.749-9.147,12.628-6.027c4.048,2.589,6.178,7.71,7.012,12.407c0.234,1.319,0.193,1.808,0.735,1.461    c1.086-0.696,3.694-2.471,5.648-3.212C494,158.718,498.517,172.27,490.051,179.675z"/>
		<path style="fill:#FD8A02;" d="M485.828,95.821c-5.874,7.527-17.303,15.017-27.178,15.104    c-7.934,0.07-22.407-18.643-21.585-30.432c0.534-7.657,7.162-12.704,13.706-10.094c5.43,2.166,9.147,7.796,11.22,13.216    c0.582,1.522,0.645,2.116,1.212,1.577c1.138-1.08,3.847-3.798,6.013-5.132C485.745,69.877,494.246,85.034,485.828,95.821z"/>
	</g>
</g>















</svg>
