<?xml version="1.0" encoding="UTF-8"?>
<!-- Generator: Adobe Illustrator 25.2.1, SVG Export Plug-In . SVG Version: 6.00 Build 0)  -->
<svg xmlns="http://www.w3.org/2000/svg" xmlns:xlink="http://www.w3.org/1999/xlink" version="1.1" id="Capa_1" x="0px" y="0px" viewBox="0 0 512 512" style="enable-background:new 0 0 512 512;" xml:space="preserve" width="512" height="512">
<g>
	<g>
		<g>
			<path style="fill:#007AF4;" d="M234.9,367.511c3.915,22.676,4.487,45.478-5.146,66.322     c-17.863,38.225-62.921,60.238-111.001,47.773C24.963,457.286-0.108,304.519,3.555,206.636     c1.132-29.021,4.07-52.886,5.335-57.831c0.313-1.217,1.434-1.551,2.479-0.711c5.318,4.177,4.444,5.031,16.097,11.05     c23.061,11.912,57.942,16.035,80.658,14.556c55.334-3.634,65.841-17.116,66.529-11.872c1.054,8.107,4.843,65.975,31.298,123.409     C210.56,295.214,227.521,324.66,234.9,367.511z"/>
			<path style="fill:#00328D;" d="M173.994,152.256c0.431,4.873,0.729,5.703-3.406,7.251c-23.172,8.673-43.765,12.11-67.943,12.649     c-29.177,0.65-69.117-5.471-90.381-25.501c-2.025-1.908-2.75-3.969-2.266-6.79c2.983-17.392,10.086-56.812,18.725-72.564     C59.134,11.856,139.19,8.089,164.782,89.266C173.428,116.691,172.064,130.413,173.994,152.256z"/>
			<path style="fill:#FC09B2;" d="M49.872,204.12c-20.794-5.935-31.254-12.539-42.543-19.126c-1.814-1.058-2.515-2.516-2.295-4.661     c0.066-0.648,2.725-26.757,3.686-30.986c0.408-1.801,1.457-2.222,2.841-1.115c5.859,4.689,4.48,4.971,15.754,10.843     c35.03,18.242,92.378,18.745,132.138,6.094c10.197-3.245,15.242-6.354,15.214-3.121c-0.032,3.751,1.269,7.362,1.067,11.133     c-0.128,2.395,0.9,1.967,2.278,17.426c0.126,1.417-0.46,2.324-1.691,2.837C136.525,210.042,91.822,216.093,49.872,204.12z"/>
			<path style="opacity:0.5;fill:#FFFFFF;" d="M150.306,143.209c-6.109,5.713-10.974-4.515-11.315-12.818     c-0.723-17.17-5.554-33.734-10.631-50.038c-1.313-4.217-13.971-30.867-9.003-33.759c4.793-2.791,20.686,18.864,30.574,50.102     C153.645,108.427,158.466,135.577,150.306,143.209z"/>
			<path style="opacity:0.25;fill:#000E3F;" d="M67.554,122.789c7.41,10.274,21.969,12.721,34.61,13.562     c23.379,1.554,40.908,10.236,50.833,19.767c1.819,1.747,3.43,3.717,5.066,5.644c5.372,6.329-102.046,26.205-145.856-15.156     c-2.042-1.928-2.68-4.014-2.198-6.816c5.825-33.846,9.949-73.855,38.889-96.792c0.176-0.138,0.352-0.277,0.528-0.416     c2.775-2.16,3.452-1.931,4.854,1.403C63.632,66.221,49.711,98.052,67.554,122.789z"/>
			<g>
				<g>
					<path style="fill:#FFFFFF;" d="M41.627,302.405c3.825,10.734,3.105,28.781-3.281,38.671       C33.706,330.197,36.069,312.284,41.627,302.405z"/>
				</g>
				<g>
					<path style="fill:#FFFFFF;" d="M63.108,303.34c4.687,10.208,5.367,28.276-0.19,38.809       C57.579,331.97,58.201,313.949,63.108,303.34z"/>
				</g>
				<g>
					<path style="fill:#FFFFFF;" d="M84.747,302.666c5.418,9.816,7.39,27.775,2.614,38.721       C81.303,331.552,80.6,313.551,84.747,302.666z"/>
				</g>
				<g>
					<path style="fill:#FFFFFF;" d="M106.304,300.389c6.116,9.536,9.362,27.311,5.347,38.439       C104.786,329.188,102.989,311.217,106.304,300.389z"/>
				</g>
				<g>
					<path style="fill:#FFFFFF;" d="M127.647,296.64c6.82,9.067,11.232,26.547,8.062,37.963       C128.142,325.527,125.161,307.682,127.647,296.64z"/>
				</g>
				<g>
					<path style="fill:#FFFFFF;" d="M148.642,291.352c7.407,8.567,13.164,25.701,10.775,37.284       C151.283,320.129,146.907,302.617,148.642,291.352z"/>
				</g>
				<g>
					<path style="fill:#FFFFFF;" d="M169.219,284.673c8.333,8.392,14.986,25.158,13.464,36.399       C173.878,313.059,168.287,295.86,169.219,284.673z"/>
				</g>
				<g>
					<path style="fill:#FFFFFF;" d="M38.256,236.705c-0.596,5.286-5.493,8.965-10.939,8.174c-5.447-0.844-9.037-5.86-8.021-11.038       c1.015-5.182,5.871-8.639,10.891-7.861C35.225,226.71,38.842,231.5,38.256,236.705z"/>
				</g>
				<g>
					<path style="fill:#FFFFFF;" d="M71.732,238.92c-0.05,5.313-4.526,9.415-9.999,9.23c-5.477-0.117-9.567-4.904-9.158-10.105       c0.416-5.323,4.869-9.094,9.987-8.992C67.676,229.222,71.781,233.677,71.732,238.92z"/>
				</g>
				<g>
					<path style="fill:#FFFFFF;" d="M105.257,237.656c0.475,5.203-3.544,10.071-9.019,10.24c-5.468,0.261-10-3.81-10.122-9.087       c-0.123-5.277,3.922-9.756,9.035-9.998C100.271,228.663,104.775,232.345,105.257,237.656z"/>
				</g>
				<g>
					<path style="fill:#FFFFFF;" d="M138.489,233.087c0.491,2.593-0.125,5.148-1.559,7.19c-1.429,2.047-3.672,3.6-6.379,3.936       c-5.422,0.776-10.344-2.847-10.994-8.086c-0.649-5.239,2.93-10.074,7.994-10.793c2.554-0.312,5.009,0.269,6.984,1.64       C136.507,228.35,137.997,230.494,138.489,233.087z"/>
				</g>
				<g>
					<path style="fill:#FFFFFF;" d="M171.087,225.184c1.527,5.022-1.426,10.597-6.768,11.839       c-5.313,1.345-10.577-1.741-11.756-6.886c-1.179-5.145,1.882-10.335,6.839-11.587       C164.39,217.404,169.543,220.105,171.087,225.184z"/>
				</g>
			</g>
			<g>
				<g>
					<path style="fill:#FFCF00;" d="M184.664,258.327c-52.126,23.335-113.164,29.282-168.634,14.636       c-3.922-1.271-3.025-4.445,0.855-3.958c74.556,10.303,144.751-8.95,145.958-9.12c6.898-1.411,13.561-3.627,20.386-5.427       C187.837,253.31,189.039,256.325,184.664,258.327z"/>
				</g>
				<g>
					<path style="fill:#FFCF00;" d="M207.921,330.667c-52.605,29.349-116.059,41.467-175.763,31.65       c-4.241-0.936-3.637-4.179,0.49-4.02c78.548,3.882,152.167-23.514,152.606-23.613c7.111-2.169,13.893-5.163,20.885-7.739       C210.864,325.272,212.336,328.164,207.921,330.667z"/>
				</g>
				<g>
					<path style="fill:#FFCF00;" d="M227.355,409.158c-42.725,30.165-96.753,45.972-149.151,41.93       c-3.748-0.506-3.459-3.792,0.103-4.048c23.132-1.313,53.367-7.124,75.417-13.581c13.54-3.447,33.525-11.279,45.272-15.698       c4.62-2.129-6.912,3.42,26.229-12.137C229.187,403.841,230.93,406.579,227.355,409.158z"/>
				</g>
			</g>
			<path style="opacity:0.25;fill:#00328D;" d="M234.429,420.93c-1.173,4.385-2.73,8.695-4.675,12.904     c-17.863,38.225-62.921,60.238-111.001,47.773C35.286,459.963,7.371,336.461,3.558,249.32     c-0.637-14.421-0.511-29.108-0.003-42.684c30.14,39.121,14.09,122.721,63.311,186.428c16.769,21.719,42.937,46.379,72.039,46.758     C171.19,440.218,203.794,397.945,234.429,420.93z"/>
		</g>
		<g>
			<g>
				<path style="fill:#000E3F;" d="M157.701,412.516c-5.136,1.228-10.846,0.144-15.842-3.04c-5.928-3.781-9.884-9.987-10.852-17.024      c-0.188-1.35,0.765-2.593,2.107-2.78c1.349-0.185,2.595,0.758,2.78,2.107c0.772,5.601,3.912,10.535,8.618,13.537      c4.066,2.59,8.864,3.423,12.815,2.191c3.693-1.136,6.956-4.079,8.953-8.075c2.347-4.694,2.643-10.051,0.832-15.082      c-0.462-1.281,0.203-2.694,1.484-3.155c1.314-0.463,2.694,0.205,3.156,1.486c2.239,6.221,1.853,13.13-1.059,18.956      c-2.596,5.196-6.94,9.054-11.914,10.584C158.423,412.331,158.064,412.429,157.701,412.516z"/>
			</g>
			<path style="fill:#000E3F;" d="M178.723,377.966c-1.491-5.16,2.46-11.377,7.811-12.56c6.158-1.361,11.396,3.438,12.287,7.605     C201.482,385.461,182.381,390.622,178.723,377.966z"/>
			<path style="fill:#000E3F;" d="M123.996,391.046c-1.003-5.277-7.339-9.035-12.646-7.67c-6.108,1.571-8.61,8.22-7.52,12.34     C107.086,408.023,126.457,403.989,123.996,391.046z"/>
			<path style="fill:#000E3F;" d="M15.441,97.584c2.495-10.288,5.8-20.408,10.254-29.888c9.272-19.733,23.957-32.489,41.419-39.11     c21.101-8.001,45.943-6.587,66.111,8.258c13.827,10.177,27.02,27.418,34.953,52.829c4.269,13.674,5.703,19.821,7.539,39.526     c2.839,30.48,1.853,61.657,18.823,117.113c4.668,15.253,10.262,30.325,17.664,44.479c16.742,32.006,32.707,84.108,27.527,119.59     c-3.173,21.728-13.558,40.247-29.334,54.065c-37.672,32.999-101.874,34.283-145.293-12.706     c-20.142-21.798-34.078-50.929-43.614-78.91C-6.64,290.295-5.545,184.125,15.441,97.584z M136.264,483.277     c30.889,2.86,62.445-8.756,82.331-33.894c20.602-26.043,18.992-53.02,14.724-83.53c-1.757-12.556-10.983-45.553-23.753-70.213     c-19.173-37.024-31.583-87.478-35.33-123.961c-0.929-9.042,0.489-10.297-4.952-8.416c-0.16,0.055-9.402,3.844-16.733,5.349     c-27.728,5.697-52.82,9.895-88.089,3.735c-10.682-1.866-21.122-4.587-31.079-8.943c-23.8-10.409-22.518-18.299-23.815-9.819     C-8.485,271.689,17.869,472.314,136.264,483.277z M168.265,110.099c0.004-0.001,0.008-0.002,0.012-0.002     C146.91-3.73,44.421,15.381,24.343,81.689c-7.022,23.188-11.104,48.222-12.985,58.554c-0.405,2.223,0.091,3.79,1.743,5.306     c34.048,31.243,111.618,30.631,155.061,13.403c3.438-1.364,4.68-1.614,4.587-3.175     C170.311,114.885,170.655,122.831,168.265,110.099z"/>
		</g>
	</g>
	<g>
		<g>
			<path style="fill:#007AF4;" d="M319.779,405.57c8.311,21.459,19.552,41.305,38.537,54.222     c34.985,23.586,84.947,19.278,119.761-16.148c67.909-69.112,10.805-213.005-42.699-295.052     c-15.903-24.303-30.701-43.255-34.33-46.844c-0.895-0.882-2.028-0.592-2.492,0.665c-2.411,6.318-1.222,6.6-8.117,17.758     c-13.645,22.08-41.434,43.562-61.673,53.982c-49.318,25.354-65.263,19.2-63.156,24.05c3.268,7.494,29.793,59.064,36.66,121.924     C303.451,331.053,304.058,365.029,319.779,405.57z"/>
			<path style="fill:#00328D;" d="M261.25,189.656c2.138,4.401,2.309,5.265,6.652,4.465c24.332-4.485,43.758-12.134,64.768-24.112     c25.353-14.455,56.451-40.253,64.379-68.37c0.755-2.678,0.316-4.818-1.551-6.988c-11.507-13.379-37.879-43.526-53.392-52.587     c-54.605-31.895-125.19,6.065-105.367,88.84C243.436,158.869,251.666,169.933,261.25,189.656z"/>
			<path style="fill:#FC09B2;" d="M394.367,170.265c14.776-15.788,20.348-26.833,26.639-38.289c1.011-1.84,0.862-3.451-0.43-5.178     c-0.39-0.521-16.104-21.541-19.104-24.673c-1.276-1.334-2.393-1.155-3.009,0.506c-2.612,7.035-1.283,6.568-7.93,17.403     c-20.651,33.666-69.567,63.604-110.169,73.213c-10.414,2.465-16.339,2.394-14.652,5.152c1.957,3.199,2.7,6.966,4.813,10.095     c1.342,1.988,0.24,2.15,7.013,16.115c0.621,1.28,1.591,1.756,2.91,1.563C323.111,219.928,364.557,202.115,394.367,170.265z"/>
			<path style="opacity:0.5;fill:#FFFFFF;" d="M276.907,169.71c8.178,1.756,7.087-9.518,3.107-16.813     c-8.215-15.095-12.595-31.784-16.63-48.376c-1.044-4.292-3.902-33.656-9.65-33.58c-5.546,0.073-8.031,26.819-0.438,58.692     C256.148,141.604,265.983,167.365,276.907,169.71z"/>
			<path style="opacity:0.25;fill:#000E3F;" d="M337.358,109.623c-1.068,12.623-12.293,22.212-22.699,29.436     c-19.247,13.362-29.812,29.825-33.417,43.104c-0.661,2.434-1.029,4.951-1.44,7.446c-1.35,8.191,100.985-30.035,117.27-88.042     c0.759-2.704,0.233-4.821-1.622-6.976c-22.409-26.025-46.531-58.211-83.148-62.987c-0.222-0.028-0.444-0.057-0.666-0.085     c-3.491-0.424-3.954,0.121-3.441,3.701C311.616,59.1,339.93,79.231,337.358,109.623z"/>
			<g>
				<g>
					<path style="fill:#FFFFFF;" d="M452.007,250.3c2.244,11.172,12.146,26.276,22.71,31.471       C473.099,270.054,461.855,255.91,452.007,250.3z"/>
				</g>
				<g>
					<path style="fill:#FFFFFF;" d="M434.068,262.154c1.234,11.164,9.946,27.008,20.131,33.18       C453.54,283.859,443.735,268.726,434.068,262.154z"/>
				</g>
				<g>
					<path style="fill:#FFFFFF;" d="M415.167,272.71c0.405,11.204,7.954,27.618,17.681,34.547       C432.983,295.706,424.324,279.909,415.167,272.71z"/>
				</g>
				<g>
					<path style="fill:#FFFFFF;" d="M395.51,281.849c-0.338,11.323,6.025,28.236,15.193,35.712       C411.63,305.762,403.924,289.428,395.51,281.849z"/>
				</g>
				<g>
					<path style="fill:#FFFFFF;" d="M375.281,289.615c-1.183,11.284,4.028,28.542,12.619,36.7       C389.719,314.64,383.094,297.805,375.281,289.615z"/>
				</g>
				<g>
					<path style="fill:#FFFFFF;" d="M354.558,295.883c-1.944,11.157,1.936,28.811,9.944,37.514       C367.098,321.918,361.841,304.649,354.558,295.883z"/>
				</g>
				<g>
					<path style="fill:#FFFFFF;" d="M333.476,300.743c-2.827,11.484,0.094,29.284,7.183,38.139       C344.087,327.481,340.031,309.857,333.476,300.743z"/>
				</g>
				<g>
					<path style="fill:#FFFFFF;" d="M421.093,192.229c3.231,4.226,9.322,4.861,13.586,1.381c4.236-3.527,4.734-9.675,1.199-13.592       c-3.537-3.922-9.48-4.387-13.383-1.137C418.55,182.099,417.912,188.067,421.093,192.229z"/>
				</g>
				<g>
					<path style="fill:#FFFFFF;" d="M393.527,211.352c2.776,4.531,8.726,5.745,13.323,2.77c4.636-2.919,5.68-9.128,2.653-13.377       c-3.096-4.351-8.854-5.292-13.19-2.572C392.016,200.95,390.788,206.881,393.527,211.352z"/>
				</g>
				<g>
					<path style="fill:#FFFFFF;" d="M364.13,227.518c2.27,4.706,8.22,6.812,13.002,4.14c4.823-2.59,6.615-8.412,4.004-13       c-2.61-4.588-8.382-6.347-12.891-3.924C363.779,217.24,361.811,222.716,364.13,227.518z"/>
				</g>
				<g>
					<path style="fill:#FFFFFF;" d="M333.284,240.698c0.912,2.476,2.756,4.35,5.036,5.363c2.279,1.02,5.001,1.198,7.495,0.093       c5.048-2.125,7.405-7.764,5.267-12.59c-2.139-4.826-7.695-7.131-12.408-5.141c-2.35,1.046-4.156,2.808-5.145,4.999       C332.546,235.617,332.372,238.222,333.284,240.698z"/>
				</g>
				<g>
					<path style="fill:#FFFFFF;" d="M301.266,250.694c1.274,5.092,6.675,8.353,11.894,6.669c5.248-1.58,8.174-6.935,6.537-11.953       c-1.637-5.019-6.931-7.894-11.826-6.417C303.005,240.577,299.976,245.545,301.266,250.694z"/>
				</g>
				<g>
					<path style="fill:#FFFFFF;" d="M411.915,372.977c5.474,0.018,7.911,2.189,8.701,7.155c4.368,27.453-28.161,34.131-37.308,9.648       C379.662,380.02,401.653,372.944,411.915,372.977z"/>
				</g>
			</g>
			<g>
				<g>
					<path style="fill:#FFCF00;" d="M306.677,286.099c56.703-6.811,112.102-33.118,152.13-74.216       c2.709-3.108,0.306-5.368-2.77-2.954c-58.629,47.195-128.725,66.803-129.848,67.278c-6.642,2.34-13.494,3.867-20.273,5.836       C301.374,283.43,301.896,286.634,306.677,286.099z"/>
				</g>
				<g>
					<path style="fill:#FFCF00;" d="M323.955,360.096c60.208-1.9,120.854-24.158,166.997-63.295       c3.155-2.985,0.969-5.455-2.488-3.195c-65.355,43.743-142.578,58.132-143.006,58.272c-7.214,1.799-14.57,2.721-21.89,4.11       C318.656,356.984,318.882,360.221,323.955,360.096z"/>
				</g>
				<g>
					<path style="fill:#FFCF00;" d="M347.676,437.399c52.156,3.883,106.618-10.362,149.468-40.788       c2.954-2.362,1.015-5.031-2.171-3.418c-20.51,10.776-49.426,21.35-71.656,27.158c-13.384,4.011-34.55,7.578-46.897,9.833       c-5.058,0.551,7.686-0.624-28.735,3.088C343.37,433.782,343.284,437.026,347.676,437.399z"/>
				</g>
			</g>
			<path style="opacity:0.25;fill:#00328D;" d="M347.667,451.132c3.262,3.156,6.814,6.051,10.648,8.659     c34.985,23.586,84.947,19.278,119.761-16.148c60.435-61.505,20.827-181.768-20.74-258.451     c-6.873-12.693-14.538-25.222-21.959-36.602c-5.715,49.053,51.061,112.48,41.634,192.433     c-3.204,27.251-12.955,61.862-37.714,77.159C411.818,435.134,362.11,415.661,347.667,451.132z"/>
		</g>
		<g>
			<path style="fill:#000E3F;" d="M373.328,385.63c-1.376-5.192-7.963-8.49-13.16-6.751c-5.981,2.001-8.003,8.811-6.623,12.843     C357.669,403.767,376.704,398.365,373.328,385.63z"/>
			<path style="fill:#000E3F;" d="M426.985,368.688c-1.855-5.041,1.644-11.523,6.897-13.084c6.046-1.796,11.612,2.618,12.797,6.711     C450.22,374.544,431.535,381.052,426.985,368.688z"/>
			<path style="fill:#000E3F;" d="M505.509,300.326c6.22,28.9,9.259,61.049,3.203,90.104     c-13.054,62.632-68.766,94.565-118.048,85.652c-20.637-3.732-39.071-14.268-52.971-31.267     c-22.698-27.76-35.817-80.65-37.928-116.709c-0.935-15.945-3.894-31.747-7.74-47.228c-13.982-56.284-30.869-82.51-44.117-110.107     c-8.565-17.841-10.498-23.849-13.873-37.771c-6.272-25.871-3.83-47.443,2.79-63.284c9.656-23.106,30.23-37.101,52.44-41.097     c18.38-3.307,37.536,0.075,55.639,12.225c8.697,5.837,16.738,12.814,24.171,20.352     C431.598,124.606,487.164,215.081,505.509,300.326z M402.927,106.195c-5.475-6.604-0.316-0.498-15.368,20.673     c-6.297,8.858-13.849,16.563-22.049,23.659c-27.073,23.429-50.749,32.74-77.456,42.121c-7.061,2.48-16.935,3.987-17.1,4.022     c-5.633,1.187-3.772,1.533,0.084,9.764c15.559,33.211,30.877,82.859,33.487,124.472c1.738,27.717,10.805,60.758,15.758,72.428     c12.038,28.357,24.538,52.318,55.603,64.049c29.986,11.323,63.021,5.048,88.036-13.298     C559.801,383.768,479.172,198.177,402.927,106.195z M264.129,192.034c0.723,1.386,1.918,0.962,5.568,0.362     c46.115-7.58,112.945-46.967,126.065-91.276c0.637-2.15,0.255-3.749-1.235-5.446c-6.929-7.891-23.31-27.256-41.262-43.527     C301.93,5.621,204.216,41.967,244.46,150.564c0.004-0.001,0.008-0.003,0.012-0.005     C248.973,162.706,245.18,155.717,264.129,192.034z"/>
		</g>
	</g>
</g>















</svg>
