<?xml version="1.0" encoding="UTF-8"?>
<!-- Generator: Adobe Illustrator 25.2.1, SVG Export Plug-In . SVG Version: 6.00 Build 0)  -->
<svg xmlns="http://www.w3.org/2000/svg" xmlns:xlink="http://www.w3.org/1999/xlink" version="1.1" id="Capa_1" x="0px" y="0px" viewBox="0 0 512 512" style="enable-background:new 0 0 512 512;" xml:space="preserve" width="512" height="512">
<g>
	<g>
		<g>
			<g>
				<path style="fill:#FFCF00;" d="M200.866,361.129c3.618,1.098,7.356,2.269,9.742,5.179c3.394,4.138,1.791,10.787-5.664,12.136      c-9.756,1.765-22.972-1.201-32.512-4.007c-13.766-4.049-32.991-11.182-40.727-15.317c-3.495-1.868-7.339-2.855-10.884-4.612      c-6.044-2.996-11.855-6.428-17.959-9.318c-12.683-6.005-38.812-22.422-50.305-30.347      c-18.028-12.431-27.386-19.285-35.862-35.853c-8.185-16-13.872-37.096-14.307-63.561c-0.289-17.566,15.103-29.797,31.054-29.876      c11.638-0.057,13.447,5.61,13.994,0.559c1.322-12.212,10.481-24.043,25.207-22.429c8.766,0.961,14.326,5.129,19.099,8.474      c2.354,1.649,1.859-1.53,5.552-6.21c10.938-13.861,31.616-9.881,39.633,7.732c0.735,1.615,1.419,3.217,1.733,4.97      c1.021,5.699,5.783,3.707,29.307,31.005c24.384,28.295,59.055,81.187,61.824,109.609c0.913,9.372-7.231,14.902-16.792,14.412      c-30.677-1.574-92.229-41.039-117.782-57.992c-28.805-19.11-61.907-46.802-63.186-47.51c-8.018-4.443-11.102,10.451-8.44,23.719      c3.711,18.496,40.942,45.763,57.302,55.071c5.042,2.869,9.932,6.004,14.918,8.973c1.425,0.848,2.986,1.465,4.437,2.273      C130.824,335.238,178.774,354.426,200.866,361.129z M129.351,182.37c-0.021-0.19,0.02-0.498-0.074-0.547      c-0.263-0.137-0.586-0.245-0.877-0.225c-50.264,3.306-98.797,34.413-95.132,36.623c1.044,0.629,1.628-1.398,8.302-5.963      c23.848-16.31,66.706-29.088,86.366-29.425C128.451,182.824,128.974,182.814,129.351,182.37z"/>
			</g>
			<path style="fill:#FF8EDE;" d="M31.508,264.582c-5.661-7.212-7.097-12.611-7.556-18.764c-0.705-9.461,2.336-20.13,7.475-16.375     c9.689,7.08,34.309,29.347,85.064,61.812c20.31,12.991,82.515,50.056,105.4,42.618c1.079-0.35,1.578-0.11,1.92,0.92     c0.92,2.77,0.703,5.531-0.246,8.244c-3.543,10.126-11.645,6.792-11.184,15.393c0.11,2.059,0.095,3.402-0.489,4.592     c-1.135,2.316-1.912-0.083-7.241-2.017c-11.82-4.291-23.729-6.634-67.278-25.995C103.171,319.804,54.631,294.04,31.508,264.582z"/>
			<path style="fill:#FC09B2;" d="M58.098,289.857c-13.953-10.743-33.429-25.759-34.185-45.089     c-0.287-7.337,0.394-7.836,2.467-7.781c1.032,0.027,2.117,0.06,3.078,0.386c18.537,6.284,13.14,23.048,31.097,36.51     c2.311,1.733,7.999,2.393,11.375,2.734c18.045,1.827,20.331,9.816,32.021,25.2c4.106,5.404,10.486,8.07,16.224,7.575     c7.218-0.623,13.399-0.734,19.861,2.247c8.937,4.124,10.244,6.685,14.692,11.671c17.028,19.088,23.076,6.604,36.346,10.952     c10.318,3.381,13.97,8.108,22.144,16.056c0.848,0.825,1.56,1.754,0.83,2.688c-2.74,3.508,0.543,9.715-4.89,10.216     c-2.782,0.257-8.286-3.183-10.953-4.207C147.715,339.65,99.839,321.994,58.098,289.857z"/>
			<g>
				<path style="fill:#FD8A02;" d="M167.882,229.289c2.023-2.424,4.944-2.271,5.813,0.027c0.861,2.28,0.428,3.704,0.165,7.978      c-0.098,1.597,1.491,0.864,4.953,1.359c8.698,1.241,7.674,11.737,1.164,12.832c-4.859,0.817-6.746-0.332-6.929,1.307      c-0.4,3.577-0.201,18.721,0.702,23.828c0.157,0.892,0.419,1.397,2.28,1.178c8.596-1.012,14.532-0.777,25.311-1.377      c6.635-0.369,9.582,4.571,8.001,8.759c-2.58,6.831-13.845,3.975-31.076,5.298c-2.137,0.164-2.27,0.338-1.897,2.314      c1.631,8.654,2.575,10.7,1.049,15.243c-1.231,3.665-6.868,4.735-9.624,1.398c-1.434-1.736-2.356-2.8-5.994-16.418      c-0.546-2.045,1.395-1.229-19.139,0.208c-1.293,0.091-2.59,0.057-3.861-0.238c-3.255-0.755-5.83-6.428,5.952-9.307      c16.185-3.954,14.842-2.93,14.641-5.329c-1.918-22.963,3.052-26.492-0.832-26.178c-27.727,2.244-18.756,1.522-28.521,2.564      c-3.101,0.331-3.126,0.326-3.336,3.343c-0.737,10.612-0.538,12.695-1.669,16.593c-1.043,3.596-4.343,5.552-7.838,4.716      c-4.205-1.006-5.212-5.72-5.454-9.973c-0.573-10.045,1.059-11.883-1.404-11.399c-15.847,3.117-12.764,2.823-17.579,3.275      c-2.917,0.274-6.403-2.272-3.634-5.601c2.061-2.477,8.207-4.466,22.244-9.063c3.409-1.116,0.303-2.515,6.926-24.397      c0.492-1.625,0.278-1.74-3.903-1.419c-8.942,0.688-17.759,2.181-26.531,4.017c-1.64,0.343-2.356,1.187-2.797,2.635      c-4.517,14.844-2.746,16.051-5.062,19.878c-2.522,4.166-8.915,4.086-10.452-1.598c-0.804-2.974,0.969-10.812,1.73-13.813      c0.488-1.922,0.914-3.089-0.388-2.811c-15.356,3.275-16.897,3.997-18.991,3.319c-2.222-0.72-2.944-3.169-1.683-5.047      c2.047-3.05,6.87-4.633,10.14-6c3.989-1.667,8.237-3.145,12.506-3.894c8.157-1.43,4.417-7.421,15.342-16.374      c2.262-1.853,5.477-3.126,6.293-0.037c0.666,2.519-0.68,5.045-1.913,7.65c-0.782,1.651-1.8,4.411,0.1,4.017      c8.92-1.847,22.193-3.076,28.422-3.344c1.874-0.081,2.745-1.015,3.165-2.543c1.563-5.687,5.137-14.448,10.203-17.93      c2.492-1.713,4.743-0.726,5.155,2.315c0.539,3.983-3.066,15.595-3.099,15.724c-0.593,2.298,0.864,1.709,6.882,1.969      c4.092,0.177,16.123,1.056,19.62,3.15c4.453,2.666,3.083,9.508-1.728,10.238c-4.153,0.631-20.486-1.909-27.046-1.896      c-1.367,0.003-1.53,0.093-1.892,1.358c-1.724,6.027-3.023,12.152-4.135,18.317c-0.788,4.369-0.256,0.891,27.338-1.17      c7.029-0.525,7.861-0.023,8.17-1.781C163.879,236.391,165.665,231.945,167.882,229.289z"/>
			</g>
			<g style="opacity:0.5;">
				<path style="fill:#FD8A02;" d="M58.135,248.786c-25.252-19.106-25.339-21.861-29.731-21.427      c-0.54,0.053-0.804-0.644-0.473-1.165c16.114-25.378,65.23-37.446,94.942-42.86c2.921-0.536,5.668-2.386,8.363-1.053      c-18.321,30.707-31.279,36.935-31.7,54.684c-0.662,27.898,40.003,31.583,73.958,52.543c14.85,9.167,38.205,24.548,44.053,42.026      c0.455,1.359,0.818,2.322-3.375,2.204c-9.421-0.267-19.882-4.119-29.349-7.765C144.637,310.498,92.353,274.675,58.135,248.786z"/>
				<path style="fill:#FD8A02;" d="M32.306,299.656c-11.22-9.621-18.606-24.92-23.052-38.892c-4.999-15.713-7.04-33.77-6.671-41.97      c0.036-0.79,0.719-1.122,1.29-0.643c19.555,16.393,9.596,52.125,40.631,77.402c50.882,41.444,135.692,61.148,165.751,77.007      c2.629,1.387-0.191,3.69-1.57,4.57c-5.423,3.464-14.765,1.843-20.581,0.952C141.827,370.997,63.553,326.448,32.306,299.656z"/>
			</g>
			<g style="opacity:0.75;">
				<path style="fill:#FFFFFF;" d="M83.478,174.754c3.746,2.818,0.972,7.732-2.865,6.85c-1.776-0.408-9.524-5.593-18.93,1.781      c-3.44,2.697-6.217,6.514-7.454,3.228C51.041,178.145,70.164,164.737,83.478,174.754z"/>
				<path style="fill:#FFFFFF;" d="M40.951,195.1c2.758,2.203,1.042,6.573-2.515,6.175c-2.579-0.289-8.477-3.781-17.846,2.056      c-2.254,1.404-4.756,4.805-6.547,6.16c-3.348,2.533-3.861-2.333-3.316-4.444C13.414,194.653,32.684,188.497,40.951,195.1z"/>
				<path style="fill:#FFFFFF;" d="M122.921,174.374c-3.075-2.466-5.663-4.357-10.256-3.561c-8.313,1.441-11.256,5.707-12.995,3.151      c-0.699-1.028-0.331-2.026,0.31-2.878c8.576-11.392,25.012-8.355,27.846-0.566C128.808,173.218,126.819,176.277,122.921,174.374      z"/>
			</g>
		</g>
		<g>
			<path style="fill:#000E3F;" d="M52.982,318.066C34.39,305.44,25.58,298.536,18.11,286.213     C7.724,269.08,0.348,245.358,0.002,214.3c-0.178-15.881,12.922-28.012,28.02-30.634c7.517-1.306,11.819,0.171,15.407,0.953     c3.226,0.703,0.646-0.681,4.439-8.696c5.446-11.508,16.19-17.364,30.274-13.612c7.456,1.986,10.748,5.115,12.844,6.157     c1.552,0.771,1.641-0.156,3.879-3.191c9.681-13.131,28.275-13.682,39.693,0.046c6.997,8.413,5.087,13.293,8.714,16.204     c31.971,25.666,82.937,97.266,88.847,136.808c0.7,4.684-0.39,8.933-3.787,12.283c-1.751,1.727-2.305,3.356-1.763,5.778     c1.111,4.962-1.438,12.81-7.878,16.365c-0.454,0.251-0.949,0.436-1.377,0.722c-1.678,1.123-2.656,2.668-2.41,4.73     c0.667,5.579-2.24,6.26-0.87,9.031c1.992,4.028,0.191,10.405-5.42,12.532c-15.062,5.708-35.341-2.036-49.57-7.007     C121.587,359.685,85.936,340.445,52.982,318.066z M156.387,368.052c12.694,4.473,37.418,12.765,50.267,8.826     c5.223-1.602,6.53-7.936,1.165-11.594c-4.818-3.285-47.205-14.437-94.461-39.025c-28.18-14.662-65.535-35.713-84.463-61.304     c-4.698-6.352-8.546-13.361-7.143-26.968c0.237-2.298,0.946-4.462,1.576-6.651c0.994-3.455,5.623-6.889,9.628-3.969     c4.095,2.986,33.166,28.588,81.075,59.342c21.912,14.065,75.733,46.214,101.713,45.939c6.721-0.071,13.656-5.4,13.015-12.573     c-0.843-9.44-4.459-18.821-8.59-28.179c-15.291-34.648-47.521-79.338-73.703-103.013c-5.705-5.158-8.352-6.275-8.965-10.337     c-0.3-1.99-1.152-3.775-2.052-5.517c-9.097-17.596-29.31-18.738-38.305-4.896c-1.018,1.566-2.046,3.113-2.906,4.779     c-0.6,1.163-1.537,1.321-2.6,0.631c-0.277-0.18-5.199-4.609-12.282-7.112c-9.685-3.423-18.999-2.172-25.266,6.07     c-7.337,9.649-3.895,17.747-8.141,16.702c-1.306-0.321-2.601-0.72-3.854-1.204c-16.081-6.202-39.624,7.333-38.63,27.813     c0.38,7.821,0.191,23.243,6.571,43.89c4.897,15.849,12.641,31.038,25.729,41.422c30.594,24.272,69.199,44.019,69.736,44.333     C107.388,346.561,134.022,360.171,156.387,368.052z M223.05,335.943c-0.445-1.936-1.407-0.11-7.207,0.152     c-18.648,0.841-54.427-17.421-70.46-26.486c-71.896-40.643-109.24-77.116-115.299-79.554c-0.909-0.366-1.606-0.173-2.189,0.633     c-2.972,4.114-3.138,10.564-2.735,15.644c0.721,9.079,4.051,14.176,11.177,22.376c31.284,35.996,107.079,69.891,152.416,85.769     c16.653,5.833,17.719,5.583,20.866,7.848c0.413,0.297,1.326,0.477,1.521-0.305c1.075-4.323-2.264-7.823,6.735-13.018     C222.037,346.599,224.124,340.614,223.05,335.943z"/>
			<path style="fill:#000E3F;" d="M33.274,219.759c-1.497-0.743-2.021-2.047-0.282-3.673c18.942-17.711,63.896-32.266,89.972-35.253     c1.659-0.19,5.499-0.625,7.118-0.207c0.919,0.237,1.356,1.702,0.407,2.539c-1.833,1.616-9.009-0.397-34.744,6.686     c-43.592,11.997-60.551,28.885-61.569,29.578C33.736,219.728,33.187,219.713,33.274,219.759z"/>
		</g>
	</g>
	<g>
		<g>
			<path style="fill:#00328D;" d="M291.759,228.278c-13.361-2.599-29.392-9.283-35.504-21.466c-5.71-11.382-1.043-21.958,6.58-32.03     c1.456-1.924,2.317-1.666,3.225-0.946c1.327,1.051,20.508,18.696,26.475,24.385c2.183,2.081,4.408,2.502,7.106,2.009     c7.056-1.291,13.7-6.386,16.865-11.454c0.724-1.159,0.72-1.706-0.139-2.614c-0.432-0.458,2.403,2.168-28.645-26.38     c-2.74-2.52-3.981-3.14-0.032-5.249c11.813-6.308,20.868-10.591,37.719-15.41c3.131-0.895,6.187-2.274,9.409-2.653     c5.884-0.691,49.375-12.108,80.031,4.236c16.048,8.556,20.778,24.347,9.77,41.556     C405.197,212.626,344.232,238.485,291.759,228.278z"/>
			<g>
				<g>
					<path style="fill:#007AF4;" d="M443.026,191.914c-3.138,3.323-6.394,7.498-8.586,9.423c-1.313,1.161-2.859-1.38-3.226-3.093       c-0.713-3.276-3.717-12.638-4.445-14.005c-0.336-0.605-1.19-0.654-1.674-0.107c-0.188,0.218-3.33,4.434-5.725,7.146       c-13.066,14.841-41.057,31.621-73.913,37.675c-48.688,8.987-72.119-5.659-74.631-6.386c-2.811-0.825-1.44,2.686,2.039,20.616       c1.649,8.524,8.018,32.394,10.643,44.216c3.92,17.772,8.786,42.797,22.958,55.375c23.018,20.411,63.263,14.324,89.712,5.507       c23.858-7.962,59.904-27.05,55.527-57.533c-0.4-2.701-1.004-5.386-1.13-8.084c-0.149-3.569-1.128-3.57,2.965-5.581       c29.349-14.382,46.952-49.692,46.263-75.118C498.86,167.744,467.637,165.778,443.026,191.914z M478.702,229.186       c-5.565,11.742-15.504,24.842-26.952,31.255c-5.162,2.906-4.872-0.203-6.278-5.97c-1.234-8.866-3.858-18.216-6.124-27.654       c-0.482-2.046-0.144-3.827,1.101-5.556c1.785-2.461,3.318-5.117,5.124-7.566C470.734,179.254,496.525,191.539,478.702,229.186z       "/>
					<path style="fill:#007AF4;" d="M315.379,192.394c-4.415,5.969-11.293,7.542-12.684,8.242c-2.552,1.292-4.637,0.907-6.793-1.107       c-22.705-21.243-46.675-42.675-66.645-61.357c-0.644-0.599-1.271-1.201-1.915-1.799c-0.732-0.68-1.423-1.542-2.077-2.532       c-4.066-6.115-6.118-16.996,1.37-19.096c5.635-1.597,11.179,0.862,15.48,4.843c15.964,14.715,48.95,45.038,64.5,59.322       c5.162,4.767,8.408,7.735,8.433,7.763C318.126,189.579,317.96,188.898,315.379,192.394z"/>
				</g>
			</g>
			<g>
				<path style="fill:#FF8EDE;" d="M416.423,168.909c-0.12,0.424-0.259,0.836-0.412,1.268c-2.019,5.659-6.913,11.916-15.195,18.501      c-33.115,26.321-86.244,33.283-114.597,24.575c-6.234-1.913-11.262-4.584-14.644-7.965c-5.979-6.009-6.688-14.265,0.516-24.57      c0.053-0.064,0.106-0.129,0.15-0.157c0.733-0.728,1.793,0.524,3.233,1.855c4.674,4.299,9.355,8.597,14.158,12.753      c7.461,6.456,8.295,7.867,16.951,4.047c4.09-1.804,7.406-4.836,10.01-8.43c1.888-2.606,0.353-4.079-0.497-4.885      c-2.868-2.751-5.422-5.132-7.683-7.225c-16.676-15.452-17.467-14.332-13.612-16.405c18.803-10.18,40.142-16.791,63.071-19.273      C396.254,138.843,421.687,150.58,416.423,168.909z"/>
				<path style="fill:#FF8EDE;" d="M320.759,283.898c3.622-6.734,13.961-9.525,20.984-7.47c6.952,2.034,8.49,9.95-0.14,14.91      C329.78,298.132,316.061,292.634,320.759,283.898z"/>
				<path style="fill:#FF8EDE;" d="M408.959,262.395c-6.315-4.312-16.778-2.03-22.067,3.026c-5.236,5.005-2.958,12.741,6.987,13.172      C407.501,279.184,417.15,267.988,408.959,262.395z"/>
			</g>
			<g>
				<path style="fill:#FC09B2;" d="M416.423,168.909c-3.597-1.166-11.532-4.638-30.4-5.703c-18.046-1.007-29.182,1.193-31.149,1.363      c-5.208,0.464-23.053,5.003-23.214,5.042c-9.024,2.629-20.131,7.483-22.42,8.727c-0.288,0.156-0.568,0.276-0.827,0.339      c-16.676-15.452-17.467-14.332-13.612-16.405c18.803-10.18,40.142-16.791,63.071-19.273      C396.254,138.843,421.687,150.58,416.423,168.909z"/>
				<path style="fill:#FC09B2;" d="M283.803,193.981c-8.091,5.886-10.604,10.087-12.212,11.303      c-0.017,0.004-0.017,0.004-0.017,0.004c-5.979-6.009-6.688-14.265,0.516-24.57c0.053-0.064,0.106-0.129,0.15-0.157      c0.146,0.102,0.274,0.208,0.431,0.358c3.753,3.428,7.492,6.859,11.205,10.331C285.071,192.35,285.071,193.054,283.803,193.981z"/>
			</g>
			<path style="fill:#FFFFFF;" d="M372.659,256.761c3.104-0.017,4.942,1.614,5.611,4.085c3.592,13.251-15.168,22.585-25.386,15.444     c-3.657-2.556-8.637-9.644-3.656-13.385C351.856,260.931,362.544,256.815,372.659,256.761z"/>
			<g style="opacity:0.5;">
				<path style="fill:#FC09B2;" d="M416.011,170.177c-2.019,5.659-6.913,11.916-15.195,18.501      c-33.115,26.321-86.244,33.283-114.597,24.575c18.611-17.309,36.087-3.854,60.759-11.93      c24.497-8.015,25.881-27.338,50.765-31.447C404.463,168.786,409.619,168.388,416.011,170.177z"/>
				<path style="fill:#FC09B2;" d="M374.997,171.565c-2.175,1.843-5.532,2.078-8.207,2.744      c-20.806,5.185-36.09,13.271-43.589,11.337c-4.877-1.258-2.893-6.6,0.157-8.697c4.484-3.082,11.609-4.478,16.824-5.776      c9.585-2.385,19.512-3.394,29.381-2.964C372.611,168.343,377.535,169.414,374.997,171.565z"/>
			</g>
			<g style="opacity:0.5;">
				<path style="fill:#FFFFFF;" d="M286.57,244.763c-0.967-6.684,7.146-10.947,10.676-0.348c3.764,11.3,14.438,71.846,12.693,77.044      c-0.932,2.776-3.53,2.495-4.759,0.066C300.945,313.151,288.609,258.847,286.57,244.763z"/>
				<path style="fill:#FFFFFF;" d="M245.036,127.055c4.252,3.236,23.201,21.051,26.153,25.097c1.212,1.661-0.661,3.533-2.325,2.637      c-0.819-0.441-7.853-6.117-13.266-10.068c-13.699-9.999-23.433-15.345-25.143-17.516c-1.772-2.25-1.032-4.783,1.65-5.667      C236.673,120.034,240.781,123.816,245.036,127.055z"/>
			</g>
			<g style="opacity:0.25;">
				<path style="fill:#00328D;" d="M305.633,342.182c-2.895-2.77-2.909-2.838,0.168-5.378      c22.563-18.623,74.783-13.503,94.935-19.755c18.457-5.727,25.825-21.662,24.496-39.574      c-2.286-30.819-13.099-50.249-1.107-79.518c4.851-11.842,4.492-8.686,6.695-1.234c3.29,11.13,3.96,1.339,18.471-10.669      c34.278-28.365,60.286-3.449,47.13,38.213c-6.776,21.459-21.424,41.92-41.814,52.286c-4.977,2.53-4.276,1.815-3.99,6.547      c0.382,6.309,4.445,15.943-3.239,29.464C424.975,351.987,335.376,370.64,305.633,342.182z M446.606,259.098      c0.569,3.122,2.443,2.889,5.202,1.326c11.109-6.295,20.602-18.632,26.034-29.542c14.47-29.069,3.56-46.33-16.361-32.973      c-12.17,8.16-18.26,19.642-20.875,23.128C437.009,225.832,441.277,229.893,446.606,259.098z"/>
				<path style="fill:#00328D;" d="M315.379,192.394c-4.415,5.969-11.293,7.542-12.684,8.242c-2.552,1.292-4.637,0.907-6.793-1.107      c-22.705-21.243-46.675-42.675-66.645-61.357c-0.644-0.599-1.271-1.201-1.915-1.799c-0.732-0.68-1.423-1.542-2.077-2.532      c0.053,0.004,0.126,0.021,0.182,0.042c26.055,7.243,50.706,40.198,80.594,44.996c0.178,0.025,0.372,0.047,0.574,0.031      c5.162,4.767,8.408,7.735,8.433,7.763C318.126,189.579,317.96,188.898,315.379,192.394z"/>
			</g>
		</g>
		<g>
			<path style="fill:#000E3F;" d="M262.138,217.857c-12.671-9.816-15.017-26.086-3.12-42.158c3.085-4.168,3.283-3.749,1.628-5.272     c-3.612-3.324-33.28-30.569-33.502-30.77c-19.494-17.644,1.56-36.326,16.288-22.206c6.759,6.481,5.112,4.69,35.178,32.328     c5.048,4.64,4.452,4.493,6.795,3.167c39.745-22.478,85.169-27.299,113.892-20.566c11.484,2.692,24.06,7.976,30.292,18.627     c2.812,4.805,3.899,10.369,3.397,15.894c-0.886,9.799-5.103,11.478-3.76,15.629c4.457,13.771,4.093,14.813,4.893,15.057     c0.973,0.297,1.904-1.638,2.422-2.248c31.354-36.945,64.703-27.917,65.776,6.095c0.909,28.811-20.136,64.786-46.8,77.474     c-2.661,1.266-2.807,1.504-2.29,4.196c0.639,3.323,0.862,6.692,1.217,10.049c6.058,57.202-140.432,93.494-159.678,37.077     c-2.681-7.859-3.32-8.264-10.183-29.994c-3.598-11.393-6.333-23.111-9.173-34.709     C264.203,219.749,269.038,223.203,262.138,217.857z M303.694,338.489c26.772,32.382,121.718,13.066,143.352-27.587     c5.465-10.269,4.077-16.845,2.315-28.658c-0.567-3.798-0.057-4.47,3.642-6.177c30.703-14.165,53.238-59.491,43.062-87.406     c-2.813-7.716-9.412-13.44-18.594-13.469c-22.343-0.071-40.147,25.177-41.41,26.354c-2.137,1.992-4.402,1.466-5.279-1.264     c-1.868-5.821-4.138-13.642-4.282-14.059c-1.285-3.709-3.012,7.778-27.916,23.546c-43.192,27.348-102.382,28.437-126.543,14.48     c-0.374-0.216-0.806-0.503-1.204-0.273c-0.617,0.357-0.289,0.971-0.195,1.47c1.465,7.751,5.66,30.138,7.832,37.751     C278.512,263.329,293.409,326.048,303.694,338.489z M390.599,210.206c15.509-8.681,33.046-21.814,37.815-38.935     c11.639-41.788-74.693-52.895-141.186-15.078c-1.444,0.821-1.768-0.111,23.678,23.282c2.169,1.994,4.3,4.031,6.508,5.981     c0.982,0.868,1.052,1.824,0.705,2.95c-0.701,2.276-2.364,0.424-3.689-0.791c-52.071-47.696-52.081-47.629-73.213-67.363     c-11.991-11.198-23.924,1.712-15.632,12.338c4.18,5.357,69.159,63.792,72.814,67.781c1.164,1.27-1.574,2.67-3.562,1.265     c-1.348-0.952-0.198,0.022-27.091-24.693c-2.554-2.347-2.822-2.805-3.86-1.537C224.07,224.013,321.448,248.91,390.599,210.206z"/>
			<path style="fill:#000E3F;" d="M482.423,223.636c-4.574,12.715-12.779,25.261-23.243,33.916     c-3.092,2.557-12.086,8.976-13.864,1.686c-1.457-5.977-1.813-9.182-2.806-13.75c-3.83-17.632-6.091-20.093-3.525-24.095     C468.118,175.966,495.402,187.556,482.423,223.636z M452.348,257.194c15.612-10.165,33.969-38.651,28.535-56.248     c-3.642-11.793-22.496-1.69-34.221,15.463c-1.866,2.73-5.516,6.695-4.63,10.363C449.906,259.403,447.471,260.369,452.348,257.194     z"/>
			<g>
				<path style="fill:#000E3F;" d="M328.162,259.12c3.335-1.675,7.895-0.928,10.454,2.677c4.503,6.345-2.72,13.87-9.729,10.944      C323.249,270.387,322.46,261.984,328.162,259.12z"/>
			</g>
			<g>
				<path style="fill:#000E3F;" d="M390.959,243.81c-3.731,0.048-7.436,2.809-8.049,7.188c-1.078,7.706,8.799,11.062,13.674,5.238      C400.507,251.551,397.339,243.729,390.959,243.81z"/>
			</g>
		</g>
	</g>
	<g>
		<path style="fill:#FD8A02;" d="M492.693,337.034c0,5.331,4.322,9.654,9.654,9.654c5.332,0,9.654-4.322,9.654-9.654    c0-5.332-4.322-9.654-9.654-9.654C497.015,327.38,492.693,331.702,492.693,337.034z"/>
		<path style="fill:#FD8A02;" d="M444.582,110.428c0,5.332,4.322,9.654,9.654,9.654c5.332,0,9.654-4.322,9.654-9.654    c0-5.331-4.322-9.654-9.654-9.654C448.905,100.775,444.582,105.097,444.582,110.428z"/>
		<path style="fill:#FD8A02;" d="M10.541,354.793c0,5.331,4.322,9.654,9.654,9.654c5.332,0,9.654-4.322,9.654-9.654    s-4.322-9.654-9.654-9.654C14.863,345.139,10.541,349.461,10.541,354.793z"/>
		<circle style="fill:#FD8A02;" cx="216.351" cy="195.634" r="9.654"/>
		<path style="fill:#FD8A02;" d="M302.679,401.572c0,5.331,4.322,9.654,9.654,9.654c5.331,0,9.654-4.322,9.654-9.654    c0-5.332-4.322-9.654-9.654-9.654C307.001,391.918,302.679,396.24,302.679,401.572z"/>
		<path style="fill:#FD8A02;" d="M71.559,120.082c0,5.331,4.322,9.654,9.654,9.654c5.331,0,9.654-4.322,9.654-9.654    c0-5.332-4.322-9.654-9.654-9.654C75.881,110.428,71.559,114.751,71.559,120.082z"/>
	</g>
</g>















</svg>
