<?xml version="1.0" encoding="UTF-8"?>
<!-- Generator: Adobe Illustrator 25.2.1, SVG Export Plug-In . SVG Version: 6.00 Build 0)  -->
<svg xmlns="http://www.w3.org/2000/svg" xmlns:xlink="http://www.w3.org/1999/xlink" version="1.1" id="Capa_1" x="0px" y="0px" viewBox="0 0 512 512" style="enable-background:new 0 0 512 512;" xml:space="preserve" width="512" height="512">
<g>
	<g>
		<g>
			<path style="fill:#FFCF00;" d="M418.654,345.393c-10.936,49.094-106.43,54.631-156.828,55.764     c-42.548,0.956-99.69-2.51-137.975-21.326c-32.672-16.057-29.291-42.168-30.028-52.565     c-3.185-44.934,0.451-128.727,13.113-201.479c0.602-3.461,0.442-1.784,23.685,1.337c75.103,10.085,185.566,9.538,271.796-4.467     c2.596-0.422,2.707,0.625,4.039,9.098c10.455,66.513,9.811,73.925,13.245,126.711     C420.396,269.13,421.401,333.062,418.654,345.393z"/>
			<path style="fill:#FFCF00;" d="M241.453,16.724c-0.238-2.983,1.07-5.617,3.096-7.956c13.377-15.444,32.39,3.992,22.556,15.961     c-7.095,8.636-20.097,6.696-24.761-2.51C241.615,20.778,241.443,19.34,241.453,16.724z"/>
		</g>
		<g>
			<path style="fill:#FF8EDE;" d="M205.926,341.648c4.391,0.466,15.363-1.032,22.971-4.84c15.669-7.842,44.893-44.676,74.199-31.62     c6.813,3.035,11.821,7.913,14.583,15.08c6.563,17.03-1.169,26.978,13.915,38.106c8.681,6.405,17.618,5.377,27.9,8.717     c8.744,2.841,13.636,8.651,17.825,12.922c0.497,0.506,0.885,1.133,1.256,1.746c0.991,1.636-0.396,2.144-2.158,2.787     c-24.122,8.801-43.872,11.945-70.113,14.734c-1.584,0.168-2.356-0.712-3.521-3.476c-7.248-17.203,3.725-32.054-1.872-44.453     c-2.769-6.133-7.844-9.156-14.362-9.907c-11.714-1.35-18.727,12.29-24.84,21.304c-16.028,23.633-45.655,7.16-55.93,4.171     c-18.686-5.437-38.793,6.144-48.988,22.252c-0.907,1.433-1.912,1.836-3.598,1.332c-6.548-1.956-13.064-3.996-19.41-6.541     c-1.676-0.672-1.855-1.103-1.076-2.715c9.155-18.95,27.635-37.372,48.901-40.189     C191.084,339.803,195.094,340.497,205.926,341.648z"/>
			<path style="fill:#FF8EDE;" d="M282.076,149.71c-15.851,4.457-14.12,33.906-44.906,39.127     c-12.536,2.126-24.636-6.975-39.272-3.929c-9.626,2.003-15.265,8.734-20.819,16.081c-17.733,23.46-56.905,26.654-79.057,7.485     c-2.131-1.844-1.622-1.175,2.411-38.513c1.044-9.662,2.18,1.154,18.358,8.995c9.668,4.686,20.63,6.736,31.04,3.3     c10.28-3.394,15.447-10.648,21.793-18.714c17.647-22.429,50.228,0.403,71.323-20.629c5.786-5.769,3.737-9.032,8.754-9.02     c80.535,0.188,95.218-6.901,93.557-2.312c-2.934,8.104-7.461,14.264-15.419,18.082     C315.009,156.777,298.374,145.127,282.076,149.71z"/>
			<path style="fill:#FF8EDE;" d="M409.088,204.213c1.653,0,3.228,0.139,4.765-0.04c2.273-0.265,2.218,0.548,2.709,4.73     c0.018,0.152,1.201,14.32,1.538,21.126c0.121,2.439-0.398,2.909-2.793,3.312c-18.315,3.076-35.56,1.578-52.471-12.943     c-14.794-12.703-20.563-8.142-38.584-4.638c-9.134,1.776-27.212,4.29-33.949-3.817c-3.324-4.001-4.037-9.986-1.746-14.655     c4.125-8.408,18.414-10.61,26.75-11.542c11.257-1.258,23.599-0.389,33.757-6.256c4.976-2.874,5.673-6.717,6.158-12.584     c2.124-25.704,38.892-23.156,44.607-24.143c1.551-0.268,3.129-0.365,4.658-0.09c3.977,0.713,3.887,0.312,4.409,4.257     c3.633,27.463,5.908,22.236-4.399,24.544c-8.769,1.963-20.743,6.599-24.925,14.79c-4.802,9.405,8.404,15.938,18.875,17.305     C402.004,204.032,405.56,204.724,409.088,204.213z"/>
			<path style="fill:#FF8EDE;" d="M103.066,262.172c-8.788,0-9.474,0.465-9.686-1.854c-0.087-0.952-0.198-1.946-0.022-2.869     c0.862-4.516,0.439-9.085,0.647-13.625c0.173-3.776,0.341-4.042,4.16-4.074c12.544-0.107,19.232,0.565,36.12,2.757     c32.426,4.208,38.485,24.939,26.14,33.964c-7.247,5.298-10.374,5.859-12.065,12.567c-2.879,11.423,29.317,7.7,38.184,22.735     c3.362,5.7,1.738,11.84-1.906,15.143c-10.139,9.191-31.633,5.935-50.291,10.28c-11.474,2.672-25.043,9.292-31.314,19.454     c-0.728,1.18-1.817,3.768-3.103,1.531c-7.384-12.839-6.562-30.174-6.618-44.58c-0.014-3.512,4.841,0.962,28.482,0.147     c5.162-0.178,9.039-2.114,10.377-3.45c2.909-2.906-0.52-7.256-3.872-9.658c-4.505-3.228-5.146-2.892-6.911-5.604     c-1.361-2.091-1.501-4.246-0.378-6.472c1.934-3.833,3.067-4.352,8.625-7.811c8.877-5.524,3.01-18.676-26.566-18.676     C103.066,262.11,103.066,262.141,103.066,262.172z"/>
			<path style="fill:#FF8EDE;" d="M420.274,283.97c-0.071,4.468-1.606,0.883-20.478,6.299c-8.638,2.479-21.845,7.85-25.489,16.014     c-6.06,13.579,21.142,20.402,37.425,19.859c11.361-0.378,7.889-0.042,7.846,11.608c-0.015,3.996-0.862,7.853-2.023,11.643     c-0.728,2.375-1.072,2.569-3.593,2.659c-2.204,0.079-17.265-1.029-22.5-2.027c-21.848-4.164-44.897-13.617-54.457-33.781     c-3.217-6.786-4.663-13.63-1.525-20.42c13.524-29.269,45.408-14.291,80.531-43.044c1.239-1.014,2.594-2.195,3.194-0.712     c0.219,0.54,0.342,1.156,0.345,1.739C419.592,263.519,420.645,260.758,420.274,283.97z"/>
		</g>
		<g>
			<path style="fill:#007AF4;" d="M252.245,132.499c-20.133,0-16.399-0.829-22.268-0.618c-1.423,0.051-1.75-0.4-1.656-1.712     c0.62-8.64,5.748-27.488,12.665-27.196c3.226,0.136,6.475-0.351,9.683,0.379c0.572,0.13,1.205,0.155,1.784,0.064     c6.087-0.958,12.212-0.202,18.313-0.457c6.976-0.291,11.64,16.763,12.687,23.69c0.727,4.813,1.311,5.471-4.261,5.276     C270.198,131.612,261.243,133.065,252.245,132.499z"/>
			<path style="fill:#007AF4;" d="M402.564,117.102c-2.81-7.387-6.986-13.878-12.595-19.467c-1.037-1.033-2.669-1.726-2.639-3.582     c1.486-1.057-0.976,0.08,31.6-6.358c6.426-1.27,12.48,0.34,16.999,5.404c7.638,8.558,1.873,19.694-6.765,22.046     c-4.885,1.33-15.157,3.655-21.721,4.935C403.443,120.859,403.419,119.35,402.564,117.102z"/>
			<path style="fill:#007AF4;" d="M99.146,120.376c-5.379-1.198-10.766-2.373-16.116-3.691c-17.803-4.387-13.22-32.87,13.857-26.785     c12.198,2.741,25.65,4.444,26.177,4.559c5.314,1.161-6.533,5.004-13.585,23.841c-0.21,0.561-0.365,1.144-0.592,1.697     C107.899,122.405,107.16,122.161,99.146,120.376z"/>
			<path style="fill:#007AF4;" d="M345.857,98.69c2.64-0.619,4.572,0.401,6.338,2.039c7.358,6.821,12.651,17.933,13.573,23.697     c0.292,1.828-1.132,2.154-3.23,2.297c-33.736,2.304-33.087,4.225-33.989,0.765c-5.669-21.744-13.912-23.512-12.391-26.223     c0.367-0.655-1.814-0.249,24.862-2.086C342.69,99.062,344.298,98.382,345.857,98.69z"/>
			<path style="fill:#007AF4;" d="M160.206,128.42c-12.48-1.076-13.72-0.671-13.7-2.711c0.007-0.71,0.045-1.452,0.255-2.122     c3.329-10.625,7.165-15.997,12.671-21.813c1.852-1.956,4.064-2.917,6.781-2.404c4.601,0.868,9.297,0.513,13.93,1.153     c5.231,0.723,17.473-0.547,15.636,2.426c-1.965,3.18-7.357,7.451-12.114,24.595c-0.689,2.483-0.688,2.463-3.434,2.298     C162.844,128.804,192.842,131.235,160.206,128.42z"/>
		</g>
		<g>
			<path style="fill:#00328D;" d="M187.438,130.408c-1.556-0.156-2.159-0.841-2.086-2.353c0.323-6.683,9.635-26.292,16.134-26.49     c1.077-0.033,2.18-0.149,3.23,0.024c6.004,0.989,4.957,0.034,29.388,1.281c4.818,0.246-3.78,3.835-6.827,22.941     c-0.906,5.677-0.648,6.038-3.272,6.092C223.784,131.906,194.39,131.105,187.438,130.408z"/>
			<path style="fill:#00328D;" d="M288.159,131.743c-3.602-0.229-1.847-1.139-4.669-12.1c-3.489-13.554-9.291-15.954-6.152-16.701     c4.358-1.036-0.921-0.308,30.425-1.573c2.921-0.118,3.358-1.428,6.476,1.614c6.003,5.857,10.923,16.422,12.41,23.173     c0.293,1.332,1.043,3.335-0.903,3.529c-6.143,0.612-21.347,1.716-27.211,1.569C296.157,131.194,294.425,132.141,288.159,131.743z     "/>
			<path style="fill:#00328D;" d="M136.641,126.172c-6.543-0.743-13.097-1.409-19.575-2.626c-2.714-0.509-7.526-0.223-6.774-2.785     c2.598-8.859,8.963-17.497,12.335-20.869c6.102-6.103,5.456-4.61,26.382-2.114c7.914,0.944,7.246,0.62,8.534,1.08     c0.906,0.324,1.248,1.258,0.722,2.019c-1.954,2.833-7.054,4.944-13.351,23.516C144.12,126.738,143.787,126.983,136.641,126.172z"/>
			<path style="fill:#00328D;" d="M384.997,95.276c6.096,4.168,13.151,13.645,16.061,22.068c1.699,4.919,4.076,3.822-30.914,8.442     c-5.027,0.664-0.5-4.769-12.161-20.842c-1.111-1.531-3.599-3.829-4.493-5.116c-2.04-2.935,4.631-1.978,27.1-5.374     C382.91,94.104,383.579,94.307,384.997,95.276z"/>
		</g>
		<g>
			<path style="fill:#00D5FE;" d="M254.511,401.734c-37.397,0-86.186-5.698-95.447-9.941c-1.014-0.465-0.701-1.477-0.176-2.492     c3.51-6.777,7.97-12.835,13.855-17.734c4.345-3.617,9.604-5.351,15.01-6.6c19.255-4.449,32.967,11.338,55.32,2.072     c15.175-6.29,15.585-12.224,31.938-25.205c14.409-11.438,33.779-1.423,30.213,24.418c-1.253,9.076,0.511,17.662,5.322,25.531     c1.87,3.059,5.636,5.801,3.391,6.553c-2.371,0.795-29.682,3.447-59.426,3.447C254.511,401.766,254.511,401.75,254.511,401.734z"/>
			<path style="fill:#00D5FE;" d="M168.857,166.728c-2.609,2.636-5.444,5.051-8.204,7.534c-15.793,14.211-41.339,9.308-58.332-3.92     c-1.295-1.008-1.705-1.952-1.484-3.64c1.342-10.21,2.701-20.416,4.433-30.569c2.032-11.916,1.204-12.708,4.341-12.224     c72.022,11.111,130.35,9.359,137.052,10.065c1.463,0.154,1.88,0.677,1.634,2.139c-1.706,10.107-6.395,14.301-9.463,17.758     C223.384,171.281,193.724,141.605,168.857,166.728z"/>
			<path style="fill:#00D5FE;" d="M93.305,287.644c0-29.671-0.946-29.073,2.77-29.15c9.957-0.207,19.879-0.021,29.569,2.755     c7.245,2.076,13.663,8.205,10.84,15.29c-0.946,2.375-1.999,3.396-6.432,5.967c-4.319,2.506-6.012,9.975-0.657,14.041     c7.428,5.64,10.537,7.477,10.081,10.496c-0.441,2.919-1.471,5.542-3.959,7.4c-7.305,5.455-23.245,5.32-32.141,4.049     c-9.28-1.326-9.838-0.617-10.059-4.236c-0.219-3.586-0.161-6.748-0.161-26.612C93.205,287.644,93.255,287.644,93.305,287.644z"/>
			<path style="fill:#00D5FE;" d="M417.99,326.032c-11.23-0.832-29.182-0.583-41.572-9c-16.91-11.489,15.012-28.374,41.85-31.172     c2.334-0.243,2.025,1.661,2.029,4.397C420.339,325.178,420.9,326.248,417.99,326.032z"/>
			<path style="fill:#00D5FE;" d="M380.39,178.372c6.135-7.89,17.315-11.863,27.045-12.22c5.466-0.201,3.868-5.523,7.87,31.322     c1.124,10.345,1.983,11.019-0.618,11.458c-2.236,0.377-4.419,0.641-6.756,0.227c-2.69-0.476-5.486-0.325-8.191-0.959     c-9.618-2.255-19.344-7.172-22.251-16.656C377.135,190.392,377.582,181.984,380.39,178.372z"/>
		</g>
		<g>
			<path style="fill:#FFFFFF;" d="M235.112,358.968c11.988-2.902,14.472-7.804,26.119-18.259c2.939-2.638,5.849-5.4,9.144-7.531     c24.173-15.633,45.398,3.626,45.39,25.866c-0.003,8.751-2.557,15.654,1.629,25.14c3.885,8.802,12.228,12,8.567,12.601     c-10.102,1.656-10.486,2.07-12.362,0.089c-5.219-5.514-7.981-12.227-9.246-19.538c-1.93-11.153,3.106-15.469-1.372-28.119     c-4.474-12.637-19.169-15.112-30.596-4.31c-4.004,3.785-8.316,7.249-12.03,11.335c-8.615,9.478-22.697,16.077-37.55,14.212     c-16.114-2.023-24.776-10.337-44.431-1.502c-7.979,3.587-14.516,12.637-18.63,20.357c-1.309,2.457-1.335,2.453-4.209,1.779     c-4.667-1.095-4.97-1.296-4.243-3.245c4.078-10.945,11.585-20.621,21.723-26.561c9.173-5.374,19.464-5.961,29.821-5.181     C213.271,356.887,224.774,361.471,235.112,358.968z"/>
			<path style="fill:#FFFFFF;" d="M183.079,169.029c-10.349,4.617-17.805,24.154-45.704,23.902     c-17.297-0.156-27.635-7.257-35.254-11.8c-1.818-1.084-2.771-2.591-2.454-4.77c0.293-2.012,0.525-4.034,0.869-6.038     c0.166-0.966,1.074-1.282,1.937-0.753c0.509,0.312,0.975,0.695,1.458,1.049c17.362,12.759,41.591,16.649,57.891,1.641     c7.82-7.201,13.786-14.515,27.399-16.688c16.155-2.579,36.793,8.645,46.769-0.06c15.106-13.183,7.977-21.104,14.786-21.575     c4.126-0.286,4.817,0.54,4.131,4.717c-2.307,14.048-12.179,24.435-25.819,28.129     C213.761,170.934,197.759,162.479,183.079,169.029z"/>
			<path style="fill:#FFFFFF;" d="M93.985,252.698c0.129-0.819,0.713-1.252,1.483-1.326c1.791-0.171,3.582-0.186,5.375,0.099     c5.378,0.855,8.992-0.42,24.595,2.614c10.073,1.959,19.696,9.093,18.958,19.195c-1.067,14.615-14.458,12.854-10.782,17.05     c5.242,5.982,6.553,4.841,9.999,8.693c8.528,9.531,2.879,28.118-29.252,26.594c-3.212-0.152-19.491-0.589-20.742-4.239     c-0.477-1.392-0.495-2.84,0.028-4.222c0.926-2.445,14.175,3.458,32.275,0.245c13.535-2.403,14.444-11.411,10.864-14.264     c-2.979-2.374-7.072-5.255-8.282-6.322c-5.201-4.582-3.731-11.406,0.64-14.587c1.258-0.916,2.632-1.672,3.898-2.579     c6.224-4.459,3.49-14.177-6.352-17.206c-4.344-1.337-8.8-2.183-13.371-2.596C92.309,257.949,92.422,262.624,93.985,252.698z"/>
			<path style="fill:#FFFFFF;" d="M411.724,279.232c7.475-1.067,8.385-1.062,8.511,1.166c0.309,5.487-0.059,5.888-1.768,6.217     c-8.132,1.562-19.943,2.569-35.472,11.057c-3.796,2.075-7.164,5.28-8.302,6.791c-10.395,13.815,20.013,20.358,39.212,20.254     c1.065-0.006,2.128,0.365,3.196,0.397c2.869,0.084,3.041,0.99,3.056,3.689c0.025,4.211-0.234,4.504-4.402,4.543     C346.565,334.005,347.491,288.398,411.724,279.232z"/>
			<path style="fill:#FFFFFF;" d="M410.023,217.524c-39.726-1.359-54.974-33.414-28.032-51.243     c9.338-6.179,22.935-7.928,27.332-6.982c1.55,0.333,1.625,1.451,2.16,5.283c0.131,0.94-0.238,1.664-1.231,1.882     c-1.048,0.229-2.104,0.516-3.167,0.566c-24.158,1.157-38.752,20.416-22.376,33.582c9.938,7.99,21.922,7.268,24.542,7.892     c3.405,0.811,6.812-2.187,7.34,1.82c0.667,5.063,0.821,6.25-0.786,6.471C413.556,217.105,411.338,217.745,410.023,217.524z"/>
		</g>
		<g>
			<g>
				<path style="fill:#FC09B2;" d="M235.017,414.381c-0.49-4.55,1.204-8.444,3.696-12.092c0.957-1.402,2.035-1.999,3.932-1.617      c5.413,1.088,10.929,1.015,16.437,1.058c11.833,0.093,13.945-2.839,16.56,0.385c5.001,6.167,6.302,16.248-0.132,25.027      C261.331,446.489,233.524,433.123,235.017,414.381z"/>
			</g>
			<g>
				<path style="fill:#FC09B2;" d="M297.415,413.002c-1.032-4.458,0.183-8.527,2.219-12.448c0.782-1.507,1.781-2.228,3.71-2.077      c5.505,0.43,10.971-0.304,16.445-0.922c11.759-1.328,13.504-4.492,16.486-1.605c5.705,5.523,8.206,15.375,2.872,24.862      C327.391,441.721,298.181,431.788,297.415,413.002z"/>
			</g>
			<g>
				<path style="fill:#FC09B2;" d="M360.154,404.226c-2.028-4.102-1.78-8.342-0.698-12.625c0.415-1.646,1.222-2.578,3.134-2.873      c5.456-0.845,10.608-2.815,15.794-4.673c11.14-3.992,12.112-7.472,15.678-5.346c6.821,4.065,11.516,13.08,8.503,23.539      C395.922,425.296,365.212,422.334,360.154,404.226z"/>
			</g>
			<g>
				<path style="fill:#FC09B2;" d="M214.172,413.002c1.032-4.458-0.183-8.527-2.219-12.448c-0.782-1.507-1.781-2.228-3.71-2.077      c-5.505,0.43-10.971-0.304-16.445-0.922c-11.759-1.328-13.504-4.492-16.486-1.605c-5.705,5.523-8.206,15.375-2.872,24.862      C184.196,441.721,213.406,431.788,214.172,413.002z"/>
			</g>
			<g>
				<path style="fill:#FC09B2;" d="M151.433,404.226c2.028-4.102,1.78-8.342,0.698-12.625c-0.415-1.646-1.222-2.578-3.134-2.873      c-5.456-0.845-10.608-2.815-15.794-4.673c-11.14-3.992-12.112-7.472-15.678-5.346c-6.82,4.065-11.516,13.08-8.503,23.539      C115.665,425.296,146.375,422.334,151.433,404.226z"/>
			</g>
			<path style="fill:#FC09B2;" d="M218.226,287.071c-17.735,6.834-37.127-9.383-25.666-22.609     c5.194-5.994,13.768-8.604,21.505-7.457C232.605,259.754,237.815,279.523,218.226,287.071z"/>
			<path style="fill:#FC09B2;" d="M294.978,287.071c17.735,6.834,37.127-9.383,25.666-22.609     c-5.194-5.994-13.768-8.604-21.505-7.457C280.599,259.754,275.388,279.523,294.978,287.071z"/>
		</g>
		<g style="opacity:0.25;">
			<path style="fill:#000E3F;" d="M420.047,329.01c-0.414,13.48-0.727,24.077-12.59,37.051     c-34.562,37.795-160.338,39.46-211.415,32.366c-29.666-4.12-42.52-6.061-72.127-18.498c-1.421-0.597-3.367-1.208-3.624-2.646     c-1.265-7.109,24.581-13.382,29.103-13.985c60.649-8.095,123.072,40.01,204.482-18.152c14.207-10.15,28.695-33.676,31.179-50.35     c4.63-31.083-8.962-57.022-5.52-100.501c1.632-20.611,7.009-46.459,24.558-59.583c2.106-1.575,2.675-1.359,3.091,1.353     c7.051,46.014,6.736,47.578,8.092,60.875C419.073,234.177,421.556,279.887,420.047,329.01z"/>
			<path style="fill:#000E3F;" d="M245.166,432.916c-15.038-10.582,10.312,2.178,17.155-23.137c1.762-6.519-0.678-6.584,7.369-6.766     c1.317-0.03,2.645,0.099,3.95-0.029c2.096-0.205,3.355,0.645,4.208,2.555C286.909,425.825,262.632,445.206,245.166,432.916z"/>
			<path style="fill:#000E3F;" d="M309.714,430.185c-16.199-8.701,10.499,0.925,14.255-25.028c0.967-6.683-1.463-6.456,6.504-7.601     c1.304-0.188,2.638-0.219,3.918-0.502c2.057-0.455,3.408,0.238,4.484,2.032C350.305,418.137,328.529,440.292,309.714,430.185z"/>
			<path style="fill:#000E3F;" d="M376.069,418.127c-17.764-4.75,10.431-1.51,8.128-27.632c-0.593-6.727-2.906-5.947,4.586-8.891     c1.226-0.482,2.517-0.819,3.698-1.389c1.897-0.915,3.371-0.551,4.831,0.948C412.81,397.082,396.701,423.644,376.069,418.127z"/>
			<path style="fill:#000E3F;" d="M201.872,430.185c16.199-8.701-10.499,0.925-14.255-25.028c-0.967-6.683,1.463-6.456-6.504-7.601     c-1.304-0.188-2.638-0.219-3.918-0.502c-2.057-0.455-3.408,0.238-4.484,2.032C161.282,418.137,183.058,440.292,201.872,430.185z"/>
			<path style="fill:#000E3F;" d="M135.517,418.127c17.764-4.75-10.431-1.51-8.128-27.632c0.593-6.727,2.906-5.947-4.586-8.891     c-1.226-0.482-2.517-0.819-3.698-1.389c-1.897-0.915-3.371-0.551-4.831,0.948C98.777,397.082,114.885,423.644,135.517,418.127z"/>
			<path style="fill:#000E3F;" d="M439.546,101.816c-0.054,5.803-4.475,11.73-10.087,13.259c-3.189,0.869-21.484,5.401-24.55,5.246     c-1.054-0.053-1.572-0.895-1.894-1.897c-3.989-12.424-8.947-12.865-5.364-15.092c3.792-2.357,7.257-3.756,10.208-9.722     c0.372-0.752,0.828-1.47,1.125-2.249c1.033-2.703,3.287-1.867,7.204-3.113c5.339-1.698,12.995-1.053,18.54,3.614     C437.858,94.495,439.169,98.009,439.546,101.816z"/>
			<path style="fill:#000E3F;" d="M242.297,132.505c-4.189,0.018-8.329-0.831-12.53-0.644c-1.142,0.051-1.511-0.467-1.462-1.54     c0.156-3.485,0.78-6.895,1.748-10.239c0.436-1.506,0.954-1.863,2.592-1.967c0.477-0.031,0.974-0.084,1.434,0.01     c4.629,0.952,9.312,0.406,13.969,0.514c15.776,0.366,21.96-0.964,28.7-0.562c5.238,0.313,5.16-1.8,7.196,12.068     c0.136,0.924-0.491,1.663-1.451,1.689C244.13,132.879,268.934,132.389,242.297,132.505z"/>
			<path style="fill:#000E3F;" d="M195.111,131.008c-2.491-0.007-4.97-0.556-7.488-0.608c-1.762-0.036-2.355-0.819-2.283-2.512     c0.087-2.037,1.761-6.521,2.893-9.573c0.459-1.236,1.413-1.86,2.807-1.748c38.887,3.118,38.371-1.162,37.072,4.916     c-2.05,9.595-0.873,10.345-3.987,10.413C221.256,131.959,204.29,131.033,195.111,131.008z"/>
			<path style="fill:#000E3F;" d="M287.92,131.723c-2.568-0.192-2.244-0.541-4.13-11.298c-0.203-1.16,0.023-1.508,1.208-1.749     c1.286-0.261,2.594-0.538,3.898-0.563c9.726-0.182,5.734-0.519,26.503-1.6c6.675-0.348,7.061-1.588,8.532,1.7     c1.375,3.075,2.427,6.256,3.062,9.564c0.233,1.212-0.246,1.838-1.467,1.932c-20.412,1.568-16.549,1.262-27.583,1.588     C295.69,131.364,292.144,132.038,287.92,131.723z"/>
			<path style="fill:#000E3F;" d="M152.916,112.337c27.429,3.448,4.592,1.101,32.367,3.657c3.309,0.304,0.5,2.363-1.861,12.5     c-0.295,1.266-0.829,1.595-2.033,1.522c-35.234-2.131-34.83-2.389-34.876-4.226c-0.015-0.593-0.01-1.21,0.133-1.778     c0.885-3.503,2.297-6.8,3.992-9.984C151.275,112.834,152.236,112.295,152.916,112.337z"/>
			<path style="fill:#000E3F;" d="M361.431,113.076c1.948,3.6,3.528,7.344,4.334,11.377c0.588,2.944-1.7,1.997-34.356,4.911     c-3.845,0.343-1.778-1.371-5.954-11.453c-1.254-3.027,0.894-1.952,29.242-5.256C356.241,112.475,360.471,111.302,361.431,113.076     z"/>
			<path style="fill:#000E3F;" d="M140.769,126.729c-6.103-0.968-16.613-1.615-29.413-4.156c-1.081-0.215-1.343-0.776-1.065-1.86     c0.991-3.864,2.839-7.356,4.784-10.798c0.912-1.614,2.528-1.403,5.633-1.127c10.616,0.946,14.473,1.27,27.07,2.822     c1.494,0.184,1.921,0.892,1.248,2.215c-1.745,3.429-3.012,7.031-4.165,10.688C144.142,126.792,143.994,126.837,140.769,126.729z"/>
			<path style="fill:#000E3F;" d="M369.745,125.855c-3.515,0.099-1.822-3.581-5.839-11.26c-1.042-1.992-0.725-2.772,1.619-3.042     c28.113-3.241,27.576-8.523,29.979-4.897c2.722,4.107,4.341,6.919,5.963,11.833c1.135,3.439,1.609,2.962-25.763,6.729     C373.69,125.494,371.628,125.35,369.745,125.855z"/>
			<path style="fill:#000E3F;" d="M83.422,116.797c-2.201-0.507-6.555-2.329-4.592-3.866c2.51-1.965,9.515-4.968,16.942-5.055     c3.583-0.042,7.109-0.892,10.715-0.615c8.243,0.634,7.856,0.877,6.387,3.578c-1.606,2.952-2.899,6.021-4.012,9.185     C107.835,122.941,107.598,122.362,83.422,116.797z"/>
			<path style="fill:#000E3F;" d="M244.889,25.747c-0.959-0.852-1.333-2.281-0.084-2.522c1.019-0.196,2.613-0.2,4.294-0.174     c5.34,0.083,9.918-3.74,10.458-10.157c0.395-4.69-1.06-6.433-1.516-8.386c-0.728-3.114,11.304,2.559,11.775,11.869     C270.132,22.647,260.144,37.414,244.889,25.747z"/>
		</g>
	</g>
	<g>
		<path style="fill:#000E3F;" d="M427.646,118.429c25.369-6.028,15.296-38.593-11.742-32.947    c-26.889,5.615-26.904,5.459-28.863,3.44c-12.521-12.904-28.908-27.592-42.3-38.402c-3.536-2.854-7.092-5.684-10.674-8.48    c-13.151-10.269-26.633-20.303-41.065-28.72c-38.017-22.172-50.331-14.694-85.606,7.94c-17.755,11.393-34.544,24.402-50.42,38.282    c-36.497,31.91-31.223,32.832-37.809,31.631c-25.042-4.568-26.807-5.215-31.199-4.882c-13.536,1.026-22.892,14.169-15.786,25.219    c5.341,8.304,11.563,8.208,27.566,11.771c2.464,0.549,3.795,0.605,4.136,1.648c0.255,0.013,0.519,0.054,0.785,0.098    c-8.939,42.374-17.39,143.713-13.232,202.407c0.079,1.111,0.108,2.406,0.142,3.853c0.265,11.317,0.737,31.459,23.384,46.251    c-6.639,4.7-11.515,14.022-8.235,25.37c1.042,3.606,2.671,6.649,4.736,9.125c-5.562,8.474-10.885,17.186-15.861,25.942    c-6.475,11.32-12.559,23.074-18.099,34.916c-0.564,1.195-0.044,2.629,1.151,3.173c0.326,0.152,0.674,0.239,1.001,0.239    c0.912,0,1.759-0.521,2.173-1.391c5.496-11.732,11.515-23.357,17.925-34.568c4.779-8.408,9.863-16.73,15.164-24.878    c1.521,1.217,3.151,2.216,4.889,2.998L95.345,485.08c-0.456,1.238,0.174,2.629,1.434,3.063c0.261,0.109,0.543,0.152,0.804,0.152    c0.977,0,1.889-0.587,2.259-1.564l24.487-66.681c1.847,0.478,3.738,0.739,5.628,0.783c-1.217,9.668-2.716,19.381-4.519,28.94    c-2.39,12.711-5.323,25.486-8.713,37.957c-0.347,1.282,0.391,2.585,1.673,2.933c0.218,0.066,0.413,0.087,0.63,0.087    c1.043,0,2.021-0.695,2.303-1.76c3.433-12.602,6.388-25.508,8.799-38.327c1.869-9.93,3.455-20.011,4.694-30.048    c0.956-0.13,1.89-0.326,2.824-0.565c10.436-2.665,19.471-11.889,17.229-26.654c5.291,1.357,10.772,2.556,16.392,3.621    c-4.458,6.18-6.222,15.521-0.921,24.967c1.868,3.281,4.15,5.866,6.713,7.822c-3.454,9.495-6.626,19.185-9.494,28.853    c-3.673,12.537-6.91,25.356-9.582,38.153c-0.282,1.282,0.543,2.542,1.847,2.825c0.152,0.044,0.326,0.044,0.5,0.044    c1.108,0,2.086-0.761,2.325-1.89c2.651-12.667,5.845-25.378,9.495-37.784c2.737-9.256,5.779-18.555,9.082-27.68    c1.759,0.826,3.585,1.434,5.432,1.803l-8.518,70.439c-0.152,1.326,0.782,2.52,2.086,2.672c0.109,0,0.196,0.022,0.283,0.022    c1.195,0,2.237-0.891,2.368-2.107l8.517-70.526c0.153,0.022,0.282,0.022,0.435,0.022c1.781,0,3.541-0.174,5.258-0.521    c1.043,9.669,1.781,19.467,2.237,29.179c0.587,12.906,0.674,26.029,0.218,38.935c-0.044,1.326,0.999,2.434,2.303,2.477h0.087    c1.282,0,2.347-1.022,2.39-2.303c0.456-13.058,0.369-26.29-0.24-39.348c-0.456-10.103-1.238-20.271-2.325-30.309    c0.891-0.347,1.781-0.761,2.629-1.195c9.326-4.875,15.944-15.574,10.992-29.022c6.595,0.465,13.224,0.794,19.832,1.001    c-6.763,12.893-1.463,24.439,7.285,30.455c0.782,0.543,1.607,1.043,2.455,1.477c-2.281,9.886-4.28,19.902-5.953,29.831    c-2.151,12.885-3.825,26.007-4.954,39.022c-0.108,1.304,0.87,2.455,2.173,2.586h0.218c1.238,0,2.282-0.935,2.39-2.173    c1.108-12.885,2.759-25.899,4.889-38.653c1.608-9.581,3.52-19.207,5.714-28.702c1.803,0.609,3.672,0.999,5.585,1.173v71.048    c0,1.325,1.064,2.39,2.389,2.39c1.326,0,2.39-1.065,2.39-2.39v-70.983c1.89-0.13,3.759-0.5,5.606-1.129    c2.172,9.473,4.063,19.054,5.67,28.593c2.152,12.753,3.802,25.768,4.911,38.653c0.108,1.238,1.151,2.173,2.39,2.173h0.195    c1.325-0.13,2.281-1.282,2.173-2.586c-1.13-13.015-2.782-26.137-4.954-39.022c-1.672-9.951-3.649-19.924-5.953-29.788    c2.781-1.63,5.388-3.933,7.605-6.974c6.54-8.924,5.749-18.633,1.859-25.326c5.819-0.26,11.509-0.595,17.011-1.004    c-5.171,13.602,1.473,24.434,10.874,29.35c0.848,0.457,1.738,0.848,2.65,1.195c-1.107,10.082-1.889,20.25-2.346,30.331    c-0.609,13.036-0.674,26.268-0.239,39.326c0.042,1.281,1.108,2.303,2.389,2.303h0.087c1.326-0.044,2.347-1.152,2.303-2.477    c-0.434-12.927-0.369-26.029,0.239-38.935c0.435-9.712,1.174-19.489,2.216-29.179c1.716,0.348,3.477,0.521,5.259,0.521    c0.152,0,0.282,0,0.434-0.022l8.517,70.526c0.152,1.217,1.173,2.107,2.369,2.107c0.108,0,0.195-0.022,0.282-0.022    c1.325-0.152,2.26-1.347,2.086-2.672l-8.517-70.439c1.868-0.37,3.693-0.977,5.432-1.803c3.303,9.125,6.344,18.424,9.081,27.68    c3.651,12.406,6.845,25.117,9.495,37.784c0.239,1.129,1.239,1.89,2.347,1.89c0.152,0,0.326,0,0.477-0.044    c1.304-0.283,2.13-1.542,1.869-2.825c-2.695-12.797-5.91-25.616-9.603-38.153c-2.846-9.668-6.018-19.337-9.495-28.853    c2.563-1.956,4.866-4.541,6.713-7.822c5.336-9.509,3.533-18.914-1-25.092c5.53-0.994,11.034-2.161,16.481-3.534    c-2.245,14.787,6.795,24.024,17.218,26.692c0.935,0.239,1.869,0.435,2.848,0.565c1.238,10.038,2.824,20.141,4.671,30.048    c2.411,12.841,5.388,25.747,8.799,38.327c0.305,1.065,1.26,1.76,2.303,1.76c0.217,0,0.435-0.021,0.63-0.087    c1.281-0.348,2.042-1.651,1.694-2.933c-3.39-12.471-6.322-25.226-8.734-37.957c-1.781-9.56-3.303-19.272-4.52-28.94    c1.89-0.044,3.802-0.304,5.649-0.783l24.487,66.681c0.348,0.978,1.26,1.564,2.239,1.564c0.282,0,0.543-0.043,0.825-0.152    c1.238-0.434,1.868-1.825,1.412-3.063l-24.464-66.616c1.715-0.782,3.345-1.781,4.866-2.998    c5.324,8.126,10.407,16.47,15.209,24.878c6.41,11.233,12.428,22.879,17.904,34.568c0.413,0.869,1.282,1.391,2.173,1.391    c0.347,0,0.673-0.087,1.021-0.239c1.196-0.543,1.695-1.978,1.152-3.173c-5.541-11.819-11.624-23.574-18.099-34.916    c-4.997-8.756-10.32-17.447-15.883-25.942c2.086-2.477,3.715-5.519,4.758-9.125c3.273-11.392-1.658-20.758-8.318-25.425    c8.589-5.412,16.144-12.361,20.791-21.457c1.636-3.201,2.862-6.605,3.644-10.113c2.881-12.942,1.725-77.988,1.099-87.602    c-6.355-97.788-5.647-69.646-13.346-127.424c-0.406-2.587-0.708-4.471-1.031-5.906c0.127-0.086,0.261-0.164,0.389-0.249    C407.911,122.133,406.723,123.401,427.646,118.429z M400.246,119.01c0.502,1.699-1.335,1.552-27.871,5.319    c-3.684,0.523-3.658-0.209-4.162-1.905c-2.762-9.296-8.495-18.416-13.422-23.343c30.261-3.834,28.038-3.846,29.614-2.671    C391.843,101.959,398.153,111.917,400.246,119.01z M186.698,127.119c1.958-8.309,5.655-15.749,11.182-22.271    c1.076-1.269,2.36-1.967,4.066-1.864c23.83,1.439,32.052-1.322,30.428,4.027c-0.871,2.87-4.755,6.294-6.776,21.629    c-0.464,3.523-0.819,1.931-19.395,1.607c-5.62-0.098-11.235-0.525-16.851-0.816C187.493,129.334,186.255,129,186.698,127.119z     M182.283,127.826c-0.388,1.566-1.955,0.986-26.419-1.048c-4.424-0.368-8.799,0.026-8.051-2.321    c3.533-11.097,6.497-15.317,12.026-21.374c3.227-3.534,2.402-2.236,23.887-1.26c3.088,0.14,6.203,0.313,9.299,0.572    C197.165,102.741,187.726,105.851,182.283,127.826z M229.698,127.873c0.977-6.182,2.526-12.187,5.498-17.751    c4.205-7.873,1.198-5.169,34.234-5.752c2.733-0.049,4.486,0.905,5.909,3.164c3.779,5.994,6.383,14.262,7.033,20.04    c0.415,3.699,1.614,3.318-49.46,3.317C229.661,130.89,229.267,130.597,229.698,127.873z M279.146,103.839    c1.408-0.177,8.401-0.346,20.064-0.857c11.06-0.484,11.98-1.468,14.472,1.149c5.077,5.333,9.982,14.793,11.583,22.024    c0.517,2.33-1.421,2.814-3.23,2.931c-0.243,0.016-25.024,1.448-33.088,1.195c-3.273-0.102-1.687-0.767-4.15-10.776    C281.867,107.605,276.427,104.181,279.146,103.839z M324.703,113.381c-5.882-11.452-9.865-11.39-4.245-11.692    c0.158-0.009,22.963-1.462,26.492-1.956c5.379-0.754,15.433,15.414,17.204,23.653c0.299,1.397,0.128,1.695-1.334,1.858    c-4.891,0.543-25.181,2.699-30.021,2.699v0.073C327.608,128.016,331.87,127.336,324.703,113.381z M258.015,4.936    c4.148,0.916,8.725,4.681,10.008,8.845c3.78,12.255-14.361,21.823-23.585,9.4C237.908,14.384,248.427,2.819,258.015,4.936z     M129.37,91.096c1.768-2.54,4.528-5.292,5.841-6.323c3.999-3.138,24.954-25.028,56.136-47.645    c10.278-7.454,35.983-24.838,48.05-28.724c0.554-0.178,1.191-0.528,1.647,0.076c0.33,0.437-0.044,0.901-0.298,1.286    c-5.856,8.866,1.143,21.954,13.34,23.145c7.773,0.759,16.905-4.114,18.028-12.42c0.379-2.799-0.109-5.616-0.847-8.315    c-0.13-0.477-1.381-3.398-0.837-3.796c1.955-1.43,35.34,15.652,68.243,42.388c24.061,19.552,42.751,37.785,44.279,39.397    c0.537,0.567,0.567,1.028-0.369,1.164c-41.804,6.09-63.53,6.712-111.905,7.854c-14.091,0.333-28.424,1.332-42.514,0.642    c-14.021-0.686-59.138-1.357-98.058-7.19C129.211,92.501,128.876,91.807,129.37,91.096z M126.791,98.018    c2.843-2.105,3.161-1.225,20.671,0.786c18.89,2.171,4.302-2.242-3.634,24.819c-0.559,1.905,1.394,2.645-19.497-0.202    c-3.785-0.516-7.552-1.173-11.315-1.828c-1.394-0.243-1.529-0.57-1.058-1.987C114.53,111.883,120.966,102.33,126.791,98.018z     M83.881,115.671c-16.099-3.589-13.549-29.941,12.53-24.568c42.284,8.713,22.079-2.632,11.684,27.4    C107.197,121.095,109.749,121.437,83.881,115.671z M149.793,392.131c3.107,13.883-5.236,21.227-13.318,23.292    c-0.348,0.087-0.696,0.174-1.043,0.239c-1.587,0.326-3.238,0.478-4.889,0.413c-1.543-0.022-3.107-0.218-4.606-0.565    c-1.521-0.348-2.998-0.869-4.411-1.564c-1.39-0.674-2.716-1.521-3.932-2.543c-1.239-1.021-2.369-2.216-3.325-3.606    c-1.26-1.76-2.26-3.846-2.955-6.214c-2.782-9.669,1.738-17.425,7.431-20.814c0.259-0.154,0.466-0.359,0.642-0.584    c1.097,0.607,2.223,1.207,3.41,1.791c8.066,3.964,17.166,7.295,26.995,10.065C149.798,392.072,149.787,392.1,149.793,392.131z     M202.177,427.329c-0.326,0.174-0.651,0.326-0.978,0.478c-1.477,0.695-3.042,1.217-4.649,1.543c-1.521,0.326-3.064,0.5-4.628,0.5    c-1.565,0-3.13-0.152-4.65-0.522c-1.499-0.326-2.955-0.847-4.368-1.564c-1.433-0.695-2.824-1.608-4.085-2.738    c-1.63-1.456-3.085-3.237-4.302-5.388c-4.823-8.562-2.429-16.969,2.147-21.644c10.769,1.843,21.985,3.199,33.364,4.134    C215.814,414.645,209.483,423.516,202.177,427.329z M273.79,403.625c4.171,5.149,5.736,13.992-0.216,22.096    c-1.456,1.999-3.13,3.607-4.911,4.824c-1.391,0.978-2.846,1.716-4.368,2.26c-1.477,0.521-3.019,0.869-4.541,1.021    c-1.564,0.152-3.129,0.13-4.671-0.065c-1.565-0.174-3.085-0.521-4.541-1.065c-1.565-0.5-3.064-1.216-4.432-2.064    c-0.326-0.195-0.609-0.391-0.913-0.587c-6.845-4.701-12.129-14.437-4.534-26.362c11.218,0.24,22.317,0.139,33.033-0.24    C273.735,403.502,273.745,403.57,273.79,403.625z M337.059,419.638c-1.217,2.151-2.672,3.933-4.302,5.388    c-1.26,1.108-2.629,2.021-4.063,2.738c-1.412,0.717-2.89,1.239-4.389,1.564c-1.52,0.37-3.085,0.522-4.649,0.522    c-1.565,0-3.13-0.174-4.629-0.5c-1.63-0.348-3.172-0.848-4.65-1.521c-0.326-0.174-0.651-0.326-0.977-0.5    c-7.35-3.848-13.743-12.84-7.709-25.536c7.995-0.673,15.554-1.489,22.52-2.411c3.51-0.465,7.025-0.993,10.538-1.559    C339.434,402.463,341.941,410.951,337.059,419.638z M392.833,380.768c5.714,3.39,10.212,11.146,7.431,20.814    c-0.673,2.368-1.694,4.432-2.955,6.192c-0.956,1.391-2.086,2.607-3.324,3.65c-1.217,0.999-2.542,1.847-3.933,2.52    c-1.391,0.695-2.89,1.216-4.389,1.542c-1.521,0.391-3.085,0.565-4.628,0.587c-1.652,0.044-3.281-0.087-4.867-0.413    c-0.348-0.065-0.695-0.152-1.043-0.239c-8.104-2.064-16.447-9.408-13.341-23.292c0.009-0.042-0.004-0.081,0.002-0.123    c6.153-1.722,12.221-3.719,18.132-6.13c4.1-1.672,8.218-3.591,12.195-5.788C392.3,380.357,392.537,380.591,392.833,380.768z     M417.316,258.62c0.736,11.311,1.632,74.461-0.993,86.253c-11.29,50.676-119.117,53.098-154.549,53.893    c-33.565,0.753-95.969-0.981-136.868-21.082c-27.776-13.652-28.258-34.219-28.546-46.509c-0.036-1.532-0.068-2.904-0.151-4.079    c-3.147-44.378,0.333-127.598,13.068-200.822c0.225,0.021,139.206,23.804,293.518-1.258c0.416,1.264,0.971,5.011,1.301,7.109    C414.472,198.126,413.82,204.768,417.316,258.62z M407.061,118.848c-4.586,0.857-0.428-0.002-9.138-13.444    c-6.928-10.692-12.304-10.532-5.369-11.456c24.282-3.24,30.176-8.702,39.814-2.332c10.066,6.652,5.704,19.733-3.289,22.172    C421.808,115.76,414.472,117.464,407.061,118.848z"/>
		<path style="fill:#000E3F;" d="M301.028,225.218c-6.115,0.008-12.303,4.768-12.543,12.341c-0.213,6.721,5.461,12.847,12.885,12.68    c7.728-0.174,12.225-7.067,12.229-12.29C313.626,231.16,307.773,225.209,301.028,225.218z"/>
		<path style="fill:#000E3F;" d="M212.051,225.626c-6.822-0.125-12.191,5.495-12.387,12.311    c-0.213,7.388,5.587,12.537,12.345,12.712c6.947,0.179,12.852-6.561,12.476-12.328    C224.866,233.025,220.507,225.78,212.051,225.626z"/>
		<path style="fill:#000E3F;" d="M276.83,237.312c-1.184,0.189-1.99,1.303-1.801,2.488c0.912,5.718-0.919,11.968-4.899,16.717    c-3.588,4.281-8.351,6.686-13.412,6.773c-5.152,0.134-10.013-2.199-13.696-6.441c-4.144-4.77-6.058-11.144-5.12-17.052    c0.189-1.185-0.62-2.298-1.804-2.487c-1.195-0.188-2.298,0.622-2.487,1.806c-1.137,7.16,1.154,14.855,6.13,20.582    c4.456,5.13,10.367,7.94,16.686,7.94c0.121,0,0.244-0.001,0.367-0.003c6.338-0.109,12.255-3.066,16.664-8.327    c4.78-5.701,6.97-13.251,5.86-20.194C279.13,237.931,278.029,237.111,276.83,237.312z"/>
	</g>
</g>















</svg>
