<?xml version="1.0" encoding="UTF-8"?>
<!-- Generator: Adobe Illustrator 25.2.1, SVG Export Plug-In . SVG Version: 6.00 Build 0)  -->
<svg xmlns="http://www.w3.org/2000/svg" xmlns:xlink="http://www.w3.org/1999/xlink" version="1.1" id="Capa_1" x="0px" y="0px" viewBox="0 0 512 512" style="enable-background:new 0 0 512 512;" xml:space="preserve" width="512" height="512">
<g>
	<g>
		<g>
			<path style="fill:#FF8EDE;" d="M369.999,108.11c15.468-42.183,56.984-25.986,59.841,3.387     c1.406,14.45-12.934,29.57-33.393,28.385c-3.484-0.202-9.577-2.641-18.87-0.441c-0.27,0.064-0.532,0.289-0.726,0.504     c-0.104,0.115-0.079,0.371-0.064,0.559c0.096,1.208,6.679-2.532,18.429,0.713c18.135,5.008,29.685,20.563,31.457,33.651     c4.512,33.318-37.515,41.314-55.423,15.45c-0.94-1.358-1.788-2.781-1.257-4.564c-1.09-8.514-1.034-11.26-6.274-18.595     c-0.315-0.442-0.809-0.538-0.998-0.395c-1.285,0.975,4.825,4.543,5.68,16.433c2.197,30.545-32.733,55.844-52.578,38.939     c-15.457-13.167-10.285-47.117,16.892-59.956c4.937-2.332,11.593-2.648,12.511-2.85c0.486-0.107,0.751-0.823-0.088-0.956     c-4.677-0.74-15.554,1.936-23.573,9.618c-4.771,4.57-12.935,6.669-18.942,6.803c-19.394,0.432-30.909-15.32-27.062-34.945     c5.867-29.931,53.446-26.181,70.58,3.337c0.812,1.399,1.205,2.776,2.013,2.295c1.109-0.66-6.212-14.096-21.507-21.952     c-12.513-6.427-15.786-3.713-18.387-7.125c-8.309-10.897-7.062-28.831,4.695-39.676c13.057-12.045,31.721-7.846,42.751,11.885     c13.716,24.533,5.805,52.642,9.559,52.922C366.669,141.64,363.926,124.669,369.999,108.11z"/>
			<path style="fill:#FC09B2;" d="M365.765,133.657c0-4.508-0.753-6.273,2.581-13.662c13.959-30.945,31.718-26.039,30.16-15.259     c-0.517,3.579-2.055,5.337,1.323,4.628c9.724-2.04,14.831,3.583,13.832,9.993c-1.415,9.079-7.855,12.76-16.926,15.083     c-8.732,2.236-11.094,3.606-18.709,4.896c-0.289,0.049-1.66,0.457-1.587,0.749c0.102,0.405,0.251,0.666,0.788,0.732     c10.605,1.299,24.314,8.642,30.121,14.84c12.711,13.569,2.953,26.901-6.995,23.67c-2.089-0.679-2.427-0.678-2.304,1.897     c0.535,11.164-12.235,19.267-21.808,5.893c-4.974-6.949-6.477-13.859-10.564-17.581c-0.739-0.673-1.208-1.639-1.836-2.442     c-0.728-0.93-1.685-0.454-1.396,0.595c3.876,14.084-0.088,28.978-6.304,35.863c-5.388,5.969-15.943,7.613-18.031-2.694     c-0.293-1.447-0.226-3.562-1.79-2.641c-6.366,3.75-14.11,2.392-16.178-4.643c-2.432-8.273,3.292-18.263,9.419-24.072     c8.463-8.023,13.909-7.615,16.449-9.159c0.865-0.526,0.464-1.688-0.367-1.884c-3.455-0.818-13.034,0.921-20.067,6.353     c-4.474,3.455-14.847,5.503-24.2,2.368c-7.964-2.67-10.967-12.607-2.115-18.761c4.104-2.853,4.954-2.683,2.81-3.81     c-4.522-2.375-7.508-7.484-4.786-12.223c2.565-4.467,8.229-6.986,13.182-7.412c12.089-1.039,19.775,3.555,29.245,10.002     c2.76,1.879,7.403,10.016,7.879,10.487c0.102,0.101,0.41,0.12,0.533,0.039c1.247-0.822-4.007-7.649-4.983-8.799     c-7.576-8.935-13.878-11.929-21.456-15.532c-7.95-3.779-5.457-21.527,8.017-17.986c3.201,0.841,1.768-0.004,1.132-4.61     c-1.049-7.592,4.631-11.544,9.709-10.244c19.477,4.989,25.634,33.282,23.379,50.159c-0.137,1.027,0.011,2.476,1.046,2.549     C367.573,141.22,364.77,133.657,365.765,133.657z"/>
			<path style="fill:#FC09B2;" d="M329.443,126.743c0.086,0.046,0.216,0.072,0.25,0.143c0.199,0.42-0.392,0.411-0.406,0.053     C329.285,126.876,329.388,126.809,329.443,126.743z"/>
			<path style="fill:#FFFFFF;" d="M349.151,153.489c0.041-5.524,4.307-9.86,9.831-10.165c7.652-0.421,12.326,5.589,10.994,11.674     c-1.253,5.722-6.201,8.632-10.8,8.9C354.682,164.161,348.575,160.097,349.151,153.489z"/>
			<g style="opacity:0.25;">
				<path style="fill:#000E3F;" d="M371.436,190.582c-0.995-1.437-1.991-2.897-1.442-4.808c-1.231-11.428-2.025-11.694-5.457-17.631      c-0.262-0.453,0.206-1.113,0.785-0.863c1.949,0.843,3.549,1.745,7.892,4.098c5.371,2.91,14.244,4.069,19.929,0.007      c3.785-2.705,4.359-8.143,2.893-11.963c-3.538-9.218-14.726-9.621-19.052-17.046c-0.545-0.936,0.102-1.476,1.057-1.66      c3.116-0.601,6.251-1.185,9.433-0.876c21.732,2.111,45.3,23.751,38.376,47.294C418.419,212.404,384.5,209.44,371.436,190.582z"/>
				<path style="fill:#000E3F;" d="M352.267,219.081c-10.593,9.007-25.959,11.752-36.419,3.129      c-1.535-1.265-2.662-2.827-3.812-4.387c-2.93-3.973,13.984-0.255,25.171-19.464c6.253-10.736,9.532-27.413,22.472-31.172      c1.872-0.544,2.196-0.405,3.381,1.147C372.643,180.892,369.939,204.055,352.267,219.081z"/>
				<path style="fill:#000E3F;" d="M398.631,139.916c-2.256,0.359-4.738-0.442-7.251-0.846c-11.979-1.928-15.578,2.447-15.35-1.089      c1.034-16.047,36.923-21.344,37.732-47.917c0.039-1.287-0.189-3.644,1.464-2.712c4.603,2.594,10.718,9.603,13.379,17.828      c3.54,10.945-0.96,21.763-9.021,27.889C413.865,137.415,405.707,140.042,398.631,139.916z"/>
			</g>
			<g style="opacity:0.5;">
				<path style="fill:#FFFFFF;" d="M319.594,78.762c5.096-3.882,7.104-2.235,5.871-0.364c-7.379,11.202-6.587,13.276-9.945,26.44      C312.198,117.864,298.402,94.905,319.594,78.762z"/>
				<path style="fill:#FFFFFF;" d="M287.554,128.736c0.963-0.976,1.915-0.411,1.812,0.221c-0.544,3.327-0.579,1.167-1.833,8.07      c-1.897,10.438,6.743,18.959,2.395,23.712C283.282,168.005,272.183,144.327,287.554,128.736z"/>
			</g>
		</g>
		<path style="fill:#000E3F;" d="M310.757,179.555c0.368-0.653,2.985-3.403,1.058-3.721c-1.053-0.174-25.431,7.169-36.222-14.104    c-2.518-4.965-3.207-10.174-3.207-15.669c0.448-9.283,3.448-17.288,10.793-22.806c13.009-9.772,23.54-4.031,21.039-8.769    c-2.645-5.009-4.029-10.335-3.646-15.986c0.973-14.386,10.623-28.725,25.843-30.545c7.513-0.898,14.857,1.503,20.838,6.025    c6.086,4.601,10.593,11.629,14.478,22.09c4.33,11.66,3.259,14.947,4.16,15.298c0.599,0.233,0.618-0.378,0.724-0.7    c12.923-39.128,47.776-37.55,61.282-13.18c10.859,19.595-1.348,39.882-22.195,44.202c-0.35,0.073-0.93-0.074-0.941,0.478    c-0.009,0.447,0.515,0.57,0.865,0.749c24.896,12.791,34.257,48.901,8.67,61.817c-10.387,5.243-22.932,3.887-32.471-1.531    c-2.785-1.582-5.251-3.563-7.652-5.634c-2.16-1.864-3.636-5.798-4.445-2.174c-4.328,19.393-24.014,37.354-43.113,34.111    c-9.869-1.676-16.35-7.58-19.862-16.822C302.693,202.004,305.289,189.26,310.757,179.555z M335.672,72.005    c-21.36-6.371-40.466,21.547-27.545,42.475c3.547,5.744,12.101,0.729,28.841,14.577c4.637,3.835,11.126,11.204,12.661,16.005    c0.357,1.115-1.483,2.662-2.687,1.393c-1.474-1.554-4.226-9.294-14.897-16.909c-21.206-15.134-46.109-10.935-53.393,4.408    c-2.914,6.138-3.305,15.065-1.835,21.058c5.604,22.849,34.084,21.928,44.247,12.018c4.072-3.971,9.039-6.676,14.487-8.433    c2.751-0.887,5.611-1.141,8.445-1.543c3.079-0.438,4.352,2.408,2.26,3.324c-0.875,0.384-1.807,0.298-2.725,0.351    c-14.207,0.827-26.908,11.864-32.453,26.126c-7.41,19.057,0.239,39.474,19.937,39.535c19.379,0.06,38.566-22.173,36.17-44.017    c-1.028-9.379-5.038-12.857-5.879-14.938c-0.595-1.471,1.621-2.554,2.849-1.322c3.167,3.179,6.594,10.313,6.738,18.686    c0.191,11.106,22.2,25.694,41.448,17.033c23.261-10.466,15.166-46.065-11.826-57.604c-4.654-1.99-9.467-3.316-14.596-3.208    c-2.357,0.05-4.714,0.013-7.025,0.603c-4.539,1.158-4.359-2.443-2.532-2.93c12.544-3.342,17.552,1.288,27.02-0.165    c23.89-3.667,33.222-25.983,17.737-44.534c-13.82-16.556-39.614-15.057-50.185,14.708c-7.289,20.526-2.002,33.854-5.762,34.122    c-1.402,0.1-1.854-1.561-1.859-3.012C363.23,113.214,361.565,79.728,335.672,72.005z"/>
	</g>
	<g>
		<g>
			<path style="fill:#00D5FE;" d="M340.064,316.435c-4.973,13.35-7.95,25.563-8.455,38.295c-0.32,8.056,0.371,16.037,2.209,23.902     c0.187,0.802,0.423,1.597,0.708,2.369c0.163,0.444,0.503,0.797,1.047,0.801c0.553,0.004,0.881-0.36,1.029-0.812     c2.773-8.444,6.988-16.189,11.524-23.775c3.7-6.188,7.953-12,12.508-17.57c4.931-6.029,10.258-11.704,15.991-17.003     c7.904-7.305,16.2-14.1,25.175-20.051c7.284-4.83,14.774-9.285,22.685-13.042c2.981-1.416,5.884-3.012,8.958-4.218     c8.239-3.231,16.564-6.197,25.188-8.288c4.71-1.143,9.463-1.999,14.238-2.772c0.569-0.092,1.164-0.072,1.742-0.031     c0.122,0.009,0.245,0.33,0.318,0.526c0.028,0.075-0.061,0.265-0.138,0.295c-0.539,0.212-1.075,0.468-1.638,0.577     c-2.432,0.469-4.878,0.872-7.311,1.337c-11.172,2.132-21.883,5.668-32.365,10.09c-16.221,6.843-31.108,15.862-44.753,26.906     c-12.993,10.515-24.602,22.405-34.15,36.191c-3.893,5.621-7.51,11.402-10.537,17.572c-1.873,3.819-3.621,7.671-5.21,11.607     c-0.309,0.765-0.597,1.543-0.83,2.334c-0.202,0.687-0.339,1.48,0.316,1.96c0.515,0.378,1.111,0.011,1.654-0.243     c2.672-1.249,5.357-2.471,8.032-3.715c6.04-2.811,12.472-4.359,18.945-5.685c7.293-1.494,14.692-2.312,22.13-2.632     c4.476-0.192,8.965-0.063,13.445-0.193c8.295-0.241,16.462-1.371,24.365-3.992c3.817-1.266,7.526-2.816,10.764-5.276     c2.383-1.81,4.324-3.949,5.402-6.846c0.917-2.465,0.866-4.842,0.013-7.259c-1.165-3.298-3.112-6.101-5.646-8.466     c-4.785-4.465-10.193-8.024-16.217-10.583c-2.079-0.883-3.923-2.15-5.908-3.177c-0.151-0.078-0.253-0.404-0.244-0.608     c0.018-0.391,0.325-0.682,0.679-0.675c2.471,0.055,4.942,0.151,7.413,0.237c10.572,0.366,20.976-0.848,31.211-3.461     c10.615-2.709,20.514-7.046,29.414-13.487c8.051-5.827,14.641-13.024,19.234-21.862c3.909-7.523,6.142-15.565,6.273-24.113     c0.005-0.354,0.047-0.709,0.029-1.062c-0.061-1.191-0.529-1.738-1.712-1.821c-2.469-0.173-4.946-0.229-7.411-0.433     c-8.6-0.71-17.073-2.184-25.448-4.268c-5.149-1.282-10.216-2.811-15.28-4.395c-3.152-0.986-6.213-2.23-9.38-3.128     c-5.705-1.618-11.557-2.372-17.488-2.256c-13.244,0.257-25.653,3.857-37.288,9.991c-12.659,6.674-23.543,15.65-32.939,26.456     c-5.281,6.074-10.038,12.515-14.066,19.474c-1.591,2.748-3.178,5.506-4.479,8.428C342.419,311.699,340.552,314.6,340.064,316.435     z"/>
			<path style="opacity:0.25;fill:#00328D;" d="M472.761,273.844c1.271,0.206,2.089,0.205,2.169,0.778     c0.285,2.039-13.955,0.706-41.969,12.659c-40.745,17.386-73.411,49.207-88.87,80.33c-1.52,3.059-5.24,10.992-6.142,14.28     c-0.156,0.569-0.226,1.211,0.273,1.654c1.726,1.534,8.405-6.392,33.479-10.373c23.953-3.803,29.833,0.252,49.28-4.334     c12.434-2.932,26.801-10.197,21.74-21.933c-3.554-8.24-13.743-14.836-21.424-18.117c-2.078-0.888-3.92-2.16-5.922-3.157     c-0.553-0.275-0.501-1.133,0.251-1.311c1.68-0.398,8.818,1.181,23.307-0.443c45.717-5.124,70.053-34.091,70.342-62.543     c0.004-0.354,0.042-0.71,0.011-1.06c-0.107-1.183-1.16-1.822-2.311-1.351c-3.297,1.351-5.29,4.921-23.554,11.22     c-5.06,1.745-8.448,2.336-10.706,3.577L472.761,273.844z"/>
			<path style="opacity:0.75;fill:#FFFFFF;" d="M346.623,332.51c3.931,2.906,9.125-10.047,10.277-11.995     c9.716-16.441,22.876-30.677,39.681-39.929c8.491-4.675,22.11-7.331,28.333-15.207c2.571-3.254,0.533-6.9-2.775-8.507     c-13.97-6.787-52.017,15.546-69.725,53.891C350.415,315.093,343.116,329.918,346.623,332.51z"/>
		</g>
		<path style="fill:#000E3F;" d="M433.772,241.563c19.546,0.099,19.11,5.272,50.091,11.622c26.182,5.366,28.374-0.701,28.119,8.427    c-0.828,29.706-23.311,51.398-50.514,60.13c-14.235,4.57-28.324,5.647-34.123,5.524c-0.289-0.006-0.584,0.26-0.876,0.4    c0.192,0.285,0.321,0.671,0.587,0.839c1.693,1.07,3.476,2.008,5.12,3.147c27.802,19.265,14.826,42.838-38.541,42.362    c-16.455-0.147-39.024,3.623-53.244,12.261c-4.521,2.746-3.98,4.445-4.736,7.679c-2.941,12.57-1.94,23.126-1.943,23.551    c-0.014,2.194-3.44,2.868-3.732,0.402c-1.043-8.799,0.151-18.805,2.384-27.345c1.997-7.637-2.563-9.207-3.435-27.126    C325.894,301.091,380.306,241.291,433.772,241.563z M334.651,376.827c1.796,8.453,1.679-9.787,25.363-38.383    c20.524-24.781,48.454-44.235,72.912-54.202c9.318-3.797,31.988-11.508,41.887-11.174c1.62,0.054,2.218,2.691,0.411,3.308    c-4.252,1.453-37.211,3.691-76.234,31.368c-44.492,31.556-60.46,72.507-59.396,73.667c0.746,0.813,1.505-0.097,2.212-0.368    c1.322-0.507,2.621-1.081,3.901-1.688c20.055-9.512,45.059-9.217,54.348-9.364c45.384-0.716,59.759-23.981,15.901-42.417    c-3.927-1.651-2.83-4.331-0.402-4.499c4.637-0.319,40.013,3.631,67.997-16.905c14.088-10.338,23.982-25.955,24.43-43.89    c0.049-1.96-0.289-2.365-2.175-2.407c-19.149-0.425-39.564-6.939-40.988-7.301c-8.493-2.155-18.394-8.28-35.808-6.954    C370.235,250.094,322.599,320.17,334.651,376.827z"/>
	</g>
	<g>
		<g>
			<path style="fill:#FFCF00;" d="M160.958,319.34c-2.333,2.528-5.369,4.137-8.699,4.404c-3.635,0.791-6.902,0.541-9.794-0.732     c-2.071-0.883-3.941-2.309-5.642-4.233c-9.409-10.643-3.699-33.671,4.274-44.355c0.889-1.181,1.783-1.269,3.086-0.484     c7.907,4.754,15.612,14.851,19.3,23.403C167.317,306.23,165.446,314.5,160.958,319.34z"/>
			<path style="fill:#00D5FE;" d="M227.432,378.801c-0.347,0.319-0.7,0.638-1.082,0.912c-0.496,0.356-1.309,0.142-1.459-0.436     c-1.498-5.76-1.361-9.356-6.113-20.259c-2.993-6.866-7.948-11.521-14.929-14.248c-15.565-6.079-35.255-2.437-44.763-1.493     c-1.805,0.179-1.913-0.929-2.384-3.235c-2.303-11.266-4.652-13.656-1.162-15.381c7.13-3.525,11.454-8.289,11.486-17.489     c0.021-5.799-1.839-11.117-4.877-16.003c-6.203-9.976-14.621-17.296-16.224-18.067c-4.782-2.299-3.339-3.104-6.481,1.248     c-6.49,8.99-12.244,28.568-6.798,40.371c2.953,6.4,7.714,10.398,14.878,10.932c4.219,0.315,3.96,0.515,4.673,4.208     c2.859,14.808,3.187,13.906,0.176,14.758c-5.214,1.477-10.494,2.751-15.627,4.468c-38.703,12.947-34.459,32.083-30.775,53.393     c0.111,0.642-0.45,1.344-1.792,0.848c-83.159-30.704-2.641-149.726,41.782-148.388     C200.267,256.578,282.643,328.014,227.432,378.801z"/>
			<path style="fill:#007AF4;" d="M174.342,96.141c15.127-0.131,31.496,0.492,44.635,8.975     c11.721,7.567,14.916,20.073,11.798,31.384c-6.646,24.105-34.576,53.506,19.081,105.252c6.704,6.465,12.405,15.627,17.579,24.322     c24.232,40.728,23.967,108.045-31.978,147.106c-51.388,35.881-147.105,43.437-190.024-15.197     c-17.981-24.565-27.23-57.858-20.946-89.073c2.433-12.084,2.503-15.002,6.211-23.921c2.757-6.632,14.37-30.046,11.182-52.988     c-0.275-1.978-0.113-3.994-0.573-5.975c-6.325-27.2-28.637-37.072-35.505-51.819c-4.272-9.174-3.762-18.048,1.66-26.629     c9.827-15.552,29.766-23.689,46.3-29.705C90.637,104.456,132.078,96.508,174.342,96.141z M176.674,405.553     c38.158-8.658,75.938-34.544,70.014-73.83c-3.996-26.504-42.943-69.527-93.205-77.553c-12.534-2.001-18.212,0.037-26.251,4.291     c-16.214,8.581-28.764,22.55-39.084,36.294c-6.788,9.04-15.782,27.021-20.158,46.086c-1.904,8.297-2.143,16.556-0.608,24.911     c0.346,1.88,1.104,3.601,1.64,5.405c9.328,31.441,47.88,41.712,81.216,38.688C171.596,407.906,171.22,406.79,176.674,405.553z"/>
			<g>
				<path style="fill:#FF8EDE;" d="M110.302,405.312c-1.1-0.289-1.759-0.945-2.228-2.037c-2.914-6.784-3.433-18.022-2.504-25.456      c1.351-10.808,10.489-17.879,20.371-22.662c5.311-2.57,10.764-4.79,16.546-6.131c4.338-1.006,5.65-1.994,10.967-2.688      c2.098-0.274,1.981,0.449,3.383,7.992c0.249,1.337,1.134,4.673,2.363,4.379c1.145-0.274,0.74-1.459,0.311-3.823      c-1.56-8.611-2.28-9.271,0.392-9.798c14.72-2.902,32.905-4.124,46.546,2.417c13.287,6.371,15.187,26.283,16.323,31.046      c0.621,2.603-0.018,4.414-2.312,6.02C188.177,407.17,141.478,413.522,110.302,405.312z"/>
				<path style="fill:#FF8EDE;" d="M99.384,245.2c-17.738,12.284-37.521-1.15-30.783-14.71c7.549-15.192,31.426-15.372,36.984-2.823      C108.498,234.241,104.605,241.584,99.384,245.2z"/>
				<path style="fill:#FF8EDE;" d="M164.595,227.59c-4.471-3.234-6.848-10.648-3.35-16.497c5.661-9.466,19.926-13.553,30.628-7.387      c8.751,5.042,9.444,15.283,2.076,22.017C185.962,233.023,173.648,234.139,164.595,227.59z"/>
			</g>
			<path style="fill:#FC09B2;" d="M128.026,379.565c-6.028-0.166-12.009-0.831-17.942-1.857c-4.749-0.821-4.979-1.112-2.969-5.798     c6.352-14.81,29.026-21.305,43.341-25.06c0.91-0.239,1.851-0.391,2.787-0.501c1.452-0.171,2,0.146,2.316,1.527     c0.603,2.638,1.604,11.521,3.776,10.788c1.254-0.423,0.185-2.638-1.183-11.245c-0.224-1.412,0.158-2.003,1.561-2.282     c3.009-0.597,6.024-1.296,9.07-1.541c15.539-1.249,36.418-2.118,45.527,10.623c0.653,0.913,0.61,1.457-0.323,2.092     C192.123,371.199,160.051,380.446,128.026,379.565z"/>
			<path style="fill:#FFFFFF;" d="M160.59,313.235c0.421,2.005,0.696,4.2,0.369,6.104c-2.333,2.528-5.369,4.137-8.699,4.404     c-3.635,0.791-6.902,0.541-9.794-0.732c-0.108-0.142-0.2-0.307-0.292-0.471c-6.07-11.824-0.033-29.185,3.403-30.283     C151.872,290.233,159.491,307.978,160.59,313.235z"/>
			<g style="opacity:0.25;">
				<path style="fill:#00328D;" d="M83.341,429.087c-2.826-1.437,2.921-4.099,5.811-5.558c13.599-6.866,30.409-5.496,45.165-6.064      c38.385-1.478,80.499-6.57,107.295-36.965c21.987-24.939,27.365-57.947,9.066-93.612c-7.317-14.261-11.962-17.518-27.471-40.306      c-25.106-36.891-22.323-79.728-4.981-103.988c3.008-4.209,8.317-10.035,12.101-12.295c0.725-0.433,1.528,0.021,1.429,0.838      c-1.732,14.304-14.797,33.736-14.307,50.439c0.606,20.641,12.939,41.298,27.252,55.066      c23.993,23.077,37.907,56.14,37.904,87.097C282.592,431.054,145.456,460.675,83.341,429.087z"/>
				<path style="fill:#00328D;" d="M199.837,128.375c-41.19,26.379-141.644,38.717-161.37,32.589      c-1.148-0.357-2.232-0.732-3.354,0.126c-0.746,0.571-2.229-0.421-1.513-1.785c11.643-22.186,48.575-30.925,70.83-36.134      C119.234,119.707,195.619,106.969,199.837,128.375z"/>
				<path style="fill:#00328D;" d="M227.488,378.753c-0.346,0.32-0.697,0.641-1.078,0.917c-0.637,0.461-1.435,0.177-1.637-0.645      c-4.324-17.549-6.626-30.271-24.185-35.384c-7.527-2.191-9.998-1.251-9.51-3.122c0.985-3.778,7.129-13.092,2.816-36.445      c-5.77-31.244-32.238-44.079-31.706-46.007c0.679-2.468,48.627,12.167,74.672,52.861      C251.405,333.656,248.537,359.269,227.488,378.753z"/>
				<path style="fill:#00328D;" d="M105.084,403.524c-4.539-0.966-14.724-6.051-21.533-12.298c-1.528-1.402-1.559-1.738-0.646-3.661      c6.576-13.848,22.682-20.884,23.96-19.586c1.503,1.526-5.652,4.608-2.395,26.52      C105.515,401.523,106.933,403.058,105.084,403.524z"/>
			</g>
			<path style="opacity:0.5;fill:#FFFFFF;" d="M49.94,279.584c5.392-4.539,11.236,1.237,11.208,6.75     c-0.053,10.446-14.066,43.977-8.038,76.477c4.029,21.719,16.251,38.531,17.689,41.769c0.767,1.727-1.507,3.812-3.084,2.494     c-8.913-7.449-15.399-18.814-20.566-29.027C27.309,338.839,37.237,290.275,49.94,279.584z"/>
		</g>
		<g>
			<path style="fill:#000E3F;" d="M278.181,282.97c-9.49-25.953-21.578-33.984-34.475-49.552     c-41.403-49.98-17.261-70.489-10.402-96.653c7.711-29.418-19.433-42.512-50.054-43.446     c-50.413-1.536-102.534,9.375-143.493,27.237c-14.09,6.145-29.58,15.041-36.498,28.846c-11.649,23.247,10.6,37.977,24.698,54.671     c26.801,31.737,0.299,81.762-4.212,96.875c-3.012,10.092-4.148,20.535-3.889,31.05c1.081,44.001,27.436,85.139,68.432,102.081     c55.328,22.866,134.312,6.2,172.696-40.905C285.888,362.612,291.62,319.72,278.181,282.97z M149.707,439.48     C64.84,444.366,23.224,385.066,23.636,327.877c0.191-26.543,9.251-37.516,15.386-59.263c3.293-11.673,5.436-23.898,4.344-36.055     c-0.594-6.613-2.179-13.132-4.892-19.2c-3.888-8.697-15.907-21.169-22.661-27.922c-15.673-15.672-15.382-31.517,0.18-45.993     c20.519-19.085,80.85-34.241,108.693-38.364c14.008-2.074,53.596-5.825,73.65-2.227c28.597,5.132,36.519,22.487,30.491,40.079     c-9.389,27.397-30.174,50.744,18.53,104.317c10.845,11.928,18.426,18.937,25.798,37.27     C304.189,357.696,250.49,433.678,149.707,439.48z"/>
			<path style="fill:#000E3F;" d="M142.511,252.174c-35.502,0.648-105.427,89.833-65.355,136.198     c49.6,57.382,221.337,0.826,157.907-84.806C210.539,270.46,170.435,251.666,142.511,252.174z M221.699,378.546     c0.341,2.323-0.324,4-2.372,5.4c-29.303,20.025-71.856,28.629-107.629,20.528c-1.329-0.301-2.418-0.735-2.784-2.296     c-6.591-28.071-3.741-42.6,42.377-54.243c1.597-0.403,3.671-0.385,3.977,1.227c0.327,1.721,0.906,10.175,1.965,10.922     c0.524,0.369,1.218,0.499,2.139,0.299c2.113-0.462,1.75-2.372,1.371-4.461c-1.787-9.863-2.427-9.453,0.67-10.118     c2.873-0.616,13.23-1.485,16.167-1.646c8.302-0.456,16.498,0.174,24.479,2.773c6.057,1.973,10.471,5.805,13.329,11.438     C218.62,364.735,220.66,371.486,221.699,378.546z M145.669,322.63c-11.771-1.738-12.999-18.937-12.293-23.563     c1.183-7.747,3.788-17.156,8.298-23.465c0.777-1.087,1.125-1.135,2.344-0.349c6.323,4.081,11.265,10.493,15.388,16.83     C171.301,310.368,160.171,325.53,145.669,322.63z M238.858,362.463c-3.113,5.814-7.338,10.662-11.982,15.221     c-2.859,2.807-0.141-7.404-9.09-23.147c-9.915-17.441-38.791-15.366-57.869-12.423c-1.506,0.232-1.823-0.406-2.103-1.782     c-3.4-16.707-3.441-13.267,0.9-15.821c9.643-5.673,11.461-16.808,7.965-26.804c-2.977-8.514-11.799-19.139-18.082-24.1     c-1.502-1.186-3.146-2.064-4.739-3.057c-1.673-1.044-2.513-0.933-3.613,0.604c-14.485,20.257-17.093,52.288,6.76,55.755     c1.142,0.166,2.496-0.228,3.377,0.671c0.845,0.864,0.744,2.196,0.968,3.339c2.513,12.796,2.665,12.174,0.541,12.734     c-12.736,3.358-26.127,6.348-38.183,15.962c-8.617,6.87-11.371,14.398-11.356,24.328c0.023,13.895,3.451,18.67,0.451,17.541     c-26.225-9.854-38.477-33.952-32.035-60.781c8.791-36.623,31.393-64.609,57.034-79.523c8.057-4.686,13.18-5.223,17.75-5.012     c32.218,1.488,70.775,24.187,91.306,57.036C245.846,327.587,247.537,346.257,238.858,362.463z"/>
			<path style="fill:#000E3F;" d="M214.577,120.714c1.647-1.389,0.112-4.186-2.196-3.057c-2.042,0.999-11.642,9.142-31.987,17.274     c-94.741,37.871-161.055,20.242-161.21,20.23c-2.086-0.162-3.006,2.702-0.969,3.523c2.866,1.156,11.063,2.508,13.119,2.824     C94.336,171.09,187.477,143.584,214.577,120.714z"/>
			<path style="fill:#000E3F;" d="M80.136,206.465c0.804,6.501,7.35,9.639,12.091,8.757c7.763-1.442,12.121-12.027,6-17.948     C90.309,189.615,78.277,196.354,80.136,206.465z"/>
			<path style="fill:#000E3F;" d="M154.436,191.854c2.331,13.872,23.989,9.437,20.971-3.612     C172.016,173.57,152.275,179.002,154.436,191.854z"/>
			<path style="fill:#000E3F;" d="M144.868,200.118c-0.246,2.101,0.846,3,0.407,10.542c-1.092,18.722-27.027,22.099-31.326-1.706     c-0.19-1.045-0.373-2.105-1.172-2.9c-1.026-1.02-2.538-0.773-3.09,0.731c-0.762,2.079,1.129,6.891,1.916,8.848     c6.93,17.213,27.497,19.271,35.286,3.805c4.12-8.182,1.857-18.909,1.161-19.918C146.983,197.968,145.036,198.688,144.868,200.118     z"/>
		</g>
	</g>
</g>















</svg>
