<?xml version="1.0" encoding="UTF-8"?>
<!-- Generator: Adobe Illustrator 25.2.1, SVG Export Plug-In . SVG Version: 6.00 Build 0)  -->
<svg xmlns="http://www.w3.org/2000/svg" xmlns:xlink="http://www.w3.org/1999/xlink" version="1.1" id="Capa_1" x="0px" y="0px" viewBox="0 0 512 512" style="enable-background:new 0 0 512 512;" xml:space="preserve" width="512" height="512">
<g>
	<g>
		<g>
			<path style="fill:#00D5FE;" d="M207.35,405.643c-8.569,17.514-24.701,29.042-42.539,32.741     c-14.596,3.042-30.369,0.822-44.083-7.682c-40.758-25.279-25.575-84.945-69.828-134.54     c-19.061-21.378-30.073-49.005-22.912-77.266c10.044-39.633,37.825-45.469,72.761-96.414     c12.379-18.078,22.464-38.262,32.502-57.879c2.41-4.709,4.819-9.372,7.24-13.962c5.294-10.027,10.722-19.718,16.616-28.684     c6.009-9.16,10.805-17.591,22.753-19.281c24.425-3.443,67.653,14.232,90.788,45.626c10.274,13.939,8.635,24.098,2.254,39.473     c-3.199,7.706-8.956,18.643-15.829,31.467c-18.855,35.107-46.107,84.412-52.217,120.64     C194.463,301.838,229.661,360.187,207.35,405.643z"/>
			<g>
				<path style="fill:#FC09B2;" d="M257.074,119.243c-1.994-1.598-4.96-4.095-9.501-7.603      c-40.375-31.284-94.516-55.565-107.082-60.998c5.294-10.027,10.722-19.718,16.616-28.684      c6.009-9.16,10.805-17.591,22.753-19.281c24.425-3.443,67.653,14.232,90.788,45.626c10.274,13.939,8.635,24.098,2.254,39.473      C269.704,95.481,263.947,106.418,257.074,119.243z"/>
				<path style="fill:#FC09B2;" d="M57.516,172.411c1.8-1.755,2.469-2.395,3.949-1.399c3.083,2.073,9.751,7.645,14.76,13.41      c35.192,40.502,23.323,84.506-20.474,110.996c-2.119,1.282-3.445,2.318-4.838,0.83c-5.3-5.663-13.177-16.871-17.827-27.289      c-7.392-16.561-9.706-33.654-4.717-51.383C33.656,198.789,43.658,185.93,57.516,172.411z"/>
			</g>
			<path style="opacity:0.25;fill:#00328D;" d="M164.811,438.384c-14.596,3.042-30.369,0.822-44.083-7.682     c-40.758-25.279-25.575-84.945-69.828-134.54c-19.061-21.378-30.073-49.005-22.912-77.266     c10.044-39.633,37.825-45.469,72.761-96.414c12.379-18.078,22.464-38.262,32.502-57.879c1.106,6.021,0.63,12.502,0.048,18.637     c-6.295,66.52-79.757,102.31-71.103,160.176c2.588,17.415,13.408,29.894,23.532,44.237     c46.011,65.066,27.931,77.059,45.371,114.615C137.689,416.468,150.722,430.515,164.811,438.384z"/>
			<g>
				<path style="fill:#FFFFFF;" d="M132.071,140.959c-1.611,0.621-5.262,0.633-6.987,0.447c-1.772-0.186-1.877-0.409-2.139-0.029      c-1.453,2.088-7.016,7.434-8.627,5.388c-1.468-1.879-1.251-7.171-0.78-9.493c0.17-0.849-1.545-0.905-4.887-5.395      c-1.887-2.543-1.118-3.065,3.793-3.248c1.136-0.045,3.385,0.026,4.125,0.227c0.908,0.236,0.608-0.673,3.568-3.344      c4.949-4.442,6.398-2.878,6.852,0.657c0.288,2.238,0.216,4.445-0.214,6.621c-0.144,0.721,0.363,0.442,2.717,2.997      C130.535,136.902,133.488,140.394,132.071,140.959z"/>
				<path style="fill:#FFFFFF;" d="M171.595,161.301c-1.673,0.509-5.293,0.2-6.992-0.121c-1.744-0.33-1.829-0.562-2.119-0.203      c-1.603,1.946-7.552,6.881-8.996,4.737c-1.311-1.973-0.701-7.231-0.062-9.512c0.218-0.81-1.446-1.051-4.475-5.735      c-1.712-2.653-0.908-3.124,4.02-2.986c1.138,0.034,3.36,0.304,4.091,0.547c0.89,0.303,0.656-0.627,3.809-3.072      c5.275-4.065,6.619-2.379,6.819,1.165c0.128,2.243-0.119,4.461-0.717,6.595c-0.201,0.708,0.328,0.473,2.472,3.224      C170.39,157.15,173.057,160.857,171.595,161.301z"/>
				<path style="fill:#FFFFFF;" d="M208.536,185.903c-1.742,0.252-5.16-0.678-6.829-1.165c-1.698-0.523-1.752-0.759-2.089-0.441      c-1.876,1.733-8.376,5.909-9.445,3.608c-0.979-2.116,0.272-7.271,1.141-9.437c0.319-0.801-1.356-1.117-3.827-6.134      c-1.403-2.837-0.575-3.227,4.305-2.524c1.128,0.163,3.343,0.639,4.052,0.957c0.865,0.392,0.726-0.561,4.168-2.637      c5.724-3.348,6.915-1.431,6.678,2.142c-0.144,2.259-0.654,4.402-1.523,6.435c-0.3,0.684,0.294,0.48,2.067,3.499      C207.996,181.58,210.045,185.703,208.536,185.903z"/>
				<path style="fill:#FFFFFF;" d="M112.519,342.245c-0.953,1.44-3.922,3.565-5.436,4.411c-1.552,0.875-1.767,0.754-1.76,1.215      c0.025,2.544-1.412,10.124-3.911,9.39c-2.285-0.682-5.175-5.121-6.136-7.286c-0.353-0.791-1.783,0.157-7.108-1.567      c-3.012-0.98-2.687-1.85,1.209-4.845c0.9-0.695,2.774-1.94,3.493-2.205c0.877-0.333,0.107-0.9,0.972-4.793      c1.46-6.488,3.547-6.052,5.966-3.434c1.531,1.659,2.752,3.499,3.661,5.522c0.3,0.671,0.552,0.15,3.952,0.87      C108.917,339.828,113.347,340.963,112.519,342.245z"/>
				<path style="fill:#FFFFFF;" d="M156.52,335.93c-1.069,1.383-4.199,3.23-5.769,3.952c-1.613,0.74-1.817,0.601-1.847,1.062      c-0.178,2.515-2.169,9.984-4.588,9.072c-2.212-0.848-4.76-5.488-5.56-7.717c-0.292-0.787-1.789-0.019-6.972-2.083      c-2.932-1.171-2.549-2.019,1.547-4.762c0.947-0.632,2.916-1.699,3.651-1.924c0.901-0.269,0.172-0.89,1.327-4.71      c1.945-6.37,4.016-5.774,6.232-3.001c1.404,1.755,2.487,3.706,3.237,5.791c0.246,0.693,0.542,0.195,3.883,1.196      C153.133,333.245,157.454,334.722,156.52,335.93z"/>
				<path style="fill:#FFFFFF;" d="M200.883,334.585c-1.274,1.215-4.599,2.437-6.241,3.007c-1.688,0.557-1.869,0.396-1.958,0.85      c-0.526,2.499-3.404,9.669-5.609,8.412c-2.023-1.157-3.99-6.084-4.537-8.353c-0.204-0.837-1.752-0.125-6.672-2.783      c-2.787-1.5-2.338-2.297,2.047-4.552c1.014-0.52,3.096-1.416,3.858-1.567c0.933-0.18,0.267-0.877,1.87-4.563      c2.726-6.045,4.809-5.172,6.684-2.122c1.192,1.925,2.017,3.967,2.486,6.128c0.153,0.731,0.519,0.221,3.712,1.655      C197.939,331.374,201.998,333.547,200.883,334.585z"/>
			</g>
			<g>
				<path style="fill:#00328D;" d="M165.336,92.758c-2.49,5.404-8.577,7.857-13.707,5.739c-5.116-2.152-7.631-8.235-5.527-13.81      c2.085-5.526,8.317-8.322,13.822-6.009C165.442,80.96,167.813,87.386,165.336,92.758z"/>
				<path style="fill:#00328D;" d="M197.726,109.567c-3.017,5.075-9.371,6.957-14.223,4.258c-4.887-2.636-6.723-9.003-4.071-14.279      c2.678-5.325,9.138-7.4,14.392-4.565C199.042,97.882,200.771,104.443,197.726,109.567z"/>
				<path style="fill:#00328D;" d="M228.197,129.647c-3.563,4.776-10.042,5.935-14.612,2.783c-4.549-3.182-5.761-9.633-2.548-14.641      c3.194-4.979,9.883-6.443,14.779-3.023C230.729,118.156,231.73,124.913,228.197,129.647z"/>
				<path style="fill:#00328D;" d="M108.351,282.062c1.101,5.848-2.439,11.374-7.849,12.618c-5.416,1.21-10.99-2.291-12.504-8.054      c-1.503-5.713,1.957-11.602,7.785-12.906C101.603,272.384,107.257,276.249,108.351,282.062z"/>
				<path style="fill:#00328D;" d="M144.49,277.001c0.481,5.885-3.609,11.099-9.128,11.71c-5.51,0.683-10.694-3.443-11.589-9.28      c-0.902-5.891,3.161-11.325,9.086-12.058C138.793,266.714,144.004,271.06,144.49,277.001z"/>
				<path style="fill:#00328D;" d="M180.96,275.716c-0.137,5.957-4.748,10.655-10.299,10.733      c-5.552,0.042-10.276-4.514-10.559-10.458c-0.281-5.908,4.324-10.977,10.295-11.025      C176.367,264.884,181.097,269.811,180.96,275.716z"/>
				<path style="fill:#00328D;" d="M147.494,403.268c1.474,5.74-1.841,11.566-7.325,13.279c-5.49,1.689-11.519-1.224-13.561-6.798      c-2.041-5.567,1.131-11.853,7.188-13.72C139.847,394.142,146.018,397.516,147.494,403.268z"/>
				<path style="fill:#00328D;" d="M185.085,396.218c0.616,5.904-3.521,11.169-9.196,12.065c-5.68,0.87-11.216-2.908-12.413-8.712      c-1.199-5.816,2.862-11.557,9.126-12.519C178.861,386.068,184.472,390.321,185.085,396.218z"/>
			</g>
			<g>
				<g>
					<path style="fill:#FFCF00;" d="M221.895,162.17c-32.328-21.269-66.026-39.415-101.612-54.626       c-2.478-1.171-1.639-3.818,1.072-3.241c38.049,9.086,74.078,28.459,102.689,55.131       C226.402,161.743,224.679,163.867,221.895,162.17z"/>
				</g>
				<g>
					<path style="fill:#FFCF00;" d="M193.333,212.981c-32.328-21.269-66.026-39.415-101.612-54.626       c-2.478-1.171-1.639-3.818,1.072-3.241c38.049,9.086,74.078,28.459,102.689,55.131       C197.84,212.554,196.117,214.679,193.333,212.981z"/>
				</g>
				<g>
					<path style="fill:#FFCF00;" d="M195.154,308.382c-38.673,1.39-76.652,6.12-114.471,14.335       c-2.697,0.482-3.547-2.162-1.003-3.263c36.279-14.634,76.87-19.714,115.641-14.547       C198.581,305.423,198.407,308.153,195.154,308.382z"/>
				</g>
				<g>
					<path style="fill:#FFCF00;" d="M206.113,366.563c-36.291,3.481-71.699,9.864-106.905,19.349       c-2.519,0.573-3.511-2.02-1.18-3.203c33.32-15.81,71.314-22.686,108.063-19.625       C209.184,363.424,209.159,366.16,206.113,366.563z"/>
				</g>
			</g>
			<g>
				<path style="fill:#FF8EDE;" d="M198.339,67.895c-1.785,1.441-4.489,0.149-3.619-3.808c1.904-8.666,16.254-38.077,18.502-41.367      c2.248-3.29,7.168-2.19,6.591,2.091c-0.736,5.457-8.056,19.123-10.368,23.9C207.445,52.84,201.94,64.989,198.339,67.895z"/>
				<path style="fill:#FF8EDE;" d="M216.825,80.798c-3.053-1.713,1.386-10.804,2.257-12.923      c1.367-3.326,14.769-33.487,18.218-34.974c1.856-0.8,4.035,0.113,4.566,2.105c1.113,4.173-13.653,30.948-15.752,34.635      C222.322,76.303,219.77,82.45,216.825,80.798z"/>
				<path style="fill:#FF8EDE;" d="M174.819,55.578c-2.542,2.271-4.114-0.571-3.652-3.016c1.377-7.286,4.218-11.852,14.577-33.77      c1.173-2.48,3.662-7.874,7.217-5.588c1.83,1.177,1.617,4.364,0.784,6.089C193.652,19.485,178.199,52.558,174.819,55.578z"/>
				<path style="fill:#FF8EDE;" d="M240.732,96.72c-5.329-0.356,3.24-16.045,13.71-37.862c1.54-3.21,3.79-7.481,7.005-5.928      c3.982,1.923-0.908,10.696-2.446,13.698C255.967,72.549,244.42,96.966,240.732,96.72z"/>
			</g>
		</g>
		<g>
			<g>
				<path style="fill:#000E3F;" d="M125.286,435.766c-1.957-0.945-3.874-1.997-5.741-3.155      c-21.655-13.43-27.893-35.641-35.119-61.359c-6.561-23.357-13.998-49.831-35.203-73.594      c-21.849-24.506-30.164-52.673-23.414-79.314c5.933-23.408,18.114-35.549,33.537-50.92      c11.641-11.604,24.837-24.756,39.549-46.212c11.467-16.747,21.059-35.523,30.336-53.681l2.02-3.95      c2.415-4.717,4.828-9.389,7.254-13.987c6.355-12.038,11.512-20.941,16.725-28.87l1.071-1.64      c5.662-8.691,11.007-16.901,23.246-18.631c12.777-1.801,29.962,1.823,47.151,9.942c18.532,8.8,34.853,21.775,45.759,36.575      c10.716,14.537,9.255,25.437,2.521,41.667c-3.337,8.036-9.437,19.564-15.925,31.666l-2.938,5.465      c-18.276,33.959-43.305,80.467-49.043,114.488c-4.668,27.828-0.046,54.73,4.423,80.746c5.321,30.966,10.346,60.215-2.128,85.63      c-8.586,17.545-24.661,29.918-44.101,33.95C151.582,443.435,137.614,441.718,125.286,435.766z M225.686,14.87      c-16.589-8.009-33.413-11.675-45.51-9.97c-10.218,1.444-14.584,8.148-20.11,16.635l-1.08,1.655      c-5.132,7.805-10.222,16.595-16.507,28.501c-2.417,4.58-4.823,9.237-7.229,13.936l-2.016,3.947      c-9.342,18.284-19.002,37.19-30.631,54.177c-14.952,21.801-28.888,35.691-40.084,46.852      c-15.517,15.464-26.726,26.637-32.353,48.844c-6.373,25.149,1.586,51.863,22.411,75.22      c21.896,24.537,29.481,51.542,36.174,75.369c6.973,24.816,12.994,46.247,33.161,58.756c12.643,7.835,27.713,10.461,42.442,7.391      c18.072-3.748,33.009-15.24,40.982-31.529c0-0.001,0.001-0.002,0.001-0.003c11.832-24.107,6.926-52.662,1.731-82.89      c-4.533-26.385-9.22-53.67-4.424-82.252c5.861-34.752,31.094-81.637,49.516-115.871l2.937-5.46      c6.431-11.999,12.474-23.419,15.732-31.267c6.35-15.299,7.57-24.313-1.987-37.279C257.738,34.568,241.824,22.662,225.686,14.87z      "/>
			</g>
			<g>
				<path style="fill:#000E3F;" d="M138.211,243.473c-4.464-1.788-8.139-5.596-10.178-10.591      c-2.419-5.928-2.096-12.622,0.885-18.362c0.57-1.102,1.932-1.525,3.028-0.958c1.101,0.572,1.53,1.927,0.959,3.028      c-2.372,4.57-2.632,9.889-0.712,14.596c1.661,4.063,4.79,7.206,8.375,8.368c3.343,1.098,7.316,0.625,10.902-1.296      c4.214-2.255,7.25-6.082,8.55-10.775c0.331-1.195,1.567-1.896,2.762-1.565c1.22,0.347,1.895,1.569,1.565,2.764      c-1.607,5.802-5.527,10.736-10.756,13.536c-4.663,2.498-9.92,3.082-14.423,1.603      C138.844,243.714,138.526,243.599,138.211,243.473z"/>
			</g>
			<path style="fill:#000E3F;" d="M172.008,228.842c1.605-4.62,7.811-7.165,12.411-5.23c5.294,2.227,6.664,8.549,5.135,12.115     C184.986,246.382,168.071,240.175,172.008,228.842z"/>
			<path style="fill:#000E3F;" d="M124.444,209.787c2.029-4.45-0.704-10.576-5.368-12.353c-5.367-2.044-10.723,1.583-12.08,5.219     C102.945,213.516,119.467,220.703,124.444,209.787z"/>
		</g>
	</g>
	<g>
		<g>
			<path style="fill:#00D5FE;" d="M237.591,429.122c-1.005,19.472,7.507,37.38,21.31,49.269     c11.287,9.742,26.156,15.454,42.274,14.673c47.904-2.328,63.579-61.866,126.338-83.759c27.04-9.444,50.073-28.258,57.525-56.444     c10.448-39.529-11.011-58.111-16.841-119.609c-2.052-21.814-1.077-44.356-0.336-66.38c0.178-5.287,0.333-10.533,0.444-15.721     c0.236-11.336,0.193-22.443-0.611-33.144c-0.81-10.925-0.912-20.624-10.54-27.9c-19.687-14.862-66.061-20.382-101.523-4.156     c-15.747,7.203-19.243,16.882-21.124,33.421c-0.942,8.29-1.215,20.647-1.428,35.195c-0.548,39.846-0.642,96.181-12.878,130.823     C299.227,344.608,240.139,378.55,237.591,429.122z"/>
			<g>
				<path style="fill:#FC09B2;" d="M333.078,154.568c2.519-0.429,6.324-1.174,11.996-2.038      c50.483-7.764,109.605-2.726,123.229-1.379c0.236-11.336,0.193-22.443-0.611-33.144c-0.81-10.925-0.912-20.624-10.54-27.9      c-19.687-14.862-66.061-20.382-101.523-4.156c-15.747,7.203-19.243,16.882-21.124,33.421      C333.565,127.663,333.291,140.019,333.078,154.568z"/>
				<path style="fill:#FC09B2;" d="M481.773,297.886c-0.722-2.408-0.997-3.292-2.774-3.14c-3.701,0.317-12.236,1.954-19.413,4.564      c-50.424,18.339-61.397,62.575-35.955,106.989c1.231,2.149,1.887,3.698,3.827,3.073c7.382-2.38,19.708-8.358,28.829-15.212      c14.499-10.894,24.816-24.717,29.057-42.64C489.837,332.528,487.331,316.431,481.773,297.886z"/>
			</g>
			<g>
				<g>
					<path style="fill:#FFFFFF;" d="M431.843,234.21c1.107,1.324,4.294,3.107,5.892,3.781c1.64,0.697,1.84,0.553,1.884,1.012       c0.258,2.531,2.527,9.904,4.929,8.898c2.195-0.931,4.574-5.663,5.288-7.922c0.264-0.825,1.79-0.042,6.891-2.346       c2.884-1.308,2.465-2.137-1.74-4.681c-0.972-0.591-2.973-1.62-3.717-1.804c-0.908-0.234-0.205-0.883-1.498-4.655       c-2.172-6.286-4.198-5.62-6.31-2.75c-1.338,1.818-2.346,3.782-3.025,5.893c-0.223,0.7-0.532,0.21-3.831,1.303       C435.155,231.407,430.878,233.028,431.843,234.21z"/>
				</g>
				<g>
					<path style="fill:#FFFFFF;" d="M387.414,232.819c1.216,1.257,4.531,2.744,6.173,3.287c1.685,0.557,1.872,0.396,1.952,0.85       c0.457,2.48,3.264,9.681,5.567,8.507c2.104-1.089,4.122-5.982,4.67-8.287c0.202-0.814,1.775-0.218,6.696-2.844       c2.784-1.489,2.31-2.291-2.066-4.561c-1.012-0.522-3.086-1.364-3.842-1.506c-0.925-0.167-0.269-0.866-1.84-4.534       c-2.64-6.114-4.633-5.292-6.527-2.29c-1.201,1.899-2.06,3.959-2.574,6.114c-0.167,0.716-0.517,0.254-3.726,1.62       C390.481,229.775,386.351,231.722,387.414,232.819z"/>
				</g>
				<g>
					<path style="fill:#FFFFFF;" d="M343.176,236.407c1.401,1.066,4.841,1.911,6.537,2.295c1.738,0.366,1.901,0.186,2.04,0.628       c0.8,2.426,4.457,9.231,6.508,7.738c1.883-1.375,3.29-6.49,3.581-8.805c0.11-0.855,1.728-0.319,6.322-3.507       c2.604-1.8,2.069-2.543-2.54-4.296c-1.066-0.405-3.234-1.063-4.008-1.129c-0.946-0.076-0.362-0.843-2.365-4.328       c-3.38-5.705-5.353-4.607-6.878-1.367c-0.97,2.045-1.564,4.166-1.791,6.366c-0.069,0.743-0.49,0.277-3.505,2.056       C345.745,232.889,341.952,235.499,343.176,236.407z"/>
				</g>
				<path style="fill:#FFFFFF;" d="M380.346,295.993c-6.367-0.218-12.735,5.215-12.583,11.807c0.216,9.379,13.844,12.9,20.225,7.465      C395.687,308.707,389.922,296.322,380.346,295.993z"/>
				<g>
					<path style="fill:#FFFFFF;" d="M351.273,419.7c0.135,1.721,1.7,5.02,2.613,6.495c0.932,1.518,1.179,1.516,0.95,1.917       c-1.256,2.212-3.678,9.538-1.137,10.109c2.328,0.512,7.01-1.967,8.9-3.394c0.693-0.52,1.483,1.002,6.975,2.079       c3.109,0.605,3.247-0.314,1.294-4.823c-0.45-1.045-1.485-3.042-1.985-3.623c-0.605-0.716,0.343-0.839,1.475-4.663       c1.871-6.381-0.165-7.013-3.55-5.897c-2.143,0.707-4.104,1.724-5.88,3.052c-0.587,0.441-0.555-0.137-3.877-1.157       C355.596,419.334,351.171,418.178,351.273,419.7z"/>
				</g>
				<g>
					<path style="fill:#FFFFFF;" d="M315.863,392.829c0.263,1.728,2.104,4.861,3.126,6.255c1.051,1.43,1.297,1.408,1.099,1.824       c-1.065,2.286-2.948,9.782-0.39,10.159c2.346,0.331,6.825-2.489,8.606-4.05c0.637-0.546,1.573,0.851,7.107,1.561       c3.132,0.398,3.209-0.529,0.957-4.915c-0.522-1.012-1.725-2.9-2.259-3.454c-0.658-0.672,0.282-0.862,1.125-4.763       c1.39-6.513-0.71-6.997-3.993-5.647c-2.079,0.853-3.973,2.033-5.64,3.493c-0.552,0.487-0.569-0.092-3.975-0.838       C320.127,392.124,315.632,391.319,315.863,392.829z"/>
				</g>
				<g>
					<path style="fill:#FFFFFF;" d="M277.725,370.127c0.525,1.68,2.84,4.362,3.998,5.657c1.205,1.306,1.442,1.253,1.3,1.694       c-0.753,2.44-1.715,10.106,0.823,10.077c2.33-0.03,6.44-3.384,8.02-5.102c0.584-0.633,1.592,0.74,7.185,0.804       c3.165,0.041,3.159-0.875,0.419-4.973c-0.634-0.947-2.02-2.74-2.613-3.242c-0.728-0.611,0.192-0.897,0.579-4.898       c0.549-6.608-1.695-6.856-4.815-5.099c-1.976,1.105-3.688,2.49-5.147,4.152c-0.489,0.565-0.561-0.059-4.049-0.354       C281.857,368.748,277.253,368.678,277.725,370.127z"/>
				</g>
			</g>
			<g>
				<path style="fill:#00328D;" d="M426.144,175.922c-0.445,5.934,3.688,11.032,9.201,11.669c5.518,0.601,10.669-3.497,11.534-9.394      c0.858-5.844-3.234-11.312-9.171-11.961C431.776,165.554,426.586,170.023,426.144,175.922z"/>
				<path style="fill:#00328D;" d="M389.667,174.904c0.176,5.902,4.819,10.63,10.371,10.624c5.552,0.066,10.246-4.61,10.488-10.51      c0.242-5.956-4.4-10.905-10.369-10.975C394.186,164.048,389.49,168.946,389.667,174.904z"/>
				<path style="fill:#00328D;" d="M353.28,177.676c0.798,5.905,5.902,10.062,11.427,9.523c5.522-0.575,9.711-5.627,9.332-11.565      c-0.376-5.903-5.515-10.429-11.456-9.814C356.641,166.401,352.487,171.823,353.28,177.676z"/>
				<path style="fill:#00328D;" d="M384.12,369.099c-3.8,4.579-3.386,11.128,0.741,14.842c4.149,3.686,10.722,3.329,14.842-0.976      c4.086-4.266,3.918-11.095-0.545-15.062C394.715,363.91,387.896,364.547,384.12,369.099z"/>
				<path style="fill:#00328D;" d="M354.975,347.138c-3.276,4.913-2.23,11.456,2.3,14.668c4.486,3.271,11.022,2.178,14.637-2.491      c3.647-4.714,2.731-11.437-2.095-14.952C364.948,340.908,358.283,342.179,354.975,347.138z"/>
				<path style="fill:#00328D;" d="M323.71,328.319c-2.77,5.276-1.018,11.621,3.798,14.382c4.835,2.731,11.175,1.039,14.307-4.021      c3.113-5.029,1.546-11.696-3.652-14.636C332.981,321.076,326.454,323.09,323.71,328.319z"/>
				<path style="fill:#00328D;" d="M291.082,456.088c-4.074,4.304-4.002,11.007-0.038,15.165c3.982,4.141,10.666,4.519,15.156,0.636      c4.486-3.877,4.762-10.913,0.372-15.484C302.197,451.819,295.164,451.775,291.082,456.088z"/>
				<path style="fill:#00328D;" d="M261.633,431.685c-3.403,4.864-2.341,11.475,2.187,15.012c4.544,3.517,11.219,2.9,15.082-1.595      c3.871-4.503,3.105-11.494-1.905-15.374C272.001,425.829,265.031,426.825,261.633,431.685z"/>
			</g>
			<g>
				<g>
					<path style="fill:#FFCF00;" d="M343.01,209.173c38.587-2.912,76.858-2.428,115.355,1.539c2.735,0.179,3.286-2.543,0.635-3.354       c-37.679-10.517-78.582-11.059-116.541-1.619C339.276,206.613,339.752,209.306,343.01,209.173z"/>
				</g>
				<g>
					<path style="fill:#FFCF00;" d="M343.33,267.46c38.588-2.912,76.858-2.428,115.355,1.539c2.735,0.179,3.286-2.543,0.635-3.354       c-37.679-10.517-78.582-11.059-116.541-1.619C339.596,264.9,340.072,267.594,343.33,267.46z"/>
				</g>
				<g>
					<path style="fill:#FFCF00;" d="M295.448,349.995c33.141,19.98,64.055,42.544,93.138,68.078c2.124,1.73,4.151-0.17,2.46-2.366       c-24.621-30.399-57.649-54.537-94.057-68.831C293.887,345.745,292.715,348.216,295.448,349.995z"/>
				</g>
				<g>
					<path style="fill:#FFCF00;" d="M257.635,395.551c30.044,20.653,57.907,43.415,84.089,68.79       c1.924,1.723,4.051-0.063,2.586-2.228c-21.463-29.992-51.349-54.439-84.967-69.593       C256.473,391.316,255.167,393.72,257.635,395.551z"/>
				</g>
			</g>
			<g>
				<path style="fill:#FF8EDE;" d="M409.35,138.169c0.861,2.126,3.853,2.308,5.012-1.574c2.54-8.501,4.263-41.181,3.894-45.148      c-0.369-3.968-5.206-5.393-6.778-1.369c-2.004,5.129-2.235,20.63-2.53,25.929C408.693,120.587,407.612,133.881,409.35,138.169z"/>
				<path style="fill:#FF8EDE;" d="M386.926,140.481c3.501-0.016,4.03-10.119,4.296-12.395c0.419-3.571,3.334-36.447,1.04-39.421      c-1.234-1.6-3.583-1.859-5.014-0.375c-2.998,3.109-3.079,33.686-3.032,37.927C384.301,133.884,383.549,140.497,386.926,140.481z      "/>
				<path style="fill:#FF8EDE;" d="M435.893,138.811c1.121,3.22,3.874,1.497,4.656-0.865c2.331-7.039,2.063-12.41,3.64-36.602      c0.178-2.738,0.619-8.662-3.599-8.388c-2.171,0.141-3.531,3.032-3.639,4.944C436.939,98.113,434.403,134.53,435.893,138.811z"/>
				<path style="fill:#FF8EDE;" d="M358.297,142.804c4.832,2.274,4.952-15.601,6.383-39.758c0.211-3.554,0.316-8.38-3.249-8.583      c-4.415-0.251-4.396,9.793-4.508,13.164C356.702,114.276,354.952,141.229,358.297,142.804z"/>
			</g>
			<path style="opacity:0.25;fill:#00328D;" d="M258.901,478.391c11.287,9.742,26.156,15.454,42.274,14.673     c47.904-2.328,63.579-61.866,126.338-83.759c27.04-9.444,50.073-28.258,57.525-56.444     c10.448-39.529-11.011-58.111-16.841-119.609c-2.052-21.814-1.077-44.356-0.336-66.38c-3.888,4.728-6.617,10.626-9.085,16.273     c-26.772,61.219,20.097,128.158-15.547,174.557c-10.713,13.972-26.229,19.634-42.041,27.263     c-71.803,34.568-61.813,53.828-95.285,78.203C293.251,472.388,275.039,478.347,258.901,478.391z"/>
		</g>
		<g>
			<g>
				<path style="fill:#000E3F;" d="M257.437,480.093c-15.042-12.957-23.094-31.577-22.089-51.084      c1.424-28.275,20.01-51.413,39.688-75.907c16.532-20.58,33.626-41.86,43.047-68.458c11.49-32.532,12.171-85.343,12.668-123.904      l0.083-6.204c0.199-13.731,0.459-26.771,1.44-35.416c1.987-17.458,5.998-27.698,22.422-35.21      c16.717-7.649,37.284-11.076,57.758-9.778c18.97,1.241,35.755,6.411,46.053,14.185c9.861,7.452,10.552,17.224,11.286,27.57      l0.141,1.953c0.71,9.463,0.9,19.75,0.616,33.359c-0.11,5.197-0.267,10.454-0.444,15.75l-0.15,4.434      c-0.699,20.378-1.422,41.45,0.479,61.658c2.454,25.9,7.611,43.802,12.159,59.597c6.028,20.924,10.788,37.45,4.618,60.797      c-7.025,26.57-27.962,47.165-58.958,57.991c-30.071,10.489-49.419,30.029-66.49,47.269      c-18.797,18.982-35.029,35.376-60.48,36.612c-2.195,0.107-4.381,0.096-6.551-0.027      C281.064,494.503,268.018,489.227,257.437,480.093z M356.564,87.993c-14.648,6.7-17.956,15.174-19.826,31.632      c-0.959,8.443-1.216,21.362-1.415,34.973l-0.081,6.199c-0.502,38.872-1.189,92.111-12.926,125.343      c-9.675,27.319-27.013,48.903-43.778,69.774c-19.209,23.911-37.355,46.498-38.706,73.319c0,0.001,0,0.002,0,0.003      c-0.932,18.111,6.553,35.407,20.536,47.454c11.39,9.831,25.841,14.846,40.698,14.13c23.703-1.153,39.367-16.971,57.505-35.286      c17.414-17.587,37.15-37.519,68.201-48.35c29.542-10.319,49.463-29.815,56.094-54.898c5.854-22.147,1.475-37.356-4.59-58.407      c-4.375-15.192-9.82-34.099-12.316-60.417c-1.926-20.497-1.199-41.715-0.496-62.235l0.152-4.43      c0.176-5.277,0.332-10.516,0.441-15.694c0.282-13.459,0.096-23.615-0.604-32.93l-0.142-1.971      c-0.714-10.102-1.279-18.082-9.512-24.303c-9.751-7.36-26.24-12.319-44.632-13.365      C393.275,77.518,373.583,80.207,356.564,87.993z"/>
			</g>
			<path style="fill:#000E3F;" d="M358.071,288.509l-0.075-0.004c-1.328-0.059-2.479,0.866-2.642,2.15     c-1.238,11.287-14.731,8.961-13.12-2.175c0.343-2.142-1.771-3.302-3.426-2.629c-2.93,1.188-2.254,12.005,4.685,15.78v0.002     c10.158,5.477,17.973-6.584,16.546-11.428C359.744,289.202,359.064,288.617,358.071,288.509z"/>
			<path style="fill:#000E3F;" d="M418.179,292.796c0.251,6.965-5.783,10.743-9.841,7.975c-2.104-1.411-3.454-4.275-3.441-7.297     c0.009-2.136-2.623-3.26-4.176-1.736c-1.661,1.636-0.496,9.482,4.859,13.104h0.001c7.183,4.806,17.873-0.868,17.504-12.232     C422.919,289.31,418.09,289.612,418.179,292.796z"/>
		</g>
	</g>
	<g>
		<path style="fill:#FD8A02;" d="M262.827,248.511c-1.532-1.53-2.659-2.549-3.664-3.678c-3.336-3.751-3.781-8.048-1.428-12.578    c1.889-3.638,4.904-6.191,8.096-8.591c1.356-1.019,2.807-1.946,4.011-3.123c3.403-3.326,3.074-7.796-0.719-10.7    c-1.823-1.396-3.963-2.19-6.101-2.966c-2.764-1.004-2.801-1.716-2.656-3.072c0.173-1.621,1.737-2.603,3.963-2.28    c4.995,0.725,9.648,2.423,12.403,6.954c4.083,6.712,2.349,14.365-4.218,19.003c-2.649,1.871-5.183,3.821-7.272,6.282    c-2.509,2.956-2.44,4.535,0.234,7.367c1.296,1.373,2.776,2.571,4.114,3.907c2.324,2.321,4.085,5.021,4.572,8.31    c0.736,4.971-1.084,8.978-5.26,11.716c-2.876,1.885-5.5,4.013-7.807,6.536c-2.689,2.939-2.644,4.413,0.501,7.02    c2.029,1.682,4.265,3.131,6.487,4.56c1.368,0.88,2.203,2.019,2.56,3.568c0.382,1.658-0.667,3.088-2.319,3.144    c-1.348,0.045-2.691-0.125-3.848-0.8c-3.264-1.903-6.601-3.743-9.218-6.534c-4.386-4.677-4.479-9.799-0.466-14.762    c2.16-2.671,4.752-4.849,7.463-6.91c0.449-0.341,0.986-0.566,1.45-0.891c4.763-3.334,4.943-5.765,0.734-10    C263.771,249.322,263.045,248.711,262.827,248.511z"/>
		<path style="fill:#FD8A02;" d="M149.109,494.717c-1.854,1.118-3.115,1.967-4.452,2.67c-4.444,2.334-8.722,1.732-12.552-1.643    c-3.076-2.71-4.828-6.25-6.388-9.927c-0.663-1.561-1.213-3.193-2.065-4.645c-2.409-4.104-6.826-4.861-10.558-1.879    c-1.794,1.434-3.079,3.319-4.348,5.207c-1.64,2.441-2.34,2.306-3.621,1.839c-1.532-0.559-2.108-2.313-1.259-4.395    c1.907-4.673,4.676-8.78,9.736-10.363c7.498-2.346,14.508,1.18,17.427,8.671c1.178,3.021,2.46,5.951,4.346,8.571    c2.265,3.147,3.814,3.46,7.206,1.547c1.644-0.928,3.164-2.075,4.782-3.052c2.812-1.697,5.857-2.755,9.167-2.436    c5.002,0.483,8.452,3.214,10.104,7.927c1.137,3.245,2.57,6.304,4.463,9.152c2.205,3.317,3.646,3.628,6.934,1.205    c2.122-1.564,4.065-3.385,5.988-5.198c1.183-1.116,2.49-1.652,4.079-1.625c1.701,0.028,2.836,1.392,2.493,3.007    c-0.281,1.319-0.769,2.582-1.703,3.542c-2.633,2.709-5.223,5.505-8.562,7.373c-5.595,3.13-10.589,1.987-14.44-3.102    c-2.072-2.74-3.561-5.781-4.909-8.908c-0.223-0.518-0.312-1.093-0.515-1.621c-2.089-5.426-4.404-6.186-9.529-3.121    C150.123,493.996,149.355,494.554,149.109,494.717z"/>
		<path style="fill:#FD8A02;" d="M46.661,104.217c-0.44-2.119-0.822-3.591-1.041-5.086c-0.728-4.967,1.26-8.802,5.714-11.295    c3.577-2.002,7.498-2.481,11.484-2.733c1.693-0.107,3.414-0.085,5.067-0.407c4.67-0.911,6.851-4.826,5.275-9.337    c-0.757-2.167-2.109-4.006-3.469-5.829c-1.758-2.357-1.399-2.972-0.533-4.026c1.035-1.26,2.881-1.221,4.563,0.271    c3.775,3.349,6.732,7.324,6.546,12.623c-0.274,7.852-5.927,13.295-13.962,13.563c-3.241,0.109-6.43,0.347-9.527,1.256    c-3.72,1.093-4.53,2.451-3.85,6.285c0.33,1.859,0.907,3.673,1.292,5.524c0.668,3.216,0.656,6.439-0.743,9.455    c-2.115,4.559-5.836,6.908-10.83,6.902c-3.438-0.004-6.8,0.333-10.114,1.174c-3.861,0.979-4.633,2.235-3.437,6.142    c0.772,2.52,1.844,4.958,2.917,7.373c0.66,1.486,0.732,2.897,0.18,4.387c-0.591,1.595-2.254,2.214-3.664,1.354    c-1.151-0.702-2.18-1.582-2.776-2.782c-1.682-3.382-3.461-6.754-4.115-10.523c-1.096-6.317,1.639-10.649,7.717-12.592    c3.272-1.046,6.635-1.442,10.032-1.676c0.563-0.039,1.135,0.069,1.7,0.052c5.811-0.17,7.297-2.102,6.106-7.954    C47.004,105.412,46.733,104.503,46.661,104.217z"/>
		<path style="fill:#FD8A02;" d="M451.218,451.32c0.088-2.163,0.075-3.683,0.226-5.187c0.501-4.995,3.361-8.232,8.288-9.568    c3.956-1.073,7.876-0.584,11.804,0.139c1.668,0.307,3.332,0.747,5.014,0.837c4.752,0.251,7.818-3.017,7.386-7.775    c-0.208-2.287-1.072-4.399-1.949-6.497c-1.133-2.713-0.634-3.223,0.462-4.035c1.31-0.971,3.092-0.485,4.361,1.372    c2.848,4.166,4.75,8.74,3.282,13.835c-2.174,7.55-8.98,11.456-16.839,9.764c-3.17-0.682-6.321-1.226-9.547-1.097    c-3.874,0.156-4.99,1.276-5.262,5.161c-0.132,1.883-0.012,3.783-0.089,5.673c-0.133,3.282-0.928,6.406-3.019,8.991    c-3.159,3.908-7.34,5.282-12.182,4.063c-3.334-0.84-6.677-1.329-10.096-1.319c-3.983,0.011-5.037,1.043-4.826,5.122    c0.136,2.632,0.584,5.258,1.038,7.861c0.279,1.603,0.006,2.988-0.892,4.3c-0.961,1.404-2.724,1.6-3.883,0.423    c-0.946-0.961-1.73-2.064-2.017-3.373c-0.81-3.69-1.716-7.392-1.434-11.208c0.471-6.394,4.177-9.931,10.546-10.34    c3.428-0.22,6.786,0.214,10.138,0.812c0.555,0.099,1.084,0.342,1.637,0.463c5.679,1.247,7.589-0.266,7.856-6.232    C451.261,452.563,451.219,451.616,451.218,451.32z"/>
		<path style="fill:#FD8A02;" d="M408.757,27.648c1.548-1.513,2.581-2.628,3.722-3.619c3.791-3.291,8.093-3.685,12.594-1.279    c3.615,1.933,6.132,4.977,8.494,8.198c1.003,1.368,1.912,2.83,3.075,4.048c3.285,3.442,7.758,3.167,10.707-0.592    c1.417-1.807,2.236-3.937,3.038-6.065c1.037-2.752,1.749-2.78,3.104-2.62c1.619,0.193,2.582,1.768,2.232,3.989    c-0.785,4.986-2.538,9.618-7.101,12.32c-6.761,4.003-14.392,2.177-18.951-4.444c-1.839-2.671-3.759-5.228-6.195-7.346    c-2.926-2.544-4.506-2.494-7.369,0.146c-1.388,1.28-2.604,2.745-3.956,4.067c-2.348,2.297-5.069,4.025-8.364,4.473    c-4.98,0.677-8.964-1.191-11.652-5.399c-1.851-2.898-3.948-5.547-6.442-7.885c-2.906-2.723-4.381-2.696-7.026,0.417    c-1.706,2.009-3.181,4.227-4.636,6.432c-0.896,1.358-2.045,2.178-3.598,2.517c-1.662,0.363-3.08-0.704-3.116-2.356    c-0.029-1.348,0.157-2.689,0.845-3.838c1.941-3.241,3.822-6.556,6.644-9.14c4.728-4.33,9.852-4.362,14.766-0.291    c2.645,2.191,4.792,4.81,6.82,7.545c0.336,0.453,0.554,0.992,0.873,1.46c3.277,4.802,5.705,5.012,9.991,0.853    C407.935,28.582,408.555,27.863,408.757,27.648z"/>
	</g>
</g>















</svg>
