<?xml version="1.0" encoding="UTF-8"?>
<!-- Generator: Adobe Illustrator 25.2.1, SVG Export Plug-In . SVG Version: 6.00 Build 0)  -->
<svg xmlns="http://www.w3.org/2000/svg" xmlns:xlink="http://www.w3.org/1999/xlink" version="1.1" id="Capa_1" x="0px" y="0px" viewBox="0 0 512 512" style="enable-background:new 0 0 512 512;" xml:space="preserve" width="512" height="512">
<g>
	<g>
		<g>
			<g>
				<path style="fill:#FFCF00;" d="M411.978,402.906c-3.512,11.88-6.55,19.117-16.216,27.342      c-41.822,35.585-165.243,58.375-216.354,33.36c-11.123-5.443-13.786-12.709-22.093-27.815c-1.157-2.103-1.57-3.754-3.685-3.319      c-2.182,0.449-4.397,0.32-6.595,0.48c-30.286,2.207-53.497-25.388-66.055-53.526c-17.535-39.288-29.74-49.097-65.499-55.826      c-1.659-0.312-3.325-0.641-4.936-1.132c-4.863-1.481-7.556-5.465-7.399-10.627c0.441-14.524,17.269-25.577,29.275-23.5      c47.764,8.259,55.303,45.986,91.708,50.283c2.028,0.239,1.554-0.845,1.465-6.272c-0.11-6.741-0.51-8.033,2.844-7.183      c43.955,11.135,89.507,8.236,133.943,1.834c45.313-6.527,93.224-19.142,131.725-43.21c12.566-7.855,9.971-11.551,15.767,8.665      C417.546,319.227,420.457,374.224,411.978,402.906z"/>
				<path style="fill:#FFCF00;" d="M283.598,38.512c7.776-0.548,15.549-0.614,23.338-0.689      c16.022-0.155,28.446,20.123,16.919,31.997c-6.279,6.468-13.925,7.536-22.285,5.699c-5.749-1.264-15.502-7.448-26.303,2.04      c-16.429,14.434-33.966,13.876-44.434,5.601c-3.23-2.553-3.281-3.481-4.754-0.457c-5.936,12.189-23.885,19.18-44.045,11.068      c-7.689-3.094-14.789-2.04-21.168,3.177c-17.426,14.25-33.502,6.971-36.156-6.205c-1.868-9.272,3.695-20.282,14.11-24.137      c27.43-10.153,58.296-15.485,63.854-17.046C206.529,48.479,239.779,41.602,283.598,38.512z"/>
			</g>
			<path style="fill:#FF8EDE;" d="M266.659,324.931c-28.586,4.77-53.765,7.653-84.921,6.35c-16.65-0.697-34.837-2.604-50.861-7.158     c-3.886-1.105-5.289-1.31-5.12-4.072c0.876-14.324,4.747-28.762,12.984-40.31c6.839-9.589,14.963-15.407,25.395-20.781     c5.022-2.587,7.754-8.06,5.171-14.192c-3.286-7.801-3.166-12.079-3.119-16.688c0.009-0.835,0.825-1.414,1.627-1.258     c3.667,0.717,8.896,4.448,30.87,6.112c14.573,1.104,29.697-0.554,37.351-0.909c26.315-1.222,77.583-16.458,94.803-32.164     c0.572-0.521,1.216-0.98,1.88-1.378c0.662-0.397,1.561-0.025,1.88,0.844c5.486,14.962-0.156,18.825,5.046,24.754     c2.724,3.105,5.995,3.362,17.15,5.503c20.794,3.992,38.959,22.935,46.616,43.37c0.633,1.69,0.594,1.929-0.792,2.987     c-34.568,26.366-93.102,41.994-135.935,49.141C266.675,325.031,266.667,324.981,266.659,324.931z"/>
			<g>
				<path style="fill:#FC09B2;" d="M169.088,225.353c-2.134-0.911-2.609-1.709-2.245-3.924c3.75-22.781,36.633-41.212,58.927-45.798      c1.013-0.208,2.853-0.73,2.702-1.754c-0.264-1.791-8.164-1.642-10.397-12.512c-2.863-13.941,11.066-25.698,24.255-25.212      c13.647,0.502,28.186,15.635,18.457,28.778c-0.769,1.039-1.702,1.956-2.53,2.954c-0.577,0.695-0.206,1.47,0.714,1.738      c1.651,0.481,53.569-6.48,72.601,23.238c1.32,2.06,1.184,3.067-0.662,4.768C300.273,225.848,205.851,241.04,169.088,225.353z"/>
				<path style="fill:#FC09B2;" d="M119.694,256.285c8.254-5.888,21.923-5.376,31.24,5.188c5.045,5.721-10.288,2.683-22.336,34.814      c-0.729,1.944-1.372,2.152-3.265,1.179C108.61,288.862,105.374,266.5,119.694,256.285z"/>
				<path style="fill:#FC09B2;" d="M397.447,249.842c-4.332,5.117-5.895-0.648-10.228-4.955c-3.61-3.588-7.634-6.753-11.792-9.678      c-2.348-1.651-5.035-2.703-7.689-3.764c-6.993-2.796-9.035-2.479-8.047-5.015c4.721-12.114,18.093-20.459,30.865-15.11      C405.161,217.437,407.19,238.335,397.447,249.842z"/>
				<path style="fill:#FC09B2;" d="M216.599,395.78c5.764-9.047,20.519-11.882,30.132-8.281c9.517,3.565,10.85,14.8-1.739,20.847      C227.748,416.629,209.122,407.517,216.599,395.78z"/>
				<path style="fill:#FC09B2;" d="M342.226,374.819c-8.389-6.686-23.265-4.576-31.188,1.951      c-7.844,6.462-5.457,17.521,8.413,19.153C338.45,398.157,353.108,383.492,342.226,374.819z"/>
				<g>
					<g>
						<path style="fill:#FC09B2;" d="M371.983,254.244c3.231-1.254,4.091-0.108,4.553,1.616c1.49,5.556,1.456,10.41,0.895,12.767        c-0.928,4.049-3.849,6.069-7.566,4.376c-4.027-1.881-6.963-6.059-9.571-9.891c-1.005-1.482-0.767-2.644,0.617-3.57        C362.716,258.388,369.976,255.06,371.983,254.244z"/>
					</g>
					<g>
						<path style="fill:#FC09B2;" d="M343.29,266.516c3.31-1.022,4.083,0.184,4.414,1.939c1.076,5.655,0.685,10.499-0.05,12.813        c-1.235,3.947-4.292,5.765-7.874,3.796c-3.875-2.172-6.493-6.564-8.809-10.579c-0.892-1.553-0.567-2.694,0.881-3.512        C333.741,269.955,341.229,267.178,343.29,266.516z"/>
					</g>
					<g>
						<path style="fill:#FC09B2;" d="M313.764,276.603c3.383-0.75,4.064,0.512,4.263,2.285c0.648,5.713-0.109,10.502-1.018,12.745        c-1.522,3.864-4.7,5.473-8.138,3.192c-3.701-2.454-5.972-6.998-7.978-11.173c-0.772-1.614-0.365-2.732,1.137-3.458        c0.973-0.457,3.383-1.222,5.814-1.925C310.273,277.556,312.704,276.829,313.764,276.603z"/>
					</g>
					<g>
						<path style="fill:#FC09B2;" d="M283.571,284.452c3.423-0.521,4.006,0.787,4.072,2.572c0.217,5.754-0.896,10.489-1.969,12.67        c-1.814,3.717-5.112,5.046-8.359,2.558c-3.498-2.692-5.429-7.449-7.115-11.77c-0.649-1.672-0.156-2.746,1.401-3.328        C273.609,286.373,281.44,284.821,283.571,284.452z"/>
					</g>
					<g>
						<path style="fill:#FC09B2;" d="M252.875,290.002c3.45-0.274,3.932,1.073,3.863,2.859c-0.219,5.752-1.684,10.418-2.921,12.488        c-2.095,3.538-5.478,4.655-8.527,1.929c-3.288-2.989-4.852-7.86-6.206-12.293c-0.52-1.715,0.053-2.752,1.648-3.222        C242.802,291.221,250.711,290.131,252.875,290.002z"/>
					</g>
					<g>
						<path style="fill:#FC09B2;" d="M221.843,293.189c3.466,0.057,3.841,1.38,3.638,3.174c-0.651,5.751-2.47,10.214-3.86,12.197        c-2.355,3.384-5.81,4.298-8.648,1.283c-3.053-3.234-4.244-8.176-5.259-12.698c-0.39-1.746,0.26-2.743,1.886-3.107        c1.051-0.229,3.573-0.404,6.099-0.558C218.225,293.296,220.759,293.177,221.843,293.189z"/>
					</g>
					<g>
						<path style="fill:#FC09B2;" d="M190.656,294.047c3.453,0.26,3.727,1.665,3.39,3.42c-1.082,5.657-3.232,10.021-4.766,11.906        c-2.602,3.183-6.114,3.787-8.718,0.625c-2.801-3.468-3.618-8.49-4.292-13.08c-0.257-1.772,0.465-2.714,2.113-2.946        C180.511,293.738,188.496,293.879,190.656,294.047z"/>
					</g>
					<g>
						<path style="fill:#FC09B2;" d="M159.485,292.563c3.424,0.519,3.593,1.941,3.126,3.665c-1.501,5.557-3.969,9.755-5.64,11.51        c-2.831,2.975-6.381,3.353-8.739-0.03c-2.536-3.654-2.979-8.719-3.311-13.343c-0.125-1.784,0.665-2.674,2.328-2.79        C149.392,291.484,157.342,292.244,159.485,292.563z"/>
					</g>
				</g>
			</g>
			<path style="opacity:0.5;fill:#FC09B2;" d="M183.763,255.857c-1.757-5.144,17.257,0.173,29.358,0.277     c23.576,0.203,48.705-3.9,71.401-10.163c27.331-7.542,31.553-12.416,39.749-15.825c1.949-0.81,3.411,0.175,2.994,2.048     c-1.201,5.404-6.077,11.257-10.393,15.364c-9.602,9.134-21.221,15.661-34.131,20.393     C233.106,286.145,187.764,267.568,183.763,255.857z"/>
			<g style="opacity:0.5;">
				<path style="fill:#FD8A02;" d="M406.31,417.722c-20.913,42.118-175.145,74.737-229.224,44.621      c-3.642-2.028-3.771-2.585-1.295-5.818c20.022-26.136,86.713-15.65,137.018-28.015c34.237-8.416,67.74-28.959,75.372-63.8      c8.528-38.933,0.873-57.919,17.923-79.545c0.475-0.602,1.267-0.516,1.579,0.155C413.937,298.735,426.213,377.638,406.31,417.722      z"/>
				<path style="fill:#FD8A02;" d="M80.944,379.351c-8.171-18.299-15.137-31.039-27.552-41.481      c-7.836-6.591-19.153-9.487-22.71-10.791c-0.766-0.281-0.474-1.338,0.201-1.378c22.478-1.345,41.089,10.555,55.412,26.9      c12.687,14.479,22.39,40.197,43.311,43.101c10.95,1.52,22.548-4.644,32.904-1.372c9.433,2.98,11.744,10.63,7.48,19.389      c-4.369,8.976-5.132,11.7-12.13,17.317C153.822,434.277,109.506,443.318,80.944,379.351z"/>
				<path style="fill:#FD8A02;" d="M267.305,49.364c4.555-6.909,1.985-9.627,6.917-10.122c17.948-1.803,26.399-1.19,32.667-1.391      c15.831-0.507,28.554,20.016,16.98,31.956c-10.475,10.806-22.415,3.088-34.629,2.489c-11.275-0.553-18.098,10.633-28.109,14.122      c-6.189,2.156-12.581,3.251-19.164,2.004c-7.554-1.431-11.8-6.015-13.537-7.32c-1.365-1.026-1.923,0.702-2.395,1.633      c-5.653,11.148-21.779,19.564-43.698,11.112c-18.201-7.018-22.542,8.583-33.487,9.535c-1.976-7.265,7.345-13.482,12.172-17.13      C195.669,60.07,247.657,79.169,267.305,49.364z"/>
			</g>
			<g style="opacity:0.25;">
				<path style="fill:#000E3F;" d="M294.702,171.732c0.064-0.03,0.13-0.058,0.197-0.086c8.981-3.688,43.039,18.744,36.482,25.526      c-8.295,8.581-27.298,16.708-39.358,20.788c-29.687,10.042-50.568,13.265-82.536,13.671c-5.454,0.069-21.048-0.661-24.767-2.223      c-2.036-0.855,3.732-6.127,11.742-9.074c29.345-10.798,85.896-0.068,93.694-37.848      C290.848,179.134,290.998,173.444,294.702,171.732z"/>
				<path style="fill:#000E3F;" d="M111.839,269.787c1.707-0.052,2.682,3.087,10.108,3.547c5.251,0.325,9.879-3.859,14.667-6.556      c1.71-0.963,14.623-8.01,15.227-3.086c0.189,1.545-5.085,4.757-6.152,5.709c-7.01,6.255-11.921,14.239-15.502,22.873      c-1.961,4.728-1.85,6.522-4.486,5.398c-11.105-4.738-17.235-19.393-14.468-27.482      C111.295,270.008,111.629,269.919,111.839,269.787z"/>
				<path style="fill:#000E3F;" d="M399.281,247.391c-0.917,1.588-2.216,2.878-3.6,4.066c-3.428,2.941-2.453-4.185-20.76-16.532      c-7.644-5.156-18.643-5.736-14.414-8.411c4.239-2.68,6.883-2.272,18.476,0.175c5.811,1.226,12.54,3.204,18.834-4.202      c0.578-0.68,1.937-3.127,3.127-1.11c0.935,1.585,1.524,3.288,1.74,5.123C403.221,231.038,405.824,236.073,399.281,247.391z"/>
			</g>
			<g style="opacity:0.75;">
				<path style="fill:#FFFFFF;" d="M122.629,375.568c-23.746-15.071-29.319-35.314-45.656-46.949      c-1.863-1.327-7.147-6.196-12.65-9.045c-9.879-5.115-0.89-11.132,25.246,9.809c12.724,10.195,18.859,19.104,30.572,27.745      c12.139,8.956,26.771,11.599,28.968,15.107C153.114,378.632,140.698,387.036,122.629,375.568z"/>
				<path style="fill:#FFFFFF;" d="M215.992,53.206c2.318,0.003,5.862,0.599,3.355,3.166c-2.119,2.17-5.372,3.171-8.12,4.25      c-20.008,7.856-43.852,8.161-60.499,23.248c-3.989,3.615-7.571,10.505-12.253,9.53c-2.052-0.427-3.487-2.44-3.83-4.508      c-0.86-5.196,2.644-9.052,6.475-11.948C158.462,63.833,209.493,53.198,215.992,53.206z"/>
			</g>
			<path style="opacity:0.5;fill:#FFFFFF;" d="M220.915,199.177c-22.834,6.31-23.544,7.801-39.2,17.382     c-11.042,6.757-2.287-6.787,11.725-17.047c4.213-3.085,42.494-25.014,44.375-10.529     C238.557,194.7,226.954,197.508,220.915,199.177z"/>
			<path style="fill:#FFFFFF;" d="M292.021,363.18c4.344,0.298,6.747,2.77,7.428,6.295c3.655,18.911-23.559,30.031-37.116,18.983     c-4.852-3.954-11.086-14.387-3.73-19.106C262.483,366.864,277.863,362.21,292.021,363.18z"/>
		</g>
		<g>
			<path style="fill:#000E3F;" d="M193.048,471.943c-28.792-7.698-29.715-20.478-38.424-34.793c-0.5-0.822-1.178-1.341-2.224-1.301     c-1.297,0.049-2.609-0.092-3.895,0.037c-20.403,2.048-38.682-9.771-51.956-25.21c-12.957-15.071-20.615-35.191-24.118-42.156     c-13.995-27.824-26.678-36.975-59.797-42.359c-20.087-3.266-14.924-30.723,7.697-39.456c11.91-4.599,32.479,4.063,43.513,10.526     c19.091,11.182,36.751,35.778,57.067,38.148c4.051,0.472-1.03-9.63,4.299-32.077c0.533-2.243,0.542-2.287-1.467-3.335     c-23.667-12.35-20.253-45.111,3.554-50.089c4.058-0.849,4.147-0.999,4.375-4.998c0.727-12.736-6.11-30.227-12.413-41.377     c-9.34-16.523-18.053-22.296-25.414-44.522c-8.882-26.821-4.404-55.825,18.345-72.663c2.403-1.779,4.776-3.623,7.513-4.881     c3.457-1.589,4.544-6.003,6.604-8.909c5.57-7.854,15.365-10.498,24.12-13.208c40.508-12.54,108.114-24.635,156.104-24.5     c6.085,0.017,11.637,1.954,15.977,6.177c2.941,2.862,6.15,4.33,10.086,5.155c28.363,5.94,44.518,29.973,46.841,56.828     c2.76,31.903-10.148,47.129-10.584,72.665c-0.163,9.546,0.054,21.449,4.851,29.992c0.787,1.402,1.832,2.155,3.505,1.73     c22.718-5.77,40.519,24.103,21.098,45.792c-1.249,1.395-1.275,1.498-0.287,3.006c23.112,35.296,28.469,112.735,16.484,150.8     c-3.431,10.898-8.58,19.143-19.388,27.628C348.643,471.076,238.886,486.037,193.048,471.943z M402.204,421.576     c6.559-8.194,10.094-24.428,11.566-34.816c5.203-36.712-0.972-84.91-8.971-106.661c-1.968-5.349-14.884,19.399-103.341,41.329     c-47.562,11.791-118.495,18.893-166.439,6.873c-5.87-1.472-8.154-2.594-8.148-0.717c0.026,8.485,0.392,8.246,0.388,9.726     c-0.004,1.797-1.077,2.974-3.835,2.618c-34.732-4.492-42.3-37.677-85.593-49.133c-14.945-3.955-27.124,3.19-32.443,15.863     c-2.258,5.38-0.421,13.264,5.941,14.678c29.224,6.498,43.491,9.076,59.419,35.002c7.047,11.471,13.078,27.656,19.547,38.147     c14.071,22.82,35.708,41.259,62.194,36.565c3.157-0.56,3.74-0.173,5.304,2.633c9.991,17.922,11.307,28.76,41.705,35.32     C261.16,482.307,373.239,457.756,402.204,421.576z M368.33,79.152c-6.86-14.761-18.425-24.265-34.295-28.33     c-9.26-2.372,1.531,3.694-4.305,15.595c-6.339,12.927-20.367,15.623-34.044,10.487c-18.233-6.846-19.218,11.723-43.167,14.753     c-7.794,0.986-15.216-0.486-21.854-5.097c-2.226-1.546-2.255-1.563-4.212,1.086c-8.148,11.019-21.92,14.607-35.313,11.967     c-10.032-1.978-18.514-9.035-28.997,0.129c-17.269,15.094-37.996,7.311-40.529-9.277c-0.577-3.777-0.398-5.042-2.822-3.505     c-33.823,21.45-30.454,66.056-6.4,98.276c12.738,17.062,18.674,30.769,22.725,47.031c1.233,4.948,1.209,10.04,0.774,15.117     c-0.181,2.118-0.175,2.198,1.815,2.685c5.723,1.4,10.43,4.428,14.638,8.546c2.742,2.683,1.865,2.31,9.554-1.864     c10.94-5.939,1.75-10.487,1.143-26.302c-1.105-28.792,29.944-48.805,57.007-56.411c3.534-0.993-2.714-3.24-4.43-9.411     c-6.765-24.325,25.298-42.152,43.881-24.331c7.3,7,9.464,14.838,5.25,23.989c-1.28,2.779-1.003,1.412,12.935,1.937     c30.676,1.155,60.213,13.709,62.456,44.363c0.17,2.326,0.028,4.673,0.119,7.007c0.264,6.757,4.998,6.807,14.162,8.36     c1.613,0.273,2.177,0.007,2.797-1.41c2.454-5.614,6.08-10.244,11.162-13.731c7.058-4.842-15.198-10.795,2.798-70.688     C375.272,126.493,377.789,99.504,368.33,79.152z M400.555,275.867c1.928-1.457,1.959-1.669,1.021-3.909     c-3.444-8.231-8.263-15.62-13.99-22.413c-10.585-12.556-24.647-18.255-40.849-20.498c-7.714-1.068-11.317-6.251-10.879-13.186     c0.3-4.749-0.795-9.303-1.719-13.887c-0.774-3.841-2.126-0.528-11.587,5.407c-36.64,22.983-111.039,35-151.872,21.819     c-1.852-0.611-3.4-1.211-3.233,0.727c0.459,5.335,1.334,10.589,3.519,15.525c1.581,3.572,0.823,6.834-1.076,9.997     c-2.678,4.461-5.677,4.414-14.516,10.231c-18.372,12.091-26.495,31.244-28.199,53.08c-0.194,2.489-0.362,2.969,4.336,4.167     C213.89,343.942,348.846,314.95,400.555,275.867z M293.221,216.027c13.095-4.537,26.998-10.124,37.219-19.792     c0.638-0.604,0.697-1.314,0.286-2.119c-2.587-5.064-9.292-11.984-20.45-16.758c-15.179-6.494-34.216-7.916-50.15-6.355     c-3.383,0.331-4.565-1.758-3.463-3.329c1.272-1.814,5.77-4.978,5.734-11.116c-0.092-15.75-19.388-22.955-30.564-17.088     c-16.807,8.825-15.889,27.148-4.847,31.737c0.717,0.298,1.436,0.639,2.07,1.082c1.295,0.906,1.197,2.749-0.208,3.565     c-1.833,1.063-52.919,12.294-60.713,45.608c-0.351,1.499-0.198,1.806,1.172,2.448c18.53,8.693,57.994,7.14,78.131,3.419     C260.005,225.007,265.017,225.799,293.221,216.027z M137.437,68.616c-7.677,4.048-11.913,10.422-11.75,19.185     c0.251,13.515,13.455,18.639,26.326,13.327c7.547-3.114,11.909-11.869,23.994-10.397c7.737,0.943,16.546,8.236,32.318,3.98     c20.632-5.567,14.968-21.416,21.811-14.025c8.503,9.184,27.814,10.642,44.085-4.057c5.645-5.099,14.047-7.111,21.845-4.165     c17.274,6.528,30.433-1.507,30.756-13.127c0.291-10.438-8.555-20.231-21.316-20.136     C240.344,39.685,153.456,60.169,137.437,68.616z M373.264,213.098c-5.65,2.675-9.536,7.048-11.845,12.833     c-0.471,1.181-0.246,1.653,0.917,2.096c0.661,0.252,8.729,2.617,13.512,5.899c21.051,14.444,15.846,19.411,21.016,14.393     c0.369-0.358,0.705-0.771,0.975-1.209C410.842,226.047,392.958,203.773,373.264,213.098z M125.128,295.781     c2.353,1.248,2.261-0.367,3.272-2.833c11.324-27.622,24.733-27.058,21.104-31.071c-8.184-9.05-20.279-10.05-28.196-4.979     C108.17,265.312,109.217,287.341,125.128,295.781z"/>
			<g>
				<path style="fill:#000E3F;" d="M229.52,361.878c4.839-1.999,11.142-0.483,14.349,4.827c5.645,9.343-5.241,19.125-14.744,14.306      C221.48,377.134,221.246,365.296,229.52,361.878z"/>
			</g>
			<g>
				<path style="fill:#000E3F;" d="M318.964,346.954c-5.226-0.319-10.695,3.161-12.005,9.224      c-2.305,10.669,11.166,16.387,18.59,8.743C331.522,358.773,327.899,347.5,318.964,346.954z"/>
			</g>
			<g>
				<path style="fill:#000E3F;" d="M163.967,426.838c-0.569,0.095-1.174-0.019-1.688-0.369c-1.064-0.72-1.341-2.167-0.62-3.23      c9.982-14.715,12.548-31.983,7.041-47.375c-4.972-13.894-15.952-24.267-30.127-28.46c-1.233-0.364-1.936-1.658-1.572-2.89      c0.363-1.232,1.659-1.938,2.889-1.57c15.616,4.618,27.712,16.046,33.189,31.352c6.014,16.806,3.254,35.596-7.57,51.554      C165.137,426.398,164.572,426.737,163.967,426.838z"/>
			</g>
			<g>
				<path style="fill:#000E3F;" d="M14.38,317.798c-1.218,0.203-2.371-0.62-2.574-1.838c-0.203-1.218,0.619-2.371,1.838-2.574      c13.855-2.312,12.113-17.04,12.032-17.666c-0.158-1.226,0.671-2.35,1.931-2.504c1.224-0.158,2.346,0.706,2.505,1.931      C30.987,301.928,28.828,315.387,14.38,317.798z"/>
			</g>
		</g>
	</g>
	<g>
		<path style="fill:#007AF4;" d="M88.402,231.752c-1.68,2.79-5.486,6.539-7.582,17.169c-0.188,0.953-0.391,1.916-0.725,2.822    c-0.465,1.262-1.855,1.57-2.817,0.591c-2.174-2.212-2.938-6.177-9.942-12.083c-4.11-3.465-7.668-4.178-5.2-7.102    c6.152-7.287,7.092-16.831,7.994-19.464c0.389-1.137,1.714-1.442,2.599-0.646c0.95,0.854,1.554,1.98,2.219,3.055    c4.916,7.956,10.382,11.055,12.664,12.625C88.186,229.112,88.982,230.792,88.402,231.752z"/>
		<path style="fill:#007AF4;" d="M27.079,199.276c-1.68,2.79-5.486,6.539-7.582,17.169c-0.188,0.952-0.391,1.916-0.725,2.822    c-0.465,1.263-1.855,1.57-2.816,0.591c-2.174-2.212-2.938-6.177-9.942-12.083c-4.11-3.465-7.668-4.178-5.2-7.102    c6.152-7.287,7.092-16.831,7.994-19.465c0.389-1.137,1.714-1.442,2.599-0.646c0.949,0.854,1.554,1.98,2.219,3.055    c4.916,7.956,10.382,11.055,12.664,12.625C26.862,196.636,27.658,198.316,27.079,199.276z"/>
		<path style="fill:#007AF4;" d="M465.234,259.678c-1.935,3.212-6.316,7.516-8.733,19.774c-0.216,1.097-0.45,2.207-0.835,3.251    c-0.536,1.454-2.137,1.807-3.245,0.68c-2.507-2.55-3.384-7.115-11.45-13.916c-4.734-3.992-8.832-4.813-5.99-8.179    c7.086-8.393,8.169-19.385,9.208-22.419c0.449-1.31,1.974-1.661,2.994-0.744c1.094,0.983,1.79,2.28,2.555,3.518    c5.673,9.18,11.989,12.754,14.586,14.541C464.984,256.637,465.901,258.571,465.234,259.678z"/>
		<path style="fill:#007AF4;" d="M67.03,144.786c-0.404,0.67-0.815,1.342-1.285,1.964c-6.64,8.775-7.053,17.725-8.283,21.061    c-0.536,1.454-2.136,1.808-3.244,0.681c-0.772-0.786-1.416-1.736-1.964-2.7c-8.537-15.051-19.728-14.36-15.476-19.396    c7.086-8.393,8.168-19.385,9.208-22.419c0.449-1.31,1.974-1.661,2.994-0.744c1.093,0.984,1.79,2.28,2.555,3.518    c5.674,9.18,11.989,12.754,14.586,14.541C66.78,141.746,67.698,143.678,67.03,144.786z"/>
		<path style="fill:#007AF4;" d="M472.674,361.491c-0.404,0.67-0.814,1.341-1.285,1.964c-6.64,8.775-7.053,17.725-8.283,21.061    c-0.536,1.454-2.137,1.808-3.244,0.681c-0.772-0.785-1.416-1.735-1.964-2.7c-8.537-15.051-19.728-14.36-15.476-19.396    c7.086-8.393,8.168-19.385,9.207-22.419c0.449-1.309,1.974-1.661,2.994-0.744c1.094,0.983,1.79,2.28,2.555,3.518    c5.673,9.181,11.989,12.754,14.586,14.54C472.425,358.451,473.343,360.382,472.674,361.491z"/>
		<path style="fill:#007AF4;" d="M511.798,303.573c-1.68,2.79-5.486,6.539-7.582,17.169c-0.188,0.953-0.391,1.916-0.725,2.822    c-0.465,1.262-1.855,1.57-2.816,0.591c-2.174-2.212-2.938-6.177-9.942-12.083c-4.11-3.465-7.668-4.178-5.2-7.101    c6.152-7.287,7.092-16.831,7.994-19.465c0.389-1.137,1.714-1.442,2.599-0.646c0.949,0.854,1.554,1.98,2.219,3.055    c4.916,7.956,10.382,11.055,12.664,12.625C511.582,300.933,512.378,302.613,511.798,303.573z"/>
	</g>
</g>















</svg>
