<?xml version="1.0" encoding="UTF-8"?>
<!-- Generator: Adobe Illustrator 25.2.1, SVG Export Plug-In . SVG Version: 6.00 Build 0)  -->
<svg xmlns="http://www.w3.org/2000/svg" xmlns:xlink="http://www.w3.org/1999/xlink" version="1.1" id="Capa_1" x="0px" y="0px" viewBox="0 0 512 512" style="enable-background:new 0 0 512 512;" xml:space="preserve" width="512" height="512">
<g>
	<g>
		<g>
			<g>
				<path style="fill:#FFCF00;" d="M439.759,49.542c1.915-2.021,3.505-2.13,5.266-0.052c11.502,13.58,20.42,36.767,8.943,50.463      c-0.275,0.328-0.907,0.516-1.362,0.494c-1.456-0.072-0.027-0.936-1.889-11.475c-1.07-6.06-6.123-19.308-10.544-14.526      c-5.835,6.311-8.073,15.06-6.711,22.818c0.154,0.874,1.967,7.281-0.727,5.06C418.757,90.802,427.36,62.626,439.759,49.542z"/>
			</g>
			<path style="fill:#00D5FE;" d="M421.2,271.543c0,1.441,0.037,2.883-0.008,4.322c-0.087,2.78,0.833,5.275,2.57,7.437     c4.731,5.887,11.111,9.289,18.827,9.557c5.821,0.202,11.24-1.777,15.77-5.463c1.149-0.935,2.228-1.965,3.226-3.046     c2.309-2.501,3.61-5.371,3.494-8.782c-0.094-2.768-0.032-5.541-0.023-8.312c0.002-0.663,0.022-1.33,0.108-1.987     c0.096-0.735,0.813-1.129,1.557-0.84c0.641,0.25,1.266,0.563,1.846,0.923c3.947,2.45,6.473,6.02,8.492,9.943     c2.235,4.344,3.366,9.047,3.469,13.799c0.165,7.6-1.632,14.743-7.498,20.444c-0.244,0.237-0.478,0.486-0.693,0.747     c-0.395,0.482-0.229,1.181,0.365,1.352c1.673,0.483,3.354,0.945,5.042,1.382c7.598,1.965,14.272,5.596,19.866,10.756     c6.076,5.605,10.079,12.36,11.306,20.514c1.244,8.273-0.668,15.831-5.097,22.894c-5.47,8.723-13.59,14.456-23.329,18.307     c-0.859,0.339-1.73,0.664-2.546,1.081c-0.652,0.333-0.824,1.15-0.369,1.732c0.834,1.066,1.684,2.128,2.615,3.117     c6.864,7.29,12.966,15.107,18.226,23.518c3.767,6.023,6.899,12.299,8.932,19.06c0.744,2.475,0.865,5.016,1.288,7.523     c0.367,2.174-0.751,3.92-2.309,5.328c-3.21,2.901-6.529,5.672-10.498,7.673c-5.392,2.719-11.08,4.644-16.93,6.246     c-6.743,1.846-13.595,3.204-20.535,4.036c-3.192,0.383-6.456,0.875-9.728,0.351c-0.552-0.088-1.153,0.089-1.73,0.159     c-0.692,0.084-1.381,0.198-2.074,0.277c-1.879,0.213-3.735-0.529-5.553-0.322c-1.77,0.201-3.444,0.046-5.187-0.06     c-3.851-0.233-7.646-0.764-11.451-1.312c-5.552-0.8-10.946-2.203-16.34-3.632c-4.624-1.225-9.087-2.807-13.364-4.89     c-4.416-2.15-8.192-5.07-11.698-8.358c-1.253-1.175-1.63-2.528-1.746-4.169c-0.386-5.489,1.433-10.507,3.451-15.477     c2.061-5.077,4.72-9.886,7.784-14.481c4.999-7.496,10.447-14.666,16.579-21.393c3.765-4.13,4.575-3.775-1.499-6.16     c-9.428-3.701-17.099-9.46-22.547-17.712c-2.819-4.271-4.551-8.904-5.209-13.962c-1.445-11.108,2.282-20.457,10.224-28.492     c6.259-6.333,14.016-10.201,22.745-12.455c3.966-1.024,3.985-0.994,1.288-4.121c-4.159-4.822-6.066-10.358-6.171-16.573     c-0.083-4.921,0.268-9.733,2.187-14.364c1.912-4.616,4.637-8.671,8.809-11.755c0.552-0.408,1.106-0.823,1.708-1.157     c1.407-0.781,2.272-0.372,2.321,1.144c0.061,1.882,0.015,3.767,0.015,5.652C421.184,271.543,421.192,271.543,421.2,271.543z"/>
			<path style="fill:#FC09B2;" d="M386.353,420.247c0.641-1.171,1.427-1.582,2.779-1.402c11.044,1.478,20.247,10.27,25.298,20.923     c1.145,2.416,0.598,3.078,4.001-0.929c13.137-15.463,31.126-18.557,47.137-4.035c2.023,1.835,4.016,3.703,5.63,5.903     c1.352,1.844,2.045-0.872,2.604-2.056c4.453-9.439,12.545-17.523,23.275-20.056c2.722-0.643,3.485-0.375,4.741,2.081     c5.68,11.104,5.629,14.199,6.646,19.122c0.598,2.893-0.104,5.291-2.32,7.245c-28.638,25.251-98.454,23.783-124.321,0.545     c-1.636-1.47-2.617-3.082-2.299-5.275C379.608,441.74,378.198,435.141,386.353,420.247z"/>
			<g>
				<path style="fill:#007AF4;" d="M443.767,406.558c-13.385,0.503-27.153-7.968-30.399-15.711      c-2.05-4.888,14.886,5.332,38.473,2.398c13.286-1.652,18.784-3.814,20.841-4.126c4.659-0.705-3.546,13.041-21.96,16.934      C448.409,406.543,446.09,406.492,443.767,406.558z"/>
				<path style="fill:#007AF4;" d="M416.283,312.734c0.768-1.509,2.466,1.615,18.102,3.955c10.183,1.524,22.762,0.13,31.987-3.388      c1.966-0.75,3.045-1.604,3.858-0.855c1.675,1.548-2.93,5.82-4.066,6.93C445.456,339.603,412.578,320.024,416.283,312.734z"/>
			</g>
			<g>
				<g>
					<path style="fill:#FFFFFF;" d="M452.599,96.854c0.672,4.43-6.386,7.531-8.702,7.909c-15.371,2.507-14.088-22.937-3.51-31.689       c2.802-2.318,5.45,1.235,7.21,4.399C450.754,83.152,452.102,89.339,452.599,96.854z"/>
				</g>
				<path style="fill:#FFFFFF;" d="M424.92,145.219c17.917-27.818,16.637-29.045,19.499-24.632      c18.398,28.362,17.517,27.16,17.435,29c-0.404,9.087,0.67,18.142,0.596,27.228c-0.459,56.154,0.554,10.487,0.816,93.403      c0.004,1.214,0.004,2.453,0.24,3.638c2.665,13.433-23.674,26.71-38.459,8.874c-2.846-3.433-2.053-3.494-2.054-39.795      C422.992,142.025,422.458,149.042,424.92,145.219z"/>
				<path style="fill:#FFFFFF;" d="M443.857,352.631c-5.073,0.114-9.893,4.724-9.474,9.96c0.596,7.449,11.594,9.634,16.423,5.023      C456.633,362.05,451.488,352.46,443.857,352.631z"/>
			</g>
			<g style="opacity:0.25;">
				<path style="fill:#000E3F;" d="M460.035,464.422c-8.357,0.724-17.244,1.582-25.629,1.09c-6.217-0.365-17.135-0.669-22.673-3.835      c-6.295-3.599,25.821,2.306,36.544-25.011c10.529-26.824-3.497-45.686,17.298-61.229c4.663-3.485,9.348-5.898,13.123-12.223      c8.175-13.698-4.195-23.128-12.598-33.563c-10.884-13.516-1.302-34.971,12.939-40.808c3.538-1.449,1.033,12.218-4.155,18.755      c-0.768,0.968-1.724,1.801-2.561,2.722c-2.558,2.813,11.266,0.721,25.06,13.246c13.202,11.987,15.837,29.442,5.869,44.479      c-11.858,17.887-29,16.428-25.464,20.537c11.038,12.827,25.578,26.603,30.123,43.558      C513.989,454.817,483.442,462.394,460.035,464.422z"/>
				<path style="fill:#000E3F;" d="M463.263,269.924c0.004,1.217-0.066,2.464,0.181,3.643c0.791,3.779-0.344,7.067-2.871,9.882      c-14.447,16.095-38.24,4.283-37.586-6.965c0.132-2.266,1.417-2.55,4.523-3.254c19.398-4.402,21.61-20.028,21.558-38.751      c-0.128-46.213-4.366-71.296,10.77-86.209c0.663-0.654,1.93-0.588,1.947,0.684C461.894,157.035,463.082,203.93,463.263,269.924z      "/>
				<path style="fill:#000E3F;" d="M439.294,218.564c0.01,4.961,0.284,9.879-0.545,14.764c-0.708,4.169-6.098,5.664-7.937,1.255      c-1.708-4.095-2.992-61.989,1.99-68.786c1.267-1.728,3.572-1.102,4.384,3.682C439.921,185.61,439.262,202.21,439.294,218.564z"/>
			</g>
			<path style="opacity:0.75;fill:#FFFFFF;" d="M385.705,342.706c2.111-8.721,10.75-21.128,21.046-20.435     c3.683,0.248,7.369,3.647,4.936,7.626c-4.43,7.244-22.438,13.464-18.421,29.079c1.884,7.325,3.134,6.75,4.436,10.939     c0.15,0.483-0.53,1.514-1.469,1.003C386.776,365.771,383.215,352.999,385.705,342.706z"/>
		</g>
		<g>
			<path style="fill:#000E3F;" d="M490.078,398.89c-8.291-10.139-10.029-10.642-8.047-11.304     c6.486-2.167,18.065-9.241,24.425-19.622c14.518-23.703-1.071-50.173-28.27-57.532c-2.175-0.589-1.031-1.279,0.415-3.504     c9.592-14.752,3.728-37.436-10.773-44.967c-1.507-0.783-1.746-1.828-1.786-3.248c-0.398-13.727,0.071-27.456-0.57-41.192     c-0.578-12.391-0.345-24.823-0.215-37.235c0.107-10.194-1.019-20.359-0.575-30.549c0.14-3.2-1.018-4.061-16.205-27.682     c-1.248-1.941-2.47-3.903-3.827-5.773c-0.022-1.521-0.012-3.277-0.082-5.447c-0.088-2.681,2.039-2.97,4.452-4.297     c20.654-11.365,13.678-40.41-2.78-58.996c-3.21-3.626-4.762-3.617-7.921,0.053c-23.28,27.045-17.557,53.865-0.375,60.076     c1.912,0.691,1.822,2.198,1.93,3.657c0.088,1.196,0.108,2.838,0.082,5.074c-2.346,3.425,5.402-8.15-17.895,28.404     c-2.459,3.858-1.865-3.902-1.872,112.346c0,0.776-0.039,1.554-0.001,2.328c0.206,4.264-6.627,1.454-13.373,15.015     c-4.497,9.043-4.988,21.666-0.208,30.266c3.635,6.541,4.686,4.954,0.52,6.333c-42.206,13.975-42.106,60.103-3.844,75.991     c3.53,1.466,3.043,1.601,0.856,4.097c-9.717,11.089-29.746,37.063-26.963,51.215c3.456,17.578,39.223,23.631,58.065,24.61     c2.561,0.133,5.137,0.02,8.199,0.02c5.828,0.434,12.11-0.193,18.365-0.853c20.787-2.191,53.632-11.59,48.7-30.874     C507.202,422.392,498.591,409.301,490.078,398.89z M434.176,101.263c-13.458-10.845-5.645-35.936,6.741-50.708     c0.956-1.142,1.733-1.287,2.574-0.316c11.819,13.627,20.753,38.986,7.292,50.729C444.34,106.587,440.791,106.594,434.176,101.263     z M424.113,189.32c1.301-36.927-0.883-39.16,1.71-43.255c16.754-26.458,15.125-24.141,16.068-25.323     c0.97-1.215,1.009-0.349,5.661,6.928c12.22,19.111,13.348,19.406,13.332,24.455c-0.16,50.53-0.094,4.98,0.647,64.103     c0.116,9.194-0.328,18.416,0.277,27.578c0.687,10.41,0.015,20.813,0.573,31.204c0.509,9.484-12.807,16.967-23.014,14.831     c-7.546-1.579-15.464-6.79-15.386-14.104C424.156,259.328,423.639,202.811,424.113,189.32z M405.146,458.726     c-6.527-1.78-12.734-4.275-18.171-8.322c-2.582-1.922-4.326-4.316-5.589-7.089c-2.874-6.31,5.37-21.656,9.176-27.876     c15.926-26.034,26.709-26.854,17.214-30.526c-41.378-16.007-36.458-60.955,3.241-71.004c1.014-0.257,2.068-0.421,3.036-0.787     c1.697-0.641,2.604-2.015,0.863-3.564c-10.89-9.679-10.755-32.34,3.093-42.854c1.211-0.919,2.137-1.168,2.154,0.279     c0.035,2.881,0.199,5.775-0.014,8.642c-0.685,9.245,9.927,16.512,19.944,18.223c11.013,1.882,26.908-7.62,26.148-18.35     c-0.211-2.977-0.113-5.975-0.099-8.964c0.019-4.219,18.796,11.35,11.355,33.898c-1.915,5.805-5.081,7.883-6.125,9.155     c-0.926,1.128-0.667,2.424,0.695,3.028c0.836,0.371,1.769,0.55,2.666,0.785c40.861,10.711,42.942,50.274,12.835,67.393     c-5.815,3.306-8.829,3.913-10.09,4.57c-3.827,1.994-0.483,4.039,5.942,11.438c10.059,11.584,20.58,26.6,23.533,41.389     C510.815,457.521,451.211,471.285,405.146,458.726z"/>
			<g>
				<path style="fill:#000E3F;" d="M418.582,359.654c-1.251,0-2.528-0.295-3.778-0.886c-3.643-1.721-5.893-6.142-5.47-10.752      c0.1-1.066,1.057-1.866,2.111-1.755c1.067,0.098,1.853,1.042,1.756,2.11c-0.233,2.546,0.812,5.729,3.262,6.887      c1.51,0.711,2.934,0.687,4.229-0.084c1.728-1.027,2.933-3.247,3.068-5.655c0.06-1.071,1.011-1.862,2.047-1.829      c1.069,0.061,1.887,0.977,1.827,2.047c-0.21,3.717-2.109,7.079-4.957,8.774C421.397,359.272,420.006,359.654,418.582,359.654z"/>
			</g>
			<g>
				<path style="fill:#000E3F;" d="M468.431,359.654c-1.424,0-2.815-0.382-4.094-1.142c-2.849-1.695-4.748-5.056-4.957-8.774      c-0.06-1.069,0.758-1.986,1.827-2.047c1.079-0.036,1.989,0.758,2.047,1.829c0.136,2.408,1.341,4.627,3.068,5.655      c1.293,0.771,2.717,0.801,4.227,0.084c2.45-1.157,3.497-4.341,3.264-6.888c-0.098-1.067,0.69-2.012,1.758-2.11      c1.065-0.104,2.011,0.689,2.109,1.757c0.419,4.61-1.829,9.031-5.472,10.751C470.958,359.359,469.682,359.654,468.431,359.654z"/>
			</g>
		</g>
	</g>
	<g>
		<g>
			<path style="fill:#FF8EDE;" d="M83.485,464.154c-7.29,0-19.443,0.841-37.024-4.026c-19.466-5.39-33.597-14.727-37.477-34.3     c-6.603-33.313-10.273-93.406,0.613-125.591c5.462-16.148,12.829-23.493,21.268-27.956c10.613-5.612,11.144-4.934,13.766-6.051     c4.392-1.871-1.531-3.966-8.261-9.603c-9.444-7.911-20.812-21.547-20.419-33.745c0.139-4.313-1.108-11.693,8.488-19.723     c4.46-3.732,9.723-5.982,15.411-7.188c6.902-1.464-2.499,8.414,6.67,15.499c10.785,8.334,25.461,9.452,25.644,9.515     c8.961,3.051,34.509,0.381,47.363-9.861c3.046-2.427,4.634-5.383,3.975-9.41c-0.261-1.595-0.143-3.261-0.104-4.892     c0.036-1.548,2.074-1.454,3.468-1.077c35.063,9.487,28.532,42.866-2.896,65.228c-1.14,0.811-2.259,1.657-3.345,2.539     c-0.584,0.474-0.517,1.457,0.127,1.792c3.633,1.888,7.04,1.684,18.673,8.717c11.736,7.095,18.156,23.861,21.061,37.127     c6.762,30.876,3.915,85.612-1.315,112.735c-2.486,12.897-7.856,22.27-21.921,29.828c-9.267,4.98-19.323,7.478-29.639,9.129     C99.395,464.152,91.134,464.444,83.485,464.154z"/>
			<g>
				<g>
					<g>
						<path style="fill:#007AF4;" d="M41.395,296.515c-1.379,3.908-5.741,5.934-9.64,4.289c-3.886-1.668-5.453-6.197-3.605-9.911        c1.853-3.726,6.07-5.405,9.491-3.937C41.069,288.403,42.782,292.587,41.395,296.515z"/>
					</g>
					<g>
						<path style="fill:#007AF4;" d="M65.757,302.762c-0.308,2.054-1.399,3.795-2.973,4.934c-1.559,1.085-3.605,1.578-5.673,1.154        c-4.164-0.899-6.563-5.071-5.428-9.067c1.135-3.998,4.944-6.431,8.554-5.652c1.826,0.374,3.326,1.493,4.324,3.075        C65.562,298.731,66.066,300.707,65.757,302.762z"/>
					</g>
					<g>
						<path style="fill:#007AF4;" d="M90.875,303.897c0.129,2.074-0.573,4.003-1.876,5.45c-1.3,1.393-3.201,2.274-5.317,2.315        c-2.116-0.033-4.017-0.929-5.317-2.319c-1.304-1.431-2.005-3.375-1.876-5.445c0.129-2.077,1.034-3.89,2.332-5.185        c1.305-1.336,3.002-2.132,4.861-2.098c1.858-0.042,3.556,0.769,4.861,2.102C89.841,299.997,90.746,301.824,90.875,303.897z"/>
					</g>
					<g>
						<path style="fill:#007AF4;" d="M115.683,299.783c1.133,3.991-1.264,8.171-5.43,9.063c-2.066,0.434-4.114-0.07-5.672-1.155        c-1.573-1.127-2.665-2.879-2.973-4.93c-0.31-2.058,0.196-4.022,1.195-5.56c0.998-1.583,2.5-2.691,4.324-3.074        C110.738,293.355,114.546,295.781,115.683,299.783z"/>
					</g>
					<g>
						<path style="fill:#007AF4;" d="M139.215,290.893c1.848,3.715,0.28,8.243-3.605,9.912c-3.899,1.643-8.261-0.38-9.641-4.29        c-1.386-3.926,0.326-8.112,3.755-9.558C133.146,285.487,137.362,287.167,139.215,290.893z"/>
					</g>
				</g>
				<g>
					<g>
						<path style="fill:#007AF4;" d="M41.395,427.069c-1.379,3.908-5.741,5.934-9.64,4.289c-3.886-1.668-5.453-6.197-3.605-9.911        c1.853-3.725,6.07-5.405,9.491-3.937C41.069,418.956,42.782,423.14,41.395,427.069z"/>
					</g>
					<g>
						<path style="fill:#007AF4;" d="M65.757,433.315c-0.308,2.054-1.399,3.795-2.973,4.934c-1.559,1.085-3.605,1.578-5.673,1.153        c-4.164-0.899-6.563-5.071-5.428-9.067c1.135-3.998,4.944-6.431,8.554-5.653c1.826,0.374,3.326,1.493,4.324,3.075        C65.562,429.284,66.066,431.26,65.757,433.315z"/>
					</g>
					<g>
						<path style="fill:#007AF4;" d="M90.875,434.451c0.129,2.074-0.573,4.003-1.876,5.45c-1.3,1.393-3.201,2.274-5.317,2.315        c-2.116-0.033-4.017-0.929-5.317-2.319c-1.304-1.431-2.005-3.375-1.876-5.445c0.129-2.077,1.034-3.89,2.332-5.185        c1.305-1.336,3.002-2.132,4.861-2.098c1.858-0.042,3.556,0.77,4.861,2.102C89.841,430.55,90.746,432.377,90.875,434.451z"/>
					</g>
					<g>
						<path style="fill:#007AF4;" d="M115.683,430.336c1.133,3.991-1.264,8.171-5.43,9.064c-2.066,0.434-4.114-0.07-5.672-1.155        c-1.573-1.127-2.665-2.879-2.973-4.93c-0.31-2.058,0.196-4.022,1.195-5.56c0.998-1.584,2.5-2.691,4.324-3.074        C110.738,423.909,114.546,426.334,115.683,430.336z"/>
					</g>
					<g>
						<path style="fill:#007AF4;" d="M139.215,421.446c1.848,3.715,0.28,8.243-3.605,9.912c-3.899,1.643-8.261-0.38-9.641-4.29        c-1.386-3.926,0.326-8.112,3.755-9.558C133.146,416.04,137.362,417.72,139.215,421.446z"/>
					</g>
				</g>
			</g>
			<path style="fill:#FC09B2;" d="M53.421,272.512c-1.921-2.302-5.162-7.658-1.808-7.022c29.015,5.499,39.082,4.594,63.056-0.261     c1.41-0.286,1.986,0.449,1.415,1.827C105.802,291.851,68.949,291.118,53.421,272.512z"/>
			<g>
				<path style="fill:#FFFFFF;" d="M58.64,216.295c-7.628-2.817-10.597-5.442-12.398-7.006c-1.592-1.383-2.22-3.161-2.271-5.278      c-0.261-10.842,2.416-24.635,6.49-34.125c3.552-8.274,7.435-14.351,16.979-16.612c12.613-2.988,35.812-3.667,43.539,8.448      c7.53,11.807,10.946,28.214,11.151,41.361c0.155,9.966-20.517,15.755-30.418,16.613      C88.693,219.957,70.254,220.584,58.64,216.295z"/>
				<g>
					<path style="fill:#FFFFFF;" d="M93.944,130.567c0.671,4.43-6.387,7.531-8.703,7.909c-15.371,2.507-14.088-22.937-3.51-31.689       c2.802-2.318,5.45,1.235,7.21,4.399C92.099,116.865,93.447,123.053,93.944,130.567z"/>
				</g>
				<g>
					<g>
						<path style="fill:#FFFFFF;" d="M22.689,321.538c-1.227,0-2.412-0.49-3.248-1.347c-0.226-0.204-0.409-0.45-0.573-0.695        c-0.164-0.245-0.307-0.511-0.429-0.797c-0.124-0.265-0.205-0.572-0.265-0.858c-0.062-0.285-0.082-0.592-0.082-0.899        c0-0.286,0.02-0.592,0.082-0.899c0.06-0.286,0.142-0.571,0.265-0.858c0.122-0.265,0.265-0.552,0.429-0.797        c0.164-0.245,0.347-0.49,0.573-0.694c0.203-0.204,0.429-0.409,0.694-0.573c0.245-0.162,0.511-0.306,0.796-0.429        c0.265-0.102,0.553-0.203,0.858-0.244c0.592-0.123,1.185-0.123,1.797,0c0.287,0.041,0.573,0.143,0.858,0.244        c0.267,0.123,0.533,0.266,0.798,0.429c0.245,0.164,0.469,0.368,0.694,0.573c0.858,0.858,1.349,2.043,1.349,3.248        c0,0.306-0.042,0.613-0.102,0.899c-0.062,0.286-0.144,0.593-0.267,0.858c-0.102,0.286-0.243,0.552-0.407,0.797        c-0.164,0.245-0.369,0.491-0.573,0.695c-0.225,0.224-0.449,0.408-0.694,0.572c-0.265,0.164-0.531,0.306-0.798,0.429        c-0.285,0.102-0.571,0.205-0.858,0.265C23.282,321.518,22.974,321.538,22.689,321.538z"/>
					</g>
					<g>
						<path style="fill:#FFFFFF;" d="M88.099,331.263c-0.164-2.534,1.757-4.719,4.269-4.904l0,0c0,0,0,0,0.022,0l0,0        c2.532-0.163,4.718,1.758,4.882,4.27l0,0c0.164,2.553-1.736,4.739-4.269,4.902l0,0c-0.102,0.02-0.205,0.02-0.307,0.02l0,0        C90.305,335.552,88.263,333.693,88.099,331.263z M74.352,335.532L74.352,335.532c-2.534-0.164-4.455-2.37-4.291-4.902l0,0        c0.184-2.513,2.37-4.433,4.904-4.27l0,0c2.534,0.185,4.453,2.37,4.269,4.904l0,0c-0.164,2.431-2.187,4.289-4.576,4.289l0,0        C74.555,335.552,74.454,335.552,74.352,335.532z M106.055,329.444c-0.511-2.493,1.103-4.902,3.595-5.413l0,0l0,0l0,0        c2.494-0.511,4.904,1.103,5.414,3.595l0,0c0.511,2.472-1.103,4.903-3.575,5.413l0,0c-0.307,0.062-0.612,0.103-0.92,0.103l0,0        C108.425,333.142,106.504,331.63,106.055,329.444z M55.865,333.039c-2.494-0.511-4.086-2.941-3.597-5.413l0,0        c0.511-2.492,2.942-4.105,5.434-3.595l0,0l0,0l0,0c2.492,0.511,4.086,2.921,3.575,5.413l0,0        c-0.429,2.185-2.348,3.677-4.495,3.677l0,0C56.477,333.121,56.17,333.101,55.865,333.039z M123.625,325.277        c-0.818-2.39,0.469-5.005,2.859-5.822l0,0c2.412-0.817,5.025,0.47,5.843,2.86l0,0c0.816,2.411-0.471,5.026-2.881,5.843l0,0        c-0.471,0.164-0.981,0.245-1.47,0.245l0,0C126.055,328.402,124.277,327.197,123.625,325.277z M37.887,328.157L37.887,328.157        c-2.41-0.817-3.677-3.432-2.859-5.843l0,0c0.816-2.39,3.431-3.677,5.821-2.86l0,0c2.41,0.817,3.698,3.432,2.881,5.822l0,0        c-0.654,1.92-2.452,3.125-4.351,3.125l0,0C38.888,328.402,38.377,328.321,37.887,328.157z"/>
					</g>
					<g>
						<path style="fill:#FFFFFF;" d="M144.685,321.538c-1.225,0-2.41-0.49-3.248-1.347c-0.858-0.838-1.349-2.023-1.349-3.249        c0-0.306,0.02-0.592,0.082-0.899c0.062-0.286,0.144-0.571,0.265-0.858c0.124-0.265,0.265-0.532,0.429-0.797        c0.164-0.245,0.347-0.47,0.572-0.694c1.696-1.696,4.78-1.716,6.496,0c0.205,0.224,0.409,0.449,0.573,0.694        c0.164,0.265,0.307,0.532,0.429,0.797c0.102,0.286,0.204,0.572,0.245,0.858c0.062,0.306,0.102,0.612,0.102,0.899        c0,0.306-0.04,0.613-0.102,0.899c-0.042,0.307-0.144,0.593-0.245,0.858c-0.122,0.286-0.265,0.552-0.429,0.797        c-0.164,0.245-0.367,0.491-0.573,0.695C147.075,321.049,145.89,321.538,144.685,321.538z"/>
					</g>
				</g>
				<g>
					<g>
						<path style="fill:#FFFFFF;" d="M22.689,395.815c-1.227,0-2.412-0.49-3.248-1.348c-0.226-0.204-0.409-0.45-0.573-0.695        c-0.164-0.245-0.307-0.511-0.429-0.796c-0.124-0.286-0.205-0.573-0.265-0.858c-0.062-0.307-0.082-0.614-0.082-0.9        c0-0.306,0.02-0.612,0.082-0.899c0.06-0.285,0.142-0.592,0.265-0.858c0.122-0.286,0.265-0.552,0.429-0.797        c0.164-0.244,0.347-0.49,0.573-0.694c1.041-1.062,2.635-1.552,4.145-1.267c0.287,0.062,0.573,0.164,0.858,0.266        c0.267,0.123,0.533,0.265,0.798,0.429c0.245,0.164,0.469,0.347,0.694,0.571c0.204,0.204,0.409,0.45,0.573,0.694        c0.164,0.245,0.305,0.511,0.407,0.797c0.124,0.265,0.205,0.573,0.267,0.858c0.06,0.286,0.102,0.592,0.102,0.899        c0,1.206-0.491,2.391-1.349,3.249c-0.225,0.205-0.449,0.408-0.694,0.572c-0.265,0.164-0.531,0.306-0.798,0.429        c-0.285,0.103-0.571,0.205-0.858,0.266C23.282,395.775,22.974,395.815,22.689,395.815z"/>
					</g>
					<g>
						<path style="fill:#FFFFFF;" d="M88.099,405.539c-0.164-2.534,1.757-4.739,4.269-4.903l0,0c0,0,0,0,0.022,0l0,0        c2.532-0.164,4.718,1.737,4.882,4.269l0,0c0.164,2.534-1.736,4.739-4.269,4.902l0,0c-0.102,0-0.205,0.021-0.307,0.021l0,0        C90.305,409.829,88.263,407.97,88.099,405.539z M74.352,409.808L74.352,409.808c-2.534-0.164-4.455-2.369-4.291-4.902l0,0        c0.184-2.533,2.37-4.454,4.904-4.269l0,0c2.534,0.164,4.453,2.369,4.269,4.882l0,0c-0.164,2.432-2.165,4.29-4.576,4.29l0,0        C74.555,409.808,74.454,409.808,74.352,409.808z M106.055,403.721c-0.511-2.492,1.103-4.922,3.595-5.433l0,0c0,0,0,0,0,0.02        l0,0c2.494-0.511,4.904,1.082,5.414,3.575l0,0c0.511,2.493-1.103,4.924-3.575,5.413l0,0c-0.327,0.082-0.632,0.103-0.94,0.103        l0,0C108.425,407.398,106.504,405.907,106.055,403.721z M55.865,407.295c-2.494-0.49-4.086-2.921-3.597-5.413l0,0        c0.511-2.493,2.942-4.086,5.434-3.595l0,0l0,0l0,0c2.492,0.511,4.086,2.942,3.575,5.433l0,0        c-0.429,2.165-2.348,3.678-4.495,3.678l0,0C56.477,407.398,56.17,407.377,55.865,407.295z M123.625,399.553        c-0.818-2.39,0.469-5.004,2.859-5.821l0,0c2.412-0.818,5.025,0.449,5.843,2.86l0,0c0.816,2.41-0.471,5.004-2.881,5.822v0.02        c-0.471,0.164-0.981,0.245-1.47,0.245l0,0C126.055,402.679,124.277,401.473,123.625,399.553z M37.887,402.414L37.887,402.414        c-2.41-0.818-3.677-3.432-2.859-5.822l0,0c0.816-2.411,3.431-3.678,5.821-2.86l0,0c2.41,0.817,3.698,3.431,2.881,5.821l0,0        c-0.654,1.92-2.452,3.126-4.351,3.126l0,0C38.888,402.679,38.377,402.597,37.887,402.414z"/>
					</g>
					<g>
						<path style="fill:#FFFFFF;" d="M144.685,395.815c-1.205,0-2.41-0.49-3.248-1.348c-0.225-0.204-0.409-0.45-0.572-0.695        c-0.164-0.245-0.305-0.511-0.429-0.796c-0.122-0.286-0.204-0.573-0.265-0.858c-0.062-0.307-0.082-0.592-0.082-0.9        c0-0.306,0.02-0.591,0.082-0.899c0.062-0.285,0.144-0.592,0.265-0.858c0.124-0.286,0.265-0.552,0.429-0.797        c0.164-0.244,0.347-0.49,0.572-0.694c1.696-1.696,4.78-1.716,6.496,0c0.858,0.858,1.349,2.043,1.349,3.248        c0,0.307-0.04,0.592-0.102,0.9c-0.042,0.285-0.144,0.572-0.245,0.858c-0.122,0.285-0.265,0.552-0.429,0.796        c-0.164,0.245-0.367,0.491-0.573,0.695C147.075,395.325,145.89,395.815,144.685,395.815z"/>
					</g>
				</g>
			</g>
			<g style="opacity:0.25;">
				<path style="fill:#000E3F;" d="M48.311,211.037c-4.921-3.736-4.291-4.331-0.118-7.597c3.588-2.808,7.787-3.539,11.997-4.441      c10.835-2.321,27.31,3.865,40.931-12.115c7.098-8.328,9.036-18.995,7.69-25.271c-1.619-7.55,12.038,9.763,13.299,41.882      C122.68,218.039,71.564,228.691,48.311,211.037z"/>
				<path style="fill:#000E3F;" d="M61.269,161.872c1.724-1.372,3.753-0.391,3.214,3.882c-0.946,7.511-2.145,19.698-5.143,23.282      c-2.273,2.716-5.209,1.499-5.941-1.07C51.737,182.124,57.856,164.588,61.269,161.872z"/>
			</g>
			<path style="opacity:0.5;fill:#FFFFFF;" d="M40.492,218.229c0.666,4.63,0.721,9.319,1.551,13.933     c2.539,14.113,12.418,25.831,10.336,27.852c-0.605,0.587-1.263,0.316-1.829-0.082c-11.008-7.744-22.182-19.004-24.695-33.287     C22.443,207.24,38.424,203.855,40.492,218.229z"/>
			<path style="opacity:0.5;fill:#FC09B2;" d="M19.488,446.089c-1.041-0.954-1.005-1.343,0.109-2.227     c29.373-23.327,61.79-9.785,87.014-34.862c24.393-24.254,19.971-62.536,8.295-91.753c-13.161-32.935-20.412-52.601,3.713-80.315     c10.14-11.649,18.751-18.148,15.293-35.38c-0.199-0.994-1.108-2.273-0.363-2.955c1.036-0.949,2.129,0.337,3.069,0.849     c10.011,5.454,14.34,13.44,13.69,23.537c-0.967,15.017-13.763,28.969-26.295,37.958c-8.839,6.34-2.033,2.271,15.955,13.431     c24.075,14.936,23.701,66.646,24.3,72.133c1.709,15.659-1.843,60.568-5.083,77.317c-2.596,13.425-7.94,22.164-21.87,29.873     c-13.34,7.382-35.063,11.158-49.858,10.483C73.477,463.54,41.373,466.139,19.488,446.089z"/>
			<g>
				<path style="fill:#FFCF00;" d="M81.104,83.255c1.915-2.021,3.505-2.13,5.266-0.052c11.502,13.58,20.42,36.767,8.943,50.463      c-0.275,0.328-0.907,0.516-1.362,0.494c-1.456-0.072,0.111-0.89-1.47-11.475c-0.985-6.597-6.542-19.308-10.963-14.526      c-5.698,6.163-8.145,15.143-6.607,23.36c0.163,0.871,1.577,6.504-0.831,4.519C60.103,124.515,68.705,96.34,81.104,83.255z"/>
			</g>
		</g>
		<g>
			<path style="fill:#000E3F;" d="M166.392,333.769c-1.721-20.747-7.018-49.503-24.369-61.195     c-4.741-3.195-9.748-5.995-15.231-7.802c-5.201-1.715,4.772-2.967,16.628-18.756c19.159-25.515,8.017-48.001-17.255-53.179     c-2.847-0.584-2.376-2.472-3.381-7.65c-2.089-10.76-7.677-27.744-18.503-32.753c-4.675-2.164-11.381-3.377-18.301-3.666     c-0.008-1.232-0.014-2.615-0.066-4.22c-0.087-2.681,2.039-2.97,4.452-4.297c20.654-11.364,13.678-40.41-2.78-58.995     c-3.21-3.626-4.761-3.618-7.921,0.053c-23.28,27.045-17.557,53.865-0.375,60.075c1.912,0.691,1.822,2.197,1.93,3.657     c0.068,0.924,0.093,2.146,0.09,3.665c-6.507,0.123-12.847,1.07-17.517,2.846c-9.562,3.634-13.698,11.129-17.632,22.18     c-5.431,15.258-2.111,18.699-7.237,19.679c-9.563,1.827-21.443,9.176-24.72,20.02c-4.105,13.58,3.048,27.88,12.892,37.922     c19.446,19.837,18.856,7.572-1.461,21.009C6.918,284.738,1.845,314.282,0.555,336.651c-0.876,15.178-0.747,38.531,0.622,48.227     c0.447,3.169,2.351,42.492,9.675,54.454c13.707,22.344,43.296,27.236,67.322,27.779c33.086,0.748,74.368-5.434,82.485-37.659     C164.322,414.905,169.549,371.804,166.392,333.769z M75.521,134.976c-13.457-10.846-5.644-35.936,6.741-50.708     c0.958-1.143,1.735-1.287,2.575-0.316c11.818,13.627,20.753,38.986,7.292,50.729C85.685,140.301,82.136,140.307,75.521,134.976z      M54.672,164.217c2.67-4.826,6.709-7.891,12.034-9.472c8.378-2.488,23.944-1.867,27.765-1.176     c5.582,1.011,11.843,3.344,14.986,8.065c11.149,16.75,11.104,38.391,11.594,41.282c1.964,11.56-46.101,26.295-73.083,6.327     c-2.02-1.495-2.92-3.491-2.988-6.018C44.761,195.162,47.478,177.224,54.672,164.217z M156.817,428.636     c-4.961,18.981-23.555,28.035-42.777,31.938c-34.68,7.043-93.781,3.208-102.846-31.126c-5.117-19.382-6.945-51.648-7.141-71.742     c-0.233-23.993,1.603-66.92,22.866-81.538c14.629-10.056,22.551-7.649,20.445-12.28c-1.08-2.376-4.007-2.493-13.22-10.805     c-23.576-21.266-24.022-48.653,5.279-55.716c4.398-1.059-1.237,7.844,4.695,13.515c16.277,15.558,57.061,16.72,76.697,0.779     c7.427-6.029,1.79-15.232,5.141-14.744c1.862,0.271,3.636,0.865,5.378,1.534c12.654,4.857,20.021,14.347,17.384,27.751     c-4.066,20.67-27.327,34.968-28.414,35.919c-2.038,1.785-1.737,3.942,0.823,4.821c12.643,4.341,22.524,8.949,29.063,20.367     c9.057,15.816,11.184,32.352,12.514,50.835C164.825,367.61,161.029,412.525,156.817,428.636z"/>
			<g>
				<path style="fill:#000E3F;" d="M83.445,379.399c-0.69,0-1.384-0.057-2.077-0.173c-8.359-1.397-12.684-10.514-13.163-18.395      c-0.066-1.069,0.75-1.99,1.819-2.055c1.045-0.052,1.989,0.748,2.055,1.82c0.389,6.395,3.663,13.755,9.927,14.802      c3.519,0.589,6.258-1.03,7.944-2.489c3.238-2.8,5.358-7.436,5.274-11.536c-0.022-1.072,0.83-1.958,1.901-1.98      c0.014,0,0.028-0.001,0.04-0.001c1.053,0,1.919,0.844,1.941,1.901c0.106,5.272-2.492,10.983-6.619,14.552      C89.795,378.174,86.647,379.399,83.445,379.399z"/>
			</g>
			<path style="fill:#000E3F;" d="M105.47,357.723c-0.194-4.155,3.901-8.126,8.144-8.054c4.883,0.083,7.964,4.641,7.885,7.94     C121.263,367.466,105.947,367.915,105.47,357.723z"/>
			<path style="fill:#000E3F;" d="M61.895,357.723c0.194-4.155-3.901-8.126-8.144-8.054c-4.884,0.083-7.965,4.641-7.886,7.94     C46.101,367.466,61.418,367.915,61.895,357.723z"/>
		</g>
	</g>
	<g>
		<g>
			<g>
				<path style="fill:#FFCF00;" d="M326.372,332.3c0-1.867-0.051-3.735,0.021-5.6c0.038-0.98,0.813-1.406,1.729-1.08      c3.347,1.19,17.43,10.172,25.904,20.011c15.216,17.665,13.327,37.585-11.888,52.986c-15.051,9.193-17.188,4.875-14.657,12.059      c4.472,12.695,10.333,24.302,3.033,32.456c-23.163,25.872-82.565,28.103-110.998,5.479c-13.01-10.352-9.643-17.314-2.01-38.581      c0.42-1.171,1.525-2.798-0.266-3.678c-3.665-1.802-12.789-4.445-23.486-13.035c-12.686-10.188-17.408-24.258-9.228-39.067      c6.211-11.244,17.845-20.3,28.837-26.918c1.811-1.091,3.925-2.492,4.304-0.409c0.211,1.16,0.25,2.345-0.052,3.479      c-0.399,1.497-0.261,3.015-0.384,4.522c-0.679,8.286,7.809,14.685,15.369,18.065c6.888,3.079,14.161,4.664,21.652,5.338      c19.265,1.735,15.683,1.684,28.587,0.577c8.265-0.709,16.476-1.678,24.342-4.559c8.923-3.268,20.294-10.326,19.266-19.596      c-0.09-0.808-0.013-1.633-0.013-2.451C326.414,332.3,326.393,332.3,326.372,332.3z"/>
				<g>
					<path style="fill:#FFCF00;" d="M268.912,147.053c1.915-2.021,3.505-2.13,5.266-0.052c11.502,13.58,20.42,36.767,8.943,50.463       c-0.275,0.328-0.907,0.516-1.362,0.494c-1.456-0.072-0.027-0.936-1.889-11.475c-1.07-6.06-6.123-19.308-10.544-14.526       c-5.835,6.311-8.073,15.06-6.711,22.818c0.154,0.874,1.967,7.281-0.727,5.06C247.91,188.314,256.513,160.138,268.912,147.053z"/>
				</g>
			</g>
			<g>
				<g>
					<path style="fill:#FFFFFF;" d="M281.752,194.366c0.672,4.429-6.386,7.531-8.703,7.909c-15.371,2.507-14.088-22.937-3.51-31.689       c2.802-2.319,5.45,1.235,7.21,4.399C279.906,180.663,281.254,186.851,281.752,194.366z"/>
				</g>
				<path style="fill:#FFFFFF;" d="M219.046,328.417c-0.267-7.126,0.996-14.202,0.734-21.333c-0.137-3.73-0.194-7.498,0.167-11.205      c0.563-5.772,0.83-42.442,1.987-54.175c0.164-1.658-2.36,0.069,46.276-24.253c1.958-0.979,2.965-1.684,4.588-0.889      c0.147,0.072,45.726,22.556,46.855,23.001c1.397,0.551,1.872,1.63,1.887,3.043c0.109,10.066,2.703,75.202,2.954,86.009      c0.092,3.937,4.672,14.212-13.027,22.439c-12.803,5.951-33.907,7.463-47.783,6.575c-16.207-1.037-34.717-3.297-43.763-16.764      c-0.735-1.094-0.9-2.372-0.885-3.69C219.07,334.256,219.046,331.336,219.046,328.417z"/>
				<g>
					<path style="fill:#FFFFFF;" d="M280.777,377.456c3.503,1.279,4.618,3.412,4.106,7.182c-2.833,20.845-25.039,18.145-25.877-1.66       c-0.099-2.343,0.939-4.02,3.137-5.035C267.478,375.481,275.562,375.552,280.777,377.456z"/>
				</g>
			</g>
			<path style="fill:#FD8A02;" d="M245.934,425.687c-11.009-4.423-16.222-8.555-21.714-14.315c-0.458-0.481-0.833-1.052-1.187-1.619     c-3.367-5.405,31.521,12.753,96.95-1.682C329.619,405.945,292.991,444.595,245.934,425.687z"/>
			<path style="opacity:0.75;fill:#FFFFFF;" d="M213.476,345.379c2.202,3.877-1.499,10.767-4.51,13.485     c-6.034,5.445-12.051,12.429-13.468,20.231c-0.938,5.16-4.583,4.011-5.585-0.966C184.846,352.97,208.109,335.929,213.476,345.379     z"/>
			<path style="opacity:0.5;fill:#FD8A02;" d="M343.078,336.675c-1.125-6.872,54,40.972-13.456,68.144     c-4.408,1.776-4.09,0.712,1.955,17.369c2.719,7.493,4.104,15.338-1.258,21.172c-25.789,28.059-87.755,25.451-110.244,5.358     c-0.155-0.139,0.026-0.489,0.263-0.465c1.915,0.19,19.591,6.23,42.206-4.861c21.465-10.526,24.833-25.627,30.165-37.227     c6.649-14.466,21.538-22.424,36.101-30.817c9.615-5.542,16.376-11.618,16.55-23.576     C345.496,342.343,343.535,339.467,343.078,336.675z"/>
			<g style="opacity:0.25;">
				<path style="fill:#000E3F;" d="M224.918,346.691c-1.877-1.495-3.254-3.329-4.615-5.212c-1.057-1.462-0.945-2.087,0.344-3.325      c12.557-12.058,30.221-10.138,47.345-14.863c44.726-12.339,26.494-56.059,43.603-78.474c1.914-2.508,4.762-4.532,5.768-5.015      c1.965-0.942,3.932,0.041,4.109,2.188c0.012,0.147,3.053,86.861,3.057,87.013c0.102,3.455,1.638,8.219-0.885,11.932      c-8.327,12.252-24.957,15.056-39.692,16.285C266.631,358.666,239.247,358.107,224.918,346.691z"/>
				<path style="fill:#000E3F;" d="M233.019,250.067c1.068-2.568,4.054-2.357,5.218-0.279c1.035,1.848,1.756,3.812,2.018,5.925      c1.019,8.205,2.26,16.389,2.251,24.688c0,0.35,2.081,13.954-1.791,26.646c-2.547,8.349-9.761,8.008-10.277-5.084      C230.159,294.869,230.873,255.229,233.019,250.067z"/>
			</g>
		</g>
		<g>
			<g>
				<g>
					<path style="fill:#000E3F;" d="M334.883,405.414c46.039-21.821,38.943-57.294-3.942-81.358c-2.096-1.176-3.889-1.73-3.765-4.07       c0.008-0.151-2.79-71.53-2.843-71.963c-0.736-6.077-3.441-10.767-9.15-13.546c-27.27-13.276-37.186-18.535-41.377-20.321       c-0.03-1.596-0.01-3.47-0.087-5.811c-0.087-2.681,2.039-2.97,4.453-4.297c20.654-11.364,13.677-40.41-2.78-58.996       c-3.211-3.626-4.762-3.617-7.921,0.053c-23.28,27.045-17.558,53.866-0.376,60.076c1.912,0.691,1.823,2.198,1.93,3.657       c0.092,1.233,0.109,2.953,0.079,5.297c-43.812,21.963-46.708,21.684-49.309,29.634c-2.192,6.707-0.999,16.004-1.908,29.59       c-0.536,8.016-0.106,16.079-0.73,24.121c-0.414,5.342-0.249,10.736-0.182,16.105c0.034,2.59-0.467,5.104-0.641,7.658       c-0.061,0.885-0.504,1.52-1.266,1.968c-52.069,30.673-47.293,65.488-1.467,84.429c2.698,1.116,1.64,0.36-2.557,13.189       c-2.768,8.462-4.369,15.839,0.042,22.514c5.6,8.475,17.224,14.882,26.798,18.184c16.153,5.57,26.466,4.32,34.002,5.641       c5.252-0.747,10.505-0.658,15.713-1.383c10.491-1.459,20.588-4.097,29.915-9.267c26.165-14.501,19.657-26.142,12.17-47.056       C329.036,407.648,329.717,407.862,334.883,405.414z M263.328,198.775c-13.457-10.845-5.644-35.936,6.741-50.708       c0.957-1.143,1.735-1.287,2.575-0.317c11.819,13.627,20.753,38.987,7.292,50.729       C273.493,204.099,269.943,204.106,263.328,198.775z M220.353,329.234c0.219-1.134,0.231-2.318,0.245-3.481       c0.032-2.801,0.01-5.603,0.01-8.405c-0.341-7.242,0.948-14.433,0.732-21.674c-0.111-3.731-0.176-7.493,0.168-11.201       c0.802-8.636,0.123-13.33,1.246-36.341c0.208-4.274,2.078-7.542,6.057-9.52c13.487-6.703,26.957-13.438,40.4-20.229       c1.657-0.838,3.008-0.696,4.602,0.093c11.509,5.695,23.046,11.329,34.582,16.969c5.954,2.911,9.765,3.484,11.444,9.331       c0.993,3.464,3.218,83.144,3.828,90.09c0.383,4.358-1.845,7.35-4.806,9.957c-7.611,6.698-19.341,9.575-29.515,10.642       c-5.851,0.614-18.248,2.24-24.736,0.914c-2.276-0.465-24.912,0.487-39.159-10.771c-2.073-1.638-5.424-5.929-5.372-8.339       C220.138,334.59,219.836,331.906,220.353,329.234z M325.265,408.35c0.254,0.933,4.896,11.586,7.005,21.258       c1.436,6.585-0.186,12.12-8.943,18.559c-28.287,20.797-79.955,19.459-105.161-2.286c-10.853-9.363-4.94-19.405,0.612-35.912       c1.653-4.915-0.469-4.313-8.886-8.171c-26.852-12.31-37.961-32.729-18.009-55.788c7.729-8.934,20.561-16.966,23.302-18.256       c0.731-0.344,1.158-0.132,1.154,0.642c-0.013,2.568,0.031,5.141-0.125,7.701c-0.4,6.558,5.974,12.577,11.679,15.834       c18.073,10.319,51.541,10.373,71.933,5.838c6.879-1.53,13.431-3.938,19.207-8.149c12.77-9.309,7.788-16.621,8.346-21.617       c0.159-1.416,1.593-0.625,2.816,0.11c11.444,6.876,20.548,13.764,27.588,24.795c5.38,8.431,6.215,19.942,1.158,28.298       c-6.617,10.935-17.611,17.103-29.638,22.474C327.331,404.562,324.403,405.191,325.265,408.35z"/>
				</g>
			</g>
			<g>
				<path style="fill:#000E3F;" d="M243.972,372.748c-3.508-0.012-6.911,3.371-7.017,6.977c-0.115,3.904,3.882,7.524,7.741,7.082      c3.412-0.391,6.39-3.516,6.425-6.932C251.161,376.06,247.851,372.761,243.972,372.748z"/>
			</g>
			<g>
				<path style="fill:#000E3F;" d="M300.029,372.748c-3.88,0.014-7.189,3.312-7.149,7.127c0.035,3.416,3.012,6.541,6.425,6.932      c3.859,0.442,7.856-3.178,7.74-7.082C306.939,376.119,303.537,372.735,300.029,372.748z"/>
			</g>
		</g>
	</g>
	<g>
		<path style="fill:#FD8A02;" d="M302.42,105.509c-2.322,2.483-7.024,5.483-11.476,15.879c-0.399,0.932-0.816,1.871-1.355,2.724    c-0.75,1.187-2.235,1.199-3.004-0.01c-1.739-2.731-1.656-6.946-7.522-14.5c-3.442-4.432-6.92-5.934-3.764-8.382    c7.867-6.102,10.903-15.641,12.397-18.134c0.645-1.076,2.063-1.099,2.794-0.094c0.784,1.078,1.156,2.359,1.601,3.601    c3.289,9.192,8.195,13.546,10.183,15.645C302.773,102.766,303.22,104.654,302.42,105.509z"/>
		<path style="fill:#FD8A02;" d="M365.319,187.462c-2.675,2.858-8.084,6.3-13.218,18.289c-0.46,1.073-0.94,2.155-1.56,3.137    c-0.864,1.368-2.575,1.381-3.46-0.011c-2.004-3.149-1.907-8.001-8.663-16.7c-3.965-5.105-7.97-6.835-4.335-9.654    c9.061-7.028,12.557-18.015,14.279-20.886c0.743-1.239,2.377-1.266,3.219-0.108c0.902,1.242,1.331,2.718,1.843,4.148    c3.795,10.608,9.466,15.631,11.729,18.019C365.726,184.303,366.242,186.477,365.319,187.462z"/>
		<path style="fill:#FD8A02;" d="M214.181,173.911c-0.558,0.596-1.124,1.192-1.739,1.726c-8.688,7.514-11.057,16.563-13.039,19.701    c-0.864,1.368-2.575,1.381-3.46-0.011c-0.617-0.97-1.069-2.08-1.418-3.184c-5.442-17.224-17.017-18.953-11.581-23.17    c9.061-7.027,12.557-18.015,14.279-20.886c0.743-1.24,2.377-1.266,3.219-0.108c0.902,1.242,1.331,2.717,1.843,4.148    c3.795,10.607,9.466,15.63,11.729,18.02C214.588,170.753,215.105,172.925,214.181,173.911z"/>
	</g>
</g>















</svg>
