<?xml version="1.0" encoding="UTF-8"?>
<!-- Generator: Adobe Illustrator 25.2.1, SVG Export Plug-In . SVG Version: 6.00 Build 0)  -->
<svg xmlns="http://www.w3.org/2000/svg" xmlns:xlink="http://www.w3.org/1999/xlink" version="1.1" id="Capa_1" x="0px" y="0px" viewBox="0 0 512 512" style="enable-background:new 0 0 512 512;" xml:space="preserve" width="512" height="512">
<g>
	<g>
		<g>
			<g>
				<path style="fill:#FFCF00;" d="M379.854,249.822c-2.435,6.178-6.504,10.867-12.352,14.057      c-56.816,31.043-165.282,56.498-241.169,49.504c-11.962-1.114-22.776-9.944-23.518-23.19      c-4.739-84.912-8.631-147.994-8.591-150.478c0.12-10.844,5.298-17.573,13.607-20.638      C170.48,95.908,239.295,83.28,305.563,78.049c4.264-0.336,8.545-0.197,12.584,1.827c9.178,4.547,11.375,14.008,12.721,17.631      c0.049,0.15,35.655,98.512,47.795,132.451C380.528,235.174,383.587,240.369,379.854,249.822z"/>
				<path style="fill:#FFCF00;" d="M418.947,349.335c0,9.086-7.374,16.459-16.459,16.459c-5.399,0-10.194-2.599-13.195-6.608      c-2.055-2.76-3.264-6.165-3.264-9.851c0-9.086,7.374-16.46,16.459-16.46c2.034,0,3.989,0.363,5.782,1.048      C414.495,336.26,418.947,342.284,418.947,349.335z"/>
			</g>
			<path style="fill:#007AF4;" d="M190.593,389.77c6.167-12.934,11.526-25.776,13.856-40.06c4.244-26.022-1.118-28.064-0.658-33.364     c0.245-2.825-0.668-2.112,2.357-3.714c5.12-2.711-3.005,0.938,67.589-13.45c6.62-1.349,18.991-4.994,22.445-2.78     c3.098,1.987,2.409,7.111,3.231,10.317c7.919,30.899,36.781,46.318,55.473,70.999c43.53,57.476-7.734,132.467-90.297,130.722     c-23.569-0.498-47.847-8.199-64.317-25.724C182.331,463.627,170.483,431.942,190.593,389.77z"/>
			<g>
				<path style="fill:#FFFFFF;" d="M303.118,224.067c1.975,14.39,3.235,32.771-0.589,44.27c-0.505,1.518-0.964,1.7-2.205,0.664      c-11.038-9.206-21.616-30.903-28.077-47.277c-19.85-50.309-25.49-104.785-20.828-123.484c0.449-1.799,1.268-1.931,2.567-0.517      c13.132,14.289,25.584,42.051,33.144,63.108C292.727,176.419,300.818,207.304,303.118,224.067z"/>
				<path style="fill:#FFFFFF;" d="M169.944,250.787c3.729,14.038,9.657,31.482,17.62,40.617c1.051,1.206,1.545,1.197,2.29-0.238      c6.632-12.752,8.023-36.849,7.668-54.449c-1.092-54.072-16.902-106.508-28.416-121.961c-1.108-1.487-1.915-1.293-2.568,0.513      c-6.603,18.249-7.383,48.665-6.235,71.009C161.151,202.817,165.6,234.433,169.944,250.787z"/>
			</g>
			<path style="opacity:0.5;fill:#FFFFFF;" d="M205.043,418.166c-14.824,2.16-6.566-18.435-4.364-24.62     c16.235-45.6,11.999-66.263,13.642-70.481c0.846-2.17,3.594-1.693,5.197,2.027C233.139,356.712,219.522,416.057,205.043,418.166z     "/>
			<g>
				<path style="fill:#FC09B2;" d="M252.449,239.755c0.771,14.889,0.405,33.813-4.752,45.306c-0.681,1.517-1.188,1.669-2.418,0.515      c-10.938-10.26-20.222-33.281-25.601-50.54c-16.528-53.028-17.481-109.257-10.757-128.062c0.647-1.81,1.535-1.883,2.791-0.337      c12.702,15.624,23.423,44.998,29.541,67.138C245.781,190.163,251.551,222.41,252.449,239.755z"/>
				<path style="fill:#FC09B2;" d="M352.732,209.03c2.363,13.854,4.163,31.592,0.833,42.84c-0.439,1.484-0.877,1.676-2.109,0.715      c-10.954-8.544-21.861-29.184-28.62-44.811c-20.769-48.012-27.942-100.52-24.03-118.76c0.377-1.755,1.164-1.909,2.464-0.584      c13.138,13.392,26.046,39.837,34.016,59.957C341.185,163.281,349.979,192.89,352.732,209.03z"/>
				<path style="fill:#FC09B2;" d="M118.369,256.051c3.164,13.693,8.346,30.752,15.756,39.846c0.978,1.2,1.455,1.208,2.222-0.154      c6.811-12.108,8.911-35.358,9.12-52.383c0.641-52.308-12.995-103.519-23.64-118.839c-1.024-1.474-1.81-1.313-2.498,0.411      c-6.955,17.423-8.664,46.8-8.256,68.438C111.375,209.388,114.683,240.098,118.369,256.051z"/>
				<g>
					<path style="fill:#FC09B2;" d="M316.089,417.538c6.215-0.582,13.432,1.908,14.896,8.687       c2.287,10.59-10.538,17.089-19.382,15.667C294.201,439.093,299.499,419.09,316.089,417.538z"/>
				</g>
				<g>
					<path style="fill:#FC09B2;" d="M232.674,433.301c-5.999,1.727-11.809,6.678-10.699,13.524       c1.735,10.695,16.048,12.065,23.763,7.513C260.918,445.382,248.686,428.692,232.674,433.301z"/>
				</g>
			</g>
			<path style="opacity:0.25;fill:#00328D;" d="M342.79,430.062c11.659-43.038-49.501-75.196-48.956-119.147     c0.051-4.103,0.651-11.883,2.53-15.506c0.077-0.148,0.403-0.192,0.624-0.228c1.214-0.192-1.033,6.803,6.76,21.929     c16.756,32.521,29.827,32.132,51.477,61.062c19.267,25.746,22.726,63.84-4.389,95.091     c-32.721,37.711-96.654,48.029-138.338,19.365c-3.538-2.433-3.868-2.805-3.057-4.221     C231.076,450.691,325.328,494.52,342.79,430.062z"/>
			<g style="opacity:0.5;">
				<path style="fill:#FD8A02;" d="M126.17,313.389c-4.202-0.367-15.657-4.433-13.53-6.634      c28.887-29.893,85.005-7.415,165.347-33.496c19.537-6.343,40.102-15.605,50.635-34.304c16.484-29.265-3.438-68.314-6.396-80.728      c-5.356-22.479-12.713-51.299-1.304-73.937c0.712-1.413,1.458-1.536,2.561-0.514c5.016,4.649,4.384,5.073,22.878,56.664      c5.352,14.93,34.372,94.867,34.629,95.795c2.367,8.565-1.967,21.164-12.93,27.308      C312.756,294.54,202.932,320.091,126.17,313.389z"/>
				<path style="fill:#FD8A02;" d="M418.947,349.335c0,9.086-7.374,16.459-16.459,16.459c-5.399,0-10.194-2.599-13.195-6.608      c17.728-1.954,21.254-15.049,18.977-25.263C414.495,336.26,418.947,342.284,418.947,349.335z"/>
			</g>
		</g>
		<g>
			<path style="fill:#000E3F;" d="M304.285,414.468c3.773-0.517,8.299-5.03,7.333-10.412c-0.748-4.165-5.008-7.819-10.597-7.052     C290.529,398.442,291.256,416.25,304.285,414.468z"/>
			<path style="fill:#000E3F;" d="M241.975,426.242c12.781-3.094,6.961-19.94-3.335-17.451c-5.483,1.326-8.116,6.282-7.292,10.433     C232.412,424.588,238.272,427.138,241.975,426.242z"/>
			<path style="fill:#000E3F;" d="M273.669,440.19c0.535,0,1.076-0.027,1.617-0.082c0.433-0.043,0.881-0.107,1.33-0.192     c4.242-0.802,8.06-3.289,10.756-7.006c3.205-4.417,4.369-10.03,3.195-15.4c-0.12-0.553-0.474-1.047-0.97-1.356     c-0.484-0.301-1.061-0.406-1.574-0.274c-1.153,0.252-1.887,1.393-1.635,2.545c0.915,4.178,0.012,8.543-2.477,11.976     c-2.261,3.114-5.562,5.102-9.056,5.455c-7.022,0.719-13.628-4.875-14.767-12.442c-0.177-1.164-1.257-1.976-2.43-1.796     c-0.545,0.077-1.052,0.382-1.391,0.837c-0.346,0.466-0.492,1.033-0.407,1.596C257.249,433.266,265.052,440.19,273.669,440.19z"/>
			<path style="fill:#000E3F;" d="M402.488,330.881c-5.54,0-10.516,2.438-13.881,6.326c-33.912-16.792-45.064-48.606-47.541-57.257     c8.89-3.71,18.602-8.222,28.502-13.721c10.461-5.809,18.421-19.849,13.638-33.288c-0.423-1.188-0.635-1.745-0.991-2.684     c-0.826-2.182-2.367-6.242-8.865-24.25c-9.129-25.306-16.278-45.184-21.907-60.835c-20.846-57.964-20.846-57.964-23.38-60.854     c-0.203-0.23-0.421-0.479-0.667-0.779c-7.929-9.622-16.701-8.925-23.746-8.364c-0.842,0.067-1.66,0.132-2.453,0.177     c-57.447,3.313-129.774,18.419-193.477,40.413c-12.987,4.484-17.114,15.855-16.646,25.001c0.077,1.486,0.921,15.899,2.087,35.846     c2.581,44.101,6.481,110.746,6.512,113.174c0.071,5.467,1.729,10.353,4.926,14.523c8.715,11.363,18.296,12.005,27.563,12.624     c26.532,1.775,55.46-0.27,65.057-1.76c2.41-0.373,3.307,0.238,3.937,2.745c2.591,10.295,2.197,14.947,1.7,20.836     c-0.057,0.67-0.116,1.357-0.171,2.07c-1.354,17.425-6.487,28.992-11.922,41.24c-4.338,9.777-8.826,19.886-11.576,33.562     c-3.705,18.407-1.241,36.425,7.124,52.107c8.615,16.147,22.987,28.713,41.565,36.34C240.7,509.339,254.458,512,268.51,512     c7.74,0,15.572-0.808,23.382-2.432c20.551-4.273,39.89-14.143,54.455-27.793c24.574-23.028,32.926-53.299,22.912-83.05     c-6.913-20.543-19.111-32.067-32.027-44.267c-13.805-13.042-28.08-26.527-36.199-52.195c-0.376-1.189-0.559-2.413-0.531-3.538     c0.012-0.462-0.047-0.934-0.104-1.39c-0.112-0.896-0.219-1.742,0.183-2.488c0.275-0.514,4.19-1.803,9.146-3.435     c6.578-2.167,16.166-5.332,27.303-9.807c2.935,9.912,14.771,41.939,49.1,59.189c-1.35,2.558-2.115,5.459-2.115,8.542     c0,10.194,8.28,18.474,18.474,18.474c10.173,0,18.474-8.28,18.474-18.474C420.962,339.161,412.661,330.881,402.488,330.881z      M301.019,314.833c9.003,19.537,21.143,31.127,32.883,42.336c12.524,11.957,24.354,23.251,31.212,43.08     c6.239,18.032,4.745,37.518-4.204,54.869c-9.835,19.071-27.915,34.393-52.289,44.308c-22.405,9.115-52.908,8.709-70.233,3.698     c-21.848-6.319-39.096-19.864-48.564-38.137c-9.272-17.896-10.352-39.391-3.042-60.523c3.262-9.43,6.447-16.991,9.256-23.662     c6.882-16.342,11.855-28.149,11.476-51.682c0.006-4.545-0.958-8.08-1.661-10.661c-0.541-1.988-0.932-3.423-0.468-4.004     c0.201-0.251,0.594-0.374,1.204-0.374c0.069,0,0.142,0.002,0.217,0.005c0.057,0.002,0.12,0.003,0.189,0.003     c6.772,0,68.663-11.603,81.707-16.468c1.468-0.548,3.071-0.841,4.621-1.124c0.478-0.088,0.954-0.175,1.428-0.27     c0.333-0.066,0.614-0.014,0.818,0.148c0.217,0.172,0.337,0.461,0.348,0.835C296.111,303.673,298.542,309.461,301.019,314.833z      M244.701,303.208c-44.826,8.859-87.992,11.985-118.43,8.579c-12.772-1.43-21.21-10.64-22.023-24.037     c-1.031-17.019-1.989-34.328-2.914-51.067c-0.635-11.486-1.271-22.973-1.934-34.458c-0.694-12.019-1.385-22.242-1.94-30.456     c-2.561-37.951-2.89-42.827,7.273-49.423c6.534-4.241,48.572-16.234,54.691-17.897c19.743-5.367,77.066-16.705,80.186-17.219     c28.511-4.708,54.15-6.862,59.778-7.075c0.871-0.033,1.904-0.134,2.998-0.241c1.718-0.168,3.718-0.364,5.849-0.364     c6.565,0,14.348,1.863,18.784,12.148c1.196,2.767,14.763,40.448,27.882,76.887c11.495,31.926,22.353,62.081,23.479,64.823     c4.315,10.52-0.879,23.358-11.822,29.224C335.131,279.48,291.855,293.891,244.701,303.208z M402.488,363.779     c-7.958,0-14.444-6.487-14.444-14.444c0-2.458,0.625-4.775,1.713-6.789c0.705-1.33,1.611-2.518,2.678-3.546     c2.599-2.538,6.145-4.09,10.053-4.09c7.958,0,14.445,6.467,14.445,14.425C416.933,357.293,410.446,363.779,402.488,363.779z"/>
		</g>
	</g>
	<g>
		<path style="fill:#FD8A02;" d="M201.377,73.378c-7.402-12.84-19.658-41.402-20.944-57.878c-0.618-7.918,5.3-14.839,13.219-15.456    c7.251-0.566,13.663,4.352,15.168,11.265c3.55,16.229-0.014,47.32-3.321,61.46C205.037,74.748,202.395,75.128,201.377,73.378z"/>
		<path style="fill:#FD8A02;" d="M233.307,67.387c0.1-11.799,3.211-36.347,8.975-48.174c2.77-5.684,9.624-8.046,15.308-5.275    c5.205,2.537,7.622,8.499,5.866,13.85c-4.111,12.571-19.1,32.473-27.074,40.844C235.267,69.804,233.3,68.999,233.307,67.387z"/>
		<path style="fill:#FD8A02;" d="M173.811,80.546c-3.608-11.234-13.886-33.743-22.91-43.317c-4.337-4.602-11.583-4.816-16.185-0.479    c-4.214,3.971-4.746,10.383-1.476,14.968c7.667,10.777,27.901,25.314,38.006,30.932C172.66,83.436,174.298,82.082,173.811,80.546z    "/>
	</g>
</g>















</svg>
