<?xml version="1.0" encoding="UTF-8"?>
<!-- Generator: Adobe Illustrator 25.2.1, SVG Export Plug-In . SVG Version: 6.00 Build 0)  -->
<svg xmlns="http://www.w3.org/2000/svg" xmlns:xlink="http://www.w3.org/1999/xlink" version="1.1" id="Capa_1" x="0px" y="0px" viewBox="0 0 512 512" style="enable-background:new 0 0 512 512;" xml:space="preserve" width="512" height="512">
<g>
	<g>
		<g>
			<g>
				<path style="fill:#00D5FE;" d="M142.671,193.715c11.056-28.561,15.319-30.61,15.71-32.318c0.158-0.691-0.407-0.97-0.958-0.553      c-2.052,1.551-7.709,12.725-9.27,16.136c-16.471,35.989,0.031,16.086-29.986,22.708c-20.391,4.499-18.99,11.367-21.745,3.557      c-8.492-24.075-7.966-30.504-8.914-35.154c-0.132-0.648-1.089-0.579-1.089,0.065c0.001,5.637,2.355,14.91,3.854,20.209      c3.216,11.366,27.108,62.887,13.62,110.26c-0.865,3.039-2.507,5.361-5.229,7.213c-9.946,6.767-20.905,10.188-32.859,10.714      c-2.786,0.123-5.44-0.488-8.066-1.213c-5.211-1.44-7.698-13.294-8.615-18.603c-1.038-6.007-2.183-10.681-6.798-16.028      c-30.296-35.104-13.431-123.929,77.676-173.91c30.372-16.662,66.784-27.692,101.654-22.607c1.372,0.2,1.797,0.616,1.62,1.891      c-2.259,16.28,7.501,37.689,27.663,50.524c36.19,23.036,84.66,10.095,96.542-23.359c0.526-1.481,0.818-1.561,2.442-1.062      c27.495,8.455,56.941,33.545,67.51,52.909c11.251,20.612,28.727,64.686,41.445,120.185      c8.031,35.042,17.129,96.434,4.437,130.087c-1.905,5.052-11.563,9.053-16.701,10.622c-16.178,4.94-24.566,2.518-31.277,0.919      c-2.839-0.677-7.098-7.713-8.501-10.524c-5.481-10.986-3.902-13.146-6.464-16.742c-16.625-23.333-34.317-82.467-28.305-114.69      c3.57-19.139,8.136-65.075,3.618-76.714c-0.102-0.263-0.732,0.018-0.74,0.206c-0.03,0.644-0.051,1.3,0.038,1.936      c9.042,65.03-38.994,224.873-60.032,242.205c-5.961,4.911-11.477,4.28-37.663,1.676c-8.919-0.886-30.737-4.591-33.664-4.826      c-4.049-0.325-13.341-3.114-16.739-3.021c-0.534,0.015-1.102-0.109-1.605-0.298c-8.997-3.379-32.504-3.79-98.56-27.303      c-9.841-3.503-17.102-6.58-18.348-19.067c-3.256-32.626,6.005-91.714,6.023-91.9      C115.647,294.869,126.723,234.913,142.671,193.715z"/>
				<path style="fill:#00D5FE;" d="M254.052,136.896c-54.923-33.097-29.612-104.269,44.68-84.854      c27.573,7.206,50.573,23.868,49.049,50.816C345.736,139.015,293.892,160.904,254.052,136.896z M288.995,111.074      c10.095,0.037,18.434-3.899,25.185-11.281c3.529-3.86,7.843-12.826,15.203-18.732c0.151-0.121,0.277-0.375,0.269-0.561      c-0.007-0.154-0.262-0.442-0.35-0.422c-5.012,1.135-14.101,17.653-18.956,21.686c-9.834,8.168-20.765,10.419-32.638,5.348      c-22.206-9.486-16.469-31.074-23.387-43.069c-0.211-0.367-0.451-0.864-0.956-0.719c-0.568,0.163-0.394,0.684-0.294,1.107      c0.05,0.212,0.101,0.431,0.199,0.622c3.726,7.257,4.157,17.631,5.78,22.741C263.409,101.513,277.098,111.029,288.995,111.074z"/>
			</g>
			<g>
				<path style="fill:#00328D;" d="M330.965,424.746c-1.363,3.391-6.176,13.949-9.418,19.673c-0.15,0.249-0.296,0.481-0.424,0.716      c-0.098,0.186-0.21,0.35-0.304,0.517c-0.09,0.15-0.179,0.299-0.287,0.445c-0.267,0.431-0.533,0.862-0.809,1.252      c-0.146,0.231-0.306,0.441-0.448,0.654c-1.855,2.564-4.008,4.685-6.539,6.136c-0.04,0.01-0.062,0.024-0.084,0.038      c-2.069,1.159-4.396,1.864-7.009,1.996c-0.285,0.011-0.589,0.019-0.892,0.026c-0.058,0.006-0.117,0.012-0.174,0.018      c-2.926,0.099-6.407-0.019-10.217-0.268c-6.967-0.466-15.018-1.4-22.637-2.406c-13.636-1.844-25.877-3.942-28.1-4.119      c-4.818-0.38-12.936-3.12-16.732-3.008c-0.531,0.013-1.106-0.116-1.611-0.304c-5.552-2.072-2.208,0.43-49.008-11.55      c-9.877-2.549-27.268-7.836-40.949-12.594c-0.333-0.112-0.666-0.225-1.013-0.358c-2.711-0.946-5.239-1.87-7.533-2.742      c-0.085-0.038-0.171-0.076-0.261-0.096c-3.321-1.252-6.078-2.416-8.034-3.363c-0.172-0.076-0.326-0.149-0.475-0.238      c-0.321-0.166-0.61-0.306-0.859-0.457c-0.173-0.097-0.322-0.225-0.49-0.328c-0.492-0.303-0.966-0.616-1.412-0.946      c-0.309-0.22-0.614-0.458-0.875-0.724c-0.7-0.666-1.351-1.377-1.934-2.149c-0.018-0.004-0.014-0.022-0.014-0.022      c-2.363-3.093-3.661-6.985-4.04-10.766c-0.801-7.967-0.691-20.256-0.439-25.178c0.126-2.084,0.666-2.133,5.552-2.397      c26.752-1.407,62.939,1.542,74.086,3.47c0.216,0.048,26.707,3.769,34.492,5.888c1.708,0.458,10.277,2.111,22.116,5.325      c6.882,1.86,14.874,4.233,23.261,7.203c19.342,6.855,43.793,15.814,62.012,26.17      C331.87,421.629,332.025,422.116,330.965,424.746z"/>
				<path style="fill:#00328D;" d="M463.706,414.436c-0.853,2.33-2.318,4.135-4.365,5.543c-9.203,6.327-22.925,9.438-33.965,8.867      c-3.415-0.177-6.655-1.149-9.943-1.91c-1.207-0.279-2.064-1.178-2.876-2.077c-6.16-6.817-8.993-15.614-11.219-23.72      c-0.244-0.888-0.007-1.431,0.662-1.971c16.86-13.615,44.716-21.838,64.808-20.721c2.536,0.141,2.676,0.31,2.664,2.973      c-0.002,0.552-0.354,6.333-1.174,13.339C467.93,397.908,465.999,408.176,463.706,414.436z"/>
				<path style="fill:#00328D;" d="M105.373,292.645c-1.364,5.29-1.851,9.592-5.418,12.257      c-9.188,6.863-21.511,11.245-34.147,11.656c-2.783,0.09-5.431-0.495-8.056-1.214c-5.038-1.381-7.557-12.45-8.447-17.601      c-1.957-11.321-4.212-11.096-0.903-12.974c16.173-9.179,38.865-17.355,57.107-16.99c1.666,0.033,2.205,0.49,2.166,2.145      c-0.084,3.593-0.17,7.195-0.496,10.772C106.813,284.706,106.4,288.725,105.373,292.645z"/>
				<path style="fill:#00328D;" d="M252.965,92.24c1.207,0.647,0.683,1.927,0.094,3.175c-8.542,18.09-4.57,18.951-6.965,23.585      c-1.47,2.845-4.784,1.843-5.09-0.864C240.457,113.289,248.68,89.947,252.965,92.24z"/>
				<path style="fill:#00328D;" d="M319.452,131.495c-0.611,2.407-2.473,5.557-4.835,4.758c-4.23-1.43,0.67-9.831,0.891-12.554      c0.325-4,1.128-7.968,0.818-12.012c-0.126-1.648-0.275-5.257,1.374-5.223c1.234,0.025,1.605,1.028,1.918,1.932      C323.001,118.171,320.811,126.146,319.452,131.495z"/>
				<path style="fill:#00328D;" d="M331.566,92.145c-0.56-1.508-1.124-2.659-0.143-3.293c0.526-0.339,1.08-0.257,1.526,0.09      c7.165,5.577,6.118,27.302,1.717,31.292c-1.576,1.429-3.783,0.297-3.711-1.657C331.075,115.38,335.776,103.49,331.566,92.145z"/>
				<path style="fill:#00328D;" d="M240.239,74.085c1.358-1.66,4.504-3.981,6.456-4.137c1.086-0.087,1.86,1.136,1.122,2.007      c-2.43,2.871-5.405,4.618-8.841,13.916c-0.602,1.629-0.891,3.359-1.663,4.945c-0.483,0.99-0.415,2.114-0.446,3.21      c-0.209,7.29-6.823,6.581-5.253-0.465C233.069,87.022,234.358,81.27,240.239,74.085z"/>
				<path style="fill:#00328D;" d="M259.302,111.673c0.748-1.833,3.353-6.394,5.29-5.396c1.319,0.679,0.859,2.354,0.311,3.828      c-4.49,12.097-3.712,19.658-4.031,20.999c-0.578,2.428-4.014,2.714-4.805,0.185      C254.364,125.835,257.122,117.014,259.302,111.673z"/>
				<path style="fill:#00328D;" d="M295.807,141.373c-4.201-2.064,1.609-4.962,3.423-21.485c0.165-1.506,0.485-2.998,0.794-4.484      c0.28-1.345,2.176-2.306,3.354,2.027C305.391,124.823,300.655,143.755,295.807,141.373z"/>
				<path style="fill:#00328D;" d="M276.417,128.111c0.452-2.022,0.961-4.034,1.342-6.069c0.385-2.062,1.409-3.887,2.034-5.857      c0.541-1.705,2.968-2.025,3.335-0.257c0.9,4.337-2.116,15.662-3.267,20.891c-1.106,5.026-6.272,3.941-5.22-0.725      c0.599-2.659,1.191-5.319,1.787-7.979C276.424,128.113,276.42,128.112,276.417,128.111z"/>
			</g>
			<g>
				<path style="fill:#FC09B2;" d="M212.033,235.63c13.467,3.065,17.52,16.773,7.334,23.109c-9.785,6.086-24.36-0.127-25.137-11.072      C193.724,240.538,201.259,233.688,212.033,235.63z"/>
				<path style="fill:#FC09B2;" d="M280.704,256.582c6.776-5.489,16.631-3.625,22.238,1.593c9.558,8.896,2.403,22.035-11.635,20.845      C278.893,277.966,271.043,264.407,280.704,256.582z"/>
			</g>
			<g>
				<path style="fill:#00D5FE;" d="M226.934,433.106c-1.579,2.33-4.896,1.285-4.955-1.337c-0.14-6.282,9.127-30.8,12.736-38.189      c0.417-0.853,0.987-1.786,2.188-1.634c1.968,0.248,1.12,4.338,0.718,6.293C236.544,403.47,230.137,428.378,226.934,433.106z"/>
				<path style="fill:#00D5FE;" d="M205.257,422.795c-0.536,2.393-0.827,4.299-1.565,5.287c-1.909,2.557-5.552,1.083-5.078-3.838      c1.309-13.583,0.804-9.593,3.15-23.621c1.792-10.715,1.662-10.44,3.521-14.183c0.673-1.355,2.485-1.013,2.674,0.302      c1.119,7.78-1.221,29.109-2.772,36.038C205.212,422.785,205.234,422.79,205.257,422.795z"/>
				<path style="fill:#00D5FE;" d="M182.424,420.151c-0.335,0.971-0.557,1.941-0.996,2.801c-1.093,2.141-4.12,1.846-4.571-0.67      c-0.151-0.839-0.143-34.079,2.342-38.606c1.399-2.548,4.037-1.293,4.175,0.656c0.356,4.995,0.54,6.218-0.289,28.052      C182.987,414.989,182.65,417.584,182.424,420.151z"/>
				<path style="fill:#00D5FE;" d="M250.106,435.72c-0.88,2.03-2.074,3.955-4.098,3.449c-2.967-0.741-1.044-6.778-0.034-9.208      c11.039-26.549,12.706-31.415,15.511-30.157C265.244,401.49,260.205,412.43,250.106,435.72z"/>
				<path style="fill:#00D5FE;" d="M273.844,444.054c-2.33,4.13-7.188,2.064-4.72-2.797c2.235-4.402,15.665-35.406,19.12-33.214      c1.249,0.792,0.944,2.066,0.859,3.243C288.912,413.92,279.41,434.186,273.844,444.054z"/>
				<path style="fill:#00D5FE;" d="M156.969,418.482c-0.744,2.96-3.984,3.133-4.785,0.598c-1.6-5.066-0.871-6.534-1.243-27.36      c-0.184-10.341,0.504-11.273,1.416-12.472C157.676,372.256,157.155,409.647,156.969,418.482z"/>
				<path style="fill:#00D5FE;" d="M127.159,411.581c-0.267-1.461-1.09-30.145,0.119-33.639c0.595-1.718,3.04-2.312,3.951-0.121      c1.832,4.406,1.636,26.027,1.502,30.98C132.542,415.76,127.734,414.729,127.159,411.581z"/>
				<path style="fill:#00D5FE;" d="M312.146,420.209c-4.945,11.308-0.598,1.845-12.198,26.428c-3.186,6.752-8.255,3.954-5.306-2.697      c3.42-7.713,8.001-17.493,12.107-24.292c1.166-1.931,2.573-4.352,4.501-3.316c1.469,0.789,1.062,2.349,0.735,3.814      C312.039,420.165,312.093,420.187,312.146,420.209z"/>
				<path style="fill:#00D5FE;" d="M447.069,413.73c-0.946-8.467-3.935-19.73-4.44-24.717c-0.225-2.224,2.327-2.97,3.159-1.679      c2.045,3.175,7.255,21.225,7.328,26.642C453.158,417.052,447.737,419.709,447.069,413.73z"/>
				<path style="fill:#00D5FE;" d="M65.699,282.861c0.97,1.577,2.068,3.11,2.793,4.798c2.068,4.813,3.842,9.742,4.938,14.881      c0.554,2.598,0.972,5.552-1.573,6.261c-2.192,0.61-3.316-1.682-3.957-3.878c-1.081-3.707-6.347-20.318-5.081-22.487      C63.536,281.205,64.961,281.664,65.699,282.861z"/>
				<path style="fill:#00D5FE;" d="M86.188,298.799c-3.276-18.961-3.358-18.483-3.545-21.252c-0.163-2.405,5.1-7.462,9.258,20.416      C92.613,302.736,87.239,304.882,86.188,298.799z"/>
				<path style="fill:#00D5FE;" d="M428.491,420.43c-1.699-2.927-6.481-18.484-7.63-22.953c-0.447-1.739-0.882-3.068,0.29-3.545      c1.092-0.444,1.749,0.128,2.37,1.149c3.717,6.104,8.678,20.377,9.089,24.113C432.847,421.362,429.626,422.387,428.491,420.43z"/>
			</g>
			<g style="opacity:0.25;">
				<path style="fill:#00328D;" d="M112.435,410.567c0.583,0.772,1.234,1.483,1.934,2.149c-0.62-0.516-1.174-1.073-1.622-1.683      C112.612,410.871,112.515,410.717,112.435,410.567z"/>
				<path style="fill:#00328D;" d="M118.48,415.408c0.608,0.318,1.276,0.592,1.92,0.885      C119.705,415.985,119.049,415.686,118.48,415.408z"/>
				<path style="fill:#00328D;" d="M125.974,418.574c-1.867-0.682-3.756-1.451-5.574-2.281      C121.97,416.99,123.831,417.755,125.974,418.574z"/>
				<path style="fill:#00328D;" d="M243.623,449.423c2.223,0.177,14.409,2.263,28.009,4.098c-0.443-0.042-0.904-0.089-1.365-0.135      c-44.428-4.548-91.017-15.367-134.945-31.419c13.681,4.758,31.073,10.045,40.949,12.594c46.8,11.98,43.457,9.478,49.008,11.55      c0.505,0.188,1.079,0.316,1.611,0.304C230.688,446.303,238.805,449.043,243.623,449.423z"/>
				<path style="fill:#00328D;" d="M294.842,455.98c3.627,0.227,6.941,0.327,9.734,0.236      C301.818,456.409,298.636,456.301,294.842,455.98z"/>
				<path style="fill:#00328D;" d="M312.735,454.138c2.209-1.278,4.134-3.054,5.84-5.199      C316.785,451.292,314.899,452.982,312.735,454.138z"/>
				<path style="fill:#00328D;" d="M330.965,424.746c1.06-2.629,0.904-3.116-1.505-4.485c-18.219-10.356-42.67-19.315-62.012-26.17      c-8.387-2.97-16.379-5.343-23.261-7.203c13.31-0.831,24.962-1.75,33.539-3.169c33.8-5.6,41.308-33.846,51.061-64.456      c5.387-16.917,4.181-33.271,18.234-70.877c15.998-42.847,31.323-42.736,28.933-41.159c-1.48,0.97-1.181,2.413-0.924,3.791      c8.711,47.791-26.922,187.752-53.147,232.817C325.115,437.994,329.649,428.015,330.965,424.746z"/>
				<path style="fill:#00328D;" d="M260.107,86.251c-2.158-8.489-1.859-14.45-6.025-22.707c-0.542-1.074-0.199-1.684,0.94-1.826      c2.217-0.275,4.383-0.005,6.411,0.915c11.899,5.4,12.304,18.254,17.207,24.206c6.306,7.654,14.707,6.864,20.925,2.05      c6.284-4.865,14.779-16.216,27.184-11.908c3.477,1.208,3.347,2.107,1.278,3.615c-8.491,6.19-11.459,17.099-20.342,23.312      C290.389,116.008,265.749,108.454,260.107,86.251z"/>
				<path style="fill:#00328D;" d="M96.63,201.225c6.15-21.019,35.977-41.822,57.954-42.684c5.42-0.213,4.868,1.752,4.144,1.83      c-1.677,0.179-2.297,1.518-3.039,2.71c-3.462,5.561-6.522,11.329-9.106,17.357c-13.261,30.927-0.301,12.953-28.882,19.356      c-17.763,3.98-18.451,9.557-20.321,5.757C96.648,204.058,96.029,202.535,96.63,201.225z"/>
				<path style="fill:#00328D;" d="M96.43,208.108c0.832,0.193,1.233,2.043,0.546,1.912c-0.62-0.118-1.16-1.301-0.812-1.773      C96.218,208.175,96.34,208.153,96.43,208.108z"/>
				<path style="fill:#00328D;" d="M377.075,211.404c-0.094,0.004-0.216,0.045-0.276,0.002c-0.281-0.201,0-0.784,0.297-0.29      C377.135,211.184,377.084,211.307,377.075,211.404z"/>
			</g>
			<g>
				<path style="fill:#FFFFFF;" d="M367.809,217.495c-4.078-1.784-8.133-3.598-12.173-5.428L343.3,207.06l-12.454-4.667      l-12.602-4.233c-16.893-5.355-34.056-9.824-51.422-13.334c-17.353-3.583-34.899-6.204-52.518-8.236l-13.236-1.368l-13.27-1.066      l-13.292-0.898c-4.437-0.194-8.875-0.412-13.316-0.667l-0.034-0.002c-0.804-0.046-1.418-0.735-1.372-1.539      c0.044-0.766,0.678-1.361,1.433-1.374c4.466-0.068,8.936-0.115,13.405-0.108l13.411,0.256l13.399,0.695l13.385,1.015      c17.834,1.57,35.579,4.237,53.124,7.89c17.526,3.73,34.867,8.438,51.732,14.512l12.564,4.767l12.38,5.211l12.118,5.78      c3.973,2.06,7.917,4.173,11.846,6.295c0.411,0.222,0.564,0.736,0.342,1.146c-0.211,0.389-0.682,0.547-1.08,0.374      L367.809,217.495z"/>
				<path style="fill:#FFFFFF;" d="M340.694,370.811c-4.342-1.913-8.661-3.857-12.968-5.817l-13.145-5.363l-13.276-4.994      l-13.436-4.531c-18.01-5.733-36.315-10.506-54.836-14.256c-18.507-3.822-37.221-6.618-56.013-8.769l-14.117-1.447l-14.153-1.124      l-14.176-0.937c-4.731-0.2-9.464-0.424-14.2-0.685l-0.033-0.001c-0.804-0.045-1.42-0.732-1.375-1.536      c0.042-0.769,0.678-1.366,1.437-1.377c4.76-0.061,9.524-0.103,14.29-0.089l14.293,0.294l14.283,0.753l14.266,1.093      c19.007,1.689,37.92,4.532,56.62,8.424c18.681,3.969,37.164,8.981,55.146,15.434l13.397,5.065l13.202,5.537l12.928,6.137      c4.238,2.189,8.446,4.431,12.64,6.684c0.412,0.222,0.566,0.734,0.345,1.146c-0.21,0.391-0.684,0.55-1.083,0.375L340.694,370.811      z"/>
				<path style="fill:#FFFFFF;" d="M355.241,322.356c-4.479-1.98-8.934-3.991-13.378-6.016l-13.562-5.547l-13.7-5.163l-13.864-4.684      c-18.586-5.928-37.479-10.857-56.596-14.731c-19.103-3.946-38.418-6.832-57.816-9.045l-14.571-1.488l-14.607-1.154      l-14.631-0.956c-4.883-0.204-9.769-0.43-14.657-0.694l-0.033-0.002c-0.804-0.044-1.42-0.73-1.377-1.534      c0.041-0.77,0.678-1.368,1.438-1.379c4.912-0.058,9.829-0.097,14.745-0.079l14.75,0.313l14.737,0.784l14.72,1.134      c19.612,1.751,39.128,4.683,58.422,8.699c19.276,4.093,38.348,9.262,56.906,15.909l13.827,5.219l13.626,5.705l13.345,6.321      c4.375,2.255,8.719,4.564,13.049,6.883c0.412,0.221,0.567,0.733,0.346,1.145c-0.209,0.392-0.684,0.551-1.084,0.376      L355.241,322.356z"/>
				<path style="fill:#FFFFFF;" d="M126.626,118.318c-2.921,5.857-5.674,11.715-8.119,17.687c-2.425,5.976-4.607,12.032-6.41,18.198      c-1.86,6.149-3.343,12.404-4.585,18.716c-1.221,6.319-2.131,12.703-2.917,19.163c-0.096,0.803-0.824,1.376-1.627,1.28      c-0.709-0.085-1.239-0.667-1.287-1.355c-0.447-6.63-0.114-13.313,0.781-19.915c0.876-6.61,2.384-13.134,4.361-19.505      c2.033-6.353,4.531-12.56,7.603-18.469c3.051-5.914,6.608-11.565,10.778-16.716c0.296-0.365,0.832-0.422,1.197-0.126      C126.716,117.531,126.8,117.968,126.626,118.318z"/>
				<path style="fill:#FFFFFF;" d="M206.247,94.346l-11.608,15.298c-3.794,5.123-7.544,10.261-11.134,15.508      c-3.638,5.213-7.12,10.53-10.567,15.879l-10.197,16.211c-0.431,0.684-1.335,0.891-2.019,0.46      c-0.605-0.38-0.834-1.132-0.584-1.773c2.359-6.046,5.232-11.875,8.41-17.53c3.162-5.667,6.691-11.125,10.444-16.42      c3.802-5.26,7.825-10.361,12.166-15.181c4.323-4.831,8.907-9.43,13.861-13.614c0.358-0.304,0.896-0.259,1.199,0.099      C206.481,93.592,206.482,94.036,206.247,94.346z"/>
				<path style="fill:#FFFFFF;" d="M361.495,126.406c2.011,6.111,3.812,12.254,5.496,18.443c1.704,6.184,3.214,12.429,4.563,18.729      c1.289,6.311,2.414,12.68,3.097,19.122c0.704,6.434,1.037,12.937,0.663,19.421c-0.047,0.807-0.739,1.424-1.547,1.377      c-0.711-0.041-1.275-0.587-1.366-1.268c-0.857-6.317-1.769-12.578-2.82-18.83c-1.07-6.247-2.206-12.491-3.435-18.737      c-1.172-6.258-2.441-12.517-3.543-18.83c-1.121-6.307-2.151-12.656-2.765-19.082c-0.044-0.468,0.298-0.884,0.767-0.928      C361.008,125.786,361.373,126.036,361.495,126.406z"/>
				<path style="fill:#FFFFFF;" d="M452.889,308.76c-6.112,0.769-12.121,1.716-18.039,3.013c-5.91,1.318-11.735,2.912-17.42,4.912      c-5.702,1.944-11.26,4.287-16.702,6.894c-5.436,2.628-10.72,5.579-15.969,8.72c-0.693,0.417-1.593,0.194-2.01-0.499      c-0.366-0.608-0.236-1.377,0.268-1.838c4.64-4.232,9.844-7.846,15.344-10.921c5.495-3.096,11.323-5.594,17.309-7.585      c6.006-1.934,12.176-3.365,18.425-4.116c6.241-0.771,12.557-0.935,18.778-0.272c0.468,0.05,0.807,0.469,0.757,0.937      C453.589,308.406,453.273,308.712,452.889,308.76z"/>
				<path style="fill:#FFFFFF;" d="M463.989,355.077c-6.228,0.325-12.35,0.961-18.371,2.056c-6.014,1.115-11.934,2.616-17.679,4.619      c-5.764,1.947-11.348,4.39-16.76,7.188c-5.407,2.819-10.601,6.051-15.682,9.577c-0.663,0.464-1.576,0.302-2.039-0.361      c-0.407-0.583-0.328-1.361,0.145-1.855c4.431-4.599,9.567-8.53,15.073-11.826c5.502-3.318,11.414-5.945,17.518-7.957      c6.122-1.954,12.442-3.299,18.828-3.843c6.376-0.564,12.816-0.401,19.074,0.713c0.463,0.082,0.772,0.525,0.69,0.988      C464.714,354.774,464.375,355.057,463.989,355.077z"/>
				<path style="fill:#FFFFFF;" d="M443.091,259.237c-5.736,0.257-11.364,0.785-16.904,1.736c-5.532,0.971-10.98,2.29-16.269,4.077      c-5.308,1.731-10.454,3.923-15.449,6.437c-4.989,2.536-9.788,5.452-14.504,8.633c-0.67,0.455-1.581,0.281-2.036-0.388      c-0.395-0.581-0.311-1.348,0.153-1.837c4.072-4.259,8.823-7.878,13.921-10.892c5.093-3.036,10.573-5.412,16.227-7.205      c5.672-1.736,11.523-2.895,17.423-3.291c5.892-0.416,11.832-0.14,17.574,1.043c0.461,0.095,0.758,0.546,0.663,1.007      C443.81,258.947,443.472,259.22,443.091,259.237z"/>
				<path style="fill:#FFFFFF;" d="M96.226,223.527c-5.437-0.133-10.772,0.106-16.021,0.84c-5.241,0.754-10.395,1.929-15.371,3.628      c-4.994,1.645-9.803,3.809-14.414,6.35c-4.607,2.563-8.974,5.558-13.192,8.89c-0.633,0.505-1.556,0.402-2.061-0.231      c-0.434-0.545-0.413-1.31,0.003-1.833c3.52-4.387,7.856-8.132,12.608-11.21c4.748-3.101,9.954-5.487,15.355-7.214      c5.42-1.671,11.043-2.691,16.693-2.862c5.639-0.193,11.306,0.396,16.665,1.97c0.453,0.133,0.711,0.607,0.579,1.059      C96.957,223.294,96.602,223.537,96.226,223.527z"/>
				<path style="fill:#FFFFFF;" d="M428.118,211.852c-3.698,0.35-7.29,0.693-10.841,1.204c-3.545,0.532-7.047,1.158-10.492,2.02      c-3.457,0.804-6.851,1.838-10.227,2.968c-3.373,1.152-6.696,2.464-10.107,3.802l-0.01,0.004      c-0.759,0.298-1.616-0.076-1.914-0.835c-0.236-0.601-0.048-1.266,0.417-1.663c2.912-2.483,6.227-4.466,9.712-6.059      c3.483-1.614,7.166-2.776,10.915-3.597c3.762-0.764,7.594-1.193,11.422-1.127c3.822,0.046,7.64,0.514,11.293,1.6      c0.456,0.136,0.716,0.615,0.58,1.071C428.763,211.586,428.456,211.819,428.118,211.852z"/>
				<path style="fill:#FFFFFF;" d="M83.097,178.503l-9.372,1.225c-3.067,0.453-6.101,0.92-9.093,1.557      c-3.004,0.579-5.962,1.322-8.918,2.112c-2.954,0.811-5.876,1.734-8.898,2.653l-0.019,0.005c-0.783,0.239-1.612-0.204-1.85-0.987      c-0.181-0.595,0.032-1.217,0.487-1.585c2.595-2.094,5.549-3.688,8.628-4.93c3.076-1.264,6.305-2.114,9.567-2.693      c3.274-0.52,6.585-0.776,9.883-0.625c3.294,0.131,6.575,0.595,9.728,1.582c0.456,0.142,0.712,0.627,0.571,1.084      C83.709,178.234,83.421,178.46,83.097,178.503z"/>
				<path style="fill:#FFFFFF;" d="M408.081,163.727c-2.698,0.717-5.289,1.344-7.837,2.059c-2.54,0.735-5.043,1.485-7.496,2.385      c-2.471,0.843-4.887,1.831-7.324,2.827c-2.43,1.017-4.845,2.106-7.4,3.123l-0.016,0.007c-0.766,0.305-1.634-0.069-1.939-0.834      c-0.22-0.552-0.086-1.159,0.293-1.568c1.963-2.113,4.281-3.846,6.76-5.3c2.474-1.474,5.144-2.607,7.891-3.493      c2.765-0.829,5.61-1.416,8.492-1.584c2.874-0.189,5.778-0.032,8.576,0.685c0.468,0.12,0.749,0.595,0.63,1.062      C408.631,163.414,408.376,163.647,408.081,163.727z"/>
			</g>
			<g>
				<path style="fill:#00328D;" d="M344.325,232.01c0.968-0.432,3.19-0.475,4.253-0.38c1.09,0.096,1.156,0.235,1.317-0.004      c0.876-1.32,4.356-4.68,5.382-3.377c0.928,1.185,0.738,4.468,0.405,5.9c-0.131,0.535,0.982,0.517,2.859,3.443      c1.063,1.638,0.554,1.93-2.398,1.929c-0.676-0.015-2.034-0.066-2.483-0.176c-0.543-0.14-0.389,0.414-2.226,2.081      c-3.054,2.782-3.834,1.847-4.062-0.329c-0.142-1.372-0.085-2.737,0.183-4.092c0.088-0.449-0.212-0.266-1.632-1.816      C345.301,234.51,343.481,232.389,344.325,232.01z"/>
				<path style="fill:#00328D;" d="M319.125,222.361c0.939-0.499,3.154-0.7,4.222-0.682c1.094,0.018,1.17,0.152,1.314-0.098      c0.784-1.378,4.024-4.975,5.134-3.751c1.007,1.114,1.046,4.399,0.814,5.852c-0.082,0.517,0.993,0.504,3.084,3.257      c1.179,1.552,0.693,1.882-2.257,2.1c-0.684,0.052-2.025,0.052-2.478-0.033c-0.552-0.101-0.359,0.441-2.076,2.233      c-2.856,2.99-3.703,2.113-4.084-0.039c-0.239-1.358-0.276-2.722-0.102-4.091c0.058-0.454-0.23-0.25-1.756-1.693      C320.271,224.781,318.308,222.798,319.125,222.361z"/>
				<path style="fill:#00328D;" d="M293.359,214.35c0.908-0.559,3.107-0.904,4.174-0.956c1.094-0.053,1.178,0.075,1.305-0.184      c0.698-1.424,3.703-5.224,4.887-4.077c1.076,1.037,1.32,4.324,1.176,5.807c-0.054,0.537,1.017,0.455,3.285,3.053      c1.279,1.466,0.815,1.828-2.119,2.246c-0.679,0.096-2.024,0.196-2.477,0.129c-0.553-0.081-0.329,0.458-1.92,2.328      c-2.663,3.168-3.568,2.348-4.085,0.226c-0.326-1.339-0.449-2.697-0.361-4.073c0.028-0.456-0.247-0.234-1.862-1.574      C294.654,216.688,292.57,214.839,293.359,214.35z"/>
				<path style="fill:#00328D;" d="M267.171,207.864c0.874-0.612,3.052-1.087,4.114-1.203c1.089-0.118,1.18,0.004,1.293-0.261      c0.616-1.463,3.396-5.434,4.642-4.36c1.129,0.987,1.554,4.292,1.5,5.763c-0.022,0.538,1.042,0.391,3.462,2.839      c1.364,1.382,0.924,1.772-1.985,2.372c-0.673,0.138-2.01,0.321-2.467,0.283c-0.559-0.047-0.302,0.477-1.784,2.44      c-2.46,3.256-3.423,2.52-4.061,0.427c-0.403-1.316-0.605-2.664-0.596-4.042c0.002-0.457-0.26-0.219-1.952-1.459      C268.596,210.119,266.408,208.399,267.171,207.864z"/>
				<path style="fill:#00328D;" d="M240.671,202.798c0.842-0.659,2.992-1.253,4.047-1.427c1.081-0.178,1.178-0.061,1.277-0.332      c0.536-1.481,3.109-5.639,4.399-4.578c1.175,0.947,1.778,4.201,1.803,5.678c0.007,0.538,1.061,0.329,3.611,2.634      c1.437,1.301,1.02,1.716-1.854,2.48c-0.665,0.176-1.991,0.436-2.451,0.424c-0.561-0.015-0.276,0.493-1.652,2.536      c-2.291,3.415-3.276,2.643-4.031,0.611c-0.473-1.292-0.746-2.626-0.811-4.002c-0.021-0.456-0.272-0.204-2.027-1.349      C242.212,204.969,239.937,203.373,240.671,202.798z"/>
				<path style="fill:#00328D;" d="M213.951,199.058c0.81-0.7,2.929-1.403,3.974-1.63c1.071-0.233,1.174-0.121,1.259-0.396      c0.467-1.532,2.821-5.734,4.163-4.759c1.218,0.884,1.982,4.099,2.081,5.572c0.034,0.538,1.075,0.273,3.739,2.439      c1.502,1.223,1.106,1.658-1.728,2.574c-0.655,0.212-1.969,0.54-2.429,0.553c-0.56,0.015-0.251,0.507-1.525,2.619      c-2.119,3.52-3.149,2.832-3.997,0.798c-0.533-1.288-0.873-2.598-1.005-3.971c-0.044-0.454-0.282-0.19-2.092-1.244      C215.597,201.148,213.246,199.67,213.951,199.058z"/>
				<path style="fill:#00328D;" d="M187.087,196.569c0.777-0.738,2.862-1.54,3.895-1.816c1.06-0.288,1.166-0.159,1.239-0.443      c0.395-1.532,2.553-5.838,3.937-4.935c1.258,0.823,2.169,3.996,2.336,5.461c0.059,0.535,1.087,0.22,3.849,2.252      c1.557,1.147,1.184,1.602-1.605,2.655c-0.645,0.243-1.943,0.636-2.402,0.671c-0.56,0.042-0.227,0.519-1.402,2.69      c-1.955,3.619-3.018,2.983-3.96,0.994c-0.594-1.255-0.992-2.567-1.185-3.937c-0.065-0.452-0.289-0.196-2.146-1.157      C188.826,198.578,186.41,197.213,187.087,196.569z"/>
				<path style="fill:#00328D;" d="M160.139,195.269c0.744-0.767,2.792-1.678,3.812-1.977c1.045-0.308,1.158-0.203,1.218-0.484      c0.327-1.549,2.295-5.949,3.716-5.111c1.291,0.764,2.342,3.892,2.572,5.348c0.083,0.531,1.095,0.169,3.944,2.072      c1.608,1.075,1.254,1.546-1.486,2.726c-0.634,0.272-1.913,0.725-2.371,0.781c-0.558,0.068-0.204,0.528-1.283,2.751      c-1.796,3.705-2.887,3.118-3.915,1.175c-0.647-1.226-1.103-2.519-1.356-3.878c-0.084-0.446-0.298-0.181-2.195-1.085      C161.964,197.198,159.49,195.943,160.139,195.269z"/>
				<path style="fill:#00328D;" d="M342.085,177.905c0.943-0.505,3.155-0.731,4.203-0.68c1.082,0.035,1.154,0.169,1.299-0.079      c0.796-1.367,4.048-4.924,5.126-3.682c0.978,1.13,0.97,4.422,0.721,5.873c-0.096,0.536,0.985,0.488,3.04,3.209      c1.144,1.571,0.672,1.867-2.269,2.101c-0.683,0.06-2.028,0.09-2.476,0.001c-0.544-0.109-0.361,0.437-2.083,2.207      c-2.865,2.953-3.692,2.061-4.038-0.101c-0.217-1.364-0.235-2.732-0.043-4.1c0.063-0.454-0.225-0.254-1.712-1.722      C343.201,180.288,341.262,178.35,342.085,177.905z"/>
				<path style="fill:#00328D;" d="M316.693,169.6c0.913-0.552,3.104-0.883,4.164-0.93c1.088-0.051,1.164,0.095,1.296-0.165      c0.718-1.409,3.757-5.139,4.9-3.956c1.036,1.076,1.215,4.368,1.05,5.833c-0.062,0.534,1.003,0.451,3.219,3.031      c1.249,1.456,0.784,1.817-2.144,2.238c-0.678,0.097-2.019,0.198-2.469,0.133c-0.55-0.081-0.335,0.456-1.951,2.318      c-2.69,3.105-3.57,2.255-4.039,0.112c-0.294-1.352-0.389-2.719-0.274-4.096c0.037-0.458-0.237-0.251-1.819-1.591      C317.933,171.937,315.898,170.083,316.693,169.6z"/>
				<path style="fill:#00328D;" d="M290.906,162.617c0.884-0.593,3.053-1.026,4.109-1.121c1.082-0.097,1.169,0.027,1.287-0.236      c0.651-1.456,3.501-5.36,4.696-4.221c1.086,1.025,1.431,4.308,1.342,5.78c-0.034,0.536,1.023,0.402,3.367,2.875      c1.321,1.396,0.877,1.78-2.024,2.342c-0.671,0.129-2.003,0.295-2.457,0.251c-0.553-0.054-0.311,0.472-1.829,2.411      c-2.528,3.233-3.452,2.425-4.029,0.304c-0.365-1.327-0.532-2.674-0.488-4.051c0.014-0.456-0.253-0.224-1.897-1.496      C292.259,164.897,290.136,163.137,290.906,162.617z"/>
				<path style="fill:#00328D;" d="M264.824,156.843c0.856-0.631,3.002-1.154,4.051-1.293c1.074-0.143,1.167-0.022,1.273-0.29      c0.582-1.472,3.253-5.513,4.5-4.457c1.131,0.977,1.625,4.242,1.604,5.718c-0.01,0.538,1.039,0.357,3.493,2.727      c1.384,1.338,0.96,1.741-1.91,2.429c-0.664,0.159-1.987,0.383-2.443,0.359c-0.554-0.03-0.288,0.486-1.716,2.49      c-2.374,3.334-3.34,2.577-4.019,0.512c-0.428-1.307-0.654-2.651-0.673-4.029c-0.006-0.457-0.263-0.213-1.962-1.416      C266.276,159.065,264.078,157.394,264.824,156.843z"/>
				<path style="fill:#00328D;" d="M238.52,152.18c0.83-0.663,2.951-1.269,3.993-1.448c1.067-0.184,1.164-0.067,1.259-0.339      c0.521-1.497,3.018-5.632,4.307-4.636c1.174,0.898,1.803,4.147,1.844,5.624c0.013,0.538,1.052,0.315,3.604,2.586      c1.439,1.282,1.032,1.702-1.804,2.505c-0.657,0.185-1.969,0.462-2.424,0.456c-0.555-0.007-0.268,0.497-1.609,2.558      c-2.236,3.447-3.239,2.752-4.002,0.702c-0.482-1.291-0.764-2.625-0.84-4.002c-0.025-0.456-0.271-0.203-2.018-1.34      C240.061,154.345,237.797,152.76,238.52,152.18z"/>
				<path style="fill:#00328D;" d="M212.054,148.555c0.803-0.693,2.899-1.375,3.932-1.592c1.059-0.222,1.161-0.109,1.245-0.384      c0.462-1.516,2.796-5.739,4.121-4.79c1.204,0.864,1.963,4.063,2.062,5.532c0.035,0.53,1.064,0.264,3.702,2.441      c1.488,1.228,1.099,1.663-1.704,2.572c-0.648,0.211-1.947,0.532-2.405,0.549c-0.557,0.023-0.248,0.51-1.511,2.637      c-2.103,3.545-3.131,2.873-3.974,0.855c-0.531-1.273-0.865-2.597-0.994-3.971c-0.044-0.455-0.279-0.193-2.068-1.267      C213.676,150.664,211.354,149.16,212.054,148.555z"/>
				<path style="fill:#00328D;" d="M185.469,145.935c0.779-0.741,2.849-1.501,3.872-1.748c1.05-0.259,1.155-0.149,1.23-0.427      c0.407-1.53,2.581-5.832,3.94-4.928c1.235,0.823,2.11,3.995,2.264,5.46c0.054,0.545,1.075,0.197,3.792,2.278      c1.532,1.175,1.16,1.625-1.607,2.63c-0.64,0.24-1.93,0.633-2.386,0.667c-0.555,0.042-0.228,0.518-1.411,2.687      c-1.97,3.615-3.023,2.977-3.94,0.988c-0.577-1.255-0.96-2.567-1.139-3.935c-0.06-0.454-0.287-0.184-2.113-1.197      C187.17,147.952,184.791,146.576,185.469,145.935z"/>
				<path style="fill:#00328D;" d="M311.038,383.558c0.974-0.43,3.207-0.467,4.278-0.37c1.095,0.1,1.163,0.239,1.323-0.001      c0.879-1.318,4.371-4.674,5.405-3.366c0.938,1.189,0.754,4.475,0.422,5.908c-0.129,0.535,0.99,0.519,2.886,3.455      c1.073,1.643,0.562,1.935-2.407,1.925c-0.681-0.017-2.046-0.072-2.498-0.183c-0.546-0.142-0.391,0.414-2.233,2.078      c-3.066,2.776-3.852,1.839-4.087-0.341c-0.148-1.374-0.093-2.741,0.173-4.096c0.088-0.449-0.215-0.267-1.647-1.822      C312.026,386.063,310.189,383.935,311.038,383.558z"/>
				<path style="fill:#00328D;" d="M285.66,373.84c0.944-0.497,3.172-0.693,4.247-0.673c1.1,0.021,1.177,0.154,1.321-0.095      c0.786-1.377,4.037-4.97,5.158-3.743c1.016,1.117,1.062,4.406,0.832,5.858c-0.082,0.517,1.001,0.507,3.111,3.268      c1.19,1.556,0.702,1.885-2.266,2.096c-0.687,0.051-2.037,0.048-2.492-0.039c-0.556-0.102-0.361,0.441-2.085,2.231      c-2.867,2.986-3.722,2.106-4.109-0.049c-0.244-1.36-0.284-2.726-0.112-4.095c0.057-0.454-0.233-0.251-1.772-1.699      C286.819,376.265,284.839,374.276,285.66,373.84z"/>
				<path style="fill:#00328D;" d="M259.714,365.774c0.912-0.558,3.125-0.898,4.2-0.948c1.1-0.051,1.185,0.077,1.313-0.181      c0.7-1.424,3.717-5.22,4.91-4.07c1.085,1.04,1.336,4.328,1.194,5.812c-0.053,0.537,1.025,0.458,3.313,3.062      c1.29,1.47,0.825,1.831-2.128,2.244c-0.682,0.095-2.036,0.192-2.492,0.125c-0.557-0.083-0.331,0.457-1.928,2.325      c-2.673,3.164-3.587,2.342-4.112,0.218c-0.33-1.34-0.457-2.699-0.372-4.076c0.028-0.456-0.249-0.235-1.877-1.579      C261.021,368.115,258.92,366.261,259.714,365.774z"/>
				<path style="fill:#00328D;" d="M233.34,359.242c0.88-0.61,3.071-1.083,4.14-1.197c1.096-0.117,1.188,0.006,1.301-0.259      c0.618-1.462,3.411-5.43,4.666-4.354c1.138,0.989,1.571,4.297,1.52,5.768c-0.022,0.539,1.05,0.392,3.489,2.846      c1.375,1.385,0.933,1.774-1.993,2.37c-0.677,0.137-2.023,0.318-2.484,0.279c-0.562-0.048-0.304,0.477-1.791,2.438      c-2.471,3.253-3.442,2.516-4.088,0.42c-0.408-1.317-0.613-2.666-0.606-4.044c0.001-0.457-0.263-0.22-1.967-1.463      C234.779,361.5,232.574,359.776,233.34,359.242z"/>
				<path style="fill:#00328D;" d="M206.654,354.139c0.848-0.657,3.011-1.249,4.074-1.422c1.088-0.177,1.186-0.06,1.285-0.331      c0.538-1.48,3.123-5.637,4.423-4.574c1.184,0.949,1.796,4.204,1.823,5.681c0.007,0.538,1.068,0.331,3.638,2.639      c1.449,1.304,1.03,1.718-1.862,2.479c-0.669,0.176-2.006,0.433-2.469,0.42c-0.564-0.016-0.277,0.493-1.659,2.535      c-2.302,3.412-3.296,2.639-4.058,0.606c-0.478-1.292-0.754-2.628-0.82-4.004c-0.023-0.456-0.275-0.205-2.043-1.352      C208.209,356.314,205.915,354.714,206.654,354.139z"/>
				<path style="fill:#00328D;" d="M179.746,350.374c0.815-0.7,2.948-1.401,4-1.627c1.079-0.232,1.182-0.12,1.268-0.396      c0.468-1.532,2.836-5.732,4.187-4.756c1.227,0.885,1.999,4.101,2.1,5.574c0.034,0.537,1.083,0.274,3.767,2.443      c1.512,1.224,1.115,1.66-1.738,2.572c-0.659,0.21-1.982,0.538-2.445,0.55c-0.565,0.014-0.253,0.506-1.533,2.618      c-2.131,3.519-3.169,2.83-4.025,0.795c-0.537-1.289-0.881-2.6-1.015-3.972c-0.045-0.455-0.283-0.191-2.107-1.246      C181.406,352.465,179.037,350.985,179.746,350.374z"/>
				<path style="fill:#00328D;" d="M152.693,347.866c0.783-0.737,2.881-1.539,3.922-1.815c1.066-0.288,1.174-0.158,1.247-0.442      c0.396-1.532,2.566-5.837,3.961-4.933c1.267,0.823,2.186,3.997,2.355,5.463c0.06,0.535,1.095,0.221,3.877,2.255      c1.569,1.148,1.193,1.603-1.615,2.654c-0.649,0.243-1.956,0.635-2.419,0.67c-0.564,0.041-0.228,0.518-1.41,2.689      c-1.967,3.619-3.038,2.981-3.988,0.991c-0.597-1.255-1-2.568-1.196-3.938c-0.065-0.452-0.29-0.196-2.161-1.158      C154.446,349.877,152.012,348.511,152.693,347.866z"/>
				<path style="fill:#00328D;" d="M125.556,346.558c0.75-0.767,2.812-1.678,3.839-1.977c1.052-0.307,1.166-0.203,1.226-0.484      c0.33-1.548,2.31-5.948,3.741-5.109c1.3,0.764,2.359,3.892,2.592,5.349c0.083,0.531,1.103,0.17,3.972,2.073      c1.618,1.075,1.263,1.546-1.496,2.726c-0.638,0.272-1.927,0.724-2.387,0.78c-0.562,0.067-0.206,0.528-1.291,2.751      c-1.808,3.704-2.906,3.117-3.943,1.173c-0.653-1.226-1.111-2.519-1.367-3.878c-0.085-0.446-0.299-0.181-2.21-1.086      C127.394,348.487,124.903,347.232,125.556,346.558z"/>
				<path style="fill:#00328D;" d="M327.906,334.78c0.929-0.45,3.026-0.548,4.026-0.481c1.025,0.068,1.083,0.203,1.242-0.037      c0.869-1.323,4.255-4.724,5.18-3.465c0.84,1.145,0.559,4.388,0.2,5.81c-0.134,0.521,0.875,0.564,2.571,3.373      c0.955,1.585,0.466,1.887-2.323,1.966c-0.645,0.018-1.907-0.035-2.317-0.152c-0.499-0.142-0.376,0.41-2.159,2.098      c-2.967,2.819-3.676,1.917-3.824-0.224c-0.092-1.35,0.004-2.698,0.299-4.04c0.097-0.446-0.193-0.257-1.485-1.751      C328.749,337.22,327.098,335.174,327.906,334.78z"/>
				<path style="fill:#00328D;" d="M304.576,325.549c0.902-0.513,2.994-0.757,4-0.762c1.03-0.005,1.096,0.125,1.24-0.124      c0.786-1.379,3.96-5.01,4.941-3.759c0.897,1.12,0.81,4.4,0.539,5.848c-0.101,0.528,0.911,0.495,2.794,3.162      c1.061,1.505,0.593,1.842-2.197,2.124c-0.645,0.065-1.914,0.105-2.333,0.019c-0.511-0.105-0.352,0.437-2.016,2.214      c-2.772,2.966-3.524,2.072-3.803-0.066c-0.18-1.337-0.17-2.684,0.04-4.04c0.068-0.45-0.21-0.242-1.599-1.637      C305.574,327.916,303.792,325.997,304.576,325.549z"/>
				<path style="fill:#00328D;" d="M280.758,317.663c0.875-0.579,2.951-0.944,3.942-0.967c1.021-0.042,1.095,0.087,1.223-0.17      c0.704-1.413,3.648-5.174,4.708-4.017c0.961,1.052,1.068,4.322,0.883,5.78c-0.069,0.532,0.94,0.431,2.985,2.956      c1.152,1.426,0.705,1.793-2.072,2.261c-0.642,0.108-1.911,0.232-2.336,0.175c-0.517-0.07-0.325,0.459-1.888,2.338      c-2.601,3.133-3.413,2.305-3.815,0.183c-0.252-1.339-0.316-2.695-0.182-4.067c0.044-0.455-0.221-0.236-1.675-1.59      C281.898,319.934,279.995,318.17,280.758,317.663z"/>
				<path style="fill:#00328D;" d="M256.536,311.117c0.839-0.599,2.886-1.047,3.881-1.149c1.019-0.105,1.1,0.019,1.214-0.245      c0.63-1.451,3.373-5.378,4.493-4.292c1.017,0.989,1.3,4.237,1.195,5.702c-0.044,0.548,0.975,0.33,3.132,2.819      c1.218,1.394,0.794,1.778-1.94,2.344c-0.629,0.118-1.894,0.328-2.322,0.297c-0.522-0.038-0.3,0.477-1.763,2.445      c-2.434,3.281-3.295,2.506-3.812,0.417c-0.325-1.318-0.462-2.665-0.401-4.039c0.019-0.456-0.234-0.221-1.763-1.479      C257.779,313.384,255.805,311.642,256.536,311.117z"/>
				<path style="fill:#00328D;" d="M232.016,305.804c0.811-0.645,2.836-1.208,3.826-1.367c1.014-0.163,1.101-0.044,1.203-0.313      c0.558-1.479,3.109-5.56,4.278-4.527c1.058,0.961,1.496,4.213,1.463,5.686c-0.014,0.537,0.976,0.343,3.264,2.674      c1.29,1.316,0.885,1.724-1.822,2.45c-0.626,0.167-1.873,0.408-2.301,0.391c-0.522-0.022-0.276,0.488-1.636,2.508      c-2.261,3.358-3.159,2.619-3.783,0.576c-0.392-1.295-0.595-2.63-0.602-4.003c-0.003-0.455-0.246-0.207-1.837-1.374      C233.37,307.991,231.311,306.367,232.016,305.804z"/>
				<path style="fill:#00328D;" d="M207.283,301.596c0.781-0.68,2.784-1.367,3.761-1.551c1.003-0.191,1.095-0.074,1.184-0.347      c0.49-1.501,2.844-5.653,4.057-4.665c1.101,0.9,1.69,4.119,1.724,5.589c0.012,0.536,0.992,0.288,3.39,2.488      c1.352,1.242,0.967,1.671-1.708,2.542c-0.619,0.201-1.855,0.51-2.284,0.516c-0.524,0.006-0.253,0.502-1.521,2.59      c-2.109,3.481-3.043,2.779-3.754,0.738c-0.448-1.288-0.711-2.62-0.78-3.997c-0.024-0.451-0.252-0.212-1.893-1.316      C208.736,303.707,206.603,302.196,207.283,301.596z"/>
				<path style="fill:#00328D;" d="M182.39,298.477c0.75-0.707,2.716-1.427,3.687-1.662c0.995-0.241,1.091-0.13,1.169-0.406      c0.425-1.523,2.6-5.786,3.854-4.862c1.139,0.842,1.866,4.024,1.965,5.49c0.034,0.545,1.007,0.214,3.494,2.334      c1.401,1.212,1.038,1.642-1.593,2.6c-0.61,0.232-1.834,0.603-2.262,0.63c-0.523,0.033-0.231,0.514-1.409,2.662      c-1.959,3.58-2.925,2.928-3.725,0.928c-0.505-1.263-0.824-2.579-0.953-3.949c-0.042-0.454-0.263-0.188-1.949-1.228      C183.927,300.555,181.736,299.095,182.39,298.477z"/>
				<path style="fill:#00328D;" d="M157.386,296.421c0.722-0.742,2.658-1.554,3.618-1.835c0.984-0.289,1.085-0.182,1.151-0.462      c0.365-1.541,2.364-5.9,3.654-5.036c1.172,0.774,2.025,3.97,2.184,5.427c0.056,0.534,1.01,0.213,3.583,2.228      c1.451,1.138,1.105,1.595-1.485,2.666c-0.599,0.247-1.805,0.648-2.232,0.686c-0.52,0.046-0.209,0.52-1.297,2.699      c-1.809,3.625-2.805,3.05-3.686,1.081c-0.556-1.236-0.929-2.535-1.113-3.897c-0.061-0.451-0.27-0.176-1.998-1.134      C159.007,298.423,156.758,297.069,157.386,296.421z"/>
				<path style="fill:#00328D;" d="M132.324,295.316c0.692-0.773,2.596-1.67,3.544-1.994c0.973-0.332,1.077-0.231,1.133-0.511      c0.305-1.549,2.132-5.956,3.453-5.122c1.2,0.76,2.178,3.884,2.393,5.34c0.077,0.531,1.018,0.166,3.669,2.06      c1.494,1.07,1.167,1.542-1.38,2.731c-0.589,0.274-1.778,0.73-2.204,0.788c-0.519,0.069-0.189,0.529-1.192,2.755      c-1.668,3.71-2.684,3.127-3.641,1.186c-0.604-1.224-1.027-2.515-1.263-3.874c-0.078-0.452-0.277-0.164-2.042-1.045      C134.02,297.243,131.721,295.992,132.324,295.316z"/>
				<path style="fill:#00328D;" d="M153.303,113.079c-0.293-0.989-0.036-3.093,0.201-4.083c0.242-1.013,0.386-1.049,0.178-1.249      c-1.154-1.086-3.807-5.06-2.343-5.767c1.329-0.634,4.472,0.273,5.791,0.913c0.476,0.237,0.694-0.802,3.836-1.856      c1.758-0.597,1.932-0.035,1.417,2.695c-0.125,0.628-0.436,1.841-0.604,2.236c-0.223,0.467,0.33,0.46,1.633,2.53      c2.183,3.436,1.189,3.894-0.948,3.613c-1.344-0.18-2.663-0.535-3.929-1.068c-0.42-0.174-0.28,0.142-1.952,1.158      C155.847,112.645,153.562,113.939,153.303,113.079z"/>
				<path style="fill:#00328D;" d="M141.241,135.16c-0.442-0.947-0.501-3.07-0.367-4.062c0.116-1.025,0.254-1.079,0.021-1.246      c-1.29-0.911-4.532-4.457-3.214-5.36c1.179-0.823,4.469-0.372,5.872,0.062c0.511,0.163,0.61-0.865,3.484-2.425      c1.62-0.876,1.89-0.354,1.84,2.449c-0.012,0.649-0.12,1.908-0.254,2.312c-0.163,0.49,0.393,0.401,1.969,2.245      c2.644,3.064,1.759,3.712-0.394,3.756c-1.352,0.028-2.697-0.125-4.028-0.47c-0.442-0.114-0.265,0.179-1.817,1.407      C143.661,134.359,141.631,135.985,141.241,135.16z"/>
				<path style="fill:#00328D;" d="M132.006,158.565c-0.528-0.886-0.801-2.976-0.817-3.987c-0.017-1.034,0.113-1.104-0.139-1.243      c-1.399-0.76-5.051-3.895-3.813-4.925c1.11-0.936,4.386-0.893,5.834-0.633c0.541,0.104,0.449-0.945,3.143-2.833      c1.528-1.059,1.851-0.582,2.11,2.193c0.075,0.648,0.136,1.921,0.058,2.341c-0.096,0.511,0.441,0.351,2.241,2      c3.004,2.738,2.147,3.477,0.006,3.776c-1.334,0.193-2.681,0.203-4.041,0.016c-0.451-0.061-0.239,0.211-1.616,1.622      C134.368,157.51,132.468,159.335,132.006,158.565z"/>
				<path style="fill:#00328D;" d="M125.34,182.826c-0.621-0.828-1.13-2.884-1.254-3.887c-0.108-1.022,0.016-1.105-0.248-1.217      c-1.457-0.609-5.392-3.34-4.302-4.496c0.994-1.045,4.237-1.35,5.711-1.242c0.537,0.043,0.399-0.971,2.854-3.14      c1.385-1.22,1.767-0.782,2.345,1.96c0.133,0.634,0.308,1.889,0.268,2.313c-0.046,0.518,0.462,0.299,2.436,1.754      c3.291,2.414,2.526,3.248,0.438,3.774c-1.317,0.329-2.665,0.476-4.042,0.43c-0.447-0.012-0.244,0.228-1.453,1.778      C127.563,181.53,125.885,183.546,125.34,182.826z"/>
				<path style="fill:#00328D;" d="M428.162,284.485c0.533-0.907,2.31-2.21,3.235-2.741c0.949-0.521,1.083-0.425,1.085-0.717      c-0.005-1.578,1.12-6.281,2.72-5.736c1.44,0.477,3.009,3.435,3.462,4.834c0.159,0.513,1.12,0.003,4.157,1.468      c1.714,0.912,1.396,1.335-1.051,2.915c-0.567,0.361-1.714,0.993-2.137,1.115c-0.515,0.147-0.118,0.552-0.765,2.901      c-1.054,3.925-2.089,3.579-3.402,1.845c-0.821-1.086-1.495-2.271-2-3.557c-0.166-0.409-0.315-0.155-2.279-0.614      C430.327,285.988,427.702,285.276,428.162,284.485z"/>
				<path style="fill:#00328D;" d="M403.049,292.35c0.336-1.004,1.803-2.671,2.623-3.321c0.827-0.694,0.972-0.642,0.917-0.924      c-0.32-1.541-0.181-6.415,1.498-6.19c1.525,0.235,3.643,2.775,4.371,4.055c0.267,0.495,1.074-0.292,4.37,0.609      c1.854,0.513,1.655,1.077-0.45,3.029c-0.483,0.469-1.472,1.339-1.861,1.547c-0.473,0.255-0.003,0.567-0.161,3.009      c-0.245,4.052-1.35,3.866-2.971,2.473c-1.022-0.891-1.918-1.91-2.669-3.065c-0.252-0.382-0.323-0.045-2.367-0.167      C405.457,293.352,402.763,293.23,403.049,292.35z"/>
				<path style="fill:#00328D;" d="M380.02,305.086c0.103-1.083,1.268-2.915,1.91-3.764c0.664-0.857,0.815-0.837,0.703-1.103      c-0.637-1.465-1.475-6.257,0.236-6.344c1.535-0.091,4.114,1.959,5.082,3.064c0.342,0.397,1.009-0.475,4.414-0.264      c1.909,0.113,1.829,0.709,0.174,3.072c-0.383,0.549-1.206,1.549-1.532,1.854c-0.409,0.35,0.112,0.557,0.456,2.992      c0.593,4.046-0.526,4.083-2.421,3.001c-1.176-0.662-2.255-1.474-3.222-2.45c-0.323-0.322-0.323,0.025-2.336,0.337      C382.591,305.594,379.905,305.987,380.02,305.086z"/>
				<path style="fill:#00328D;" d="M439.698,332.106c0.508-0.919,2.237-2.26,3.136-2.811c0.923-0.546,1.058-0.458,1.051-0.748      c-0.051-1.578,0.891-6.311,2.478-5.814c1.431,0.438,3.095,3.324,3.603,4.705c0.18,0.506,1.103-0.042,4.181,1.295      c1.741,0.821,1.457,1.278-0.91,2.955c-0.548,0.385-1.665,1.065-2.082,1.204c-0.508,0.169-0.092,0.557-0.649,2.932      c-0.908,3.967-1.979,3.65-3.35,1.965c-0.861-1.059-1.57-2.221-2.113-3.49c-0.18-0.407-0.319-0.135-2.292-0.551      C441.888,333.559,439.258,332.907,439.698,332.106z"/>
				<path style="fill:#00328D;" d="M414.742,339.954c0.353-0.995,1.835-2.621,2.652-3.264c0.826-0.681,0.969-0.627,0.916-0.91      c-0.3-1.547-0.138-6.401,1.51-6.154c1.498,0.249,3.59,2.801,4.313,4.084c0.265,0.49,1.064-0.273,4.337,0.618      c1.843,0.506,1.655,1.068-0.434,3.032c-0.48,0.468-1.468,1.333-1.856,1.54c-0.474,0.253-0.001,0.566-0.169,3.009      c-0.264,4.057-1.387,3.872-3,2.459c-1.016-0.902-1.901-1.931-2.639-3.095c-0.246-0.385-0.323-0.048-2.358-0.197      C417.124,341.012,414.44,340.826,414.742,339.954z"/>
				<path style="fill:#00328D;" d="M391.351,351.671c0.173-1.064,1.422-2.829,2.104-3.632c0.703-0.813,0.852-0.783,0.754-1.055      c-0.553-1.495-1.164-6.305,0.518-6.298c1.513-0.005,3.981,2.171,4.898,3.319c0.326,0.414,1.017-0.416,4.388-0.067      c1.893,0.192,1.799,0.779,0.06,3.074c-0.401,0.533-1.26,1.503-1.602,1.788c-0.425,0.33,0.089,0.56,0.32,3.007      c0.399,4.069-0.74,4.064-2.577,2.892c-1.145-0.724-2.18-1.593-3.092-2.621c-0.304-0.34-0.326,0.007-2.348,0.201      C393.878,352.344,391.184,352.563,391.351,351.671z"/>
				<path style="fill:#00328D;" d="M74.349,246.826c0.488-0.936,2.227-2.42,3.171-2.946c0.955-0.573,1.096-0.502,1.085-0.79      c-0.088-1.583,0.898-6.403,2.619-5.885c1.541,0.453,3.239,3.27,3.74,4.683c0.174,0.519,1.169-0.048,4.318,1.389      c1.774,0.883,1.435,1.34-1.042,2.92c-0.572,0.375-1.724,1.032-2.151,1.162c-0.517,0.165-0.112,0.539-0.692,2.929      c-0.929,4.004-1.95,3.618-3.343,1.954c-0.867-1.033-1.599-2.173-2.173-3.426c-0.194-0.415-0.313-0.091-2.349-0.504      C76.651,248.159,73.933,247.651,74.349,246.826z"/>
				<path style="fill:#00328D;" d="M49.765,257.9c0.157-1.082,1.42-2.941,2.144-3.759c0.732-0.846,0.886-0.822,0.79-1.094      c-0.573-1.511-1.027-6.32,0.741-6.393c1.585-0.072,4.094,2.203,4.979,3.364c0.331,0.466,1.069-0.462,4.534,0.032      c1.939,0.27,1.78,0.866-0.126,3.079c-0.445,0.504-1.329,1.517-1.699,1.768c-0.443,0.313,0.063,0.565,0.216,3.004      c0.283,4.041-0.764,4.06-2.602,2.868c-1.148-0.747-2.196-1.629-3.11-2.642c-0.309-0.336-0.324,0.011-2.376,0.251      C52.342,258.448,49.622,258.818,49.765,257.9z"/>
				<path style="fill:#00328D;" d="M412.237,233.264c0.479-0.891,2.123-2.155,3.002-2.586c0.891-0.473,1.012-0.388,1.023-0.675      c0.022-1.601,1.304-6.238,2.836-5.562c1.366,0.58,2.636,3.653,2.94,5.085c0.101,0.558,1.059,0.014,3.683,1.887      c1.467,1.039,1.094,1.516-1.231,2.76c-0.538,0.264-1.604,0.836-1.986,0.912c-0.463,0.105-0.153,0.542-0.864,2.829      c-1.14,3.826-1.933,3.392-3.013,1.559c-0.67-1.153-1.227-2.336-1.642-3.648c-0.142-0.432-0.263-0.123-2.023-0.743      C414.201,234.808,411.828,234.047,412.237,233.264z"/>
				<path style="fill:#00328D;" d="M389.76,241.286c0.208-0.984,1.411-2.634,2.082-3.353c0.689-0.727,0.839-0.661,0.759-0.943      c-0.453-1.508-0.735-6.292,0.859-6.15c1.452,0.163,3.631,2.631,4.395,3.878c0.281,0.482,0.982-0.321,4.079,0.533      c1.731,0.471,1.564,1.042-0.207,3.015c-0.416,0.438-1.243,1.325-1.579,1.536c-0.406,0.259,0.04,0.561,0.11,2.971      c0.142,3.982-0.822,3.85-2.437,2.491c-1.012-0.86-1.929-1.843-2.732-2.96c-0.265-0.359-0.311-0.069-2.169-0.069      C392.107,242.227,389.585,242.142,389.76,241.286z"/>
				<path style="fill:#00328D;" d="M65.563,200.58c0.494-0.923,2.222-2.356,3.153-2.864c0.944-0.551,1.08-0.477,1.073-0.765      c-0.063-1.584,0.961-6.374,2.634-5.825c1.5,0.482,3.129,3.33,3.606,4.748c0.164,0.521,1.143-0.028,4.213,1.451      c1.728,0.901,1.396,1.359-1.047,2.905c-0.565,0.366-1.703,1.006-2.123,1.13c-0.509,0.157-0.115,0.539-0.713,2.918      c-0.96,3.984-1.964,3.582-3.311,1.892c-0.838-1.05-1.542-2.205-2.087-3.47c-0.184-0.418-0.307-0.098-2.299-0.555      C67.801,201.971,65.142,201.394,65.563,200.58z"/>
				<path style="fill:#00328D;" d="M41.15,210.686c0.189-1.065,1.485-2.853,2.219-3.634c0.744-0.807,0.894-0.775,0.807-1.05      c-0.519-1.527-0.843-6.332,0.891-6.326c1.556,0,3.962,2.364,4.802,3.556c0.314,0.474,1.062-0.411,4.45,0.205      c1.898,0.34,1.732,0.927-0.192,3.065c-0.449,0.488-1.344,1.46-1.713,1.696c-0.445,0.295,0.048,0.565,0.137,3.001      c0.175,4.039-0.865,4.013-2.642,2.75c-1.11-0.792-2.117-1.714-2.99-2.763c-0.294-0.348-0.319-0.004-2.347,0.141      C43.671,211.359,40.979,211.591,41.15,210.686z"/>
				<path style="fill:#00328D;" d="M405.188,186.925c0.56-0.867,2.349-2.102,3.285-2.52c0.952-0.454,1.077-0.367,1.096-0.654      c0.08-1.581,1.468-6.242,3.012-5.545c1.388,0.618,2.714,3.604,3.058,5.055c0.117,0.532,1.094,0.072,3.928,1.8      c1.591,1.03,1.242,1.469-1.233,2.808c-0.573,0.317-1.721,0.859-2.136,0.947c-0.504,0.112-0.153,0.529-0.927,2.845      c-1.262,3.878-2.212,3.389-3.366,1.58c-0.721-1.127-1.299-2.345-1.712-3.656c-0.14-0.434-0.288-0.128-2.166-0.778      C407.211,188.544,404.707,187.69,405.188,186.925z"/>
				<path style="fill:#00328D;" d="M380.625,193.783c0.314-1.014,1.772-2.585,2.565-3.248c0.808-0.685,0.949-0.633,0.896-0.916      c-0.317-1.574-0.092-6.362,1.561-6.109c1.487,0.223,3.53,2.871,4.209,4.163c0.249,0.505,1.062-0.253,4.249,0.779      c1.786,0.576,1.569,1.134-0.51,3.011c-0.483,0.428-1.453,1.268-1.835,1.454c-0.461,0.234-0.014,0.565-0.201,2.986      c-0.286,4.021-1.304,3.849-2.874,2.361c-0.981-0.933-1.844-1.983-2.564-3.143c-0.242-0.386-0.309-0.05-2.281-0.199      C382.972,194.827,380.349,194.646,380.625,193.783z"/>
				<path style="fill:#00328D;" d="M87.095,151.262c-0.699-0.822-1.279-2.998-1.421-4.083c-0.134-1.105-0.012-1.204-0.279-1.312      c-1.492-0.566-5.436-3.449-4.286-4.823c1.054-1.224,4.35-1.588,5.831-1.456c0.542,0.059,0.418-1.09,3.059-3.329      c1.532-1.235,1.815-0.732,2.216,2.164c0.083,0.668,0.208,1.983,0.162,2.426c-0.063,0.534,0.459,0.331,2.377,1.84      c3.238,2.485,2.49,3.231,0.416,3.803c-1.32,0.349-2.651,0.545-4.028,0.552c-0.448,0.008-0.23,0.24-1.393,1.923      C89.225,149.695,87.68,151.967,87.095,151.262z"/>
				<path style="fill:#00328D;" d="M374.361,147.298c0.253-1.005,1.592-2.619,2.341-3.302c0.769-0.69,0.91-0.64,0.849-0.921      c-0.376-1.544-0.278-6.378,1.414-6.14c1.524,0.232,3.553,2.825,4.225,4.146c0.232,0.492,1.075-0.229,4.159,0.873      c1.736,0.682,1.456,1.179-0.545,3.001c-0.466,0.412-1.396,1.192-1.752,1.385c-0.432,0.221-0.017,0.564-0.146,2.961      c-0.159,4.025-1.071,3.764-2.604,2.318c-0.958-0.931-1.821-1.949-2.563-3.101c-0.248-0.373-0.302-0.067-2.205-0.17      C376.701,148.289,374.137,148.155,374.361,147.298z"/>
			</g>
			<path style="opacity:0.25;fill:#000E3F;" d="M330.965,424.746c-1.764,4.39-7.592,16.939-10.434,21.35     c-8.469,13.675-17.261,10.914-50.264,7.291c-55.126-5.643-97.19-18.075-143.492-34.519c-0.823-0.366-11.986-3.869-14.341-8.3     c-0.018-0.004-0.014-0.022-0.014-0.022c-0.546-0.933-0.369-1.553,0.672-2.245c24.111-16.091,45.778-16.096,131.096-21.413     c23.543,6.365,63.828,21.184,85.272,33.373C331.87,421.629,332.025,422.116,330.965,424.746z"/>
		</g>
		<g>
			<path style="fill:#000E3F;" d="M130.147,422.832c-12.185-4.403-15.513-5.512-18.914-9.826     c-6.098-7.734-6.082-15.658-6.013-30.165c0.225-46.794,10.432-115.873,30.88-178.238c0.883-2.694,0.794-2.988-0.803-3.219     c-10.641-1.54-20.6,0.897-30.233,5.198c-9.229,4.121-2.311-0.508,3.344,36.685c2.358,15.511,2.88,31.835,0.06,47.318     c-0.915,5.025-1.8,11.73-5.807,15.312c-6.429,5.748-20.333,12.269-35.039,13.087c-7.711,0.429-12.818-0.65-16.094-6.695     c-4.231-7.809-4.632-16.956-5.986-21.348c-2.406-7.807-7.27-9.41-10.842-18.565c-16.156-41.402-4.231-85.692,24.928-119.467     c38.407-44.486,103.551-79.16,161.265-71.421c1.712,0.23,1.928,0.103,2.492-1.762c14.815-48.962,91.845-37.238,116.462-7.216     c7.606,9.277,11.312,19.817,10.375,31.865c-0.093,1.194-0.396,2.369-0.542,3.561c-0.461,3.752,3.956-0.376,27.529,14.399     c18.174,11.392,36.437,28.192,45.552,47.706c36.048,77.178,51.486,163.527,49.245,212.395     c-0.337,7.345-1.053,14.703-2.639,21.892c-1.354,6.139-2.764,13.681-8.299,17.426c-10.76,7.281-24.277,10.205-36.439,9.616     c-9.849-0.477-12.873-2.933-16.429-7.972c-4.051-5.74-6.813-12.412-8.593-19.181c-0.395-1.503-0.965-2.888-1.833-4.17     c-10.834-16.013-19.695-41.422-23.734-58.629c-5.1-21.731-4.366-27.657-5.354-29.568c-2.158,2.148-10.967,61.605-41.705,127.714     c-4.786,10.293-10.798,18.886-22.14,19.375C297.443,459.255,218.289,454.679,130.147,422.832z M293.613,454.559     c15.285,1.234,20.534,2.033,29.141-14.889c27.055-53.194,58.793-177.579,51.017-229.482c-0.272-1.815-0.269-3.17,1.285-3.558     c1.304-0.326,1.974,0.943,2.203,2.265c3.775,21.788-0.827,54.411-3.735,74.246c-0.237,1.619-0.767,3.201-0.933,4.823     c-1.962,19.17,1.859,42.303,7.192,60.8c12.223,42.388,21.492,47.192,23.444,54.878c6.183,24.345,15.689,24.024,23.357,24.094     c10.949,0.099,22.549-2.385,31.765-8.444c6.182-4.065,7.531-14.687,8.824-24.688c1.67-12.919,1.598-27.894,0.809-40.952     c-0.696-11.516-2.003-22.993-3.747-34.396c-2.257-14.76-5.251-29.404-8.786-43.91c-2.737-11.232-5.802-22.383-9.137-33.451     c-6.882-22.837-15.931-47.43-26.132-68.853c-3.877-8.142-9.584-20.215-30.357-37.223c-13.857-11.345-29.001-19.13-39.714-22.385     c-1.147-0.349-1.544-0.077-1.935,1.099c-3.107,9.347-12.069,20.751-26.702,27.97c-32.431,15.998-78.695,3.161-94.895-31.647     c-5.876-12.625-4.54-20.216-4.747-24.49c-0.087-1.788-3.14-1.32-4.542-1.501C137.235,74.508,0.517,164.049,37.383,269.585     c4.366,12.498,10.809,11.64,12.838,26.494c0.71,5.198,2.74,12.885,5.131,16.109c1.795,2.42,4.469,2.941,7.271,3.082     c11.672,0.591,24.971-2.985,36.576-11.196c4.176-2.955,4.882-9.763,5.699-14.397c3.999-22.682,0.481-55.684-7.619-77.284     c-4.702-12.537-11.255-29.82-12.055-44.409c-0.064-1.166,0.657-1.86,1.756-1.947c3.653-0.289-1.068,2.895,10.276,36.173     c1.161,3.403,1.779,3.434,3.304,2.579c9.602-5.379,24.9-9.129,35.703-7.061c1.755,0.336,1.872,0.224,2.676-1.539     c1.612-3.538,6.469-18.964,16.137-34.305c0.849-1.348,2.173-3.476,3.571-2.698c4.241,2.36-5.642,5.724-19.49,47.844     c-14.172,43.102-21.028,80.681-26.232,120.004c-1.976,14.927-6.674,63.988-2.314,77.571c2.837,8.839,9.384,10.646,21.89,15.139     C183.609,438.112,248.657,450.93,293.613,454.559z M251.145,133.735c25.638,16.924,62.179,16.477,83.358-4.76     c18.684-18.735,17.245-49.678-13.406-67.051c-12.132-6.876-37.427-13.609-58.557-10.443     C218.203,58.126,212.97,108.535,251.145,133.735z"/>
			<path style="fill:#000E3F;" d="M278.358,238.274c2.889-11.949,19.942-7.375,17.504,3.787     C293.467,253.024,275.592,249.712,278.358,238.274z"/>
			<path style="fill:#000E3F;" d="M235.374,228.657c2.479-12.041-14.898-15.17-17.449-4.033     C215.419,235.561,233.001,240.182,235.374,228.657z"/>
			<g>
				<path style="fill:#000E3F;" d="M250.183,263.537c-1.086-0.243-2.161-0.603-3.218-1.081c-9.679-4.377-12.568-16.897-9.195-25.843      c0.392-1.046,1.538-1.58,2.608-1.181c1.046,0.395,1.573,1.562,1.179,2.608c-2.727,7.231-0.533,17.286,7.076,20.727      c4.748,2.154,8.85,0.776,11.447-0.759c4.754-2.805,8.244-8.383,8.684-13.88c0.089-1.114,1.063-1.945,2.178-1.857      c1.134,0.093,1.945,1.066,1.857,2.179c-0.547,6.855-4.731,13.546-10.66,17.045C258.332,263.742,254.187,264.433,250.183,263.537      z"/>
			</g>
			<path style="fill:#000E3F;" d="M282.692,111.613c-8.365-2.331-15.315-6.696-20.241-14.023c-7.39-10.993-4.786-18.133-8.72-28.559     c-1.36-3.604-3.011-5.875-1.206-6.811c4.701-2.438,7.587,18.941,8.415,22.894c5.385,25.711,39.284,31.655,53.09,10.598     c3.362-5.128,9.412-13.912,14.733-16.879c1.432-0.798,3.579,1.366,1.412,3.098c-9.335,7.459-11.296,16.285-18.699,22.152     c-7.18,5.69-15.211,8.883-24.563,8.017C285.504,111.97,284.078,112.025,282.692,111.613z"/>
		</g>
	</g>
	<g>
		<path style="fill:#FD8A02;" d="M491.87,253.367c-1.857-0.83-3.189-1.348-4.449-2.003c-4.186-2.177-6.016-5.801-5.468-10.566    c0.441-3.827,2.232-7.079,4.232-10.256c0.849-1.349,1.813-2.649,2.476-4.086c1.874-4.061,0.088-7.876-4.216-9.155    c-2.069-0.615-4.214-0.595-6.35-0.561c-2.763,0.044-3.034-0.568-3.362-1.808c-0.391-1.482,0.654-2.868,2.716-3.329    c4.629-1.036,9.284-1.104,13.221,1.951c5.834,4.526,6.875,11.828,2.662,18.1c-1.699,2.53-3.272,5.092-4.281,7.952    c-1.213,3.436-0.623,4.8,2.673,6.391c1.598,0.771,3.298,1.328,4.921,2.052c2.819,1.259,5.269,3.041,6.798,5.766    c2.312,4.119,2.056,8.247-0.694,12.05c-1.894,2.618-3.485,5.366-4.666,8.355c-1.377,3.481-0.843,4.76,2.791,5.997    c2.345,0.798,4.793,1.32,7.224,1.831c1.496,0.314,2.61,1.035,3.443,2.275c0.891,1.328,0.448,2.935-0.983,3.537    c-1.168,0.491-2.405,0.792-3.647,0.587c-3.503-0.578-7.051-1.076-10.284-2.65c-5.418-2.638-7.216-7.104-5.355-12.806    c1.002-3.069,2.549-5.85,4.239-8.568c0.28-0.45,0.676-0.827,0.974-1.268c3.066-4.523,2.41-6.718-2.706-9.027    C492.971,253.762,492.129,253.469,491.87,253.367z"/>
		<path style="fill:#FD8A02;" d="M382.493,74.165c-2.034-0.023-3.462,0.032-4.879-0.068c-4.707-0.332-7.827-2.929-9.22-7.519    c-1.118-3.687-0.768-7.383-0.198-11.093c0.242-1.575,0.609-3.151,0.646-4.734c0.104-4.471-3.052-7.261-7.51-6.722    c-2.142,0.259-4.102,1.13-6.05,2.012c-2.517,1.14-3.01,0.686-3.803-0.321c-0.948-1.204-0.541-2.891,1.167-4.135    c3.835-2.792,8.079-4.706,12.906-3.469c7.153,1.832,11.012,8.117,9.641,15.547c-0.552,2.998-0.976,5.973-0.765,8.999    c0.254,3.635,1.338,4.652,4.995,4.799c1.773,0.072,3.554-0.094,5.331-0.074c3.087,0.034,6.044,0.694,8.531,2.586    c3.759,2.859,5.166,6.749,4.156,11.332c-0.696,3.156-1.063,6.31-0.958,9.521c0.122,3.741,1.12,4.703,4.946,4.392    c2.469-0.201,4.923-0.695,7.356-1.194c1.498-0.307,2.807-0.088,4.064,0.718c1.345,0.864,1.579,2.515,0.505,3.636    c-0.877,0.916-1.892,1.683-3.112,1.989c-3.444,0.863-6.897,1.817-10.489,1.659c-6.02-0.265-9.446-3.648-10.007-9.62    c-0.302-3.214,0.012-6.381,0.481-9.547c0.078-0.525,0.291-1.028,0.39-1.551c1.014-5.369-0.461-7.122-6.073-7.206    C383.659,74.09,382.77,74.156,382.493,74.165z"/>
		<path style="fill:#FD8A02;" d="M26.733,351.245c-2.008-0.326-3.428-0.485-4.814-0.794c-4.605-1.03-7.303-4.063-7.995-8.81    c-0.556-3.812,0.341-7.415,1.458-10.998c0.475-1.522,1.072-3.025,1.345-4.585c0.77-4.405-1.935-7.635-6.423-7.767    c-2.157-0.064-4.225,0.506-6.282,1.087c-2.659,0.752-3.079,0.229-3.713-0.885c-0.758-1.332-0.104-2.939,1.771-3.915    c4.208-2.189,8.69-3.449,13.279-1.506c6.8,2.878,9.679,9.668,7.216,16.811c-0.993,2.882-1.856,5.761-2.098,8.785    c-0.291,3.632,0.629,4.799,4.223,5.491c1.743,0.335,3.529,0.437,5.283,0.721c3.047,0.494,5.873,1.587,8.05,3.829    c3.291,3.388,4.102,7.443,2.42,11.825c-1.159,3.017-1.992,6.081-2.367,9.272c-0.438,3.718,0.406,4.817,4.236,5.08    c2.472,0.169,4.972,0.047,7.452-0.084c1.526-0.08,2.789,0.331,3.911,1.316c1.202,1.055,1.187,2.722-0.042,3.671    c-1.003,0.775-2.121,1.382-3.374,1.503c-3.534,0.34-7.091,0.769-10.619,0.077c-5.913-1.159-8.797-5.015-8.461-11.004    c0.181-3.223,0.963-6.308,1.899-9.369c0.155-0.507,0.441-0.973,0.617-1.475c1.803-5.158,0.606-7.111-4.931-8.031    C27.898,351.345,27.009,351.278,26.733,351.245z"/>
		<path style="fill:#FD8A02;" d="M108.597,63.654c0.4-1.994,0.612-3.408,0.972-4.781c1.2-4.563,4.331-7.147,9.101-7.663    c3.83-0.414,7.397,0.617,10.937,1.866c1.503,0.531,2.983,1.184,4.531,1.514c4.374,0.933,7.701-1.65,8-6.131    c0.144-2.153-0.349-4.241-0.853-6.318c-0.652-2.685-0.115-3.085,1.022-3.677c1.359-0.708,2.941,0.005,3.846,1.915    c2.031,4.286,3.123,8.812,1.011,13.326c-3.129,6.688-10.021,9.313-17.068,6.586c-2.842-1.1-5.687-2.069-8.7-2.423    c-3.619-0.425-4.819,0.451-5.644,4.017c-0.399,1.729-0.568,3.51-0.917,5.253c-0.607,3.027-1.804,5.81-4.125,7.902    c-3.508,3.163-7.59,3.823-11.907,1.98c-2.971-1.27-6.003-2.216-9.178-2.71c-3.699-0.575-4.829,0.227-5.234,4.045    c-0.261,2.463-0.231,4.966-0.193,7.45c0.023,1.528-0.434,2.775-1.46,3.86c-1.099,1.162-2.764,1.085-3.667-0.179    c-0.737-1.031-1.302-2.171-1.376-3.428c-0.209-3.544-0.505-7.115,0.317-10.615c1.379-5.866,5.339-8.604,11.311-8.046    c3.214,0.301,6.268,1.197,9.291,2.246c0.501,0.174,0.956,0.477,1.451,0.671c5.088,1.993,7.084,0.869,8.209-4.629    C108.454,64.814,108.555,63.928,108.597,63.654z"/>
		<path style="fill:#FD8A02;" d="M390.043,460.27c1.151-1.677,1.901-2.894,2.772-4.015c2.895-3.725,6.79-4.872,11.379-3.473    c3.685,1.123,6.561,3.472,9.325,6.011c1.174,1.078,2.279,2.26,3.573,3.172c3.656,2.575,7.731,1.507,9.765-2.496    c0.978-1.924,1.345-4.037,1.697-6.145c0.454-2.726,1.106-2.882,2.384-2.981c1.528-0.117,2.703,1.16,2.785,3.272    c0.185,4.74-0.588,9.33-4.303,12.653c-5.504,4.922-12.873,4.63-18.283-0.645c-2.182-2.128-4.418-4.136-7.05-5.645    c-3.161-1.812-4.609-1.478-6.768,1.477c-1.047,1.433-1.901,3.005-2.906,4.47c-1.747,2.546-3.941,4.635-6.897,5.647    c-4.468,1.531-8.482,0.535-11.727-2.855c-2.234-2.335-4.65-4.395-7.376-6.096c-3.176-1.982-4.53-1.688-6.402,1.664    c-1.208,2.163-2.163,4.477-3.103,6.775c-0.579,1.415-1.489,2.381-2.859,2.977c-1.466,0.637-2.968-0.088-3.302-1.604    c-0.273-1.238-0.345-2.508,0.08-3.693c1.199-3.342,2.329-6.741,4.46-9.637c3.571-4.854,8.289-5.817,13.562-2.958    c2.838,1.539,5.294,3.562,7.663,5.714c0.393,0.357,0.692,0.814,1.071,1.187c3.896,3.831,6.174,3.581,9.368-1.034    C389.456,461.281,389.896,460.505,390.043,460.27z"/>
	</g>
</g>















</svg>
