<?xml version="1.0" encoding="UTF-8"?>
<!-- Generator: Adobe Illustrator 25.2.1, SVG Export Plug-In . SVG Version: 6.00 Build 0)  -->
<svg xmlns="http://www.w3.org/2000/svg" xmlns:xlink="http://www.w3.org/1999/xlink" version="1.1" id="Capa_1" x="0px" y="0px" viewBox="0 0 512 512" style="enable-background:new 0 0 512 512;" xml:space="preserve" width="512" height="512">
<g>
	<g>
		<g>
			<path style="fill:#00D5FE;" d="M506.992,85.822v321.426c0,18.554-15.099,33.652-33.653,33.652H47     c-18.554,0-33.653-15.098-33.653-33.652V85.822c0-18.529,15.099-33.628,33.653-33.628h426.339     C491.893,52.194,506.992,67.293,506.992,85.822z"/>
		</g>
		<path style="fill:#FFCF00;" d="M473.339,64.714H47c-11.669,0-21.134,9.44-21.134,21.108v321.426    c0,11.693,9.465,21.133,21.134,21.133h426.339c11.669,0,21.134-9.44,21.134-21.133V85.822    C494.473,74.154,485.007,64.714,473.339,64.714z M206.999,319.587c-40.339,0-73.04-32.701-73.04-73.039    c0-40.338,32.701-73.039,73.04-73.039c40.313,0,73.013,32.7,73.013,73.039C280.012,286.885,247.312,319.587,206.999,319.587z"/>
		<g>
			<path style="fill:#007AF4;" d="M334.347,89.778c-20.982-17.077-45.471-30.022-72.212-37.584     c-17.503-4.983-36.007-7.636-55.136-7.636c-19.13,0-37.635,2.654-55.186,7.636C85.409,71.024,32.928,122.929,13.346,189.008     c-5.433,18.229-8.338,37.559-8.338,57.54c0,18.704,2.555,36.832,7.312,54.034c0.325,1.202,0.676,2.379,1.026,3.556     c19.606,66.053,72.088,117.959,138.467,136.763c17.552,4.983,36.056,7.637,55.186,7.637c19.129,0,37.633-2.654,55.185-7.637     c84.733-24.012,146.779-101.934,146.779-194.353C408.963,183.274,379.868,126.811,334.347,89.778z M206.999,319.587     c-40.339,0-73.04-32.701-73.04-73.039c0-40.338,32.701-73.039,73.04-73.039c40.313,0,73.013,32.7,73.013,73.039     C280.012,286.885,247.312,319.587,206.999,319.587z"/>
			<path style="fill:#007AF4;" d="M206.988,309.33c-34.617,0-62.781-28.164-62.781-62.782c0-34.619,28.164-62.784,62.781-62.784     c34.619,0,62.784,28.164,62.784,62.784C269.772,281.166,241.607,309.33,206.988,309.33z M206.988,187.52     c-32.546,0-59.025,26.479-59.025,59.028c0,32.547,26.479,59.026,59.025,59.026c32.549,0,59.028-26.479,59.028-59.026     C266.016,213.999,239.536,187.52,206.988,187.52z"/>
			<path style="fill:#007AF4;" d="M206.988,294.802c-26.606,0-48.254-21.647-48.254-48.254c0-26.608,21.648-48.255,48.254-48.255     c26.609,0,48.257,21.648,48.257,48.255C255.245,273.155,233.597,294.802,206.988,294.802z M206.988,202.048     c-24.535,0-44.498,19.963-44.498,44.499s19.963,44.498,44.498,44.498c24.538,0,44.501-19.962,44.501-44.498     S231.526,202.048,206.988,202.048z"/>
		</g>
		<g style="opacity:0.65;">
			<g>
				<path style="fill:#00328D;" d="M206.988,427.834c-99.961,0-181.286-81.324-181.286-181.286S107.027,65.26,206.988,65.26      c99.963,0,181.289,81.326,181.289,181.288S306.951,427.834,206.988,427.834z M206.988,69.016      c-97.889,0-177.53,79.641-177.53,177.532c0,97.891,79.641,177.53,177.53,177.53c97.892,0,177.533-79.64,177.533-177.53      C384.521,148.657,304.88,69.016,206.988,69.016z"/>
			</g>
			<g>
				<path style="fill:#00328D;" d="M206.986,403.016c-86.277,0-156.467-70.191-156.467-156.468      c0-55.085,28.118-105.079,75.217-133.735c0.883-0.539,2.037-0.258,2.58,0.628c0.54,0.885,0.259,2.04-0.628,2.58      c-45.968,27.97-73.413,76.765-73.413,130.527c0,84.206,68.505,152.712,152.711,152.712s152.714-68.507,152.714-152.712      c0-53.762-27.445-102.558-73.413-130.527c-0.888-0.539-1.169-1.695-0.629-2.58c0.538-0.886,1.695-1.166,2.58-0.628      c47.1,28.657,75.217,78.651,75.217,133.735C363.455,332.825,293.263,403.016,206.986,403.016z"/>
			</g>
			<g>
				<path style="fill:#00328D;" d="M206.986,380.406c-73.809,0-133.859-60.048-133.859-133.859      c0-44.729,22.205-86.32,59.399-111.256c0.866-0.577,2.03-0.346,2.607,0.515c0.577,0.861,0.347,2.027-0.513,2.605      c-36.153,24.237-57.737,64.663-57.737,108.136c0,71.739,58.365,130.103,130.103,130.103s130.103-58.364,130.103-130.103      c0-43.475-21.582-83.9-57.734-108.136c-0.861-0.578-1.091-1.745-0.514-2.605c0.577-0.861,1.741-1.092,2.607-0.515      c37.192,24.935,59.397,66.526,59.397,111.256C340.844,320.358,280.795,380.406,206.986,380.406z"/>
			</g>
		</g>
		<g>
			<path style="fill:#FF8EDE;" d="M418.929,444.982v14.197c0,5.96-4.807,10.767-10.741,10.767h-13.697     c-4.181,0-7.787-2.354-9.564-5.834c-0.776-1.477-1.203-3.155-1.203-4.933v-14.197H418.929z"/>
			<path style="fill:#FF8EDE;" d="M473.001,256.238V379.58c0,14.322-11.643,25.965-25.966,25.965h-0.024     c-10.292,0-19.205-6.009-23.412-14.723c-1.627-3.405-2.554-7.211-2.554-11.242V256.238c0-8.989,4.582-16.901,11.543-21.584     c4.131-2.779,9.09-4.382,14.423-4.382h0.024c4.532,0,8.814,1.152,12.52,3.23c0.652,0.35,1.278,0.726,1.904,1.152     C468.419,239.336,473.001,247.248,473.001,256.238z"/>
			<path style="fill:#FF8EDE;" d="M352.401,302.335c-0.526,1.352-0.05,2.854,1.127,3.681l7.261,5.183     c0.851,0.626,1.327,1.603,1.327,2.604c0,0.526-0.125,1.052-0.426,1.528c-0.826,1.502-2.729,2.053-4.231,1.227l-12.044-6.435     c-0.951-0.526-2.078-0.526-3.03,0l-42.667,23.612c-0.726,0.401-1.577,0.501-2.303,0.301c-0.776-0.175-1.402-0.626-1.878-1.302     l-9.44-14.122c-0.425-0.651-0.626-1.377-0.526-2.078c0.05-0.801,0.476-1.602,1.152-2.154l60.995-48.4     c0.826-0.651,1.878-0.851,2.855-0.576h0.026c0.249,0.075,0.45,0.15,0.65,0.275l9.34,5.233l0.476,0.275     c1.352,0.751,1.978,2.404,1.402,3.856L352.401,302.335z"/>
			<path style="fill:#FF8EDE;" d="M471.962,97.64l-38.51,68.782c-2.179,3.931-7.162,5.333-11.093,3.13l-3.831-2.154l-9.965-5.559     l-3.832-2.153c-3.104-1.728-4.633-5.158-4.081-8.463c0.15-0.902,0.451-1.803,0.927-2.654l38.51-68.782     c2.203-3.931,7.161-5.333,11.093-3.13l17.652,9.865c0.05,0.026,0.125,0.075,0.175,0.125     C472.813,88.877,474.141,93.759,471.962,97.64z"/>
		</g>
		<path style="opacity:0.25;fill:#00328D;" d="M408.963,246.548c0,111.549-90.416,201.99-201.964,201.99    c-92.821,0-171.042-62.623-194.679-147.955c6.985-6.135,15.949-9.791,25.238-8.113c17.052,3.055,24.088,25.691,31.074,39.036    c7.086,13.546,17.403,25.215,28.394,35.681c50.604,48.075,112.176,52.707,172.745,26.992    c23.962-10.166,46.948-23.913,64.826-43.067c52.119-55.903,40.008-142.84,1.576-201.881c-11.152-17.133-21.81-43.944-1.827-59.452    C379.868,126.811,408.963,183.274,408.963,246.548z"/>
		<g>
			
				<ellipse transform="matrix(0.7071 -0.7071 0.7071 0.7071 -113.7094 218.5753)" style="fill:#FFFFFF;" cx="206.989" cy="246.547" rx="24.598" ry="24.598"/>
			<rect x="421.045" y="277.22" style="fill:#FFFFFF;" width="51.956" height="14.397"/>
			<rect x="421.045" y="348.581" style="fill:#FFFFFF;" width="51.956" height="14.397"/>
			<path style="fill:#FFFFFF;" d="M417.301,169.578l-54.259,96.976l-9.289-5.208c-0.251-0.15-0.476-0.25-0.676-0.35l54.259-96.976     L417.301,169.578z"/>
		</g>
		<g>
			<path style="fill:#FC09B2;" d="M468.874,469.94h-26.942c-2.28,0-4.127-1.848-4.127-4.128v-20.83h35.197v20.83     C473.001,468.092,471.154,469.94,468.874,469.94z"/>
			<path style="fill:#FC09B2;" d="M193.944,246.547c0,7.205,5.841,13.045,13.045,13.045c7.205,0,13.045-5.841,13.045-13.045     c0-7.205-5.841-13.045-13.045-13.045C199.784,233.502,193.944,239.342,193.944,246.547z"/>
			<path style="fill:#FC09B2;" d="M151.735,139.626c-7.244-3.46-8.768-9.898-5.506-14.49c9.586-13.495,39.721-7.426,34.337,7.455     C177.948,139.825,163.283,145.143,151.735,139.626z"/>
			<path style="fill:#FC09B2;" d="M262.243,139.626c7.244-3.46,8.768-9.898,5.506-14.49c-9.586-13.495-39.721-7.426-34.337,7.455     C236.03,139.825,250.695,145.143,262.243,139.626z"/>
			<rect x="421.057" y="291.618" style="fill:#FC09B2;" width="51.956" height="56.964"/>
			<path style="fill:#FC09B2;" d="M471.962,97.64l-10.692,19.104l-8.212-4.581l-23.662-13.271l10.692-19.105     c2.203-3.931,7.161-5.333,11.093-3.13l17.652,9.865c0.05,0.026,0.125,0.075,0.175,0.125c0.326,0.175,0.626,0.401,0.902,0.626     c0.251,0.176,0.476,0.401,0.701,0.626c0.1,0.075,0.176,0.15,0.251,0.251c0.201,0.2,0.375,0.425,0.526,0.626     c0.426,0.551,0.751,1.127,1.001,1.753c0,0.025,0.026,0.05,0.026,0.075c0.125,0.3,0.225,0.601,0.3,0.902     C473.264,93.509,473.064,95.687,471.962,97.64z"/>
			<path style="fill:#FC09B2;" d="M345.803,287.561c-7.086,10.116-33.953,33.928-48.401,46.473     c-0.752-0.175-1.402-0.626-1.853-1.302l-9.464-14.122c-0.426-0.651-0.602-1.377-0.526-2.078     c34.303-15.574,56.262-41.615,61.946-36.581C350.009,282.153,347.18,285.608,345.803,287.561z"/>
			<path style="fill:#FC09B2;" d="M360.722,469.94H333.78c-2.28,0-4.128-1.848-4.128-4.128v-20.83h35.197v20.83     C364.85,468.092,363.002,469.94,360.722,469.94z"/>
		</g>
		<g style="opacity:0.5;">
			<path style="fill:#FC09B2;" d="M473.013,256.237v35.381h-13.922c1.053-23.236,0.526-44.995,0.451-58.115     c0.676,0.35,1.302,0.726,1.928,1.152C468.407,239.336,473.013,247.249,473.013,256.237z"/>
			<path style="fill:#FC09B2;" d="M452.031,348.582h20.982v30.998c0,14.323-11.643,25.966-25.99,25.966     c-5.158,0-9.965-1.503-13.997-4.082c-4.032-2.604-7.311-6.284-9.415-10.642C438.059,386.867,446.798,370.116,452.031,348.582z"/>
			<path style="fill:#FC09B2;" d="M461.27,116.745l-27.818,49.678c-2.179,3.931-7.162,5.333-11.093,3.13l-3.831-2.154l-9.965-5.559     l-3.832-2.153c-3.104-1.728-4.633-5.158-4.081-8.463c23.837-8.638,40.813-24.188,52.407-39.061L461.27,116.745z"/>
			<path style="fill:#FC09B2;" d="M418.929,444.982v14.197c0,5.96-4.807,10.767-10.741,10.767h-13.697     c-4.181,0-7.787-2.354-9.564-5.834c10.642-5.358,18.127-12.945,22.885-19.13H418.929z"/>
		</g>
		<g style="opacity:0.25;">
			<path style="fill:#000E3F;" d="M473.013,291.618v56.964h-20.982c4.231-17.277,6.184-37.634,7.061-56.964H473.013z"/>
			<path style="fill:#000E3F;" d="M471.962,97.64l-10.692,19.104l-8.212-4.581c7.361-9.44,12.544-18.58,15.949-25.515     c0.326,0.175,0.626,0.401,0.902,0.626c0.35,0.251,0.65,0.551,0.925,0.852c0.201,0.225,0.401,0.425,0.551,0.651     c0.426,0.551,0.751,1.127,1.001,1.753C473.314,92.758,473.238,95.361,471.962,97.64z"/>
			<path style="fill:#000E3F;" d="M365.505,444.982v14.197c0,5.96-4.807,10.767-10.741,10.767h-13.697     c-4.181,0-7.787-2.354-9.565-5.834c10.642-5.358,18.128-12.945,22.885-19.13H365.505z"/>
			<path style="fill:#000E3F;" d="M473.013,444.982v14.197c0,5.96-4.807,10.767-10.741,10.767h-13.697     c-4.181,0-7.787-2.354-9.564-5.834c10.642-5.358,18.128-12.945,22.885-19.13H473.013z"/>
		</g>
	</g>
	<g>
		<path style="fill:#000E3F;" d="M473.339,47.186H262.761c-17.728-4.983-36.457-7.636-55.762-7.636    c-19.306,0-38.034,2.654-55.788,7.636H47c-21.309,0-38.661,17.328-38.661,38.636v102.51C2.905,206.81,0,226.341,0,246.548    c0,20.206,2.905,39.737,8.338,58.216v102.485c0,21.308,17.353,38.66,38.661,38.66h104.212c17.753,4.983,36.481,7.637,55.788,7.637    c19.305,0,38.034-2.654,55.762-7.637h64.4v13.271c0,7.312,5.935,13.271,13.246,13.271h13.697c7.311,0,13.244-5.959,13.244-13.271    v-13.271h13.872v13.271c0,7.312,5.96,13.271,13.246,13.271h13.723c7.286,0,13.245-5.959,13.245-13.271v-13.271h13.872v13.271    c0,7.312,5.935,13.271,13.246,13.271h13.697c7.311,0,13.27-5.959,13.27-13.271v-13.346C495.825,444.707,512,427.83,512,407.248    V85.822C512,64.514,494.648,47.186,473.339,47.186z M13.346,85.822c0-18.529,15.099-33.628,33.653-33.628h88.713    C79.424,72.901,34.555,117.421,13.346,173.434V85.822z M47,440.901c-18.554,0-33.653-15.098-33.653-33.652v-87.587    c21.209,56.012,66.078,100.532,122.366,121.239H47z M362.34,459.179c0,4.558-3.704,8.263-8.237,8.263h-13.697    c-4.557,0-8.238-3.706-8.238-8.263v-13.271h30.172V459.179z M416.425,459.179c0,4.558-3.706,8.263-8.237,8.263h-13.723    c-4.531,0-8.238-3.706-8.238-8.263v-13.271h30.197V459.179z M470.51,459.179c0,4.558-3.706,8.263-8.263,8.263H448.55    c-4.532,0-8.238-3.706-8.238-8.263v-11.693h30.197V459.179z M506.992,407.248c0,18.554-15.099,33.652-33.653,33.652H278.284    c79.124-29.12,135.687-105.264,135.687-194.353c0-19.706-2.753-38.76-7.937-56.839l-3.479,6.21    c4.181,16.175,6.409,33.152,6.409,50.629c0,92.419-62.046,170.341-146.779,194.353c-7.36,2.103-14.923,3.781-22.61,5.008    c-10.591,1.728-21.484,2.629-32.575,2.629c-11.093,0-21.985-0.901-32.577-2.629c-7.686-1.227-15.248-2.904-22.61-5.008    C85.409,422.072,32.928,370.165,13.346,304.087c-2.053-6.81-3.706-13.797-5.008-20.883c-2.203-11.894-3.33-24.137-3.33-36.657    c0-12.52,1.127-24.764,3.33-36.658c1.302-7.086,2.955-14.072,5.008-20.882C32.928,122.929,85.409,71.024,151.813,52.194    c7.361-2.103,14.923-3.781,22.61-5.008c10.592-1.728,21.484-2.629,32.577-2.629c11.091,0,21.984,0.901,32.575,2.629    c7.687,1.227,15.25,2.905,22.61,5.008c63.6,18.029,114.429,66.429,135.813,128.526l3.206-5.734    c-20.958-56.763-66.128-101.884-122.918-122.792h195.054c18.554,0,33.653,15.099,33.653,33.628V407.248z"/>
		<path style="fill:#000E3F;" d="M224.2,102.122c0,0,0,0-0.024,0c-1.377,0-2.479,1.127-2.479,2.504    c0.076,8.138-4.681,17.252-13.671,18.129c-4.657,0.451-7.937-1.603-9.89-3.406c-3.706-3.48-5.985-9.214-5.834-14.673    c0.024-1.377-1.051-2.528-2.429-2.554c-1.427-0.099-2.554,1.052-2.579,2.429c-0.201,6.911,2.654,13.997,7.437,18.454    c3.429,3.18,7.536,4.832,11.968,4.832c0.6,0,1.226-0.024,1.828-0.099c11.944-1.177,18.278-12.795,18.178-23.136    C226.704,103.224,225.578,102.122,224.2,102.122z"/>
		<path style="fill:#000E3F;" d="M164.383,90.079c-6.059-0.2-12.07,5.834-11.368,11.467c-0.476,6.185,5.208,11.318,10.967,11.493    c7.061,0.226,11.969-5.759,11.944-11.343C175.875,94.836,170.566,90.254,164.383,90.079z"/>
		<path style="fill:#000E3F;" d="M249.54,90.104c-6.334,0.025-11.518,5.158-11.493,11.843c0.024,5.659,5.358,11.493,11.693,11.017    c5.383,0.501,11.492-5.183,11.344-11.593C260.932,95.162,255.675,90.104,249.54,90.104z"/>
		<path style="fill:#000E3F;" d="M475.092,90.755c-0.751-2.755-2.554-5.033-5.032-6.41l-17.653-9.865    c-5.108-2.88-11.643-1.052-14.522,4.081l-38.485,68.782c-2.879,5.133-1.027,11.669,4.107,14.523l3.83,2.153l9.965,5.559    l3.832,2.153c1.652,0.927,3.429,1.377,5.183,1.377c3.756,0,7.386-1.978,9.34-5.458l38.485-68.782    C475.543,96.363,475.868,93.483,475.092,90.755z M469.783,96.414l-38.51,68.782c-0.726,1.327-1.954,2.278-3.405,2.679    c-1.452,0.426-2.979,0.225-4.282-0.501l-17.653-9.865c-2.704-1.527-3.68-4.983-2.153-7.712l38.485-68.782    c1.026-1.853,2.954-2.879,4.958-2.879c0.927,0,1.878,0.226,2.753,0.701l17.628,9.865c1.328,0.751,2.279,1.953,2.68,3.405    C470.686,93.559,470.51,95.086,469.783,96.414z"/>
		<path style="fill:#000E3F;" d="M363.518,266.829l-0.426-0.251l-0.05-0.025l-9.289-5.208c-0.251-0.15-0.476-0.25-0.676-0.35    c-0.375-0.15-0.701-0.276-0.901-0.351c-0.076-0.025-0.15-0.05-0.226-0.05c-0.725-0.225-1.477-0.325-2.228-0.325    c-1.853,0-3.657,0.626-5.108,1.778l-60.995,48.401c-1.753,1.427-2.855,3.48-3.055,5.609c-0.175,1.778,0.275,3.681,1.327,5.283    l9.49,14.172c1.152,1.703,2.855,2.904,4.808,3.38c0.651,0.175,1.302,0.251,1.978,0.251c1.378,0,2.755-0.351,3.956-1.027    l41.816-23.111l11.142,5.96c1.153,0.626,2.504,0.976,3.856,0.976c2.955,0,5.684-1.577,7.136-4.131    c0.676-1.177,1.051-2.579,1.051-4.006c0-2.604-1.277-5.082-3.379-6.635l-6.185-4.407l9.615-25.991    C368.576,273.064,367.023,268.782,363.518,266.829z M362.466,275.042l-10.066,27.293c-0.526,1.352-0.05,2.854,1.127,3.681    l7.261,5.183c0.851,0.626,1.327,1.603,1.327,2.604c0,0.526-0.125,1.052-0.426,1.528c-0.576,1.026-1.653,1.602-2.754,1.602    c-0.5,0-1.026-0.125-1.477-0.375l-12.044-6.435c-0.476-0.275-0.977-0.401-1.503-0.401c-0.526,0-1.051,0.125-1.527,0.401    l-42.667,23.612c-0.501,0.276-1.027,0.401-1.553,0.401c-0.249,0-0.5-0.025-0.751-0.1c-0.776-0.175-1.402-0.626-1.878-1.302    l-9.44-14.122c-0.425-0.651-0.626-1.377-0.526-2.078c0.05-0.801,0.476-1.602,1.152-2.154l60.97-48.4    c0.6-0.451,1.302-0.701,2.028-0.701c0.275,0,0.576,0.05,0.851,0.125h0.026c0.249,0.075,0.45,0.15,0.65,0.275l9.34,5.233    l0.476,0.275C362.416,271.937,363.042,273.59,362.466,275.042z"/>
	</g>
</g>















</svg>
