<?xml version="1.0" encoding="UTF-8"?>
<!-- Generator: Adobe Illustrator 25.2.1, SVG Export Plug-In . SVG Version: 6.00 Build 0)  -->
<svg xmlns="http://www.w3.org/2000/svg" xmlns:xlink="http://www.w3.org/1999/xlink" version="1.1" id="Capa_1" x="0px" y="0px" viewBox="0 0 512 512" style="enable-background:new 0 0 512 512;" xml:space="preserve" width="512" height="512">
<g>
	<g>
		<g>
			<g>
				<rect x="90.799" y="120.389" style="fill:#00D5FE;" width="325.29" height="321.707"/>
				<path style="fill:#00D5FE;" d="M302.552,51.491V96.29h-98.233V51.491c0-13.558,5.505-25.843,14.4-34.738      c8.873-8.873,21.157-14.379,34.716-14.379C280.552,2.375,302.552,24.375,302.552,51.491z"/>
			</g>
			<g>
				<g>
					<path style="fill:#FC09B2;" d="M270.835,77.83c-3.381-3.949-0.572-9.081,3.948-10.862c7.006-2.76,13.922-0.621,16.79,2.776       C299.267,78.858,279.04,87.412,270.835,77.83z"/>
					<path style="fill:#FC09B2;" d="M236.036,77.83c3.381-3.949,0.572-9.081-3.948-10.862c-7.006-2.76-13.922-0.621-16.79,2.776       C207.604,78.858,227.831,87.412,236.036,77.83z"/>
				</g>
			</g>
			<g>
				<path style="fill:#007AF4;" d="M158.698,443.348v7.125c0,6.11-4.944,11.054-11.032,11.054h-23.748      c-5.549,0-10.255,4.124-10.947,9.629l-3.649,28.239c-0.713,5.506-5.397,9.629-10.945,9.629H84.948      c-3.044,0-5.808-1.231-7.816-3.238c-2.007-2.008-3.238-4.771-3.238-7.816c0-0.734,0.065-1.447,0.216-2.137      c0.453-2.245,1.576-4.34,3.282-5.915l4.685-4.361c1.922-1.813,3.131-4.253,3.434-6.865l3.865-35.342H158.698z"/>
				<path style="fill:#007AF4;" d="M432.994,497.969c0,3.044-1.23,5.808-3.238,7.816c-2.008,2.008-4.771,3.238-7.816,3.238h-13.428      c-5.548,0-10.234-4.124-10.945-9.629l-3.65-28.239c-0.69-5.505-5.397-9.629-10.946-9.629h-23.749      c-6.088,0-11.032-4.944-11.032-11.054v-7.125h69.324l3.865,35.342c0.302,2.612,1.511,5.052,3.432,6.865l4.685,4.361      c1.706,1.576,2.828,3.67,3.282,5.915C432.929,496.523,432.994,497.235,432.994,497.969z"/>
				<path style="fill:#007AF4;" d="M280.42,368.41c0,2.98-0.907,5.808-2.526,8.355c-4.297-7.945-13.623-13.45-24.461-13.45      c-10.817,0-20.143,5.506-24.461,13.45c-1.619-2.547-2.526-5.376-2.526-8.355c0-10.881,12.09-19.711,26.987-19.711      C268.352,348.699,280.42,357.529,280.42,368.41z"/>
				<path style="fill:#007AF4;" d="M361.122,287.104v24.332c0,4.188-3.411,7.6-7.599,7.6H153.365c-3.087,0-5.764-1.857-6.93-4.513      c-0.432-0.95-0.669-1.986-0.669-3.087v-26.124c0-60.084,49.44-108.833,109.762-107.667c27.655,0.518,52.592,11.68,71.288,29.448      C347.974,227.193,361.122,255.799,361.122,287.104z"/>
			</g>
			<g style="opacity:0.25;">
				<path style="fill:#00328D;" d="M158.698,443.348v7.125c0,6.11-4.944,11.054-11.032,11.054h-23.748      c-5.549,0-10.255,4.124-10.947,9.629l-3.649,28.239c-0.713,5.506-5.397,9.629-10.945,9.629H84.948      c-3.044,0-5.808-1.231-7.816-3.238c-2.007-2.008-3.238-4.771-3.238-7.816c0-0.734,0.065-1.447,0.216-2.137      c11.528-5.678,26.059-16.451,26.059-34.673c0-6.563,2.05-12.522,5.245-17.811H158.698z"/>
				<path style="fill:#00328D;" d="M432.994,497.969c0,3.044-1.23,5.808-3.238,7.816c-2.008,2.008-4.771,3.238-7.816,3.238h-13.428      c-5.548,0-10.234-4.124-10.945-9.629l-3.65-28.239c-0.69-5.505-5.397-9.629-10.946-9.629h-23.749      c-6.088,0-11.032-4.944-11.032-11.054v-7.125h53.283c3.195,5.29,5.246,11.248,5.246,17.811c0,18.222,14.53,28.995,26.058,34.673      C432.929,496.523,432.994,497.235,432.994,497.969z"/>
				<path style="fill:#00328D;" d="M361.124,287.098v24.332c0,4.189-3.411,7.599-7.6,7.599H153.367c-3.088,0-5.764-1.856-6.93-4.512      c6.93-12.652,24.936-32.147,69.194-27.699c53.629,5.397,104.904-23.252,111.186-79.73      C347.977,227.187,361.124,255.793,361.124,287.098z"/>
				<path style="fill:#00328D;" d="M416.089,132.997v272.741H90.799c0,0,16.408-37.177,105.962-35.018      c37.522,0.907,98.795,2.396,136.77,0.216c11.831-0.67,27.742,0.453,37.588-6.952c9.996-7.556,11.982-21.309,12.888-32.665      c4.664-58.335-5.505-152.53,24.807-191.608C410.994,136.905,413.456,134.659,416.089,132.997z"/>
			</g>
			<path style="fill:#FFCF00;" d="M292.132,301.072c-1.672,0.95-3.447,1.858-5.304,2.704c-24.729,11.292-58.087,8.401-79.761-7.926     c-2.972-2.25-5.924-4.995-8.607-8.009c-7.246-8.133-12.55-18.268-11.085-26.112c0.433-2.333,1.527-3.117,2.373-3.344     c0.867-0.248,2.25-0.124,3.984,1.775c3.035,3.365,12.921,13.459,24.79,17.401c1.136,0.371,2.064-0.97,1.342-1.92     c-1.218-1.569-2.455-3.096-3.57-5.036c-11.333-19.692-10.425-44.504-4.335-45.743c3.777-0.784,5.779,5.883,9.041,9.681     c6.585,7.659,13.892,14.264,23.263,18.165c1.383,0.557,2.126-0.165,2.229-1.528c0.288-3.715-1.424-12.756-2.704-16.699     c-4.768-14.862-17.298-23.243-16.184-37.362c0.785-9.722,5.45-10.631,8.299-4.995c4.149,8.133,13.623,8.587,24.027,26.711     c8.154,14.325,7.019,23.738,8.215,23.552c2.416-0.144,4.583-8.195,5.264-12.529c0.928-5.718,1.155-11.539,1.507-17.319     c0.289-4.686,0.371-9.722,1.899-14.202c0.599-1.713,1.672-3.778,3.777-3.674c2.848,0.227,3.117,4.727,3.571,5.965     c4.231,12.406,15.749,20.539,3.488,40.231c-0.971,1.527,0.495,3.406,2.208,2.807c0.929-0.31,1.899-0.619,2.869-0.867     c16.121-4.314,16.389-8.71,19.115-6.337c0.639,0.537,0.928,1.362,0.804,2.271c-0.991,7.018-8.67,12.467-13.252,17.422     c-4.314,4.789-11.064,13.355-12.509,21.777c-0.185,1.094,1.176,1.796,2.003,1.074c6.667-5.821,13.211-10.775,24.936-15.172     c0.825-0.31,1.733-0.599,2.703-0.393C321.939,264.639,316.53,287.345,292.132,301.072z"/>
			<path style="fill:#FD8A02;" d="M292.132,301.072c-1.672,0.95-3.447,1.858-5.304,2.704c-24.729,11.292-58.087,8.401-79.761-7.926     c-2.972-2.25-5.924-4.995-8.607-8.009c-1.713-3.406-2.767-7.018,0-7.431c4.149-0.681,20.766,16.245,43.079,15.791     c0.434-0.021,6.668-0.31,5.099-1.589c-2.436-1.982-4.541-4.335-6.77-6.543c-14.057-13.665-20.519-30.736-20.519-38.497     c0-2.064,1.961-2.415,2.725-0.909c4.252,8.525,18.227,21.096,29.724,23.326c2.704,0.537,2.993,0.413,4.005-2.725     c5.8-18.371-13.52-58.045-12.653-59.201c1.548-2.085,9.929,12.282,10.713,13.5c11.704,18.288,11.663,33.894,12.282,37.465     c2.724-20.085,11.538-22.252,14.16-32.986c3.592-12.406-0.536-14.945,1.052-17.236c1.672-2.456,3.179,2.395,3.612,3.633     c6.09,17.277-4.582,29.724-8.876,44.565c-0.248,0.908-0.433,3.22-0.991,4.087c9.722-10.197,27.329-20.394,27.309-17.132     c0,0.97-8.174,8.628-8.855,9.247c-13.025,11.58-20.477,30.922-18.412,36.226c4.438,11.684,26.112-14.841,34.575-17.814     C313.806,272.174,302.02,291.577,292.132,301.072z"/>
			<g>
				<path style="fill:#FFFFFF;" d="M220.142,318.43c-0.195,0.216-0.389,0.41-0.583,0.605h-33.162      c-3.066-3.045-4.619-6.909-4.059-10.968c1.102-7.988,10.298-13.882,20.64-13.882c8.463,0,16.171,3.951,19.28,9.759      c0.69,1.295,1.166,2.677,1.36,4.124C224.158,311.845,222.819,315.494,220.142,318.43z"/>
				<path style="fill:#FFFFFF;" d="M292.402,312.45c0,2.353-0.756,4.577-2.073,6.585H252.72c-0.323,0.475-0.669,0.95-1.079,1.403      c-0.389-0.453-0.756-0.928-1.079-1.403c-1.317-2.008-2.072-4.232-2.072-6.585c0-2.893,1.123-5.592,3.066-7.902      c3.844-4.534,10.86-7.556,18.891-7.556c8.636,0,16.106,3.497,19.69,8.593C291.582,307.657,292.402,309.989,292.402,312.45z"/>
				<path style="fill:#FFFFFF;" d="M254.793,312.536c0,2.331-0.734,4.555-2.073,6.498c-0.323,0.475-0.669,0.95-1.079,1.403      c-0.389-0.453-0.756-0.928-1.079-1.403h-30.03c-0.152-0.194-0.281-0.41-0.389-0.605c-1.079-1.792-1.684-3.8-1.684-5.894      c0-3.217,1.425-6.218,3.8-8.593c3.325-3.303,8.528-5.44,14.357-5.44c6.196,0,11.68,2.396,14.94,6.045      C253.606,306.815,254.793,309.578,254.793,312.536z"/>
				<path style="fill:#FFFFFF;" d="M325.995,312.191c0,2.483-0.885,4.815-2.418,6.844h-33.248c-1.533-2.029-2.417-4.361-2.417-6.844      c0-2.375,0.82-4.62,2.223-6.606c3.216-4.426,9.542-7.427,16.818-7.427C317.468,298.158,325.995,304.44,325.995,312.191z"/>
			</g>
			<g>
				<path style="fill:#00328D;" d="M213.936,346.948c-34.227-2.407-68.668-2.416-102.897-0.024c-2.878,0.275-2.878,2.3,0,2.575      c34.229,2.391,68.67,2.383,102.897-0.024C216.354,349.24,216.354,347.184,213.936,346.948z"/>
				<path style="fill:#00328D;" d="M201.79,370.878c1.123-1.521,2.71-5.037,3.536-9.591c0.256-1.413,0.046-2.542-2.627-2.742      c-1.671-0.123-7.849-0.102-9.487,0.192c-1.267,0.242-1.789,1.024-1.529,2.439c0.671,3.667,1.454,7.676,3.624,10.37      C197.321,374.032,199.879,373.487,201.79,370.878z"/>
				<path style="fill:#00328D;" d="M177.659,370.878c1.123-1.521,2.71-5.037,3.535-9.591c0.256-1.413,0.047-2.542-2.627-2.742      c-1.671-0.123-7.85-0.102-9.486,0.192c-1.267,0.242-1.789,1.024-1.531,2.439c0.672,3.667,1.455,7.676,3.625,10.37      C173.19,374.032,175.746,373.487,177.659,370.878z"/>
				<path style="fill:#00328D;" d="M153.527,370.878c1.124-1.521,2.71-5.037,3.536-9.591c0.256-1.413,0.046-2.542-2.627-2.742      c-1.671-0.123-7.849-0.102-9.486,0.192c-1.267,0.242-1.789,1.024-1.531,2.439c0.672,3.667,1.455,7.676,3.624,10.37      C149.059,374.032,151.615,373.487,153.527,370.878z"/>
				<path style="fill:#00328D;" d="M129.395,370.878c1.123-1.521,2.71-5.037,3.536-9.591c0.255-1.413,0.046-2.542-2.627-2.742      c-1.671-0.123-7.85-0.102-9.486,0.192c-1.267,0.242-1.789,1.024-1.529,2.439c0.671,3.667,1.454,7.676,3.624,10.37      C124.927,374.032,127.483,373.487,129.395,370.878z"/>
				<path style="fill:#00328D;" d="M111.039,384.699c34.229,2.391,68.67,2.383,102.897-0.024c2.417-0.236,2.417-2.291,0-2.526      c-34.227-2.408-68.668-2.416-102.897-0.024C108.161,382.4,108.161,384.424,111.039,384.699z"/>
				<path style="fill:#00328D;" d="M396.198,346.948c-34.228-2.407-68.668-2.416-102.897-0.024c-2.878,0.275-2.878,2.3,0,2.575      c34.229,2.391,68.669,2.383,102.897-0.024C398.614,349.24,398.615,347.184,396.198,346.948z"/>
				<path style="fill:#00328D;" d="M384.05,370.878c1.124-1.521,2.71-5.037,3.536-9.591c0.256-1.413,0.046-2.542-2.627-2.742      c-1.671-0.123-7.849-0.102-9.486,0.192c-1.267,0.242-1.789,1.024-1.531,2.439c0.671,3.667,1.455,7.676,3.624,10.37      C379.583,374.032,382.139,373.487,384.05,370.878z"/>
				<path style="fill:#00328D;" d="M359.919,370.878c1.123-1.521,2.71-5.037,3.536-9.591c0.256-1.413,0.046-2.542-2.627-2.742      c-1.671-0.123-7.849-0.102-9.487,0.192c-1.267,0.242-1.789,1.024-1.53,2.439c0.671,3.667,1.454,7.676,3.624,10.37      C355.45,374.032,358.008,373.487,359.919,370.878z"/>
				<path style="fill:#00328D;" d="M335.788,370.878c1.123-1.521,2.71-5.037,3.535-9.591c0.256-1.413,0.047-2.542-2.627-2.742      c-1.671-0.123-7.849-0.102-9.485,0.192c-1.267,0.242-1.789,1.024-1.531,2.439c0.671,3.667,1.455,7.676,3.624,10.37      C331.319,374.032,333.876,373.487,335.788,370.878z"/>
				<path style="fill:#00328D;" d="M311.656,370.878c1.124-1.521,2.71-5.037,3.536-9.591c0.256-1.413,0.046-2.542-2.627-2.742      c-1.671-0.123-7.849-0.102-9.486,0.192c-1.267,0.242-1.789,1.024-1.531,2.439c0.671,3.667,1.455,7.676,3.624,10.37      C307.188,374.032,309.744,373.487,311.656,370.878z"/>
				<path style="fill:#00328D;" d="M293.3,384.699c34.229,2.391,68.669,2.383,102.897-0.024c2.416-0.236,2.417-2.291,0-2.526      c-34.228-2.408-68.668-2.416-102.897-0.024C290.422,382.4,290.422,384.424,293.3,384.699z"/>
				<path style="fill:#00328D;" d="M376.234,320.891V285.29c0-67.834-54.967-122.801-122.801-122.801      c-67.813,0-122.78,54.967-122.78,122.801v35.601c0,7.297,5.937,13.235,13.235,13.235H363      C370.297,334.126,376.234,328.189,376.234,320.891z M343.041,226.586c-7.471,1.192-19.446,4.973-28.819,16.698      c-1.485-15.517-6.424-29.655-13.798-41.058c5.4-1.763,11.115-2.812,17.04-3.039c3.26,2.466,6.393,5.093,9.353,7.906      C332.947,212.917,338.38,219.474,343.041,226.586z M253.683,180.409c0.027,0,0.053-0.007,0.079-0.008      c0.026,0,0.052,0.008,0.079,0.008c14.038,0,26.851,7.148,36.51,18.862c-17.318,8.187-30.726,23.331-36.59,41.808      c-5.864-18.477-19.271-33.62-36.59-41.807C226.831,187.557,239.643,180.409,253.683,180.409z M211.014,196.715      c-4.329-1.555-8.857-2.687-13.533-3.355c9.87-6.031,20.778-10.51,32.392-13.113      C222.801,184.173,216.417,189.797,211.014,196.715z M278.176,180.557c11.105,2.663,21.519,7.075,30.973,12.927      c-4.361,0.681-8.586,1.775-12.641,3.231C291.241,189.971,285.037,184.467,278.176,180.557z M250.523,262.023v56.715      c0,0.102,0.021,0.198,0.029,0.297h-51.37c0.065-0.255,0.11-0.518,0.11-0.793v-65.127c0-18.633,5.276-35.645,13.929-48.524      C235.177,214.415,250.523,236.453,250.523,262.023z M256.999,318.738v-56.715c0-25.569,15.346-47.608,37.303-57.433      c8.653,12.88,13.928,29.892,13.928,48.525v65.127c0,0.275,0.044,0.538,0.11,0.793h-51.37      C256.978,318.935,256.999,318.839,256.999,318.738z M188.934,199.158c6.326,0.13,12.425,1.193,18.164,3.067      c-7.373,11.404-12.313,25.54-13.798,41.057c-9.857-12.332-22.592-15.874-29.94-16.861      C170.249,215.917,178.911,206.685,188.934,199.158z M146.435,314.522c-0.432-0.95-0.669-1.986-0.669-3.087v-26.124      c0-19.152,5.04-37.141,13.838-52.74c5.678,0.328,23.177,2.91,33.211,21.73v63.94c0,0.275,0.044,0.538,0.11,0.793h-39.559      C150.279,319.035,147.601,317.178,146.435,314.522z M361.122,311.435c0,4.188-3.411,7.6-7.599,7.6h-38.925      c0.065-0.255,0.11-0.518,0.11-0.793v-63.94c9.509-17.835,25.431-21.096,32.053-21.664c9.142,16.121,14.361,34.756,14.361,54.465      V311.435z"/>
				<path style="fill:#00328D;" d="M277.894,376.765c-4.318,6.692-13.644,11.335-24.461,11.335      c-10.817,0-20.143-4.642-24.461-11.335c4.318-7.945,13.644-13.45,24.461-13.45C264.271,363.315,273.598,368.821,277.894,376.765      z"/>
				<path style="fill:#00328D;" d="M75.492,133.882c0.107,0.022,0.237,0.022,0.345,0.022H431.03c2.85,0,4.9-2.742,4.123-5.462      l-8.463-29.06c-0.517-1.835-2.202-3.087-4.102-3.087H84.301c-1.901,0-3.584,1.252-4.102,3.087l-8.464,29.06      C70.979,131.054,72.836,133.688,75.492,133.882z"/>
				<path style="fill:#00328D;" d="M431.051,443.348H75.859c-2.849,0-4.901-2.72-4.124-5.462l8.464-29.06      c0.518-1.835,2.201-3.087,4.102-3.087h338.287c1.9,0,3.584,1.252,4.102,3.087l8.463,29.06      C435.93,440.627,433.879,443.348,431.051,443.348z"/>
				<path style="fill:#00328D;" d="M202.016,159.944c2.604,1.912,5.037,1.085,6.626-1.868c0.926-1.697,2.123-5.465,2.509-10.141      c0.118-1.45-0.251-2.534-3.401-2.214c-1.963,0.196-9.184,1.368-10.934,2.357c-1.389,0.618-1.777,1.531-1.126,2.823      C197.367,154.248,199.214,157.908,202.016,159.944z"/>
				<path style="fill:#00328D;" d="M178.124,168.472c3.026,1.338,5.043-0.341,5.92-3.525c0.523-1.81,0.837-5.673,0.139-10.27      c-0.219-1.425-0.835-2.404-3.88-1.488c-0.976,0.223-3.093,1.178-5.163,2.226c-2.081,1.026-4.128,2.101-4.929,2.652      c-1.248,0.851-1.4,1.842-0.462,2.943C172.178,163.877,174.868,167.051,178.124,168.472z"/>
				<path style="fill:#00328D;" d="M156.928,182.347c3.11,0.393,4.921-1.396,4.976-4.738c0.042-1.922-0.62-5.807-2.418-10.135      c-0.559-1.34-1.385-2.136-4.056-0.417c-0.831,0.537-2.718,1.9-4.563,3.304c-1.813,1.444-3.418,3.133-4.063,3.861      c-0.957,1.183-0.881,2.166,0.297,3.01C150.148,179.427,153.487,181.819,156.928,182.347z"/>
				<path style="fill:#00328D;" d="M139.733,200.958c3.304-0.229,4.402-2.577,3.618-5.861c-0.5-1.94-1.914-5.408-4.693-9.167      c-0.856-1.155-1.86-1.736-4.158,0.47c-1.316,1.472-5.726,7.33-6.65,9.036c-0.609,1.399-0.268,2.356,1.065,2.883      C132.364,199.695,136.123,201.174,139.733,200.958z"/>
				<path style="fill:#00328D;" d="M122.842,208.807c-1.117-0.924-2.22-1.244-3.808,1.503c-0.491,0.859-1.554,2.924-2.538,5.018      c-0.807,2.168-1.562,4.352-1.769,5.305c-0.308,1.484,0.211,2.32,1.647,2.526c3.717,0.545,7.788,1.128,11.098,0.003      c1.556-0.513,2.34-1.459,2.728-2.571c0.386-1.112,0.186-2.479-0.537-3.956C128.82,214.918,126.441,211.794,122.842,208.807z"/>
				<path style="fill:#00328D;" d="M109.395,237.031c-0.574,1.884-1.771,9.071-1.834,11c-0.044,1.499,0.691,2.202,2.129,2.086      c3.725-0.29,7.887-0.614,10.944-2.444c2.832-1.696,2.745-4.322,0.555-6.905c-1.25-1.493-4.145-3.959-8.316-6.035      C111.586,234.095,110.428,234.035,109.395,237.031z"/>
				<path style="fill:#00328D;" d="M304.872,159.944c2.802-2.036,4.649-5.696,6.325-9.043c0.651-1.291,0.264-2.204-1.126-2.823      c-1.75-0.989-8.971-2.162-10.934-2.357c-3.15-0.32-3.519,0.765-3.401,2.214c0.386,4.676,1.583,8.444,2.509,10.141      C299.835,161.029,302.268,161.856,304.872,159.944z"/>
				<path style="fill:#00328D;" d="M328.764,168.472c3.255-1.421,5.946-4.594,8.374-7.461c0.938-1.101,0.786-2.092-0.462-2.943      c-0.801-0.551-2.848-1.625-4.929-2.652c-2.07-1.048-4.187-2.003-5.163-2.226c-3.044-0.916-3.66,0.063-3.879,1.488      c-0.698,4.597-0.384,8.461,0.139,10.27C323.721,168.131,325.738,169.81,328.764,168.472z"/>
				<path style="fill:#00328D;" d="M349.959,182.347c3.441-0.528,6.78-2.921,9.827-5.114c1.178-0.844,1.254-1.827,0.297-3.01      c-0.645-0.728-2.25-2.418-4.063-3.861c-1.845-1.404-3.732-2.767-4.563-3.304c-2.671-1.72-3.498-0.924-4.056,0.417      c-1.799,4.328-2.461,8.213-2.419,10.135C345.038,180.951,346.849,182.74,349.959,182.347z"/>
				<path style="fill:#00328D;" d="M372.388,186.401c-2.298-2.207-3.302-1.626-4.158-0.47c-2.779,3.758-4.193,7.227-4.693,9.167      c-0.784,3.283,0.314,5.632,3.618,5.861c3.609,0.215,7.369-1.263,10.818-2.637c1.333-0.528,1.674-1.484,1.065-2.883      C378.114,193.731,373.704,187.873,372.388,186.401z"/>
				<path style="fill:#00328D;" d="M376.687,220.592c0.388,1.111,1.172,2.057,2.728,2.571c3.31,1.125,7.381,0.541,11.098-0.003      c1.436-0.206,1.955-1.042,1.647-2.526c-0.207-0.953-0.961-3.137-1.769-5.305c-0.985-2.094-2.047-4.16-2.538-5.018      c-1.588-2.747-2.69-2.427-3.808-1.503c-3.599,2.987-5.977,6.111-6.821,7.829C376.501,218.113,376.301,219.481,376.687,220.592z"/>
				<path style="fill:#00328D;" d="M399.326,248.031c-0.063-1.929-1.261-9.116-1.834-11c-1.033-2.997-2.19-2.936-3.479-2.297      c-4.17,2.075-7.065,4.541-8.315,6.035c-2.191,2.583-2.277,5.209,0.554,6.905c3.057,1.83,7.219,2.153,10.945,2.444      C398.635,250.233,399.371,249.53,399.326,248.031z"/>
			</g>
			<g style="opacity:0.25;">
				<path style="fill:#000E3F;" d="M431.03,133.904H75.837c-0.107,0-0.237,0-0.345-0.022c1.813-6.887,10.255-16.861,33.722-15.868      c71.332,3.044,210.09,2.375,239.149,1.987c17.573-0.238,39.055,4.296,52.052-10.148c4.404-4.879,8.377-9.694,12.717-13.558      h9.456c1.9,0,3.584,1.252,4.102,3.087l8.463,29.06C435.93,131.162,433.879,133.904,431.03,133.904z"/>
				<path style="fill:#000E3F;" d="M431.03,443.348H75.837c-0.107,0-0.237,0-0.345-0.021c1.813-6.888,10.255-16.862,33.722-15.869      c71.332,3.044,210.09,2.375,239.149,1.987c17.573-0.238,39.055,4.296,52.052-10.148c4.404-4.879,8.377-9.694,12.717-13.558      h9.456c1.9,0,3.584,1.252,4.102,3.087l8.463,29.059C435.93,440.606,433.879,443.348,431.03,443.348z"/>
			</g>
			<path style="opacity:0.5;fill:#FFFFFF;" d="M199.886,109.975c-25.448,1.799-72.333,2.763-99.918,1.466     c-6.661-0.313-7.39-5.239-0.841-5.653c27.87-1.768,75.324-1.426,100.124-0.087C204.222,105.969,204.768,109.63,199.886,109.975z"/>
		</g>
		<g>
			<path style="fill:#000E3F;" d="M227.934,48.422c-4.079,0.047-7.168,3.191-7.221,7.255c-0.049,3.76,3.349,7.236,7.404,7.16     c4.013-0.076,7.163-3.124,7.151-7.366C235.277,51.432,232.096,48.374,227.934,48.422z"/>
			<path style="fill:#000E3F;" d="M278.785,48.416c-4.878,0.107-7.187,4.002-7.319,7.247c-0.147,3.6,3.448,7.303,7.091,7.207     C288.706,62.606,288.08,48.213,278.785,48.416z"/>
			<path style="fill:#000E3F;" d="M262.317,53.966c-1.303,0.16-2.229,1.345-2.068,2.647c0.616,5.011-0.767,9.183-3.702,11.157     c-1.83,1.233-3.997,1.362-5.804,0.357c-2.985-1.662-4.571-5.932-4.35-11.714c0.049-1.311-0.974-2.414-2.283-2.464     c-1.314-0.035-2.414,0.971-2.465,2.282c-0.289,7.633,2.184,13.481,6.787,16.045c1.541,0.859,3.209,1.285,4.885,1.285     c2.022,0,4.054-0.621,5.882-1.851c4.449-2.994,6.603-8.854,5.764-15.678C264.805,54.733,263.626,53.81,262.317,53.966z"/>
			<path style="fill:#000E3F;" d="M428.974,408.183c-0.799-2.838-3.424-4.82-6.386-4.82h-4.126V136.274h12.57     c2.106,0,4.044-0.967,5.313-2.651c1.273-1.686,1.672-3.813,1.09-5.85l-8.457-29.042c-0.801-2.835-3.428-4.815-6.388-4.815     H304.927V51.491C304.927,23.099,281.83,0,253.436,0c-13.751,0-26.677,5.353-36.395,15.074     c-9.736,9.734-15.096,22.668-15.096,36.418v42.423H84.304c-2.96,0-5.587,1.981-6.382,4.798l-8.467,29.071     c-0.58,2.025-0.181,4.154,1.092,5.843c1.269,1.682,3.198,2.647,5.292,2.647h12.585v267.089H84.3c-2.962,0-5.587,1.982-6.38,4.799     l-8.471,29.078c-0.573,2.031-0.175,4.161,1.096,5.842c1.271,1.678,3.207,2.642,5.313,2.642h10.868l-3.575,32.692     c-0.24,2.073-1.202,3.994-2.69,5.402l-4.679,4.354c-2.02,1.864-3.441,4.418-3.993,7.159c-0.179,0.83-0.27,1.717-0.27,2.64     c0,3.584,1.396,6.957,3.934,9.495c2.536,2.537,5.91,3.934,9.496,3.934h13.428c6.719,0,12.437-5.029,13.3-11.699l3.652-28.248     c0.54-4.304,4.233-7.55,8.589-7.55h23.748c7.394,0,13.407-6.025,13.407-13.429v-4.749h184.743v4.749     c0,7.404,6.013,13.429,13.405,13.429h23.748c4.356,0,8.05,3.246,8.592,7.559l3.65,28.238c0.86,6.671,6.578,11.7,13.3,11.7h13.43     c3.586,0,6.958-1.398,9.492-3.934c2.539-2.535,3.934-5.908,3.934-9.495c0-0.953-0.088-1.82-0.261-2.607     c-0.559-2.769-1.978-5.323-3.989-7.184l-4.674-4.351c-1.503-1.418-2.465-3.34-2.701-5.396l-3.579-32.708h10.889     c2.096,0,4.023-0.961,5.29-2.637c1.273-1.685,1.672-3.816,1.09-5.864L428.974,408.183z M206.694,51.491     c0-12.482,4.868-24.222,13.707-33.059c8.821-8.824,20.554-13.682,33.036-13.682c25.772,0,46.742,20.968,46.742,46.741v42.423     h-93.485V51.491z M74.34,130.767c-0.367-0.487-0.483-1.099-0.322-1.666l8.469-29.079c0.226-0.799,0.974-1.358,1.817-1.358H204.32     h98.233H422.59c0.843,0,1.592,0.559,1.824,1.376l8.459,29.048c0.165,0.578,0.049,1.188-0.318,1.673     c-0.365,0.485-0.919,0.762-1.522,0.762H75.839C75.248,131.524,74.702,131.249,74.34,130.767z M93.171,136.279h320.542v267.084     H93.171V136.279z M156.325,450.472c0,4.786-3.886,8.679-8.659,8.679h-23.748c-6.745,0-12.465,5.034-13.302,11.699l-3.65,28.239     c-0.559,4.31-4.25,7.559-8.589,7.559H84.949c-2.317,0-4.497-0.904-6.138-2.543c-1.64-1.64-2.545-3.82-2.545-6.136     c0-0.592,0.055-1.127,0.171-1.667c0.365-1.802,1.276-3.45,2.572-4.648l4.697-4.373c2.315-2.184,3.793-5.138,4.164-8.334     l3.633-33.225h64.821V450.472z M419.02,478.961c0.367,3.181,1.845,6.136,4.175,8.332l4.689,4.366     c1.29,1.195,2.203,2.843,2.574,4.683c0.107,0.488,0.16,1.02,0.16,1.627c0,2.318-0.904,4.497-2.545,6.136     c-1.638,1.64-3.816,2.543-6.133,2.543h-13.43c-4.341,0-8.033-3.249-8.589-7.559l-3.647-28.231     c-0.839-6.674-6.559-11.708-13.304-11.708h-23.748c-4.773,0-8.657-3.893-8.657-8.679v-4.749h64.819L419.02,478.961z      M432.552,440.221c-0.361,0.478-0.909,0.752-1.501,0.752h-13.538H348.19H158.699H89.374H75.858c-0.605,0-1.16-0.276-1.524-0.757     c-0.365-0.484-0.481-1.097-0.32-1.667l8.471-29.081c0.226-0.798,0.972-1.355,1.815-1.355h6.498h325.29h6.5     c0.843,0,1.59,0.558,1.822,1.377l8.457,29.044C433.033,439.121,432.919,439.736,432.552,440.221z"/>
		</g>
	</g>
	<g>
		<path style="fill:#FD8A02;" d="M477.562,288.551c-2.075-1.223-3.572-2.008-4.968-2.946c-4.635-3.116-6.308-7.621-5.03-13.154    c1.026-4.444,3.565-8.032,6.338-11.503c1.178-1.474,2.484-2.876,3.454-4.478c2.743-4.528,1.149-9.253-3.745-11.328    c-2.352-0.997-4.878-1.259-7.396-1.502c-3.257-0.314-3.494-1.071-3.715-2.572c-0.263-1.795,1.149-3.286,3.636-3.556    c5.583-0.605,11.067-0.067,15.293,4.049c6.262,6.098,6.518,14.825,0.73,21.644c-2.335,2.751-4.524,5.555-6.091,8.786    c-1.883,3.881-1.37,5.563,2.297,7.872c1.778,1.119,3.704,1.999,5.517,3.067c3.149,1.855,5.795,4.275,7.232,7.684    c2.173,5.151,1.324,9.973-2.415,14.082c-2.575,2.829-4.811,5.85-6.597,9.208c-2.081,3.912-1.624,5.488,2.488,7.424    c2.653,1.249,5.463,2.189,8.254,3.112c1.718,0.568,2.933,1.564,3.748,3.133c0.872,1.68,0.138,3.512-1.625,4.031    c-1.439,0.423-2.934,0.612-4.367,0.207c-4.044-1.145-8.151-2.201-11.745-4.481c-6.023-3.821-7.545-9.314-4.6-15.774    c1.585-3.477,3.774-6.543,6.123-9.516c0.389-0.492,0.905-0.883,1.314-1.362c4.206-4.914,3.726-7.583-1.985-10.978    C478.804,289.162,477.852,288.705,477.562,288.551z"/>
		<path style="fill:#FD8A02;" d="M421.985,53.104c-2.241,0.881-3.782,1.577-5.38,2.099c-5.31,1.733-9.889,0.275-13.461-4.139    c-2.869-3.545-4.132-7.755-5.159-12.078c-0.436-1.836-0.736-3.728-1.4-5.479c-1.878-4.95-6.582-6.603-11.231-4.026    c-2.234,1.238-3.996,3.067-5.738,4.901c-2.253,2.372-2.996,2.093-4.314,1.342c-1.576-0.898-1.881-2.93-0.562-5.055    c2.962-4.77,6.763-8.76,12.609-9.554c8.661-1.178,15.694,3.996,17.501,12.755c0.73,3.534,1.591,6.985,3.171,10.21    c1.898,3.873,3.539,4.506,7.616,3.038c1.976-0.711,3.857-1.686,5.814-2.457c3.401-1.338,6.937-1.932,10.508-0.965    c5.397,1.461,8.672,5.099,9.607,10.576c0.643,3.771,1.646,7.393,3.191,10.869c1.8,4.049,3.323,4.659,7.381,2.613    c2.618-1.321,5.09-2.956,7.536-4.587c1.506-1.004,3.039-1.348,4.777-1.023c1.86,0.347,2.852,2.054,2.174,3.763    c-0.553,1.395-1.325,2.688-2.527,3.568c-3.392,2.481-6.754,5.066-10.764,6.493c-6.72,2.392-11.985,0.208-15.26-6.092    c-1.763-3.391-2.83-7.003-3.725-10.685c-0.148-0.61-0.139-1.257-0.264-1.874c-1.281-6.34-3.679-7.606-9.871-5.197    C423.232,52.502,422.285,52.971,421.985,53.104z"/>
		<path style="fill:#FD8A02;" d="M25.949,305.146c-1.961-1.397-3.386-2.309-4.695-3.364c-4.349-3.504-5.626-8.137-3.875-13.539    c1.405-4.339,4.245-7.694,7.307-10.913c1.301-1.367,2.723-2.65,3.828-4.163c3.124-4.274,1.943-9.118-2.753-11.609    c-2.257-1.197-4.75-1.675-7.238-2.135c-3.217-0.594-3.389-1.368-3.479-2.883c-0.107-1.81,1.429-3.175,3.93-3.229    c5.614-0.12,11.031,0.889,14.886,5.354c5.712,6.616,5.213,15.332-1.141,21.626c-2.563,2.539-4.986,5.144-6.827,8.228    c-2.211,3.704-1.845,5.424,1.609,8.04c1.675,1.268,3.518,2.312,5.231,3.532c2.977,2.12,5.404,4.76,6.542,8.28    c1.72,5.32,0.458,10.05-3.622,13.821c-2.81,2.596-5.299,5.413-7.368,8.604c-2.411,3.718-2.091,5.327,1.837,7.611    c2.535,1.474,5.254,2.653,7.955,3.813c1.662,0.714,2.787,1.811,3.464,3.445c0.724,1.749-0.165,3.511-1.967,3.875    c-1.471,0.297-2.976,0.356-4.369-0.172c-3.931-1.489-7.931-2.896-11.314-5.478c-5.671-4.327-6.713-9.93-3.221-16.113    c1.88-3.327,4.325-6.193,6.922-8.952c0.43-0.457,0.978-0.802,1.427-1.243c4.615-4.532,4.367-7.233-1.03-11.108    C27.134,305.862,26.225,305.325,25.949,305.146z"/>
		<path style="fill:#FD8A02;" d="M75.325,40.909c0.474-2.361,0.724-4.034,1.151-5.66c1.421-5.402,5.127-8.461,10.773-9.071    c4.534-0.49,8.757,0.73,12.947,2.209c1.779,0.628,3.532,1.402,5.364,1.793c5.178,1.104,9.116-1.954,9.47-7.257    c0.17-2.549-0.413-5.02-1.01-7.479c-0.772-3.179-0.136-3.652,1.21-4.353c1.609-0.838,3.482,0.006,4.553,2.267    c2.404,5.074,3.697,10.431,1.197,15.774c-3.704,7.917-11.863,11.024-20.204,7.796c-3.365-1.302-6.733-2.449-10.299-2.868    c-4.284-0.504-5.705,0.533-6.681,4.755c-0.473,2.046-0.672,4.155-1.086,6.218c-0.718,3.583-2.135,6.877-4.883,9.354    c-4.152,3.744-8.985,4.526-14.094,2.343c-3.518-1.503-7.106-2.624-10.864-3.208c-4.378-0.681-5.716,0.269-6.195,4.788    c-0.309,2.916-0.274,5.879-0.229,8.818c0.028,1.809-0.514,3.284-1.729,4.569c-1.3,1.375-3.272,1.284-4.341-0.211    c-0.872-1.221-1.542-2.57-1.629-4.057c-0.247-4.195-0.598-8.422,0.376-12.566c1.632-6.944,6.32-10.185,13.389-9.525    c3.805,0.356,7.42,1.417,10.999,2.658c0.593,0.206,1.132,0.565,1.718,0.794c6.022,2.359,8.386,1.029,9.717-5.48    C75.156,42.282,75.275,41.233,75.325,40.909z"/>
		<path style="fill:#FD8A02;" d="M256.537,495.43c1.363-1.985,2.25-3.425,3.282-4.753c3.427-4.41,8.038-5.767,13.47-4.111    c4.362,1.33,7.766,4.11,11.039,7.116c1.389,1.276,2.697,2.676,4.229,3.755c4.328,3.049,9.151,1.783,11.559-2.955    c1.157-2.277,1.592-4.779,2.008-7.275c0.538-3.227,1.309-3.412,2.822-3.529c1.809-0.139,3.199,1.373,3.297,3.873    c0.219,5.611-0.696,11.045-5.093,14.977c-6.515,5.827-15.239,5.48-21.642-0.764c-2.583-2.519-5.23-4.896-8.346-6.682    c-3.742-2.145-5.456-1.75-8.011,1.749c-1.239,1.696-2.25,3.557-3.44,5.292c-2.067,3.013-4.665,5.486-8.164,6.685    c-5.289,1.813-10.041,0.634-13.882-3.38c-2.645-2.764-5.505-5.203-8.732-7.216c-3.759-2.346-5.363-1.998-7.578,1.97    c-1.43,2.561-2.56,5.299-3.673,8.02c-0.685,1.675-1.762,2.819-3.384,3.523c-1.736,0.754-3.514-0.104-3.909-1.899    c-0.323-1.465-0.409-2.969,0.095-4.371c1.42-3.956,2.757-7.98,5.28-11.408c4.227-5.746,9.812-6.886,16.054-3.502    c3.36,1.821,6.267,4.216,9.071,6.764c0.465,0.422,0.819,0.964,1.268,1.405c4.612,4.535,7.308,4.239,11.089-1.224    C255.842,496.627,256.363,495.709,256.537,495.43z"/>
	</g>
</g>















</svg>
