<?xml version="1.0" encoding="UTF-8"?>
<!-- Generator: Adobe Illustrator 25.2.1, SVG Export Plug-In . SVG Version: 6.00 Build 0)  -->
<svg xmlns="http://www.w3.org/2000/svg" xmlns:xlink="http://www.w3.org/1999/xlink" version="1.1" id="Capa_1" x="0px" y="0px" viewBox="0 0 512 512" style="enable-background:new 0 0 512 512;" xml:space="preserve" width="512" height="512">
<g>
	<g>
		<g>
			<path style="fill:#007AF4;" d="M72.731,397.646c-36.035,6.406-62.352-9.473-48.324-33.072     c8.849-14.861,28.346-26.153,44.557-31.164c5.688-1.758,1.013,3.223,2.432,23.062c0.931,12.968,5.251,25.745,9.931,34.454     C84.197,396.276,83.18,395.815,72.731,397.646z"/>
			<path style="fill:#007AF4;" d="M505.781,304.895c-8.765,14.567-30.646,21.155-47.513,23.361     c-6.688,0.714,1.021-9.106-3.371-32.249c-5.371-28.342-16.465-30.379-6.086-30.632     C488.044,264.45,518.426,283.866,505.781,304.895z"/>
		</g>
		<path style="fill:#FFFFFF;" d="M114.736,270.509c2.246-1.585,4.605-2.849,2.654-4.809c-6.54-6.57-22.414-19.205-33.797-48.842    C49.699,128.615,138.425,46.327,193.834,93.974c16.853,14.492,18.841,36.119,13.191,48.651    c-5.619,12.463-8.404,16.775-17.409,29.233c-11.604,16.054-16.774,42.901-12.73,60.395c0.579,2.503,1.244,2.999,3.697,2.609    c10.364-1.644,56.89-21.375,127.666-22.68c3.535-0.065,2.825-4.931,1.846-8.31c-12.846-44.324-36.762-47.086-55.53-65.824    c-18.144-18.115-17.026-45.305-0.443-64.047c24.021-27.15,65.134-21.704,92.603-3.184c34.563,23.302,53.546,69.387,43.636,114.655    c-7.577,34.609-18.873,34.585-8.085,36.961c18.563,4.09,37.953,15.472,52.326,33.347c27.14,33.752,25.766,83.663,0.242,110.016    c-22.95,23.695-63.868,33.891-105.356,19.399c-36.803-12.854-76.861-6.505-111.294,21.77    C178.387,439.653,102.7,446.561,78.287,379.74C65.051,343.514,74.969,298.583,114.736,270.509z"/>
		<g>
			<path style="fill:#FF8EDE;" d="M357.181,210.366c-5.12,6.647-14.111,8.961-17.815,1.356c-2.819-5.747,0.842-17.91-11.133-41.313     c-12.319-24.081-28.322-33.445-39.28-46.312c-4.684-5.532-8.448-11.695-10.589-19.955c-3.307-12.865,2.81-26.084,20.6-30.523     c18.476-4.603,35.971,5.618,49.077,22.828C371.387,127.029,380.827,179.735,357.181,210.366z"/>
			<path style="fill:#FF8EDE;" d="M134.811,249.343c7.076,4.509,16.317,3.628,17.214-4.784c0.697-6.363-6.884-16.556-3.582-42.637     c3.395-26.835,15.259-41.084,21.187-56.91c2.523-6.796,3.966-13.871,3.171-22.367c-1.266-13.223-11.514-23.573-29.753-21.697     c-18.94,1.955-31.916,17.518-38.387,38.159C93.108,175.807,102.157,228.581,134.811,249.343z"/>
		</g>
		<g style="opacity:0.25;">
			<path style="fill:#000E3F;" d="M448.245,345.58c-13.261,33.917-63.301,58.85-118.984,39.538c-20.182-6.999-44.222-8.005-64-2.782     c-39.223,10.358-41.223,26.218-73.391,40.145c-53.517,23.17-94.057-8.089-92.482-10.795c1.035-1.774,10.237,5.961,33.151,5.891     c46.825-0.142,59.649-36.031,122.156-54c28.798-8.279,57.031-3.823,86.1-0.187c28.593,3.577,77.232,6.087,91.51-26.182     c15.261-34.491-11.463-86.336-41.771-110.005c-9.178-7.167,8.592,0.302,18.497,6.09     C446.249,255.044,465.167,302.296,448.245,345.58z"/>
			<path style="fill:#000E3F;" d="M152.242,431.183c-8.54,0-15.955-1.173-21.909-2.649c-15.822-3.924-26.962-11.292-30.267-15.015     c-0.816-0.918-1.1-1.555-0.872-1.947c0.439-0.76,1.712-0.283,4.248,0.66c4.816,1.792,13.753,5.12,28.79,5.12     c0.102,0,0.204-0.001,0.308-0.001c24.906-0.075,40.464-10.493,58.48-22.555c16.131-10.8,34.413-23.042,63.613-31.436     c26.9-7.734,52.853-4.432,80.329-0.935c1.95,0.248,3.904,0.497,5.86,0.742c20.543,2.57,37.246,2.684,51.058,0.353     c20.463-3.457,33.994-12.34,40.216-26.402c6.963-15.732,5.614-36.643-3.797-58.881c-8.411-19.877-22.581-38.887-37.904-50.854     c-2.675-2.088-2.813-2.718-2.562-3.089c1.02-1.506,14.625,4.893,21.314,8.803c18.393,10.75,32.601,27.864,40.007,48.188     c7.613,20.893,7.364,43.756-0.699,64.379c-6.77,17.316-22.703,31.844-43.714,39.859c-23.034,8.786-49.869,8.718-75.556-0.19     c-20.137-6.983-44.015-8.021-63.868-2.776c-22.552,5.956-32.742,13.709-43.532,21.919c-7.948,6.048-16.166,12.3-29.826,18.215     C177.249,429.059,163.729,431.183,152.242,431.183z M99.977,411.646c-0.197,0-0.328,0.049-0.393,0.155     c-0.06,0.103,0.036,0.531,0.821,1.416c3.27,3.682,14.314,10.976,30.039,14.876c13.892,3.444,35.808,5.23,61.335-5.82     c13.611-5.893,21.807-12.128,29.732-18.158c10.825-8.238,21.053-16.019,43.692-21.997c19.941-5.268,43.916-4.225,64.134,2.787     c25.587,8.874,52.309,8.944,75.243,0.193c20.891-7.969,36.729-22.401,43.454-39.6l0.211,0.083l-0.211-0.083     c8.021-20.519,8.267-43.269,0.692-64.058c-7.369-20.224-21.508-37.253-39.81-47.95c-3.711-2.169-8.711-4.676-13.047-6.541     c-5.661-2.436-7.486-2.635-7.659-2.399c-0.006,0.017-0.129,0.451,2.465,2.477c15.381,12.011,29.604,31.089,38.044,51.034     c9.458,22.354,10.807,43.393,3.795,59.242c-6.289,14.21-19.935,23.182-40.557,26.665c-13.859,2.342-30.602,2.226-51.191-0.349     c-1.956-0.245-3.911-0.493-5.86-0.741c-27.43-3.491-53.336-6.788-80.147,0.921c-29.131,8.375-47.382,20.595-63.484,31.376     c-18.076,12.104-33.688,22.557-58.733,22.633c-0.102,0-0.206,0-0.308,0c-15.119,0-24.105-3.345-28.949-5.148     C101.725,412.078,100.565,411.646,99.977,411.646z"/>
		</g>
		<g>
			<path style="fill:#00328D;" d="M458.937,328.196c-5.51,0.62-2.944-1.626-2.988-18.164c-0.033-12.558-1.927-14.509,10.428-12.672     c9.688,1.441,19.421,3.613,28.792,6.915c12.694,4.473,0.049,11.413-6.831,15.038     C479.254,324.101,469.014,327.062,458.937,328.196z"/>
			<path style="fill:#00328D;" d="M33.151,394.083c-4.764-11.153,28.534-24.368,35.415-26.823c7.042-2.513,5.364,4.11,6.633,8.508     c5.141,17.818,11.957,19.18,3.614,20.806C59.745,400.294,34.957,398.304,33.151,394.083z"/>
		</g>
		<g>
			<path style="fill:#000E3F;" d="M488.402,268.651c-11.251-4.806-26.248-7.22-41.172-6.622c-3.669,0.135-4.394-0.871-6.803-4.25     c-1.768-2.479-4.441-6.225-9.785-11.642c-17.974-18.218-35.072-23.3-43.288-25.741c-2.759-0.821-4.753-1.413-5.055-2.035     c-0.047-0.098-0.047-0.191-0.002-0.304c0.08-0.201,0.302-0.648,0.61-1.267c2.349-4.731,9.503-19.129,12.071-38.11     c3.449-25.447-0.623-50.191-11.774-71.556c-10.261-19.661-26.31-35.791-45.191-45.419c-11.211-5.716-22.484-9.067-33.506-9.96     c-22.224-1.804-43.097,6.845-55.803,23.13c-6.674,8.555-10.674,19.152-11.259,29.839c-0.63,11.457,2.642,21.882,9.456,30.146     c4.008,4.862,15.725,15.49,25.702,21.754c24.123,15.148,33.796,42.453,34.59,50.685c0.038,0.394-0.02,0.657-0.188,0.851     c-0.557,0.643-2.498,0.738-6.366,0.924c-6,0.29-17.167,0.827-36.54,4.079c-59.432,9.975-69.187,13.767-74.427,15.805     c-2.045,0.795-3.396,1.32-6.863,1.833c-1.639,0.247-2.48,0.088-2.846-1.452c-2.094-8.723-0.75-21.895,1.384-30.44     c3.726-14.933,8.298-21.4,14.088-29.587c3.656-5.174,7.801-11.037,12.391-20.112c2.742-5.418,4.465-11.003,5.122-16.599     c2.236-19.001-8.342-37.934-26.951-48.233c-10.756-5.952-23.096-8.355-35.693-6.971c-11.852,1.312-23.664,5.906-34.158,13.285     c-18.71,13.157-32.94,33.512-39.045,55.848c-8.323,30.469-3.835,63.46,12.315,90.515c8.329,13.953,14.516,20.067,20.5,25.978     c0.905,0.896,1.808,1.788,2.713,2.702c0.557,0.563,0.774,0.907,0.75,1.187c-0.044,0.506-0.905,1.109-2.467,2.205     c-1.841,1.293-4.627,3.249-8.538,6.713c-15.039,13.32-25.842,31.367-30.422,50.816c-0.512,2.187-1.726,2.801-4.181,3.594     c-15.356,4.971-28.388,12.533-37.682,21.868c-8.704,8.743-13.205,18.218-12.67,26.678c0.417,6.578,4.436,18.24,26.685,22.442     c14.014,2.65,24.134,1.006,37.978-1.799c2.238-0.456,2.868,0.674,3.609,1.973c0.155,0.271,0.308,0.541,0.479,0.796     c10.698,16.129,28.228,27.087,49.359,30.855c5.322,0.948,10.727,1.422,16.197,1.422c7.919,0,15.966-0.995,24.061-2.98     c14.567-3.574,28.528-10.203,41.5-19.705c1.579-1.156,3.123-2.409,4.616-3.62c1.229-0.997,2.5-2.028,3.78-2.997     c21.53-16.304,46.18-23.864,73.322-22.49c13.24,0.673,21.095,3.145,29.411,5.764c6.885,2.166,14.003,4.408,24.693,5.809     c22.918,3.009,45.794-0.948,64.416-11.134c17.3-9.464,30.085-23.939,35.078-39.714c0.262-0.826,0.553-1.659,0.836-2.464     c0.699-1.994,1.424-4.057,1.755-6.217c0.395-2.577,1.488-2.728,5.554-3.288c3.214-0.444,8.07-1.112,15.625-3.412     c21.579-6.566,34.885-18.345,35.598-31.51C512.57,285.457,503.978,275.3,488.402,268.651z M45.434,396.352     c-12.074-2.286-19.766-7.264-22.248-14.397c-2.34-6.728,0.322-14.987,7.491-23.258c10.849-12.51,28.426-20.069,37.935-23.46     c0.406-0.144,0.73-0.216,0.969-0.216c0.164,0,0.291,0.034,0.375,0.103c0.326,0.262,0.215,1.134,0.084,2.143     c-0.049,0.383-0.102,0.794-0.137,1.22c-2.323,27.386,5.104,42.907,8.673,50.367c1.344,2.811,2.234,4.669,1.834,5.496     c-0.129,0.263-0.393,0.433-0.834,0.534C71.651,396.696,54.821,398.13,45.434,396.352z M462.374,326.253     c-1.919,0.362-3.731,0.708-4.594-0.096c-0.49-0.455-0.659-1.265-0.519-2.48c3.152-27.356-5.991-46.322-9.434-53.463     c-0.486-1.007-0.867-1.802-1.058-2.303c-0.055-0.145-0.046-0.265,0.031-0.379c0.229-0.332,0.938-0.515,1.491-0.518     c0.342-0.002,0.681-0.003,1.023-0.003c19.93,0,35.586,3.771,46.542,11.214c6.998,4.753,10.838,10.39,11.104,16.299     c0.273,6.095-3.159,12.251-9.929,17.8c-5.017,4.113-14.056,10.029-34.55,13.909L462.374,326.253z M116.973,271.036     c0.328-0.196,0.668-0.398,0.983-0.629c1.36-0.992,2.019-1.918,2.074-2.914c0.102-1.826-1.821-3.58-4.729-6.236     c-1.191-1.089-2.544-2.324-3.957-3.754c-22.621-22.89-34.721-54.343-33.195-86.293c1.369-28.626,13.591-53.968,34.415-71.361     c14.17-11.835,29.866-17.927,44.951-17.927c8.842,0,17.477,2.095,25.463,6.353c17.04,9.084,26.869,26.202,25.041,43.614     c-1.109,10.577-9.427,24.953-16.211,34.051c-8.192,10.979-13.538,20.732-16.625,38.097c-2.551,14.352-0.991,21.981,0.146,27.552     c0.133,0.65,0.262,1.277,0.377,1.889c0.282,1.473,0.858,2.442,1.759,2.967c1.861,1.083,4.829,0.064,8.274-1.114     c1.054-0.359,2.143-0.731,3.267-1.069c25.389-7.623,48.01-11.428,61.526-13.701c4.248-0.715,7.604-1.28,9.831-1.76     c13.38-2.887,39.253-4.457,44.304-4.742l0.654-0.044c3.288-0.23,5.457-0.383,6.508-1.607c0.539-0.628,0.745-1.486,0.645-2.701     c-1.167-14.303-9.45-31.168-22.155-45.112c-4.607-5.054-10.783-9.38-17.32-13.959c-15.033-10.53-30.575-21.417-30.469-43.045     c0.086-17.267,9.303-33.094,24.653-42.342c19.376-11.673,45.091-11.252,68.786,1.13c21.277,11.116,37.481,29.135,46.857,52.105     c9.024,22.104,10.769,47.307,4.916,70.969c-3.154,12.749-9.073,25.225-10.787,27.815c-0.943,1.42-1.213,2.737-0.783,3.809     c0.466,1.166,1.75,2.016,3.715,2.462c17.861,4.049,33.86,12.762,46.269,25.196c11.415,11.439,19.684,25.78,23.91,41.47     c7.877,29.238,0.548,58.768-19.127,77.07c-24.127,22.438-61.927,28.987-98.631,17.093c-26.514-8.587-52.172-8.895-76.263-0.908     c-17.719,5.873-27.441,13.287-36.846,20.456c-9.66,7.367-19.653,14.984-38.348,20.803c-22.211,6.915-43.297,6.454-60.987-1.327     c-15.982-7.028-28.681-19.57-36.726-36.267c-8.915-18.503-11.049-39.984-6.007-60.485c5.523-22.46,19.039-41.524,39.084-55.13     C116.462,271.344,116.717,271.191,116.973,271.036z"/>
			<path style="fill:#000E3F;" d="M321.515,278.679c1.639,0.405,3.261,0.605,4.847,0.605c6.127,0,11.737-2.974,15.862-8.549     c4.319-5.829,5.96-13.493,4.505-21.026c-0.304-1.556-1.668-2.135-2.844-1.908c-1.187,0.232-2.229,1.278-1.93,2.832     c1.2,6.197-0.126,12.47-3.636,17.21c-3.99,5.389-9.738,7.619-15.751,6.132c-7.364-1.822-13.198-8.812-14.514-17.391     c-0.204-1.324-1.453-2.234-2.773-2.034c-1.368,0.214-2.242,1.406-2.034,2.771C304.855,267.791,312.197,276.374,321.515,278.679z"/>
			<path style="fill:#000E3F;" d="M333.025,296.242c-0.388,0.527-0.546,1.21-0.435,1.873c0.109,0.64,0.459,1.2,0.987,1.577     c0.526,0.376,1.174,0.525,1.812,0.417c0.497-0.084,50.211-8.159,87.25,13.213c0.373,0.215,0.792,0.326,1.218,0.326     c0.137,0,0.277-0.012,0.415-0.036c0.712-0.126,1.326-0.557,1.688-1.181c0.67-1.161,0.271-2.651-0.892-3.32     c-38.497-22.215-88.384-14.151-90.477-13.797C333.955,295.402,333.398,295.731,333.025,296.242z"/>
			<path style="fill:#000E3F;" d="M334.294,309.911c-0.603,0.061-1.184,0.39-1.602,0.906c-0.419,0.521-0.612,1.154-0.541,1.783     c0.153,1.331,1.351,2.308,2.691,2.14c0.47-0.053,47.842-5.072,80.684,26.244c0.457,0.434,1.062,0.671,1.684,0.671     c0.14,0,0.277-0.011,0.417-0.036c0.515-0.091,0.978-0.338,1.338-0.717c0.448-0.47,0.685-1.086,0.67-1.735     c-0.016-0.65-0.282-1.254-0.752-1.701C384.445,304.631,336.313,309.679,334.294,309.911z"/>
			<path style="fill:#000E3F;" d="M169.1,301.082c3.749,2.491,7.713,3.74,11.608,3.74c3.662-0.001,7.267-1.104,10.572-3.315     c7.979-5.337,11.962-15.905,9.911-26.298c-0.322-1.635-1.697-2.132-2.835-1.906c-1.193,0.235-2.242,1.29-1.934,2.849     c1.679,8.516-1.429,17.072-7.735,21.29c-5.159,3.449-11.315,3.298-16.894-0.41c-4.916-3.262-8.296-8.711-9.276-14.947     c-0.244-1.563-1.588-2.193-2.775-2.005c-1.191,0.185-2.271,1.193-2.028,2.762C158.907,290.419,163.057,297.067,169.1,301.082z"/>
			<path style="fill:#000E3F;" d="M106.106,369.343c0.14,0,0.282-0.012,0.424-0.037c0.557-0.098,1.067-0.39,1.435-0.826     c27.608-32.749,77.055-42.011,77.552-42.101c0.641-0.116,1.196-0.476,1.566-1.009c0.368-0.535,0.508-1.18,0.39-1.819     c-0.12-0.661-0.501-1.249-1.045-1.614c-0.524-0.352-1.162-0.476-1.781-0.339c-2.1,0.383-51.755,9.767-80.398,43.747     c-0.865,1.025-0.734,2.561,0.29,3.426C104.981,369.143,105.536,369.343,106.106,369.343z"/>
			<path style="fill:#000E3F;" d="M191.696,335.531c-0.568-0.344-1.227-0.457-1.81-0.307c-1.988,0.474-48.955,12.082-70.177,54.684     c-0.596,1.198-0.109,2.661,1.091,3.259c0.342,0.17,0.71,0.256,1.08,0.256c0.142,0,0.282-0.012,0.424-0.037     c0.756-0.133,1.413-0.623,1.757-1.311c20.212-40.581,66.486-52.012,66.951-52.123c1.302-0.312,2.107-1.625,1.799-2.927     C192.666,336.408,192.269,335.878,191.696,335.531z"/>
			<path style="fill:#000E3F;" d="M234.747,345.891c3.9,0,7.812-0.851,11.512-2.587c8.174-3.837,13.799-11.069,15.889-20.403     c5.14,8.067,12.888,12.954,21.882,13.783c2.42,0.225,4.851,0.127,7.222-0.287c8.181-1.435,15.294-6.627,19.516-14.244     c0.313-0.567,0.388-1.223,0.211-1.848c-0.18-0.624-0.59-1.141-1.16-1.456c-1.171-0.648-2.655-0.223-3.303,0.948     c-4.583,8.264-13.027,12.877-22.04,12.046c-9.711-0.896-17.732-7.715-21.461-18.242c-0.04-0.652-0.379-1.283-0.934-1.736     c-0.526-0.429-1.247-0.6-1.972-0.475c-0.732,0.127-1.353,0.536-1.701,1.118c-0.346,0.582-0.435,1.288-0.24,1.941     c0.075,11.169-5.148,20.31-13.977,24.457c-8.194,3.847-17.705,2.377-24.826-3.833c-1.005-0.88-2.542-0.775-3.429,0.232     c-0.428,0.489-0.639,1.115-0.595,1.763c0.044,0.648,0.339,1.239,0.83,1.665C221.575,343.448,228.139,345.891,234.747,345.891z"/>
			<path style="fill:#000E3F;" d="M65.38,365.008c-0.732,0.158-18.109,4.047-31.134,18.91c-0.963,1.099-0.852,2.777,0.248,3.741     c0.488,0.428,1.105,0.658,1.744,0.658c0.153,0,0.308-0.013,0.464-0.04c0.599-0.105,1.129-0.404,1.533-0.864     c11.821-13.492,28.104-17.188,28.269-17.223c1.428-0.312,2.338-1.726,2.027-3.153C68.221,365.631,66.815,364.719,65.38,365.008z"/>
			<path style="fill:#000E3F;" d="M498.562,306.317c0.342-0.619,0.424-1.334,0.229-2.015c-0.197-0.681-0.648-1.244-1.269-1.586     c-17.328-9.564-34.97-7.295-35.713-7.194c-1.439,0.214-2.458,1.551-2.267,2.978c0.177,1.33,1.318,2.299,2.626,2.299     c0.116,0,0.233-0.008,0.353-0.023c0.162-0.024,16.656-2.128,32.439,6.58c0.395,0.219,0.838,0.33,1.284,0.33     c0.151,0,0.304-0.013,0.455-0.039C497.492,307.509,498.171,307.023,498.562,306.317z"/>
		</g>
		<g>
			<path style="fill:#FC09B2;" d="M357.181,210.366c-5.12,6.647-14.111,8.961-17.815,1.356c-2.819-5.747,0.842-17.91-11.133-41.313     c-12.319-24.081-28.322-33.445-39.28-46.312c7.622-1.694,26.672-2.259,42.202,6.316c0.942,0.528,1.935,0.958,2.914,1.435     c3.553,1.637-1.843-15.873,13.807-35.193c0.054-0.077,0.111-0.131,0.165-0.208C371.387,127.029,380.827,179.735,357.181,210.366z     "/>
			<path style="fill:#FC09B2;" d="M134.811,249.343c7.076,4.509,16.317,3.628,17.214-4.784c0.697-6.363-6.884-16.556-3.582-42.637     c3.395-26.835,15.259-41.084,21.187-56.91c-7.744,1-25.851,6.947-37.538,20.293c-0.706,0.817-1.494,1.559-2.252,2.341     c-2.784,2.748-3.666-15.554-24.954-28.398c-0.077-0.054-0.149-0.086-0.226-0.139C93.108,175.807,102.157,228.581,134.811,249.343     z"/>
			<path style="fill:#FC09B2;" d="M232.829,283.451c1.724-3.892,6.482-6.02,11.06-5.003c3.818,0.848,5.943,2.608,8.328,4.268     c3.306,2.3,3.15,2.189,5.58-1.259c2.107-2.988,4.279-6.013,7.859-7.577c4.041-1.765,8.761-0.659,11.367,2.831     c8.715,11.672-1.026,30.111-13.654,34.638C248.976,316.509,225.84,299.229,232.829,283.451z"/>
		</g>
	</g>
	<g>
		<path style="fill:#FD8A02;" d="M41.789,268.387l-12.47-4.878c-0.796-0.311-1.694-0.211-2.402,0.268l-11.087,7.507    c-1.782,1.207-4.175-0.154-4.048-2.302l0.786-13.367c0.05-0.853-0.323-1.677-0.997-2.202l-10.566-8.225    c-1.698-1.322-1.143-4.018,0.939-4.562l12.956-3.384c0.827-0.216,1.495-0.825,1.786-1.629l4.557-12.591    c0.733-2.024,3.468-2.329,4.629-0.517l7.221,11.276c0.461,0.72,1.247,1.167,2.101,1.195l13.383,0.444    c2.151,0.071,3.287,2.578,1.922,4.243l-8.492,10.352c-0.542,0.661-0.724,1.546-0.487,2.367l3.714,12.865    C45.827,267.317,43.793,269.171,41.789,268.387z"/>
		<path style="fill:#FD8A02;" d="M447.637,449.385l-12.47-4.878c-0.796-0.311-1.694-0.211-2.402,0.268l-11.088,7.507    c-1.782,1.207-4.175-0.154-4.048-2.303l0.786-13.367c0.05-0.853-0.323-1.677-0.997-2.202l-10.566-8.225    c-1.699-1.322-1.144-4.018,0.939-4.562l12.956-3.384c0.827-0.216,1.495-0.825,1.786-1.629l4.557-12.591    c0.733-2.024,3.468-2.329,4.629-0.517l7.221,11.276c0.461,0.72,1.247,1.167,2.101,1.195l13.383,0.443    c2.151,0.071,3.287,2.578,1.922,4.243l-8.493,10.353c-0.542,0.661-0.724,1.546-0.487,2.367l3.714,12.865    C451.675,448.314,449.642,450.169,447.637,449.385z"/>
		<path style="fill:#FD8A02;" d="M445.093,77.206l-9.647-6.846c-0.616-0.437-1.407-0.543-2.117-0.283l-11.109,4.066    c-1.786,0.654-3.546-1.024-2.978-2.839l3.529-11.291c0.225-0.721,0.082-1.506-0.384-2.1l-7.3-9.309    c-1.173-1.496-0.122-3.689,1.78-3.71l11.829-0.132c0.755-0.008,1.458-0.388,1.879-1.015l6.597-9.819    c1.061-1.578,3.471-1.256,4.078,0.546l3.781,11.209c0.241,0.716,0.819,1.266,1.546,1.473l11.377,3.24    c1.829,0.521,2.267,2.913,0.741,4.047l-9.492,7.06c-0.606,0.451-0.951,1.17-0.924,1.925l0.435,11.822    C448.783,77.15,446.644,78.306,445.093,77.206z"/>
		<path style="fill:#FD8A02;" d="M501.364,217.603l-9.27-4.386c-0.592-0.28-1.283-0.251-1.849,0.078l-8.868,5.15    c-1.426,0.828-3.182-0.338-2.972-1.973l1.307-10.172c0.083-0.649-0.158-1.298-0.646-1.735l-7.639-6.843    c-1.228-1.1-0.661-3.131,0.958-3.436l10.078-1.901c0.643-0.121,1.186-0.552,1.45-1.15l4.148-9.379    c0.667-1.508,2.773-1.597,3.564-0.15l4.922,8.997c0.314,0.574,0.891,0.957,1.542,1.024l10.202,1.046    c1.64,0.168,2.375,2.144,1.244,3.343l-7.036,7.461c-0.449,0.476-0.635,1.143-0.498,1.783l2.158,10.026    C504.506,216.999,502.854,218.308,501.364,217.603z"/>
		<path style="fill:#FD8A02;" d="M115.469,62.304l-9.27-4.386c-0.592-0.28-1.283-0.251-1.849,0.078l-8.868,5.15    c-1.426,0.828-3.182-0.338-2.972-1.973l1.307-10.172c0.083-0.649-0.158-1.298-0.646-1.735l-7.639-6.843    c-1.228-1.1-0.662-3.13,0.958-3.436l10.078-1.901c0.643-0.121,1.186-0.552,1.45-1.15l4.148-9.379    c0.667-1.508,2.773-1.597,3.564-0.15l4.922,8.997c0.314,0.574,0.891,0.957,1.542,1.024l10.202,1.046    c1.64,0.168,2.375,2.144,1.244,3.343l-7.036,7.461c-0.449,0.476-0.635,1.143-0.498,1.783l2.158,10.026    C118.611,61.699,116.96,63.009,115.469,62.304z"/>
		<path style="fill:#FD8A02;" d="M124.51,485.512l-9.27-4.386c-0.592-0.28-1.283-0.251-1.849,0.078l-8.869,5.15    c-1.426,0.828-3.182-0.338-2.972-1.974l1.307-10.172c0.083-0.649-0.158-1.298-0.646-1.735l-7.639-6.843    c-1.228-1.1-0.661-3.13,0.959-3.436l10.078-1.901c0.643-0.121,1.186-0.551,1.45-1.15l4.148-9.379    c0.667-1.508,2.773-1.597,3.564-0.15l4.922,8.997c0.314,0.574,0.891,0.957,1.542,1.024l10.202,1.046    c1.64,0.168,2.375,2.144,1.244,3.343l-7.036,7.461c-0.449,0.476-0.635,1.143-0.497,1.783l2.157,10.026    C127.652,484.907,126,486.217,124.51,485.512z"/>
	</g>
</g>















</svg>
