<?xml version="1.0" encoding="UTF-8"?>
<!-- Generator: Adobe Illustrator 25.2.1, SVG Export Plug-In . SVG Version: 6.00 Build 0)  -->
<svg xmlns="http://www.w3.org/2000/svg" xmlns:xlink="http://www.w3.org/1999/xlink" version="1.1" id="Capa_1" x="0px" y="0px" viewBox="0 0 512 512" style="enable-background:new 0 0 512 512;" xml:space="preserve" width="512" height="512">
<g>
	<g>
		<g>
			<g>
				<g>
					<path style="fill:#00D5FE;" d="M227.174,328.752c-0.317,3.774-2.046,7.159-4.796,9.576c-0.952,0.846-2.029,1.587-3.227,2.169       c-40.152,19.855-71.664,47.664-96.334,85.048c-2.628,3.985-7.036,6.419-11.798,6.489c-4.303,0.088-8.376-1.746-11.144-4.955       c-0.3-0.335-0.582-0.705-0.846-1.075c-0.335-0.459-0.635-0.917-0.899-1.411c-0.706-1.27-1.376-2.504-2.081-3.703       c-21.62-38.371-50.733-70.853-86.529-96.599c-4.109-2.962-6.348-7.741-5.943-12.785c0.387-5.061,3.332-9.452,7.846-11.762       c39.818-20.314,71.382-48.158,96.529-85.101c0.088-0.124,0.177-0.264,0.247-0.353c0.581-0.864,1.252-1.64,2.01-2.345       c1.111-1.058,2.381-1.922,3.774-2.574c6.842-3.227,15.112-0.547,18.763,6.154c21.478,39.394,52.072,74.08,88.469,100.319       l0.017-0.018C225.375,318.842,227.597,323.674,227.174,328.752z"/>
				</g>
			</g>
			<g>
				<path style="fill:#007AF4;" d="M217.952,320.388c5.409,3.904,4.708,12.136-1.271,15.08      c-41.135,20.326-73.262,48.672-98.543,86.996c-3.463,5.257-11.029,5.253-14.558,0.298c-0.198-0.282-0.385-0.59-0.563-0.907      c-0.686-1.256-1.389-2.513-2.094-3.751c-22.101-39.179-52.265-72.561-88.131-98.354c-5.349-3.855-4.716-12.011,1.167-15.005      c40.074-20.456,72.758-48.937,98.631-86.955c0.069-0.094,0.129-0.198,0.198-0.293c0.94-1.388,2.172-2.408,3.541-3.041      c3.99-1.882,9.138-0.573,11.494,3.743C149.679,258.287,180.301,293.261,217.952,320.388z"/>
			</g>
			<path style="opacity:0.45;fill:#00328D;" d="M198.231,320.833c-3.395-4.865-6.873-9.657-10.429-14.379     c1.874-1.915,3.734-3.846,5.589-5.783c-1.349-1.199-2.689-2.407-4.014-3.628c-1.644,1.668-3.288,3.337-4.945,4.991     c-3.626-4.702-7.334-9.333-11.124-13.891c1.184-1.103,2.358-2.217,3.541-3.322c-1.272-1.313-2.545-2.625-3.792-3.959     c-1.107,1.012-2.21,2.028-3.317,3.039c-3.827-4.499-7.735-8.926-11.725-13.282c1.141-0.974,2.287-1.943,3.43-2.916     c-1.17-1.405-2.305-2.837-3.449-4.262c-1.247,1.039-2.502,2.071-3.747,3.112c-4.054-4.326-8.188-8.579-12.405-12.761     c1.855-1.445,3.722-2.876,5.59-4.306c-1.047-1.469-2.081-2.947-3.102-4.433c-2.16,1.607-4.315,3.219-6.456,4.848     c-4.245-4.115-8.569-8.159-12.975-12.132c3.369-2.362,6.787-4.667,10.222-6.954c-0.9-1.48-1.799-2.959-2.674-4.454     c-3.937,2.525-7.843,5.085-11.693,7.708c-4.019-3.542-8.112-7.021-12.263-10.448c-1.009,1.406-2.038,2.788-3.067,4.167     c3.628,3.109,7.229,6.241,10.758,9.437c-4.865,3.395-9.658,6.873-14.38,10.429c-2.281-2.233-4.58-4.449-6.891-6.655     c-1.165,1.373-2.329,2.75-3.517,4.093c2.005,1.97,4.003,3.945,5.988,5.932c-4.703,3.626-9.333,7.335-13.892,11.125     c-1.364-1.463-2.739-2.916-4.106-4.377c-1.298,1.282-2.606,2.554-3.929,3.806c1.263,1.381,2.531,2.757,3.793,4.139     c-4.498,3.827-8.925,7.735-13.281,11.724c-1.212-1.419-2.416-2.845-3.627-4.265c-1.408,1.159-2.846,2.281-4.279,3.41     c1.282,1.538,2.554,3.086,3.839,4.623c-4.325,4.054-8.58,8.189-12.762,12.405c-1.728-2.218-3.442-4.449-5.149-6.684     c-1.482,1.013-2.984,2.004-4.491,2.99c1.902,2.566,3.816,5.122,5.748,7.662c-4.115,4.245-8.159,8.569-12.132,12.975     c-2.733-3.899-5.394-7.86-8.03-11.844c-1.497,0.851-2.993,1.705-4.512,2.531c2.885,4.542,5.828,9.033,8.843,13.459     c-3.081,3.496-6.107,7.055-9.101,10.65c1.375,1.054,2.735,2.124,4.092,3.201c2.694-3.125,5.405-6.229,8.165-9.278     c3.395,4.865,6.872,9.657,10.429,14.379c-1.88,1.92-3.745,3.857-5.605,5.799c1.349,1.197,2.68,2.414,4.008,3.635     c1.651-1.676,3.303-3.352,4.967-5.014c3.626,4.703,7.334,9.333,11.124,13.891c-1.187,1.107-2.366,2.224-3.552,3.332     c1.272,1.311,2.538,2.629,3.787,3.964c1.112-1.017,2.22-2.038,3.333-3.054c3.827,4.499,7.735,8.926,11.725,13.281     c-1.145,0.978-2.296,1.95-3.442,2.927c1.17,1.404,2.346,2.801,3.492,4.227c1.237-1.032,2.481-2.054,3.717-3.087     c4.053,4.325,8.188,8.579,12.404,12.76c-1.844,1.436-3.701,2.859-5.557,4.281c1.047,1.467,2.074,2.951,3.097,4.438     c2.151-1.6,4.297-3.205,6.428-4.826c4.245,4.115,8.569,8.16,12.975,12.132c-3.357,2.353-6.763,4.651-10.185,6.929     c0.901,1.478,1.782,2.969,2.658,4.465c3.93-2.52,7.83-5.077,11.673-7.695c3.999,3.524,8.07,6.985,12.199,10.394     c0.993-1.422,2.006-2.816,3.019-4.209c-3.589-3.078-7.153-6.179-10.646-9.341c4.865-3.395,9.657-6.872,14.379-10.429     c2.201,2.155,4.419,4.295,6.648,6.425c1.154-1.387,2.31-2.774,3.489-4.13c-1.913-1.882-3.823-3.767-5.718-5.665     c4.703-3.627,9.333-7.336,13.892-11.125c1.253,1.345,2.518,2.679,3.773,4.022c1.295-1.289,2.592-2.575,3.914-3.831     c-1.147-1.255-2.299-2.504-3.445-3.76c4.498-3.827,8.925-7.735,13.281-11.724c1.104,1.292,2.201,2.591,3.303,3.885     c1.411-1.156,2.848-2.284,4.287-3.408c-1.177-1.412-2.345-2.833-3.524-4.243c4.326-4.054,8.58-8.188,12.761-12.405     c1.649,2.116,3.283,4.245,4.913,6.378c1.492-1.002,3.011-1.977,4.531-2.951c-1.837-2.477-3.687-4.943-5.552-7.395     c4.115-4.245,8.16-8.57,12.131-12.975c2.705,3.859,5.341,7.78,7.95,11.724c1.509-0.833,3.018-1.666,4.551-2.475     c-2.872-4.519-5.801-8.989-8.802-13.394c3.069-3.482,6.082-7.027,9.065-10.607c-1.375-1.056-2.728-2.136-4.084-3.212     C203.684,314.7,200.982,317.794,198.231,320.833z M50.512,333.988c4.395-4.34,8.816-8.65,13.285-12.908     c3.891,4.766,7.826,9.495,11.816,14.174c-4.618,4.216-9.226,8.445-13.813,12.698C57.962,343.364,54.204,338.705,50.512,333.988z      M77.279,365.658c-4.025-4.412-7.977-8.889-11.856-13.43c4.635-4.218,9.284-8.42,13.939-12.615     c4.006,4.636,8.06,9.228,12.163,13.778C86.786,357.49,82.039,361.582,77.279,365.658z M81.073,369.783     c4.789-4.023,9.556-8.072,14.313-12.132c4.149,4.539,8.352,9.03,12.599,13.482c-4.779,3.906-9.604,7.759-14.455,11.582     C89.307,378.467,85.15,374.161,81.073,369.783z M110.485,399.057c-4.398-4.064-8.739-8.179-12.992-12.371     c4.863-3.751,9.694-7.538,14.471-11.387c4.263,4.411,8.587,8.769,12.948,13.094C120.171,392.026,115.354,395.57,110.485,399.057z      M60.157,316.616c-4.412,4.263-8.769,8.587-13.094,12.947c-3.633-4.74-7.177-9.558-10.664-14.426     c4.064-4.399,8.178-8.739,12.371-12.992C52.521,307.008,56.308,311.839,60.157,316.616z M68.011,317.105     c4.501-4.241,9.033-8.445,13.607-12.603c4.079,4.755,8.18,9.491,12.296,14.214c-4.67,4.176-9.327,8.367-13.964,12.58     C75.927,326.605,71.951,321.871,68.011,317.105z M83.732,335.676c4.668-4.193,9.348-8.375,14.037-12.546     c4.113,4.696,8.245,9.377,12.395,14.041c-4.721,4.134-9.45,8.26-14.19,12.372C91.851,344.958,87.771,340.336,83.732,335.676z      M99.85,353.839c4.755-4.079,9.492-8.181,14.215-12.297c4.176,4.67,8.367,9.326,12.58,13.964     c-4.693,4.023-9.427,7.999-14.193,11.939C108.212,362.944,104.007,358.412,99.85,353.839z M129.335,384.944     c-4.34-4.395-8.65-8.817-12.908-13.285c4.766-3.892,9.495-7.827,14.174-11.817c4.217,4.618,8.445,9.227,12.699,13.813     C138.713,377.494,134.052,381.252,129.335,384.944z M77.805,300.038c-4.539,4.149-9.03,8.353-13.483,12.6     c-3.906-4.779-7.758-9.603-11.582-14.455c4.249-4.223,8.555-8.381,12.933-12.458C69.697,290.514,73.746,295.282,77.805,300.038z      M69.799,281.931c4.412-4.025,8.888-7.976,13.428-11.855c4.218,4.635,8.42,9.284,12.615,13.939     c-4.635,4.005-9.227,8.059-13.776,12.162C77.967,291.437,73.876,286.691,69.799,281.931z M85.914,300.625     c4.585-4.122,9.207-8.202,13.865-12.24c4.194,4.668,8.374,9.348,12.546,14.036c-4.696,4.113-9.376,8.245-14.039,12.394     C94.152,310.094,90.026,305.365,85.914,300.625z M161.005,358.177c-4.412,4.025-8.888,7.976-13.429,11.855     c-4.218-4.635-8.42-9.284-12.615-13.939c4.635-4.005,9.227-8.059,13.776-12.162C152.837,348.671,156.929,353.417,161.005,358.177     z M144.89,339.483c-4.585,4.121-9.207,8.201-13.865,12.24c-4.194-4.668-8.375-9.348-12.546-14.036     c4.696-4.113,9.375-8.244,14.039-12.394C136.653,330.014,140.778,334.742,144.89,339.483z M128.647,320.879     c-4.68,4.151-9.369,8.291-14.069,12.42c-4.152-4.68-8.292-9.37-12.421-14.07c4.68-4.152,9.369-8.292,14.069-12.42     C120.378,311.489,124.518,316.179,128.647,320.879z M130.954,286.27c-4.755,4.079-9.492,8.181-14.214,12.296     c-4.176-4.67-8.367-9.326-12.58-13.964c4.692-4.023,9.426-7.999,14.192-11.938C122.592,277.164,126.797,281.696,130.954,286.27z      M101.469,255.165c4.34,4.395,8.65,8.817,12.907,13.285c-4.766,3.892-9.494,7.827-14.174,11.816     c-4.217-4.618-8.445-9.226-12.699-13.812C92.092,262.615,96.752,258.857,101.469,255.165z M178.063,341.926     c-4.248,4.224-8.555,8.381-12.933,12.458c-4.023-4.789-8.072-9.557-12.132-14.314c4.539-4.148,9.03-8.352,13.483-12.599     C170.387,332.25,174.24,337.074,178.063,341.926z M162.792,323.004c-4.5,4.24-9.032,8.445-13.606,12.602     c-4.079-4.755-8.18-9.492-12.296-14.215c4.67-4.176,9.326-8.367,13.964-12.58C154.877,313.504,158.852,318.238,162.792,323.004z      M147.072,304.432c-4.668,4.194-9.348,8.375-14.036,12.546c-4.113-4.697-8.245-9.377-12.395-14.041     c4.72-4.135,9.449-8.26,14.19-12.372C138.952,295.151,143.033,299.773,147.072,304.432z M149.731,270.325     c-4.789,4.023-9.556,8.072-14.313,12.132c-4.149-4.539-8.353-9.03-12.599-13.482c4.779-3.905,9.603-7.759,14.455-11.582     C141.498,261.641,145.655,265.947,149.731,270.325z M120.32,241.051c4.399,4.064,8.739,8.178,12.993,12.37     c-4.863,3.751-9.694,7.539-14.472,11.388c-4.263-4.411-8.587-8.768-12.947-13.094     C110.634,248.083,115.451,244.538,120.32,241.051z M194.405,324.971c-4.064,4.399-8.178,8.739-12.37,12.992     c-3.751-4.863-7.539-9.694-11.388-14.471c4.411-4.263,8.769-8.587,13.094-12.948     C187.373,315.284,190.918,320.102,194.405,324.971z M180.292,306.12c-4.395,4.341-8.817,8.65-13.285,12.908     c-3.892-4.766-7.826-9.494-11.816-14.173c4.618-4.216,9.227-8.445,13.813-12.698C172.843,296.744,176.6,301.403,180.292,306.12z      M165.382,287.88c-4.635,4.218-9.284,8.421-13.939,12.615c-4.006-4.636-8.06-9.228-12.163-13.778     c4.74-4.099,9.486-8.191,14.246-12.268C157.55,278.862,161.502,283.339,165.382,287.88z"/>
			<path style="fill:#FFFFFF;" d="M103.727,296.384c2.735-1.071,4.505-0.393,6.168,2.1c9.194,13.785-5.326,23.767-16.145,12.509     c-1.28-1.332-1.541-2.863-0.772-4.608C94.845,302.15,99.655,297.978,103.727,296.384z"/>
			<path style="opacity:0.25;fill:#00328D;" d="M227.174,328.752c-0.317,3.774-2.046,7.159-4.796,9.576     c-0.952,0.846-2.029,1.587-3.227,2.169c-40.152,19.855-71.664,47.664-96.334,85.048c-2.628,3.985-7.036,6.419-11.798,6.489     c-4.303,0.088-8.376-1.746-11.144-4.955c1.957-7.247,5.378-14.371,7.706-19.468c8.782-19.291,23.33-35.268,31.741-54.453     c5.96-13.578,12.502-27.174,11.673-42.41c-1.005-18.551-12.925-34.545-23.1-49.269c-10.492-15.218-18.48-32.164-17.687-49.534     c1.111-1.058,2.381-1.922,3.774-2.574c6.842-3.227,15.112-0.547,18.763,6.154c21.478,39.394,52.072,74.08,88.469,100.319     l0.017-0.018C225.375,318.842,227.597,323.674,227.174,328.752z"/>
		</g>
		<g>
			<g>
				<path style="fill:#000E3F;" d="M79.54,312.79c2.298-2.014,5.971-1.792,7.936,0.481c1.76,2.035,1.631,5.433-0.18,7.443      c-2.048,2.273-6.295,2.219-8.263-0.147C77.217,318.383,77.462,314.611,79.54,312.79z"/>
			</g>
			<g>
				<path style="fill:#000E3F;" d="M112.641,283.568c-2.284,2.03-2.518,5.703-0.506,7.935c1.801,1.999,5.189,2.292,7.408,0.744      c2.509-1.751,2.982-5.972,0.879-8.217C118.478,281.956,114.706,281.732,112.641,283.568z"/>
			</g>
			<path style="fill:#000E3F;" d="M120.056,208.003c5.117,0,10.078,2.739,12.68,7.517c21.485,39.403,52.086,74.089,88.485,100.326     l0.012-0.011c4.144,3.002,6.361,7.835,5.943,12.922c-0.325,3.767-2.055,7.152-4.792,9.567c-0.959,0.847-2.037,1.585-3.231,2.169     c-40.163,19.849-71.671,47.666-96.336,85.047c-2.63,3.987-7.034,6.423-11.79,6.501c-0.089,0.002-0.181,0.003-0.27,0.003     c-4.667,0-9.035-2.239-11.737-6.034c-0.323-0.462-0.623-0.923-0.887-1.416c-0.702-1.28-1.385-2.513-2.082-3.713     c-21.629-38.358-50.744-70.854-86.529-96.587c-4.112-2.967-6.344-7.743-5.951-12.787c0.395-5.067,3.333-9.454,7.854-11.758     c39.807-20.326,71.385-48.16,96.533-85.115c0.087-0.119,0.163-0.251,0.237-0.337c1.472-2.153,3.472-3.854,5.784-4.935     C115.935,208.442,118.008,208.003,120.056,208.003 M120.056,204.476c-2.64,0-5.19,0.571-7.58,1.696     c-2.85,1.332-5.318,3.425-7.135,6.051c-0.073,0.097-0.147,0.203-0.22,0.314c-0.023,0.031-0.057,0.082-0.078,0.114     c-24.799,36.441-55.947,63.904-95.222,83.958c-5.623,2.866-9.275,8.334-9.766,14.624c-0.488,6.273,2.28,12.225,7.405,15.922     c35.374,25.438,64.145,57.554,85.519,95.459c0.705,1.214,1.374,2.424,2.063,3.678c0.282,0.525,0.632,1.087,1.087,1.738     c3.369,4.732,8.831,7.542,14.628,7.542l0.335-0.003c5.908-0.097,11.395-3.12,14.669-8.086     c24.309-36.843,55.369-64.263,94.954-83.827c1.425-0.697,2.775-1.604,4.003-2.688c3.449-3.045,5.57-7.274,5.97-11.907     c0.522-6.346-2.24-12.353-7.388-16.082c-0.093-0.067-0.189-0.13-0.286-0.187c-35.865-25.914-66.009-60.129-87.184-98.961     C132.69,208.062,126.645,204.476,120.056,204.476L120.056,204.476z"/>
		</g>
	</g>
	<g>
		<g>
			<g>
				<path style="fill:#FC09B2;" d="M285.027,107.134c-4.062-4.104-11.51-13.649-13.628-19.728c-1.018-2.922,0.526-6.116,3.448-7.133      c2.676-0.932,5.579,0.285,6.831,2.74c2.946,5.762,4.686,17.828,4.841,23.483C286.542,107.287,285.584,107.692,285.027,107.134z"/>
				<path style="fill:#FC09B2;" d="M287.929,107.007c1.283-5.261,5.248-15.902,9.064-20.581c1.834-2.249,5.144-2.585,7.393-0.751      c2.059,1.679,2.514,4.597,1.168,6.803c-3.155,5.185-11.94,12.504-16.381,15.407      C288.551,108.293,287.757,107.727,287.929,107.007z"/>
				<path style="fill:#FC09B2;" d="M283.945,108.81c-3.999-3.651-13.227-10.27-19.004-12.024c-2.777-0.843-5.711,0.724-6.554,3.501      c-0.772,2.543,0.478,5.217,2.827,6.297c5.511,2.543,16.885,3.716,22.19,3.648C284.146,110.224,284.49,109.311,283.945,108.81z"/>
				<path style="fill:#FC09B2;" d="M479.914,223.853c5.535,1.644,17.465,3.705,23.824,2.702c3.056-0.482,5.143-3.35,4.661-6.407      c-0.441-2.798-2.885-4.784-5.64-4.729c-6.47,0.122-17.929,4.284-22.988,6.816C479.064,222.59,479.159,223.626,479.914,223.853z"/>
				<path style="fill:#FC09B2;" d="M478.656,221.235c4.033-3.614,11.542-12.132,13.866-17.705c1.117-2.678-0.149-5.755-2.827-6.872      c-2.453-1.023-5.239-0.046-6.549,2.182c-3.082,5.229-5.388,16.428-5.851,21.714      C477.229,221.293,478.103,221.727,478.656,221.235z"/>
				<path style="fill:#FC09B2;" d="M478.947,225.598c5.106,1.803,15.296,6.813,19.57,11.078c2.054,2.05,2.057,5.377,0.007,7.431      c-1.877,1.881-4.825,2.041-6.886,0.481c-4.843-3.658-11.246-13.131-13.69-17.841      C477.606,226.088,478.248,225.354,478.947,225.598z"/>
				<path style="fill:#FC09B2;" d="M413.227,335.201c4.062,4.103,11.51,13.649,13.627,19.728c1.018,2.922-0.526,6.116-3.448,7.133      c-2.675,0.932-5.579-0.285-6.831-2.74c-2.946-5.762-4.686-17.828-4.841-23.483C411.712,335.048,412.67,334.643,413.227,335.201z      "/>
				<path style="fill:#FC09B2;" d="M410.325,335.328c-1.283,5.261-5.248,15.902-9.064,20.581c-1.834,2.249-5.144,2.585-7.393,0.751      c-2.059-1.679-2.514-4.597-1.168-6.803c3.155-5.185,11.94-12.504,16.381-15.408      C409.703,334.042,410.497,334.608,410.325,335.328z"/>
				<path style="fill:#FC09B2;" d="M414.308,333.525c3.999,3.651,13.226,10.27,19.004,12.024c2.777,0.843,5.711-0.725,6.554-3.501      c0.772-2.543-0.478-5.217-2.826-6.297c-5.511-2.543-16.885-3.716-22.19-3.648C414.108,332.111,413.764,333.024,414.308,333.525z      "/>
				<path style="fill:#FC09B2;" d="M218.34,218.482c-5.535-1.644-17.465-3.705-23.825-2.702c-3.056,0.482-5.143,3.35-4.661,6.407      c0.441,2.798,2.885,4.784,5.64,4.729c6.47-0.122,17.929-4.284,22.988-6.816C219.19,219.745,219.095,218.709,218.34,218.482z"/>
				<path style="fill:#FC09B2;" d="M219.598,221.1c-4.033,3.614-11.542,12.132-13.866,17.705c-1.117,2.678,0.149,5.755,2.827,6.872      c2.453,1.023,5.239,0.046,6.549-2.182c3.082-5.229,5.388-16.428,5.851-21.713C221.025,221.042,220.151,220.608,219.598,221.1z"/>
				<path style="fill:#FC09B2;" d="M219.307,216.737c-5.106-1.803-15.297-6.813-19.57-11.078c-2.054-2.05-2.057-5.377-0.007-7.431      c1.877-1.881,4.825-2.041,6.886-0.481c4.843,3.659,11.246,13.132,13.69,17.841C220.648,216.247,220.006,216.981,219.307,216.737      z"/>
			</g>
			<path style="fill:#FF8EDE;" d="M418.566,336.626c-1.669,4.663-7.318,6.395-11.306,3.475     c-60.921-44.662-124.53-82.492-190.459-114.053c-3.335-1.613-4.807-5.304-3.892-8.584c0.28-1.06,0.812-2.071,1.608-2.955     c12.139-13.457,25.677-30.704,38.363-52.009c12.302-20.663,20.852-40.173,26.848-56.85c1.673-4.645,7.337-6.324,11.306-3.4     c59.911,44.175,123.214,82.073,190.365,114.011c2.866,1.361,4.364,4.24,4.193,7.094c-0.088,1.603-0.705,3.2-1.898,4.526     C455.114,259.581,433.001,296.528,418.566,336.626z"/>
			<g>
				<g>
					<path style="fill:#007AF4;" d="M273.591,246.512c17.85-34.732,38.003-68.365,60.211-100.484       c1.628-2.233,3.496-1.114,2.296,1.375c-17.834,34.739-37.972,68.381-60.167,100.511       C273.998,250.574,272.158,249.473,273.591,246.512z"/>
				</g>
				<g>
					<path style="fill:#007AF4;" d="M235.37,226.224c19.363-37.259,41.039-73.434,64.761-108.081       c1.735-2.411,3.602-1.292,2.296,1.375c-19.348,37.266-41.009,73.451-64.717,108.108       C235.649,230.499,233.81,229.398,235.37,226.224z"/>
				</g>
				<g>
					<path style="fill:#007AF4;" d="M362.436,299.722c22.194-32.13,42.333-65.771,60.167-100.511c1.2-2.489-0.668-3.608-2.296-1.375       c-22.208,32.12-42.361,65.752-60.211,100.484C358.663,301.281,360.503,302.383,362.436,299.722z"/>
				</g>
				<g>
					<path style="fill:#007AF4;" d="M398.362,323.842c23.708-34.657,45.369-70.841,64.717-108.108       c1.307-2.667-0.561-3.786-2.296-1.375c-23.722,34.647-45.397,70.822-64.761,108.081       C394.462,325.614,396.302,326.715,398.362,323.842z"/>
				</g>
				<g>
					<path style="fill:#007AF4;" d="M393.3,215.416c-21.312-9.811-41.441-21.877-60.141-36.049c-1.285-1.06-0.167-2.928,1.375-2.296       c21.32,9.797,41.458,21.848,60.167,36.005C396.234,214.334,395.132,216.174,393.3,215.416z"/>
				</g>
				<g>
					<path style="fill:#007AF4;" d="M304.955,226.919c21.312,9.811,41.441,21.877,60.141,36.049c1.285,1.06,0.166,2.928-1.375,2.296       c-21.32-9.797-41.458-21.848-60.167-36.005C302.02,228.001,303.122,226.161,304.955,226.919z"/>
				</g>
			</g>
			<g>
				
					<ellipse transform="matrix(0.5138 -0.8579 0.8579 0.5138 -29.6071 428.8362)" style="fill:#FC09B2;" cx="363.542" cy="240.539" rx="8.117" ry="10.68"/>
				<path style="fill:#FC09B2;" d="M316.082,212.115c-2.303,3.846-0.068,9.42,4.992,12.451s11.03,2.37,13.333-1.476      c2.303-3.846,0.068-9.42-4.992-12.451C324.355,207.609,318.385,208.27,316.082,212.115z"/>
				<g>
					<path style="fill:#FC09B2;" d="M309.785,141.514c-2.522-1.51-3.915-4.921-2.515-7.259c1.401-2.339,5.065-2.72,7.587-1.21       c2.522,1.51,8.402,7.761,7.002,10.099C320.458,145.483,312.307,143.024,309.785,141.514z"/>
				</g>
				<g>
					<path style="fill:#FC09B2;" d="M287.977,177.928c-2.522-1.51-3.915-4.92-2.515-7.259c1.401-2.338,5.065-2.72,7.586-1.209       s8.402,7.761,7.002,10.099S290.498,179.438,287.977,177.928z"/>
				</g>
				<g>
					<path style="fill:#FC09B2;" d="M266.168,214.342c-2.522-1.51-3.915-4.921-2.515-7.259c1.4-2.338,5.065-2.719,7.586-1.209       c2.522,1.51,8.402,7.761,7.002,10.099C276.84,218.312,268.689,215.852,266.168,214.342z"/>
				</g>
				<g>
					<path style="fill:#FC09B2;" d="M437.919,218.254c2.522,1.51,6.186,1.129,7.586-1.209c1.401-2.339,0.007-5.749-2.515-7.259       s-10.808-3.745-12.208-1.406C429.382,210.718,435.397,216.744,437.919,218.254z"/>
				</g>
				<g>
					<path style="fill:#FC09B2;" d="M416.11,254.668c2.522,1.51,6.186,1.129,7.586-1.209c1.401-2.338,0.007-5.749-2.515-7.259       c-2.522-1.51-10.808-3.745-12.208-1.406C407.573,247.133,413.589,253.158,416.11,254.668z"/>
				</g>
				<g>
					<path style="fill:#FC09B2;" d="M394.301,291.082c2.522,1.51,6.186,1.129,7.587-1.21c1.4-2.338,0.007-5.748-2.515-7.259       c-2.522-1.51-10.808-3.745-12.208-1.406C385.764,283.547,391.78,289.572,394.301,291.082z"/>
				</g>
				<g>
					<path style="fill:#FC09B2;" d="M348.154,167.962c-1.51,2.522-5.011,3.861-7.46,2.394c-2.449-1.467-2.92-5.185-1.41-7.706       c1.51-2.522,7.856-8.345,10.305-6.879C352.039,157.238,349.664,165.44,348.154,167.962z"/>
				</g>
				<g>
					<path style="fill:#FC09B2;" d="M386.293,190.803c-1.51,2.522-5.011,3.861-7.46,2.394c-2.449-1.467-2.92-5.185-1.41-7.706       c1.51-2.522,7.856-8.345,10.305-6.879S387.803,188.282,386.293,190.803z"/>
				</g>
				<g>
					<path style="fill:#FC09B2;" d="M350.1,274.373c1.51-2.522,5.011-3.861,7.46-2.394c2.449,1.467,2.92,5.185,1.41,7.706       c-1.51,2.522-7.856,8.345-10.305,6.879S348.59,276.895,350.1,274.373z"/>
				</g>
				<g>
					<path style="fill:#FC09B2;" d="M311.962,251.532c1.51-2.522,5.011-3.861,7.46-2.394c2.449,1.467,2.92,5.185,1.41,7.706       c-1.51,2.522-7.856,8.345-10.305,6.879C308.077,262.256,310.452,254.054,311.962,251.532z"/>
				</g>
			</g>
			<g>
				<g>
					<path style="fill:#FFFFFF;" d="M298.881,159.721c-2.522-1.51-3.915-4.92-2.515-7.259s5.065-2.72,7.586-1.21       c2.522,1.51,8.402,7.761,7.002,10.099C309.554,163.69,301.402,161.231,298.881,159.721z"/>
				</g>
				<g>
					<path style="fill:#FFFFFF;" d="M277.072,196.135c-2.522-1.51-3.915-4.921-2.515-7.259c1.401-2.339,5.065-2.72,7.586-1.21       c2.522,1.51,8.402,7.761,7.002,10.099C287.745,200.104,279.593,197.645,277.072,196.135z"/>
				</g>
				<g>
					<path style="fill:#FFFFFF;" d="M255.263,232.549c-2.522-1.51-3.915-4.921-2.515-7.259c1.401-2.338,5.065-2.72,7.587-1.209       s8.402,7.761,7.002,10.099C265.936,236.518,257.785,234.059,255.263,232.549z"/>
				</g>
				<g>
					<path style="fill:#FFFFFF;" d="M427.014,236.461c2.522,1.51,6.186,1.129,7.586-1.209c1.401-2.339,0.007-5.749-2.515-7.259       c-2.522-1.51-10.808-3.744-12.208-1.406C418.478,228.925,424.493,234.951,427.014,236.461z"/>
				</g>
				<g>
					<path style="fill:#FFFFFF;" d="M405.206,272.876c2.522,1.51,6.186,1.129,7.587-1.21c1.401-2.338,0.007-5.749-2.515-7.259       c-2.522-1.51-10.808-3.744-12.208-1.406C396.669,265.34,402.684,271.365,405.206,272.876z"/>
				</g>
				<g>
					<path style="fill:#FFFFFF;" d="M383.397,309.29c2.522,1.51,6.186,1.129,7.586-1.21c1.401-2.339,0.007-5.749-2.515-7.259       c-2.522-1.51-10.808-3.745-12.208-1.406C374.86,301.754,380.875,307.78,383.397,309.29z"/>
				</g>
				<g>
					<path style="fill:#FFFFFF;" d="M367.223,179.383c-1.51,2.522-5.011,3.861-7.46,2.394c-2.449-1.467-2.92-5.185-1.41-7.707       c1.51-2.522,7.856-8.345,10.305-6.878C371.108,168.659,368.734,176.861,367.223,179.383z"/>
				</g>
				<g>
					<path style="fill:#FFFFFF;" d="M405.362,202.224c-1.51,2.522-5.011,3.861-7.46,2.394c-2.449-1.467-2.92-5.185-1.41-7.706       c1.51-2.522,7.856-8.345,10.305-6.878C409.246,191.5,406.872,199.702,405.362,202.224z"/>
				</g>
				<g>
					<path style="fill:#FFFFFF;" d="M331.031,262.953c1.51-2.522,5.011-3.861,7.46-2.394c2.449,1.467,2.92,5.185,1.409,7.706       s-7.856,8.345-10.305,6.878C327.146,273.676,329.521,265.474,331.031,262.953z"/>
				</g>
				<g>
					<path style="fill:#FFFFFF;" d="M292.893,240.111c1.51-2.522,5.011-3.861,7.46-2.394c2.449,1.467,2.92,5.185,1.409,7.706       c-1.51,2.522-7.856,8.345-10.305,6.879C289.008,250.835,291.382,242.633,292.893,240.111z"/>
				</g>
			</g>
			<path style="opacity:0.5;fill:#FC09B2;" d="M418.566,336.626c-1.669,4.663-7.318,6.395-11.306,3.475     c-60.921-44.662-124.53-82.492-190.459-114.053c-3.335-1.613-4.807-5.304-3.891-8.584c21.65-5.126,44.977,2.937,64.638,11.552     c69.263,30.35,83.988,61.427,109.156,63.619c13.086,1.142,22.572-9.78,29.476-19.41c15.11-21.075,37.858-58.071,69.411-49.869     c-0.088,1.603-0.705,3.2-1.898,4.526C455.114,259.581,433.001,296.528,418.566,336.626z"/>
		</g>
		<g>
			<path style="fill:#000E3F;" d="M511.89,219.598c-0.706-4.461-4.497-7.706-9.012-7.706c-0.176,0.025-4.162-0.223-13.33,2.716     c4.49-5.652,8.475-11.047,6.242-16.435c-2.713-6.673-12.05-7.352-15.677-1.128c-2.098,3.562-3.774,9.205-4.885,14.283     c-61.913-29.942-121.392-65.563-176.975-105.98c3.968-3.368,8.165-7.494,10.316-11.039c3.538-5.83-0.676-13.349-7.494-13.349     c-6.567,0-9.669,6.828-12.45,13.314c-1.577-8.628-3.661-17.846-11.937-17.846c-3.317,0-6.627,1.854-8.218,5.167     c-2.394,4.948,0.46,9.731,3.421,14.442c-2.52-1.388-5.809-2.998-8.482-2.998c-9.417,0-12.146,12.833-3.668,16.752     c4.003,1.852,10.069,2.927,15.236,3.474c-6.507,16.699-14.442,32.922-23.612,48.334c-9.47,15.906-20.332,31.036-32.376,45.125     c-2.998-4.409-6.842-9.223-10.245-11.797c-1.516-1.146-3.386-1.763-5.29-1.763c-2.363,0-4.567,0.917-6.225,2.574     c-3.421,3.421-3.404,8.993,0.017,12.414c1.341,1.323,3.104,2.68,5.078,3.968c-2.654-0.177-5.742-0.254-8.358,0.176     c-4.973,0.776-8.376,5.467-7.6,10.439c0.705,4.461,4.496,7.706,9.011,7.706h0.195c3.702-0.071,8.57-1.252,13.137-2.716     c-2.593,3.262-4.991,6.772-6.225,9.716c-1.869,4.479,0.246,9.628,4.725,11.48c1.076,0.459,2.204,0.688,3.368,0.688     c3.103,0,5.995-1.658,7.565-4.338c2.098-3.544,3.774-9.187,4.866-14.266c61.789,30.066,121.251,65.686,176.957,105.997     c-3.95,3.368-8.129,7.495-10.281,11.021c-2.274,3.721-1.428,8.605,1.958,11.374c1.551,1.27,3.527,1.975,5.536,1.975     c2.663,0,5.132-1.181,6.807-3.245c2.028-2.486,3.985-6.242,5.642-10.069c0.864,4.726,2.116,9.576,3.809,12.873     c1.552,3.068,4.673,4.973,8.129,4.973c1.023,0,2.028-0.177,2.998-0.512c2.31-0.811,4.161-2.451,5.22-4.656     c1.058-2.186,1.199-4.673,0.406-6.965c-0.794-2.275-2.187-4.867-3.827-7.477c2.08,1.146,4.109,2.081,5.925,2.627     c0.829,0.247,1.693,0.371,2.557,0.371c3.879,0,7.265-2.504,8.393-6.225c1.27-4.179-0.759-8.693-4.726-10.527     c-4.002-1.852-10.069-2.927-15.235-3.474c13.348-34.192,32.128-65.581,55.988-93.46c2.997,4.391,6.825,9.222,10.246,11.797     c1.516,1.146,3.386,1.763,5.29,1.763c7.795,0,11.74-9.454,6.207-14.989c-1.341-1.34-3.139-2.698-5.132-4.002     c2.539,0.197,5.904,0.271,8.411-0.141C509.262,229.262,512.666,224.571,511.89,219.598z M483.146,198.843     c3.265-5.564,11.876-1.329,9.382,4.69c-1.499,3.562-5.114,8.341-8.57,12.273c-1.276-1.027-1.881-1.143-5.467-2.909     C479.55,207.819,481.189,202.141,483.146,198.843z M296.985,86.427c4.046-4.939,11.981,0.44,8.57,6.048     c-1.992,3.28-6.243,7.406-10.227,10.739c-3.183-2.31-3.718-2.844-5.096-3.457C292.048,94.856,294.552,89.425,296.985,86.427z      M271.399,87.397c-2.284-6.498,7.099-10.58,10.28-4.391c1.958,3.827,3.386,10.422,4.162,16.065     c-1.881,0.161-3.894,0.962-5.431,2.416c-0.23-0.176-0.441-0.335-0.671-0.493C276.283,96.602,272.756,91.294,271.399,87.397z      M261.206,106.582c-5.083-2.331-3.429-10.016,2.204-10.016c3.451,0,10.991,4.975,13.825,6.965     c0.336,0.406,0.653,0.811,0.97,1.199c-0.249,0.493-0.453,1.293-1.923,5.114C270.992,109.333,264.821,108.258,261.206,106.582z      M199.734,205.65c-2.046-2.045-2.046-5.36,0-7.424c1.023-1.022,2.363-1.534,3.721-1.534c1.111,0,2.221,0.353,3.157,1.058     c3.192,2.398,7.036,7.318,9.998,11.744c-0.086,0.098-3.582,4.037-3.615,4.091c-0.512-0.106-1.023-0.194-1.552-0.3     C206.999,211.046,202.309,208.207,199.734,205.65z M195.502,226.916h-0.124c-2.698,0-5.096-1.975-5.519-4.726     c-0.494-3.068,1.605-5.925,4.656-6.419c4.614-0.699,11.347,0.128,15.923,0.952c0.247,0.123,0.494,0.247,0.759,0.352     c-0.547,2.028-0.37,4.109,0.406,5.925C206.258,224.977,199.787,226.828,195.502,226.916z M215.111,243.492     c-0.951,1.622-2.698,2.592-4.532,2.592c-0.67,0-1.358-0.141-2.028-0.406c-2.663-1.111-3.932-4.197-2.822-6.877     c1.499-3.562,5.114-8.341,8.57-12.273c1.061,0.883,1.569,1.008,5.449,2.892C218.691,234.499,217.069,240.195,215.111,243.492z      M401.254,355.909c-1.04,1.269-2.539,1.94-4.074,1.94c-1.163,0-2.345-0.388-3.315-1.181c-2.063-1.693-2.504-4.603-1.163-6.807     c1.992-3.28,6.224-7.406,10.209-10.722c3.497,2.482,3.85,2.894,5.113,3.421C406.209,347.479,403.706,352.91,401.254,355.909z      M426.859,354.921c1.005,2.927-0.529,6.119-3.456,7.141c-0.599,0.212-1.234,0.318-1.834,0.318c-2.081,0-4.02-1.164-4.991-3.051     c-1.957-3.827-3.386-10.422-4.161-16.065c1.903-0.159,3.868-0.954,5.414-2.416c0.229,0.159,0.458,0.335,0.687,0.493     C421.974,345.734,425.501,351.041,426.859,354.921z M437.034,335.753c2.363,1.076,3.598,3.756,2.84,6.295     c-0.688,2.275-2.786,3.721-5.026,3.721c-0.511,0-1.023-0.071-1.534-0.212c-3.491-1.058-8.235-3.897-12.327-6.789     c-0.317-0.388-0.635-0.776-0.934-1.146c0.045-0.079,1.27-3.425,1.922-5.132C427.264,333.002,433.419,334.078,437.034,335.753z      M444.299,278.161c-28.185,47.111-24.398,61.577-32.306,61.577c-6.435,0.586-65.744-53.372-194.431-115.273     c-0.017-0.018-0.035-0.018-0.053-0.035c-3.456-1.728-4.138-6.301-1.464-8.976c14.129-15.793,26.806-32.678,38.354-52.055     c11.902-19.984,22.155-42.729,26.874-56.869c1.112-2.782,3.168-3.932,4.99-3.932c2.327-0.663,5.807,2.647,9.187,5.061     c98.786,71.983,183.803,108.945,186.108,110.759c2.556,1.817,3.164,5.631,0.829,8.288c-0.053,0.07-0.124,0.123-0.159,0.194     C472.695,236.977,456.9,257.12,444.299,278.161z M498.523,236.668c4.58,4.619-1.698,11.827-6.877,7.918     c-3.192-2.398-7.036-7.318-9.999-11.744c1.547-1.767,3.265-3.673,3.616-4.091c0.476,0.088,0.969,0.176,1.464,0.264     C491.205,231.254,495.931,234.111,498.523,236.668z M503.743,226.564c-6.469,0.981-15.456-0.952-15.977-0.952     c-0.229-0.124-0.458-0.247-0.688-0.353c0.471-1.943,0.416-3.909-0.423-5.925c11.161-4.125,16.046-3.883,16.223-3.915     C509.707,215.419,510.53,225.465,503.743,226.564z"/>
			<path style="fill:#000E3F;" d="M360.943,219.439c-0.846-0.494-1.922-0.194-2.416,0.653c-1.34,2.345-4.109,4.25-6.894,4.726     c-1.411,0.247-3.474,0.247-5.202-1.234c-3.156-2.68-2.486-7.953-0.529-11.727c0.441-0.864,0.105-1.922-0.759-2.38     c-0.865-0.441-1.94-0.106-2.381,0.758c-2.574,4.973-3.245,12.097,1.376,16.029c1.693,1.446,3.844,2.204,6.154,2.204     c0.635,0,1.287-0.053,1.957-0.177c3.809-0.67,7.477-3.192,9.347-6.454C362.072,220.991,361.79,219.916,360.943,219.439z"/>
			<g>
				<path style="fill:#000E3F;" d="M366.24,221.767c1.354-2.521,5.175-3.417,7.654-1.875c2.853,1.775,3.06,5.555,1.847,7.474      C372.117,233.101,362.918,227.951,366.24,221.767z"/>
			</g>
			<g>
				<path style="fill:#000E3F;" d="M340.521,206.364c1.583-2.384,0.57-6.175-1.96-7.632c-2.912-1.677-6.341-0.076-7.461,1.899      C327.755,206.532,336.637,212.211,340.521,206.364z"/>
			</g>
		</g>
	</g>
	<g>
		<path style="fill:#FD8A02;" d="M182.727,110.364c-1.722,1.971-5.26,4.401-8.414,12.515c-0.283,0.727-0.579,1.461-0.971,2.131    c-0.546,0.933-1.688,0.981-2.311,0.071c-1.409-2.056-1.455-5.3-6.164-10.958c-2.764-3.32-5.478-4.385-3.114-6.35    c5.893-4.899,7.979-12.317,9.064-14.273c0.468-0.845,1.558-0.9,2.147-0.145c0.631,0.809,0.951,1.785,1.325,2.729    c2.77,6.986,6.657,10.207,8.242,11.77C182.928,108.245,183.321,109.686,182.727,110.364z"/>
		<path style="fill:#FD8A02;" d="M229.751,137.199c-1.722,1.971-5.26,4.401-8.414,12.515c-0.283,0.727-0.579,1.461-0.971,2.131    c-0.546,0.933-1.688,0.981-2.311,0.071c-1.409-2.056-1.455-5.3-6.164-10.958c-2.764-3.32-5.478-4.385-3.114-6.35    c5.893-4.899,7.979-12.317,9.064-14.273c0.468-0.844,1.559-0.899,2.147-0.145c0.631,0.809,0.951,1.785,1.325,2.729    c2.77,6.986,6.658,10.207,8.242,11.77C229.951,135.08,230.344,136.521,229.751,137.199z"/>
		<path style="fill:#FD8A02;" d="M302.826,307.95c-1.983,2.268-6.054,5.057-9.692,14.414c-0.326,0.838-0.667,1.682-1.118,2.454    c-0.629,1.075-1.945,1.129-2.662,0.082c-1.624-2.37-1.676-6.105-7.1-12.621c-3.183-3.824-6.31-5.05-3.587-7.314    c6.787-5.643,9.191-14.186,10.44-16.44c0.539-0.973,1.795-1.036,2.473-0.167c0.727,0.932,1.095,2.056,1.526,3.143    c3.196,8.061,7.689,11.777,9.493,13.556C303.056,305.51,303.509,307.169,302.826,307.95z"/>
		<path style="fill:#FD8A02;" d="M176.63,179.627c-0.414,0.473-0.833,0.947-1.293,1.373c-6.488,6.007-8.074,13.03-9.517,15.496    c-0.629,1.075-1.945,1.129-2.662,0.082c-0.5-0.73-0.876-1.572-1.174-2.412c-4.635-13.108-13.585-14.137-9.514-17.522    c6.787-5.642,9.191-14.186,10.44-16.44c0.539-0.973,1.795-1.036,2.473-0.167c0.727,0.932,1.095,2.056,1.526,3.143    c3.196,8.061,7.69,11.777,9.493,13.556C176.86,177.186,177.315,178.844,176.63,179.627z"/>
		<path style="fill:#FD8A02;" d="M340.961,352.169c-0.414,0.473-0.833,0.947-1.293,1.372c-6.488,6.007-8.074,13.03-9.517,15.496    c-0.629,1.075-1.945,1.129-2.662,0.082c-0.5-0.73-0.876-1.572-1.174-2.413c-4.635-13.108-13.585-14.137-9.514-17.522    c6.787-5.642,9.191-14.186,10.44-16.44c0.539-0.973,1.795-1.036,2.473-0.167c0.727,0.932,1.095,2.056,1.526,3.143    c3.196,8.061,7.69,11.777,9.493,13.556C341.191,349.728,341.646,351.385,340.961,352.169z"/>
		<path style="fill:#FD8A02;" d="M267.928,360.925c-1.722,1.971-5.26,4.401-8.414,12.515c-0.283,0.727-0.579,1.461-0.971,2.131    c-0.546,0.933-1.688,0.981-2.311,0.071c-1.409-2.056-1.455-5.3-6.164-10.958c-2.764-3.32-5.478-4.385-3.114-6.35    c5.893-4.899,7.979-12.317,9.064-14.273c0.468-0.844,1.558-0.899,2.147-0.145c0.631,0.809,0.951,1.785,1.325,2.729    c2.77,6.986,6.657,10.207,8.242,11.77C268.129,358.807,268.522,360.247,267.928,360.925z"/>
	</g>
</g>















</svg>
