<?xml version="1.0" encoding="UTF-8"?>
<!-- Generator: Adobe Illustrator 25.2.1, SVG Export Plug-In . SVG Version: 6.00 Build 0)  -->
<svg xmlns="http://www.w3.org/2000/svg" xmlns:xlink="http://www.w3.org/1999/xlink" version="1.1" id="Capa_1" x="0px" y="0px" viewBox="0 0 512 512" style="enable-background:new 0 0 512 512;" xml:space="preserve" width="512" height="512">
<g>
	<g>
		<g>
			<path style="fill:#007AF4;" d="M503.855,211.419c0,60.923-49.376,110.3-110.323,110.3c-46.866,0-86.912-29.253-102.861-70.507     c-0.252-0.593-0.479-1.209-0.708-1.825c-4.359-11.843-6.708-24.62-6.708-37.969c0-60.923,49.377-110.323,110.276-110.323     c11.409,0,22.408,1.757,32.721,4.952c0.136,0.046,0.296,0.091,0.433,0.137C471.409,120.263,503.855,162.042,503.855,211.419z"/>
			<path style="fill:#FF8EDE;" d="M492.036,211.419c0,54.397-44.084,98.48-98.505,98.48c-39.77,0-74.066-23.593-89.581-57.546     c-1.073-2.305-2.031-4.632-2.898-7.028c-3.879-10.564-6.001-21.996-6.001-33.907c0-54.42,44.106-98.504,98.48-98.504     c10.314,0,20.285,1.597,29.617,4.541c1.667,0.525,3.331,1.095,4.951,1.734C465.453,133.155,492.036,169.161,492.036,211.419z"/>
			<path style="fill:#FFFFFF;" d="M393.971,172.61c-6.116,0.138-11.926,5.694-11.421,12.006c0.719,8.98,13.977,11.614,19.799,6.055     C409.374,183.964,403.171,172.403,393.971,172.61z"/>
			<path style="opacity:0.25;fill:#00328D;" d="M426.253,106.048c-0.303,3.533,0.165,7.895,1.848,13.144c0,0,0-0.001-0.001-0.001     c2.621,8.025,7.099,15.666,11.912,22.521c52.663,75.002,15.972,166.158-95.811,122.028c-12.544-4.962-26.803-9.413-40.25-11.386     c0.006,0.012,0.012,0.024,0.018,0.036c-4.726-0.691-9.178-1.097-13.297-1.177c15.948,41.255,55.994,70.507,102.861,70.507     c60.947,0,110.323-49.377,110.323-110.3C503.855,166.551,476.814,123.047,426.253,106.048z"/>
		</g>
		<g>
			<path style="fill:#000E3F;" d="M374.354,169.12c0.071-1.258-0.891-2.335-2.148-2.407c-1.275-0.059-2.337,0.89-2.407,2.15     c-0.165,2.921-1.629,5.615-3.728,6.864c-1.575,0.938-3.304,0.975-5.152,0.102c-2.977-1.406-4.249-5.27-3.964-8.36     c0.114-1.254-0.809-2.365-2.063-2.48c-1.27-0.113-2.366,0.81-2.482,2.063c-0.508,5.533,2.191,10.839,6.562,12.904     c1.497,0.708,3.028,1.061,4.528,1.061c1.707,0,3.371-0.457,4.905-1.368C371.823,177.616,374.102,173.582,374.354,169.12z"/>
			<path style="fill:#000E3F;" d="M418.69,179.649c1.533,0.912,3.198,1.369,4.905,1.369c1.5,0,3.033-0.353,4.532-1.061     c4.367-2.065,7.066-7.371,6.56-12.903c-0.116-1.255-1.237-2.172-2.48-2.064c-1.254,0.114-2.179,1.224-2.066,2.479     c0.283,3.091-0.989,6.956-3.964,8.361c-1.843,0.871-3.579,0.838-5.154-0.104c-2.099-1.248-3.563-3.942-3.728-6.863     c-0.069-1.257-1.119-2.229-2.407-2.15c-1.257,0.071-2.219,1.149-2.148,2.407C412.993,173.581,415.272,177.616,418.69,179.649z"/>
			<path style="fill:#000E3F;" d="M454.716,213.516c0.918-0.017,1.668-0.758,1.684-1.684c0.018-0.947-0.736-1.728-1.683-1.745     c-10.195-0.182-20.39-0.296-30.584-0.364l-23.046-0.175c-0.966-3.273-3.959-5.676-7.544-5.676c-4.364,0-7.902,3.538-7.902,7.902     c0,1.947,0.731,3.707,1.9,5.084c-5.557,8.588-11.138,17.161-16.571,25.83c-0.629,1.006-0.348,2.339,0.646,3     c1.013,0.673,2.378,0.398,3.051-0.614c5.664-8.519,11.18-17.135,16.72-25.734c0.69,0.197,1.403,0.335,2.156,0.335     c3.582,0,6.572-2.399,7.542-5.668l23.046-0.154C434.325,213.794,444.521,213.689,454.716,213.516z"/>
			<path style="fill:#000E3F;" d="M392.049,140.959c0.106,0.744,0.691,1.362,1.473,1.473c0.947,0.133,1.823-0.526,1.956-1.473     c0.309-2.188,0.434-4.375,0.542-6.563c0.072-2.188,0.131-4.375-0.056-6.563c-0.09-1.051-0.925-1.917-2.011-2.01     c-1.215-0.105-2.285,0.795-2.39,2.01c-0.187,2.188-0.128,4.375-0.056,6.563C391.616,136.584,391.741,138.771,392.049,140.959z"/>
			<path style="fill:#000E3F;" d="M430.487,151.389c1.363-1.739,2.565-3.57,3.755-5.41c1.158-1.858,2.304-3.722,3.237-5.71     c0.449-0.955,0.159-2.122-0.734-2.747c-1-0.698-2.377-0.455-3.075,0.545c-1.258,1.799-2.302,3.723-3.334,5.653     c-1.001,1.948-1.989,3.904-2.816,5.952c-0.282,0.697-0.084,1.525,0.537,2.012C428.809,152.274,429.898,152.142,430.487,151.389z"/>
			<path style="fill:#000E3F;" d="M455.572,177.943c2.05-0.824,4.008-1.807,5.958-2.804c1.932-1.028,3.857-2.068,5.66-3.322     c0.867-0.602,1.201-1.757,0.74-2.746c-0.516-1.105-1.829-1.583-2.935-1.068c-1.99,0.929-3.856,2.071-5.716,3.225     c-1.843,1.185-3.677,2.384-5.418,3.743c-0.593,0.463-0.837,1.278-0.543,2.011C453.676,177.87,454.684,178.3,455.572,177.943z"/>
			<path style="fill:#000E3F;" d="M477.128,209.602c-2.187-0.193-4.375-0.138-6.563-0.07c-2.187,0.104-4.375,0.224-6.563,0.528     c-0.744,0.104-1.364,0.688-1.475,1.47c-0.136,0.946,0.521,1.824,1.469,1.96c2.187,0.313,4.374,0.442,6.561,0.555     c2.187,0.077,4.375,0.141,6.562-0.043c1.052-0.087,1.92-0.92,2.015-2.007C479.241,210.78,478.343,209.709,477.128,209.602z"/>
			<path style="fill:#000E3F;" d="M461.161,248.34c-1.946-1.005-3.9-1.997-5.947-2.829c-0.696-0.282-1.525-0.087-2.013,0.534     c-0.591,0.751-0.461,1.84,0.291,2.432c1.737,1.365,3.565,2.573,5.403,3.765c1.855,1.161,3.717,2.312,5.702,3.248     c0.954,0.451,2.122,0.165,2.749-0.728c0.701-0.998,0.46-2.375-0.538-3.076C465.01,250.424,463.089,249.376,461.161,248.34z"/>
			<path style="fill:#000E3F;" d="M433.593,277.227c-1.182-1.845-2.378-3.681-3.732-5.426c-0.461-0.593-1.277-0.838-2.01-0.546     c-0.888,0.355-1.32,1.362-0.966,2.251c0.82,2.052,1.799,4.011,2.792,5.964c1.024,1.934,2.06,3.862,3.31,5.667     c0.6,0.868,1.755,1.205,2.744,0.745c1.106-0.513,1.588-1.826,1.074-2.932C435.882,280.958,434.743,279.09,433.593,277.227z"/>
			<path style="fill:#000E3F;" d="M394.752,281.869c-0.102-0.745-0.685-1.365-1.466-1.479c-0.947-0.138-1.825,0.518-1.963,1.465     c-0.318,2.186-0.451,4.374-0.569,6.561c-0.081,2.187-0.149,4.375,0.029,6.563c0.086,1.052,0.917,1.922,2.003,2.02     c1.214,0.109,2.287-0.787,2.398-2.001c0.197-2.187,0.147-4.375,0.084-6.563C395.167,286.246,395.052,284.057,394.752,281.869z"/>
			<path style="fill:#000E3F;" d="M356.358,271.279c-1.369,1.734-2.581,3.56-3.777,5.394c-1.166,1.853-2.32,3.712-3.26,5.696     c-0.452,0.953-0.168,2.122,0.723,2.751c0.996,0.702,2.374,0.464,3.077-0.533c1.264-1.794,2.316-3.713,3.357-5.639     c1.009-1.944,2.004-3.896,2.841-5.941c0.284-0.696,0.09-1.525-0.529-2.014C358.039,270.401,356.95,270.529,356.358,271.279z"/>
			<path style="fill:#000E3F;" d="M331.383,244.621c-2.053,0.815-4.016,1.79-5.97,2.779c-1.936,1.02-3.866,2.052-5.674,3.299     c-0.869,0.598-1.208,1.752-0.751,2.743c0.511,1.107,1.823,1.591,2.93,1.08c1.994-0.92,3.865-2.055,5.73-3.201     c1.846-1.178,3.685-2.369,5.433-3.721c0.595-0.46,0.841-1.275,0.55-2.009C333.278,244.703,332.272,244.268,331.383,244.621z"/>
			<path style="fill:#000E3F;" d="M324.568,211.007c0.14-0.946-0.514-1.826-1.459-1.965c-2.186-0.322-4.373-0.46-6.56-0.583     c-2.187-0.086-4.374-0.159-6.563,0.016c-1.051,0.083-1.923,0.912-2.023,1.998c-0.111,1.214,0.782,2.29,1.997,2.402     c2.186,0.202,4.374,0.156,6.562,0.098c2.188-0.095,4.376-0.206,6.566-0.501C323.831,212.369,324.453,211.788,324.568,211.007z"/>
			<path style="fill:#000E3F;" d="M328.369,170.31c-1.851-1.169-3.708-2.327-5.69-3.272c-0.952-0.455-2.121-0.173-2.752,0.717     c-0.704,0.995-0.469,2.373,0.526,3.078c1.791,1.269,3.709,2.325,5.632,3.369c1.942,1.013,3.892,2.013,5.935,2.853     c0.695,0.286,1.525,0.093,2.015-0.525c0.594-0.749,0.469-1.838-0.281-2.432C332.025,172.725,330.201,171.511,328.369,170.31z"/>
			<path style="fill:#000E3F;" d="M353.773,145.43c1.174,1.849,2.362,3.69,3.71,5.44c0.459,0.595,1.274,0.844,2.008,0.554     c0.889-0.351,1.326-1.357,0.975-2.246c-0.811-2.055-1.782-4.019-2.767-5.975c-1.016-1.939-2.044-3.87-3.287-5.68     c-0.596-0.87-1.75-1.212-2.741-0.757c-1.109,0.509-1.595,1.82-1.086,2.928C351.5,141.689,352.631,143.563,353.773,145.43z"/>
			<path style="fill:#000E3F;" d="M485.703,142.835c-14.359-19.263-34.829-33.824-57.639-41.001     c-11.129-3.51-22.746-5.29-34.525-5.29c-63.332,0-114.857,51.533-114.857,114.875c0,13.625,2.355,26.93,6.999,39.547     c16.509,45.044,59.855,75.311,107.858,75.311c63.342,0,114.876-51.525,114.876-114.858     C508.414,186.483,500.561,162.767,485.703,142.835z M393.539,321.713c-47.564,0-88.107-30.123-103.575-72.325     c-4.356-11.834-6.718-24.62-6.718-37.97c0-60.931,49.38-110.312,110.293-110.312c11.551,0,22.697,1.781,33.156,5.079     c44.724,14.073,77.156,55.852,77.156,105.233C503.851,272.333,454.47,321.713,393.539,321.713z"/>
		</g>
	</g>
	<g>
		<path style="fill:#FF8EDE;" d="M240.07,317.066V468.46c0,8.214-6.664,14.877-14.877,14.877H21.522    c-2.898,0-5.613-0.821-7.895-2.282c-1.163-0.707-2.236-1.597-3.149-2.624c-2.397-2.624-3.856-6.138-3.856-9.971V317.066    c0-8.214,6.663-14.877,14.899-14.877h203.67c1.483,0,2.92,0.228,4.267,0.616C235.597,304.653,240.07,310.335,240.07,317.066z"/>
		<path style="fill:#007AF4;" d="M227.162,325.549V459.99c0,5.293-4.29,9.583-9.606,9.583H29.128c-2.35,0-4.518-0.844-6.183-2.259    c-2.099-1.757-3.423-4.381-3.423-7.324V325.549c0-5.316,4.313-9.606,9.606-9.606h188.428    C222.873,315.943,227.162,320.233,227.162,325.549z"/>
		<path style="opacity:0.25;fill:#00328D;" d="M229.46,302.805c-5.125,3.309-9.073,7.812-12.182,13.138h-0.019    c-15.906,23.911-8.199,80.612-11.166,105.582c-1.426,11.963-6.193,20.153-14.418,25.456c-18.101,11.665-52.94,9.36-105.754,2.536    c-23.008-2.971-47.545,0.338-62.976,17.798c0.012,0.011,0.027,0.018,0.039,0.028c-3.995,4.383-7.085,9.091-9.357,13.713    c6.764,4.329-0.031,1.451,211.565,2.282c8.213,0,14.876-6.663,14.876-14.877V317.066    C240.069,310.335,235.598,304.653,229.46,302.805z"/>
		<g>
			<g>
				<path style="fill:#000E3F;" d="M225.192,302.189c1.483,0,2.92,0.228,4.267,0.616c6.138,1.848,10.61,7.53,10.61,14.261V468.46      c0,8.214-6.664,14.877-14.877,14.877H21.522c-2.898,0-5.613-0.821-7.895-2.282c-1.163-0.707-2.236-1.597-3.149-2.624      c-2.397-2.624-3.856-6.138-3.856-9.971V317.066c0-8.215,6.663-14.877,14.899-14.877H225.192 M225.192,297.625H21.522      c-10.731,0-19.463,8.721-19.463,19.441V468.46c0,4.849,1.794,9.483,5.05,13.049c1.171,1.318,2.58,2.493,4.147,3.446      c2.979,1.908,6.56,2.946,10.266,2.946h203.67c10.719,0,19.441-8.721,19.441-19.441V317.066c0-8.647-5.569-16.134-13.858-18.631      C228.891,297.893,227.031,297.625,225.192,297.625L225.192,297.625z"/>
			</g>
			<g>
				<path style="fill:#000E3F;" d="M49.398,436.918l45.112-47.644c0.797-0.841,2.123-0.877,2.966-0.081      c0.185,0.175,0.332,0.378,0.439,0.594l0.011,0.026l21.284,43.52l-1.6-1.242l38.224,7.751l-2.547,1.309l17.55-38.964      c0.499-1.107,1.802-1.601,2.91-1.102c1.107,0.499,1.605,1.793,1.106,2.901l-17.383,39.038c-0.445,0.997-1.521,1.519-2.548,1.309      l-38.222-7.767c-0.72-0.144-1.3-0.632-1.601-1.243l-20.965-43.675l3.416,0.539L51.874,439.29      c-0.659,0.68-1.745,0.696-2.425,0.037C48.775,438.673,48.754,437.598,49.398,436.918z"/>
			</g>
			<g>
				<path style="fill:#000E3F;" d="M189.604,365.189c-12.589-9.028-24.98-18.318-37.469-27.479l3.263-0.546      c-7.267,10.701-14.394,21.498-21.787,32.115c-0.694,0.997-2.066,1.242-3.063,0.548c-0.979-0.682-1.231-2.019-0.584-3.011      c7.086-10.824,14.439-21.468,21.651-32.206l0.012-0.018c0.695-1.035,2.097-1.31,3.131-0.615l0.12,0.086      c12.263,9.461,24.623,18.793,36.786,28.386c0.744,0.587,0.871,1.665,0.284,2.409C191.38,365.58,190.344,365.718,189.604,365.189      z"/>
			</g>
			<g>
				<path style="fill:#000E3F;" d="M199.857,451.785c-7.52-1.014-14.99-2.318-22.485-3.478c-7.478-1.251-14.95-2.536-22.381-4.054      c-1.191-0.243-1.96-1.405-1.717-2.596c0.236-1.154,1.34-1.91,2.491-1.735c7.496,1.153,14.95,2.537,22.399,3.956      c7.432,1.51,14.89,2.877,22.296,4.532c0.926,0.207,1.507,1.124,1.301,2.049C201.566,451.333,200.729,451.9,199.857,451.785z"/>
			</g>
			<g>
				<path style="fill:#000E3F;" d="M110.553,341.556c-8.891,0.091-17.781,0.122-26.671,0.101l-26.67-0.016l2.227-1.699      c-3.775,14.155-7.397,28.35-11.316,42.466c-0.325,1.171-1.538,1.857-2.709,1.531c-1.153-0.32-1.834-1.503-1.545-2.656      c3.571-14.209,7.44-28.339,11.156-42.509l0.005-0.014c0.269-1.028,1.207-1.703,2.224-1.685l26.667,0.467      c8.889,0.139,17.777,0.332,26.665,0.584c0.947,0.027,1.692,0.816,1.666,1.763C112.224,340.813,111.469,341.545,110.553,341.556z      "/>
			</g>
			<g>
				<path style="fill:#000E3F;" d="M80.31,366.61c-4.256-3.614-8.385-7.36-12.503-11.12c-4.093-3.785-8.177-7.579-12.091-11.553      c-0.854-0.866-0.843-2.26,0.023-3.113c0.829-0.817,2.146-0.837,3.005-0.079c4.174,3.701,8.176,7.582,12.169,11.472      c3.968,3.916,7.926,7.844,11.758,11.905c0.651,0.69,0.618,1.777-0.071,2.428C81.959,367.154,80.969,367.165,80.31,366.61z"/>
			</g>
		</g>
		<g>
			<path style="fill:#FFFFFF;" d="M116.595,425.402l1.76,3.566c0.091,0.185,0.268,0.314,0.473,0.343l3.935,0.572     c0.515,0.075,0.721,0.708,0.348,1.071l-2.847,2.776c-0.148,0.144-0.216,0.352-0.181,0.556l0.672,3.919     c0.088,0.513-0.451,0.904-0.911,0.662l-3.52-1.85c-0.183-0.096-0.402-0.096-0.585,0l-3.52,1.85     c-0.461,0.242-0.999-0.149-0.911-0.662l0.672-3.919c0.035-0.204-0.033-0.412-0.181-0.556l-2.847-2.776     c-0.373-0.363-0.167-0.996,0.348-1.071l3.935-0.572c0.205-0.03,0.381-0.158,0.473-0.343l1.76-3.566     C115.699,424.935,116.365,424.935,116.595,425.402z"/>
			<path style="fill:#FFFFFF;" d="M134.551,360.309l1.76,3.566c0.092,0.185,0.268,0.314,0.473,0.343l3.935,0.572     c0.515,0.075,0.721,0.708,0.348,1.071l-2.847,2.776c-0.148,0.144-0.216,0.352-0.181,0.556l0.672,3.919     c0.088,0.513-0.451,0.904-0.911,0.662l-3.52-1.85c-0.183-0.096-0.402-0.096-0.585,0l-3.52,1.85     c-0.461,0.242-0.999-0.149-0.911-0.662l0.672-3.919c0.035-0.204-0.033-0.412-0.181-0.556l-2.848-2.776     c-0.373-0.363-0.167-0.996,0.348-1.071l3.935-0.572c0.205-0.03,0.381-0.158,0.473-0.343l1.76-3.566     C133.655,359.843,134.32,359.843,134.551,360.309z"/>
			<path style="fill:#FFFFFF;" d="M111.345,331.9l1.76,3.566c0.091,0.185,0.268,0.314,0.473,0.343l3.935,0.572     c0.515,0.075,0.721,0.708,0.348,1.071l-2.847,2.776c-0.148,0.144-0.216,0.352-0.181,0.556l0.672,3.919     c0.088,0.513-0.451,0.904-0.911,0.662l-3.52-1.85c-0.183-0.096-0.402-0.096-0.585,0l-3.52,1.85     c-0.461,0.242-0.999-0.149-0.911-0.662l0.672-3.919c0.035-0.204-0.033-0.412-0.181-0.556l-2.848-2.776     c-0.373-0.363-0.167-0.996,0.348-1.071l3.935-0.572c0.205-0.03,0.381-0.158,0.473-0.343l1.76-3.566     C110.449,331.433,111.115,331.433,111.345,331.9z"/>
			<path style="fill:#FFFFFF;" d="M175.033,395.082l1.76,3.566c0.092,0.185,0.268,0.314,0.473,0.344l3.935,0.572     c0.515,0.075,0.721,0.708,0.348,1.071l-2.848,2.776c-0.148,0.144-0.215,0.352-0.181,0.556l0.672,3.919     c0.088,0.513-0.451,0.904-0.911,0.662l-3.52-1.85c-0.183-0.096-0.402-0.096-0.585,0l-3.52,1.85     c-0.461,0.242-0.999-0.149-0.911-0.662l0.672-3.919c0.035-0.204-0.033-0.412-0.181-0.556l-2.847-2.776     c-0.373-0.363-0.167-0.996,0.348-1.071l3.935-0.572c0.205-0.03,0.381-0.158,0.473-0.344l1.76-3.566     C174.137,394.615,174.802,394.615,175.033,395.082z"/>
			<path style="fill:#FFFFFF;" d="M96.593,384.136l1.76,3.566c0.091,0.185,0.268,0.314,0.473,0.344l3.935,0.572     c0.515,0.075,0.721,0.708,0.348,1.071l-2.847,2.776c-0.148,0.144-0.216,0.352-0.181,0.556l0.672,3.919     c0.088,0.513-0.451,0.904-0.911,0.662l-3.52-1.85c-0.183-0.096-0.402-0.096-0.585,0l-3.52,1.85     c-0.461,0.242-0.999-0.149-0.911-0.662l0.672-3.919c0.035-0.204-0.033-0.412-0.181-0.556l-2.848-2.776     c-0.373-0.363-0.167-0.996,0.348-1.071l3.935-0.572c0.205-0.03,0.381-0.158,0.473-0.344l1.76-3.566     C95.697,383.67,96.363,383.67,96.593,384.136z"/>
			<path style="fill:#FFFFFF;" d="M82.054,357.585l1.76,3.566c0.091,0.185,0.268,0.314,0.473,0.343l3.935,0.572     c0.515,0.075,0.721,0.708,0.348,1.071l-2.847,2.776c-0.148,0.144-0.216,0.352-0.181,0.556l0.672,3.919     c0.088,0.513-0.451,0.904-0.911,0.662l-3.52-1.85c-0.183-0.096-0.402-0.096-0.585,0l-3.52,1.85     c-0.461,0.242-0.999-0.149-0.911-0.662l0.672-3.919c0.035-0.204-0.033-0.412-0.181-0.556l-2.848-2.776     c-0.373-0.363-0.167-0.996,0.348-1.071l3.935-0.572c0.205-0.03,0.381-0.158,0.473-0.343l1.76-3.566     C81.158,357.118,81.824,357.118,82.054,357.585z"/>
		</g>
		<g>
			<path style="fill:#FFCF00;" d="M189.544,349.907l3.124,6.33c0.163,0.329,0.476,0.557,0.84,0.61l6.986,1.015     c0.915,0.133,1.28,1.257,0.618,1.902l-5.055,4.927c-0.263,0.256-0.383,0.625-0.321,0.987l1.193,6.957     c0.156,0.911-0.8,1.605-1.618,1.175l-6.248-3.285c-0.325-0.171-0.713-0.171-1.038,0l-6.248,3.285     c-0.818,0.43-1.774-0.264-1.618-1.175l1.193-6.957c0.062-0.362-0.058-0.731-0.321-0.987l-5.055-4.927     c-0.662-0.645-0.297-1.769,0.618-1.902l6.986-1.015c0.363-0.053,0.677-0.281,0.839-0.61l3.124-6.33     C187.954,349.078,189.135,349.078,189.544,349.907z"/>
			<path style="fill:#FFCF00;" d="M200.972,438.609l2.541,5.15c0.132,0.268,0.388,0.453,0.683,0.496l5.683,0.826     c0.744,0.108,1.041,1.022,0.503,1.547l-4.112,4.009c-0.214,0.208-0.311,0.508-0.261,0.803l0.971,5.66     c0.127,0.741-0.651,1.306-1.316,0.956l-5.083-2.672c-0.264-0.139-0.58-0.139-0.844,0l-5.083,2.672     c-0.665,0.35-1.443-0.215-1.316-0.956l0.971-5.66c0.05-0.294-0.047-0.595-0.261-0.803l-4.112-4.009     c-0.538-0.525-0.241-1.439,0.503-1.547l5.683-0.826c0.295-0.043,0.551-0.229,0.683-0.496l2.541-5.15     C199.678,437.935,200.64,437.935,200.972,438.609z"/>
			<path style="fill:#FFCF00;" d="M54.005,422.622l3.124,6.33c0.163,0.329,0.476,0.557,0.84,0.61l6.986,1.015     c0.915,0.133,1.28,1.257,0.618,1.902l-5.055,4.927c-0.263,0.256-0.383,0.625-0.321,0.987l1.193,6.957     c0.156,0.911-0.8,1.605-1.618,1.175l-6.248-3.285c-0.325-0.171-0.713-0.171-1.038,0l-6.248,3.285     c-0.818,0.43-1.774-0.264-1.618-1.175l1.193-6.957c0.062-0.362-0.058-0.731-0.321-0.987l-5.055-4.927     c-0.662-0.645-0.297-1.769,0.618-1.902l6.986-1.015c0.363-0.053,0.677-0.281,0.839-0.61l3.124-6.33     C52.415,421.794,53.596,421.794,54.005,422.622z"/>
			<path style="fill:#FFCF00;" d="M58.683,327.998l3.182,6.447c0.165,0.335,0.485,0.568,0.855,0.621l7.115,1.034     c0.932,0.135,1.304,1.28,0.629,1.937l-5.149,5.019c-0.268,0.261-0.39,0.637-0.327,1.005l1.215,7.086     c0.159,0.928-0.815,1.635-1.648,1.197l-6.364-3.346c-0.331-0.174-0.726-0.174-1.057,0l-6.364,3.346     c-0.833,0.438-1.807-0.269-1.648-1.197l1.215-7.086c0.063-0.368-0.059-0.744-0.327-1.005l-5.149-5.019     c-0.674-0.657-0.302-1.802,0.629-1.937l7.115-1.034c0.37-0.054,0.69-0.286,0.855-0.621l3.182-6.447     C57.063,327.154,58.266,327.154,58.683,327.998z"/>
		</g>
		<g>
			<path style="fill:#00D5FE;" d="M157.863,434.294l2.054,4.162c0.107,0.216,0.313,0.366,0.552,0.401l4.593,0.667     c0.601,0.087,0.841,0.826,0.406,1.251l-3.324,3.24c-0.173,0.168-0.252,0.411-0.211,0.649l0.785,4.575     c0.103,0.599-0.526,1.056-1.064,0.773l-4.108-2.16c-0.214-0.112-0.469-0.112-0.682,0l-4.108,2.16     c-0.538,0.283-1.166-0.174-1.064-0.773l0.785-4.575c0.041-0.238-0.038-0.481-0.211-0.649l-3.324-3.24     c-0.435-0.424-0.195-1.163,0.406-1.251l4.593-0.667c0.239-0.035,0.445-0.185,0.552-0.401l2.054-4.162     C156.817,433.749,157.594,433.749,157.863,434.294z"/>
			<path style="fill:#00D5FE;" d="M156.036,328.189l2.054,4.162c0.107,0.216,0.313,0.366,0.552,0.401l4.593,0.668     c0.601,0.087,0.841,0.826,0.406,1.251l-3.324,3.24c-0.173,0.168-0.252,0.411-0.211,0.649l0.785,4.575     c0.103,0.599-0.526,1.056-1.064,0.773l-4.108-2.16c-0.214-0.112-0.469-0.112-0.682,0l-4.108,2.16     c-0.538,0.283-1.166-0.174-1.064-0.773l0.785-4.575c0.041-0.238-0.038-0.481-0.211-0.649l-3.324-3.24     c-0.435-0.424-0.195-1.163,0.406-1.251l4.593-0.668c0.239-0.035,0.445-0.185,0.552-0.401l2.054-4.162     C154.99,327.644,155.767,327.644,156.036,328.189z"/>
			<path style="fill:#00D5FE;" d="M45.178,374.148l2.054,4.162c0.107,0.216,0.313,0.366,0.552,0.401l4.593,0.668     c0.601,0.087,0.841,0.826,0.406,1.251l-3.324,3.24c-0.173,0.168-0.252,0.411-0.211,0.649l0.785,4.575     c0.103,0.599-0.526,1.056-1.064,0.773l-4.108-2.16c-0.214-0.112-0.469-0.112-0.682,0l-4.108,2.16     c-0.538,0.283-1.166-0.174-1.064-0.773l0.785-4.575c0.041-0.238-0.038-0.481-0.211-0.649l-3.324-3.24     c-0.435-0.424-0.195-1.163,0.406-1.251l4.593-0.668c0.239-0.035,0.445-0.184,0.552-0.401l2.054-4.162     C44.132,373.604,44.909,373.604,45.178,374.148z"/>
		</g>
	</g>
	<g>
		<path style="fill:#FD8A02;" d="M497.193,387.747c5.23,0.495,9.73,0.715,12.898,2.295c3.143,1.568,2.139,6.283-1.077,6.481    c-5.26,0.325-13.479-2.134-14.121-0.935c-0.634,1.182,0.914,2.107,1.686,3.017c4.296,5.065,7.333,7.799,9.546,11.624    c1.68,2.904-2.68,6.091-5.053,4.376c-2.289-1.655-4.056-4.211-13.555-14.806c-3.148-3.511-3.664,1.659-5.32,7.591    c-0.94,3.367-3.466,7.328-6.632,5.884c-2.613-1.191-1.918-3.906-1.222-6.709c3.663-14.762,5.479-13.083-11.238-5.091    c-3.07,1.468-6.974,3.007-8.282-0.249c-1.334-3.321,2.479-4.764,9.451-8.527c0.916-0.495,2.006-0.695,2.871-1.254    c1.914-1.236,4.271-1.739,5.843-3.531c-1.533-2.35-4.344-1.867-6.49-2.871c-3.438-1.608-6.697-0.922-8.686-4.433    c-0.774-1.367-0.228-3.131,1.233-3.628c7.128-2.425,15.915,5.248,13.937-1.543c-2.557-8.775-3.472-10.711-3.789-14.551    c-0.298-3.624,4.077-4.89,5.889-1.773c3.006,5.169,5.149,16.489,6.73,16.575c1.65,0.09,3.401-13.828,6.375-16.602    c2.149-2.005,4.82-0.949,5.202,1.598c0.582,3.871-0.392,5.565-2.836,15.34c-0.19,0.76-0.604,1.709,0.312,2.225    c0.819,0.461,1.609-0.137,2.292-0.575c3.456-2.22,11.17-7.337,11.566-7.523c3.734-1.762,7.519,3.424,3.792,6.046    c-12.952,9.113-17.437,10.321-11.311,11.421C497.201,387.661,497.197,387.704,497.193,387.747z"/>
		<path style="fill:#FD8A02;" d="M419.967,449.694c5.478,0.676,12.723,1.067,11.885,5.198c-0.584,2.879-3.278,2.384-6.508,1.933    c-1.851-0.259-7.001-1.546-7.434-0.79c-0.593,1.035,0.32,1.022,6.55,8.807c1.823,2.279,3.832,4.968,1.385,6.549    c-3.342,2.157-3.469,0.4-14.046-12.092c-2.487-2.936-3.027,1.268-4.514,6.068c-0.845,2.725-2.996,5.896-5.545,4.646    c-2.108-1.035-1.47-3.242-0.841-5.5c3.328-11.954,4.772-10.544-9.048-4.412c-2.538,1.126-5.757,2.291-6.748-0.395    c-1.712-4.638,12.295-7.391,15.122-10.436c-1.196-1.952-3.5-1.624-5.226-2.492c-2.767-1.391-5.438-0.901-6.981-3.816    c-1.609-3.037,2.763-3.836,6.144-2.947c8.714,2.29,7.197,3.147,4.106-9.335c-0.618-2.499-1.147-5.646,1.33-6.262    c2.669-0.664,3.617,2.332,4.538,5.197c4.084,12.717,2.786,13.89,7.4-0.425c2.037-6.321,7.981-4.9,5.44,3.404    c-3.774,12.338-3.799,11.1,7.36,4.241c1.049-0.645,4.203-3.321,6.087,0.136c0.694,1.273,0.431,2.649-0.952,3.564    c-10.764,7.125-14.465,8.007-9.489,9.053C419.976,449.624,419.971,449.659,419.967,449.694z"/>
		<path style="fill:#FD8A02;" d="M334.858,392.795c3.975-2.861,7.268-5.466,10.46-6.3c3.167-0.827,5.355,3.098,3.219,5.209    c-3.49,3.453-10.769,6.77-10.485,8.005c0.28,1.218,1.934,0.918,3.034,1.084c6.122,0.92,9.93,0.976,13.829,2.303    c2.96,1.007,1.855,5.919-0.862,6.17c-2.618,0.243-5.401-0.464-18.594-2.078c-4.363-0.533-1.555,3.411,0.922,8.591    c1.406,2.941,2.062,7.268-1.046,8.198c-2.571,0.768-3.748-1.579-4.973-3.959c-6.482-12.607-4.178-12.543-11.01,3.32    c-1.255,2.913-3.051,6.388-5.965,4.905c-3.053-1.553-1.069-5.167,1.403-11.781c0.34-0.909,0.981-1.718,1.246-2.642    c0.585-2.042,1.932-3.84,1.935-6.062c-2.518-0.709-4.194,1.354-6.316,1.965c-3.399,0.98-5.266,3.46-8.815,2.216    c-1.381-0.484-2.08-2.058-1.36-3.302c3.512-6.069,14.39-6.077,8.835-9.631c-8.543-5.464-14.41-8.158-12.151-11.601    c1.723-2.627,4.843-0.85,7.838,0.838c13.322,7.513,13.147,9.562,5.876-6.098c-3.099-6.673,2.806-10.479,7.203-1.366    c6.415,13.288,5.43,12.237,9.463-2.154c0.262-0.936,0.421-1.917,0.807-2.799c1.539-3.524,7.378-2.213,6.369,1.917    c-3.487,14.283-5.943,17.951-0.933,14.954C334.811,392.73,334.835,392.763,334.858,392.795z"/>
	</g>
	<g>
		<g>
			<ellipse style="fill:#FFCF00;" cx="123.35" cy="230.741" rx="23.103" ry="29.092"/>
			<path style="opacity:0.5;fill:#FD8A02;" d="M146.464,230.741c0,16.063-10.359,29.092-23.115,29.092     c-7.643,0-14.42-4.678-18.618-11.888c1.346,0.32,2.737,0.479,4.175,0.479c12.756,0,23.092-13.029,23.092-29.092     c0-6.435-1.666-12.39-4.472-17.205C138.295,204.592,146.464,216.48,146.464,230.741z"/>
			<path style="fill:#007AF4;" d="M211.881,225.11H34.817c-9.811,0-16.724-9.675-13.53-18.939c0.09-0.274,0.205-0.57,0.296-0.844     c0.068-0.183,0.137-0.343,0.205-0.502c0.958-2.783,2.009-5.499,3.15-8.146c0.044-0.16,0.114-0.297,0.182-0.456     c4.472-10.519,10.131-20.24,16.749-28.887c14.238-18.687,32.903-32.446,54.031-38.904c8.374-2.578,17.159-3.993,26.172-4.107     c0.411-0.023,0.843-0.023,1.278-0.023c0.479,0,0.958,0,1.415,0.023c8.967,0.137,17.706,1.551,26.034,4.107h0.024     c21.128,6.458,39.77,20.217,54.009,38.904c6.617,8.648,12.276,18.368,16.748,28.887c0.069,0.159,0.137,0.296,0.183,0.456     c1.141,2.647,2.191,5.362,3.149,8.146c0.069,0.16,0.137,0.32,0.205,0.502c0.092,0.274,0.206,0.57,0.298,0.844     C228.607,215.435,221.693,225.11,211.881,225.11z"/>
			<g>
				<path style="fill:#00D5FE;" d="M151.119,124.302c0,1.415-0.114,2.784-0.296,4.13h-0.024c-8.328-2.555-17.067-3.97-26.034-4.107      h-0.069c-0.433-0.023-0.89-0.023-1.346-0.023c-0.435,0-0.867,0-1.278,0.023c-9.013,0.114-17.798,1.529-26.172,4.107      c-0.205-1.346-0.319-2.715-0.319-4.13c0-15.333,12.435-27.746,27.769-27.746c2.509,0,4.951,0.342,7.279,0.959      C142.425,100.708,151.119,111.478,151.119,124.302z"/>
				<path style="fill:#00D5FE;" d="M211.875,225.113H34.81c-9.811,0-16.725-9.675-13.531-18.939c0.091-0.274,0.206-0.57,0.298-0.844      c0.068-0.183,0.136-0.342,0.205-0.502c0.958-2.784,2.008-5.499,3.149-8.146h196.824c1.141,2.647,2.191,5.362,3.15,8.146      c0.068,0.159,0.137,0.319,0.205,0.502c0.091,0.274,0.206,0.57,0.296,0.844C228.599,215.439,221.686,225.113,211.875,225.113z"/>
			</g>
			<g>
				<path style="fill:#FF8EDE;" d="M139.883,179.028c-3.213-3.407-0.544-7.835,3.752-9.371c6.657-2.381,13.229-0.536,15.954,2.395      C166.899,179.915,147.679,187.295,139.883,179.028z"/>
				<path style="fill:#FF8EDE;" d="M106.816,179.028c3.213-3.407,0.543-7.835-3.752-9.371c-6.657-2.381-13.229-0.536-15.954,2.395      C79.8,179.915,99.02,187.295,106.816,179.028z"/>
			</g>
			<g style="opacity:0.25;">
				<path style="fill:#00328D;" d="M151.119,124.302c0,1.415-0.114,2.784-0.32,4.13c-8.328-2.555-17.067-3.97-26.034-4.107h-0.069      c5.271-9.492,6.366-19.053,5.933-26.811C142.425,100.708,151.119,111.478,151.119,124.302z"/>
				<path style="fill:#00328D;" d="M211.881,225.11h-35.915c-0.958-10.314-3.216-26.696-3.604-28.659      c-4.29-21.654-14.284-39.155-27.952-54.078c-5.91-6.457-12.527-12.436-19.646-18.049c8.967,0.137,17.706,1.551,26.034,4.107      c21.13,6.458,39.794,20.217,54.033,38.904c6.617,8.648,12.276,18.368,16.748,28.887c0.069,0.159,0.137,0.296,0.183,0.456      c1.141,2.647,2.191,5.362,3.149,8.146c0.069,0.16,0.137,0.32,0.205,0.502c0.092,0.274,0.206,0.57,0.298,0.844      C228.607,215.435,221.693,225.11,211.881,225.11z"/>
			</g>
		</g>
		<g>
			<g>
				<path style="fill:#000E3F;" d="M1.711,24.628l253.275-0.529l253.275,0.043c1.214,0,2.199,0.985,2.199,2.2      c0,1.215-0.985,2.2-2.199,2.2l-253.275,0.043L1.711,28.056C0.764,28.055-0.002,27.285,0,26.338      C0.002,25.391,0.764,24.625,1.711,24.628z"/>
			</g>
			<path style="fill:#000E3F;" d="M92.251,155.558c-0.046,3.573,3.182,6.876,7.036,6.803c3.813-0.072,6.806-2.969,6.794-6.998     C106.101,146.525,92.368,146.326,92.251,155.558z"/>
			<path style="fill:#000E3F;" d="M147.432,148.659c-4.636,0.102-6.83,3.802-6.956,6.886c-0.138,3.422,3.278,6.94,6.739,6.849     C156.859,162.142,156.264,148.465,147.432,148.659z"/>
			<path style="fill:#000E3F;" d="M129.79,156.728c1.804,17.12-13.771,19.967-13.113-0.165c0.102-3.045-4.46-3.113-4.559-0.149     c-0.876,26.689,24.714,23.511,22.209-0.165C134.012,153.249,129.469,153.724,129.79,156.728z"/>
			<path style="fill:#000E3F;" d="M227.055,204.072c-11.966-34.763-38.395-65.575-73.792-77.215     c1.728-15.965-10.832-31.536-28.043-32.515c0.37-20.029,0.558-53.725,0.32-66.65c0-2.854-4.381-2.882-4.381,0     c-0.163,11.016-0.19,39.162,0.319,66.65c-17.264,1.054-29.768,16.581-28.043,32.515c-30.253,9.971-58.094,34.418-74.316,78.561     c-3.669,10.671,4.203,21.973,15.698,21.973h63.319c-1.715,16.868,9.108,34.728,25.214,34.728     c16.188,0,26.955-17.969,25.235-34.728h63.296c5.431,0,10.359-2.532,13.508-6.959     C230.71,212.952,227.545,204.551,227.055,204.072z M97.885,125.466c-0.858-14.951,12.095-27.728,27.244-26.56     c12.471,0.867,23.684,10.716,23.684,26.56C131.602,120.851,114.533,120.926,97.885,125.466z M123.35,257.556     c-13.367,0-22.182-15.403-20.651-30.165h41.3C145.727,244.386,135.053,257.556,123.35,257.556z M211.881,222.828     c-36.618,0-140.646,0-177.065,0c-8.204,0-14.087-8.112-11.363-15.95l0.388-1.072c0.023-0.046,0.091-0.183,0.091-0.251     c0.936-2.715,1.985-5.385,3.104-7.986c0-0.023,0.068-0.182,0.068-0.205l-2.123-0.822l2.237,0.57     c41.933-98.811,160.944-91.396,195.592,8.625l0.434,1.164C225.954,214.785,220.042,222.828,211.881,222.828z"/>
		</g>
	</g>
</g>















</svg>
