<?xml version="1.0" encoding="UTF-8"?>
<!-- Generator: Adobe Illustrator 25.2.1, SVG Export Plug-In . SVG Version: 6.00 Build 0)  -->
<svg xmlns="http://www.w3.org/2000/svg" xmlns:xlink="http://www.w3.org/1999/xlink" version="1.1" id="Capa_1" x="0px" y="0px" viewBox="0 0 512 512" style="enable-background:new 0 0 512 512;" xml:space="preserve" width="512" height="512">
<g>
	<g>
		<g>
			<g>
				<path style="fill:#FF8EDE;" d="M417.31,468.356c-4.02-2.922-4.383-6.362-7.786-21.369c-3.562-15.709,2.136,9.061-18.548-81.904      c-0.82-3.605-0.704-3.855,2.86-5.018c17.358-5.663,16.199-10.763,17.689-1.705c14.635,88.954,14.999,89.639,16.18,97.353      C429.138,465.069,423.793,473.069,417.31,468.356z"/>
				<path style="fill:#FF8EDE;" d="M290.516,459.427c0.227-1.809,0.431-3.906,0.762-5.983      c16.45-102.907,14.955-100.28,16.916-99.644c2.233,0.725,5.946,3.432,15.862,6.626c3.243,1.044,3.452,1.406,2.881,4.081      c-4.898,22.935-18.13,83.213-18.166,83.378c-2.946,13.45-2.892,15.518-5.477,19.112      C298.848,473.178,291.023,470.448,290.516,459.427z"/>
				<path style="fill:#FF8EDE;" d="M368.252,365.202c1.85-0.291,1.962,0.936,1.937,2.859c-0.074,5.728-1.178,34.177-1.666,45.614      c-1.984,46.539-1.001,46.842-3.806,51.91c-2.37,4.283-9.348,3.525-11.113-0.323c-1.444-3.149-1.907-6.741-1.933-10.264      c-0.028-3.8-4.172-87.037-4.045-87.974c0.262-1.921,1.68-1.501,6.936-1.515C355.852,365.506,365.988,365.558,368.252,365.202z"/>
			</g>
			<path style="fill:#FFCF00;" d="M344.075,248.669c91.175,0,76.135-1.153,87.488-0.235c6.186,0.5,11.024,6.448,11.824,12.227     c7.462,53.886-12.503,93.125-64.733,101.607c-39.276,6.38-83.028-4.974-99.063-41.329c-7.636-17.312-8.875-42.015-5.998-60.413     c0.776-4.96,5.06-11.13,13.167-11.684c0.612-0.042-3.249-0.026,57.317-0.026C344.075,248.767,344.075,248.718,344.075,248.669z"/>
			<g>
				<path style="fill:#FC09B2;" d="M310.565,307.622c5.391-6.023,16.692-6.313,23.385-2.448c6.626,3.827,6.234,12.352-3.854,15.3      C316.278,324.513,303.572,315.435,310.565,307.622z"/>
				<path style="fill:#FC09B2;" d="M406.396,307.51c-5.405-6.01-16.707-6.274-23.391-2.393c-6.617,3.842-6.205,12.367,3.89,15.292      C400.723,324.414,413.407,315.307,406.396,307.51z"/>
			</g>
			<g>
				<path style="fill:#007AF4;" d="M346.763,137.785c-0.166,0.615-1.272,1.293-1.871,0.269c-2.342-4.004-5.606-10.905-14.695-20.922      c-9.495-10.465-27.577-22.149-40.48-45.81c-3.258-5.975-3.899-9.99-4.928-12.367c-0.228-0.528-1.204-0.363-1.05,0.455      c3.156,16.757,22.128,37.94,35.147,48.882c13.621,11.447,22.962,25.248,26.099,33.533c0.387,1.023-0.098,2.046-1.139,2.131      c-2.888,0.237-5.716,1.168-8.702,0.379c-1.9-0.502-3.945-0.315-5.899-0.814c-26.565-6.78-25.528-27.733-30.26-35.923      c-4.605-7.972-8.427-5.274-15.022-13.914c-9.342-12.238-17.309-34.833-12.569-47.687c4.679-12.687,31.67,5.409,45.047,33.517      c0.841,1.768,2.005,3.028,3.736,3.991C342.462,95.902,350.689,123.201,346.763,137.785z"/>
				<path style="fill:#007AF4;" d="M375.85,105.516c6.09-6.742,16.27-9.982,20.674-10.325c1.979-0.154,3.321-1.261,4.616-2.805      c6.584-7.851,14.822-13.223,24.815-15.69c21.036-5.192,24.057,13.404,2.374,28.768c-1.426,1.011-3.093,1.674-3.196,3.886      c-0.754,16.175-26.64,35.19-47.421,36.019c-4.245,0.169-4.684-0.628-2.803-4.342c6.401-12.641,15.342-12.088,25.536-27.675      c3.271-5.002,8.208-17.104,25.292-25.451c2.96-1.446,6.626-2.053,6.379-3.102c-0.584-2.479-12.381,4.549-16.035,7.303      c-13.133,9.9-13.466,17.259-19.949,24.692c-13.114,15.035-13.647,9.277-21.562,21.887c-0.684,1.09-1.237,2.262-1.92,3.352      c-0.39,0.622-1.422,0.588-1.796-0.035c-0.358-0.598-0.675-1.235-0.909-1.892C365.831,128.564,366.882,115.444,375.85,105.516z"/>
				<path style="fill:#007AF4;" d="M450.876,233.519c-16.184,0.041-24.583-10.819-26.753-11.417      c-1.441-0.397-2.706,1.111-3.998,1.833c-13.989,7.807-34.364-1.397-29.784-19.336c0.692-2.712,1.068-2.97,3.831-3.077      c26.813-1.039,50.47,17.592,51.44,18.078c0.141,0.071,0.478-0.049,0.595-0.189c1.43-1.717-15.515-11.383-25.611-14.806      c-10.875-3.687-13.484-3.709-23.646-4.869c-0.406-0.046-4.846,0.424-2.968-2.395c7.839-11.767,27.072-17.243,36.33-1.945      c0.726,1.199,1.268,2.509,1.906,3.762c1.103,2.167,2.712,1.46,5.66,1.893C466.748,205.293,476.647,234.241,450.876,233.519z"/>
				<path style="fill:#007AF4;" d="M312.389,247.419c-3.164,0-6.33-0.052-9.492,0.02c-1.814,0.042-2.774-0.777-3.336-2.444      c-5.605-16.611-5.891-40.081,10.291-36.036c13.093,3.273,26.76,20.683,34.029,32.233c5.134,8.157,1.374,4.848-12.932,5.719      c-2.272,0.138-3.44-0.827-4.136-2.857c-4.173-12.171-20.164-28.798-20.322-25.515c-0.072,1.491,10.051,6.932,18.093,23.797      c2.872,6.024,0.062,5.09-12.194,5.09C312.389,247.424,312.389,247.422,312.389,247.419z"/>
			</g>
			<g>
				<path style="fill:#00328D;" d="M244.338,221.164c3.595-4.525,4.173-9.55,2.214-14.894c-0.902-2.463-1.306-4.966-1.222-7.578      c0.109-3.386-0.131-6.763,0.675-10.137c3.291-13.783,12.941-26.02,27.164-31.373c3.114-1.172,6.397-1.341,9.625-1.85      c0.321-0.051,0.688,0.099,1.017,0.206c4.751,1.542-10.582,6.899-15.767,33.407c-1.976,10.106-1.892,16.36-8.963,28.986      c-9.731,17.375-10.772,22.17-12.628,31.779c-0.132,0.681-0.102,1.403-0.075,2.103c0.022,0.548-0.101,1.209,0.636,1.46      c0.479,0.163,1.066-0.553,1.087-1.495c0.485-21.526,17.069-31.186,21.106-60.458c1.478-10.714,7.081-24.339,17.503-33.987      c1.899-1.758,2.955-1.549,4.579,0.636c3.947,5.309,5.93,13.683,5.751,18.155c-0.049,1.21,0.55,3.583,0.491,4.523      c-0.866,13.81-3.975,28.557-13.085,38.903c-3.202,3.636-7.003,6.157-11.926,6.801c-1.878,0.246-2.137,0.632-2.22,2.498      c-0.099,2.221,0.102,4.456-0.309,6.664c-3.402,18.247-15.412,30.581-24.981,33.36      C227.218,274.039,230.475,238.614,244.338,221.164z"/>
				<path style="fill:#00328D;" d="M487.21,161.984c0.161,0.028,0.471-0.171,0.527-0.331c0.644-1.832-18.305-6.377-30.739-6.198      c-22.859,0.328-32.926,7.706-32.084,3.915c0.1-0.45,0.21-0.922,0.435-1.315c10.238-17.871,29.256-19.85,39.654-12.335      c3.73,2.695,7.967,3.632,12.341,2.875c6.06-1.048,17.427,0.844,26.025,7.514c9.027,7.003,7.933,17.043-4.945,19.63      c-17.387,3.493-25.293-9.143-36.514-3.461c-11.287,5.715-25.631,2.112-34.268-6.716c-2.036-2.081-1.85-3.025,0.835-3.975      c4.989-1.764,10.167-2.772,15.38-3.579C466.057,154.571,484.755,161.551,487.21,161.984z"/>
			</g>
			<g style="opacity:0.25;">
				<path style="fill:#000E3F;" d="M267.558,200.286c2.312-10.954,3.011-28.116,19.146-42.95c1.906-1.753,2.961-1.553,4.582,0.626      c12.504,16.809,6.291,64.864-18.73,68.381c-3.918,0.551-1.207,2.574-2.846,10.505c-2.777,13.436-10.769,24.453-19.844,29.86      c-2.3,1.37-3.192-6.409-3.209-7.685C246.37,236.785,263.183,221.014,267.558,200.286z"/>
				<path style="fill:#000E3F;" d="M498.964,164.153c2.341,0.756,8.878,1.791,9.38,4.682c0.465,2.676-4.238,5.273-6.29,5.904      c-20.111,6.191-28.461-8.483-39.876-2.584c-11.359,5.87-25.83,2.324-34.55-6.608c-2.024-2.074-1.832-3.013,0.866-3.965      c14.944-5.275,31.258-5.485,46.787-3.106C483.297,159.704,491.216,161.649,498.964,164.153z"/>
			</g>
			<g style="opacity:0.25;">
				<path style="fill:#00328D;" d="M272.246,44.443c0.416-0.659,1.111-0.891,1.84-0.516c11.462,5.901,10.587,21.909,16.554,31.818      c16.755,27.826,32.482,31.154,47.043,53.685c1.592,2.464,8.631,10.081,7.405,13.209c-3.498,8.888-27.693-3.588-31.628-6.964      c-8.364-7.178-9.085-16.217-13.208-25.565c-4.617-10.465-9.109-7.332-15.635-15.605      C272.985,79.761,266.212,54.005,272.246,44.443z"/>
				<path style="fill:#00328D;" d="M377.334,145.394c-3.814-0.02-4.236-0.699-2.566-4.069c5.025-10.139,10.97-11.224,21.05-21.783      c9.627-10.085,5.872-12.595,16.808-22.718c6.151-5.693,14.589-11.792,22.803-13.87c16.27-4.115,1.352,15.922-4.069,20.217      c-4.154,3.292-6.113,3.65-6.237,6.238c-0.28,5.832-3.203,10.546-6.81,14.727c-9.063,10.505-20.349,17.515-34.029,20.371      C382.008,144.983,379.699,145.488,377.334,145.394z"/>
				<path style="fill:#00328D;" d="M459.037,232.064c-0.678,1.537-4.73,1.35-6.972,1.436c-17.265,0.66-25.589-11.05-28.133-11.431      c-0.93-0.14-2.076,0.86-3.064,1.458c-14.355,8.693-35.543-1.012-30.401-19.438c0.609-2.181,1.074-2.491,3.525-2.555      C426.119,200.686,460.436,228.894,459.037,232.064z"/>
				<path style="fill:#00328D;" d="M311.987,247.423c-12.39,0-11.319,0.494-12.517-2.808c-2.749-7.58-4.289-16.608-3.063-24.633      c0.635-4.161,0.967-7.716,5.21-6.429c5.123,1.556,8.605,8.288,11.829,12.117c4.77,5.666,8.835,11.546,11.814,18.369      C327.142,248.352,322.16,247.426,311.987,247.423z"/>
			</g>
			<g style="opacity:0.5;">
				<path style="fill:#FC09B2;" d="M370.022,365.771c0.891,1.149-0.346,5.56-0.636,6.871c-2.174,9.848-9.436,17.281-16.551,23.949      c-1.437,1.347-3.384,2.865-3.788,0.94c-1.344-6.405-1.808-12.967-1.855-19.501c-0.036-4.982-1.876-12.554,4.813-12.555      c5.174,0,10.427-0.284,15.589-0.175C368.528,365.321,369.32,364.865,370.022,365.771z"/>
				<path style="fill:#FC09B2;" d="M412.373,363.424c-4.483,17.189-8.436,21.524-13.6,27.959c-0.641,0.798-1.6,0.595-1.864-0.38      c-1.22-4.508-6.171-26.872-6.199-27.02c-0.404-2.134-0.116-2.812,1.87-3.465c14.904-4.901,17.537-9.079,18.101-6.236      C411.272,357.261,411.792,360.253,412.373,363.424z"/>
				<path style="fill:#FC09B2;" d="M327.163,363.391c-0.095,0.45-4.464,27.31-4.851,28.484c-1.752,5.315-6.272-3.158-8.156-6.103      c-4.128-6.455-6.706-13.801-7.638-21.399c-0.267-2.176-1.537-12.443,3.331-9.873      C324.003,361.972,327.378,359.695,327.163,363.391z"/>
			</g>
			<path style="opacity:0.5;fill:#FD8A02;" d="M297.462,344.461c-0.496-0.43-0.595-1.03-0.083-1.533     c2.432-2.388,7.594-5.217,13.893-6.294c15.311-2.617,28.993,3.826,54.523,2.935c19.395-0.678,39.515-7.119,49.823-23.382     c6.662-10.51,8.619-22.985,9.609-35.169c0.854-10.512-0.746-23.005,8.153-30.604c1.221-1.042,1.837-1.09,3.161-0.273     c3.942,2.434,6.13,6.044,6.829,10.557C460.861,373.746,340.101,381.417,297.462,344.461z"/>
			<path style="opacity:0.75;fill:#FFFFFF;" d="M293.864,296.161c-0.143,17.493,3.669,29.468,4.082,32.237     c0.344,2.309-2.165,3.686-3.551,1.83c-3.302-4.423-6.65-14.25-8.275-19.704c-16.838-56.509,7.843-58.003,8.264-43.495     C294.449,269.251,294.08,269.685,293.864,296.161z"/>
		</g>
		<g>
			<path style="fill:#000E3F;" d="M400.2,245.867c10.375,0.125,23.71-1.509,32.278-0.06c8.711,1.474,14.189,10.234,14.315,18.513     c0.12,7.829,2.829,22.241-2.244,43.996c-3.942,16.902-12.63,31.147-28.382,42.101c-1.92,1.335-3,1.376-2.54,3.943     c0.612,3.424-1.38-8.277,7.148,42.963c1.729,10.39,3.475,20.777,5.212,31.166c1.69,10.103,3.645,21.483,4.507,29.215     c0.836,7.489-2.919,15.805-11.015,14.617c-9.581-1.405-8.755-6.883-30.601-104.234c-1.11-4.952-1.163-4.699-4.633-4.033     c-11.584,2.221-11.088,1.349-11.213,3.641c-0.008,0.151-2.037,58.713-2.324,62.811c-1.733,24.736,0.537,34.05-5.804,38.865     c-3.527,2.679-8.937,2.794-11.985-0.678c-4.206-4.793-3.882-10.34-4.14-16.646c-2.872-70.331-4.118-82.585-4.138-84.481     c-0.02-1.948,0.147-1.424-12.441-3.62c-3.384-0.59-1.312-4.358-20.31,82.436c-3.301,15.078-3.222,16.713-5.644,20.955     c-1.991,3.488-5.466,6.064-9.666,5.445c-7.493-1.105-10.088-8.367-8.452-17.121c2.339-12.513,13.827-88.696,15.927-100.581     c0.785-4.444-1.888-0.865-15.841-15.854c-17.869-19.196-20.535-50.316-18.004-76.415c0.749-7.727,6.672-16.292,17.353-16.789     c10.837-0.505,9.701,1.774,7.656-6.513c-2.247-9.105-3.534-20.938,1.63-28.684c4.281-6.422,12.072-5.99,18.976-2.479     c10.424,5.3,16.979,14.094,18.769,15.64c3.009,2.601,2.028-22.985-2.838-39.983c-1.879-6.564-4.685-12.741-8.39-18.509     c-2.121-3.302-4.842-6.043-7.754-8.582c-6.055-5.279-14.815-6.834-22.599-2.397c-2.334,1.33,5.9,3.13,6.858,22.81     c0.669,13.739-2.43,26.962-9.64,38.942c-2.205,3.664-5.24,6.617-8.511,9.294c-1.908,1.562-4.161,2.585-6.647,3.047     c-4.033,0.751,0.334,2.53-4.772,16.047c-10.331,27.349-39.244,40.019-40.281,10.914c-0.198-5.557,0.752-10.978,2.342-16.273     c6.539-21.775,15.4-20.937,11.926-30.611c-7.202-20.057,5.619-44.198,25.936-53.216c6.357-2.822,13.924-3.138,16.072-2.562     c2.063,0.553,4.517-2.675,11.023-4.237c24.639-5.915,39.657,27.685,41.951,53.531c0.029,0.322,0.136,0.778,0.362,0.915     c2.135,1.292,18.195-24.329,6.948-54.275c-0.659-1.756-0.949-1.934-2.855-1.934c-6.181-0.003-4.238,1.021-11.871-0.194     c-12.84-2.044-22.572-8.706-28.826-20.194c-5.153-9.466-3.033-18.414-12.519-23.465c-11.806-6.286-20.152-26.423-22.613-40.669     c-0.522-3.024-0.587-6.049-0.617-9.097c-0.028-2.869,0.689-5.558,1.604-8.231c2.309-6.747,9.568-7.08,15.768-4.27     c14.18,6.427,27.133,23.099,34.088,37.166c0.819,1.656,1.982,2.781,3.546,3.734c22.552,13.744,31.498,40.041,26.853,58.794     c-1.353,5.465,2.835,6.316,4.986,24.167c1.998,16.588-3.407,32.701-12.817,43.565c-1.692,1.953-1.44,3.801-1.623,15.37     c-0.041,2.564-0.959,5.561,0.734,7.796c4.538,5.979,7.965,12.27,8.825,13.538c0.825,1.217,2.163,1.103,2.717-0.235     c1.103-2.665,6.084-23.617,19.339-41.934c3.185-4.4-4.384-5.908-5.549-26.04c-1.369-23.662,5.288-26.798,2.896-32.551     c-4.742-11.403-5.382-22.479,0.229-33.261c5.805-11.155,17.869-17.368,27.179-18.433c2.383-0.273,2.928-2.16,7.069-6.052     c8.761-8.234,22.282-14.903,33.254-12.951c5.622,1,11.076,6.397,9.327,13.697c-1.149,4.794-3.501,8.928-6.852,12.491     c-8.963,9.529-10.669,7.772-11.028,10.932c-1.927,16.992-29.374,37.758-51.699,37.648c-2.902-0.014-2.906,0.047-3.835,2.98     c-3.628,11.452-4.032,28.654,0.796,41.474c0.453,1.202,1.075,2.341,1.651,3.493c0.251,0.502,0.615,0.654,1.055,0.15     c10.379-11.888,8.475-10.328,17.534-18.151c14.136-12.207,25.851-15.484,27.357-16.962c1.375-1.35,4.825-14.846,20.907-20.55     c8.666-3.073,17.084-2.376,24.89,2.776c7.127,4.704,8.414,0.95,19.064,2.54c10.296,1.538,23.119,7.509,26.016,17.168     c3.131,10.44-10.53,22.372-37.126,11.645c-3.829-1.544-7.554-1.583-11.549,0.115c-12.353,5.25-23.834,3.183-34.292-4.987     c-1.362-1.064-2.861-2.061-3.876-3.542c-0.879-1.283-2.036-1.387-3.403-0.867c-10.764,4.096-25.233,13.452-37.257,27.002     c-2.251,2.537-4.283,5.268-6.397,7.924c-0.117,0.147-0.158,0.483-0.068,0.63c0.427,0.7,0.352-0.23,10.499-2.062     c2.912-0.526,1.179-1.529,8.705-8.435c12.89-11.827,30.096-8.909,36.906,5.422c0.667,1.404,1.627,2.021,3.242,2.211     c8.22,0.969,15.616,4.022,22.066,9.247c15.008,12.16,11.534,27.981-5.762,28.904c-17.137,0.915-27.371-10.354-29.562-11.014     c-1.127-0.34-2.048,0.935-3.108,1.409c-15.102,6.77-31.686,0.197-33.611-16.171c-0.329-2.795,0.402-3.596,0.47-6.277     c0.018-0.709-0.792-1.01-1.233-0.922c-5.714,1.141-13.131,3.33-16.104,8.308c-6.711,11.237-11.983,25.487-13.412,31.25     C355.554,247.5,352.617,245.293,400.2,245.867z M287.4,250.243c-6.945,0-11.46,4.406-12.763,11.227     c-1.147,6.003-0.844,14.055-0.995,21.376c-0.286,13.869,2.837,32.135,11.352,45.766c30.397,48.662,135.121,47.829,154.427-16.335     c4.928-16.377,5.174-33.925,2.887-50.771c-0.574-4.236-2.53-7.768-6.223-10.141c-3.57-2.293-4.404-1.929-34.112-1.679     c-29.987,0.252-59.98-0.574-89.962,0.539C311.273,250.252,287.549,250.243,287.4,250.243z M290.174,158.486     c-0.849-1.131-1.648-1.237-2.652-0.287c-8.101,7.674-13.059,16.684-16,27.587c-0.765,2.835-1.05,5.748-1.518,8.635     c-3.122,19.265-11.284,28.088-15.729,38.468c-5.806,13.561-4.765,18.585-5.307,20.618c-0.594,2.226-3.387,1.927-3.539-0.194     c-0.966-13.493,8.758-28.64,14.495-39.757c7.811-15.136,4.665-22.63,10.053-36.055c6.491-16.176,13.063-19.083,12.677-20.409     c-0.35-1.203-13.014,0.343-22.768,9.718c-13.339,12.82-15.8,29.847-12.141,39.212c3.305,8.462-0.593,13.109-3.833,17.847     c-7.049,10.31-10.36,21.669-9.627,34.176c1.434,24.461,35.133-0.051,35.004-29.245c-0.027-6.064,3.16-2.185,8.833-5.564     c5.28-3.145,8.834-8.325,11.487-13.87C296.076,195.844,299.62,171.063,290.174,158.486z M346.106,130.201     c-0.025,0-0.049,0-0.074,0c0-4.678,0.052-5.444-0.17-6.67c-3.015-16.654-11.064-29.952-25.905-38.672     c-2.092-1.229-3.593-2.792-4.678-5.015c-6.565-13.459-23.364-36.334-38.124-36.51c-14.107-0.169-1.166,47.961,14.564,55.788     c9.278,4.617,10.557,13.375,12.343,19.408c4.983,16.829,20.558,26.353,38.666,24.504c2.237-0.228-0.537-4.091-1.521-5.95     c-15.985-30.195-40.812-33.838-56.575-70.387c-1.066-2.472-1.914-5.045-2.268-7.735c-0.132-1.008,0.547-1.924,1.415-2.172     c3.67-1.05,0.519,5.172,12.457,22.764c13.008,19.169,26.75,27.377,35.44,37.355c11.719,13.457,12.232,17.981,13.938,19.699     c0.742-1.366,0.397-2.857,0.485-4.297C346.141,131.61,346.106,130.904,346.106,130.201z M368.755,127.924     c-0.094,2.927,1.325,8.417,2.509,12.014c0.938,2.848,2.931-6.259,11.539-12.401c13.991-9.982,16.551-18.424,20.976-24.674     c5.665-8,15.462-15.972,25.357-19.313c1.768-0.597,4.162-1.323,4.683,0.47c0.446,1.535-0.756,2.551-2.269,2.969     c-9.403,2.592-21.299,11.342-27.509,22.735c-5.944,10.907-11.268,14.875-20.794,22.514c-3.471,2.783-5.695,6.491-7.742,10.332     c-0.318,0.597,0.04,1.217,0.697,1.285c15.757,1.633,45.583-15.62,47.894-34.955c0.191-1.596,0.864-2.948,2.352-3.697     c2.478-1.247,10.322-7.19,14.061-14.88c1.077-2.215,1.362-4.447,1.275-6.816c-0.442-11.979-28.095-6.251-40.446,10.577     c-0.956,1.303-2.18,2.029-3.832,2.162c-4.967,0.399-14.603,3.553-20.287,9.601C371.713,111.71,368.962,118.822,368.755,127.924z      M453.612,232.476c2.523-0.053,4.881-0.848,7.018-2.056c3.495-1.976,4.653-5.152,3.159-10.475     c-2.372-8.454-14.42-15.241-23.112-17.071c-6.731-1.417-8.595-0.31-9.681-3.386c-0.746-2.112-1.923-4.015-3.321-5.766     c-8.754-10.962-23.254-7.319-32.257,3.671c-2.484,3.033,4.471-1.349,25.548,6.003c12.574,4.386,24.273,12.29,26.521,14.83     c1.247,1.408-0.694,3.678-2.298,2.666c-5.181-3.271-6.519-5.158-16.142-9.932c-11.877-5.893-25.684-8.641-34.531-8.413     c-2.141,0.055-2.615,0.296-2.964,2.204c-0.593,3.246-0.764,6.522,0.288,9.734c3.195,9.754,14.852,13.202,25.012,9.511     c5.578-2.027,6.394-4.706,8.839-2.628c3.63,3.086,4.775,4.968,12.185,8.171C442.088,231.359,448.222,232.589,453.612,232.476z      M303.125,465.055c2.008-3.192,2.36-7.82,3.145-11.389c21.121-95.972,20.438-91.1,18.05-91.849     c-14.69-4.608-16.08-8.414-16.69-4.466c-1.747,11.303-3.509,22.604-5.289,33.902c-1.344,8.534-2.699,17.067-4.057,25.599     c-0.984,6.179-1.972,12.357-2.945,18.537c-1.037,6.584-3.623,20.708-3.592,25.408     C291.802,469.112,299.834,470.287,303.125,465.055z M426.762,459.098c-0.081-1.981-0.056-1.543-3.854-24.541     c-0.977-5.917-1.955-11.833-2.933-17.75c-1.369-8.281-2.738-16.562-4.109-24.842c-1.827-11.043-3.654-22.087-5.482-33.13     c-0.157-0.951-0.315-1.902-0.472-2.852c-0.374-2.258-1.43-0.207-9.126,2.784c-2.184,0.849-4.38,1.665-6.572,2.492     c-3.037,1.147-2.588,1.053-0.759,9.148c2.488,11.009,4.969,22.019,7.448,33.029c1.812,8.049,3.621,16.098,5.438,24.145     c1.258,5.573,2.518,11.145,3.802,16.712c1.157,5.019,2.153,10.096,3.562,15.053c1.1,3.869,2.493,8.564,6.546,8.906     C424.961,468.65,426.918,462.899,426.762,459.098z M350.937,413.162c0.444,9.771,0.877,19.542,1.346,29.312     c0.225,4.686,0.695,16.696,1.463,19.556c1.947,7.246,9.189,6.56,11.03,0.369c1.57-5.282,0.768-5.821,1.957-34.516     c0.431-10.39,0.806-20.778,1.036-31.175c0.153-6.94,0.42-13.867,0.912-20.793c0.816-11.501,2.205-9.387-9.029-9.08     c-2.674,0.073-5.309-0.329-7.96-0.328C347.31,366.507,348.737,364.803,350.937,413.162z M486.73,159.23     c0.762,0.281,1.55,0.565,2.221,1.007c1.074,0.707,0.883,2.296-0.278,2.885c-1.189,0.603-1.688,0.24-4.041-0.505     c-18.531-5.872-39.381-5.743-55.916,0.215c-1.218,0.439-1.295,0.761-0.451,1.664c8.066,8.642,22.391,11.824,32.946,6.721     c4.068-1.967,9.059-2.463,15.582,0.313c8.285,3.526,19.355,5.01,26.597,1.307c6.728-3.44,5.456-10.826-0.158-15.251     c-7.163-5.646-16.417-8.682-26.635-7.794c-4.62,0.401-8.728-0.728-12.628-3.291c-9.832-6.461-26.006-4.714-36.081,9.684     c-0.767,1.096-1.853,2.958-0.542,2.695C431.217,158.103,458.622,148.862,486.73,159.23z M313.159,245.995     c0,0.002,0,0.004,0,0.006c11.086,0,11.99,0.574,10.714-2.182c-7.47-16.141-17.307-22.788-18.286-24.15     c-1.06-1.473,0.404-3.727,2.243-2.673c4.322,2.479,14.234,12.797,20.597,27.497c0.368,0.849,0.886,1.334,1.832,1.333     c4.568-0.008,9.135,0,13.702-0.022c0.726-0.004,0.988-0.546,0.553-1.22c-2.097-3.244-4.145-6.525-6.365-9.684     c-16.124-22.936-40.305-37.919-40.862-9.62c-0.029,1.472,0.233,3.017,0.328,4.532c0.295,4.706,1.493,9.233,2.832,13.719     c0.66,2.211,1,2.417,3.223,2.451C306.833,246.032,309.996,245.995,313.159,245.995z"/>
			<g>
				<path style="fill:#000E3F;" d="M375.296,298.255c0.066,2.463-0.502,4.656-1.526,6.538c-5.026,9.233-21.128,11.241-28.359,3.019      c-0.847-0.96-1.713-2.294-2.393-3.789c-1.843-3.964-2.416-8.998,1.978-10.896c3.181-1.367,15.173-2.937,25.568-0.47      C373.748,293.411,375.228,295.551,375.296,298.255z"/>
				<g>
					<path style="fill:#000E3F;" d="M325.541,283.83c3.695-0.858,8.02,0.977,9.683,5.162c2.928,7.365-6.01,13.082-12.231,8.5       C317.989,293.807,319.223,285.297,325.541,283.83z"/>
				</g>
				<g>
					<path style="fill:#000E3F;" d="M391.23,283.753c-3.697-0.849-8.017,0.995-9.671,5.184c-2.91,7.371,6.04,13.067,12.251,8.472       C398.806,293.712,397.551,285.205,391.23,283.753z"/>
				</g>
			</g>
		</g>
		<path style="fill:#FF8EDE;" d="M373.77,304.793c-5.026,9.233-21.128,11.241-28.359,3.019c-0.847-0.96-1.713-2.294-2.393-3.789    c3.242-2.664,7.409-4.513,12.082-5.098C362.417,298.009,369.285,300.394,373.77,304.793z"/>
	</g>
	<g>
		<path style="fill:#FF8EDE;" d="M136.581,318.461c2.535,0.452-5.849-0.772,16.782,1.343c13.151,1.229,23.693,2.27,27.89,11.9    c0.472,1.084,0.795,2.198,0.885,3.383c2.249,29.76,0.409,72.158-12.363,100.885c-4.157,9.349-9.947,16.997-20.748,23.102    c-17.358,9.809-49.001,15.179-80.847,7.312c-17.002-4.201-30.683-12.951-38.246-28.747c-9.215-19.244-14.146-51.713-14.108-69.773    c0.071-33.316-0.064-30.277,0.862-34.388c0.904-4.012,6.397-9.851,14.192-11.179c21.506-3.665,36.785-3.884,46.762-4.594    C87.213,317.023,127.159,316.779,136.581,318.461z"/>
		<path style="fill:#FFCF00;" d="M182.736,368.383c0,1.813,0.037,3.364-1.738,3.757c-5.363,1.215-10.969,2.186-16.52,1.364    c-0.747-0.094-1.495-0.243-2.243-0.411c-10.708-2.542-9.045-7.532-11.867-4.691c-1.159,1.158-2.243,2.373-3.42,3.532    c-5.812,5.663-14.334,5.887-20.502,2.392c-7.12-3.999-6.671-7.662-8.765-5.083c-8.952,11.064-26.182,12.428-35.789,1.14    c-2.261-2.635-2.149-2.373-4.467,0.037c-8.26,8.616-19.978,9.681-29.621-2.056c-2.374-2.897-3.457,10.279-29.94,4.541    c-2.616-0.56-2.112-0.112-1.905-33.863c0.056-8.728,5.98-14.615,12.858-16.222c16.296-3.813,41.115-4.579,48.796-5.121    c20.035-1.402,73.073,0.075,91.312,4.43c8.727,2.074,12.989,8.316,13.232,13.269c0.037,0.598,0.057,1.14,0.094,1.663    c0,0.019,0.018,0.056,0,0.093C182.923,349.713,182.942,342.667,182.736,368.383z"/>
		<path style="opacity:0.5;fill:#FC09B2;" d="M182.641,370.322c-0.153,0.901-0.557,1.577-1.643,1.817    c-5.363,1.215-10.969,2.186-16.52,1.364c-2.056,24.968-3.943,51.786-25.604,65.859c-27.827,18.09-72.269-5.139-95.815,8.858    c-3.981,2.392-4.243,3.027,1.065,7.102c20.613,15.885,59.242,17.791,84.659,11.4c29.472-7.438,44.517-21.343,51.282-68.718    c1.278-8.967,2.449-18.304,3.094-27.679C182.985,370.325,182.814,370.323,182.641,370.322z"/>
		<g>
			<path style="fill:#007AF4;" d="M127.79,228.3c4.177,9.921,4.096,15.98,4.915,21.818c0.544,3.882-1.225,4.339-8.617,10.628     c-16.802,14.296-22.541,34.871-19.261,50.754c0.281,1.363,1.002,3.672-1.056,3.707c-3.747,0.065-7.496,0.066-11.244,0.048     c-4.037-0.019-11.598-20.645,1.216-44.674c3.972-7.448,5.163-15.995,4.173-24.327c-3.115-26.214,0.647-51.105,19.987-68.632     C125.022,171.173,115.22,198.445,127.79,228.3z"/>
			<path style="fill:#007AF4;" d="M74.246,314.003c0.585,4.614-4.693,1.111-28.02,4.649c-2.314,0.351-4.333-0.177-6.323-1.448     c-9.91-6.326-17.931-18.532-18.975-36.232c-0.744-12.612-6.716-29.28-15.461-40.887c-2.268-3.012-1.331-3.901,1.704-4.329     C27.982,232.823,68.134,265.808,74.246,314.003z"/>
			<path style="fill:#007AF4;" d="M185.276,251.457c-6.384,10.128-9.564,23.868-5.269,35.929     c4.291,12.051-3.301,27.721-20.757,31.062c-2.092,0.401-2.443,0.161-16.042-1.147c-6.283-0.604-8.635-0.237-8.377-2.339     c1.081-8.821,5.813-18.846,13.179-26.19c4.851-4.837,13.429-12.318,16.244-26.833c1.795-9.257,1.292-18.442-1.867-27.34     c-1.174-3.308-0.75-6.075,0.863-9.029c3.623-6.636,14.692-16.288,28.856-19.765c4.169-1.024,4.191,0.501,4.718,3.478     c0.061,0.345,0.094,0.699,0.096,1.049C196.98,221.492,197.489,232.083,185.276,251.457z"/>
			<path style="fill:#007AF4;" d="M127.35,351.526c0,4.387,3.556,7.943,7.943,7.943c4.387,0,7.943-3.556,7.943-7.943     s-3.556-7.943-7.943-7.943C130.906,343.583,127.35,347.139,127.35,351.526z"/>
			<path style="fill:#007AF4;" d="M92.091,351.526c0,4.387,3.556,7.943,7.943,7.943c4.386,0,7.943-3.556,7.943-7.943     s-3.556-7.943-7.943-7.943C95.647,343.583,92.091,347.139,92.091,351.526z"/>
			<path style="fill:#007AF4;" d="M159.585,351.526c0,4.387,3.556,7.943,7.943,7.943c4.386,0,7.943-3.556,7.943-7.943     s-3.556-7.943-7.943-7.943C163.142,343.583,159.585,347.139,159.585,351.526z"/>
			<circle style="fill:#007AF4;" cx="31.103" cy="351.526" r="7.943"/>
			<path style="fill:#007AF4;" d="M55.397,351.526c0,4.387,3.556,7.943,7.943,7.943c4.387,0,7.943-3.556,7.943-7.943     s-3.556-7.943-7.943-7.943C58.953,343.583,55.397,347.139,55.397,351.526z"/>
		</g>
		<g>
			<path style="fill:#00328D;" d="M68.026,286.303c-4.585-10.653-10.995-20.118-18.373-28.982     c-3.384-4.065-6.316-4.596-6.914-13.639c-1.213-18.348,13.806-24.256,3.584-39.515c-6.851-10.227-13.712-8.579-20.364-24.618     c-4.074-9.824-3.483-15.058-4.152-19.475c-0.297-1.959,0.512-11.794,1.125-13.576c0.457-1.327,1.288-1.51,2.341-0.506     c1.129,1.077,4.058,5.27,19.322,16.263c9.415,6.781,20.767,12.209,30.207,29.208c14.535,26.176,3.276,39.656,14.518,67.342     c2.444,6.018,5.123,6.445,3.261,10.443c-17.545,37.665,1.95,45.443-6.172,46.119C68.148,316.889,82.003,318.778,68.026,286.303z"/>
			<path style="fill:#00328D;" d="M163.696,251.613c0.352,14.567-6.558,27.444-14.411,33.778     c-5.776,4.659-13.867,16.5-15.827,28.318c-0.338,2.038-1.099,2.789-3.258,2.674c-21.743-1.153-22.522-0.351-23.347-2.764     c-0.474-1.388-1.963-9.332-1.288-14.601c2.161-16.856,8.462-29.103,23.137-40.09c16.697-12.501,20.94-38.487,21.559-40.375     c0.274-0.837,1.012-1.01,1.6-0.373C157.751,224.557,163.696,237.786,163.696,251.613z"/>
			<path style="fill:#00328D;" d="M125.733,256.637c-0.028,1.85-0.701,3.266-2.183,4.543     c-16.054,13.839-21.986,34.392-18.856,49.628c0.102,0.498,1.285,3.705-0.242,4.156c-3.127,0.924-6.757-17.514-6.115-22.865     c2.676-22.32,9.849-21.749,9.777-38.509c-0.088-20.404-8.654-29.815,3.413-56.4c0.337-0.743,0.744-1.462,1.19-2.146     c0.784-1.203,1.896-0.253,1.648,0.738c-0.577,2.307-0.441,4.654-0.433,6.992C114.015,227.388,125.994,239.248,125.733,256.637z"/>
			<path style="fill:#00328D;" d="M136.01,316.589c-1.61-0.216-1.244-2.275-0.878-3.933c4.075-18.477,14.797-24.775,20.283-31.704     c8.662-10.939,11.141-23.725,9.162-37.423c-0.212-1.468-0.052-2.736,0.715-4.023c4.194-7.037,10.039-12.288,17.231-16.108     c1.275-0.677,2.261-1.161,2.917-0.578c0.823,0.732,0.232,1.517-0.119,2.228c-5.38,10.888-9.712,14.623-11.75,41.041     c-2.12,27.474-14.195,23.393-27.014,43.665c-1.076,1.702-1.507,3.676-2.16,5.555C143.593,317.622,143.533,317.598,136.01,316.589     z"/>
			<path style="fill:#00328D;" d="M57.682,317.319c-3.781,0.989-6.485-1.113-9.239-3.509c-17.192-14.952-16.423-45.336-24.22-62.265     c-2.934-6.37,11.471,1.748,17.683,14.001c9.795,19.322,11.524,39.6,24.223,49.703c0.697,0.554,0.668,1.361-0.255,1.421     C63.19,316.847,60.555,317.548,57.682,317.319z"/>
		</g>
		<g>
			<path style="fill:#007AF4;" d="M72.16,245.914c1.562,5.934,4.823,10.888,9.089,15.222c15.904,16.155,7.373,7.425,4.177,30.388     c-1.063,7.635,0.431,11.275-0.353,11.819c-0.332,0.231-0.692,0.047-0.881-0.238c-6.301-9.519-2.354-20.713-13.233-33.237     c-8.706-10.022-15.719-16.145-16.217-29.379c-0.582-15.48,10.33-24.891-1.19-43.196c-3.828-6.082-8.557-11.424-14.111-16.029     c-2.527-2.096-7.751-8.043-7.368-11.164c0.092-0.75,0.88-1.33,1.496-0.988c0.713,0.396,1.385,0.872,2.05,1.348     c16.021,11.461,35.27,24.324,34.688,48.566C70.289,219.842,70.333,238.972,72.16,245.914z"/>
			<path style="fill:#007AF4;" d="M113.385,315.443c-1.526-0.495-1.796-0.652-1.83-2.141c-0.043-1.87-0.1-3.766,0.144-5.612     c5.212-39.41,28.694-29.988,35.675-56.318c1.756-6.623,1.12-9.857,3.479-10.123c1.193-0.135,2.041,0.595,2.457,2.444     c6.667,29.581-17.536,34.623-24.638,54.409c-5.087,14.173-1.138,17.702-4.794,17.869     C122.477,316.035,115.276,316.057,113.385,315.443z"/>
		</g>
		<g style="opacity:0.25;">
			<path style="fill:#000E3F;" d="M80.402,315.826c-3.831,0.25-4.406,0.599-4.957-4.054c-1.804-15.233-9.504-34.878-25.826-54.494     c-2.641-3.175-9.446-6.412-6.115-22.713c0.278-1.363,0.908-1.699,2.306-1.319c12.908,3.501,21.001,21.28,27.259,29.19     c4.188,5.294,11.554,9.058,17.865,5.37c8.656-5.058-13.185,18.698-3.313,43.513c0.852,2.141,1.668,3.533-0.944,3.989     C82.767,315.993,83.946,315.826,80.402,315.826z"/>
			<path style="fill:#000E3F;" d="M157.292,318.767c-2.077-0.528-17.752-1.792-20.627-2.073c-1.534-0.15-2.041-0.741-1.828-2.344     c0.693-5.209,3.069-11.696,7.535-18.729c0.979-1.541,2.164-2.387,4.008-2.269c6.357,0.406,14.417-3.493,18.365-12.801     c2.226-5.249,3.463-11.664,11.762-18.779c0.683-0.585,3.072-2.571,3.88-2.05c0.978,0.63,0.087,1.441-0.097,2.163     c-1.122,4.418-2.308,8.811-2.352,13.431c-0.116,12.175,6.32,15.752,1.66,27.105c-3.458,8.425-9.837,13.447-18.571,15.623     C159.785,318.353,158.51,318.534,157.292,318.767z"/>
			<path style="fill:#000E3F;" d="M41,317.839c-10.699-6.022-17.103-17.663-19.309-29.641c-1.059-5.749,0.037-10.341-3.904-23.465     c-0.196-0.652-0.61-1.378,0.007-1.969c0.764-0.732,1.559-0.123,2.263,0.189c19.058,8.455,12.849,39.055,38.412,39.545     c11.313,0.217,12.017-4.736,13.341-1.043c1.164,3.249,2.011,8.943,2.413,12.375c0.199,1.697-0.38,2.799-2.651,2.74     c-4.545-0.117-17.133,1.044-24.111,1.843C46.533,318.521,43.678,319.346,41,317.839z"/>
			<path style="fill:#000E3F;" d="M97.97,315.303c-5.379,0-6.469,0.392-7.495-1.486c-2.106-3.856-3.415-7.937-3.595-12.357     c-0.211-5.182,7.262-1.246,10.227-13.455c0.58-2.387,1.292-4.753,1.697-7.17c3.225-19.25,17.677-26.368,25.039-33.783     c5.828-5.871,4.089-10.977,6.139-10.865c0.999,0.054,0.882,1.514,1.051,2.376c1.495,7.64,0.613,3.124,1.693,11.788     c0.47,3.77-1.464,4.193-8.816,10.532c-10.299,8.879-16.791,19.946-19.22,33.37c-2.873,15.877,3.489,20.801-1.451,21.011     c-1.753,0.074-3.512,0.017-5.268,0.017C97.97,315.288,97.97,315.296,97.97,315.303z"/>
			<path style="fill:#000E3F;" d="M109.334,315.317c-1.59-0.071-2.544-0.948-2.237-2.724c1.331-7.683,7.04-17.01,16.069-20.891     c7.528-3.236,13.849-5.447,19.661-9.977c6.428-5.01,13.53-18.547,18.785-21.147c3.47-1.717-1.129,11.62-7.262,19.461     c-4.432,5.667-8.527,6.921-14.52,17.007C125.841,320.589,145.359,316.915,109.334,315.317z"/>
		</g>
		<path style="opacity:0.5;fill:#FD8A02;" d="M182.736,368.383c0,1.813,0.037,3.364-1.738,3.757    c-5.363,1.215-10.969,2.186-16.52,1.364c1.439-17.156,2.935-33.453,10.989-44.142c3.962-5.27,6.111,3.644,6.616,6.634    c0.057,0.355,0.112,0.71,0.169,1.065c0,0.019,0.018,0.056,0,0.093C182.923,349.713,182.942,342.667,182.736,368.383z"/>
		<g>
			<g>
				<path style="fill:#FC09B2;" d="M59.91,431.425c-5.176-2.417-6.264-6.912-3.933-10.118c6.851-9.423,28.382-5.182,24.534,5.208      C78.639,431.566,68.161,435.278,59.91,431.425z"/>
			</g>
			<g>
				<path style="fill:#FC09B2;" d="M138.871,431.434c5.176-2.416,6.266-6.91,3.935-10.118c-6.848-9.424-28.381-5.189-24.535,5.203      C120.141,431.571,130.618,435.286,138.871,431.434z"/>
			</g>
		</g>
		<path style="opacity:0.75;fill:#FFFFFF;" d="M44.969,429.631c0.312,1.79-0.636,3.519-2.623,3.469    c-7.103-0.177-22.653-55.664-14.453-66.194c1.28-1.644,3.452-2.626,5.504-2.259C43.868,366.516,39.329,397.372,44.969,429.631z"/>
		<g>
			<path style="fill:#000E3F;" d="M123.774,188.042c0,30.483,5.904,36.075,8.364,44.106c3.47,11.326,2.585,15.169,3.224,15.306     c0.174,0.037,0.483-0.087,0.581-0.24c15.452-24.143,10.307-33.673,13.988-34.038c2.787-0.277,6.231,6.039,7.381,7.85     c0.612,0.964,2.135,5.386,3.496,3.412c3.768-5.465,6.762-10.075,18.284-16.525c6.055-3.389,13.337-5.117,14.841-5.27     c6.142-0.626,6.188,10.623,5.843,15.225c-0.912,12.155-4.644,23.831-11.657,34.037c-4.149,6.038-6.217,12.862-7.22,19.993     c-1.159,8.244,3.082,15.968,2.85,24.156c-0.23,8.113-5.319,15.315-11.697,19.952c-1.041,0.757-2.166,1.399-3.233,2.122     c-0.433,0.293-0.358,0.865,0.122,1.028c0.888,0.3,1.809,0.504,2.687,0.827c7.062,2.604,12.729,8.099,13.359,15.687     c2.487,29.959-0.097,81.667-17.032,109.285c-18.359,29.94-75.269,33.342-108.126,21.744     c-11.655-4.114-23.015-11.687-29.471-22.693c-11.273-19.215-14.826-44.87-16.734-66.927c-1.114-12.882-0.531-25.766-0.465-38.65     c0.095-18.795,22.678-19.418,22.946-20.065c0.244-0.587-0.586-0.88-0.999-1.243c-26.416-23.214-7.602-43.348-32.221-76.014     c-2.08-2.759-4.548-5.302-1.352-6.584c4.551-1.826,11.872-1.204,17.233,0.212c13.014,3.435,18.218,9.142,21.081,10.987     c0.438-1.957-1.567-10.067,5.019-22.296c5.54-10.286-0.592-19.608-8.781-25.913c-12.246-9.429-20.653-28.857-15.256-54.908     c0.118-0.569,0.227-1.158,0.466-1.68c0.4-0.875,1.661-1.24,2.395-0.653c3.403,2.72,1.804,3.99,14.112,13.623     c7.152,5.597,14.951,10.298,22.092,15.901c16.137,12.66,26.905,33.242,26.464,61.782c-0.24,15.582,7.567,33.124,8.177,28.969     c0.665-4.522,1.245-9.235,0.651-13.792c-2.667-20.444-1.502-33.144,5.093-49.134c3.859-9.356,10.46-18.688,19.287-24.485     c1.88-1.235,3.742-0.332,4.125,1.897C123.768,175.466,123.751,174.492,123.774,188.042z M30.733,323.609     c-5.853,1.011-12.777,6.188-13.201,11.528c-2.42,30.475,0.506,82.321,17.393,108.745c21.433,33.537,106.24,33.225,128.565,0.801     c7.495-10.886,11.944-27.156,14.228-40.121c3.61-20.49,4.991-43.28,3.429-67.823c-0.489-7.668-6.844-12.694-13.408-13.682     C118.817,315.695,61.973,318.211,30.733,323.609z M44.119,243.148c-0.336,10.948,6.959,10.12,19.289,31.411     c20.609,35.585,6.643,40.947,18.999,40.044c10.356-0.757-1.382-0.821,2.26-26.028c1-6.919,3.776-13.273,6.709-19.539     c2.443-5.217-5.479-5.629-8.747-31.087c-1.393-10.85,0.611-10.767-1.705-25.182c-2.227-13.864-9.831-28.565-21.861-38.658     c-6.615-5.55-23.596-15.533-32.994-25.565c-2.628-2.806-2.064-0.981-2.444,1.597c-1.52,10.301-0.234,21.112,4.233,30.563     c6.072,12.845,12.872,14.191,17.799,20.282c3.88,4.798,6.454,11.114,5.128,17.337c-0.619,2.906-1.812,5.548-3.103,8.185     C43.471,235.115,44.222,239.785,44.119,243.148z M6.865,237.196c-1.889,0.166-0.771,1.623,0.343,3.168     c8.006,11.104,14.035,26.916,15.071,40.347c0.74,9.598,2.101,18.68,10.521,28.796c2.702,3.247,8.251,8.338,12.661,7.847     c26.624-2.961,27.704-0.87,27.319-4.523C69.457,281.327,37.655,234.484,6.865,237.196z M119.363,179.773     c-0.011-1.221-0.662-1.364-1.513-0.522c-4.709,4.653-9.004,8.303-13.854,19.638c-4.269,9.976-6.377,20.735-6.264,31.58     c0.107,10.32,4.832,26.233-1.945,38.855c-6.97,12.981-11.495,30.331-4.629,43.373c0.538,1.021,1.28,1.613,2.489,1.601     c2.418-0.024,4.84,0.081,7.258,0.004c4.264-0.136,2.354-5.254,2.125-7.811c-1.029-11.526,2.828-26.839,13.233-39.359     c3.074-3.699,6.556-7.051,10.291-10.078c0.752-0.61,1.515-1.207,2.287-1.792c3.352-2.541,2.674-4.384,1.794-11.685     C128.042,222.068,119.813,230.62,119.363,179.773z M151.648,286.876c-8.986,8.21-14.029,18.036-15.531,27.29     c-0.237,1.46,0.287,1.51,1.95,1.548c10.914,0.244,17.503,2.499,22.729,1.166c7.473-1.907,14.158-7.057,17.226-14.226     c3.803-8.887-1.09-17.722-1.193-26.746c-0.104-9.096,2.799-18.29,7.85-25.825c8.856-13.213,13.254-31.634,10.651-41.583     c-0.366-1.398-0.754-1.709-2.24-1.561c-11.02,1.1-33.492,16.892-29.913,26.178C169.96,250.706,166.791,273.042,151.648,286.876z      M152.449,220.938c-0.415-0.427-1.148-0.293-1.378,0.257c-2.894,6.935-2.915,19.016-17.375,35.004     c-4.443,4.912-8.533,5.674-14.751,13.409c-11.065,13.766-14.106,29.578-11.29,41.983c0.748,3.293,0.075,2.638,20.942,3.474     c3.073,0.123,3.139,0.108,3.8-2.789c2.696-11.807,9.61-22.125,15.336-27.114c5.25-4.574,8.704-9.537,11.015-14.773     c3.618-8.2,4.524-17.475,3.239-26.303C160.498,233.848,155.262,223.832,152.449,220.938z"/>
			<path style="fill:#000E3F;" d="M68.959,395.447c-4.341-0.143-8.625,4.376-8.139,8.578c-0.326,4.641,3.731,8.47,7.841,8.604     c5.039,0.164,8.558-4.3,8.53-8.486C77.157,399.006,73.374,395.593,68.959,395.447z"/>
			<path style="fill:#000E3F;" d="M129.942,412.584c3.836,0.383,8.206-3.882,8.098-8.669c-0.104-4.641-3.859-8.443-8.249-8.43     c-4.519,0.013-8.231,3.846-8.206,8.853C121.606,408.571,125.418,412.939,129.942,412.584z"/>
			<g>
				<path style="fill:#000E3F;" d="M99.993,424.101c-0.427,0-0.856-0.019-1.287-0.058c-3.984-0.355-7.656-2.409-10.341-5.783      c-3.09-3.884-4.537-9.055-3.875-13.833c0.157-1.123,1.177-1.911,2.32-1.753c1.124,0.156,1.909,1.194,1.754,2.319      c-0.505,3.629,0.651,7.733,3.019,10.709c1.398,1.757,3.832,3.92,7.488,4.246c3.179,0.285,6.191-0.925,8.53-3.396      c2.886-3.049,4.309-7.474,3.718-11.545c-0.163-1.123,0.615-2.167,1.739-2.33c1.15-0.167,2.166,0.617,2.331,1.738      c0.767,5.288-1.073,11.021-4.802,14.963C107.68,422.451,103.957,424.101,99.993,424.101z"/>
			</g>
		</g>
	</g>
	<g>
		<path style="fill:#FD8A02;" d="M255.529,113.636c-3.562,10.25-13.113,22.496-23.706,26.208    c-8.51,2.982-30.937-11.847-34.371-24.831c-2.231-8.433,3.05-16.292,11.047-15.882c6.635,0.34,12.697,5.036,16.914,10.108    c1.184,1.425,1.469,2.041,1.883,1.253c0.829-1.579,2.747-5.496,4.588-7.725C245.933,85.757,260.633,98.948,255.529,113.636z"/>
		<path style="fill:#FD8A02;" d="M167.68,141.881c-2.549,7.337-9.387,16.104-16.97,18.761c-6.092,2.135-22.146-8.481-24.605-17.775    c-1.597-6.037,2.183-11.663,7.908-11.369c4.75,0.244,9.09,3.605,12.108,7.236c0.848,1.02,1.052,1.461,1.348,0.897    c0.593-1.13,1.966-3.934,3.284-5.53C160.811,121.923,171.334,131.366,167.68,141.881z"/>
		<path style="fill:#FD8A02;" d="M189.022,58.109c-2.55,7.337-9.387,16.104-16.97,18.761c-6.092,2.135-22.146-8.481-24.605-17.775    c-1.597-6.037,2.183-11.663,7.908-11.369c4.75,0.244,9.09,3.605,12.108,7.236c0.848,1.02,1.052,1.461,1.348,0.897    c0.593-1.13,1.966-3.934,3.284-5.53C182.152,38.152,192.676,47.595,189.022,58.109z"/>
	</g>
</g>















</svg>
