<?xml version="1.0" encoding="UTF-8"?>
<!-- Generator: Adobe Illustrator 25.2.1, SVG Export Plug-In . SVG Version: 6.00 Build 0)  -->
<svg xmlns="http://www.w3.org/2000/svg" xmlns:xlink="http://www.w3.org/1999/xlink" version="1.1" id="Capa_1" x="0px" y="0px" viewBox="0 0 512 512" style="enable-background:new 0 0 512 512;" xml:space="preserve" width="512" height="512">
<g>
	<g>
		<path style="fill:#FFCF00;" d="M417.568,367.809c13.07,45.245,29.301,42.415,28.432,47.115    c-1.333,7.208-3.076,14.255-7.275,20.446c-18.459,27.214-46.475,12.112-64.538,36.858c-6.523,8.936-8.181,14.018-11.44,20.915    c-9.943,21.037-38.616,22.204-59.62,4.134c-4.821-4.147,0.782-7.706,0.212-27.042c-0.512-17.374-4.241-29.943-10.792-43.005    c-6.553-13.067-25.061-26.752-47.861-29.187c-6.734-0.719-11.173,1.3-10.383-2.435c0.418-1.973,0.772-3.996,1.509-5.857    c6.033-15.24,13.59-26.017,29.685-34.703c26.546-14.325,40.481-4.328,62.189-36.714c11.641-17.366,3.325-42.533,19.445-63.199    c9.497-12.175,22.18-14.441,33.355-9.321c11.361,5.206,21.572,18.023,25.481,29.263    C415.628,302.862,406.266,328.686,417.568,367.809z"/>
		<g style="opacity:0.7;">
			<path style="fill:#FFFFFF;" d="M441.027,422.124c0.381-0.622-0.116-1.412-0.842-1.336l-4.514,0.47     c-0.287,0.03-0.573-0.084-0.76-0.304l-1.238-1.45l-1.709-2.002c-0.474-0.555-1.378-0.326-1.531,0.388l-0.948,4.439     c-0.06,0.283-0.256,0.518-0.524,0.629l-4.194,1.736c-0.673,0.279-0.735,1.21-0.103,1.575l3.928,2.273     c0.251,0.145,0.414,0.404,0.436,0.693l0.355,4.525c0.056,0.727,0.923,1.073,1.465,0.586l2.825-2.538l0.552-0.496     c0.215-0.193,0.513-0.268,0.794-0.201l4.413,1.061c0.709,0.171,1.306-0.546,1.01-1.213l-1.842-4.148     c-0.118-0.265-0.097-0.57,0.055-0.817L441.027,422.124z"/>
			<path style="fill:#FFFFFF;" d="M404.298,309.363l4.676,3.64c0.299,0.232,0.464,0.597,0.441,0.974l-0.348,5.916     c-0.055,0.951,1.004,1.554,1.792,1.019l0.365-0.247c-0.118-5.176-0.17-10.168-0.349-15.051c-0.126,0.103-0.266,0.19-0.427,0.232     l-5.735,1.498C403.793,307.584,403.547,308.778,404.298,309.363z"/>
			<path style="fill:#FFFFFF;" d="M388.602,307.641l-4.514,0.47c-0.288,0.03-0.573-0.084-0.76-0.304l-2.946-3.453     c-0.474-0.555-1.378-0.326-1.531,0.387l-0.948,4.439c-0.061,0.283-0.257,0.519-0.524,0.629l-4.194,1.735     c-0.674,0.279-0.736,1.21-0.104,1.575l3.928,2.274c0.251,0.145,0.415,0.404,0.437,0.693l0.354,4.525     c0.057,0.728,0.924,1.074,1.466,0.586l3.375-3.033c0.216-0.194,0.513-0.269,0.795-0.202l4.413,1.061     c0.709,0.171,1.307-0.546,1.011-1.213l-1.842-4.148c-0.118-0.265-0.098-0.57,0.054-0.818l2.374-3.869     C389.826,308.355,389.328,307.565,388.602,307.641z"/>
			<path style="fill:#FFFFFF;" d="M340.846,311.145c0.172,0.286,0.193,0.639,0.055,0.943l-2.16,4.769     c-0.347,0.767,0.336,1.599,1.155,1.408l5.099-1.186c0.326-0.076,0.668,0.014,0.915,0.239l3.868,3.528     c0.622,0.567,1.624,0.175,1.696-0.664l0.447-5.216c0.028-0.333,0.219-0.63,0.51-0.796l4.55-2.589     c0.731-0.416,0.668-1.49-0.107-1.818l-4.823-2.037c-0.308-0.13-0.532-0.403-0.6-0.73l-1.055-5.128     c-0.17-0.825-1.211-1.096-1.762-0.46l-3.428,3.957c-0.219,0.253-0.548,0.382-0.88,0.344l-5.203-0.581     c-0.837-0.093-1.416,0.813-0.982,1.534L340.846,311.145z"/>
			<path style="fill:#FFFFFF;" d="M374.62,284.288c0.604-0.736,0.102-1.846-0.85-1.878l-5.922-0.196     c-0.379-0.013-0.726-0.21-0.93-0.529l-3.196-4.991c-0.514-0.802-1.725-0.667-2.049,0.229l-2.017,5.572     c-0.129,0.356-0.425,0.626-0.79,0.721l-5.734,1.497c-0.922,0.24-1.167,1.434-0.415,2.019l4.676,3.64     c0.299,0.232,0.464,0.597,0.441,0.974l-0.348,5.916c-0.056,0.951,1.003,1.553,1.792,1.02l4.907-3.322     c0.313-0.212,0.71-0.257,1.063-0.119l5.519,2.159c0.887,0.347,1.787-0.474,1.523-1.389l-1.644-5.693     c-0.104-0.363-0.024-0.755,0.216-1.048L374.62,284.288z"/>
			<path style="fill:#FFFFFF;" d="M392.428,288.515c0.172,0.286,0.193,0.639,0.055,0.944l-2.159,4.769     c-0.348,0.767,0.335,1.599,1.155,1.408l5.099-1.186c0.325-0.076,0.667,0.014,0.914,0.239l3.868,3.528     c0.622,0.567,1.624,0.175,1.696-0.663l0.447-5.216c0.029-0.333,0.22-0.631,0.51-0.796l4.551-2.589     c0.731-0.416,0.669-1.49-0.107-1.817l-4.823-2.037c-0.308-0.13-0.532-0.403-0.599-0.731l-1.056-5.128     c-0.17-0.824-1.21-1.096-1.762-0.46l-3.428,3.957c-0.219,0.252-0.547,0.381-0.879,0.344l-5.204-0.581     c-0.836-0.093-1.416,0.813-0.982,1.534L392.428,288.515z"/>
			<path style="fill:#FFFFFF;" d="M388.602,262.382l-4.514,0.47c-0.288,0.03-0.573-0.084-0.76-0.304l-2.946-3.453     c-0.474-0.555-1.378-0.326-1.531,0.388l-0.948,4.438c-0.061,0.283-0.257,0.519-0.524,0.629l-4.194,1.735     c-0.674,0.279-0.736,1.21-0.104,1.575l3.928,2.274c0.251,0.145,0.415,0.404,0.437,0.693l0.354,4.525     c0.057,0.727,0.924,1.073,1.466,0.586l3.375-3.034c0.216-0.193,0.513-0.269,0.795-0.201l4.413,1.061     c0.709,0.171,1.307-0.546,1.011-1.213l-1.842-4.148c-0.118-0.264-0.098-0.57,0.054-0.817l2.374-3.869     C389.826,263.096,389.328,262.306,388.602,262.382z"/>
			<path style="fill:#FFFFFF;" d="M339.896,273.006l5.099-1.186c0.326-0.076,0.668,0.014,0.915,0.239l3.868,3.528     c0.622,0.567,1.624,0.175,1.696-0.663l0.447-5.216c0.028-0.333,0.219-0.631,0.51-0.796l4.55-2.589     c0.731-0.416,0.668-1.49-0.107-1.818l-4.823-2.037c-0.308-0.13-0.532-0.404-0.6-0.73l-1.055-5.128     c-0.17-0.824-1.211-1.096-1.762-0.46l-3.428,3.957c-0.219,0.253-0.548,0.381-0.88,0.344l-0.719-0.08     c-1.06,1.828-1.969,3.68-2.751,5.551c0.155,0.28,0.177,0.616,0.044,0.909l-1.863,4.114c-0.129,0.416-0.249,0.833-0.367,1.25     C338.768,272.728,339.292,273.147,339.896,273.006z"/>
			<path style="fill:#FFFFFF;" d="M359.278,253.023l4.907-3.322c0.313-0.212,0.71-0.256,1.063-0.119l5.519,2.159     c0.887,0.347,1.787-0.474,1.523-1.389l-1.644-5.694c-0.104-0.363-0.024-0.755,0.216-1.048l0.219-0.267     c-4.476-0.344-8.98,0.508-13.256,2.693c-0.001,0.018,0.01,0.034,0.009,0.052l-0.348,5.916     C357.43,252.955,358.489,253.557,359.278,253.023z"/>
			<path style="fill:#FFFFFF;" d="M413.255,390.072l-2.017,5.572c-0.129,0.356-0.424,0.625-0.789,0.72l-5.735,1.498     c-0.921,0.241-1.167,1.434-0.415,2.019l4.676,3.64c0.299,0.232,0.464,0.597,0.441,0.974l-0.348,5.916     c-0.055,0.951,1.004,1.553,1.792,1.019l4.907-3.322c0.313-0.212,0.71-0.256,1.063-0.119l5.52,2.159     c0.886,0.347,1.786-0.474,1.522-1.389l-1.643-5.694c-0.105-0.363-0.025-0.755,0.215-1.048l3.758-4.582     c0.604-0.736,0.102-1.846-0.85-1.877l-5.922-0.196c-0.379-0.013-0.726-0.211-0.93-0.529l-3.196-4.99     C414.79,389.041,413.58,389.176,413.255,390.072z"/>
			<path style="fill:#FFFFFF;" d="M388.602,398.159l-4.514,0.47c-0.288,0.03-0.573-0.084-0.76-0.304l-2.946-3.453     c-0.474-0.555-1.378-0.326-1.531,0.387l-0.948,4.439c-0.061,0.283-0.257,0.518-0.524,0.629l-4.194,1.736     c-0.674,0.279-0.736,1.209-0.104,1.575l3.928,2.273c0.251,0.145,0.415,0.404,0.437,0.693l0.354,4.525     c0.057,0.727,0.924,1.073,1.466,0.586l3.375-3.034c0.216-0.194,0.513-0.269,0.795-0.201l4.413,1.061     c0.709,0.171,1.307-0.546,1.011-1.213l-1.842-4.148c-0.118-0.265-0.098-0.571,0.054-0.818l2.374-3.869     C389.826,398.872,389.328,398.083,388.602,398.159z"/>
			<path style="fill:#FFFFFF;" d="M340.846,401.663c0.172,0.286,0.193,0.639,0.055,0.943l-2.16,4.769     c-0.347,0.767,0.336,1.599,1.155,1.408l5.099-1.187c0.326-0.075,0.668,0.014,0.915,0.239l3.868,3.528     c0.622,0.567,1.624,0.175,1.696-0.663l0.447-5.216c0.028-0.333,0.219-0.63,0.51-0.796l4.55-2.588     c0.731-0.417,0.668-1.491-0.107-1.818l-4.823-2.037c-0.308-0.13-0.532-0.403-0.6-0.73l-1.055-5.128     c-0.17-0.824-1.211-1.097-1.762-0.46l-3.428,3.957c-0.219,0.253-0.548,0.382-0.88,0.345l-5.203-0.581     c-0.837-0.093-1.416,0.813-0.982,1.534L340.846,401.663z"/>
			<path style="fill:#FFFFFF;" d="M337.02,375.529l-4.514,0.47c-0.288,0.03-0.573-0.084-0.761-0.304l-1.238-1.45l-1.709-2.002     c-0.474-0.555-1.378-0.326-1.531,0.387l-0.947,4.439c-0.061,0.283-0.257,0.519-0.524,0.63l-4.194,1.735     c-0.674,0.279-0.736,1.21-0.104,1.575l3.928,2.274c0.25,0.145,0.414,0.404,0.436,0.693l0.355,4.525     c0.057,0.727,0.924,1.073,1.466,0.586l2.824-2.538l0.552-0.495c0.216-0.194,0.513-0.269,0.794-0.202l4.414,1.062     c0.709,0.171,1.307-0.546,1.01-1.213l-1.842-4.148c-0.117-0.264-0.097-0.57,0.054-0.817l2.373-3.869     C338.243,376.243,337.746,375.454,337.02,375.529z"/>
			<path style="fill:#FFFFFF;" d="M410.448,351.105l-5.735,1.497c-0.921,0.241-1.167,1.434-0.415,2.019l4.676,3.64     c0.299,0.232,0.464,0.597,0.441,0.974l-0.348,5.916c-0.055,0.951,1.004,1.553,1.792,1.019l4.907-3.322     c0.13-0.088,0.28-0.129,0.428-0.158c-1.498-5.96-2.535-11.611-3.256-17.008l-1.702,4.703     C411.109,350.74,410.814,351.01,410.448,351.105z"/>
			<path style="fill:#FFFFFF;" d="M374.62,374.806c0.604-0.736,0.102-1.846-0.85-1.878l-5.922-0.196     c-0.379-0.013-0.726-0.211-0.93-0.529l-3.196-4.99c-0.514-0.802-1.725-0.667-2.049,0.229l-2.017,5.572     c-0.129,0.356-0.425,0.625-0.79,0.721l-5.734,1.498c-0.922,0.24-1.167,1.434-0.415,2.019l4.676,3.64     c0.299,0.233,0.464,0.597,0.441,0.974l-0.348,5.916c-0.056,0.951,1.003,1.553,1.792,1.019l4.907-3.322     c0.313-0.212,0.71-0.256,1.063-0.118l5.519,2.159c0.887,0.347,1.787-0.474,1.523-1.389l-1.644-5.693     c-0.104-0.363-0.024-0.755,0.216-1.047L374.62,374.806z"/>
			<path style="fill:#FFFFFF;" d="M392.428,379.033c0.172,0.286,0.193,0.639,0.055,0.943l-2.159,4.769     c-0.348,0.766,0.335,1.598,1.155,1.408l5.099-1.186c0.325-0.076,0.667,0.014,0.914,0.239l3.868,3.528     c0.622,0.567,1.624,0.175,1.696-0.663l0.447-5.217c0.029-0.333,0.22-0.63,0.51-0.796l4.551-2.589     c0.731-0.416,0.669-1.49-0.107-1.818l-4.823-2.037c-0.308-0.13-0.532-0.403-0.599-0.73l-1.056-5.128     c-0.17-0.824-1.21-1.096-1.762-0.46l-3.428,3.957c-0.219,0.253-0.547,0.382-0.879,0.344l-5.204-0.581     c-0.836-0.093-1.416,0.813-0.982,1.534L392.428,379.033z"/>
			<path style="fill:#FFFFFF;" d="M388.602,352.9l-4.514,0.47c-0.288,0.03-0.573-0.084-0.76-0.304l-2.946-3.452     c-0.474-0.555-1.378-0.326-1.531,0.387l-0.948,4.438c-0.061,0.284-0.257,0.519-0.524,0.63l-4.194,1.736     c-0.674,0.279-0.736,1.21-0.104,1.575l3.928,2.274c0.251,0.145,0.415,0.404,0.437,0.693l0.354,4.525     c0.057,0.727,0.924,1.074,1.466,0.586l3.375-3.034c0.216-0.193,0.513-0.268,0.795-0.201l4.413,1.061     c0.709,0.171,1.307-0.546,1.011-1.213l-1.842-4.148c-0.118-0.265-0.098-0.57,0.054-0.818l2.374-3.869     C389.826,353.613,389.328,352.824,388.602,352.9z"/>
			<path style="fill:#FFFFFF;" d="M340.846,356.404c0.172,0.286,0.193,0.639,0.055,0.944l-2.16,4.769     c-0.347,0.766,0.336,1.598,1.155,1.408l5.099-1.186c0.326-0.076,0.668,0.014,0.915,0.239l3.868,3.528     c0.622,0.567,1.624,0.175,1.696-0.663l0.447-5.216c0.028-0.333,0.219-0.631,0.51-0.796l4.55-2.588     c0.731-0.416,0.668-1.49-0.107-1.818l-4.823-2.037c-0.308-0.13-0.532-0.403-0.6-0.731l-1.055-5.128     c-0.17-0.825-1.211-1.096-1.762-0.46l-3.428,3.957c-0.219,0.252-0.548,0.381-0.88,0.344l-5.203-0.58     c-0.837-0.093-1.416,0.813-0.982,1.534L340.846,356.404z"/>
			<path style="fill:#FFFFFF;" d="M337.02,330.27l-4.514,0.47c-0.288,0.03-0.573-0.084-0.761-0.304l-1.238-1.45l-1.709-2.002     c-0.474-0.555-1.378-0.326-1.531,0.387l-0.947,4.438c-0.061,0.284-0.257,0.519-0.524,0.63l-4.194,1.736     c-0.674,0.279-0.736,1.209-0.104,1.575l3.928,2.273c0.25,0.145,0.414,0.405,0.436,0.693l0.355,4.525     c0.057,0.727,0.924,1.073,1.466,0.586l2.824-2.538l0.552-0.496c0.216-0.194,0.513-0.269,0.794-0.201l4.414,1.061     c0.709,0.171,1.307-0.546,1.01-1.213l-1.842-4.148c-0.117-0.265-0.097-0.571,0.054-0.818l2.373-3.869     C338.243,330.984,337.746,330.195,337.02,330.27z"/>
			<path style="fill:#FFFFFF;" d="M374.62,329.547c0.604-0.737,0.102-1.846-0.85-1.878l-5.922-0.196     c-0.379-0.012-0.726-0.21-0.93-0.529l-1.157-1.806l-2.039-3.184c-0.514-0.803-1.725-0.667-2.049,0.229l-1.07,2.955l-0.947,2.617     c-0.129,0.356-0.425,0.625-0.79,0.72l-5.734,1.498c-0.922,0.241-1.167,1.434-0.415,2.019l4.676,3.64     c0.299,0.232,0.464,0.597,0.441,0.974l-0.348,5.916c-0.056,0.951,1.003,1.553,1.792,1.019l4.907-3.323     c0.313-0.212,0.71-0.256,1.063-0.118l5.519,2.159c0.887,0.347,1.787-0.474,1.523-1.389l-1.644-5.693     c-0.104-0.363-0.024-0.755,0.216-1.048L374.62,329.547z"/>
			<path style="fill:#FFFFFF;" d="M392.428,333.774c0.172,0.286,0.193,0.639,0.055,0.943l-2.159,4.769     c-0.348,0.767,0.335,1.599,1.155,1.408l5.099-1.186c0.325-0.076,0.667,0.014,0.914,0.239l3.868,3.528     c0.622,0.567,1.624,0.175,1.696-0.664l0.447-5.216c0.029-0.333,0.22-0.631,0.51-0.796l4.551-2.589     c0.731-0.416,0.669-1.49-0.107-1.818l-4.823-2.037c-0.308-0.13-0.532-0.403-0.599-0.731l-0.924-4.487l-0.133-0.642     c-0.17-0.824-1.21-1.096-1.762-0.46l-0.954,1.101l-2.474,2.856c-0.219,0.253-0.547,0.382-0.879,0.344l-5.204-0.58     c-0.836-0.093-1.416,0.813-0.982,1.534L392.428,333.774z"/>
			<path style="fill:#FFFFFF;" d="M356.874,490.799l-4.823-2.037c-0.308-0.13-0.532-0.404-0.6-0.731l-1.055-5.128     c-0.17-0.824-1.211-1.096-1.762-0.46l-3.428,3.957c-0.219,0.253-0.548,0.382-0.88,0.344l-5.203-0.58     c-0.837-0.093-1.416,0.812-0.982,1.533l2.704,4.483c0.172,0.286,0.193,0.639,0.055,0.943l-2.16,4.769     c-0.347,0.767,0.336,1.599,1.155,1.408l5.099-1.187c0.326-0.076,0.668,0.014,0.915,0.239l3.868,3.528     c0.622,0.567,1.624,0.175,1.696-0.664l0.447-5.216c0.028-0.333,0.219-0.631,0.51-0.796l4.55-2.589     C357.713,492.201,357.649,491.127,356.874,490.799z"/>
			<path style="fill:#FFFFFF;" d="M337.02,466.047l-4.514,0.47c-0.288,0.03-0.573-0.084-0.761-0.304l-1.238-1.45l-1.709-2.002     c-0.474-0.555-1.378-0.326-1.531,0.387l-0.947,4.439c-0.061,0.283-0.257,0.519-0.524,0.629l-4.194,1.735     c-0.674,0.279-0.736,1.21-0.104,1.575l3.928,2.273c0.25,0.145,0.414,0.404,0.436,0.693l0.355,4.525     c0.057,0.728,0.924,1.074,1.466,0.586l2.824-2.538l0.552-0.495c0.216-0.194,0.513-0.269,0.794-0.201l4.414,1.061     c0.709,0.171,1.307-0.546,1.01-1.213l-1.842-4.148c-0.117-0.265-0.097-0.57,0.054-0.818l2.373-3.869     C338.243,466.762,337.746,465.972,337.02,466.047z"/>
			<path style="fill:#FFFFFF;" d="M425.352,440.817l-5.922-0.196c-0.379-0.013-0.726-0.21-0.93-0.529l-3.196-4.99     c-0.514-0.802-1.724-0.667-2.049,0.229l-2.017,5.572c-0.129,0.356-0.424,0.626-0.789,0.721l-5.735,1.497     c-0.921,0.24-1.167,1.434-0.415,2.019l4.676,3.64c0.299,0.232,0.464,0.597,0.441,0.974l-0.251,4.284     c4.543-1.116,9.061-2.422,13.409-4.518l-0.345-1.196c-0.105-0.363-0.025-0.755,0.215-1.048l3.758-4.582     C426.806,441.958,426.304,440.849,425.352,440.817z"/>
			<path style="fill:#FFFFFF;" d="M373.77,463.447l-5.922-0.196c-0.379-0.012-0.726-0.21-0.93-0.529l-3.196-4.99     c-0.514-0.802-1.725-0.667-2.049,0.229l-2.017,5.572c-0.129,0.356-0.425,0.625-0.79,0.721l-5.734,1.497     c-0.922,0.241-1.167,1.434-0.415,2.019l4.676,3.64c0.299,0.232,0.464,0.597,0.441,0.974l-0.348,5.916     c-0.056,0.951,1.003,1.553,1.792,1.019l4.907-3.322c0.313-0.212,0.71-0.256,1.063-0.118l5.118,2.002     c0.486-0.787,1.004-1.596,1.573-2.445l-1.294-4.481c-0.104-0.363-0.024-0.755,0.216-1.047l3.758-4.582     C375.224,464.588,374.721,463.479,373.77,463.447z"/>
			<path style="fill:#FFFFFF;" d="M388.602,443.418l-4.514,0.47c-0.288,0.03-0.573-0.083-0.76-0.304l-2.946-3.453     c-0.474-0.555-1.378-0.326-1.531,0.388l-0.948,4.438c-0.061,0.284-0.257,0.519-0.524,0.63l-4.194,1.735     c-0.674,0.279-0.736,1.21-0.104,1.575l3.928,2.273c0.251,0.145,0.415,0.404,0.437,0.693l0.354,4.525     c0.057,0.727,0.924,1.074,1.466,0.586l3.375-3.033c0.216-0.194,0.513-0.269,0.795-0.201l4.413,1.061     c0.709,0.17,1.307-0.546,1.011-1.213l-1.842-4.148c-0.118-0.265-0.098-0.571,0.054-0.818l2.374-3.869     C389.826,444.132,389.328,443.342,388.602,443.418z"/>
			<path style="fill:#FFFFFF;" d="M340.846,446.922c0.172,0.286,0.193,0.639,0.055,0.943l-2.16,4.769     c-0.347,0.767,0.336,1.599,1.155,1.408l5.099-1.186c0.326-0.076,0.668,0.014,0.915,0.239l3.868,3.528     c0.622,0.567,1.624,0.175,1.696-0.663l0.447-5.217c0.028-0.333,0.219-0.63,0.51-0.796l4.55-2.589     c0.731-0.416,0.668-1.49-0.107-1.817l-4.823-2.038c-0.308-0.13-0.532-0.403-0.6-0.73l-1.055-5.128     c-0.17-0.824-1.211-1.096-1.762-0.46l-3.428,3.957c-0.219,0.252-0.548,0.381-0.88,0.344l-5.203-0.581     c-0.837-0.093-1.416,0.813-0.982,1.534L340.846,446.922z"/>
			<path style="fill:#FFFFFF;" d="M337.02,420.789l-4.514,0.47c-0.288,0.03-0.573-0.084-0.761-0.304l-1.238-1.45l-1.709-2.002     c-0.474-0.555-1.378-0.326-1.531,0.388l-0.947,4.439c-0.061,0.283-0.257,0.518-0.524,0.629l-4.194,1.736     c-0.674,0.279-0.736,1.21-0.104,1.575l3.928,2.273c0.25,0.145,0.414,0.404,0.436,0.693l0.355,4.525     c0.057,0.727,0.924,1.073,1.466,0.586l2.824-2.538l0.552-0.496c0.216-0.193,0.513-0.268,0.794-0.201l4.414,1.061     c0.709,0.171,1.307-0.546,1.01-1.213l-1.842-4.148c-0.117-0.265-0.097-0.57,0.054-0.817l2.373-3.869     C338.243,421.502,337.746,420.713,337.02,420.789z"/>
			<path style="fill:#FFFFFF;" d="M374.62,420.065c0.604-0.737,0.102-1.847-0.85-1.878l-5.922-0.197     c-0.379-0.012-0.726-0.21-0.93-0.529l-1.157-1.806l-2.039-3.184c-0.514-0.802-1.725-0.667-2.049,0.229l-1.07,2.956l-0.947,2.617     c-0.129,0.356-0.425,0.625-0.79,0.721l-5.734,1.497c-0.922,0.241-1.167,1.434-0.415,2.019l4.676,3.64     c0.299,0.232,0.464,0.597,0.441,0.974l-0.348,5.916c-0.056,0.951,1.003,1.553,1.792,1.019l4.907-3.322     c0.313-0.212,0.71-0.256,1.063-0.119l5.519,2.159c0.887,0.347,1.787-0.474,1.523-1.389l-1.644-5.693     c-0.104-0.364-0.024-0.755,0.216-1.048L374.62,420.065z"/>
			<path style="fill:#FFFFFF;" d="M408.564,424.729c0.731-0.416,0.669-1.49-0.107-1.818l-4.823-2.037     c-0.308-0.13-0.532-0.403-0.599-0.73l-0.924-4.487l-0.133-0.641c-0.17-0.824-1.21-1.096-1.762-0.46l-0.954,1.101l-2.474,2.856     c-0.219,0.253-0.547,0.381-0.879,0.344l-5.204-0.581c-0.836-0.093-1.416,0.813-0.982,1.534l2.704,4.483     c0.172,0.286,0.193,0.639,0.055,0.943l-2.159,4.769c-0.348,0.767,0.335,1.598,1.155,1.408l5.099-1.186     c0.325-0.076,0.667,0.014,0.914,0.239l3.868,3.528c0.622,0.567,1.624,0.175,1.696-0.663l0.447-5.216     c0.029-0.333,0.22-0.63,0.51-0.796L408.564,424.729z"/>
			<path style="fill:#FFFFFF;" d="M323.038,397.436c0.604-0.736,0.102-1.846-0.851-1.877l-5.922-0.196     c-0.378-0.013-0.726-0.211-0.93-0.529l-3.196-4.99c-0.513-0.802-1.724-0.667-2.048,0.229l-2.017,5.572     c-0.129,0.356-0.425,0.625-0.79,0.72l-5.734,1.498c-0.922,0.241-1.168,1.434-0.416,2.019l4.676,3.64     c0.299,0.232,0.464,0.597,0.442,0.974l-0.348,5.916c-0.056,0.951,1.003,1.553,1.791,1.019l4.907-3.322     c0.313-0.212,0.71-0.256,1.063-0.119l5.519,2.159c0.887,0.347,1.787-0.474,1.523-1.389l-1.643-5.694     c-0.105-0.363-0.025-0.755,0.216-1.048L323.038,397.436z"/>
			<path style="fill:#FFFFFF;" d="M285.438,398.159l-4.515,0.47c-0.288,0.03-0.573-0.084-0.76-0.304l-2.946-3.453     c-0.474-0.555-1.378-0.326-1.531,0.387l-0.948,4.439c-0.06,0.283-0.257,0.518-0.524,0.629l-4.195,1.736     c-0.674,0.279-0.736,1.209-0.104,1.575l3.929,2.273c0.25,0.145,0.414,0.404,0.436,0.693l0.147,1.874     c1.033,0.66,2.035,1.341,3.005,2.041l2.044-1.837c0.215-0.194,0.513-0.269,0.794-0.201l4.413,1.061     c0.71,0.171,1.307-0.546,1.011-1.213l-1.842-4.148c-0.118-0.265-0.097-0.571,0.054-0.818l2.373-3.869     C286.66,398.872,286.163,398.083,285.438,398.159z"/>
			<path style="fill:#FFFFFF;" d="M248.288,397.514l-1.056-5.128c-0.17-0.824-1.211-1.097-1.762-0.46l-3.427,3.957     c-0.22,0.253-0.548,0.382-0.88,0.345l-5.204-0.581c-0.836-0.093-1.416,0.813-0.982,1.534l0.369,0.612     c1.657,0.448,5.021-0.211,9.339,0.25c2.015,0.215,3.982,0.547,5.925,0.93l-1.723-0.728     C248.579,398.114,248.355,397.841,248.288,397.514z"/>
			<path style="fill:#FFFFFF;" d="M305.81,358.262c0.299,0.232,0.464,0.597,0.442,0.974l-0.348,5.916     c-0.056,0.951,1.003,1.553,1.791,1.019l4.907-3.322c0.313-0.212,0.71-0.257,1.063-0.119l5.519,2.159     c0.887,0.347,1.787-0.474,1.523-1.389l-1.643-5.694c-0.105-0.363-0.025-0.755,0.216-1.047l3.758-4.582     c0.604-0.736,0.102-1.846-0.851-1.877l-5.922-0.197c-0.378-0.013-0.726-0.211-0.93-0.529l-3.196-4.99     c-0.513-0.802-1.724-0.667-2.048,0.229l-2.017,5.572c-0.129,0.356-0.425,0.625-0.79,0.721l-5.734,1.497     c-0.922,0.241-1.168,1.434-0.416,2.019L305.81,358.262z"/>
			<path style="fill:#FFFFFF;" d="M267.481,380.436c-0.105-0.363-0.025-0.755,0.215-1.047l3.759-4.582     c0.603-0.736,0.101-1.846-0.851-1.878l-5.922-0.196c-0.378-0.013-0.726-0.211-0.93-0.529l-3.196-4.99     c-0.513-0.802-1.724-0.667-2.049,0.229l-2.017,5.572c-0.128,0.356-0.424,0.625-0.79,0.721l-5.733,1.498     c-0.922,0.24-1.168,1.434-0.416,2.019l4.676,3.64c0.299,0.233,0.464,0.597,0.441,0.974l-0.348,5.916     c-0.055,0.951,1.003,1.553,1.792,1.019l4.907-3.322c0.313-0.212,0.71-0.256,1.062-0.118l5.519,2.159     c0.887,0.347,1.787-0.474,1.523-1.389L267.481,380.436z"/>
			<path style="fill:#FFFFFF;" d="M289.319,379.977l-2.16,4.769c-0.347,0.766,0.336,1.598,1.155,1.408l5.099-1.186     c0.326-0.076,0.667,0.014,0.914,0.239l3.869,3.528c0.622,0.567,1.623,0.175,1.695-0.663l0.448-5.217     c0.028-0.333,0.219-0.63,0.509-0.796l4.55-2.589c0.732-0.416,0.669-1.49-0.106-1.818l-4.823-2.037     c-0.309-0.13-0.533-0.403-0.6-0.73l-1.055-5.128c-0.171-0.824-1.211-1.096-1.762-0.46l-3.428,3.957     c-0.219,0.253-0.548,0.382-0.88,0.344l-5.203-0.581c-0.837-0.093-1.417,0.813-0.983,1.534l2.705,4.483     C289.436,379.319,289.457,379.672,289.319,379.977z"/>
			<path style="fill:#FFFFFF;" d="M285.438,352.9l-4.515,0.47c-0.288,0.03-0.573-0.084-0.76-0.304l-2.813-3.296     c-0.578,0.207-1.164,0.428-1.754,0.653l-0.858,4.017c-0.06,0.284-0.257,0.519-0.524,0.63l-4.195,1.736     c-0.674,0.279-0.736,1.21-0.104,1.575l3.929,2.274c0.25,0.145,0.414,0.404,0.436,0.693l0.355,4.525     c0.056,0.727,0.923,1.074,1.465,0.586l3.376-3.034c0.215-0.193,0.513-0.268,0.794-0.201l4.413,1.061     c0.71,0.171,1.307-0.546,1.011-1.213l-1.842-4.148c-0.118-0.265-0.097-0.57,0.054-0.818l2.373-3.869     C286.66,353.613,286.163,352.824,285.438,352.9z"/>
			<path style="fill:#FFFFFF;" d="M322.187,486.076l-5.922-0.196c-0.378-0.012-0.726-0.21-0.93-0.529l-3.196-4.99     c-0.513-0.802-1.724-0.667-2.048,0.229l-2.017,5.573c-0.129,0.356-0.425,0.625-0.79,0.72l-5.424,1.417     c-0.165,0.854-0.315,1.63-0.434,2.327l4.384,3.412c0.299,0.232,0.464,0.597,0.442,0.974l-0.268,4.552     c0.839,0.635,1.688,1.241,2.545,1.818l4.073-2.758c0.313-0.212,0.71-0.256,1.063-0.118l5.519,2.158     c0.887,0.347,1.787-0.474,1.523-1.389l-1.643-5.693c-0.105-0.363-0.025-0.755,0.216-1.048l3.758-4.581     C323.642,487.217,323.139,486.108,322.187,486.076z"/>
			<path style="fill:#FFFFFF;" d="M306.251,449.754l-0.348,5.916c-0.056,0.951,1.003,1.553,1.791,1.019l4.907-3.322     c0.313-0.212,0.71-0.257,1.063-0.119l5.519,2.159c0.887,0.347,1.787-0.474,1.523-1.389l-1.643-5.693     c-0.105-0.363-0.025-0.755,0.216-1.048l3.758-4.582c0.604-0.736,0.102-1.846-0.851-1.878l-5.922-0.196     c-0.378-0.013-0.726-0.21-0.93-0.529l-3.196-4.99c-0.513-0.802-1.724-0.667-2.048,0.229l-2.017,5.572     c-0.129,0.356-0.425,0.626-0.79,0.721l-5.734,1.497c-0.922,0.24-1.168,1.434-0.416,2.019l4.676,3.64     C306.108,449.012,306.273,449.377,306.251,449.754z"/>
			<path style="fill:#FFFFFF;" d="M305.398,424.729c0.732-0.416,0.669-1.49-0.106-1.818l-4.823-2.037     c-0.309-0.13-0.533-0.403-0.6-0.73l-0.924-4.487l-0.132-0.641c-0.171-0.824-1.211-1.096-1.762-0.46l-0.955,1.101l-2.473,2.856     c-0.219,0.253-0.548,0.381-0.88,0.344l-5.203-0.581c-0.406-0.045-0.746,0.15-0.944,0.44c2.489,2.787,4.518,5.662,5.948,8.513     c0.515,1.028,1.007,2.052,1.487,3.076c0.103,0.044,0.21,0.083,0.294,0.16l3.869,3.528c0.622,0.567,1.623,0.175,1.695-0.663     l0.448-5.216c0.028-0.333,0.219-0.63,0.509-0.796L305.398,424.729z"/>
		</g>
		<g>
			<path style="fill:#007AF4;" d="M100.021,276.923c6.084-16.947,13.6-24.272,20.67-52.859c8.021-32.431,3.573-34.685,10.273-59.232     c21.192-77.645,109.133-112.104,175.107-67.328c28.144,19.101,45.852,49.872,50.883,83.148     c1.401,9.269,2.095,30.052,11.803,57.845c0.923,2.645,0.353,2.838-0.897,3.128c-3.744,0.867-10.049,0.991-17.213,7.657     c-9.764,9.086-14.776,23.439-16.135,36.132c-1.253,11.702-1.618,31.241-19.789,46.922c-2.953,2.548-9.259,6.848-12.455,7.897     c-3.21,1.054-2.173-0.845-7.223-7.235c-2.594-3.282,1.628-4.543,5.831-21.536c8.116-32.811,1.731-70.299-19.718-96.069     c-3.754-4.511,5.582-11.177-1.879-27.567c-1.143-2.51-0.475-4.032,0.489-6.596c1.132-3.012,2.262-6.023,3.332-9.058     c1.949-5.527,4.693-15.75,2.811-21.728c-3.796-12.05-21.136,2.069-29.603,11.449c-0.927,1.026-1.946,1.337-3.313,0.962     c-7.804-2.136-12.694-1.896-19.945-0.383c-2.118,0.442-2.943,1.356-5.454-1.002c-8.349-7.84-13.74-12.635-21.162-15.132     c-3.085-1.038-6.988,0.334-8.167,4.378c-3.57,12.242,9.167,33.552,7.241,36.865c-4.372,7.522-3.526,16.205-1.09,24.168     c0.604,1.976-0.269,3.214-1.446,4.808c-3.73,5.049-7.486,9.818-10.33,15.47c-5.977,11.878-8.997,25.124-10.862,38.213     c-0.281,1.971-0.533,3.946-0.759,5.924c-0.421,3.677-0.561,0.982-11.774,5.276c-22.548,8.632-32.627,31.011-30.601,43.612     c1.823,11.343,4.764,25.143-0.93,35.746c-4.68,8.714-13.699,13.472-23.33,14.424c-1.183,0.117-1.97-0.173-2.572-1.106     C90.853,341.616,86.157,315.541,100.021,276.923z"/>
			<path style="fill:#007AF4;" d="M132.709,396.998c-4.385-3.628,5.233-2.805,15.948-11.534c7.021-5.72,5.354-6.856,9.041-5.034     c66.869,33.036,94.865,3.795,128.751,36.959c2.27,2.221,3.895,4.92,5.668,7.502c1.028,1.496,0.711,2.233-1.032,2.638     C234.965,440.584,175.736,432.587,132.709,396.998z"/>
		</g>
		<g style="opacity:0.25;">
			<path style="fill:#000E3F;" d="M350.2,249.106c-9.085-18.865-9.463-17.145-13.497-46.462c-0.574-4.169-2.547-25.135-9.466-41.52     c-18.545-43.919-61.188-65.756-95.328-60.371c-11.165,1.761-21.834,5.058-31.6,10.949c-6.069,3.66-11.927,7.602-17.155,12.403     c-15.501,14.232-26.71,34.714-30.465,51.049c-3.947,17.175-2.203,7.628-6.783,42.805c-3.101,23.815-18.191,41.342-25.472,62.709     c-5.178,15.194-8.303,32.81-5.629,48.335c1.456,8.451,3.705,14.542,7.26,20.198c3.097,5.093,7.346,10.198,13.319,15.768     c0.056,0.052,0.094,0.07,0.146,0.115c0.599,0.586,1.008,0.698,1.449,0.376c0.023-0.016,0.046-0.017,0.068-0.035     c0.129-0.107,0.271-0.277,0.415-0.459c0.03-0.038,0.055-0.053,0.086-0.095c0.007-0.009,0.012-0.018,0.019-0.027     c0.019-0.026,0.035-0.036,0.055-0.063c0.128-0.177,0.243-0.358,0.364-0.538c1.428-2.066,2.43-4.285,2.876-6.706     c0.02-0.109,0.03-0.221,0.049-0.33c0.052-0.319,0.104-0.639,0.136-0.965c0.026-0.254,0.033-0.514,0.047-0.772     c0.01-0.182,0.03-0.359,0.033-0.544c0.001-0.035,0.002-0.072,0.002-0.107c0-0.004,0.001-0.008,0.001-0.013     c0.001-0.043,0.002-0.09,0.002-0.134c0.025-1.295,0.052-2.613,0.074-3.941c0.1-4.753,0.157-9.859-0.622-14.264     c-0.01-0.07-0.022-0.14-0.033-0.21c-0.015-0.083-0.024-0.17-0.039-0.252c-0.043-0.226-0.09-0.484-0.136-0.729     c-0.074-0.427-0.142-0.857-0.229-1.279c-0.46-2.662-0.916-5.949-0.887-8.53c0.018-0.223,0.007-0.447,0.035-0.67     c0.449-3.572,0.74-5.766,0.942-7.153c0.16-0.897,0.335-1.758,0.518-2.598c0.119-0.277,0.254-0.553,0.609-2.507     c2.772-10.418,7.778-16.445,16.66-23.038c5.775-4.287,12.289-7.799,19.387-9.243c8.76-1.783,0.174-1.973,8.83-30.808     c3.189-10.625,1.902-7.542,11.763-23.225c2.329-3.704,4.144-8.193,7.61-10.996c0.76-0.614,0.888-1.399,0.543-2.411     c-0.536-1.57-2.693-8.037-2.955-10.67c-0.951-9.54,4.128-11.314,3.407-18.866c-0.351-3.675-0.269-2.985-2.179-8.038     c-2.059-5.446-5.809-18.029-4.2-23.594c1.162-4.019,4.894-5.432,8.429-3.23c8.56,5.331,6.328,3.255,13.495,10.352     c11.094,10.987,9.861-0.947,30.86,5.28c3.225,0.956,3.133-0.27,13.675-10.703c2.43-2.405,5.457-4.412,8.709-5.503     c2.458-0.825,7.17-1.753,8.492,1.302c0.793,1.833,0.725,14.672-5.723,30.478c-3.418,8.378,3.278,9.867,3.142,20.287     c-0.055,4.234-1.398,8.142-2.638,12.07c-0.534,1.692,0.779,2.748,1.673,4.036c0.613,0.884,3.03,3.342,3.03,4.369     c10.344,14.912,14.575,21.671,18.257,39.937c2.5,12.407,3.589,25.794,1.326,38.403c-0.033,0.108-0.057,0.234-0.078,0.362     c-0.243,1.315-0.529,2.62-0.848,3.915c-0.477,1.672-0.998,3.335-1.24,5.053c-0.025,0.178-0.049,0.357-0.065,0.537     c-0.063,0.619-0.098,1.244-0.059,1.884c0.006,0.102-0.03,0.306-0.094,0.576c-0.091,0.311-0.206,0.623-0.297,0.925     c-0.261,0.872-0.516,1.667-0.768,2.432c-0.776,2.197-1.883,5.074-3.149,8.086c-0.476,1.08-0.929,2.099-1.357,3.133     c-0.172,0.385-0.344,0.769-0.518,1.151c-0.524,1.146-0.82,2.324-1.111,3.503c-0.139,0.492-0.275,1-0.407,1.542     c-0.007,0.028-0.007,0.05-0.013,0.077c0,0,0,0,0,0.001c-0.001,0.003,0,0.005-0.001,0.007c-0.022,0.106-0.042,0.21-0.049,0.303     c-0.006,0.067-0.003,0.131,0.002,0.194c0.003,0.073,0.012,0.142,0.025,0.208c0.001,0.005,0.002,0.011,0.004,0.016     c0.092,0.408,0.381,0.691,0.816,1.024c0.888,0.751,2.331,1.713,3.706,3.953c0.025,0.041,0.049,0.08,0.074,0.122     c0.104,0.173,0.205,0.366,0.307,0.554c0.14,0.263,0.279,0.525,0.39,0.768c0.016,0.034,0.032,0.069,0.048,0.104     c0.443,0.989,0.678,1.79,0.948,2.332c0.408,0.933,0.902,0.985,2.118,0.462c0.015-0.007,0.024-0.007,0.039-0.014     c0.218-0.096,0.407-0.18,0.616-0.272c5.02-2.211,7.434-3.282,8.991-4.123c0.008-0.004,0.016-0.009,0.024-0.013     c0.016-0.009,0.034-0.018,0.05-0.027c1.063-0.566,1.556-0.935,2.271-1.485c0.028-0.022,0.055-0.041,0.083-0.063     c0.09-0.069,0.169-0.15,0.258-0.22c0.861-0.675,1.725-1.405,2.589-2.208c0.727-0.67,1.412-1.379,2.093-2.093     c0.189-0.199,0.379-0.376,0.567-0.58c0.822-0.891,1.604-1.816,2.36-2.764c0.099-0.124,0.2-0.236,0.299-0.361     c0.658-0.84,1.282-1.707,1.892-2.586c0.268-0.381,0.541-0.744,0.805-1.138c0.231-0.349,0.442-0.711,0.666-1.065     c2.406-3.745,4.605-8.032,6.447-12.849c0.129-0.322,0.271-0.641,0.396-0.964c0.418-1.081,0.699-1.838,0.828-2.425     c0.053-0.162,0.118-0.31,0.171-0.473c3.424-10.631,1.811-10.645,1.868-12.793c0.52-19.711,9.055-36.936,14.87-41.521     C350.918,250.811,350.939,250.641,350.2,249.106z"/>
			<path style="fill:#000E3F;" d="M263.269,341.447c-2.21-3.178-4.627-7.136-6.54-11.578c-0.651-1.505-1.003-1.784-2.602-1.282     c-3.345,1.059-6.857,0.985-10.276,1.598c-1.505,0.279-2.732,0.056-12.32-1.487c-2.955-0.483-1.542,0.056-4.516,5.538     c-13.491,24.901-34.898,34.174-40.752,28.99c-1.84-1.636-3.29-3.642-4.294-5.928c-1.71-3.884,4.163-13.38,5.594-17.022     c2.658-6.708,5.947-5.853,5.185-8.418c-1.542-5.259-8.4-19.252-8.121-22.02c0.223-2.007-0.52-3.735-1.022-5.556     c-0.427-1.45-0.743-1.598-2.193-1.171c-6.653,1.914-11.744,5.91-15.443,11.745c-5.835,9.273,7.396,30.365-6.69,56.027     c-2.043,3.735-6.801,7.601-2.025,10.147c0.279,0.148,0.539,0.297,0.818,0.427c34.137,17.877,65.319,17.765,71.934,18.36     c3.865,0.335,4.33-1.319,5.055-4.237c0.037-0.112,0.055-0.205,0.075-0.297c4.46-17.45,4.701-17.561,12.506-28.005     c4.813-6.448,13.157-12.376,20.014-15.536c1.617-0.743,2.899-1.115,1.97-2.304C269.383,349.14,266.54,346.148,263.269,341.447z"/>
		</g>
		<g>
			<path style="fill:#00328D;" d="M267.656,351.742c-6.857,3.159-15.201,9.087-20.014,15.535     c-7.805,10.443-8.047,10.555-12.506,28.005c-0.019,0.092-0.037,0.186-0.074,0.297c-0.725,2.917-1.19,4.571-5.055,4.237     c-6.616-0.595-37.797-0.483-71.934-18.36c-0.279-0.13-0.539-0.279-0.818-0.427c-4.775-2.546-0.018-6.411,2.025-10.147     c14.086-25.663,0.855-46.755,6.69-56.027c3.698-5.835,8.79-9.831,15.443-11.745c1.45-0.427,1.766-0.279,2.193,1.171     c0.502,1.821,1.245,3.549,1.022,5.556c-0.279,2.769,6.579,16.762,8.121,22.02c0.762,2.565-2.527,1.71-5.185,8.418     c-1.431,3.642-7.303,13.138-5.594,17.022c1.003,2.286,2.453,4.292,4.294,5.928c5.853,5.185,27.261-4.089,40.752-28.989     c2.973-5.482,1.561-6.021,4.516-5.538c9.588,1.543,10.815,1.765,12.32,1.487c3.419-0.613,6.931-0.539,10.276-1.598     c1.599-0.502,1.952-0.223,2.602,1.282c1.913,4.442,4.33,8.4,6.54,11.578c3.271,4.701,6.114,7.693,6.356,7.991     C270.555,350.627,269.272,350.998,267.656,351.742z"/>
			<path style="fill:#00328D;" d="M306.581,298.132c7.636,1.776,15.252,3.637,22.753,5.929c3.958,1.21,3.924,1.247,2.45,5.062     c-3.945,10.21-9.641,20.076-18.372,26.828c-2.038,1.576-3.223,2.101-11.989,5.962c-1.436,0.632-1.894,0.521-2.351-0.802     c-2.584-7.485-6.745-7.005-6.122-9.208c0.485-1.713,0.767-3.452,1.531-5.123c3.333-7.294,6.239-15.392,6.183-16.302     c-0.24-3.908,1.737-7.376,2.168-11.151C303.018,297.717,303.741,297.472,306.581,298.132z"/>
			<path style="fill:#00328D;" d="M115.076,323.789c4.987-3.812,21.912-12.255,25.337-13.137c0.557-0.143,1.217,0.352,1.122,0.908     c-1.207,7.088-0.389-1.501-2.241,13.237c-0.381,3.032,0.202,6.092,0.819,9.012c1.435,6.796,1.14,14.261,1.014,21.117     c-0.068,3.722-1.381,6.993-3.579,9.945c-0.738,0.991-1.172,1.023-2.165,0.097c-14.581-13.597-19.009-24.428-21.019-39.063     C114.348,325.794,114.35,324.344,115.076,323.789z"/>
		</g>
		<path style="fill:#FFFFFF;" d="M127.786,372.755c9.535-5.182,14.698-15.36,14.717-25.917c0.016-8.994-3.001-17.798-2.216-26.817    c0.599-6.885,3.146-13.791,6.886-19.581c7.389-11.439,19.833-18.233,33.032-20.573c2.311-0.41,2.475-0.616,2.525-2.776    c0.444-18.958,7.162-42.082,20.873-59.34c2.238-2.818,3.747-3.248,2.954-4.844c-3.705-7.452-1.617-6.561,8.054-6.282    c1.09,0.032,0.645-1.156,0.121-1.23c-8.739-1.24-11.361,2.071-10.926-4.646c0.125-1.93,0.564-2.252,2.572-1.982    c5.774,0.775,10.442,3.283,10.977,2.465c0.922-1.409-6.273-2.873-10.216-3.872c-2.928-0.742-3.218-1.258-2.411-4.24    c1.516-5.602,3.717-5.808,2.347-9.093c-17.219-41.271-4.601-44.747,16.891-24.002c3.614,3.488,4.298,5.115,6.982,4.398    c9.055-2.419,15.538-1.182,18.614-0.834c3.511,0.397,5.051,1.99,7.211-0.389c3.221-3.548,10.595-10.13,16.226-13.563    c7.676-4.679,11.497-1.928,11.702,2.154c0.19,3.798,0.308,7.607-0.591,11.39c-4.558,19.164-8.715,21.074-6.672,24.242    c1.449,2.247,2.472,4.881,2.562,7.552c0.061,1.791-1.713,1.902-2.904,2.162c-2.068,0.452-8.511,2.008-10.105,3.419    c-0.136,0.12-0.004,0.827,0.261,0.769c3.205-0.702,5.483-1.99,10.364-2.807c2.703-0.452,3.172-0.283,3.121,3.035    c-0.092,5.99-3.35,1.272-10.547,3.673c-0.864,0.288-0.423,1.051,0.118,1.056c2.019,0.018,4.04,0.062,6.057-0.013    c2.856-0.106,4.211,0.538,2.86,4.078c-0.716,1.877-2.196,2.714,0.992,6.101c23.054,24.495,30.506,77.411,12.678,113.127    c-1.782,3.57,1.704,3.299,4.805,9.946c2.133,4.574-3.783,2.442-23.411,9.927c-3.133,1.195-3.265,1.252-5.407-1.361    c-13.253-16.169-6.655-19.423-13.436-18.938c-2.718,0.194-1.075,1.002-12.278,1.827c-7.819,0.576-15.31-3.997-16.422-0.638    c-4.33,13.075-12.286,23.426-25.082,31.398c-3.682,2.294-7.721,3.496-12.166,3.214c-12.619-0.798-5.232-22.19,3.173-31.86    c0.806-0.928,0.735-1.72,0.253-2.74c-10.353-21.923-6.489-27.957-10.847-26.645c-13.474,4.055-19.79,15.273-18.734,25.758    c1.547,15.356,1.69,18.198,1.105,21.1c-0.981,4.865,0.518,13.409-7.998,24.877c-21.789,29.34-61.303,19.803-60.612,7.409    c0.226-4.044,4.576-5.975,8.417-6.072C106.048,376.73,118.185,377.973,127.786,372.755z"/>
		<g>
			<path style="fill:#FF8EDE;" d="M221.055,325.714c-5.028-3.189-13.183-13.866-14.025-28.347c-0.072-1.229-0.103-2.471,0.235-3.681     c0.126-0.45,0.754-0.687,1.06-0.372c0.547,0.562,1.032,1.186,1.594,1.732c4.946,4.8,13.197,5.291,18.526,0.015     c2.092-2.071,0.939-1.787,2.235-4.044c6.826-11.893-12.853-29.047-8.937-35.445c2.545-4.156,5.425-8.079,9.682-10.575     c7.275-4.265,14.729-4.213,22.087-0.112c4.463,2.487,7.267,6.567,9.9,10.771c1.285,2.052-1.526,8.076-2.318,9.919     c-3.291,7.668-10.874,18.602-5.909,26.967c4.763,8.025,15.397,7.658,21.262,1.201c0.347-0.383,0.632-1.174,1.203-0.895     c0.344,0.168,0.353,0.988,0.548,1.502c0.593,1.559,0.038,3.086-0.027,4.638c-0.316,7.569-4.43,18.488-11.92,25.285     c-3.455,3.136-7.79,4.842-12.242,6.125C243.595,333.397,231.519,332.352,221.055,325.714z"/>
			<path style="fill:#FF8EDE;" d="M286.48,159.594c-0.037,0.205-0.074,0.409-0.111,0.613c-1.041,5.649-2.731,11.075-4.961,16.372     c-3.345,7.99-2.342,4.887-2.899,8.845c-0.204,1.487-1.189,1.895-2.323,0.892c-11.781-10.406-9.737-22.151-0.149-32.316     c1.97-2.118,4.275-4.144,6.839-6.095c0.651-0.502,1.19-0.353,1.691,0.39C286.815,151.79,287.168,155.599,286.48,159.594z"/>
			<path style="fill:#FF8EDE;" d="M207.707,187.134c-0.557,0.464-1.505,0.056-1.523-0.669c-0.056-4.014-5.816-13.268-7.898-23.786     c-0.092-0.484-0.223-1.245-0.335-2.193c-0.408-3.178-0.651-8.362,1.208-11.206c0.911-1.375,1.413-1.524,2.677-0.558     c2.341,1.785,4.441,3.643,6.263,5.557C218.058,164.705,220.009,176.876,207.707,187.134z"/>
		</g>
		<g>
			<path style="fill:#FC09B2;" d="M207.707,187.134c-0.557,0.464-1.505,0.056-1.523-0.669c-0.056-4.014-5.816-13.268-7.898-23.786     c-0.092-0.484-0.223-1.245-0.335-2.193c0.168-0.279,0.539-0.427,0.929-0.316c0.892,0.26,1.766,0.594,2.64,0.948     c0.426,0.167,0.836,0.409,1.245,0.65c2.954,1.71,3.233,1.598,3.493-1.988c0.111-1.561,0.408-3.029,0.947-4.46     c0.205-0.595,0.521-0.948,0.893-1.04C218.058,164.705,220.009,176.876,207.707,187.134z"/>
			<path style="fill:#FC09B2;" d="M286.368,160.208c-1.041,5.649-2.731,11.075-4.961,16.372c-3.345,7.99-2.342,4.887-2.899,8.845     c-0.204,1.487-1.189,1.895-2.323,0.892c-11.781-10.406-9.737-22.151-0.149-32.316c0.335,0.167,0.651,0.558,0.911,1.134     c0.929,2.1,1.189,4.311,1.189,6.579c-0.018,1.263,0.447,1.505,1.468,0.929c1.209-0.725,2.416-1.487,3.661-2.137     c0.631-0.334,1.338-0.502,2.025-0.65C285.755,159.743,286.164,159.892,286.368,160.208z"/>
			<path style="fill:#FC09B2;" d="M244.761,204.528c-0.353,0.186-0.687,0.335-1.04,0.428c-0.966,0.334-1.933,0.316-2.862,0.037     c-1.468-0.446-2.862-1.523-4.032-2.899c-4.535-5.315,3.66-11.224,10.034-6.987C250.856,197.782,248.849,202.205,244.761,204.528z     "/>
		</g>
		<g style="opacity:0.25;">
			<path style="fill:#000E3F;" d="M118.334,394.522c-7.843,0.677-19.979-2.973-22.26-9.662c-0.854-2.505,2.948-2.302,5.529-1.729     c12.348,2.743,19.202,5.45,31.26,0.481c10.113-4.168,14.951-9.063,18.617-14.391c8.205-11.927,1.038-35.925,11.576-48.724     c0.219-0.266,0.759-0.361,0.919,0.325c0.271,1.161-1.607,2.403-0.151,14.014c0.252,2.008,0.899,9.47,0.803,13.065     c-0.342,12.783-2.549,21.365-10.691,30.7c-6.065,6.954-13.665,11.526-22.42,14.285     C127.293,394.216,122.989,394.802,118.334,394.522z"/>
			<path style="fill:#000E3F;" d="M185.842,361.922c6.726-10.42,17.161-9.292,24.451-19.473c6.386-8.919,1.506-19.557,4.495-21.157     c1.204-0.645,2.124,0.371,2.895,1.131c3.022,2.981,6.069,4.291,7.675,5.43c1.499,1.063,1.583,1.313,1.121,3.086     c-3.159,12.116-16.658,28.746-30.646,33.356C192.14,365.513,183.64,365.333,185.842,361.922z"/>
			<path style="fill:#000E3F;" d="M262.862,299.352c-3.652-0.451-4.473-1.766-3.177-5.162c3.886-10.189,18.776-11.138,22.17-36.71     c0.763-5.747,1.549-10.837,4.291-14.301c1.729-2.184,3.562-1.468,3.117,1.387c-1.704,10.927,0.074,26.32-9.22,42.566     c-2.202,3.849-4.886,7.217-8.625,9.701C268.524,298.755,264.75,299.585,262.862,299.352z"/>
			<path style="fill:#000E3F;" d="M197.561,263.585c-0.546-5.01-1.005-10.023-1.328-15.051c-0.166-2.58-1.005-4.048-0.34-5.629     c0.211-0.502,0.911-0.78,1.398-0.531c3.308,1.688,4.578,7.612,5.24,11.238c1.938,10.611,2.533,21.248,16.026,32.144     c5.987,4.835,6.95,7.595,7.641,10.339c0.3,1.191-0.049,1.965-1.079,2.538C216.423,303.471,200.393,289.57,197.561,263.585z"/>
			<path style="fill:#000E3F;" d="M228.277,234.33c-1.374-0.852-12.581-9.582-9.969-11.975c1.332-1.22,1.583,1.263,15.597,4.512     c15.367,3.563,30.118-4.663,31.897-5.142c1.807-0.486,0.566,2.163,0.249,2.797C261.715,233.194,245.097,244.768,228.277,234.33z"/>
			<path style="fill:#000E3F;" d="M280.022,346.91c-0.523,0.584,0.786,0.079-7.662,3.223c-0.826,0.307-1.569,0.078-2.125-0.581     c-4.623-5.479-8.731-10.858-10.894-18.343c-0.636-2.201-0.603-2.55,1.167-3.641c8.325-5.134,7.939-6.179,9.522-6.848     c2.884-1.218,1.521,8.147,2.161,13.033C273.491,343.671,280.277,345.69,280.022,346.91z"/>
			<path style="fill:#000E3F;" d="M267.656,351.742c-6.857,3.159-15.201,9.087-20.014,15.535     c-7.805,10.443-8.047,10.555-12.506,28.005c-0.738,3.587-1.613,4.838-5.129,4.534c-6.616-0.595-37.797-0.483-71.934-18.36     c7.489,1.747,17.841,2.534,45.715-2.483c13.139-2.36,23.889-10.209,31.042-20.746c9.267-13.653,15.688-15.774,28.441-16.779     C269.965,351.071,271.99,349.749,267.656,351.742z"/>
		</g>
		<path style="opacity:0.5;fill:#FFFFFF;" d="M135.556,179.622c6.596-39.241,34.143-73.907,61.249-86.34    c8.595-3.942,13.253,0.901,10.374,4.928c-11.963,7.531-36.97,22.487-54.137,51.613c-9.767,16.571-12.745,30.263-14.241,32.231    c-0.957,1.259-2.546,0.825-2.92-0.42C135.691,181.002,135.662,180.321,135.556,179.622z"/>
		<g style="opacity:0.5;">
			<path style="fill:#FD8A02;" d="M335.141,509.8c-12.1,0.239-23.143-4.682-32.132-12.632c-1.57-1.389-2.225-3.055-1.756-5.385     c4.445-22.098,1.902-43.705-8.788-64.705c-6.632-13.029-25.369-26.6-47.625-29.024c-2.216-0.241-6.672-0.052-7.404-0.123     c-1.064-0.102-2.347,0.388-3.029-0.869c-0.533-0.984,0.106-3.447,1.167-4.316c4.15-3.402,11.102-5.471,16.438-6.516     c12.789-2.504,28.021,0.42,44.29,13.353c13.699,10.891,23.194,45.082,40.425,50.252c16.549,4.965,24.592-16.417,32.142-24.877     c9.203-10.312,22.959-20.62,36.615-18.433c15.982,2.559,23.233,6.036,34.998,5.427c1.436-0.074,2.912-0.203,4.252,0.654     c1.177,0.753,1.454,1.059,1.21,2.438c-7.991,45.086-43.363,34.972-61.995,47.727c-8.945,6.123-15.621,17.187-19.417,26.54     c-4.224,10.408-10.353,16.763-22.36,19.965C339.853,509.894,337.495,509.753,335.141,509.8z"/>
			<path style="fill:#FD8A02;" d="M334.793,325.062c-0.342-5.01,11.558,0.116,21.031,17.605     c11.49,21.214,12.734,47.516,9.535,58.321c-1.821,6.151-8.306,16.026-15.202,8.761c-3.515-3.704-2.19-9.255-2.071-13.833     C349.299,349.496,335.836,341.112,334.793,325.062z"/>
		</g>
	</g>
	<g>
		<path style="fill:#FD8A02;" d="M380.989,62.725c3.129-1.431,5.754-2.779,8.068-2.919c2.296-0.139,3.269,2.865,1.51,4.029    c-2.878,1.906-8.345,3.2-8.317,4.091c0.027,0.878,1.208,0.896,1.944,1.16c4.095,1.468,6.712,2.024,9.22,3.47    c1.903,1.097,0.473,4.332-1.434,4.136c-1.84-0.19-3.679-1.062-12.535-3.964c-2.935-0.962-1.536,2.14-0.533,6.048    c0.569,2.218,0.432,5.292-1.837,5.509c-1.872,0.179-2.366-1.588-2.889-3.406c-2.753-9.574-1.174-9.215-8.042,0.789    c-1.262,1.837-2.972,3.988-4.78,2.569c-1.844-1.447-0.153-3.514,2.571-7.93c0.358-0.58,0.91-1.051,1.219-1.651    c0.681-1.328,1.854-2.384,2.159-3.915c-1.639-0.831-3.076,0.362-4.621,0.495c-2.477,0.213-4.101,1.669-6.378,0.328    c-0.887-0.522-1.154-1.702-0.488-2.462c3.25-3.709,10.746-2.231,7.402-5.437c-4.323-4.141-5.475-4.94-6.911-7.015    c-1.355-1.958,0.713-4.108,2.761-2.933c3.397,1.949,8.317,7.669,9.243,7.201c0.965-0.489-2.596-8.958-1.817-11.505    c0.563-1.841,2.424-2.115,3.474-0.796c1.597,2.006,1.599,3.285,3.411,9.631c0.141,0.493,0.217,1.167,0.905,1.16    c0.616-0.006,0.868-0.604,1.112-1.077c1.234-2.39,3.935-7.817,4.099-8.053c1.542-2.222,5.386-0.518,4.129,2.189    c-4.365,9.409-6.514,11.562-2.679,10.181C380.966,62.673,380.977,62.699,380.989,62.725z"/>
		<path style="fill:#FD8A02;" d="M65.695,199.193c-0.56,3.395-0.907,6.325-2.083,8.323c-1.167,1.982-4.202,1.113-4.186-0.996    c0.025-3.452,2.004-8.71,1.249-9.184c-0.744-0.467-1.418,0.502-2.048,0.965c-3.504,2.578-5.427,4.439-8.026,5.712    c-1.973,0.967-3.858-2.026-2.631-3.499c1.185-1.421,2.935-2.46,10.287-8.187c2.436-1.898-0.918-2.469-4.719-3.819    c-2.157-0.766-4.632-2.596-3.545-4.599c0.897-1.653,2.639-1.076,4.439-0.495c9.48,3.061,8.301,4.171,3.835-7.112    c-0.82-2.072-1.649-4.693,0.537-5.4c2.23-0.722,3.001,1.835,5.144,6.56c0.282,0.621,0.363,1.342,0.69,1.933    c0.721,1.306,0.943,2.869,2.043,3.977c1.605-0.896,1.416-2.754,2.169-4.11c1.206-2.174,0.905-4.334,3.289-5.475    c0.928-0.444,2.056-0.007,2.315,0.969c1.263,4.767-4.148,10.161,0.378,9.176c5.849-1.274,7.155-1.784,9.679-1.817    c2.381-0.031,3.011,2.885,0.892,3.928c-3.513,1.73-11.006,2.619-11.134,3.648c-0.133,1.074,8.881,2.847,10.559,4.915    c1.213,1.495,0.402,3.192-1.279,3.327c-2.555,0.205-3.618-0.507-9.894-2.547c-0.488-0.159-1.089-0.472-1.468,0.103    c-0.338,0.514,0.017,1.058,0.272,1.524c1.294,2.358,4.289,7.63,4.393,7.897c0.982,2.52-2.577,4.758-4.121,2.204    c-5.368-8.874-5.955-11.859-6.951-7.907C65.751,199.202,65.723,199.198,65.695,199.193z"/>
		<path style="fill:#FD8A02;" d="M160.849,479.478c-0.56,3.395-0.907,6.325-2.083,8.324c-1.167,1.982-4.202,1.113-4.186-0.996    c0.025-3.452,2.004-8.71,1.249-9.184c-0.744-0.467-1.418,0.502-2.048,0.965c-3.504,2.578-5.427,4.439-8.026,5.712    c-1.973,0.967-3.858-2.026-2.631-3.499c1.185-1.421,2.935-2.46,10.287-8.187c2.436-1.898-0.918-2.469-4.719-3.819    c-2.157-0.766-4.632-2.596-3.545-4.599c0.897-1.653,2.639-1.076,4.439-0.495c9.48,3.061,8.301,4.171,3.835-7.112    c-0.82-2.073-1.649-4.693,0.537-5.4c2.23-0.722,3.001,1.835,5.144,6.56c0.282,0.621,0.363,1.342,0.69,1.933    c0.721,1.306,0.943,2.869,2.043,3.977c1.605-0.896,1.416-2.754,2.169-4.11c1.206-2.174,0.905-4.334,3.289-5.475    c0.928-0.444,2.056-0.007,2.315,0.969c1.263,4.767-4.148,10.161,0.378,9.176c5.849-1.274,7.155-1.784,9.679-1.818    c2.381-0.031,3.01,2.885,0.892,3.928c-3.513,1.73-11.006,2.619-11.134,3.648c-0.133,1.074,8.881,2.847,10.559,4.915    c1.213,1.495,0.402,3.192-1.279,3.327c-2.555,0.205-3.618-0.507-9.894-2.547c-0.488-0.159-1.089-0.472-1.468,0.103    c-0.339,0.514,0.017,1.058,0.272,1.524c1.294,2.358,4.289,7.63,4.393,7.897c0.982,2.52-2.577,4.758-4.122,2.204    c-5.368-8.875-5.955-11.859-6.951-7.907C160.904,479.487,160.876,479.482,160.849,479.478z"/>
		<path style="fill:#FD8A02;" d="M129.827,70.587c3.721,0.618,8.656,1.092,7.966,3.889c-0.481,1.949-2.306,1.534-4.499,1.134    c-1.256-0.229-4.736-1.256-5.053-0.751c-0.434,0.69,0.19,0.707,4.22,6.2c1.179,1.608,2.474,3.502,0.758,4.511    c-2.343,1.377-2.38,0.174-9.244-8.657c-1.614-2.076-2.103,0.779-3.256,4.014c-0.654,1.836-2.214,3.94-3.919,3.013    c-1.41-0.767-0.911-2.256-0.417-3.779c2.614-8.067,3.559-7.062-6.051-3.271c-1.765,0.696-3.996,1.399-4.596-0.462    c-1.036-3.215,8.606-4.695,10.623-6.693c-0.761-1.367-2.343-1.208-3.497-1.85c-1.849-1.029-3.687-0.771-4.658-2.805    c-1.011-2.119,1.996-2.54,4.279-1.837c5.884,1.813,4.824,2.354,3.07-6.256c-0.35-1.724-0.622-3.888,1.087-4.238    c1.841-0.377,2.403,1.696,2.95,3.679c2.425,8.799,1.505,9.563,5.065-0.079c1.572-4.257,5.589-3.118,3.617,2.48    c-2.93,8.316-2.911,7.47,4.904,3.106c0.735-0.41,2.964-2.147,4.152,0.267c0.437,0.889,0.218,1.821-0.752,2.406    c-7.553,4.557-10.105,5.054-6.738,5.91C129.834,70.539,129.83,70.563,129.827,70.587z"/>
		<path style="fill:#FD8A02;" d="M420.959,195.908c3.721,0.618,8.656,1.092,7.966,3.889c-0.481,1.949-2.306,1.534-4.499,1.134    c-1.256-0.23-4.736-1.256-5.053-0.752c-0.435,0.69,0.189,0.707,4.22,6.2c1.179,1.608,2.474,3.502,0.758,4.511    c-2.343,1.378-2.38,0.174-9.245-8.657c-1.614-2.076-2.103,0.779-3.256,4.014c-0.654,1.836-2.214,3.94-3.919,3.013    c-1.41-0.767-0.911-2.256-0.417-3.779c2.614-8.067,3.559-7.062-6.051-3.271c-1.765,0.696-3.996,1.4-4.596-0.462    c-1.037-3.215,8.606-4.694,10.623-6.693c-0.761-1.367-2.343-1.208-3.497-1.851c-1.85-1.029-3.687-0.771-4.658-2.805    c-1.011-2.119,1.996-2.54,4.279-1.837c5.884,1.813,4.824,2.354,3.07-6.256c-0.351-1.724-0.622-3.888,1.087-4.238    c1.841-0.377,2.403,1.696,2.95,3.678c2.425,8.799,1.505,9.563,5.065-0.078c1.571-4.258,5.589-3.118,3.617,2.48    c-2.93,8.316-2.911,7.47,4.904,3.106c0.735-0.41,2.964-2.147,4.152,0.267c0.437,0.889,0.218,1.821-0.752,2.406    c-7.553,4.557-10.105,5.054-6.738,5.91C420.967,195.861,420.963,195.884,420.959,195.908z"/>
		<path style="fill:#FD8A02;" d="M472.194,341.419c3.379,0.65,6.299,1.073,8.266,2.302c1.951,1.219,1.002,4.23-1.107,4.158    c-3.448-0.116-8.655-2.232-9.148-1.491c-0.487,0.731,0.464,1.43,0.911,2.072c2.485,3.57,4.294,5.542,5.498,8.174    c0.914,1.998-2.127,3.804-3.567,2.538c-1.388-1.22-2.369-2.983-7.913-10.499c-1.833-2.485-2.493,0.853-3.942,4.617    c-0.823,2.137-2.717,4.561-4.691,3.422c-1.633-0.942-1.003-2.676-0.378-4.45c3.31-9.395,4.389-8.188-7.009-4.021    c-2.093,0.765-4.734,1.525-5.384-0.679c-0.68-2.309,2.123-3.04,6.694-4.969c0.629-0.265,1.351-0.328,1.95-0.639    c1.325-0.686,2.893-0.867,4.03-1.937c-0.853-1.628-2.716-1.488-4.052-2.277c-2.141-1.263-4.308-1.02-5.386-3.432    c-0.419-0.939,0.047-2.055,1.03-2.288c4.794-1.135,10.049,4.416,9.183-0.136c-1.333-7-2.788-11.296,0.06-11.804    c2.173-0.388,2.771,2.063,3.355,4.407c2.593,10.429,1.462,11.329,5.95,0.058c1.912-4.803,6.706-3.624,4.174,3.019    c-3.69,9.689-3.629,8.679,5.667,3.793c0.604-0.318,1.182-0.71,1.819-0.939c2.543-0.915,4.691,2.7,2.095,4.178    c-8.977,5.113-12.036,5.628-8.087,6.74C472.204,341.364,472.199,341.392,472.194,341.419z"/>
		<path style="fill:#FD8A02;" d="M52.529,328.823c2.718-1.127,5.003-2.2,6.985-2.249c1.967-0.049,2.707,2.548,1.168,3.49    c-2.516,1.54-7.23,2.481-7.234,3.243c-0.003,0.751,1.005,0.803,1.626,1.051c3.456,1.379,5.676,1.935,7.774,3.247    c1.593,0.996,0.272,3.717-1.352,3.491c-1.565-0.218-3.096-1.014-10.593-3.77c-2.479-0.911-1.378,1.782-0.641,5.153    c0.419,1.913,0.208,4.536-1.738,4.652c-1.609,0.096-1.976-1.439-2.365-2.999c-2.06-8.266-0.721-7.912-6.897,0.43    c-1.134,1.532-2.662,3.318-4.164,2.05c-1.573-1.328,0.084-3.17,2.439-6.7c0.324-0.485,0.81-0.871,1.092-1.374    c0.623-1.114,1.658-1.981,1.965-3.281c-1.376-0.761-2.64,0.216-3.965,0.282c-2.123,0.106-3.556,1.301-5.462,0.086    c-0.742-0.473-0.934-1.49-0.342-2.119c2.888-3.068,9.254-1.579,6.492-4.421c-4.248-4.371-7.31-6.753-5.515-8.457    c1.369-1.3,2.95,0.168,4.47,1.567c6.762,6.226,6.378,7.4,4.275-2.76c-0.896-4.33,3.081-5.745,4.402,0.19    c1.927,8.655,1.496,7.905,5.832,0.04c0.282-0.511,0.51-1.063,0.856-1.526c1.384-1.851,4.62-0.281,3.463,1.997    c-4.002,7.877-5.943,9.686-2.6,8.62C52.51,328.778,52.519,328.8,52.529,328.823z"/>
	</g>
	<g>
		<g>
			<path style="fill:#000E3F;" d="M438.322,405.112c-14.996-16.632-22.337-46.457-24.064-66.937     c-1.04-12.364-0.955-24.861-1.227-37.239c-0.279-10.499-3.364-26.146-8.511-34.49c-4.274-6.894-8.418-11.986-13.063-16.019     c-13.942-12.076-18.378-5.598-20.85-13.416c-3.865-11.8-6.021-20.832-7.136-26.332c-4.118-20.102-1.971-53.779-28.989-89.198     c-13.101-17.171-30.327-30.272-49.802-37.872c-30.044-11.742-39.711-4.468-35.122-11.8c9.691-15.352,12.774-33.022,10.518-45.844     c-1.933-10.871-7.749-18.341-15.591-19.976c-21.007-4.359-32.231,33.067-9.905,66.972c0.408,0.632,0.78,1.283,0.501,1.858     c-1.451,2.909-33.508-1.26-67.995,28.581c-42.788,36.998-42.431,86.359-44.097,97.672c-2.097,14.237-5.324,28.22-10.498,41.669     c-10.322,26.835-40.369,69.029-8.357,123.282c1.888,3.199,7.3,8.679,0.702,8.482c-8.433-0.251-14.644,6.393-9.462,13.734     c3.809,5.352,13.881,10.332,30.736,8.232c2.397-0.279,2.899,0.167,5.054,2.081c28.945,25.545,78.131,42.948,141.324,34.991     c19.204-2.429,18.056-5.29,20.032-1.598c7.117,13.249,11.596,38.355,6.392,60.71c-0.297,1.282-0.111,2.23,0.613,3.196     c6.077,8.158,16.483,13.733,29.287,15.647c27.854,4.174,36.658-19.122,36.478-18.936c4.293-9.458,8.01-17.616,15.498-24.641     c8.58-8.027,16.58-8.726,28.711-11.652c10.109-2.378,19.177-7.47,23.321-11.205c11.243-10.109,13.175-19.438,15.628-31.257     l0.093-0.409C448.966,411.244,443.86,411.24,438.322,405.112z M241.511,8.794c1.223,0.292,5.575-0.051,9.756,4.609     c16.032,18.019-2.304,61.881-9.608,61.881c-0.186-0.05-1.415,0.063-2.545-1.375C220.634,50.566,220.789,9.27,241.511,8.794z      M106.989,263.138c21.025-41.729,18.782-70.34,22.523-88.659c14.038-67.907,75.824-107.076,136.9-93.212     c47.981,10.862,85.018,49.658,91.094,110.141c3.345,32.961,11.61,47.214,10.443,49.022c-0.815,1.342-19.407-0.493-29.899,26.722     c-9.093,23.579,0.241,34.476-17.839,58.091c-4.275,5.593-9.85,10.072-16.985,13.695c-2.852,1.471-2.669,0.719-5.333-3.196     c-2.676-3.809-3.011-4.311-2.527-5.705c1.53-4.501,5.248-10.799,8.306-27.261c3.605-19.438,0.855-44.246-7.024-63.182     c-10.046-24.16-17.138-23.653-15.443-28.358c6.512-18.078-3.684-22.173-1.431-27.465c3.679-8.884,12.097-31.667,4.385-37.537     c-6.619-5.046-20.561,6.768-25.756,12.395c-2.59,2.767-3.566,3.938-6.095,3.159c-7.35-2.293-16.432-1.374-20.367,0.037     c-2.284,0.819-3.48-0.655-6.486-3.438c-6.198-5.774-18.796-17.033-25.533-11.763c-8.891,6.889,3.654,33.101,4.682,37.14     c0.799,3.14-0.881,6.257-1.737,9.195c-1.768,6.07-1.681,12.186,0.707,18.043c1.436,3.523,0.566,2.05-5.432,10.455     c-3.561,4.989-6.439,10.433-8.811,16.079c-0.617,1.468-1.204,2.949-1.767,4.438c-4.701,12.45-6.243,22.113-7.191,33.653     c-0.211,2.439-2.165,2.253-5.074,3.029c-21.11,5.203-35.456,21.147-37.462,41.626c-1.202,12.224,4.802,21.36,1.412,34.025     c-2.825,10.536-9.756,17.096-20.59,19.475c-4.829,1.035-5.199,1.179-7.433-2.155l-0.222-0.335     C87.654,336.638,88.268,300.307,106.989,263.138z M118.38,393.832c-21.88,1.043-31.627-17.944-8.845-16.316     c21.008,1.566,36.821-14.972,33.56-37.816c-0.908-5.947-6.875-23.194,5.947-40.548c11.771-15.925,30.773-18.281,30.587-18.211     c2.769-0.502,3.605-0.651,3.736-3.066c1.543-28.143,12.439-50.985,22.671-61.621c1.227-1.282,1.915-1.988,1.301-3.458     c-2.828-6.769-3.722-12.418-1.03-21.362c0.893-2.965,2.801-4.982,1.439-8.165c-3.383-7.886-12.545-32.407-4.794-34.731     c5.761-1.765,18.36,9.607,24.213,15.851c1.041,1.115,2.156,1.431,3.624,1.004c12.033-3.534,21.575-0.35,21.388-0.372     c4.64,1.338,2.751,0.533,10.295-6.114c4.24-3.802,15.384-13.777,19.884-9.997c5.222,4.467-1.872,24.782-4.516,31.219     c-1.192,2.902-2.465,5.652-0.791,8.524c6.658,11.424,0.241,23.915,0.308,23.606c-1.887,3.963,5.643,3.339,16.112,27.744     c11.948,27.837,11.317,63.107-1.598,89.867c-0.744,1.505-0.613,2.472,0.483,3.494c2.277,2.18,4.649,6.541,4.534,6.355     c2.086,3.376-3.718,1.678-23.377,9.05c-2.1,0.78-2.304,0.725-3.791-0.966c-4.646-5.315-8.4-12.952-9.198-15.74     c-1.287-4.52,3.566-2.276,10.406-9.515c0.558-0.594,0.372-1.375-0.018-1.821c-1.012-1.151-2.128-0.017-3.382,1.022     c-13.995,11.483-36.806,10.547-49.97,0.074c-0.984-0.989-2.073-1.798-2.954-0.725c-1.85,2.351,6.728,6.67,9.402,7.99     c1.505,0.837,1.84,1.635,1.264,3.14c-5.031,13.38-21.218,32.838-35.419,32.018c-2.527-0.148-4.404-1.338-5.408-3.438     c-2.564-5.315,0.409-15.294,7.582-25.458c5.427-7.717,0.631,1.864-6.726-30.978c-0.421-1.788-1.022-2.169-2.714-1.729     c-7.879,2.044-13.732,6.541-17.412,13.361c-5.862,10.84-0.879,15.252-1.598,35.624     C162.695,376.045,142.194,393.832,118.38,393.832z M287.112,427.597c-40.118,9.033-82.107,5.316-113.968-7.582     c-21.633-8.732-40.733-22.762-40.362-24.697c0.111-0.483,0.67-0.706,1.096-0.837c10.965-3.4,24.586-13.584,30.365-28.692     c3.154-8.299,3.097-21.296,2.014-30.026c-0.521-4.199-1.367-7.975-0.581-12.211c1.583-8.522,7.718-15.052,14.807-17.191     c2.008-0.617,2.045,0.809,2.639,3.048c5.228,21.096,9.548,20.437,6.114,24.66c-5.418,6.62-13.325,23.315-5.668,30.699     c3.568,3.438,9.7,3.642,16.019,0.539c12.949-6.376,24.057-19.665,28.265-31.033c0.873-2.341,1.171-3.14,3.846-2.564     c8.251,1.71,14.978,1.672,22.523-0.149c3.49-0.866,2.038-0.478,6.151,7.749c4.685,10.088,9.84,10.667,5.947,12.711     c-15.238,8.009-23.824,16.966-30.607,31.944c-2.174,4.776-3.902,12.581-3.977,13.101c-0.458,2.651,0.97,2.594,3.865,2.564h1.337     c24.567,0.242,43.503,12.599,51.364,24.734C289.673,426.517,289.325,427.093,287.112,427.597z M445.086,415.295     c-4.552,26.109-19.196,34.397-41.347,39.321c-9.254,2.063-17.208,3.828-24.901,11.224c-8.009,7.693-12.581,16.984-16.316,25.886     c-4.682,11.205-16.874,17.431-26.685,17.431c-0.576,0-1.152-0.019-1.709-0.074c-6.745-0.52-14.569-1.673-21.556-6.263     c-0.78-0.502-1.58-0.985-2.36-1.45c-1.97-1.189-4.013-2.397-5.705-4.107c-0.186-0.185-0.372-0.372-0.539-0.539     c-1.227-1.189-2.379-2.304-1.895-4.609c5.612-26.443-0.316-63.795-22.393-80.965c-16.91-13.157-34.973-14.123-40.9-14.439     c-2.146-0.103-3.905-0.067-3.364-2.36c1.654-7.582,6.82-16.892,10.908-22.337c11.93-15.888,32.483-22.541,43.67-25.087     c19.361-4.408,27.858-13.448,37.054-26.035c6.82-9.292,8.623-22.931,9.384-32.372c3.455-42.571,31.546-52.802,50.472-37.835     c33.925,26.75,16.733,60.751,28.135,110.624c4.46,19.531,11.317,34.434,20.98,45.547c2.119,2.434,5.983,5.036,7.637,6.151     c0.335,0.223,0.576,0.39,0.706,0.483C444.937,413.92,445.198,414.571,445.086,415.295z"/>
		</g>
		<g>
			<path style="fill:#000E3F;" d="M289.696,244.184c0,0,0,0.056,0,0.13c0,1.895-0.093,23.526-4.423,35.921     c-2.248,6.411-7.396,17.487-16.687,19.847c-3.883,0.985-7.526,0.334-10.536-1.895c-3.699-2.75-6.059-7.582-6.318-12.952     c-0.298-6.151,1.784-10.722,4.403-16.502c2.434-5.352,5.464-12.023,7.452-22.076c1.152-5.817,1.17-7.935,1.17-9.459     c0.019-0.948,0.019-1.636,0.316-2.862c0.149-0.613,0.669-1.022,1.264-1.022c0.092,0,0.167,0.019,0.26,0.037     c0.966,0.186,1.932,1.449,1.505,4.423c-2.677,18.639-6.225,26.146-9.069,32.167c-1.505,3.178-2.787,5.928-3.772,9.719     c-1.599,6.113-0.205,12.004,3.586,15.387c2.918,2.583,6.653,3.252,10.277,1.839c13.826-5.389,18.211-32.26,17.728-47.906     c-0.056-1.858,0-3.735,0.055-5.556l0.019-0.836c0.018-0.744,0.632-1.19,1.189-1.19     C288.823,241.396,289.659,242.121,289.696,244.184z"/>
		</g>
		<g>
			<path style="fill:#000E3F;" d="M226.737,298.762c-3.345,2.546-10.964,3.382-17.431-2.676     c-9.831-9.198-12.73-27.205-13.529-34.509c-0.371-3.531-0.594-10.109-0.557-16.761c0-1.227,0.298-2.23,0.8-2.676     c0.241-0.223,0.52-0.334,0.873-0.297c1.003,0.074,1.431,1.134,1.301,3.234c-0.706,11.8,0.947,28.952,7.693,41.7     c6.523,12.358,14.217,11.633,18.23,10.091c5.278-2.026,7.656-10.481,6.114-16.13c-1.375-4.98-3.048-8.585-4.832-12.413     c-2.676-5.797-5.463-11.8-7.618-23.359c-0.26-1.431-1.245-7.693-0.819-9.886c0.205-0.966,1.042-1.487,1.71-1.431     c0.706,0.037,1.171,0.687,1.208,1.71c0.762,14.755,5.222,25.328,11.93,39.767C235.193,282.39,234.542,292.852,226.737,298.762z"/>
		</g>
		<g>
			<path style="fill:#000E3F;" d="M243.813,211.46c-1.431-1.301-1.766-1.413-3.159,0.018c-5.965,6.151-14.253-1.784-13.342-4.701     c0.204-0.688,0.836-1.152,1.412-1.152c1.524,0,2.992,5.352,7.135,5.055c2.435-0.093,3.457-2.026,4.256-4.181     c0.242-0.687,0.409-1.189,0.744-1.505c0.929,0.279,1.896,0.298,2.862-0.037c0.483,0.408,0.539,1.282,1.357,2.992     c1.467,2.899,4.646,3.568,7.247,1.431c2.156-1.728,3.121-4.051,4.348-3.568C260.074,207.055,251.451,218.335,243.813,211.46z"/>
		</g>
		<g>
			<path style="fill:#000E3F;" d="M257.07,196.643c-2.338,0-4.8-1.9-4.659-4.417c0.142-2.38,2.338-4.486,4.764-4.366     c2.179,0.102,3.968,1.849,4.269,3.921C261.817,194.246,259.656,196.625,257.07,196.643z"/>
			<path style="fill:#000E3F;" d="M232.223,192.225c0.142,2.517-2.32,4.417-4.658,4.417c-2.587-0.017-4.73-2.397-4.375-4.863     c0.301-2.072,2.108-3.818,4.268-3.921C229.884,187.739,232.081,189.845,232.223,192.225z"/>
		</g>
		<g>
			<g>
				<path style="fill:#000E3F;" d="M267.501,201.66c-0.541-0.015-1.053-0.325-1.301-0.845c-0.353-0.741-0.041-1.629,0.701-1.982      c0.666-0.319,16.492-7.735,33.268-2.194c0.779,0.257,1.201,1.098,0.945,1.878c-0.257,0.779-1.088,1.206-1.879,0.946      c-15.632-5.165-30.898,1.98-31.053,2.052C267.964,201.619,267.73,201.666,267.501,201.66z"/>
			</g>
			<g>
				<path style="fill:#000E3F;" d="M299.792,211.819c-0.229-0.007-0.459-0.067-0.672-0.184c-14.47-7.964-30.733-3.773-30.896-3.73      c-0.792,0.206-1.609-0.258-1.82-1.052c-0.211-0.793,0.258-1.608,1.05-1.82c0.712-0.189,17.559-4.555,33.098,3.999      c0.72,0.396,0.981,1.3,0.587,2.019C300.86,211.554,300.332,211.834,299.792,211.819z"/>
			</g>
			<g>
				<path style="fill:#000E3F;" d="M217.183,201.66c0.541-0.015,1.053-0.325,1.301-0.845c0.353-0.741,0.04-1.629-0.701-1.982      c-0.666-0.319-16.492-7.735-33.268-2.194c-0.779,0.257-1.201,1.098-0.945,1.878c0.257,0.779,1.088,1.206,1.879,0.946      c15.632-5.165,30.898,1.98,31.053,2.052C216.721,201.619,216.954,201.666,217.183,201.66z"/>
			</g>
			<g>
				<path style="fill:#000E3F;" d="M184.892,211.819c0.229-0.007,0.459-0.067,0.672-0.184c14.47-7.964,30.733-3.773,30.896-3.73      c0.792,0.206,1.608-0.258,1.82-1.052c0.211-0.793-0.258-1.608-1.051-1.82c-0.712-0.189-17.559-4.555-33.098,3.999      c-0.72,0.396-0.981,1.3-0.587,2.019C183.825,211.554,184.352,211.834,184.892,211.819z"/>
			</g>
		</g>
		<g>
			<path style="fill:#000E3F;" d="M245.554,23.811c-63.652,0-127.416-6.891-189.636-20.503c-0.902-0.198-1.474-1.089-1.276-1.992     c0.196-0.902,1.087-1.476,1.991-1.277C120.719,14.06,186.456,20.925,252,20.443c61.195-0.449,122.558-7.314,182.388-20.403     c0.904-0.2,1.793,0.375,1.991,1.277c0.198,0.903-0.374,1.794-1.276,1.992c-60.055,13.138-121.653,20.028-183.078,20.479     C249.868,23.804,247.712,23.811,245.554,23.811z"/>
		</g>
	</g>
</g>















</svg>
