<?xml version="1.0" encoding="UTF-8"?>
<!-- Generator: Adobe Illustrator 25.2.0, SVG Export Plug-In . SVG Version: 6.00 Build 0)  -->
<svg xmlns="http://www.w3.org/2000/svg" xmlns:xlink="http://www.w3.org/1999/xlink" version="1.1" id="Capa_1" x="0px" y="0px" viewBox="0 0 512 512" style="enable-background:new 0 0 512 512;" xml:space="preserve" width="512" height="512">
<g>
	<path style="fill:#F4BBB1;" d="M176.773,244.959c0,0-96.471,75.447-48.457,179.372c10.111,21.884,175.09,22.972,194.343,2.954   c88.252-91.757-44.343-204.524-48.654-204.681S176.773,244.959,176.773,244.959z"/>
	<path style="fill:#F4BBB1;" d="M299.966,238.55c0,0,51.271-52.974,56.605-61.631s33.483,23.974,33.081,28.504   c-0.402,4.53-52.537,77.515-60.047,69.544C322.095,266.995,299.966,238.55,299.966,238.55z"/>
	<path style="fill:#F4BBB1;" d="M196.648,193.458c0,0-54.018,99.956-29.951,106.783s39.94-26.807,24.65-19.254   c-15.29,7.553,6.535,36.945,24.552,33.065c18.018-3.88,22.153-39.248,7.494-35.962c-14.659,3.286-7.688,44.656,26.213,36.581   s46.378-33.488,31.441-35.695c-14.938-2.207-9.628,35.647,14.355,28.288c23.983-7.359-18.628-81.68-18.911-113.35"/>
	<path style="fill:#251626;" d="M128.893,129.672c-0.249,0-0.496-0.003-0.748-0.01c-10.389-0.253-20.641-5.74-30.466-16.311   c-13.35-14.362-12.495-43.364,2.08-70.53c12.769-23.796,37.829-47.355,69.878-42.071c14.885,2.448,25.793,9.274,32.423,20.288   c15.482,25.721,2.591,64.925,2.034,66.582c-0.197,0.587-0.827,0.903-1.417,0.705c-0.586-0.197-0.901-0.832-0.704-1.418   c0.131-0.396,13.116-39.892-1.835-64.72c-6.276-10.422-16.659-16.891-30.864-19.228c-30.899-5.083-55.142,17.809-67.541,40.921   c-14.131,26.335-15.124,54.277-2.414,67.947c9.388,10.099,19.091,15.347,28.844,15.596c8.214,0.248,14.557-3.293,17.726-5.529   c-3.33-0.405-8.78-1.835-13.659-6.625c-7.579-7.443-10.888-20.044-9.838-37.452c1.417-23.485,18.889-35.659,35.57-35.659   c0.144,0,0.289,0.001,0.435,0.003c24.531,0.312,36.307,23.24,37.094,45.825c0.022,0.619-0.464,1.137-1.08,1.158   c-0.641,0.039-1.137-0.461-1.159-1.079c-1.111-31.916-19.486-43.469-34.883-43.666c-0.136-0.001-0.273-0.002-0.407-0.002   c-15.629,0-32.001,11.453-33.335,33.555c-1.01,16.732,2.077,28.75,9.174,35.718c6.803,6.682,14.947,6.126,15.034,6.119   c0.475-0.026,0.914,0.226,1.107,0.654c0.195,0.43,0.101,0.935-0.236,1.264C149.363,122.038,141.395,129.671,128.893,129.672z"/>
	<path style="fill:#251626;" d="M345.137,167.318c-0.359,0-0.695-0.172-0.908-0.463c-0.214-0.296-0.269-0.678-0.151-1.023   c0.241-0.691,23.536-69.506-8.754-108.614c-6.302-7.635-13.643-11.201-21.87-10.582c-28.113,2.106-58.111,51.56-58.411,52.059   c-0.317,0.531-1.006,0.702-1.537,0.384c-0.529-0.318-0.702-1.006-0.383-1.536c1.249-2.08,30.906-50.949,60.165-53.141   c8.935-0.666,16.967,3.158,23.764,11.39c30.363,36.777,12.909,98.732,9.637,109.241c28.483-1.193,45.636-22.277,45.986-56.719   c0.47-46.126-30.16-98.656-74.864-100.288c-21.367-0.775-38.999,5.224-52.362,17.846c-26.169,24.724-27.324,66.905-27.332,67.329   c-0.013,0.617-0.558,1.056-1.141,1.097c-0.619-0.013-1.111-0.524-1.098-1.143c0.009-0.432,1.19-43.55,28.034-68.911   c13.814-13.05,31.962-19.256,53.983-18.455c45.988,1.678,77.501,55.391,77.02,102.548c-0.372,36.436-18.972,58.484-49.76,58.981   C345.148,167.318,345.143,167.318,345.137,167.318z"/>
	<path style="fill:#F4BBB1;" d="M274.306,115.766c0,0-64.378-49.838-80.815-33.169s-36.198,65.235-36.198,65.235   s-50.142-6.147-50.405,1.039c-0.262,7.186-22.427,62.5-6.671,64.514s158.788,25.941,171.229,0.492   C283.886,188.428,274.306,115.766,274.306,115.766z"/>
	<path style="fill:#251626;" d="M116.787,174.373c-1.152,0-1.211-0.485-1.835-5.612c-0.669-5.518-2.239-18.439-5.076-20.356   c-0.273-0.184-0.468-0.172-0.625-0.128c-0.599,0.165-1.211-0.194-1.373-0.792c-0.16-0.597,0.195-1.211,0.792-1.371   c0.851-0.224,1.701-0.078,2.46,0.435c3.335,2.252,4.796,11.729,5.979,21.381c3.407-7.795,13.011-16.785,13.488-17.229   c0.453-0.42,1.161-0.395,1.583,0.058c0.42,0.453,0.396,1.161-0.057,1.582c-0.133,0.122-13.191,12.344-13.934,19.822   c-0.101,1.03-0.216,2.197-1.351,2.209C116.82,174.373,116.802,174.373,116.787,174.373z"/>
	<path style="fill:#251626;" d="M130.048,205.235c-0.138,0-0.26-0.018-0.365-0.043c-2.591-0.617-5.624-10.183-7.711-18.098   c-0.157-0.598,0.199-1.21,0.796-1.368c0.601-0.155,1.214,0.2,1.369,0.797c1.817,6.891,4.483,14.715,5.887,16.291   c1.454-1.841,4.225-11.368,6.101-19.744c0.138-0.602,0.73-0.984,1.338-0.847c0.604,0.134,0.982,0.734,0.848,1.337   c-1.028,4.586-4.594,19.68-7.345,21.398C130.627,205.169,130.31,205.235,130.048,205.235z"/>
	<path style="fill:#251626;" d="M211.013,148.821c-0.501,0-0.925-0.136-1.26-0.306c-4.406-2.241-4.052-18.174-3.936-21.345   c0.022-0.618,0.47-1.137,1.161-1.078c0.617,0.022,1.1,0.541,1.078,1.159c-0.308,8.446,0.641,18.216,2.712,19.269   c0.291,0.152,0.722,0.004,1.273-0.429c6.237-4.899,7.393-21.3,7.404-21.465c0.042-0.618,0.588-1.068,1.192-1.043   c0.617,0.042,1.082,0.574,1.043,1.191c-0.048,0.715-1.236,17.564-8.257,23.078C212.498,148.579,211.687,148.821,211.013,148.821z"/>
	<path style="fill:#251626;" d="M179.996,147.189c-0.503,0-0.927-0.136-1.262-0.306c-4.406-2.243-4.052-18.174-3.936-21.345   c0.022-0.618,0.468-1.138,1.161-1.078c0.617,0.022,1.1,0.541,1.078,1.159c-0.308,8.446,0.641,18.215,2.712,19.269   c0.293,0.148,0.722,0.004,1.273-0.429c6.237-4.899,7.393-21.3,7.404-21.465c0.042-0.618,0.595-1.063,1.192-1.043   c0.617,0.042,1.085,0.574,1.043,1.191c-0.048,0.715-1.236,17.564-8.257,23.078C181.478,146.946,180.667,147.189,179.996,147.189z"/>
	<circle style="fill:#F0A0A4;" cx="227.224" cy="168.805" r="15.78"/>
	<path style="fill:#251626;" d="M176.842,156.306c-0.267,0-0.534-0.094-0.748-0.286c-8.34-7.48-20.921-8.021-21.048-8.027   c-0.617-0.022-1.1-0.541-1.078-1.159s0.426-1.105,1.161-1.078c0.547,0.02,13.523,0.581,22.46,8.597   c0.459,0.412,0.499,1.121,0.085,1.581C177.455,156.18,177.149,156.306,176.842,156.306z"/>
	<path style="fill:#F4BBB1;" d="M257.414,105.436c0,0,62.924,20.644,69.997,33.853c7.073,13.21-49.329,20.865-58.322,1.11   C260.097,120.644,257.414,105.436,257.414,105.436z"/>
	<path style="fill:#251626;" d="M189.854,117.808c-3.147,0-5.609-0.969-7.35-2.9c-1.072-1.187-1.749-2.629-2.132-4.178   c-2.594,1.026-5.303,0.718-7.877-0.957c-2.329-1.515-3.691-3.623-4.048-6.267c-1.141-8.454,8.622-19.577,9.038-20.046   c0.409-0.468,1.117-0.505,1.581-0.095c0.461,0.41,0.505,1.117,0.094,1.58c-0.094,0.107-9.502,10.826-8.493,18.263   c0.269,1.997,1.266,3.529,3.048,4.69c2.381,1.55,4.535,1.367,6.302,0.527c-0.197-2.748,0.332-5.609,1.133-7.886   c1.284-3.653,3.236-6.026,5.222-6.348c1.201-0.19,2.176,0.314,2.661,1.348c1.365,2.91-1.456,9.699-5.487,13.208   c-0.37,0.321-0.744,0.612-1.12,0.874c0.273,1.459,0.829,2.777,1.741,3.789c1.955,2.171,5.318,2.711,9.998,1.592   c6.598-1.576,11.159-4.561,13.971-7.667c-0.009-0.007-0.015-0.013-0.022-0.02c-3.16-2.878-4.739-6.44-4.021-9.077   c0.455-1.676,1.798-2.831,3.783-3.251c3.031-0.637,5.274,0.646,5.885,3.352c0.531,2.363-0.269,5.518-2.467,8.625   c2.427,1.632,6.799,3.586,12.115,1.594c7.413-2.775,10.864-11.501,9.81-17.995c-0.785-4.829-3.857-7.694-8.434-7.861   c-0.617-0.022-1.1-0.541-1.078-1.159c0.022-0.618,0.44-1.125,1.161-1.078c5.655,0.206,9.604,3.847,10.56,9.739   c1.196,7.365-2.758,17.279-11.231,20.452c-4.82,1.805-10.033,1.074-14.315-1.924c-3.153,3.527-8.185,6.774-15.196,8.449   C192.931,117.599,191.319,117.808,189.854,117.808z M186.948,96.397c-1.139,0.154-2.629,1.878-3.685,4.884   c-0.61,1.735-1.004,3.718-1.043,5.639c0.894-0.801,1.592-1.672,2.051-2.314C187.088,100.669,187.457,96.797,186.948,96.397z    M209.362,97.059c-0.311,0-0.649,0.039-1.021,0.118c-1.17,0.247-1.852,0.786-2.086,1.647c-0.477,1.757,0.87,4.522,3.282,6.755   c1.791-2.574,2.419-5.068,2.04-6.748C211.31,97.653,210.567,97.059,209.362,97.059z"/>
	<path style="fill:#251626;" d="M289.391,143.862c-3.046,0-6.197-0.449-9.303-1.589c-8.66-3.178-14.993-11.042-18.826-23.373   c-0.184-0.59,0.147-1.218,0.737-1.402c0.599-0.179,1.22,0.148,1.402,0.737c3.615,11.63,9.488,19.011,17.459,21.936   c13.484,4.949,28.631-4.516,28.785-4.611c0.518-0.336,1.214-0.179,1.544,0.344c0.332,0.522,0.177,1.214-0.346,1.545   C310.33,137.777,300.583,143.862,289.391,143.862z"/>
	<path style="fill:#251626;" d="M202.732,227.388c-4.645,0-9.565-0.842-14.741-2.527c-0.586-0.191-0.908-0.823-0.717-1.412   c0.192-0.586,0.818-0.906,1.413-0.718c11.638,3.794,21.87,3.111,30.405-2.026c17.669-10.629,22.447-36.947,22.493-37.211   c0.105-0.611,0.695-1.011,1.295-0.911c0.61,0.107,1.017,0.687,0.91,1.296c-0.195,1.122-5.008,27.595-23.543,38.745   C214.969,225.798,209.111,227.388,202.732,227.388z"/>
	<polygon style="fill:#F9D998;" points="239.106,235.726 410.197,217.231 423.782,334.544 251.118,358.479  "/>
	<path style="fill:#F4BBB1;" d="M187.19,314.414c0,0,69.621-34.695,75.159-28.737c5.539,5.958,13.576,42.048,13.576,42.048   s-52.838,28.292-68.751,30.589S187.19,314.414,187.19,314.414z"/>
	<path style="fill:#251626;" d="M274.408,326.091c-0.394,0-0.776-0.209-0.98-0.578c-0.3-0.542-0.103-1.224,0.44-1.522   c8.574-4.729,22.533-13.576,23.484-17.18c0.028-0.114,0.055-0.266,0.004-0.348c-1.435-2.331-14.522-1.777-25.832,0.075   c-0.448,0.07-0.875-0.122-1.117-0.49c-0.243-0.368-0.245-0.846-0.009-1.218c4.538-7.105,11.323-18.742,11.43-21.68   c-1.207-0.985-11.664,1.111-22.771,4.718c-0.586,0.195-1.22-0.132-1.41-0.719c-0.19-0.588,0.131-1.219,0.719-1.41   c4.999-1.624,21.566-6.733,24.872-4.234c0.56,0.423,0.853,1.035,0.829,1.726c-0.138,3.725-7.345,15.698-10.472,20.722   c6.939-1.002,23.092-2.844,25.668,1.336c0.258,0.418,0.51,1.12,0.254,2.092c-1.507,5.712-22.211,17.271-24.568,18.571   C274.777,326.046,274.591,326.091,274.408,326.091z"/>
	<path style="fill:#F4BBB1;" d="M126.139,410.041c0,0,10.26,73.766,15.903,76.85c5.644,3.084,44.38,1.339,44.38,1.339   s26.207-82.228,6.454-93.022S126.139,410.041,126.139,410.041z"/>
	<path style="fill:#F4BBB1;" d="M259.792,414.918c0,0,10.26,73.766,15.903,76.85c5.644,3.084,44.38,1.339,44.38,1.339   s26.207-82.228,6.454-93.022S259.792,414.918,259.792,414.918z"/>
	<path style="fill:#F4BBB1;" d="M340.041,384.748c0,0,57.066,13.595,50.898,24.882c-6.168,11.287-39.62,60.433-57.276-7.846   L340.041,384.748z"/>
	<path style="fill:#251626;" d="M187.601,359.78c-2.147,0-4.459-0.221-6.939-0.709c-7.249-1.427-11.71-4.71-14.452-8.22   c-2.263,1.554-5.795,2.562-11.29,2.076c-12.714-1.136-21.389-9.691-24.343-17.665c-2.44-6.587-1.369-12.903,2.939-17.33   c0.431-0.442,1.144-0.452,1.583-0.022c0.444,0.432,0.453,1.14,0.022,1.583c-3.683,3.783-4.573,9.247-2.445,14.99   c2.712,7.315,10.702,15.164,22.445,16.213c4.36,0.39,7.649-0.172,9.816-1.673c-1.918-3.11-2.655-6.177-2.937-8.097   c-0.671-4.574,0.221-8.76,2.075-9.74c0.768-0.403,1.638-0.269,2.325,0.365c2.397,2.213,5.417,9.972,2.965,15.503   c-0.335,0.758-0.8,1.539-1.448,2.279c2.462,3.181,6.512,6.228,13.178,7.539c9.217,1.817,15.181-0.214,18.885-2.794   c-1.472-1.509-2.163-3.204-2.486-4.51c-1.288-5.225,1.397-11.271,4.568-12.985c1.679-0.908,3.387-0.627,4.691,0.775   c2.639,2.842,2.685,7.853,0.114,12.471c-0.811,1.456-1.905,2.882-3.28,4.18c1.811,0.967,4.186,1.479,7.079,1.512   c0.136,0.001,0.271,0.002,0.407,0.002c19.764,0,30.995-16.598,31.107-16.767c0.346-0.518,1.041-0.652,1.553-0.315   c0.516,0.342,0.656,1.037,0.315,1.553c-0.485,0.73-12.021,17.769-32.963,17.769c-0.147,0-0.295-0.001-0.444-0.002   c-4.065-0.047-6.899-0.963-8.876-2.234C198.334,358.04,193.613,359.78,187.601,359.78z M203.985,338.304   c-0.267,0-0.549,0.084-0.857,0.25c-2.147,1.16-4.546,6.072-3.457,10.478c0.359,1.453,1.052,2.673,2.066,3.649   c1.684-1.532,2.679-3.052,3.173-3.941c2.067-3.709,2.15-7.762,0.203-9.857C204.752,338.496,204.387,338.304,203.985,338.304z    M164.984,333.296c-0.608,0.728-1.415,3.774-0.663,7.934c0.267,1.485,0.883,3.77,2.287,6.166c0.276-0.384,0.512-0.799,0.711-1.245   C169.34,341.591,166.709,335.045,164.984,333.296z"/>
	<path style="fill:#251626;" d="M207.123,304.404c-0.621,0-1.052-0.283-1.253-0.45c-1.922-1.608-0.601-6.717-0.151-8.243   c0.951-3.222,2.631-6.783,5.001-9.726c-3.847-4.36-10.704-7.863-18.185-7.672c-4.489,0.116-8.227,1.507-11.159,3.471   c0.243,1.102,0.374,2.202,0.385,3.277c0.059,5.259-2.731,8.933-7.461,9.828c-0.846,0.163-1.618-0.106-2.106-0.734   c-1.244-1.615-0.013-4.66,0.573-5.894c1.176-2.474,3.201-5.155,6.036-7.373c-1.811-5.571-6.921-11.028-14.19-12.237   c-0.61-0.102-1.021-0.678-0.921-1.288c0.103-0.611,0.693-1.032,1.288-0.921c7.984,1.327,13.554,7.002,15.747,13.095   c3.147-1.97,7.076-3.344,11.752-3.465c7.477-0.171,15.196,3.271,19.74,8.235c2.342-2.355,5.222-4.074,8.616-4.491   c13.617-1.687,20.943,8.864,21.249,9.313c0.346,0.511,0.212,1.206-0.297,1.554c-0.503,0.348-1.205,0.219-1.555-0.295   c-0.276-0.402-6.875-9.845-19.126-8.35c-3.075,0.378-5.546,2.024-7.463,4.017c1.078,1.507,1.865,3.116,2.283,4.776   c0.783,3.128,0.829,9.013-7.671,13.279C207.827,304.325,207.449,304.404,207.123,304.404z M212.135,287.826   c-1.883,2.479-3.027,5.078-3.514,6.32c-1.574,4.026-1.73,7.118-1.384,7.954c5.39-2.73,7.595-6.417,6.514-10.723   C213.456,290.195,212.905,288.996,212.135,287.826z M179.377,283.314c-1.857,1.613-3.274,3.443-4.236,5.217   c-1.356,2.502-1.332,4.001-1.17,4.264c5.067-1.08,5.572-5.748,5.55-7.709C179.515,284.504,179.467,283.912,179.377,283.314z"/>
	<path style="fill:#251626;" d="M212.878,269.054c-4.844,0.001-9.331-2.89-12.502-6.541c-0.199,0.167-0.405,0.328-0.619,0.481   c-4.328,3.124-10.324,2.759-16.449-0.985c-5.53-3.383-8.585-7.346-9.082-11.78c-0.715-6.421,4.242-11.322,4.454-11.528   c0.448-0.434,1.152-0.417,1.581,0.022c0.431,0.442,0.422,1.15-0.017,1.582c-0.046,0.043-4.393,4.368-3.79,9.692   c0.42,3.704,3.118,7.103,8.021,10.101c7.286,4.457,11.883,2.588,13.971,1.081c0.19-0.137,0.372-0.279,0.545-0.425   c-0.394-0.552-0.757-1.113-1.087-1.677c-1.931-3.302-2.425-6.226-1.321-7.822c0.405-0.586,1.406-1.515,3.505-1.154   c2.003,0.341,3.411,1.664,3.866,3.628c0.529,2.28-0.289,4.995-2.016,7.176c2.994,3.532,7.302,6.29,11.855,5.867   c3.954-0.37,7.135-3.128,9.141-6.357c-1.365-1.186-2.486-2.461-3.138-3.671c-1.485-2.764-0.754-5.223,2.005-6.745   c2.235-1.231,3.61-0.756,4.369-0.142c1.463,1.184,1.736,3.879,0.73,7.21c-0.28,0.925-0.643,1.858-1.085,2.775   c3.125,2.231,6.895,3.715,8.052,3.106c0.549-0.29,1.225-0.074,1.513,0.472c0.286,0.548,0.074,1.225-0.472,1.511   c-2.206,1.161-6.606-0.557-10.193-3.115c-2.342,3.697-6.033,6.747-10.713,7.186C213.628,269.037,213.252,269.054,212.878,269.054z    M199.174,252.257c-0.313,0-0.606,0.065-0.748,0.271c-0.383,0.553-0.321,2.452,1.413,5.418c0.216,0.371,0.45,0.741,0.698,1.109   c1.157-1.676,1.539-3.527,1.24-4.821c-0.251-1.088-0.947-1.735-2.062-1.927C199.543,252.279,199.355,252.257,199.174,252.257z    M224.333,251.474c-0.363,0-0.87,0.166-1.45,0.487c-1.684,0.928-2.016,2.042-1.113,3.723c0.496,0.923,1.29,1.847,2.244,2.713   c0.3-0.661,0.549-1.325,0.746-1.977c0.761-2.518,0.571-4.364,0.004-4.821C224.661,251.516,224.514,251.474,224.333,251.474z"/>
	<path style="fill:#251626;" d="M240.338,440.284c-2.554,0-5.436-0.413-8.684-1.384c-8.802-2.627-14.133-5.374-17.308-7.903   c-4.789,4.556-11.417,8.542-18.041,8.268c-6.825-0.249-11.032-4.088-13.186-8.483c-2.171,0.623-5.036,0.806-8.795,0.114   c-19.058-3.516-16.219-25.87-16.189-26.095c0.083-0.611,0.656-1.053,1.26-0.957c0.612,0.083,1.041,0.647,0.958,1.26   c-0.112,0.834-2.569,20.463,14.378,23.59c2.935,0.543,5.473,0.531,7.527-0.003c-0.339-0.999-0.582-2.003-0.733-2.976   c-0.73-4.726,0.608-8.558,3.335-9.534c1.456-0.524,2.887-0.1,3.923,1.151c1.588,1.916,2.082,5.851,0.164,9.121   c-0.645,1.1-1.784,2.485-3.731,3.5c1.876,3.687,5.449,6.866,11.172,7.075c5.666,0.197,11.809-3.334,16.285-7.536   c-2.421-2.493-2.847-4.687-2.698-6.218c0.37-3.789,4.33-6.134,8.05-6.493c1.749-0.173,2.628,0.539,3.035,1.166   c0.831,1.281,0.481,3.353-1.015,5.99c-0.96,1.695-2.373,3.594-4.118,5.461c2.845,2.22,7.796,4.798,16.366,7.356   c10.975,3.277,17.267-0.387,20.707-4.331c-1.749-1.359-2.661-2.894-3.138-4.153c-1.975-5.205,1.041-11.446,4.964-14.242   c1.865-1.328,3.191-0.459,3.676-0.025c2.41,2.162,2.351,9.781-1.336,16.365c-0.265,0.472-0.564,0.968-0.903,1.475   c3.409,1.636,8.55,2.149,15.113,1.456c13.245-1.402,17.168-9.387,18.327-14.021c0.087-0.349,0.164-0.693,0.232-1.033   c-2.272-1.478-4.017-3.52-4.916-5.668c-1.225-2.928-0.695-5.584,1.415-7.106c0.949-0.682,2.053-0.698,3.029-0.036   c2.084,1.413,3.549,6.254,2.913,11.655c1.968,0.992,4.349,1.508,7.009,1.053c3.055-0.516,5.296-1.96,6.853-4.413   c4.887-7.701,0.883-22.323,0.842-22.469c-0.166-0.596,0.182-1.214,0.776-1.38c0.597-0.172,1.214,0.183,1.38,0.776   c0.179,0.639,4.308,15.738-1.107,24.272c-1.889,2.977-4.706,4.802-8.373,5.422c-2.784,0.471-5.456,0.024-7.77-0.996   c-0.035,0.155-0.07,0.311-0.109,0.466c-1.301,5.201-5.666,14.158-20.265,15.703c-8.222,0.87-13.42-0.184-16.694-1.883   C252.111,437.003,247.53,440.283,240.338,440.284z M256.763,415.566c-0.131,0-0.33,0.066-0.639,0.285   c-3.26,2.325-5.714,7.551-4.17,11.625c0.475,1.251,1.281,2.318,2.397,3.193c0.326-0.481,0.61-0.95,0.862-1.396   c3.276-5.85,3.121-12.413,1.793-13.604C256.959,415.627,256.892,415.566,256.763,415.566z M218.54,418.994   c-0.094,0-0.195,0.005-0.302,0.015c-3.221,0.311-5.815,2.237-6.033,4.482c-0.074,0.748,0.085,2.351,2.056,4.415   c1.607-1.713,2.926-3.469,3.838-5.076c1.183-2.088,1.297-3.336,1.082-3.665C219.111,419.056,218.87,418.994,218.54,418.994z    M186.06,418.203c-0.168,0-0.317,0.04-0.444,0.085c-1.607,0.575-2.414,3.621-1.878,7.084c0.129,0.819,0.33,1.663,0.61,2.504   c1.135-0.621,2.032-1.475,2.666-2.556c1.404-2.391,1.115-5.267,0.044-6.559C186.698,418.325,186.353,418.203,186.06,418.203z    M287.966,407.19c-0.07,0-0.136,0.035-0.225,0.098c-1.738,1.254-1.039,3.512-0.656,4.425c0.555,1.33,1.655,2.802,3.175,4.017   c0.282-4.399-1.015-7.737-2.056-8.442C288.106,407.221,288.033,407.19,287.966,407.19z"/>
	<path style="fill:#251626;" d="M310.586,512c-0.206,0-0.409-0.026-0.612-0.079c-4.172-1.089-10.022-11.846-12.766-17.333   c-1.699,5.77-4.966,15.785-7.498,16.985c-0.488,0.232-1.017,0.246-1.48,0.04c-3.274-1.449-10.984-14.187-13.352-21.093   c-0.201-0.585,0.109-1.221,0.695-1.423c0.584-0.2,1.22,0.112,1.421,0.697c2.475,7.212,9.602,18.102,11.916,19.644   c1.542-1.301,4.75-10.311,6.945-18.272c0.125-0.452,0.518-0.779,0.986-0.818c0.453-0.049,0.91,0.215,1.107,0.64   c3.206,6.822,9.458,17.948,12.591,18.766c1.959,0.502,7.057-9.507,10.794-21.472c0.186-0.589,0.807-0.92,1.404-0.735   c0.59,0.184,0.918,0.811,0.735,1.402C321.257,496.03,315.701,512,310.586,512z"/>
	<g>
		<path style="fill:#251426;" d="M321.747,474.103c-0.16,0-0.324-0.035-0.477-0.107c-0.56-0.263-0.798-0.93-0.536-1.49    c0.018-0.037,1.767-3.815,0.838-6.42c-0.208-0.582,0.094-1.222,0.678-1.43c0.584-0.21,1.222,0.095,1.43,0.678    c1.244,3.481-0.831,7.941-0.921,8.129C322.567,473.866,322.167,474.103,321.747,474.103z"/>
		<path style="fill:#251426;" d="M316.387,465.927c-0.16,0-0.324-0.035-0.477-0.108c-0.56-0.264-0.798-0.93-0.536-1.489    c0.017-0.038,1.769-3.816,0.84-6.42c-0.208-0.582,0.094-1.222,0.678-1.43c0.584-0.208,1.222,0.096,1.43,0.678    c1.244,3.481-0.835,7.941-0.923,8.129C317.207,465.691,316.807,465.927,316.387,465.927z"/>
		<path style="fill:#251426;" d="M316.442,480.726c-0.16,0-0.324-0.035-0.477-0.107c-0.56-0.264-0.798-0.93-0.536-1.49    c0.018-0.037,1.767-3.815,0.838-6.42c-0.208-0.582,0.094-1.222,0.678-1.43c0.584-0.211,1.222,0.095,1.43,0.678    c1.244,3.481-0.831,7.941-0.921,8.129C317.262,480.489,316.862,480.726,316.442,480.726z"/>
		<path style="fill:#251426;" d="M323.789,457.954c-0.16,0-0.324-0.035-0.477-0.108c-0.56-0.264-0.798-0.93-0.536-1.489    c0.018-0.038,1.769-3.816,0.84-6.42c-0.208-0.582,0.094-1.222,0.678-1.43c0.584-0.21,1.222,0.096,1.43,0.678    c1.244,3.481-0.835,7.941-0.923,8.129C324.609,457.718,324.209,457.954,323.789,457.954z"/>
		<path style="fill:#251426;" d="M326.252,440.015c-0.092,0-0.184-0.012-0.276-0.035c-0.599-0.151-0.962-0.76-0.811-1.359    c0.009-0.04,1.002-4.084-0.413-6.46c-0.317-0.531-0.142-1.218,0.389-1.535c0.525-0.316,1.216-0.145,1.535,0.389    c1.894,3.177,0.711,7.954,0.658,8.156C327.205,439.678,326.75,440.015,326.252,440.015z"/>
		<path style="fill:#251426;" d="M311.839,455.894c-0.092,0-0.184-0.012-0.276-0.035c-0.599-0.151-0.962-0.759-0.811-1.358    c0.009-0.042,1.002-4.085-0.413-6.461c-0.317-0.531-0.142-1.219,0.389-1.535c0.525-0.316,1.216-0.144,1.535,0.389    c1.889,3.177,0.711,7.953,0.658,8.156C312.792,455.556,312.337,455.894,311.839,455.894z"/>
		<path style="fill:#251426;" d="M317.153,437.654c-0.092,0-0.184-0.012-0.276-0.035c-0.599-0.151-0.962-0.759-0.811-1.358    c0.009-0.042,1.002-4.085-0.413-6.461c-0.317-0.531-0.142-1.219,0.389-1.535c0.525-0.316,1.216-0.144,1.535,0.389    c1.889,3.177,0.711,7.953,0.658,8.156C318.106,437.316,317.651,437.654,317.153,437.654z"/>
		<path style="fill:#251426;" d="M318.841,452.121c-0.16,0-0.324-0.035-0.477-0.108c-0.56-0.264-0.798-0.93-0.536-1.489    c0.018-0.038,1.769-3.814,0.838-6.418c-0.208-0.582,0.094-1.224,0.676-1.431c0.584-0.211,1.225,0.095,1.432,0.677    c1.246,3.482-0.833,7.941-0.921,8.129C319.661,451.884,319.261,452.121,318.841,452.121z"/>
	</g>
	<g>
		<path style="fill:#251426;" d="M336.606,395.917c-0.23,0-0.464-0.071-0.663-0.219c-0.499-0.365-0.606-1.066-0.238-1.565    c0.024-0.034,2.469-3.404,2.053-6.138c-0.094-0.611,0.328-1.183,0.938-1.275c0.604-0.09,1.183,0.326,1.275,0.938    c0.555,3.658-2.34,7.636-2.464,7.803C337.288,395.76,336.949,395.917,336.606,395.917z"/>
		<path style="fill:#251426;" d="M332.917,386.865c-0.23,0-0.464-0.071-0.663-0.218c-0.499-0.366-0.606-1.067-0.241-1.565    c0.026-0.034,2.469-3.405,2.056-6.14c-0.094-0.611,0.328-1.182,0.938-1.275c0.606-0.072,1.183,0.329,1.275,0.94    c0.553,3.657-2.34,7.634-2.464,7.802C333.599,386.708,333.26,386.865,332.917,386.865z"/>
		<path style="fill:#251426;" d="M330.129,401.399c-0.23,0-0.464-0.071-0.663-0.218c-0.499-0.366-0.606-1.067-0.241-1.565    c0.026-0.034,2.469-3.405,2.056-6.139c-0.094-0.611,0.328-1.182,0.938-1.274c0.606-0.084,1.183,0.327,1.275,0.939    c0.553,3.656-2.34,7.633-2.465,7.801C330.811,401.242,330.472,401.399,330.129,401.399z"/>
		<path style="fill:#251426;" d="M341.71,380.461c-0.23,0-0.464-0.071-0.663-0.219c-0.499-0.365-0.606-1.066-0.238-1.565    c0.024-0.034,2.469-3.405,2.053-6.138c-0.094-0.611,0.328-1.182,0.938-1.275c0.604-0.085,1.183,0.326,1.275,0.938    c0.555,3.657-2.34,7.635-2.464,7.803C342.392,380.304,342.053,380.461,341.71,380.461z"/>
		<path style="fill:#251426;" d="M347.566,363.327c-0.16,0-0.324-0.035-0.477-0.107c-0.56-0.264-0.798-0.93-0.536-1.49    c0.017-0.037,1.767-3.815,0.835-6.419c-0.208-0.582,0.094-1.224,0.676-1.431c0.582-0.21,1.225,0.095,1.432,0.677    c1.246,3.482-0.829,7.942-0.918,8.13C348.386,363.089,347.986,363.327,347.566,363.327z"/>
		<path style="fill:#251426;" d="M330.374,376.146c-0.16,0-0.321-0.035-0.477-0.107c-0.56-0.264-0.798-0.93-0.536-1.489    c0.018-0.038,1.765-3.816,0.833-6.42c-0.208-0.582,0.094-1.224,0.676-1.431c0.584-0.21,1.225,0.095,1.432,0.677    c1.246,3.481-0.827,7.941-0.916,8.129C331.196,375.908,330.794,376.146,330.374,376.146z"/>
		<path style="fill:#251426;" d="M339.088,359.265c-0.16,0-0.324-0.035-0.477-0.107c-0.56-0.263-0.798-0.93-0.536-1.49    c0.017-0.037,1.767-3.816,0.835-6.419c-0.208-0.582,0.094-1.222,0.676-1.431c0.584-0.21,1.225,0.095,1.432,0.677    c1.246,3.481-0.829,7.942-0.918,8.13C339.908,359.027,339.508,359.265,339.088,359.265z"/>
		<path style="fill:#251426;" d="M337.973,373.787c-0.23,0-0.464-0.071-0.663-0.218c-0.499-0.366-0.606-1.067-0.241-1.565    c0.026-0.034,2.469-3.406,2.056-6.14c-0.094-0.611,0.328-1.182,0.938-1.274c0.604-0.086,1.183,0.327,1.275,0.939    c0.553,3.656-2.34,7.634-2.465,7.801C338.655,373.63,338.316,373.787,337.973,373.787z"/>
	</g>
	<g>
		<path style="fill:#251426;" d="M273.277,218.901c-0.12,0-0.243-0.02-0.363-0.061c-0.584-0.199-0.897-0.835-0.695-1.42    c0.013-0.039,1.332-3.988,0.118-6.473c-0.271-0.557-0.042-1.227,0.514-1.498c0.558-0.269,1.227-0.042,1.498,0.514    c1.625,3.323,0.055,7.985-0.013,8.183C274.176,218.609,273.743,218.901,273.277,218.901z"/>
		<path style="fill:#251426;" d="M257.902,206.605c-0.23,0-0.464-0.071-0.663-0.218c-0.499-0.366-0.606-1.067-0.241-1.565    c0.026-0.034,2.469-3.405,2.056-6.14c-0.094-0.611,0.328-1.182,0.938-1.275c0.612-0.071,1.183,0.329,1.275,0.94    c0.553,3.657-2.34,7.634-2.465,7.802C258.584,206.447,258.245,206.605,257.902,206.605z"/>
		<path style="fill:#251426;" d="M255.114,221.139c-0.23,0-0.464-0.071-0.663-0.218c-0.499-0.366-0.606-1.067-0.241-1.565    c0.026-0.034,2.469-3.405,2.056-6.139c-0.094-0.611,0.328-1.182,0.938-1.274c0.601-0.082,1.183,0.328,1.275,0.939    c0.553,3.656-2.34,7.633-2.465,7.801C255.796,220.982,255.457,221.139,255.114,221.139z"/>
		<path style="fill:#251426;" d="M268.884,202.038c-0.177,0-0.356-0.043-0.525-0.131c-0.545-0.29-0.752-0.968-0.464-1.513    c0.02-0.037,1.946-3.727,1.139-6.372c-0.179-0.592,0.153-1.218,0.746-1.397c0.59-0.184,1.216,0.154,1.397,0.743    c1.078,3.537-1.207,7.893-1.306,8.077C269.671,201.822,269.284,202.038,268.884,202.038z"/>
		<path style="fill:#251426;" d="M272.551,183.066c-0.16,0-0.324-0.035-0.477-0.107c-0.56-0.264-0.798-0.93-0.536-1.49    c0.017-0.037,1.767-3.815,0.835-6.419c-0.208-0.582,0.094-1.223,0.676-1.431c0.586-0.207,1.225,0.095,1.432,0.677    c1.246,3.482-0.829,7.942-0.918,8.13C273.371,182.829,272.971,183.066,272.551,183.066z"/>
		<path style="fill:#251426;" d="M264.875,217.718c-0.16,0-0.321-0.035-0.477-0.107c-0.56-0.264-0.798-0.93-0.536-1.489    c0.018-0.038,1.765-3.816,0.833-6.42c-0.208-0.582,0.094-1.224,0.676-1.431c0.586-0.21,1.225,0.095,1.432,0.677    c1.246,3.481-0.827,7.941-0.916,8.129C265.698,217.481,265.295,217.718,264.875,217.718z"/>
		<path style="fill:#251426;" d="M264.073,179.004c-0.16,0-0.324-0.035-0.477-0.107c-0.56-0.264-0.798-0.93-0.536-1.49    c0.017-0.037,1.767-3.816,0.835-6.419c-0.208-0.582,0.094-1.222,0.676-1.431c0.582-0.211,1.225,0.095,1.432,0.677    c1.246,3.481-0.829,7.942-0.918,8.13C264.893,178.767,264.493,179.004,264.073,179.004z"/>
		<path style="fill:#251426;" d="M262.958,193.527c-0.23,0-0.464-0.071-0.663-0.218c-0.499-0.366-0.606-1.067-0.241-1.565    c0.026-0.034,2.469-3.406,2.056-6.14c-0.094-0.611,0.328-1.182,0.938-1.274c0.61-0.085,1.183,0.327,1.275,0.939    c0.553,3.656-2.34,7.634-2.465,7.801C263.64,193.369,263.301,193.527,262.958,193.527z"/>
	</g>
	<g>
		<path style="fill:#251426;" d="M145.502,474.619c-0.411,0-0.807-0.229-1.004-0.622c-0.092-0.187-2.25-4.609-1.067-8.112    c0.199-0.585,0.822-0.903,1.419-0.703c0.586,0.198,0.901,0.833,0.702,1.418c-0.737,2.187,0.437,5.363,0.953,6.402    c0.273,0.554,0.048,1.226-0.507,1.501C145.838,474.582,145.67,474.619,145.502,474.619z"/>
		<path style="fill:#251426;" d="M150.711,466.348c-0.411,0-0.807-0.229-1.004-0.622c-0.092-0.187-2.25-4.608-1.067-8.112    c0.199-0.585,0.824-0.902,1.419-0.703c0.586,0.197,0.901,0.832,0.702,1.418c-0.883,2.621,0.936,6.366,0.953,6.403    c0.273,0.554,0.046,1.226-0.507,1.499C151.047,466.311,150.877,466.348,150.711,466.348z"/>
		<path style="fill:#251426;" d="M150.925,481.146c-0.411,0-0.807-0.229-1.004-0.622c-0.092-0.187-2.25-4.608-1.067-8.112    c0.197-0.585,0.827-0.902,1.419-0.703c0.586,0.197,0.901,0.832,0.702,1.418c-0.883,2.621,0.936,6.366,0.953,6.403    c0.273,0.554,0.046,1.226-0.507,1.499C151.262,481.109,151.091,481.146,150.925,481.146z"/>
		<path style="fill:#251426;" d="M143.166,458.509c-0.411,0-0.807-0.229-1.004-0.622c-0.092-0.187-2.25-4.608-1.067-8.112    c0.197-0.586,0.824-0.899,1.419-0.703c0.586,0.197,0.901,0.832,0.702,1.418c-0.883,2.621,0.936,6.366,0.953,6.403    c0.273,0.554,0.046,1.226-0.507,1.499C143.503,458.472,143.332,458.509,143.166,458.509z"/>
		<path style="fill:#251426;" d="M140.385,440.618c-0.492,0-0.945-0.327-1.08-0.824c-0.055-0.201-1.321-4.955,0.51-8.165    c0.308-0.539,0.995-0.724,1.529-0.419c0.536,0.307,0.724,0.991,0.418,1.527c-1.144,2.004-0.601,5.348-0.295,6.466    c0.162,0.597-0.188,1.213-0.785,1.375C140.581,440.606,140.481,440.618,140.385,440.618z"/>
		<path style="fill:#251426;" d="M155.08,456.235c-0.492,0-0.943-0.327-1.078-0.824c-0.055-0.201-1.321-4.955,0.512-8.167    c0.308-0.54,0.995-0.724,1.529-0.417c0.536,0.306,0.724,0.991,0.418,1.527c-1.371,2.401-0.308,6.427-0.297,6.467    c0.162,0.596-0.19,1.211-0.787,1.373C155.277,456.222,155.178,456.235,155.08,456.235z"/>
		<path style="fill:#251426;" d="M149.438,438.094c-0.492,0-0.942-0.327-1.078-0.824c-0.055-0.201-1.321-4.954,0.512-8.167    c0.308-0.541,0.997-0.725,1.529-0.417c0.536,0.306,0.724,0.991,0.418,1.527c-1.371,2.402-0.308,6.427-0.297,6.467    c0.162,0.596-0.19,1.21-0.787,1.373C149.635,438.08,149.536,438.094,149.438,438.094z"/>
		<path style="fill:#251426;" d="M148.01,452.589c-0.411,0-0.807-0.229-1.004-0.622c-0.092-0.187-2.25-4.609-1.067-8.112    c0.199-0.586,0.827-0.899,1.419-0.703c0.586,0.198,0.901,0.833,0.702,1.418c-0.737,2.187,0.437,5.363,0.953,6.402    c0.273,0.554,0.048,1.226-0.507,1.501C148.347,452.551,148.178,452.589,148.01,452.589z"/>
	</g>
	<path style="fill:#251426;" d="M176.696,509.221c-0.717,0-1.41-0.3-2.007-0.878c-3.866-3.743-7.938-13.701-9.989-19.209   c-1.579,6.79-5.336,19.552-11.323,19.794c-0.055,0.002-0.112,0.003-0.166,0.003c-7.645,0.001-12.546-21.52-13.081-23.99   c-0.131-0.605,0.251-1.201,0.855-1.333c0.617-0.133,1.201,0.253,1.332,0.856c1.892,8.689,6.521,22.421,10.969,22.226   c4.465-0.18,8.522-13.516,10.031-21.881c0.092-0.503,0.512-0.881,1.021-0.917c0.551-0.026,0.98,0.279,1.144,0.762   c0.057,0.172,5.808,17.28,10.765,22.079c0.313,0.303,0.472,0.258,0.577,0.227c2.965-0.876,7.525-15.222,9.814-25.13   c0.14-0.601,0.737-0.976,1.343-0.839c0.604,0.14,0.98,0.741,0.84,1.344c-0.971,4.196-6.077,25.212-11.362,26.773   C177.203,509.183,176.947,509.221,176.696,509.221z"/>
	<path style="fill:#251426;" d="M386.473,209.565c-0.212,0-0.426-0.06-0.617-0.185c-0.516-0.34-0.658-1.034-0.319-1.55   c3.236-4.91,11.511-18.72,10.962-23.59c-0.044-0.396-0.188-0.461-0.293-0.51c-2.502-1.146-12.959,4.739-19.593,9.281   c-0.411,0.286-0.967,0.257-1.354-0.067c-0.385-0.324-0.505-0.865-0.297-1.322c0.077-0.166,7.597-16.738,7.002-23.259   c-0.024-0.273-0.081-0.363-0.081-0.364c-0.028-0.004-0.055-0.007-0.085-0.007c-1.784,0-9.652,7.497-17.289,16.664   c-0.394,0.477-1.1,0.538-1.577,0.144c-0.475-0.396-0.538-1.102-0.142-1.577c4.669-5.605,15.942-18.502,19.86-17.292   c0.514,0.161,1.402,0.664,1.544,2.227c0.475,5.214-3.444,15.523-5.694,20.925c5.342-3.406,15.049-9.034,18.638-7.391   c0.903,0.413,1.467,1.228,1.588,2.294c0.739,6.557-10.081,23.197-11.317,25.072C387.193,209.387,386.836,209.565,386.473,209.565z"/>
	<path style="fill:#251426;" d="M366.924,425.566c-0.61,0-1.238-0.054-1.883-0.162c-2.974-0.495-5.301-1.882-6.775-3.964   c-0.953,0.661-2.051,1.233-3.306,1.676c-2.058,0.724-3.925,0.525-5.55-0.594c-5.572-3.833-6.003-17.757-6.018-18.347   c-0.015-0.618,0.472-1.133,1.089-1.149c0.011,0,0.022,0,0.031,0c0.606,0,1.102,0.482,1.12,1.09   c0.098,3.709,1.198,13.916,5.047,16.562c1.019,0.701,2.171,0.807,3.538,0.326c1.15-0.406,2.139-0.937,2.983-1.55   c-0.28-0.713-0.481-1.478-0.604-2.293c-0.575-3.812,0.813-7.838,3.09-8.978c0.846-0.423,1.743-0.377,2.449,0.133   c1.124,0.811,1.62,2.72,1.295,4.983c-0.308,2.145-1.373,4.643-3.429,6.696c0.945,1.417,2.583,2.729,5.408,3.2   c2.355,0.391,4.304-0.092,5.946-1.483c3.676-3.113,4.507-9.756,4.507-10.849c0-0.619,0.501-1.12,1.12-1.12   c0.619,0,1.12,0.501,1.12,1.12c0,1.601-0.943,8.868-5.299,12.558C371.118,424.847,369.147,425.566,366.924,425.566z    M360.818,410.128c-1.222,0.604-2.495,3.462-2.01,6.7c0.044,0.29,0.107,0.61,0.199,0.949c1.459-1.722,2.145-3.702,2.263-5.331   C361.38,410.935,360.971,410.209,360.818,410.128z"/>
	<path style="fill:#251426;" d="M268.72,78.653c-0.208,0-0.42-0.058-0.606-0.178l-25.528-16.451   c-0.52-0.336-0.671-1.028-0.335-1.548c0.335-0.519,1.032-0.668,1.546-0.335l25.528,16.451c0.52,0.336,0.671,1.028,0.335,1.548   C269.446,78.472,269.087,78.653,268.72,78.653z"/>
	<path style="fill:#251426;" d="M285.171,59.366c-0.276,0-0.549-0.101-0.765-0.303l-27.23-25.527   c-0.451-0.423-0.475-1.132-0.052-1.582c0.424-0.454,1.133-0.471,1.583-0.051l27.23,25.527c0.45,0.423,0.475,1.132,0.052,1.582   C285.768,59.247,285.468,59.366,285.171,59.366z"/>
	<path style="fill:#251426;" d="M305.593,48.021c-0.405,0-0.796-0.221-0.995-0.606l-18.152-35.171   c-0.284-0.55-0.068-1.226,0.481-1.509c0.551-0.279,1.227-0.068,1.509,0.481l18.152,35.171c0.284,0.55,0.068,1.226-0.481,1.509   C305.943,47.981,305.766,48.021,305.593,48.021z"/>
	<path style="fill:#251426;" d="M324.881,47.454c-0.155,0-0.311-0.032-0.459-0.098c-0.564-0.254-0.816-0.916-0.562-1.48   l15.316-34.036c0.254-0.566,0.925-0.811,1.48-0.562c0.564,0.254,0.816,0.916,0.562,1.48l-15.316,34.036   C325.716,47.209,325.307,47.454,324.881,47.454z"/>
	<path style="fill:#251426;" d="M340.197,64.472c-0.346,0-0.689-0.161-0.908-0.463c-0.363-0.501-0.249-1.202,0.251-1.564   l32.902-23.826c0.494-0.364,1.201-0.251,1.564,0.249c0.363,0.501,0.249,1.202-0.251,1.564l-32.902,23.826   C340.656,64.403,340.424,64.472,340.197,64.472z"/>
	<path style="fill:#251426;" d="M350.407,87.73c-0.499,0-0.951-0.333-1.082-0.838c-0.157-0.598,0.201-1.209,0.8-1.366l39.143-10.21   c0.608-0.154,1.209,0.204,1.365,0.801c0.157,0.598-0.201,1.209-0.8,1.366l-39.143,10.21   C350.595,87.718,350.499,87.73,350.407,87.73z"/>
	<path style="fill:#251426;" d="M393.521,118.363c-0.028,0-0.057-0.001-0.085-0.003l-38.575-2.836   c-0.617-0.045-1.078-0.582-1.034-1.198c0.046-0.618,0.599-1.084,1.201-1.034l38.575,2.836c0.617,0.045,1.078,0.582,1.034,1.198   C394.593,117.915,394.101,118.363,393.521,118.363z"/>
	<path style="fill:#251426;" d="M381.608,150.698c-0.096,0-0.195-0.012-0.291-0.038l-29.5-7.942   c-0.597-0.161-0.951-0.775-0.789-1.372c0.162-0.596,0.781-0.946,1.371-0.791l29.5,7.942c0.597,0.161,0.951,0.775,0.789,1.372   C382.555,150.369,382.102,150.698,381.608,150.698z"/>
	<path style="fill:#251426;" d="M185.898,58.232c-0.479,0-0.921-0.308-1.069-0.788c-0.184-0.59,0.147-1.218,0.739-1.401   l23.825-7.375c0.59-0.184,1.218,0.149,1.4,0.738c0.184,0.59-0.147,1.218-0.739,1.401l-23.825,7.375   C186.119,58.216,186.007,58.232,185.898,58.232z"/>
	<path style="fill:#251426;" d="M170.013,46.886c-0.216,0-0.433-0.061-0.625-0.19c-0.512-0.346-0.649-1.041-0.304-1.554   l23.259-34.604c0.348-0.515,1.045-0.647,1.555-0.305c0.512,0.346,0.649,1.041,0.304,1.554l-23.259,34.604   C170.726,46.712,170.372,46.886,170.013,46.886z"/>
	<path style="fill:#251426;" d="M151.859,44.617c-0.569,0-1.056-0.433-1.113-1.011l-3.971-40.843   c-0.059-0.616,0.391-1.162,1.006-1.222c0.621-0.048,1.163,0.39,1.225,1.006l3.971,40.843c0.059,0.616-0.391,1.162-1.006,1.222   C151.933,44.615,151.896,44.617,151.859,44.617z"/>
	<path style="fill:#251426;" d="M134.843,52.559c-0.304,0-0.608-0.124-0.829-0.367l-22.124-24.392   c-0.415-0.458-0.381-1.167,0.077-1.581c0.457-0.413,1.166-0.382,1.581,0.077l22.124,24.392c0.415,0.458,0.381,1.167-0.077,1.581   C135.381,52.462,135.112,52.559,134.843,52.559z"/>
	<path style="fill:#251426;" d="M90.596,73.548c-0.61,0-1.109-0.489-1.12-1.101c-0.011-0.619,0.483-1.128,1.102-1.138l34.604-0.567   c0.004,0,0.011,0,0.017,0c0.61,0,1.109,0.489,1.12,1.101c0.011,0.619-0.483,1.128-1.102,1.138l-34.604,0.567   C90.609,73.548,90.603,73.548,90.596,73.548z"/>
	<path style="fill:#251426;" d="M117.257,127.439c-0.317,0-0.63-0.133-0.853-0.394c-0.4-0.47-0.343-1.178,0.127-1.578l15.316-13.047   c0.468-0.401,1.174-0.346,1.579,0.126c0.4,0.47,0.343,1.178-0.127,1.579l-15.316,13.047   C117.773,127.352,117.515,127.439,117.257,127.439z"/>
	<path style="fill:#251426;" d="M95.134,105.883c-0.448,0-0.873-0.271-1.043-0.715c-0.225-0.576,0.061-1.225,0.639-1.449   l27.796-10.779c0.577-0.22,1.225,0.061,1.448,0.64c0.225,0.576-0.061,1.225-0.639,1.449l-27.796,10.779   C95.405,105.859,95.269,105.883,95.134,105.883z"/>
	<g>
		<path style="fill:#FFFFFF;" d="M301.217,262.768l1.767,13.749l0.203,1.933l0.159,1.81l0.854-0.09l1.863-0.261    c1.774-0.187,2.718,0.259,2.832,1.337c0.058,0.549-0.109,1.042-0.501,1.478c-0.392,0.437-0.873,0.686-1.443,0.745l-2.851,0.3    c-1.965,0.207-3.226,0.297-3.784,0.271c-0.333,0.078-0.595,0.126-0.786,0.146c-1.542,0.162-2.364-0.242-2.467-1.214    c-0.042-0.401,0.045-0.795,0.261-1.181c0.215-0.386,0.449-0.604,0.701-0.651l1.838-0.193l0.036-0.869l-1.894-13.735l-1.171-14.485    c-0.26-2.472-0.61-4.784-1.05-6.938l-1.236,0.13l-1.482,0.221c-0.634,0.067-1.143-0.003-1.527-0.208    c-0.385-0.205-0.613-0.646-0.684-1.322c-0.104-0.993,0.91-1.601,3.044-1.826l7.731-0.813c1.753-0.185,2.678,0.178,2.773,1.086    c0.042,0.401-0.109,0.791-0.454,1.169s-0.76,0.593-1.246,0.644l-3.327,0.35c0.356,1.757,0.651,3.754,0.887,5.993L301.217,262.768z    "/>
	</g>
	<path style="fill:#E33961;" d="M347.777,282.697c0,0-44.799-32.811-29.025-44.799c9.344-7.102,24.608,10.727,24.608,10.727   s11.837-21.107,20.191-17.667C385.004,239.79,347.777,282.697,347.777,282.697z"/>
	<g>
		<path style="fill:#FFFFFF;" d="M329.771,330.783c0.459,2.874-0.014,4.422-1.419,4.646c-0.776,0.123-1.449-0.252-2.019-1.129    c0.332-1.021-0.008-4.699-1.02-11.033c-0.184-1.153-0.561-2.771-1.129-4.853c-0.569-2.081-0.947-3.569-1.133-4.465l-0.266-1.668    c-0.114-0.175-1.056-1.767-2.827-4.775c-4.001-6.738-6.112-10.8-6.333-12.185l-0.055-0.346l1.276-1.301    c1.325-0.19,3.429,2.884,6.312,9.219c1.259,2.769,1.891,4.163,1.894,4.184c0.09-0.509,0.17-2.167,0.238-4.975    c0.167-7.168,0.955-10.864,2.36-11.089c0.398-0.063,0.78,0.006,1.146,0.206c0.365,0.198,0.58,0.498,0.643,0.896    c0.342,2.14,0.225,5.347-0.351,9.622c-0.576,4.275-0.714,7.486-0.414,9.633L329.771,330.783z"/>
		<path style="fill:#FFFFFF;" d="M333.751,313.468l-0.329-2.464c-0.034-0.209-0.082-0.31-0.145-0.3l-0.186-1.164    c-1.078-6.753-1.457-11.618-1.136-14.595c0.265-2.516,0.656-4.105,1.174-4.77c0.518-0.663,1.07-1.042,1.658-1.136    c4.992-0.797,8.833,1.171,11.525,5.903c1.553,2.722,2.667,6.2,3.344,10.437l0.075,0.472l1.292,7.279    c1.972,12.354,0.095,18.987-5.631,19.901c-2.37,0.379-4.393-0.643-6.07-3.063c-1.598-2.326-2.727-4.684-3.388-7.073    C334.907,319.295,334.18,316.152,333.751,313.468z M336.151,304.051l0.634,5.996c0.995,6.23,2.365,11.582,4.112,16.057    c1.502,2.534,2.773,3.967,3.815,4.295c0.776-0.123,1.429-0.551,1.957-1.28c0.529-0.73,0.893-1.654,1.09-2.771    s0.329-2.284,0.393-3.498c0.046-1.191,0.028-2.456-0.057-3.799c-0.156-2.319-0.363-4.286-0.621-5.901    c-0.257-1.615-0.794-4.067-1.61-7.357c-0.815-3.289-1.354-5.753-1.615-7.388l-0.181-1.134c-0.292-1.566-1.03-2.885-2.212-3.953    c-1.182-1.069-2.538-1.482-4.069-1.238c-1.468,0.234-2.311,1.219-2.529,2.952c-0.177,1.447-0.104,3.189,0.221,5.225    L336.151,304.051z"/>
		<path style="fill:#FFFFFF;" d="M368.804,298.612l0.239,1.091c3.043,19.066,1.797,29.04-3.741,29.924    c-2.136,0.363-3.859-0.255-5.167-1.852c-1.358-1.634-2.295-3.322-2.81-5.068c-0.796-2.691-1.503-5.81-2.123-9.357    c-0.62-3.546-1.465-8.675-2.537-15.388l-1.755-9.173c0.254-0.966,0.639-1.488,1.153-1.57c0.513-0.082,1.032,0.237,1.556,0.961    c0.524,0.724,0.857,1.524,0.998,2.405l2.797,17.523c0.245,1.531,0.759,3.783,1.546,6.755c0.786,2.973,1.302,5.224,1.546,6.754    c0.502,3.146,2.117,4.502,4.843,4.066c3.062-0.488,2.75-12.279-0.936-35.372l-0.578-3.618l-0.202-1.064    c-0.08-0.504-0.026-0.899,0.165-1.188c0.19-0.289,0.573-0.479,1.15-0.571s1.027-0.067,1.351,0.075    c0.299,0.124,0.539,0.343,0.719,0.659c0.251,0.497,0.456,1.175,0.615,2.03l0.594,6.552L368.804,298.612z"/>
	</g>
</g>















</svg>
