<?xml version="1.0" encoding="UTF-8"?>
<!-- Generator: Adobe Illustrator 25.2.0, SVG Export Plug-In . SVG Version: 6.00 Build 0)  -->
<svg xmlns="http://www.w3.org/2000/svg" xmlns:xlink="http://www.w3.org/1999/xlink" version="1.1" id="Capa_1" x="0px" y="0px" viewBox="0 0 512 512" style="enable-background:new 0 0 512 512;" xml:space="preserve" width="512" height="512">
<g>
	<path style="fill:#EB818A;" d="M345.465,437.237c0,0,9.231,51.648-1.967,55.275c-11.198,3.627-26.345,5.1-29.217,0.973   c-2.872-4.127-8.981-58.683-8.981-58.683L345.465,437.237z"/>
	<path style="fill:#EB818A;" d="M224.567,446.498c0,0-6.551,52.056-18.321,52.188c-11.77,0.131-26.669-2.967-28.183-7.762   c-1.514-4.795,8.882-58.698,8.882-58.698L224.567,446.498z"/>
	<g>
		<path style="fill:#F9DEC1;" d="M345.494,385.244c0,0,39.378,24.545,14.256,51.827c-11.172,12.133-13.784-8.541-6.892-4.27    c6.892,4.27,6.141,25.375-9.22,32.879c-15.361,7.504-25.737-11.985-16.692-11.663c9.045,0.322-0.644,18.09-23.58,12.243    s-10.832-64.453-5.104-54.52c9.478,16.438-32.192,28.037-18.845-7.714"/>
		<path style="fill:#251626;" d="M312.214,468.434c-2.769,0-5.809-0.361-9.096-1.2c-12.188-3.107-14.133-19.323-14.208-28.714    c-0.026-3.353,0.189-6.922,0.6-10.363c-3.143,0.662-6.459,0.357-9.114-1.41c-3.151-2.098-7.591-7.886-1.921-23.073    c0.193-0.521,0.773-0.782,1.293-0.591c0.521,0.194,0.785,0.774,0.59,1.294c-3.842,10.292-3.433,17.642,1.152,20.696    c2.382,1.585,5.433,1.732,8.277,0.984c1.221-8.401,3.606-15.597,6.478-16.379c0.631-0.175,1.854-0.202,2.868,1.558    c2.618,4.541,1.862,9.428-2.024,13.071c-1.473,1.381-3.402,2.526-5.505,3.264c-0.446,3.355-0.713,7.059-0.683,10.932    c0.07,8.811,1.812,24.008,12.693,26.781c9.793,2.498,17.144,0.554,21.448-2.459c-2.137-2.62-3.026-5.572-2.177-7.601    c0.361-0.868,1.381-2.272,4.096-2.214c2.647,0.094,3.644,1.469,4.003,2.28c0.795,1.797,0.111,4.243-1.832,6.539    c-0.339,0.401-0.718,0.799-1.137,1.188c1.815,1.624,7.373,5.572,15.181,1.758c8.9-4.347,12.443-13.276,12.789-20.181    c0.057-1.127,0.031-2.216-0.07-3.245c-2.639,1.212-4.459,0.381-5.477-0.44c-2.559-2.076-3.013-6.488-1.575-8.511    c0.378-0.53,1.818-2.131,4.522-0.454c1.839,1.139,3.206,3.288,3.965,6.059c0.536-0.458,1.089-0.996,1.659-1.615    c6.245-6.782,8.905-13.973,7.906-21.37c-2.22-16.432-21.757-28.8-21.954-28.924c-0.471-0.293-0.615-0.913-0.321-1.385    c0.294-0.471,0.912-0.619,1.386-0.32c0.837,0.52,20.529,12.979,22.881,30.354c1.086,8.02-1.746,15.762-8.418,23.008    c-0.957,1.039-1.851,1.844-2.683,2.459c0.201,1.396,0.269,2.903,0.19,4.484c-0.376,7.477-4.23,17.155-13.917,21.886    c-6.269,3.066-12.859,2.21-17.637-2.28C323.196,466.642,318.372,468.434,312.214,468.434z M326.724,455.018    c-1.044,0-1.71,0.33-1.983,0.98c-0.484,1.161,0.126,3.4,1.889,5.566c0.363-0.34,0.692-0.685,0.987-1.033    c1.391-1.644,1.991-3.382,1.529-4.425c-0.374-0.845-1.422-1.057-2.235-1.084C326.848,455.02,326.785,455.018,326.724,455.018z     M351.146,433.215c-0.394,0-0.559,0.232-0.641,0.35c-0.816,1.147-0.536,4.374,1.202,5.782c1.006,0.815,2.333,0.776,3.882-0.086    c-0.578-2.624-1.718-4.649-3.26-5.606C351.794,433.325,351.416,433.215,351.146,433.215z M296.815,411.617    c-0.008,0-0.015,0-0.022,0.002c-1.35,0.367-3.563,5.833-4.852,13.684c1.435-0.632,2.745-1.481,3.793-2.463    c3.204-3.005,3.808-6.869,1.658-10.598C297.177,411.87,296.942,411.617,296.815,411.617z"/>
	</g>
	<g>
		<path style="fill:#F9DEC1;" d="M205.486,382.933c0,0-45.616,8.5-32.17,43.063c5.98,15.371,15.949-2.928,7.974-1.464    c-7.974,1.464-14.97,21.39-3.401,33.977s28.335-1.777,19.795-4.775c-8.54-2.998-6.173,20.374,17.494,19.997    c34.589-0.552,31.811-59.671,22.856-52.51c-14.818,11.851,26.259,29.252,26.865-8.905"/>
		<path style="fill:#251626;" d="M214.595,474.74c-13.724,0-19.164-7.668-20.872-10.987c-5.885,2.058-12.031,0.381-16.574-4.565    c-7.296-7.937-7.356-18.353-4.978-25.455c0.502-1.499,1.114-2.877,1.81-4.103c-0.551-0.876-1.089-1.952-1.602-3.268    c-3.572-9.18-3.386-17.422,0.549-24.495c8.525-15.32,31.405-19.742,32.374-19.922c0.549-0.1,1.071,0.257,1.173,0.803    c0.102,0.546-0.257,1.07-0.803,1.173c-0.229,0.043-22.929,4.437-30.988,18.93c-3.628,6.523-3.772,14.189-0.43,22.78    c0.304,0.784,0.625,1.487,0.956,2.109c1.717-2.306,3.773-3.807,5.9-4.197c3.135-0.564,3.888,1.44,4.046,2.07    c0.602,2.408-1.429,6.352-4.569,7.35c-1.248,0.401-3.246,0.501-5.261-1.585c-0.468,0.919-0.889,1.923-1.247,2.993    c-2.195,6.558-2.152,16.163,4.552,23.458c5.506,5.993,11.661,4.922,14.292,4.066c-1.18-3.333-0.983-6.543,0.576-8.24    c1.101-1.196,2.708-1.505,4.518-0.87c2.568,0.902,2.986,2.614,3.008,3.553c0.053,2.357-2.135,4.971-5.444,6.629    c1.602,3.039,6.562,9.762,19.017,9.762c0.187,0,0.373,0,0.564-0.004c16.383-0.261,22.953-14.212,25.41-22.507    c1.491-5.028,2.163-9.95,2.286-14.254c-3.772-1.063-6.976-3.292-8.363-6.207c-1.533-3.219-0.471-6.615,2.911-9.322    c1.653-1.318,3.018-0.766,3.685-0.316c2.299,1.546,3.741,7.181,3.759,14.258c1.936,0.365,4.032,0.387,6.127-0.069    c4.71-1.025,12.651-5.248,12.916-22.008c0.009-0.556,0.449-1.029,1.021-0.99c0.556,0.01,0.999,0.466,0.99,1.021    c-0.299,18.824-10.239,23.014-14.499,23.941c-2.166,0.473-4.43,0.487-6.588,0.13c-0.157,4.547-0.885,9.554-2.317,14.387    c-2.614,8.823-9.639,23.664-27.307,23.947C214.992,474.74,214.793,474.74,214.595,474.74z M196.268,454.474    c-0.525,0-0.957,0.181-1.289,0.542c-0.885,0.962-1.172,3.29-0.198,6.103c2.709-1.391,4.264-3.402,4.235-4.734    c-0.018-0.748-0.577-1.322-1.664-1.703C196.954,454.543,196.593,454.474,196.268,454.474z M239.51,421.624    c-0.208,0-0.482,0.09-0.848,0.383c-2.668,2.133-3.481,4.514-2.352,6.886c0.986,2.068,3.451,3.964,6.565,4.979    c-0.08-6.389-1.393-11.066-2.908-12.085C239.869,421.72,239.725,421.624,239.51,421.624z M176.393,429.551    c1.126,1.367,2.347,1.888,3.584,1.497c2.132-0.68,3.569-3.581,3.227-4.946c-0.059-0.236-0.219-0.866-1.731-0.579    C179.687,425.849,177.887,427.32,176.393,429.551z"/>
	</g>
	<g>
		<path style="fill:#F9DEC1;" d="M340.106,240.374c0,0,13.409-20.113,35.533,10.727c22.124,30.84-10.727,41.566-16.761,36.203    c-6.034-5.363,15.42-24.806,31.51,7.375s-5.363,57.657-15.42,55.645c-10.056-2.011-4.023-20.113,8.045-13.409    s17.431,28.158-5.363,50.282c0,0-28.158,12.068-25.476-5.363c1.289-8.382,20.783,13.408,3.352,37.544    c-17.431,24.135-51.623,14.079-51.623-0.67c0-14.749,10.056-10.056,12.738-3.352s-16.761,31.51-53.634,26.147    s-26.147-26.147-16.09-23.465s-3.855,30.84-37.376,17.431c-21.608-8.643-29.666-38.214-16.258-46.259    c13.408-8.045,6.034,22.794-24.135,16.09s-26.147-50.282-10.056-55.645s4.693,32.18-14.079-7.375s8.045-60.338,19.442-58.327    c11.397,2.011,4.023,22.794-6.704,14.079c-10.727-8.716-7.375-62.35,30.169-64.361"/>
		<path style="fill:#251626;" d="M273.279,443.269c-3.314,0-6.787-0.246-10.416-0.772c-10.274-1.495-16.571-4.123-20.427-6.837    c-5.422,3.5-16.31,7.525-33.268,0.74c-14.29-5.714-21.944-19.457-23.237-30.281c-4.622,1.357-10.294,1.648-17.002,0.161    c-13.717-3.048-22.383-14.124-23.183-29.625c-0.439-8.511,1.72-16.516,5.472-21.867c-2.18-2.809-4.567-6.709-7.115-12.077    c-12.251-25.815-4.788-41.864,0.751-49.133c2.158-2.83,4.583-5.085,7.043-6.782c-1.087-7.536-0.322-17.135,2.508-25.838    c3.275-10.072,11.976-27.14,33.459-28.291c0.528-0.057,1.028,0.395,1.059,0.951c0.029,0.554-0.396,1.027-0.951,1.057    c-20.284,1.086-28.539,17.324-31.654,26.905c-2.765,8.501-3.402,17.229-2.558,24.039c4.017-2.316,7.97-3.174,10.868-2.656    c3.454,0.609,5.788,2.903,6.405,6.295c0.754,4.152-1.271,8.951-4.61,10.927c-1.646,0.97-5.045,2.096-9.308-1.373    c-2.292-1.862-3.92-5.372-4.833-9.805c-2.036,1.512-4.036,3.439-5.829,5.792c-5.262,6.904-12.328,22.199-0.534,47.049    c2.31,4.869,4.524,8.566,6.58,11.292c1.825-2.119,3.945-3.663,6.272-4.439c6.139-2.047,8.099,1.713,8.553,2.913    c1.227,3.237-0.111,8.012-3.738,9.556c-1.82,0.778-5.751,1.249-11.067-4.798c-3.293,4.95-5.171,12.321-4.766,20.181    c0.75,14.546,8.829,24.925,21.61,27.765c6.539,1.453,12.01,1.12,16.395-0.247c-0.333-7.138,2.193-12.836,7.005-15.723    c3.958-2.375,5.959-1.387,6.798-0.591c1.621,1.54,1.508,4.714-0.286,8.082c-2.001,3.761-5.816,7.493-11.396,9.626    c1.105,10.608,8.921,23.827,22.033,29.071c15.546,6.218,25.603,2.966,30.837-0.193c-2.273-1.988-3.374-3.932-3.902-5.421    c-1.158-3.27-0.462-6.723,1.863-9.241c2.226-2.412,5.468-3.408,8.463-2.614c1.982,0.528,3.325,1.929,3.782,3.944    c0.87,3.834-1.566,8.988-6.061,12.826c-0.214,0.183-0.45,0.377-0.707,0.577c4.299,2.789,10.79,4.904,18.962,6.093    c20.686,3.009,36.369-3.773,45.174-11.755c-3.437-2.828-5.428-6.366-5.428-10.043c0-8.399,3.223-10.274,5.145-10.644    c3.748-0.74,7.961,2.991,9.533,6.918c1.01,2.526-0.409,6.596-3.792,10.889c-0.709,0.9-1.489,1.795-2.337,2.677    c1.727,1.11,3.75,2.06,6.008,2.791c11.379,3.679,27.308,1.224,37.256-12.551c7.024-9.724,8.028-19.25,6.323-26.534    c-2.845,0.043-5.459-0.46-7.311-1.895c-2.299-1.781-3.154-4.7-2.543-8.678c0.302-1.96,1.421-2.487,2.06-2.626    c1.808-0.385,4.221,1.332,6.293,4.498c1.218,1.86,2.271,4.093,3.021,6.613c5.342-0.438,11.537-2.559,14.529-3.822    c15.041-14.666,15.918-27.229,15.099-33.42c-0.469-3.545-1.677-6.761-3.487-9.432c-4.437,5.574-9.845,8.626-13.924,7.817    c-2.967-0.593-5.036-2.557-5.678-5.392c-0.791-3.482,0.761-7.605,3.688-9.799c1.728-1.294,5.42-3.029,10.721-0.084    c1.941,1.078,3.667,2.473,5.142,4.125c6.674-9.917,10.137-26.447,0.845-45.032c-3.182-6.364-6.467-10.487-9.547-13.122    c-0.595,0.695-1.206,1.308-1.796,1.838c-6.486,5.843-16.553,7.218-19.935,4.213c-1.344-1.196-1.728-3.013-1.052-4.987    c1.14-3.333,5.452-7.081,11.196-7.466c2.685-0.177,6.719,0.326,11.214,3.557c3.378-5.067,5.046-13.824-4.747-27.474    c-7.975-11.117-15.602-16.752-22.673-16.752c-0.068,0-0.135,0-0.202,0.002c-6.965,0.106-10.965,5.938-11.004,5.997    c-0.31,0.462-0.933,0.587-1.395,0.275c-0.461-0.308-0.585-0.931-0.278-1.393c0.184-0.275,4.592-6.753,12.618-6.89    c0.086,0,0.175-0.002,0.261-0.002c7.756,0,15.932,5.916,24.307,17.593c10.579,14.745,8.534,24.33,4.711,29.896    c3.307,2.811,6.794,7.161,10.121,13.816c9.839,19.679,5.901,37.22-1.327,47.565c2.207,3.037,3.67,6.751,4.215,10.866    c0.872,6.586-0.025,19.922-15.826,35.258c-0.088,0.086-0.191,0.155-0.304,0.204c-0.471,0.202-7.989,3.382-14.979,4.023    c1.711,7.733,0.582,17.703-6.726,27.822c-10.54,14.594-27.432,17.192-39.505,13.285c-2.585-0.835-4.892-1.948-6.848-3.264    C302.264,437.227,289.757,443.267,273.279,443.269z M245.11,418.808c-1.796,0-3.587,0.793-4.919,2.237    c-1.809,1.958-2.349,4.651-1.446,7.204c0.631,1.781,1.901,3.437,3.743,4.932c0.418-0.308,0.786-0.605,1.104-0.876    c4.528-3.865,5.976-8.334,5.405-10.852c-0.292-1.287-1.079-2.108-2.339-2.443C246.149,418.874,245.63,418.808,245.11,418.808z     M308.994,409.985c-0.195,0-0.386,0.018-0.571,0.053c-2.233,0.43-3.514,3.59-3.514,8.67c0,3.137,1.786,6.183,4.874,8.65    c0.895-0.905,1.703-1.821,2.421-2.732c3.237-4.105,4.092-7.426,3.504-8.898C314.434,412.544,311.372,409.985,308.994,409.985z     M197.127,388.862c-0.843,0-2.001,0.412-3.326,1.208c-4.018,2.41-6.183,7.202-6.052,13.28c4.761-1.966,8.019-5.197,9.755-8.458    c1.467-2.756,1.451-4.942,0.676-5.678C197.932,388.978,197.573,388.862,197.127,388.862z M353.797,381.01    c-0.047,0-0.09,0.004-0.13,0.012c-0.327,0.071-0.458,0.699-0.499,0.966c-0.499,3.245,0.085,5.464,1.786,6.782    c1.335,1.035,3.294,1.453,5.524,1.477c-0.679-2.119-1.587-4.003-2.627-5.594C356.165,382.076,354.532,381.01,353.797,381.01z     M153.756,354.708c3.776,4.431,6.938,5.511,9.044,4.61c2.526-1.076,3.513-4.706,2.646-6.992c-0.81-2.135-2.957-2.744-6.036-1.717    C157.309,351.308,155.397,352.734,153.756,354.708z M377.87,336.446c-1.425,0-2.742,0.428-3.882,1.283    c-2.323,1.742-3.556,4.999-2.933,7.747c0.329,1.453,1.31,3.304,4.112,3.863c3.364,0.672,8.297-2.337,12.271-7.501    c-1.391-1.634-3.041-3.003-4.911-4.042C380.908,336.895,379.332,336.446,377.87,336.446z M154.09,287.776    c0.813,4.464,2.319,7.868,4.296,9.475c2.493,2.025,4.917,2.443,7.016,1.2c2.618-1.548,4.257-5.511,3.654-8.835    c-0.269-1.479-1.246-4.052-4.776-4.675C161.675,284.488,157.908,285.409,154.09,287.776z M369.309,277.584    c-0.288,0-0.561,0.01-0.821,0.026c-4.876,0.328-8.496,3.392-9.427,6.11c-0.288,0.841-0.437,2.013,0.485,2.832    c2.445,2.174,11.333,1.129,17.253-4.201c0.512-0.462,1.04-0.992,1.556-1.591C374.808,278.225,371.623,277.584,369.309,277.584z"/>
	</g>
	<path style="fill:#EB818A;" d="M238.124,87.279c0,0-20.274-74.759-46.249-70.324s22.174,77.927,32.945,80.461   C235.59,99.95,238.124,87.279,238.124,87.279z"/>
	<path style="fill:#EB818A;" d="M296.621,84.435c0,0,17.744-75.4-7.212-83.86c-24.956-8.46-17.58,79.09-9.313,86.444   C288.362,94.374,296.621,84.435,296.621,84.435z"/>
	<path style="fill:#251626;" d="M216.584,85.751c-0.377,0-0.739-0.212-0.91-0.575c-3.947-8.365-23.434-50.362-19.421-55.738   c0.488-0.653,1.241-0.936,2.111-0.805c8.565,1.317,27.198,49.046,29.294,54.485c0.2,0.519-0.058,1.1-0.576,1.3   c-0.518,0.198-1.101-0.059-1.299-0.577c-7.757-20.121-22.144-52.362-27.725-53.22c-2.521,1.719,6.274,25.809,19.435,53.696   c0.237,0.503,0.022,1.102-0.48,1.34C216.874,85.72,216.727,85.751,216.584,85.751z"/>
	<path style="fill:#251626;" d="M290.076,88.285c-0.021,0-0.04,0-0.061-0.002c-0.554-0.033-0.977-0.509-0.944-1.063   c1.844-31.055,1.441-63.805-2.428-64.86c-4.143,3.138-5.284,39.915-5.065,62.375c0.005,0.556-0.441,1.01-0.996,1.015   c-0.003,0-0.007,0-0.01,0c-0.551,0-1-0.444-1.006-0.996c-0.001-0.147-0.136-14.847,0.45-29.91   c1.077-27.695,3.508-32.677,5.242-34.016c0.583-0.449,1.246-0.589,1.914-0.41c7.197,1.962,4.809,51.716,3.906,66.918   C291.047,87.872,290.604,88.285,290.076,88.285z"/>
	<g>
		<path style="fill:#F9DEC1;" d="M181.216,245.738c0,0-33.354-61.512-1.173-81.624s21.956,18.94,8.548,9.554    c-13.409-9.386-21.286-51.958,1.508-53.299s17.431,18.94,4.023,5.531c-13.409-13.409,8.213-57.489,29.666-54.807    s29.086,20.77,14.336,18.088c-14.749-2.682,4.566-40.091,36.746-25.342s23.441,31.678,17.106,28.51    c-18.306-9.153,23.411-17.579,35.479,2.534s-2.504,53.44-14.572,49.417c-12.068-4.023,21.658-20.703,31.044,10.137    c9.386,30.84,4.435,55.119-13.305,53.218c-27.485-2.945,13.643-36.129,19.007-1.267s-10.137,41.814-10.137,41.814"/>
		<path style="fill:#251626;" d="M339.494,249.206c-0.385,0-0.751-0.222-0.918-0.593c-0.228-0.509-0.001-1.102,0.506-1.33    c0.143-0.067,14.715-7.197,9.555-40.744c-0.467-3.039-1.194-5.48-2.087-7.434c-0.757,1.656-1.656,3.123-2.696,4.38    c-3.28,3.966-7.902,5.757-13.337,5.168c-9.053-0.97-10.325-5.014-10.278-7.338c0.11-5.435,7.381-11.241,14.68-11.726    c2.545-0.165,7.433,0.242,11.19,4.948c2.74-9.579,1.708-23.876-3.142-39.809c-3.78-12.419-11.207-16.241-16.891-17.233    c-0.57,0.89-1.159,1.715-1.76,2.465c-3.758,4.684-7.928,6.564-11.749,5.293c-3.081-1.027-3.355-2.771-3.245-3.718    c0.348-2.98,5.26-5.731,11.185-6.266c1.017-0.088,2.609-0.149,4.516,0.079c5.734-9.856,9.125-27.36,1.572-39.949    c-5.711-9.518-18.575-12.437-27.976-11.773c0.235,0.856,0.348,1.589,0.396,2.176c0.255,3.084-0.799,5.741-2.82,7.11    c-1.442,0.976-3.141,1.098-4.666,0.336c-3.66-1.831-5.378-3.818-5.107-5.912c0.303-2.331,3.053-4.154,7.747-5.134    c0.542-0.112,1.108-0.212,1.69-0.299c-2.022-4.349-7.398-10.732-21.405-17.153c-16.515-7.57-27.868-0.318-31.981,3.15    c-2.339,1.974-4.166,4.14-5.507,6.289c4.755,2.595,8.01,5.963,9.248,9.059c0.846,2.109,0.709,4.009-0.383,5.344    c-0.976,1.194-3.14,2.436-7.883,1.577c-2.863-0.521-4.835-2.292-5.553-4.985c-0.778-2.917-0.057-6.568,1.798-10.176    c-2.898-1.338-6.405-2.404-10.528-2.919c-10.883-1.361-21.661,10.113-27.52,22.087c-3.992,8.161-6.37,18.021-4.522,25.127    c9.364-0.179,13.83,3.433,14.844,6.698c0.618,1.988-0.022,3.899-1.628,4.869c-1.051,0.629-4.97,2.194-11.426-4.26    c-1.49-1.489-2.559-3.264-3.278-5.236c-7.815,0.471-11.036,6.148-12.363,10.83c-2.438,8.609-0.641,20.853,3.5,29.99    c12.644-7.417,17.671-4.846,19.566-2.559c2.974,3.583,1.406,10.031-1.86,13.576c-3.14,3.408-7.236,3.887-10.961,1.279    c-2.857-1.999-5.427-5.366-7.53-9.467c-30.856,19.443,1.287,79.628,1.616,80.235c0.265,0.489,0.083,1.098-0.405,1.363    c-0.488,0.263-1.099,0.082-1.363-0.405c-1.381-2.546-33.43-62.575-0.823-82.955c0.031-0.02,0.063-0.039,0.094-0.059    c-4.401-9.638-6.328-22.513-3.769-31.546c2.109-7.444,6.842-11.671,13.708-12.256c-1.889-7.919,0.949-18.245,4.794-26.107    c6.171-12.618,17.705-24.701,29.576-23.198c4.237,0.53,8.032,1.679,11.255,3.188c1.527-2.471,3.569-4.863,6.005-6.92    c4.408-3.714,16.549-11.49,34.117-3.439c15.042,6.894,20.619,13.981,22.642,18.744c10.038-0.852,24.124,2.261,30.386,12.698    c7.9,13.166,4.73,30.788-1.17,41.335c5.976,1.29,13.819,5.553,17.742,18.441c5.202,17.096,6.056,32.465,2.638,42.492    c1.356,2.359,2.462,5.48,3.095,9.599c5.417,35.215-10.057,42.588-10.719,42.885C339.771,249.179,339.631,249.206,339.494,249.206z     M335.882,191.569c-0.289,0-0.566,0.01-0.832,0.028c-6.679,0.444-12.723,5.826-12.802,9.758c-0.057,2.824,2.955,4.706,8.482,5.299    c4.808,0.517,8.704-0.982,11.573-4.449c1.219-1.473,2.228-3.266,3.027-5.335C342.502,192.527,338.691,191.569,335.882,191.569z     M182.146,164.012c1.963,3.832,4.357,6.967,7.021,8.833c3.922,2.74,6.901,0.552,8.329-0.996c2.697-2.927,4.036-8.224,1.791-10.93    C196.784,157.904,190.583,159.041,182.146,164.012z M322.528,137.19c-0.685,0-1.306,0.035-1.843,0.082    c-5.455,0.491-9.191,2.989-9.367,4.494c-0.095,0.825,1.286,1.379,1.884,1.577c3.992,1.334,7.694-2.337,9.544-4.643    c0.367-0.458,0.731-0.949,1.087-1.469C323.377,137.204,322.941,137.19,322.528,137.19z M192.289,121.31    c0.61,1.473,1.448,2.783,2.544,3.879c4.314,4.313,7.526,4.824,8.964,3.96c0.799-0.483,1.086-1.461,0.747-2.551    C203.908,124.551,200.607,121.324,192.289,121.31z M296.593,83.83c-0.7,0.092-1.375,0.208-2.016,0.342    c-4.338,0.905-6.031,2.41-6.162,3.423c-0.142,1.102,1.32,2.508,4.012,3.854c0.868,0.434,1.806,0.363,2.639-0.204    c1.09-0.737,2.172-2.51,1.944-5.276C296.961,85.399,296.845,84.679,296.593,83.83z M235.989,75.913    c-1.72,3.378-2.234,6.576-1.653,8.756c0.521,1.952,1.856,3.139,3.969,3.522c2.908,0.532,5.082,0.21,5.966-0.87    c0.82-1.004,0.399-2.514,0.074-3.325C243.409,81.662,240.643,78.456,235.989,75.913z"/>
	</g>
	<path style="fill:#EB818A;" d="M217.217,157.604c0,0-14.572-32.945,3.801-46.883s42.448,13.938,42.448,13.938   s3.344-42.342,31.678-25.342c12.671,7.603,17.739,32.311,17.739,32.311s53.852,0.634,60.821,19.64S236.857,231.096,217.217,157.604   z"/>
	<path style="fill:#251626;" d="M349.63,163.044c-0.388,0-0.755-0.226-0.92-0.601c-6.629-15.063-13.582-15.238-13.652-15.238   c-0.556,0-1.006-0.45-1.006-1.006s0.45-1.006,1.006-1.006c0.283,0,5.945,0.132,11.98,9.73c-0.78-5.071-0.982-11.309,1.945-14.055   c1.706-1.601,4.173-1.829,7.325-0.682c0.521,0.189,0.792,0.766,0.601,1.288c-0.19,0.522-0.763,0.794-1.288,0.601   c-2.382-0.866-4.154-0.782-5.262,0.259c-3.504,3.284-1.018,15.132,0.236,19.419c0.148,0.509-0.123,1.047-0.621,1.228   C349.86,163.024,349.745,163.044,349.63,163.044z"/>
	<path style="fill:#251626;" d="M314.421,179.468c-1.038,0-1.924-0.257-2.662-0.768c-4.961-3.431-0.362-16.76,0.179-18.268   c0.188-0.522,0.762-0.792,1.286-0.607c0.523,0.187,0.795,0.764,0.608,1.286c-1.839,5.136-3.719,14.006-0.928,15.935   c1.386,0.955,5.447,1.09,17.068-8.805c0.423-0.359,1.056-0.31,1.418,0.114c0.359,0.422,0.308,1.059-0.114,1.418   C323.65,176.262,318.09,179.466,314.421,179.468z"/>
	<path style="fill:#251626;" d="M254.07,151.371c-0.258,0-0.523-0.029-0.794-0.09c-5.19-1.178-12.663-14.486-13.499-16   c-0.268-0.485-0.091-1.098,0.395-1.365c0.487-0.273,1.098-0.094,1.367,0.395c2.149,3.893,8.526,14.179,12.183,15.008   c0.497,0.116,0.753-0.014,0.924-0.137c2.61-1.862-0.483-13.014-3.513-20.337c-0.212-0.515,0.031-1.102,0.544-1.314   c0.517-0.214,1.102,0.031,1.314,0.544c1.321,3.192,7.664,19.288,2.823,22.745C255.301,151.184,254.708,151.371,254.07,151.371z"/>
	<path style="fill:#251626;" d="M293.984,139.335c-0.258,0-0.523-0.029-0.793-0.09c-5.189-1.178-12.663-14.487-13.499-16.002   c-0.268-0.485-0.091-1.098,0.395-1.365c0.488-0.273,1.099-0.094,1.367,0.395c2.149,3.893,8.526,14.181,12.183,15.01   c0.487,0.116,0.751-0.012,0.923-0.137c2.608-1.862-0.483-13.014-3.512-20.337c-0.212-0.515,0.031-1.102,0.545-1.314   c0.511-0.216,1.101,0.031,1.313,0.544c1.321,3.192,7.663,19.286,2.822,22.745C295.214,139.148,294.622,139.335,293.984,139.335z"/>
	<circle style="fill:#E8627C;" cx="253.013" cy="168.691" r="11.087"/>
	<path style="fill:#E33961;" d="M232.838,348.648c0,0-125.486-34.678-117.66-71.4c13.073-61.344,66.372-27.152,66.372-27.152   s-10.056-56.316,47.265-48.271C286.137,209.87,232.838,348.648,232.838,348.648z"/>
	<path style="fill:#EB818A;" d="M256.974,283.282c0,0-45.589,0.67-48.941,6.034s-5.363,17.431-2.011,21.454   s60.338,1.341,61.009-2.011C267.701,305.406,256.974,283.282,256.974,283.282z"/>
	<g>
		<path style="fill:#F9DEC1;" d="M333.311,276.347c0,0-12.74-19.719-36.497-12.833c-23.757,6.887-6.522,38.882-2.378,24.102    c4.144-14.78-0.865-32.059-28.147-26.023c-27.282,6.036-33.016,25.023-21.985,34c11.031,8.977,17.848-1.428,13.641-3.018    c-4.207-1.59-31.714,10.13-11.981,32.973c19.733,22.843,53.149,5.664,40.641-1.948c-12.508-7.612-15.4,11.488,2.905,16.483    s36.716-10.643,36.716-10.643"/>
		<path style="fill:#251626;" d="M297.104,342.085c-2.58,0-5.216-0.31-7.859-1.031c-3.862-1.055-6.794-2.693-8.938-4.573    c-0.178,0.059-0.358,0.114-0.54,0.169c-9.796,2.96-24.021,1.76-34.564-10.443c-10.043-11.626-7.908-20.14-4.349-25.237    c1.029-1.473,2.283-2.795,3.645-3.95c-0.273-0.202-0.55-0.418-0.83-0.646c-4.694-3.82-6.6-9.336-5.227-15.13    c2.274-9.595,12.603-17.308,27.629-20.633c14.442-3.188,21.826,0.344,25.516,4.026c1.468-0.858,3.122-1.56,4.946-2.09    c24.195-7.004,37.491,13.052,37.622,13.254c0.301,0.467,0.168,1.088-0.299,1.391c-0.467,0.299-1.087,0.167-1.391-0.299    c-0.506-0.78-12.64-19.005-35.373-12.413c-1.595,0.462-2.975,1.033-4.169,1.687c3.946,5.17,4.885,13.142,2.48,21.719    c-1.184,4.225-3.339,4.679-4.543,4.578c-3.342-0.297-6.666-5.69-7.259-11.779c-0.607-6.242,1.671-11.478,6.269-14.914    c-4.72-4.433-12.773-5.545-23.364-3.198c-14.254,3.154-24.014,10.306-26.105,19.133c-1.188,5.014,0.465,9.791,4.538,13.107    c0.414,0.338,0.819,0.642,1.214,0.919c4.701-3.357,10.1-4.871,12.148-4.099c1.142,0.432,1.835,1.373,1.901,2.583    c0.103,1.884-1.351,3.977-3.537,5.091c-1.499,0.764-5.241,1.972-10.428-1.122c-1.383,1.11-2.676,2.422-3.734,3.936    c-4.518,6.468-3.058,14.342,4.222,22.768c9.739,11.274,22.798,12.561,31.974,9.976c-1.776-2.053-2.748-4.256-3.074-6.226    c-0.488-2.954,0.411-5.521,2.407-6.869c1.329-0.896,4.279-1.964,9.095,0.97c2.963,1.801,3.362,3.922,3.175,5.384    c-0.362,2.838-3.336,5.653-7.814,7.546c1.836,1.395,4.237,2.608,7.287,3.441c17.565,4.8,35.62-10.286,35.8-10.439    c0.426-0.361,1.059-0.31,1.418,0.116c0.358,0.422,0.307,1.057-0.116,1.416C326.218,330.765,312.683,342.085,297.104,342.085z     M281.303,322.84c-0.826,0-1.553,0.198-2.146,0.599c-1.326,0.894-1.904,2.716-1.548,4.873c0.305,1.852,1.304,3.952,3.181,5.869    c4.223-1.591,7.231-4.072,7.517-6.311c0.161-1.267-0.587-2.414-2.225-3.412C284.321,323.388,282.675,322.84,281.303,322.84z     M248.025,296.884c3.92,2.053,6.611,1.198,7.726,0.632c1.654-0.843,2.492-2.273,2.442-3.19c-0.023-0.412-0.209-0.662-0.604-0.811    C256.47,293.097,252.13,294.177,248.025,296.884z M291.214,267.241c-5.709,4.121-5.895,10.325-5.611,13.25    c0.524,5.39,3.352,9.785,5.434,9.97c1.364,0.063,2.089-1.903,2.43-3.117C295.724,279.295,294.871,271.896,291.214,267.241z"/>
	</g>
	<path style="fill:#EB818A;" d="M141.661,317.808c0,0,21.355-23.03,25.476-24.135c13.744-3.687,16.761,14.414,16.761,14.414   s-16.466,34.414-26.147,31.51C140.99,334.569,141.661,317.808,141.661,317.808z"/>
	<path style="fill:#251626;" d="M211.019,313.371c-5.331,0-10.519-0.672-12.103-2.233c-0.577-0.57-0.777-1.279-0.562-1.998   c0.858-2.862,7.804-5.9,11.856-7.454c-6.599-2.659-13.165-6.046-12.169-8.701c1.105-2.946,12.909-4.482,17.934-5.005   c0.553-0.059,1.048,0.344,1.104,0.896c0.058,0.552-0.343,1.047-0.896,1.104c-8.202,0.854-15.649,2.559-16.262,3.722   c0.261,1.114,6.434,4.406,13.497,7.075c0.397,0.149,0.657,0.532,0.65,0.957c-0.007,0.424-0.279,0.797-0.68,0.935   c-5.087,1.742-12.516,5.079-13.107,7.049c0.915,1.721,15.666,2.383,21.864,0.428c0.527-0.165,1.095,0.126,1.261,0.656   c0.168,0.528-0.126,1.094-0.656,1.261C220.126,312.892,215.521,313.371,211.019,313.371z"/>
	<path style="fill:#251626;" d="M181.216,310.768c-0.227,0-0.454-0.077-0.641-0.232c-0.428-0.354-0.487-0.988-0.134-1.416   c0.094-0.114,9.424-11.463,8.496-17.644c-0.076-0.507-0.225-0.795-0.442-0.862c-1.783-0.511-7.729,4.482-12.234,9.434   c-0.338,0.373-0.89,0.434-1.306,0.159c-0.413-0.279-0.561-0.819-0.345-1.271c2.281-4.755,5.423-13.248,4.136-15.786   c-0.165-0.326-0.384-0.491-0.734-0.558c-3.43-0.619-11.051,9.053-15.058,15.31c-0.299,0.467-0.921,0.603-1.389,0.304   c-0.467-0.299-0.604-0.921-0.304-1.389c1.852-2.895,11.38-17.306,17.122-16.202c0.963,0.181,1.709,0.742,2.157,1.626   c1.348,2.661-0.354,8.35-1.973,12.561c3.414-3.255,7.956-6.888,10.51-6.114c0.705,0.214,1.598,0.819,1.848,2.489   c1.06,7.067-8.527,18.734-8.937,19.227C181.791,310.645,181.504,310.768,181.216,310.768z"/>
	<path style="fill:#251626;" d="M245.243,256.13c-0.079,0-0.157-0.01-0.237-0.027c-0.54-0.132-0.872-0.674-0.741-1.214   c0.069-0.287,6.725-28.784-7.771-42.96c-5.959-5.826-13.541-7.326-22.53-4.47c-6.837,2.174-11.962,6.177-12.012,6.218   c-0.435,0.346-1.068,0.271-1.412-0.167c-0.345-0.436-0.27-1.067,0.165-1.412c0.216-0.169,21.661-16.797,37.195-1.607   c15.317,14.979,8.613,43.655,8.319,44.869C246.108,255.822,245.696,256.13,245.243,256.13z"/>
	<path style="fill:#251626;" d="M201.35,512c-0.231,0-0.465-0.049-0.694-0.149c-2.364-1.029-5.23-9.764-6.716-14.837   c-2.068,3.93-6.444,10.989-11.034,10.178c-5.942-1.069-4.588-16.326-4.256-19.372c0.06-0.554,0.538-0.96,1.109-0.892   c0.552,0.061,0.951,0.556,0.891,1.108c-0.74,6.804-0.417,16.632,2.612,17.176c3.303,0.629,7.897-6.682,10.012-11.408   c0.173-0.387,0.572-0.625,0.996-0.591c0.423,0.031,0.781,0.328,0.893,0.737c1.917,7.034,4.79,14.924,6.162,15.974   c1.534-1.218,5.607-8.996,8.808-16.135c0.226-0.507,0.823-0.737,1.329-0.507c0.507,0.226,0.734,0.821,0.506,1.328   c-1.177,2.626-7.184,15.794-9.875,17.206C201.859,511.939,201.606,512,201.35,512z"/>
	<path style="fill:#251626;" d="M322.676,508.209c-3.788,0-6.409-12.537-7.36-17.927c-0.097-0.546,0.268-1.069,0.815-1.165   c0.542-0.114,1.069,0.269,1.165,0.815c1.485,8.41,4.05,16.163,5.381,16.265c1.304,0,3.547-6.468,4.704-13.57   c0.066-0.403,0.367-0.725,0.764-0.819c0.402-0.092,0.809,0.065,1.047,0.395c4.769,6.676,10.075,12.213,11.332,11.84   c1.406-1.057,2.623-9.821,2.935-17.33c0.024-0.556,0.515-0.915,1.047-0.964c0.555,0.024,0.986,0.493,0.962,1.047   c-0.162,3.887-0.91,16.732-3.753,18.866c-0.312,0.234-0.847,0.487-1.628,0.365c-3.027-0.467-8.426-7.155-11.134-10.752   C327.963,500.406,325.922,508.209,322.676,508.209z"/>
</g>















</svg>
