<?xml version="1.0" encoding="UTF-8"?>
<!-- Generator: Adobe Illustrator 25.2.0, SVG Export Plug-In . SVG Version: 6.00 Build 0)  -->
<svg xmlns="http://www.w3.org/2000/svg" xmlns:xlink="http://www.w3.org/1999/xlink" version="1.1" id="Capa_1" x="0px" y="0px" viewBox="0 0 512 512" style="enable-background:new 0 0 512 512;" xml:space="preserve" width="512" height="512">
<g>
	<path style="fill:#EE919B;" d="M296.1,208.33c0,0,118.252,31.966,119.456,41.362c1.204,9.396-32.167,38.153-36.999,37.315   c-4.832-0.838-57.925-4.998-73.41-26.058C289.662,239.89,296.1,208.33,296.1,208.33z"/>
	<path style="fill:#EE919B;" d="M285.52,177.048c0,0,112.163,126.163,54.348,222.951c-12.133,20.311-150.061,23.563-177.744,4.164   c-62.215-43.598,49.452-222.269,49.452-222.269L285.52,177.048z"/>
	<path style="fill:#EE919B;" d="M159.195,398.956c0,0,13.387,96.246,9.938,107.604c-1.664,5.481,62.51,1.725,62.51,1.725   s2.965-115.307-6.61-118.566S159.195,398.956,159.195,398.956z"/>
	<path style="fill:#EE919B;" d="M254.839,406.062c0,0,40.961,88.117,40.987,99.987c0.012,5.728,60.279-16.641,60.279-16.641   s-30.902-111.128-41.012-111.443C304.984,377.65,254.839,406.062,254.839,406.062z"/>
	<path style="fill:#251626;" d="M384.586,369.232c-0.332,0-0.659-0.145-0.881-0.426c-0.964-1.215-23.514-29.905-17.915-42.386   c1.555-3.464,5.005-5.372,10.259-5.675c2.794-0.165,5.35-0.011,7.65,0.384c2.06-2.741,5.19-5.427,8.425-8.205   c6.154-5.284,12.517-10.746,12.269-16.933c-0.163-4.028-3.099-8.069-8.981-12.352c-0.503-0.367-0.613-1.07-0.248-1.57   c0.367-0.505,1.07-0.611,1.57-0.248c6.475,4.713,9.714,9.321,9.905,14.08c0.292,7.274-6.49,13.099-13.048,18.73   c-2.816,2.416-5.548,4.762-7.452,7.033c6.692,1.799,10.848,5.814,12.229,9.96c0.931,2.792,0.378,5.278-1.443,6.483   c-1.256,0.835-4.95,2.095-12.016-4.118c-2.458-2.161-3.646-4.388-3.63-6.806c0.009-1.353,0.402-2.671,1.085-3.969   c-1.889-0.264-3.953-0.351-6.185-0.224c-4.41,0.255-7.136,1.678-8.335,4.349c-5.045,11.245,17.397,39.784,17.623,40.071   c0.387,0.488,0.305,1.195-0.182,1.579C385.078,369.153,384.832,369.232,384.586,369.232z M384.694,323.645   c-0.731,1.204-1.16,2.387-1.166,3.549c-0.011,1.728,0.927,3.398,2.866,5.102c4.832,4.248,8.025,4.77,9.288,3.936   c0.92-0.611,1.138-2.141,0.553-3.898C395.043,328.758,391.085,325.141,384.694,323.645z"/>
	<path style="fill:#EE919B;" d="M416.42,243.59c0,0-50.62-9.049-55.027,1.526s-0.779,23.768,1.475,36.754   c2.254,12.986,53.783,6.716,53.783,6.716S425.206,250.537,416.42,243.59z"/>
	<path style="fill:#EE919B;" d="M204.331,218.982c0,0-121.627-43.619-127.592-35.571c-5.965,8.049-19.21,50.51-12.618,57.794   s119.266,35.156,122.456,26.969S204.331,218.982,204.331,218.982z"/>
	<path style="fill:#E33961;" d="M72.9,144.012c0,0-93.741-72.832-60.932-117.1S72.26,45.218,72.26,45.218   s24.897-57.357,58.261-25.074C163.989,52.526,72.9,144.012,72.9,144.012z"/>
	<path style="fill:#E33961;" d="M425.023,202.481c0,0-65.733-84.465-18.533-112.896s49.902,32.96,49.902,32.96   s28.271-38.997,48.571,2.298C522.133,159.773,425.023,202.481,425.023,202.481z"/>
	<path style="fill:#EE919B;" d="M347.233,371.905c0,0,9.6,61.652,45.682,63.359c36.081,1.707,23.679-147.7,66.699-145.665   s3.201,19.769-11.61,68.993c-13.203,43.882,2.474,94.695-47.879,100.657c-50.353,5.963-69.273-64.475-69.273-64.475   L347.233,371.905z"/>
	<path style="fill:#F9DEC1;" d="M264.368,420.666c0,0,36.008-174.676-16.744-174.425c-50.369,0.239-58.055,142.409-17.274,174.555   L264.368,420.666z"/>
	<path style="fill:#251626;" d="M65.358,335.589c-0.029,0-0.057,0-0.086-0.002c-16.791-1.245-26.795-6.525-29.736-15.69   c-2.433-7.582,0.734-16.226,4.16-22.06c-0.075-0.044-0.149-0.088-0.224-0.132c-2.148-1.272-3.404-3.108-3.736-5.456   c-1.445-10.2,15.57-28.284,27.994-41.488c4.994-5.308,10.654-11.324,10.83-12.701c-0.134-0.606,0.257-1.144,0.863-1.276   c0.602-0.132,1.212,0.31,1.344,0.92c0.406,1.856-2.451,5.087-11.401,14.597c-11.427,12.148-28.697,30.502-27.403,39.632   c0.235,1.663,1.103,2.917,2.655,3.835c0.09,0.055,0.18,0.108,0.27,0.16c1.373-2.062,2.686-3.598,3.593-4.355   c1.616-1.353,3.657-1.201,5.306,0.378c1.95,1.862,3.024,5.381,1.452,7.459c-1.129,1.487-3.705,2.477-9.58-0.499   c-3.167,5.379-6.185,13.435-3.982,20.298c2.633,8.208,11.974,12.963,27.761,14.133c0.619,0.046,1.085,0.586,1.039,1.206   C66.435,335.139,65.94,335.589,65.358,335.589z M42.864,296.998c3.907,1.948,5.978,1.852,6.582,1.052   c0.709-0.933,0.088-3.233-1.21-4.472c-1.239-1.184-2.049-0.501-2.313-0.279C45.157,293.938,44.046,295.241,42.864,296.998z"/>
	<path style="fill:#251626;" d="M86.966,196.629c-0.514,0-0.977-0.354-1.096-0.874l-12.908-56.706   c-0.138-0.606,0.242-1.208,0.846-1.346c0.624-0.143,1.208,0.242,1.346,0.846l12.908,56.706c0.138,0.606-0.242,1.208-0.846,1.346   C87.13,196.62,87.047,196.629,86.966,196.629z"/>
	<path style="fill:#F9DEC1;" d="M113.498,215.782c0,0-9.126,20.342-22.683,21.283c-13.557,0.941-10.28-29.245,7.46-30.759   C116.014,204.791,113.498,215.782,113.498,215.782z"/>
	<g>
		<path style="fill:#EE919B;" d="M78.224,192.201c0,0,15.949,8.027,20.824,15.614c4.875,7.587-23.565-2.413-23.565-2.413    s24.603,13.546,20.765,17.09s-22.71-5.337-22.71-5.337s22.154,19.364,17.636,21.403c-4.517,2.039-22.03-3.831-24.925-5.425"/>
		<path style="fill:#251626;" d="M88.441,240.096c-7.129,0.002-20.325-4.652-22.734-5.976c-0.545-0.301-0.742-0.984-0.444-1.529    c0.303-0.545,0.984-0.74,1.529-0.444c2.888,1.59,19.953,7.195,23.918,5.385c0.367-1.713-7.812-10.7-17.913-19.529    c-0.422-0.371-0.507-0.993-0.202-1.463c0.312-0.472,0.918-0.639,1.421-0.402c7.551,3.554,19.204,7.619,21.469,5.528    c-0.301-2.954-12.203-10.687-20.544-15.28c-0.512-0.283-0.723-0.911-0.483-1.445c0.237-0.536,0.85-0.797,1.399-0.602    c11.058,3.887,21.407,6.134,22.65,4.911c-0.022-0.007-0.044-0.264-0.406-0.828c-4.65-7.241-20.226-15.139-20.382-15.218    c-0.556-0.279-0.777-0.955-0.499-1.509c0.279-0.558,0.955-0.782,1.509-0.499c0.663,0.332,16.281,8.251,21.265,16.009    c1.111,1.731,0.767,2.822,0.283,3.435c-1.689,2.137-8.939,0.742-15.66-1.149c5.994,3.791,12.769,8.708,13.14,11.757    c0.097,0.799-0.169,1.533-0.749,2.069c-2.855,2.642-11.476-0.013-17.685-2.451c6.009,5.605,14.041,13.791,13.553,17.083    c-0.108,0.74-0.549,1.32-1.241,1.634C90.842,239.942,89.742,240.096,88.441,240.096z"/>
	</g>
	<g>
		<path style="fill:#EE919B;" d="M106.307,192.575c0,0-17.178,22.98-11.389,26.167c5.789,3.187,23.471-13.857,23.471-13.857"/>
		<path style="fill:#251626;" d="M96.594,220.244c-0.826,0-1.573-0.16-2.218-0.518c-0.859-0.472-1.434-1.274-1.66-2.319    c-1.388-6.431,11.245-23.571,12.69-25.506c0.371-0.496,1.078-0.595,1.575-0.226c0.496,0.371,0.597,1.076,0.226,1.575    c-3.756,5.025-13.288,19.077-12.293,23.68c0.114,0.529,0.351,0.72,0.547,0.826c3.672,2.036,15.541-7.314,22.147-13.681    c0.446-0.426,1.157-0.419,1.59,0.031c0.43,0.446,0.417,1.157-0.031,1.59C116.433,208.331,103.679,220.241,96.594,220.244z"/>
	</g>
	<path style="fill:#251626;" d="M393.982,289.076c-2.589,0-21.941-0.176-26.731-5.346c-0.87-0.94-1.265-2.001-1.173-3.154   c0.261-3.347,4.786-5.401,10.305-6.659c-4.43-0.373-8.256-1.056-9.776-2.267c-0.687-0.549-0.982-1.296-0.808-2.054   c0.564-2.466,8.01-5.087,14.902-7.011c-6.018-0.303-12.855-1.34-14.195-4.41c-0.674-1.542-0.064-3.261,1.814-5.106   c9.336-9.181,33.221-9.723,34.234-9.743c0.696-0.077,1.133,0.483,1.144,1.105c0.011,0.619-0.483,1.133-1.105,1.144   c-0.237,0.004-23.999,0.545-32.696,9.097c-0.644,0.635-1.674,1.814-1.331,2.603c1.195,2.739,13.061,3.442,21.12,3.079   c0.51-0.057,1.087,0.393,1.164,0.971c0.079,0.578-0.296,1.12-0.865,1.247c-9.703,2.201-20.518,5.614-21.891,7.369   c2.748,1.854,14.805,2.264,24.045,2.102c1.849-0.081,3.33-0.108,4.197-0.116c0.681-0.094,1.12,0.481,1.135,1.096   s-0.466,1.127-1.081,1.153c-0.547,0.02-1.994,0.075-3.98,0.112c-10.896,0.496-23.79,2.598-24.093,6.464   c-0.04,0.516,0.145,0.977,0.584,1.45c3.518,3.8,19.191,4.625,25.064,4.625c0.031,0,0.061,0,0.092,0h0.002   c0.619,0,1.125,0.503,1.125,1.122C395.185,288.597,394.667,289.08,393.982,289.076z"/>
	<path style="fill:#251626;" d="M164.222,273.382c0,0,29.705,21.749,25.159,24.526c-4.547,2.777-33.207,3.903-33.207,3.903   s23.024,10.481,24.325,14.969c1.301,4.488-34.516,12.68-34.516,12.68S149.324,293.288,164.222,273.382z"/>
	<path style="fill:#251626;" d="M143.603,353.707c0,0,30.206,1.257,30.03,5.687c-0.176,4.429-21.637,23.542-21.637,23.542   s26.635-0.423,29.471,2.648c2.836,3.07-20.26,24.233-20.26,24.233S135.323,384.567,143.603,353.707z"/>
	<path style="fill:#251626;" d="M102.132,254.948c0,0,17.631-24.13,20.224-19.591c2.593,4.539,4.303,17.362,4.303,17.362   s16.34-16.537,18.289-13.693c4.913,7.167,5.612,26.287,5.612,26.287S129.925,262.986,102.132,254.948z"/>
	<g>
		<path style="fill:#251426;" d="M220.643,370.503c-0.356,0-0.707-0.169-0.927-0.488c-2.148-3.119-1.265-8.085-1.228-8.295    c0.114-0.611,0.705-1.023,1.309-0.9c0.611,0.11,1.015,0.696,0.905,1.307c-0.009,0.042-0.751,4.265,0.868,6.615    c0.351,0.512,0.222,1.21-0.29,1.564C221.087,370.44,220.865,370.503,220.643,370.503z"/>
		<path style="fill:#251426;" d="M228.124,377.207c-0.356,0-0.707-0.169-0.927-0.488c-2.148-3.119-1.265-8.085-1.228-8.295    c0.112-0.611,0.709-1.015,1.309-0.9c0.611,0.11,1.015,0.696,0.905,1.307c-0.009,0.042-0.751,4.265,0.868,6.615    c0.351,0.512,0.222,1.21-0.29,1.564C228.568,377.143,228.346,377.207,228.124,377.207z"/>
		<path style="fill:#251426;" d="M224.162,362.526c-0.356,0-0.709-0.169-0.927-0.488c-2.148-3.121-1.265-8.087-1.228-8.298    c0.114-0.611,0.707-1.023,1.309-0.9c0.611,0.11,1.015,0.696,0.905,1.307c-0.009,0.042-0.751,4.265,0.868,6.617    c0.351,0.512,0.222,1.212-0.29,1.564C224.605,362.463,224.381,362.526,224.162,362.526z"/>
		<path style="fill:#251426;" d="M222.881,387.079c-0.356,0-0.707-0.169-0.927-0.485c-2.15-3.121-1.267-8.087-1.23-8.298    c0.114-0.611,0.703-1.023,1.309-0.9c0.611,0.11,1.015,0.696,0.905,1.307c-0.009,0.042-0.751,4.265,0.87,6.613    c0.351,0.512,0.222,1.212-0.288,1.566C223.325,387.015,223.103,387.079,222.881,387.079z"/>
		<path style="fill:#251426;" d="M226.591,405.201c-0.283,0-0.567-0.105-0.786-0.321c-2.708-2.647-2.798-7.691-2.8-7.904    c-0.007-0.622,0.49-1.129,1.109-1.138c0.007,0,0.011,0,0.015,0c0.615,0,1.116,0.494,1.124,1.109c0,0.044,0.083,4.331,2.124,6.325    c0.444,0.433,0.452,1.146,0.018,1.59C227.175,405.086,226.883,405.201,226.591,405.201z"/>
		<path style="fill:#251426;" d="M236.709,385.625c-0.283,0-0.567-0.105-0.786-0.321c-2.708-2.647-2.798-7.691-2.8-7.904    c-0.007-0.622,0.49-1.129,1.109-1.138c0.007,0,0.011,0,0.015,0c0.615,0,1.116,0.494,1.125,1.109c0,0.044,0.083,4.331,2.124,6.325    c0.444,0.433,0.452,1.146,0.018,1.59C237.293,385.511,237.001,385.625,236.709,385.625z"/>
		<path style="fill:#251426;" d="M243.511,397.672c-0.283,0-0.567-0.105-0.786-0.321c-2.708-2.647-2.798-7.691-2.8-7.904    c-0.007-0.622,0.49-1.129,1.109-1.138c0.007,0,0.011,0,0.015,0c0.615,0,1.116,0.494,1.124,1.109c0,0.044,0.083,4.331,2.124,6.325    c0.444,0.433,0.452,1.146,0.018,1.59C244.095,397.557,243.803,397.672,243.511,397.672z"/>
		<path style="fill:#251426;" d="M236.25,405.141c-0.283,0-0.567-0.105-0.786-0.321c-2.708-2.647-2.798-7.691-2.8-7.904    c-0.007-0.622,0.49-1.129,1.109-1.138c0.007,0,0.011,0,0.015,0c0.615,0,1.116,0.494,1.125,1.109c0,0.044,0.083,4.331,2.124,6.325    c0.444,0.433,0.452,1.146,0.018,1.59C236.834,405.027,236.542,405.141,236.25,405.141z"/>
		<path style="fill:#251426;" d="M229.336,391.564c-0.356,0-0.707-0.169-0.927-0.485c-2.15-3.121-1.265-8.087-1.228-8.298    c0.114-0.611,0.705-1.021,1.309-0.9c0.611,0.112,1.015,0.696,0.905,1.307c-0.009,0.042-0.751,4.265,0.868,6.613    c0.351,0.512,0.222,1.212-0.288,1.566C229.78,391.5,229.558,391.564,229.336,391.564z"/>
	</g>
	<path style="fill:#251626;" d="M344.64,279.664c0,0-35.119,18.571-33.08,23.089c2.039,4.517,27.333,9.957,27.333,9.957   s-27.455,21.093-23.07,22.377c4.386,1.283,40.885,3.84,41.017,0.517S358.644,299.444,344.64,279.664z"/>
	<path style="fill:#251626;" d="M354.65,362.875c0,0-3.723,37.932-23.119,51.581c0,0-25.611-25.416-15.601-26.128   c10.01-0.712,22.235-1.336,22.235-1.336s-17.015-18.421-11.478-18.201S354.65,362.875,354.65,362.875z"/>
	<path style="fill:#251626;" d="M322.028,215.918c0,0,1.512,17.806,6.504,22.44c4.992,4.634,15.321-13.441,15.321-13.441   s5.174,18.69,9.545,20.343c4.371,1.652,13.962-16.453,13.962-16.453S329.381,216.949,322.028,215.918z"/>
	<path style="fill:#251626;" d="M286.527,197.504c0,0,1.723,31.124-3.327,27.966c-5.051-3.158-19.822-22.229-19.822-22.229   s-7.669,25.575-13.633,26.817c-5.965,1.242-18.141-27.338-18.141-27.338s-15.256,30.45-20.811,21.357s-0.985-31.094-0.985-31.094   S270.556,208.701,286.527,197.504z"/>
	<g>
		<g>
			<path style="fill:#EE919B;" d="M216.548,59.101c0,0,24.61-58.819,2.373-59.099s-48.148,39.471-22.839,62.899L216.548,59.101z"/>
			<path style="fill:#EE919B;" d="M153.097,88.657c0,0,70.122-74.919,138.432-45.905c35.804,15.208,67.008,103.133,67.008,103.133     s-57.433,73.659-130.561,56.68S153.097,88.657,153.097,88.657z"/>
			<path style="fill:#F9DEC1;" d="M297.908,194.204c0,0,7.092-23.324-18.239-34.569c-25.33-11.245-79.655-4.164-79.655-4.164     s18.837-11.478-5.383-21.986s-33.578-0.513-33.578-0.513S168.44,246.862,297.908,194.204z"/>
			<path style="fill:#251626;" d="M181.949,128.731c0,0,43.33,10.893,46.252,12.997c2.922,2.104-25.841,29.227-36.048,23.398     C181.945,159.297,177.335,134.465,181.949,128.731z"/>
			<path style="fill:#F9DEC1;" d="M280.317,83.758c0,0,21.41,1.081,8.368,39.46s-55.022,11.259-55.022,11.259     S264.351,84.663,280.317,83.758z"/>
			<path style="fill:#F9DEC1;" d="M232.74,71.52c0,0-34.07,3.674-45.657,20.615c-11.587,16.941,16.781,34.688,19.849,34.647     C210,126.741,233.966,76.656,232.74,71.52z"/>
			<path style="fill:#251626;" d="M218.765,192.287c-0.323,0-0.597-0.066-0.81-0.145c-4.759-1.768-7.276-19.751-7.733-23.338     c-0.079-0.617,0.358-1.179,0.973-1.258c0.597-0.083,1.179,0.356,1.258,0.973c1.232,9.681,3.986,20.661,6.286,21.515     c0.048,0.013,0.134-0.009,0.239-0.061c2.967-1.436,8.225-14.807,10.841-22.899c0.191-0.589,0.817-0.914,1.417-0.723     c0.591,0.191,0.914,0.826,0.723,1.417c-1.179,3.646-7.3,21.954-11.998,24.227C219.514,192.21,219.112,192.287,218.765,192.287z"/>
			<path style="fill:#251626;" d="M266.274,128.028c-0.892,0-1.707-0.327-2.385-0.964c-3.674-3.446-2.469-16.136-2.319-17.573     c0.064-0.617,0.622-1.078,1.234-1.002c0.617,0.064,1.065,0.617,1.001,1.234c-0.518,4.994-0.538,13.674,1.623,15.699     c0.327,0.31,0.661,0.413,1.12,0.332c3.826-0.646,8.432-11.632,10.435-18.403c0.178-0.595,0.81-0.931,1.397-0.76     c0.595,0.176,0.936,0.802,0.76,1.397c-0.571,1.931-5.761,18.895-12.218,19.984C266.702,128.01,266.487,128.028,266.274,128.028z"/>
			<path style="fill:#251626;" d="M202.566,110.547c-0.088,0-0.176-0.007-0.261-0.02c-0.448-0.07-1.089-0.312-1.601-1.061     c-2.357-3.464,0.472-16.773,1.063-19.406c0.138-0.604,0.734-0.98,1.344-0.852c0.606,0.136,0.986,0.738,0.852,1.344     c-1.931,8.605-2.552,17.067-1.305,17.755c1.72-0.044,7.553-9.227,12.717-20.052c0.268-0.56,0.938-0.799,1.498-0.532     c0.562,0.268,0.799,0.938,0.532,1.498C214.311,95.707,206.774,110.545,202.566,110.547z"/>
			<path style="fill:#EE919B;" d="M331.256,103.207c0,0,25.148-68.75,42.338-60.483s-6.435,76.711-35.559,75.281     S331.256,103.207,331.256,103.207z"/>
			<path style="fill:#251626;" d="M345.641,109.678c-0.446,0-0.87-0.268-1.045-0.709c-0.228-0.578,0.053-1.23,0.63-1.461     c6.771-2.69,10.689-9.308,12.785-14.384c3.666-8.88,4.208-18.596,3.532-21.522c-2.743,1.858-11.269,14.524-18.42,26.503     c-0.323,0.536-1.015,0.705-1.542,0.391c-0.534-0.318-0.709-1.01-0.391-1.542c6.218-10.415,17.14-27.807,20.757-27.807     c0.022,0,0.046,0,0.068,0.002c0.639,0.042,1.162,0.422,1.432,1.043c1.166,2.69,0.78,13.766-3.358,23.79     c-3.242,7.854-8.093,13.255-14.032,15.616C345.92,109.651,345.78,109.678,345.641,109.678z"/>
			<path style="fill:#251626;" d="M201.063,50.982c-0.268,0-0.534-0.094-0.749-0.286c-10.25-9.152-4.364-23.035-1.357-28.578     c2.976-5.493,8.603-12.673,11.436-11.922c2.809,0.764,3.51,13.859,2.089,38.921c-0.033,0.617-0.474,1.146-1.186,1.059     c-0.619-0.035-1.094-0.567-1.059-1.186c0.925-16.31,0.962-34.177-0.542-36.597c-1.636,0.523-8.629,8.06-11.627,17.43     c-1.801,5.625-2.614,13.52,3.745,19.196c0.463,0.413,0.503,1.125,0.09,1.588C201.68,50.854,201.373,50.982,201.063,50.982z"/>
			<path style="fill:#251626;" d="M341.354,146.663L341.354,146.663l-42.463-0.015c-0.622,0-1.125-0.503-1.125-1.125     s0.503-1.124,1.125-1.124l0,0l42.463,0.015c0.622,0,1.124,0.503,1.124,1.125S341.976,146.663,341.354,146.663z"/>
			<path style="fill:#251626;" d="M336.937,173.535c-0.156,0-0.314-0.033-0.466-0.101L297.4,155.626     c-0.567-0.257-0.815-0.925-0.558-1.489c0.259-0.567,0.927-0.808,1.489-0.558l39.072,17.808c0.567,0.257,0.815,0.925,0.558,1.489     C337.772,173.291,337.363,173.535,336.937,173.535z"/>
			<path style="fill:#251626;" d="M319.956,188.36c-0.264,0-0.529-0.092-0.742-0.279l-27.32-23.975     c-0.466-0.411-0.512-1.12-0.103-1.588c0.409-0.466,1.118-0.512,1.588-0.103l27.32,23.975c0.466,0.411,0.512,1.12,0.103,1.588     C320.579,188.23,320.267,188.36,319.956,188.36z"/>
			<path style="fill:#251626;" d="M174.93,110.108c-0.222,0-0.446-0.066-0.641-0.202l-35.727-24.82     c-0.51-0.354-0.637-1.054-0.281-1.564c0.351-0.512,1.054-0.637,1.564-0.281l35.727,24.82c0.51,0.354,0.637,1.054,0.281,1.564     C175.635,109.939,175.285,110.108,174.93,110.108z"/>
			<path style="fill:#251626;" d="M168.418,115.537c-0.123,0-0.248-0.02-0.369-0.064l-37.482-13.059     c-0.586-0.204-0.898-0.843-0.692-1.43c0.202-0.589,0.854-0.9,1.43-0.692l37.482,13.059c0.586,0.204,0.898,0.843,0.692,1.43     C169.318,115.247,168.883,115.537,168.418,115.537z"/>
			<path style="fill:#251626;" d="M135.651,127.514c-0.575,0-1.065-0.439-1.118-1.026c-0.055-0.617,0.402-1.164,1.021-1.219     l33.931-3.022c0.575-0.035,1.162,0.4,1.219,1.021c0.055,0.617-0.402,1.164-1.021,1.219l-33.931,3.022     C135.719,127.512,135.686,127.514,135.651,127.514z"/>
			<path style="fill:#251626;" d="M213.501,151.961c-0.268,0-0.536-0.094-0.749-0.286c-0.463-0.415-0.503-1.127-0.09-1.588     c6.13-6.855,60.075-67.029,66.59-69.618c6.598-2.625,43.041-1.34,44.587-1.285c0.622,0.024,1.107,0.545,1.085,1.164     c-0.022,0.622-0.534,1.118-1.164,1.085c-10.415-0.373-38.56-0.907-43.678,1.127c-4.555,1.81-41.811,42.272-65.742,69.025     C214.116,151.833,213.808,151.961,213.501,151.961z"/>
			<path style="fill:#251626;" d="M200.888,143.731c-0.178,0-0.358-0.042-0.525-0.13c-0.549-0.29-0.76-0.971-0.47-1.52     c13.257-25.154,32.648-64.659,31.737-70.387c-1.834-11.531-6.051-21.956-7.931-24.511c-0.253,0.272-0.641,0.422-1.023,0.345     c-0.611-0.108-1.019-0.69-0.911-1.302c0.283-1.616,1.16-1.783,1.687-1.777c3.385,0.029,8.715,16.292,10.402,26.894     c1.32,8.306-28.558,65.314-31.969,71.788C201.68,143.514,201.29,143.731,200.888,143.731z"/>
		</g>
		<path style="fill:#251626;" d="M246.696,36.582c0,0-8.999,21.825,1.424,20.021s21.198-12.469,21.198-12.469    s-16.528,25.224-6.163,24.896c10.365-0.328,23.559-16.072,23.559-16.072s-9.825,24.011-1.617,22.118    c8.209-1.893,24.444-19.734,22.346-22.775C305.346,49.259,275.81,29.603,246.696,36.582z"/>
		<path style="fill:#251626;" d="M180.471,65.75c0,0,7.652,12.134,6.059,15.028c-1.594,2.894-22.856-1.646-22.856-1.646    S176.464,92.21,174.9,94.366c-1.564,2.156-21.803-5.708-21.803-5.708S167.036,68.914,180.471,65.75z"/>
		<path style="fill:#251626;" d="M346.651,117.074c0,0-30.297-0.462-25.335,4.911s24.99,22.434,24.99,22.434    s-33.667-8.729-27.286-1.821c6.381,6.908,11.467,27.813,15.129,28.697c3.662,0.885,25.153-18.967,24.766-27.855    C358.528,134.552,346.651,117.074,346.651,117.074z"/>
	</g>
	<path style="fill:#F9D998;" d="M396.011,206.878c0,0-101.19-62.069-73.454-109.68c27.735-47.611,61.941,11.557,61.941,11.557   s9.544-47.948,45.926-34.116C476.337,92.094,396.011,206.878,396.011,206.878z"/>
	<path style="fill:#251626;" d="M428.437,125.509c-0.048,0-0.097-0.002-0.145-0.009c-0.615-0.079-1.052-0.641-0.973-1.258   c3.479-27.208-0.582-35.233-4.599-37.175c-6.44-3.114-16.553,7.134-16.655,7.237c-0.435,0.446-1.146,0.457-1.59,0.02   c-0.446-0.433-0.455-1.144-0.022-1.588c0.461-0.474,11.337-11.509,19.242-7.696c6.91,3.336,8.825,16.253,5.855,39.487   C429.478,125.093,428.993,125.509,428.437,125.509z"/>
	<path style="fill:#251626;" d="M430.208,340.732c0,0,12.82,12.339,18.076,10.329c5.256-2.01,14.518-30.479,29.751-41.706   c15.233-11.226-6.803-33.543-26.466-22.492S423.652,338.253,430.208,340.732z"/>
	<path style="fill:#251626;" d="M420.827,374.062c0,0,19.202,17.339,16.073,21.651c-3.129,4.312-17.893,4.097-17.893,4.097   s14.683,20.916,10.904,22.984s-20.788,2.133-21.38-1.587S418.398,388.34,420.827,374.062z"/>
	<path style="fill:#251626;" d="M398.757,433.878c0,0-1.602,25.091-8.1,21.136c-6.498-3.955-8.777-21.052-8.777-21.052   s-20.05,15.221-21.263,8.518s0.527-26.347,4.218-26.2C368.527,416.426,374.53,433.982,398.757,433.878z"/>
	<path style="fill:#251626;" d="M308.337,506.349c-0.362,0-0.72-0.176-0.938-0.503c-4.136-6.231-5.675-11.168-4.579-14.671   c0.777-2.491,2.589-3.275,2.794-3.356c0.573-0.222,1.23,0.051,1.461,0.63c0.226,0.571-0.048,1.219-0.615,1.454   c-0.07,0.033-1.074,0.51-1.518,2.021c-0.569,1.948-0.281,5.728,4.333,12.679c0.343,0.518,0.202,1.215-0.316,1.559   C308.768,506.287,308.552,506.349,308.337,506.349z"/>
	<path style="fill:#251626;" d="M325.552,501.115c-0.362,0-0.72-0.176-0.938-0.503c-4.136-6.233-5.677-11.17-4.581-14.673   c0.78-2.488,2.589-3.27,2.794-3.352c0.575-0.224,1.23,0.053,1.461,0.63c0.226,0.571-0.048,1.219-0.615,1.454   c-0.066,0.029-1.072,0.505-1.515,2.018c-0.571,1.946-0.281,5.726,4.333,12.679c0.343,0.518,0.202,1.215-0.316,1.559   C325.982,501.054,325.767,501.115,325.552,501.115z"/>
	<path style="fill:#251626;" d="M339.074,495.736c-0.362,0-0.72-0.176-0.938-0.503c-4.136-6.233-5.677-11.17-4.581-14.673   c0.78-2.488,2.589-3.27,2.794-3.352c0.573-0.224,1.23,0.053,1.461,0.63c0.226,0.571-0.048,1.219-0.615,1.454   c-0.066,0.029-1.072,0.505-1.515,2.018c-0.571,1.946-0.281,5.726,4.333,12.679c0.343,0.518,0.202,1.215-0.316,1.559   C339.505,495.675,339.29,495.736,339.074,495.736z"/>
	<path style="fill:#251626;" d="M213.822,511.104c-0.529,0-1.002-0.378-1.103-0.918c-1.379-7.351-0.872-12.499,1.502-15.297   c1.691-1.992,3.69-1.981,3.879-1.999c0.622,0.013,1.114,0.529,1.1,1.149c-0.013,0.613-0.514,1.1-1.124,1.1   c-0.053-0.007-1.144-0.015-2.192,1.267c-1.285,1.57-2.493,5.163-0.955,13.367c0.114,0.611-0.288,1.197-0.898,1.311   C213.96,511.097,213.892,511.104,213.822,511.104z"/>
	<path style="fill:#251626;" d="M198.261,511.965c-0.529,0-1.002-0.378-1.103-0.918c-1.379-7.349-0.874-12.495,1.5-15.295   c1.693-1.992,3.679-2.001,3.881-1.999c0.622,0.013,1.114,0.529,1.1,1.149c-0.013,0.613-0.514,1.1-1.125,1.1   c-0.042,0-1.135-0.024-2.194,1.269c-1.283,1.57-2.491,5.161-0.953,13.362c0.114,0.611-0.288,1.197-0.898,1.311   C198.401,511.958,198.331,511.965,198.261,511.965z"/>
	<path style="fill:#251626;" d="M180.513,512c-0.529,0-1.002-0.378-1.103-0.918c-1.379-7.351-0.872-12.497,1.502-15.295   c1.691-1.992,3.679-1.985,3.879-1.999c0.622,0.013,1.114,0.529,1.1,1.149c-0.013,0.613-0.514,1.1-1.125,1.1   c-0.051,0.004-1.138-0.024-2.192,1.267c-1.285,1.57-2.493,5.163-0.955,13.364c0.114,0.611-0.288,1.197-0.898,1.311   C180.651,511.993,180.583,512,180.513,512z"/>
	<path style="fill:#251626;" d="M232.299,433.93c0,0-30.695,11.029-26.857,18.322c2.773,5.271,20.065,4.167,20.065,4.167   s-21.741,16.839-14.267,19.664c7.474,2.825,22.289,11.842,23.298,7.667C235.547,479.577,232.299,433.93,232.299,433.93z"/>
	<path style="fill:#251626;" d="M268.455,436.207c0,0,20.399-4.249,23.665-1.59c3.266,2.658-9.992,18.148-9.992,18.148   s19.423-0.916,21.815,2.551s-12.209,31.547-16.217,26.33C283.718,476.429,268.455,436.207,268.455,436.207z"/>
	<path style="fill:#251626;" d="M338.938,432.038c0,0-28.096,19.337-19.747,21.354s25.789,8.609,26.864,2.751   C347.131,450.285,338.938,432.038,338.938,432.038z"/>
	<path style="fill:#251626;" d="M164.338,447.25c0,0,31.072,2.918,26.597,9.484s-22.849,23.539-23.491,18.456   C166.803,470.107,164.338,447.25,164.338,447.25z"/>
	<path style="fill:#251626;" d="M396.108,245.334c-0.088,0-0.16-0.013-0.224-0.024c-0.248-0.044-1.063-0.279-1.21-1.439   c-2.319-18.387-0.696-43.895-0.681-44.15c0.042-0.622,0.626-1.094,1.195-1.05c0.619,0.04,1.089,0.575,1.05,1.195   c-0.015,0.248-1.553,24.418,0.518,42.476c3.945-4.531,16.314-26.608,26.922-46.931c0.288-0.551,0.969-0.758,1.518-0.477   c0.551,0.288,0.764,0.966,0.477,1.518C401.517,242.729,397.344,245.334,396.108,245.334z"/>
	<path style="fill:#F9D998;" d="M396.457,196.424c0,0,8.041,15.626,6.779,16.986c-1.262,1.36-19.538,0.031-19.514-0.572   s10.217-18.931,11.947-16.848"/>
	<path style="fill:#E33961;" d="M426.872,194.877c0,0,2.249,17.429,0.6,18.279c-1.65,0.85-18.385-6.614-18.157-7.173   c0.228-0.559,16.045-14.329,16.964-11.782"/>
	<path style="fill:#251626;" d="M394.678,202.375c-0.16,0-0.325-0.026-0.485-0.079c-1.814-0.591-4.377-6.532-6.207-11.41   c-0.22-0.582,0.075-1.23,0.657-1.447c0.578-0.224,1.23,0.077,1.447,0.657c1.432,3.811,3.384,8.144,4.452,9.624   c0.854-1.917,2.469-8.001,3.622-13.292c0.132-0.606,0.727-0.988,1.338-0.859c0.606,0.132,0.991,0.731,0.859,1.338   c-1.392,6.398-3.371,14.234-4.885,15.229C395.231,202.293,394.959,202.375,394.678,202.375z"/>
	<path style="fill:#251626;" d="M424.047,198.281c-0.237,0-0.402-0.09-0.567-0.182c-0.731-0.402-1.485-0.817,0.764-14.41   c0.101-0.613,0.668-1.037,1.294-0.925c0.613,0.101,1.026,0.681,0.925,1.294c-0.687,4.153-1.313,8.757-1.465,11.12   c1.715-1.485,4.797-4.56,7.406-7.331c0.426-0.452,1.138-0.472,1.59-0.048c0.452,0.426,0.474,1.138,0.048,1.59   C426.904,196.967,424.947,198.281,424.047,198.281z"/>
	<path style="fill:#251626;" d="M484.39,159.523c-0.393,0-0.773-0.206-0.98-0.573c-0.305-0.542-0.112-1.228,0.428-1.531   c5.245-2.947,10.276-11.992,11.702-21.036c0.962-6.093,0.09-11.126-2.392-13.813c-6.723-7.279-13.36-3.844-13.639-3.696   c-0.545,0.299-1.228,0.09-1.522-0.455c-0.294-0.545-0.097-1.223,0.446-1.52c0.083-0.046,8.421-4.454,16.367,4.147   c2.996,3.24,4.048,8.812,2.963,15.686c-1.329,8.421-6.158,18.901-12.822,22.646C484.768,159.476,484.577,159.523,484.39,159.523z"/>
	<path style="fill:#E33961;" d="M74.748,130.692c0,0,10.371,18.157,8.865,18.837c-1.506,0.68-14.454,0.906-18.913,1.468   S74.748,130.692,74.748,130.692z"/>
	<path style="fill:#251626;" d="M72.767,135.704c-0.777,0-2.596-0.681-8.7-11.498c-0.305-0.542-0.114-1.228,0.426-1.533   c0.536-0.303,1.228-0.116,1.533,0.426c2.168,3.844,4.913,8.161,6.347,9.778c0.74-3.024,1.97-10.421,2.44-13.406   c0.097-0.615,0.687-1.023,1.287-0.936c0.613,0.097,1.032,0.674,0.936,1.287c-0.204,1.289-2.016,12.67-2.86,14.9   c-0.213,0.567-0.681,0.929-1.247,0.973C72.881,135.699,72.826,135.704,72.767,135.704z"/>
	<path style="fill:#251626;" d="M117.942,68.091c-0.123,0-0.246-0.02-0.369-0.061c-0.586-0.204-0.896-0.846-0.694-1.432   c3.512-10.101,10.628-37.445,1.513-42.606c-11.047-6.264-23.557,6.802-23.683,6.932c-0.424,0.452-1.14,0.474-1.588,0.046   c-0.452-0.426-0.472-1.138-0.046-1.588c0.56-0.595,13.874-14.456,26.424-7.349c12.605,7.14,0.046,43.748-0.494,45.303   C118.843,67.801,118.408,68.091,117.942,68.091z"/>
	<path style="fill:#251626;" d="M130.899,194.067c0,0,44.144,14.528,45.43,15.643c1.287,1.116-18.787,24.01-22.392,20.939   c-0.859-0.732-4.612-24.672-4.612-24.672s-17.439,16.877-18.397,14.177C129.972,217.455,129.71,197.214,130.899,194.067z"/>
</g>















</svg>
