<?xml version="1.0" encoding="UTF-8"?>
<!-- Generator: Adobe Illustrator 25.2.0, SVG Export Plug-In . SVG Version: 6.00 Build 0)  -->
<svg xmlns="http://www.w3.org/2000/svg" xmlns:xlink="http://www.w3.org/1999/xlink" version="1.1" id="Capa_1" x="0px" y="0px" viewBox="0 0 512 512" style="enable-background:new 0 0 512 512;" xml:space="preserve" width="512" height="512">
<g>
	<path style="fill:#F4BBB1;" d="M270.538,257.219c0,0,107.878,146.203,31.228,171.753c-76.65,25.55-220.014-5.678-59.617-174.592   L270.538,257.219z"/>
	<path style="fill:#F4BBB1;" d="M315.538,150.745c0,0,37.842,39.734,23.084,72.656s-87.793,76.062-146.826,21.57   S253.099,79.224,315.538,150.745z"/>
	<path style="fill:#FAE2C4;" d="M191.288,237.967c0,0,6.812-60.169,48.816-4.541c0,0,39.734-32.922,56.763-18.164   c17.029,14.758,1.135,54.492-32.922,57.898S199.235,260.672,191.288,237.967z"/>
	<path style="fill:#F4BBB1;" d="M292.326,140.429c0,0,49.924-131.466,79.878-126.474c29.954,4.992,41.603,104.84-68.229,141.451   L292.326,140.429z"/>
	<path style="fill:#F4BBB1;" d="M268.499,141.18c0,0-19.205-139.309-49.517-141.153s-64.031,92.856,34.809,153.141L268.499,141.18z"/>
	<path style="fill:#251626;" d="M268.486,167.882c-7.361,0-10.648-3.454-12.093-6.18c-2.593,1.714-5.801,2.836-9.66,2.938   c-6.593,0.181-9.502-2.544-10.737-4.855c-1.649-3.08-1.248-6.857,0.083-10.049c-5.007-0.657-8.454-3.819-9.683-9.046   c-0.836-3.552-0.208-6.543,1.867-8.893c6.618-7.493,25.926-5.508,26.748-5.42c0.584,0.062,1.006,0.587,0.944,1.172   c-0.062,0.587-0.597,1.003-1.173,0.945c-0.187-0.02-19.036-1.956-24.924,4.714c-1.614,1.827-2.069,4.114-1.391,6.994   c1.314,5.58,5.144,7.231,8.635,7.491c0.218-0.369,0.447-0.723,0.684-1.059c2.472-3.508,5.872-5.308,9.078-4.83   c2.732,0.411,3.113,1.724,3.096,2.47c-0.056,2.552-5.279,5.002-9.912,5.487c-0.582,0.061-1.148,0.096-1.701,0.103   c-1.505,3.125-1.734,6.565-0.476,8.917c1.368,2.556,4.435,3.862,8.808,3.731c3.576-0.094,6.523-1.183,8.876-2.831   c-1.955-6.235,0.663-14.254,4.475-17.187c1.674-1.288,2.865-0.83,3.429-0.443c1.938,1.329,1.794,5.343,0.792,8.73   c-1.008,3.408-3.019,6.963-6.132,9.621c2.117,4.424,7.094,6.158,14.443,5.014c5.76-0.896,8.926-3.545,10.642-6.462   c-3.464-5.349-2.362-13.275-1.886-15.812c0.383-2.036,1.445-2.271,2.023-2.223c2.125,0.154,3.747,4.947,3.928,9.327   c0.067,1.645-0.031,5.072-1.593,8.472c0.191,0.227,0.393,0.443,0.605,0.647c2.443,2.334,6.236,2.914,11.257,1.73   c3.938-0.926,6.113-3.133,6.647-6.747c1.139-7.717-5.616-18.564-7.128-19.61c-0.472-0.11-0.821-0.532-0.821-1.037   c0-0.588,0.476-1.065,1.065-1.065c2.454,0,8.161,10.449,9.012,17.773c0.798,6.883-2.067,11.295-8.288,12.758   c-5.77,1.358-10.218,0.597-13.214-2.264c-0.075-0.072-0.15-0.145-0.222-0.217c-2.04,3.109-5.585,5.883-11.698,6.835   C271.28,167.77,269.817,167.882,268.486,167.882z M262.144,143.778c-0.179,0-0.484,0.148-0.817,0.403   c-3,2.308-5.125,8.884-3.963,14.019c2.422-2.296,4.015-5.216,4.845-8.024c1.098-3.716,0.561-6.017,0.046-6.371   C262.225,143.787,262.188,143.778,262.144,143.778z M283.427,143.442c-0.006,0.029-0.012,0.059-0.019,0.091   c-0.78,4.155-0.819,9.278,0.9,12.997c0.235-0.686,0.408-1.365,0.534-2.018C285.781,149.65,284.396,144.931,283.427,143.442z    M245.828,143.855c-2.137,0-4.381,1.376-6.159,3.805c4.581-0.424,7.951-2.635,8.157-3.414c-0.046,0.061-0.366-0.201-1.279-0.337   C246.311,143.873,246.069,143.855,245.828,143.855z"/>
	<path style="fill:#251626;" d="M289.364,201.05c-0.285,0-0.57-0.056-0.85-0.168c-4.109-1.654-6.595-18.038-7.261-23.02   c-0.077-0.582,0.333-1.118,0.915-1.196c0.561-0.076,1.119,0.33,1.198,0.915c1.283,9.622,3.919,20.511,5.943,21.325   c0.05,0.017,0.104,0.038,0.281-0.104c3.366-2.681,3.404-14.999,3.136-19.519c-0.035-0.586,0.412-1.091,1-1.126   c0.584-0.027,1.09,0.413,1.125,0.999c0.106,1.776,0.898,17.464-3.934,21.311C290.43,200.853,289.9,201.05,289.364,201.05z"/>
	<path style="fill:#251626;" d="M220.049,197.486c-0.285,0-0.57-0.056-0.85-0.169c-4.109-1.654-6.595-18.038-7.261-23.02   c-0.077-0.582,0.333-1.118,0.915-1.196c0.563-0.079,1.119,0.331,1.198,0.915c1.283,9.622,3.919,20.511,5.943,21.326   c0.048,0.019,0.104,0.04,0.281-0.104c3.368-2.683,3.406-15.001,3.136-19.52c-0.035-0.586,0.412-1.091,0.998-1.126   c0.634-0.03,1.092,0.413,1.127,0.999c0.106,1.776,0.898,17.464-3.934,21.312C221.116,197.289,220.586,197.486,220.049,197.486z"/>
	<path style="fill:#251626;" d="M248.631,120.31c-0.528,0-0.988-0.394-1.054-0.933c-3.009-24.062-13.361-87.383-24.984-91.371   c-1.331-0.455-2.649,0.006-4.046,1.402c-16.597,16.597,20.531,87.18,20.907,87.892c0.277,0.52,0.079,1.164-0.441,1.44   c-0.522,0.273-1.162,0.077-1.439-0.442c-1.57-2.96-38.234-72.695-20.533-90.395c2.002-2.001,4.098-2.648,6.244-1.911   c15.251,5.232,25.955,89.535,26.405,93.121c0.073,0.583-0.341,1.116-0.923,1.188C248.72,120.306,248.677,120.31,248.631,120.31z"/>
	<path style="fill:#251626;" d="M312.238,137.174c-0.57,0-1.042-0.45-1.065-1.023c-0.023-0.587,0.437-1.082,1.023-1.105   c20.194-0.787,33.805-24.806,39.808-47.02c4.861-17.995,4.246-32.553,0.62-34.861c-0.26-0.165-0.697-0.358-1.472-0.102   c-9.702,3.192-31.707,55.394-39.365,75.239c-0.214,0.548-0.834,0.819-1.376,0.609c-0.549-0.211-0.821-0.828-0.611-1.376   c1.139-2.952,28.047-72.336,40.687-76.494c1.191-0.394,2.329-0.279,3.281,0.327c5.735,3.65,4.431,21.897,0.291,37.213   c-6.2,22.946-20.431,47.761-41.779,48.592C312.265,137.174,312.25,137.174,312.238,137.174z"/>
	<path style="fill:#251626;" d="M246.444,236.157c-6.733,0-15.686-3.945-17.075-4.578c-0.47-0.214-0.719-0.735-0.59-1.235   l16.53-63.999c0.148-0.57,0.719-0.919,1.297-0.764c0.57,0.147,0.911,0.728,0.765,1.296L231.067,230   c5.24,2.241,17.726,6.464,20.294,2.181c3.029-5.051,8.265-48.515,10.026-64.837c0.062-0.585,0.595-1.006,1.173-0.944   c0.584,0.063,1.006,0.588,0.944,1.173c-0.26,2.415-6.429,59.22-10.317,65.704C251.912,235.399,249.39,236.156,246.444,236.157z"/>
	<path style="fill:#ED8A98;" d="M225.572,220.438c0,0,33.059,2.119,34.33,7.205c1.272,5.086-15.682,14.41-22.463,16.529   S221.334,222.981,225.572,220.438z"/>
	<path style="fill:#251626;" d="M273.838,252.551c-0.247,0-0.526-0.041-0.834-0.147c-4.075-1.399-10.665-14.841-11.943-17.521   c-0.254-0.53-0.029-1.165,0.501-1.419c0.532-0.256,1.166-0.028,1.42,0.502c4.292,8.984,9.398,16.626,10.866,16.455   c1.647-0.824,2.337-10.668,1.944-19.339c-0.027-0.587,0.426-1.085,1.015-1.112c0.682-0.024,1.085,0.429,1.11,1.015   c0.208,4.537,0.593,19.485-3.129,21.346C274.559,252.445,274.239,252.551,273.838,252.551z"/>
	<path style="fill:#F4BBB1;" d="M191.049,326.772c0,0-65.294-4.258-69.553,39.744c-4.258,44.003,59.617,82.328,59.617,82.328   s-19.872,73.811-2.839,59.617S254.924,392.067,191.049,326.772z"/>
	<path style="fill:#F4BBB1;" d="M299.196,328.498c0,0,65.294-4.258,69.553,39.744s-59.617,82.328-59.617,82.328   s19.872,73.811,2.839,59.617C294.938,495.992,235.321,393.792,299.196,328.498z"/>
	<path style="fill:#251626;" d="M143.352,313.744c-0.383,0-0.755-0.209-0.944-0.573c-0.256-0.492-6.219-12.124-2.015-19.383   c1.961-3.384,5.743-5.214,11.247-5.439c4.009-0.164,7.309-1.657,9.806-4.438c6.556-7.302,5.718-21.103,5.708-21.242   c-0.04-0.586,0.405-1.094,0.992-1.133c0.584-0.014,1.094,0.404,1.133,0.992c0.04,0.602,0.9,14.843-6.248,22.805   c-2.896,3.224-6.699,4.955-11.303,5.143c-4.728,0.193-7.92,1.668-9.492,4.38c-3.624,6.258,2.004,17.221,2.061,17.332   c0.272,0.522,0.069,1.164-0.453,1.436C143.686,313.705,143.518,313.744,143.352,313.744z"/>
	<path style="fill:#FAE2C4;" d="M202.405,423.294c0,0-12.167-122.786,40.454-127.75c56.423-5.323,34.067,138.396,34.067,138.396   S226.89,448.844,202.405,423.294z"/>
	<path style="fill:#251626;" d="M168.644,255.912c-0.514,0-0.967-0.374-1.05-0.898c-0.04-0.254,0.015-0.501,0.135-0.707   c-0.543-3.689-14.108-29.449-22.735-45.188c-0.283-0.516-0.094-1.162,0.422-1.445c0.509-0.284,1.162-0.096,1.445,0.422   c11.07,20.195,24.022,44.763,22.864,47.123c-0.152,0.311-0.57,0.625-0.913,0.679C168.756,255.908,168.7,255.912,168.644,255.912z"/>
	<path style="fill:#E33961;" d="M146.364,209.945c0,0-134.288-2.078-117.404-72.473c15.704-65.473,66.27-12.418,66.27-12.418   s-8.602-54.108,37.479-56.402C186.656,65.967,146.364,209.945,146.364,209.945z"/>
	<path style="fill:#E33961;" d="M138.968,200.108c0,0-2.15,26.079,1.084,25.248c3.234-0.831,21.52-12.33,21.52-12.33   S141.608,198.778,138.968,200.108z"/>
	<path style="fill:#F4BBB1;" d="M225.504,275.268c0,0-55.049-24.984-60.328-22.323c-5.279,2.661,16.437,37.141,42.82,49.18   C234.38,314.165,225.504,275.268,225.504,275.268z"/>
	<path style="fill:#251626;" d="M375.568,330.543c-3.695,0-6.97-1.564-8.739-4.241c-2.079-3.147-1.826-7.446,0.717-12.104   c5.982-10.971-7.97-19.841-15.466-24.607c-3.522-2.238-4.537-2.931-4.537-3.983c0-2.167,25.039-35.13,39.963-54.586   c0.36-0.469,1.027-0.554,1.493-0.196s0.553,1.026,0.195,1.492c-14.933,19.469-37.206,48.986-39.398,53.162   c0.58,0.506,2.079,1.46,3.427,2.315c7.506,4.773,23.128,14.704,16.189,27.422c-2.177,3.991-2.456,7.419-0.807,9.911   c1.514,2.291,4.666,3.558,8.049,3.233c3.919-0.381,7.128-2.718,8.583-6.252c0.222-0.544,0.846-0.798,1.389-0.579   c0.543,0.224,0.803,0.846,0.578,1.39c-1.759,4.276-5.626,7.103-10.344,7.56C376.427,330.522,375.994,330.543,375.568,330.543z"/>
	<path style="fill:#EB818A;" d="M379.126,245.154c0,0-64.426-99.649-3.662-121.651c46.246-16.745,38.439,45.001,38.439,45.001   s40.679-41.462,65.294,0C512.393,224.42,379.126,245.154,379.126,245.154z"/>
	<path style="fill:#EB818A;" d="M384.803,234.508c0,0-23.421,10.646-19.163,14.194s19.872,15.614,19.163,9.936   C384.094,252.961,384.803,234.508,384.803,234.508z"/>
	<path style="fill:#F4BBB1;" d="M284.028,281.676c0,0,65.182-5.331,69.262-1.053s-27.949,29.469-56.843,31.955   C267.553,315.064,284.028,281.676,284.028,281.676z"/>
	<g>
		<path style="fill:#251426;" d="M352.767,397.188c-0.179,0-0.358-0.045-0.524-0.138c-0.512-0.289-0.69-0.939-0.403-1.45    c0.021-0.036,2.027-3.641,1.295-6.288c-0.156-0.568,0.177-1.153,0.744-1.31c0.561-0.152,1.154,0.177,1.31,0.742    c0.967,3.501-1.395,7.727-1.497,7.904C353.497,396.993,353.137,397.188,352.767,397.188z"/>
		<path style="fill:#251426;" d="M348.088,388.75c-0.179,0-0.358-0.045-0.524-0.138c-0.512-0.289-0.69-0.939-0.403-1.45    c0.021-0.036,2.027-3.641,1.295-6.289c-0.156-0.568,0.177-1.154,0.744-1.31c0.561-0.153,1.154,0.177,1.31,0.742    c0.967,3.503-1.395,7.728-1.497,7.905C348.818,388.556,348.459,388.75,348.088,388.75z"/>
		<path style="fill:#251426;" d="M347.061,403.321c-0.179,0-0.358-0.045-0.524-0.138c-0.512-0.29-0.69-0.939-0.403-1.45    c0.021-0.036,2.029-3.641,1.297-6.289c-0.156-0.568,0.177-1.154,0.744-1.31c0.563-0.153,1.152,0.177,1.31,0.742    c0.967,3.504-1.397,7.728-1.499,7.905C347.791,403.127,347.431,403.321,347.061,403.321z"/>
		<path style="fill:#251426;" d="M355.954,381.44c-0.179,0-0.358-0.045-0.524-0.138c-0.512-0.289-0.69-0.939-0.403-1.45    c0.021-0.036,2.027-3.641,1.295-6.288c-0.156-0.568,0.177-1.153,0.744-1.31c0.561-0.155,1.154,0.176,1.31,0.742    c0.967,3.501-1.395,7.727-1.497,7.904C356.684,381.246,356.324,381.44,355.954,381.44z"/>
		<path style="fill:#251426;" d="M359.682,363.962c-0.11,0-0.225-0.018-0.337-0.055c-0.557-0.185-0.859-0.788-0.674-1.345    c0.012-0.039,1.289-3.963,0.062-6.422c-0.262-0.526-0.05-1.165,0.476-1.427c0.53-0.261,1.164-0.05,1.428,0.477    c1.624,3.251,0.119,7.851,0.054,8.045C360.543,363.68,360.127,363.962,359.682,363.962z"/>
		<path style="fill:#251426;" d="M344.337,378.543c-0.11,0-0.225-0.018-0.337-0.055c-0.557-0.185-0.859-0.788-0.674-1.345    c0.012-0.039,1.289-3.963,0.062-6.422c-0.262-0.526-0.05-1.165,0.476-1.427c0.53-0.262,1.164-0.05,1.428,0.477    c1.624,3.251,0.119,7.851,0.054,8.045C345.198,378.261,344.782,378.543,344.337,378.543z"/>
		<path style="fill:#251426;" d="M350.898,360.975c-0.11,0-0.225-0.018-0.337-0.055c-0.557-0.185-0.859-0.788-0.674-1.345    c0.012-0.04,1.289-3.963,0.062-6.42c-0.262-0.526-0.05-1.165,0.476-1.428c0.528-0.263,1.164-0.051,1.428,0.476    c1.624,3.251,0.118,7.851,0.054,8.045C351.758,360.693,351.342,360.975,350.898,360.975z"/>
		<path style="fill:#251426;" d="M351.507,375.339c-0.179,0-0.358-0.045-0.524-0.138c-0.512-0.29-0.69-0.939-0.403-1.45    c0.021-0.036,2.029-3.641,1.297-6.289c-0.156-0.568,0.177-1.154,0.744-1.31c0.566-0.153,1.154,0.177,1.31,0.742    c0.967,3.504-1.397,7.728-1.499,7.905C352.237,375.144,351.877,375.339,351.507,375.339z"/>
	</g>
	<g>
		<path style="fill:#251426;" d="M137.561,400.027c-0.37,0-0.73-0.194-0.925-0.54c-0.102-0.178-2.464-4.403-1.497-7.905    c0.158-0.566,0.746-0.896,1.31-0.742c0.568,0.156,0.9,0.742,0.744,1.31c-0.732,2.648,1.275,6.252,1.295,6.289    c0.287,0.512,0.108,1.161-0.403,1.45C137.918,399.982,137.74,400.027,137.561,400.027z"/>
		<path style="fill:#251426;" d="M142.241,391.588c-0.37,0-0.73-0.194-0.925-0.54c-0.102-0.178-2.464-4.403-1.497-7.904    c0.156-0.567,0.751-0.898,1.31-0.742c0.568,0.157,0.9,0.742,0.744,1.31c-0.732,2.647,1.275,6.251,1.295,6.288    c0.287,0.511,0.108,1.161-0.403,1.45C142.599,391.543,142.42,391.588,142.241,391.588z"/>
		<path style="fill:#251426;" d="M143.266,406.16c-0.37,0-0.73-0.194-0.925-0.54c-0.102-0.178-2.464-4.403-1.497-7.904    c0.158-0.567,0.749-0.898,1.31-0.742c0.568,0.157,0.9,0.742,0.744,1.31c-0.732,2.647,1.275,6.251,1.295,6.288    c0.287,0.512,0.108,1.161-0.403,1.45C143.624,406.115,143.445,406.16,143.266,406.16z"/>
		<path style="fill:#251426;" d="M134.373,384.28c-0.37,0-0.73-0.194-0.925-0.54c-0.102-0.178-2.464-4.403-1.497-7.905    c0.158-0.565,0.746-0.899,1.31-0.742c0.568,0.156,0.9,0.742,0.744,1.31c-0.732,2.648,1.275,6.252,1.295,6.289    c0.287,0.512,0.108,1.161-0.403,1.45C134.731,384.235,134.552,384.28,134.373,384.28z"/>
		<path style="fill:#251426;" d="M130.647,366.8c-0.445,0-0.861-0.282-1.011-0.727c-0.064-0.194-1.572-4.794,0.052-8.045    c0.264-0.528,0.898-0.74,1.428-0.477c0.526,0.262,0.738,0.901,0.476,1.427c-1.227,2.459,0.05,6.38,0.064,6.42    c0.185,0.558-0.116,1.16-0.674,1.346C130.872,366.783,130.757,366.8,130.647,366.8z"/>
		<path style="fill:#251426;" d="M145.992,381.381c-0.445,0-0.861-0.282-1.011-0.727c-0.064-0.194-1.57-4.793,0.052-8.045    c0.26-0.526,0.902-0.74,1.426-0.477c0.528,0.262,0.74,0.901,0.478,1.427c-1.023,2.051-0.301,5.329,0.064,6.419    c0.185,0.558-0.116,1.161-0.674,1.347C146.217,381.363,146.105,381.381,145.992,381.381z"/>
		<path style="fill:#251426;" d="M139.432,363.814c-0.445,0-0.861-0.282-1.011-0.728c-0.064-0.193-1.57-4.794,0.052-8.045    c0.262-0.526,0.904-0.74,1.426-0.477c0.528,0.262,0.74,0.901,0.478,1.427c-1.023,2.051-0.301,5.33,0.064,6.421    c0.185,0.557-0.116,1.16-0.674,1.346C139.657,363.797,139.544,363.814,139.432,363.814z"/>
		<path style="fill:#251426;" d="M138.821,378.178c-0.37,0-0.73-0.194-0.925-0.54c-0.102-0.178-2.464-4.403-1.497-7.905    c0.158-0.566,0.746-0.898,1.31-0.742c0.568,0.156,0.9,0.742,0.744,1.31c-0.732,2.648,1.275,6.252,1.295,6.289    c0.287,0.511,0.108,1.161-0.403,1.45C139.178,378.133,139,378.178,138.821,378.178z"/>
	</g>
	<g>
		<path style="fill:#251426;" d="M213.886,356.933c-0.493,0-0.936-0.345-1.04-0.847c-0.042-0.201-1-4.943,0.986-7.983    c0.324-0.495,0.986-0.629,1.474-0.309c0.493,0.321,0.63,0.981,0.31,1.473c-1.254,1.918-0.921,5.258-0.686,6.384    c0.121,0.576-0.25,1.139-0.823,1.259C214.032,356.926,213.959,356.933,213.886,356.933z"/>
		<path style="fill:#251426;" d="M220.919,350.324c-0.493,0-0.936-0.345-1.04-0.846c-0.042-0.201-1.004-4.943,0.988-7.984    c0.322-0.495,0.988-0.628,1.472-0.308c0.493,0.322,0.63,0.982,0.308,1.474c-1.254,1.917-0.919,5.256-0.684,6.382    c0.121,0.575-0.247,1.139-0.823,1.259C221.064,350.317,220.991,350.324,220.919,350.324z"/>
		<path style="fill:#251426;" d="M217.448,364.514c-0.493,0-0.936-0.345-1.04-0.846c-0.042-0.201-1.004-4.943,0.988-7.985    c0.322-0.494,0.986-0.627,1.472-0.308c0.493,0.322,0.63,0.981,0.308,1.474c-1.503,2.299-0.692,6.344-0.684,6.384    c0.119,0.575-0.25,1.138-0.825,1.258C217.594,364.507,217.521,364.514,217.448,364.514z"/>
		<path style="fill:#251426;" d="M215.656,340.964c-0.493,0-0.936-0.345-1.04-0.847c-0.042-0.2-1.004-4.943,0.988-7.984    c0.322-0.495,0.988-0.629,1.472-0.308c0.493,0.322,0.63,0.982,0.308,1.474c-1.503,2.299-0.692,6.344-0.684,6.384    c0.119,0.575-0.25,1.138-0.825,1.258C215.801,340.957,215.729,340.964,215.656,340.964z"/>
		<path style="fill:#251426;" d="M217.44,323.181c-0.582,0-1.058-0.468-1.065-1.051c-0.002-0.205-0.033-5.044,2.503-7.645    c0.414-0.421,1.087-0.428,1.505-0.019c0.422,0.411,0.43,1.084,0.021,1.505c-1.601,1.641-1.915,4.983-1.9,6.132    c0.006,0.588-0.464,1.071-1.052,1.078C217.448,323.181,217.444,323.181,217.44,323.181z"/>
		<path style="fill:#251426;" d="M227.605,341.748c-0.582,0-1.058-0.468-1.065-1.051c-0.002-0.205-0.033-5.044,2.503-7.645    c0.416-0.421,1.09-0.426,1.505-0.019c0.422,0.411,0.43,1.084,0.021,1.505c-1.601,1.641-1.915,4.983-1.9,6.132    c0.006,0.588-0.464,1.071-1.052,1.078C227.614,341.748,227.61,341.748,227.605,341.748z"/>
		<path style="fill:#251426;" d="M226.718,323.017c-0.582,0-1.058-0.468-1.065-1.051c-0.002-0.205-0.033-5.044,2.503-7.645    c0.414-0.421,1.087-0.426,1.505-0.019c0.422,0.411,0.43,1.084,0.021,1.505c-1.601,1.641-1.915,4.983-1.9,6.132    c0.006,0.588-0.464,1.071-1.052,1.078C226.726,323.017,226.722,323.017,226.718,323.017z"/>
		<path style="fill:#251426;" d="M221.752,336.509c-0.493,0-0.936-0.345-1.04-0.847c-0.042-0.2-1.004-4.943,0.988-7.984    c0.322-0.494,0.986-0.628,1.472-0.308c0.493,0.322,0.63,0.982,0.308,1.474c-1.503,2.299-0.692,6.344-0.684,6.384    c0.119,0.575-0.25,1.138-0.825,1.258C221.898,336.502,221.825,336.509,221.752,336.509z"/>
	</g>
	<path style="fill:#251626;" d="M216.244,432.876c-0.116,0-0.235-0.019-0.351-0.059c-22.816-7.968-37.296-19.738-43.039-34.987   c-7.485-19.874,2.639-38.165,3.073-38.934c0.289-0.515,0.94-0.689,1.451-0.402c0.512,0.288,0.692,0.938,0.403,1.449   c-0.102,0.181-10.068,18.231-2.926,37.16c5.514,14.619,19.558,25.959,41.739,33.704c0.555,0.194,0.848,0.802,0.653,1.357   C217.097,432.602,216.685,432.876,216.244,432.876z"/>
	<path style="fill:#251626;" d="M273.73,435.005c-0.493,0-0.936-0.346-1.04-0.849c-0.119-0.576,0.252-1.138,0.828-1.258   c0.405-0.084,40.637-9.034,39.604-62.811c-0.01-0.588,0.455-1.074,1.044-1.085c0.008,0,0.015,0,0.021,0   c0.578,0,1.054,0.464,1.065,1.044c1.069,55.601-40.88,64.851-41.305,64.939C273.873,434.998,273.803,435.005,273.73,435.005z"/>
	<path style="fill:#251626;" d="M311.972,511.252c-0.472,0-0.9-0.314-1.029-0.79c-2.009-7.521-7.107-21.934-7.159-22.079   c-0.195-0.554,0.096-1.162,0.649-1.359c0.555-0.198,1.16,0.093,1.36,0.648c0.05,0.146,5.177,14.637,7.209,22.241   c0.152,0.568-0.187,1.152-0.755,1.304C312.155,511.239,312.061,511.252,311.972,511.252z"/>
	<path style="fill:#251626;" d="M315.434,511.626c-0.212,0-0.424-0.062-0.611-0.193c-0.48-0.337-0.599-1-0.26-1.483   c2.778-3.967-1.443-16.361-3.304-20.801c-0.227-0.543,0.027-1.166,0.57-1.393c0.545-0.229,1.166,0.029,1.393,0.57   c0.732,1.745,7.034,17.206,3.084,22.847C316.099,511.468,315.768,511.626,315.434,511.626z"/>
	<path style="fill:#251626;" d="M178.102,505.239c-0.127,0-0.254-0.023-0.378-0.071c-0.551-0.208-0.825-0.823-0.615-1.372   c4.321-11.344,10.232-15.738,10.482-15.919c0.476-0.346,1.135-0.24,1.485,0.233c0.345,0.474,0.243,1.139-0.231,1.488   c-0.056,0.041-5.67,4.257-9.748,14.955C178.936,504.979,178.531,505.239,178.102,505.239z"/>
	<path style="fill:#251626;" d="M173.312,505.771c-0.559,0-1.027-0.435-1.063-0.998c-0.547-8.741,4.712-17.791,4.936-18.172   c0.299-0.51,0.956-0.672,1.455-0.378c0.507,0.298,0.678,0.95,0.378,1.458c-0.05,0.087-5.15,8.877-4.645,16.96   c0.037,0.586-0.41,1.092-0.996,1.129C173.355,505.771,173.332,505.771,173.312,505.771z"/>
	<path style="fill:#251626;" d="M181.296,263.578c-0.146,0-0.291-0.029-0.432-0.091c-0.399-0.178-9.818-4.395-14.692-9.269   c-0.416-0.416-0.416-1.09,0-1.505c0.416-0.416,1.09-0.416,1.505,0c4.593,4.593,13.958,8.787,14.052,8.829   c0.536,0.239,0.78,0.868,0.541,1.406C182.092,263.343,181.704,263.578,181.296,263.578z"/>
	<path style="fill:#251626;" d="M174.906,267.304c-0.227,0-0.455-0.073-0.649-0.222c-0.25-0.192-6.134-4.803-8.868-12.461   c-0.198-0.553,0.091-1.162,0.645-1.36c0.559-0.198,1.162,0.09,1.36,0.645c2.518,7.051,8.109,11.448,8.165,11.492   c0.466,0.361,0.551,1.029,0.191,1.494C175.541,267.162,175.225,267.304,174.906,267.304z"/>
	<path style="fill:#251626;" d="M339.121,284.604c-0.418,0-0.815-0.247-0.983-0.658c-0.225-0.544,0.033-1.166,0.578-1.391   c0.297-0.123,7.331-3.008,11.033-3.008c0.006,0,0.015,0,0.023,0c0.586,0.002,1.062,0.48,1.06,1.068   c-0.002,0.587-0.478,1.061-1.065,1.061c-0.008,0-0.015,0-0.023,0c-3.277,0-10.147,2.818-10.217,2.848   C339.393,284.578,339.256,284.604,339.121,284.604z"/>
	<path style="fill:#251626;" d="M342.048,288.33c-0.439,0-0.85-0.273-1.004-0.71c-0.195-0.554,0.096-1.162,0.651-1.359   c4.522-1.598,8.681-3.848,8.895-4.816c0.127-0.572,0.694-0.933,1.27-0.809c0.574,0.128,0.936,0.697,0.809,1.27   c-0.597,2.682-7.379,5.343-10.267,6.363C342.285,288.31,342.167,288.33,342.048,288.33z"/>
	<path style="fill:#251626;" d="M447.442,217.269c-0.395,0-0.776-0.221-0.959-0.603c-0.256-0.529-0.033-1.165,0.497-1.42   c0.279-0.135,27.931-13.744,23.373-35.014c-4.524-21.124-19.393-18.894-19.543-18.868c-0.566,0.102-1.127-0.295-1.225-0.875   c-0.098-0.58,0.295-1.128,0.875-1.225c0.173-0.027,17.027-2.564,21.976,20.521c4.909,22.91-24.238,37.237-24.533,37.379   C447.756,217.236,447.598,217.269,447.442,217.269z"/>
	<path style="fill:#251626;" d="M150.423,121.456c-0.017,0-0.035-0.001-0.052-0.001c-0.588-0.029-1.04-0.529-1.011-1.117   c0.015-0.313,1.356-31.406-15.436-41.076c-3.543-2.039-7.169-2.476-10.785-1.304c-10.889,3.536-18.51,20.341-18.587,20.511   c-0.239,0.537-0.871,0.773-1.406,0.537c-0.536-0.24-0.778-0.869-0.539-1.406c0.324-0.727,8.078-17.834,19.869-21.667   c4.208-1.369,8.421-0.871,12.507,1.484c17.925,10.319,16.568,41.695,16.501,43.026   C151.459,121.014,150.987,121.456,150.423,121.456z"/>
	<path style="fill:#251626;" d="M380.028,242.092c-0.283,0-0.593-0.085-0.788-0.231c-0.445-0.331-1.487-1.104-1.096-14.733   c0.017-0.588,0.559-1.039,1.096-1.034c0.586,0.018,1.05,0.507,1.033,1.095c-0.127,4.437-0.081,9.524,0.177,11.91   c1.32-1.829,3.882-5.948,5.999-9.617c0.291-0.508,0.942-0.683,1.453-0.39c0.509,0.294,0.684,0.945,0.389,1.454   c-6.323,10.96-7.533,11.364-7.93,11.496C380.263,242.077,380.147,242.092,380.028,242.092z"/>
	<path style="fill:#251626;" d="M376.824,252.046c-0.131,0-0.266-0.024-0.395-0.076c-0.547-0.218-0.811-0.838-0.593-1.384   c1.042-2.604,2.092-5.716,2.37-7.182c-1.41,0.455-4.404,2.021-6.862,3.518c-0.501,0.303-1.158,0.148-1.462-0.357   c-0.306-0.502-0.148-1.157,0.356-1.463c4.976-3.029,8.105-4.316,9.286-3.834c0.412,0.169,0.709,0.512,0.817,0.937   c0.395,1.582-1.636,6.941-2.53,9.171C377.645,251.793,377.246,252.046,376.824,252.046z"/>
	<path style="fill:#251626;" d="M383.567,241.754c-0.445,0-0.861-0.282-1.01-0.728c-0.185-0.558,0.116-1.161,0.674-1.346   c3.183-1.061,9.371-2.783,9.633-2.856c0.576-0.154,1.152,0.177,1.31,0.741c0.158,0.567-0.173,1.153-0.74,1.311   c-0.064,0.018-6.398,1.779-9.529,2.823C383.792,241.737,383.679,241.754,383.567,241.754z"/>
	<path style="fill:#251626;" d="M140.823,204.135c-0.083,0-0.164-0.009-0.239-0.027c-1.474-0.369-10.513-5.169-12.309-6.127   c-0.518-0.278-0.715-0.922-0.439-1.441c0.279-0.518,0.923-0.71,1.441-0.439c3.354,1.788,7.993,4.196,10.376,5.322   c-0.753-2.238-2.622-6.578-4.387-10.315c-0.252-0.531-0.023-1.165,0.507-1.417c0.532-0.247,1.169-0.024,1.418,0.508   c5.743,12.156,5.073,12.971,4.631,13.51C141.609,203.969,141.189,204.135,140.823,204.135z"/>
	<path style="fill:#251626;" d="M144.036,201.3c-0.112,0-0.225-0.018-0.337-0.055c-0.557-0.185-0.859-0.788-0.674-1.346   c1.618-4.856-0.651-10.185-0.674-10.238c-0.235-0.539,0.012-1.165,0.551-1.4c0.534-0.237,1.164,0.01,1.399,0.549   c0.108,0.246,2.626,6.117,0.744,11.763C144.896,201.018,144.481,201.3,144.036,201.3z"/>
	<path style="fill:#251626;" d="M145.1,217.979c-0.43,0-0.836-0.263-0.996-0.69c-1.693-4.514-3.437-10.234-2.137-11.852   c0.364-0.453,0.913-0.66,1.51-0.578c2.713,0.389,8.09,5.954,9.14,7.066c0.403,0.427,0.385,1.101-0.042,1.504   c-0.428,0.404-1.102,0.384-1.505-0.043c-2.198-2.325-5.766-5.598-7.471-6.295c-0.058,1.406,0.994,5.436,2.497,9.448   c0.208,0.551-0.071,1.164-0.622,1.371C145.352,217.957,145.225,217.979,145.1,217.979z"/>
</g>















</svg>
