<?xml version="1.0" encoding="UTF-8"?>
<!-- Generator: Adobe Illustrator 25.2.0, SVG Export Plug-In . SVG Version: 6.00 Build 0)  -->
<svg xmlns="http://www.w3.org/2000/svg" xmlns:xlink="http://www.w3.org/1999/xlink" version="1.1" id="Capa_1" x="0px" y="0px" viewBox="0 0 512 512" style="enable-background:new 0 0 512 512;" xml:space="preserve" width="512" height="512">
<g>
	<path style="fill:#251626;" d="M110.449,103.708c-1.399,0-2.561-0.271-3.471-0.86c-1.462-0.95-2.171-2.62-2.105-4.96   c0.171-6.037,2.327-11.027,6.407-14.826c4.492-4.182,10.543-6.235,15.717-7.235C99.541,71.21,87.364,57.246,85.24,44.752   c-1.006-5.921,0.5-11.184,3.581-12.515c0.945-0.412,3.436-0.978,6.118,2.57c7.534,9.963,31.52,16.206,43.623,18.8   c-16.792-10.413-16.673-24.667-15.694-30.765c1.365-8.499,6.574-15.834,11.612-16.353c1.555-0.175,4.416,0.231,6.106,4.66   c4.545,11.908,24.984,24.709,36.448,31.127c-9.459-9.874-11.007-19.421-8.872-25.681c1.59-4.662,5.246-7.675,9.316-7.675   c0.002,0,0.003,0,0.005,0c4.802,0.004,8.905,3.978,11.257,10.905c8.354,24.612,47.962,50.352,48.362,50.611   c0.499,0.322,0.643,0.988,0.322,1.487c-0.323,0.5-0.987,0.648-1.489,0.322c-1.655-1.066-40.64-26.41-49.234-51.725   c-2.036-6.001-5.397-9.443-9.218-9.445c-0.001,0-0.003,0-0.003,0c-3.135,0-5.992,2.439-7.28,6.218   c-2.325,6.817,0.364,18.088,14.88,29.272c0.437,0.339,0.549,0.95,0.258,1.421c-0.288,0.469-0.884,0.646-1.386,0.4   c-1.577-0.765-38.706-18.992-45.377-36.465c-0.898-2.353-2.193-3.436-3.873-3.289c-3.545,0.366-8.404,6.432-9.707,14.553   c-1.014,6.312-1,22.056,20.962,31.892c0.493,0.221,0.746,0.774,0.591,1.291c-0.156,0.517-0.678,0.854-1.204,0.753   c-1.687-0.273-41.433-6.878-52.122-21.013c-0.73-0.965-2.162-2.5-3.545-1.892c-1.851,0.799-3.222,4.826-2.312,10.179   c2.24,13.182,16.635,28.124,50.316,30.523c0.587,0.042,1.031,0.549,0.998,1.135s-0.539,1.014-1.12,1.016   c-0.164-0.017-16.066-0.576-24.815,7.576c-3.64,3.392-5.563,7.868-5.716,13.308c-0.066,2.317,0.831,2.9,1.125,3.091   c3.738,2.429,16.764-3.819,30.553-10.432c26.63-12.772,63.105-30.262,82.059-12.753c0.436,0.404,0.464,1.085,0.06,1.52   c-0.405,0.439-1.086,0.463-1.521,0.061c-17.877-16.511-53.59,0.61-79.667,13.115C126.533,98.836,116.369,103.708,110.449,103.708z"/>
	<path style="fill:#F09F99;" d="M177.107,242.842c0,0,20.518-203.814,82.073-184.664s118.357,120.883,108.781,130.458   s-11.762,28.249-26.185,31.253c-32.829,6.839-74.389-64.592-74.389-64.592s31.461,98.487,19.15,98.487   C274.226,253.785,175.739,248.314,177.107,242.842z"/>
	<path style="fill:#F09F99;" d="M283.802,231.899c0,0,93.016,125.845,6.839,198.343c-10.777,9.066-110.737,6.878-121.741,0   c-109.43-68.394,17.782-212.021,17.782-212.021L283.802,231.899z"/>
	<path style="fill:#F09F99;" d="M294.033,385.616c0,0,55.549,93.185,48.75,97.981c-6.799,4.796-38.836,20.239-38.836,20.239   s-49.432-93.097-45.053-99.763C263.272,397.406,294.033,385.616,294.033,385.616z"/>
	<path style="fill:#F09F99;" d="M172.37,391.941c0,0-9.575,108.063-1.368,109.43c8.207,1.368,43.772,1.368,43.772,1.368   s4.104-105.327-2.736-109.43S172.37,391.941,172.37,391.941z"/>
	<path style="fill:#F09F99;" d="M142.536,390.936c0,0-58.165-14.126-57.334-8.309s9.971,74.784,61.489,21.604L142.536,390.936z"/>
	<path style="fill:#F9D5B3;" d="M268.755,435.029c0,0,83.903-200.916-32.145-195.607c-104.643,4.788-23.254,193.555-20.518,195.607   S268.755,435.029,268.755,435.029z"/>
	<path style="fill:#F9D5B3;" d="M379.217,211.852c0,0-89.185-99.762-108.41-49.031c0,0,43.5,59.728,69.225,67.855   C353.461,234.918,379.217,211.852,379.217,211.852z"/>
	<path style="fill:#251626;" d="M244.278,171.582c-2.217,0-4.347-0.355-6.389-1.068c-15.151-5.288-19.621-28.097-19.803-29.066   c-0.11-0.585,0.273-1.146,0.858-1.257c0.584-0.101,1.147,0.273,1.257,0.858c0.043,0.225,4.426,22.562,18.403,27.434   c8.132,2.83,18.04-0.723,29.447-10.579c0.45-0.391,1.129-0.341,1.519,0.109c0.389,0.45,0.339,1.131-0.11,1.518   C260.182,167.549,251.742,171.582,244.278,171.582z"/>
	<path style="fill:#251626;" d="M254.94,127.326c-0.015,0-0.031,0-0.045,0c-3.325-0.084-8.495-12.671-11.28-20.167   c-0.207-0.557,0.077-1.175,0.634-1.384c0.56-0.208,1.178,0.076,1.385,0.635c3.13,8.421,7.498,17.734,9.223,18.706   c0.933-1.31,1.029-8.89,0.191-16.975c-0.061-0.593,0.369-1.121,0.96-1.182c0.593-0.071,1.121,0.368,1.183,0.959   c0.39,3.766,1.481,16.248-0.845,18.765C255.858,127.21,255.321,127.326,254.94,127.326z"/>
	<path style="fill:#251626;" d="M286.892,120.986c-0.103,0-0.199-0.008-0.284-0.021c-3.287-0.513-6.78-13.666-8.571-21.458   c-0.134-0.58,0.229-1.159,0.809-1.291c0.579-0.135,1.156,0.229,1.29,0.807c2.012,8.758,5.136,18.559,6.719,19.747   c1.094-1.18,2.173-8.682,2.391-16.809c0.016-0.595,0.603-1.045,1.105-1.047c0.595,0.017,1.064,0.511,1.048,1.106   c-0.102,3.783-0.637,16.3-3.271,18.496C287.686,120.885,287.244,120.986,286.892,120.986z"/>
	<path style="fill:#251626;" d="M360.671,159.729c0,0-26.399,41.22,3.851,62.567c0,0,27.362-16.895,25.433-25.294   S360.671,159.729,360.671,159.729z"/>
	<path style="fill:#251626;" d="M312.82,208.72c-0.214,0-0.431-0.063-0.619-0.198c-5.732-4.039-8.954-8.84-9.578-14.267   c-1.027-8.934,5.362-16.22,5.634-16.527c0.395-0.444,1.073-0.484,1.519-0.086c0.444,0.393,0.484,1.074,0.089,1.518   c-0.06,0.069-6.026,6.897-5.102,14.864c0.555,4.786,3.475,9.071,8.678,12.74c0.486,0.341,0.602,1.014,0.26,1.499   C313.49,208.561,313.158,208.72,312.82,208.72z"/>
	<path style="fill:#F09F99;" d="M222.618,80.25c0,0-56.425,13.549-63.318,16.9c-6.893,3.352,4.879,28.943,30.25,21.347   C214.921,110.902,228.906,79.396,222.618,80.25z"/>
	<path style="fill:#F09F99;" d="M296.084,80.975c0,0,39.174,0.46,46.839,0.468s6.939,18.715-19.204,22.951   C297.576,108.63,290.053,82.949,296.084,80.975z"/>
	<path style="fill:#E33961;" d="M346.942,261.558c0,0-160.059,14.776-205.58-22.773c0,0,13.648,128.588,103.969,125.528   S346.942,261.558,346.942,261.558z"/>
	<path style="fill:#E33961;" d="M348.776,270.2c0,0,30.777,84.125,26.674,95.068c-4.104,10.943-49.244,9.575-51.979,1.368   C320.734,358.428,330.993,248.998,348.776,270.2z"/>
	<path style="fill:#E33961;" d="M151.763,258.051c0,0,8.017,89.218,1.227,98.731s-50.046-3.462-50.571-12.097   C101.896,336.049,140.057,232.977,151.763,258.051z"/>
	<path style="fill:#F09F99;" d="M139.872,225.112c0,0,28.864,24.412,26.371,28.567c-2.493,4.155-16.619,24.928-23.266,26.59   s-23.266-7.478-36.561-32.406S119.099,205.169,139.872,225.112z"/>
	<path style="fill:#F09F99;" d="M343.453,246.215c0,0-26.937,23.456-24.444,27.61s16.619,24.928,23.266,26.59   s23.266-7.478,36.561-32.406C392.131,243.081,364.226,226.272,343.453,246.215z"/>
	<g>
		<path style="fill:#FFFFFF;" d="M184.131,302.284l0.273,11.876v1.665l-0.027,1.557h0.737l1.61-0.055    c1.529,0,2.293,0.464,2.293,1.392c0,0.474-0.187,0.879-0.56,1.216s-0.805,0.505-1.297,0.505h-2.457    c-1.692,0-2.775-0.036-3.248-0.109c-0.292,0.036-0.519,0.055-0.683,0.055c-1.329,0-1.993-0.419-1.993-1.256    c0-0.346,0.109-0.673,0.327-0.983c0.219-0.309,0.438-0.473,0.655-0.491h1.584l0.109-0.737l-0.383-11.875l0.301-12.449    c0-2.13-0.092-4.132-0.273-6.006h-1.064l-1.283,0.055c-0.546,0-0.974-0.104-1.283-0.314c-0.31-0.209-0.464-0.604-0.464-1.188    c0-0.855,0.919-1.283,2.757-1.283h6.662c1.51,0,2.266,0.392,2.266,1.174c0,0.346-0.164,0.665-0.491,0.956    c-0.328,0.291-0.701,0.437-1.119,0.437h-2.867c0.146,1.528,0.219,3.258,0.219,5.187L184.131,302.284z"/>
		<path style="fill:#FFFFFF;" d="M201.495,289.535l0.163,13.432c-0.218,0.51-0.327,1.146-0.327,1.911v1.119l-0.219,8.9    c0,2.566,0.628,3.849,1.884,3.849l2.32-0.081c2.002,0,3.004,0.546,3.004,1.638c0,0.4-0.174,0.732-0.52,0.996    s-0.736,0.424-1.174,0.479c-1.365-0.438-3.03-0.655-4.996-0.655c-0.601,0.345-1.179,0.519-1.733,0.519    c-0.556,0-0.987-0.191-1.297-0.573c-0.31-0.383-0.464-0.801-0.464-1.256c0-2.767,0.118-6.93,0.354-12.49    c0.236-5.56,0.355-9.724,0.355-12.49v-0.409c-0.219-2.33-0.328-4.077-0.328-5.242c0-3.53,0.646-5.296,1.938-5.296    c0.383,0,0.714,0.137,0.997,0.409c0.281,0.273,0.423,0.601,0.423,0.983L201.495,289.535z"/>
		<path style="fill:#FFFFFF;" d="M210.449,303.786l0.055-2.13c0-0.182-0.027-0.272-0.082-0.272v-1.011    c0-5.86,0.336-10.028,1.01-12.503c0.564-2.093,1.11-3.386,1.638-3.877c0.528-0.491,1.047-0.737,1.557-0.737    c4.331,0,7.316,2.184,8.954,6.552c0.946,2.512,1.42,5.606,1.42,9.282v0.41l0.109,6.333c0,10.721-2.484,16.08-7.453,16.08    c-2.057,0-3.631-1.137-4.723-3.412c-1.038-2.185-1.675-4.331-1.911-6.443C210.64,308.873,210.449,306.116,210.449,303.786z     M213.752,296.142l-0.272,5.16c0,5.405,0.437,10.119,1.311,14.142c0.928,2.348,1.811,3.731,2.647,4.149    c0.674,0,1.283-0.272,1.829-0.819c0.547-0.546,0.979-1.278,1.297-2.197s0.587-1.888,0.806-2.907    c0.2-1.001,0.354-2.075,0.464-3.222c0.182-1.983,0.273-3.676,0.273-5.078c0-1.401-0.123-3.549-0.369-6.442    c-0.245-2.895-0.368-5.051-0.368-6.471v-0.982c-0.037-1.365-0.482-2.58-1.338-3.645c-0.855-1.065-1.947-1.598-3.275-1.598    c-1.274,0-2.121,0.72-2.539,2.157c-0.347,1.201-0.52,2.685-0.52,4.449L213.752,296.142z"/>
		<path style="fill:#FFFFFF;" d="M235.374,314.133c0.818-4.113,1.824-10.056,3.017-17.827c1.191-7.771,1.897-12.285,2.115-13.541    h1.256c0.328,0,0.624,0.118,0.888,0.354c0.264,0.237,0.396,0.528,0.396,0.874c0,2.093-0.446,4.728-1.337,7.903    c-0.893,3.176-1.416,5.224-1.57,6.143s-0.313,2.407-0.478,4.464s-0.355,4.077-0.573,6.061c-0.219,1.984-0.51,4.004-0.874,6.061    s-0.878,3.723-1.542,4.996c-0.665,1.273-1.452,1.911-2.361,1.911l-1.038-0.847c0-4.531-0.433-9.154-1.297-13.868    s-1.711-8.673-2.539-11.876s-1.388-5.232-1.679-6.088c-0.655-2.021-0.982-3.276-0.982-3.768s0.141-0.864,0.423-1.119    s0.596-0.383,0.942-0.383c1.037,0,2.028,1.784,2.976,5.352c0.946,3.586,1.655,6.938,2.129,10.06    c0.474,3.122,0.828,5.511,1.065,7.167c0.236,1.656,0.459,3.316,0.668,4.982C235.187,312.809,235.319,313.805,235.374,314.133z"/>
		<path style="fill:#FFFFFF;" d="M246.54,292.647l-0.3-4.724c0-2.639,0.782-3.958,2.348-3.958c1.001,0,2.365,0.231,4.095,0.696    c1.729,0.464,2.594,1.061,2.594,1.788c0,0.765-0.546,1.347-1.638,1.747c-1.729-0.582-3.14-0.938-4.231-1.064    c0.054,0.801,0.081,1.602,0.081,2.402l-0.245,8.026c0,0.036,0.055,0.327,0.164,0.873l1.992-0.081c1.802,0,2.703,0.51,2.703,1.528    c0,0.4-0.164,0.751-0.491,1.051c-0.328,0.301-0.742,0.451-1.242,0.451c-0.501,0-1.042-0.037-1.625-0.109h-1.419    c0.108,1.419,0.163,2.83,0.163,4.231l-0.245,10.129c0,2.093,0.036,3.139,0.109,3.139l4.122-0.136c1.42,0,2.129,0.455,2.129,1.364    c0,0.564-0.245,0.974-0.736,1.229c-0.492,0.255-1.047,0.383-1.666,0.383h-4.723c-0.491,0-0.938-0.169-1.338-0.505    c-0.4-0.337-0.609-0.742-0.628-1.215v-1.475l-0.354-9.446L246.54,292.647z"/>
		<path style="fill:#FFFFFF;" d="M272.666,317.9c0,2.493-0.609,3.74-1.829,3.74c-0.673,0-1.192-0.41-1.556-1.229    c0.418-0.819,0.628-3.977,0.628-9.474c0-1.001-0.101-2.42-0.301-4.259c-0.2-1.838-0.318-3.148-0.354-3.932v-1.446    c-0.073-0.164-0.655-1.639-1.747-4.423c-2.476-6.242-3.713-9.965-3.713-11.166v-0.3l1.256-0.929    c1.146,0.019,2.512,2.903,4.095,8.654c0.691,2.512,1.037,3.776,1.037,3.795c0.146-0.419,0.438-1.811,0.874-4.177    c1.109-6.043,2.274-9.064,3.494-9.064c0.346,0,0.66,0.109,0.942,0.328c0.281,0.218,0.423,0.501,0.423,0.846    c0,1.856-0.532,4.556-1.597,8.095c-1.065,3.54-1.616,6.238-1.652,8.095V317.9z"/>
		<path style="fill:#FFFFFF;" d="M278.373,303.786l0.055-2.13c0-0.182-0.027-0.272-0.082-0.272v-1.011    c0-5.86,0.336-10.028,1.01-12.503c0.564-2.093,1.11-3.386,1.638-3.877c0.528-0.491,1.047-0.737,1.557-0.737    c4.331,0,7.316,2.184,8.954,6.552c0.946,2.512,1.42,5.606,1.42,9.282v0.41l0.109,6.333c0,10.721-2.484,16.08-7.453,16.08    c-2.057,0-3.631-1.137-4.723-3.412c-1.038-2.185-1.675-4.331-1.911-6.443C278.563,308.873,278.373,306.116,278.373,303.786z     M281.676,296.142l-0.272,5.16c0,5.405,0.437,10.119,1.311,14.142c0.928,2.348,1.811,3.731,2.647,4.149    c0.674,0,1.283-0.272,1.829-0.819c0.547-0.546,0.979-1.278,1.297-2.197s0.587-1.888,0.806-2.907    c0.2-1.001,0.354-2.075,0.464-3.222c0.182-1.983,0.273-3.676,0.273-5.078c0-1.401-0.123-3.549-0.369-6.442    c-0.245-2.895-0.368-5.051-0.368-6.471v-0.982c-0.037-1.365-0.482-2.58-1.338-3.645c-0.855-1.065-1.947-1.598-3.275-1.598    c-1.274,0-2.121,0.72-2.539,2.157c-0.347,1.201-0.52,2.685-0.52,4.449L281.676,296.142z"/>
		<path style="fill:#FFFFFF;" d="M310.041,295.95l0.055,0.956c0,16.544-2.402,24.816-7.207,24.816    c-1.856,0.018-3.231-0.737-4.123-2.267c-0.928-1.564-1.492-3.121-1.692-4.668c-0.31-2.384-0.487-5.119-0.532-8.204    c-0.046-3.085-0.068-7.539-0.068-13.363l-0.245-7.999c0.345-0.782,0.741-1.174,1.188-1.174c0.445,0,0.842,0.341,1.188,1.023    s0.519,1.406,0.519,2.171v15.206c0,1.329,0.132,3.304,0.396,5.924c0.264,2.621,0.396,4.596,0.396,5.925    c0,2.729,1.183,4.095,3.549,4.095c2.657,0,3.985-10.02,3.985-30.058v-3.14l-0.027-0.929c0-0.437,0.101-0.764,0.301-0.982    s0.55-0.327,1.051-0.327s0.878,0.081,1.133,0.245c0.236,0.146,0.41,0.364,0.52,0.655c0.146,0.455,0.227,1.056,0.245,1.802    l-0.382,5.624L310.041,295.95z"/>
	</g>
	<path style="fill:#251626;" d="M153.356,236.835c0,0-32.955,30.155-32.524,31.232c0.431,1.077,16.585,18.308,20.893,16.155   c4.308-2.154,28.432-25.847,27.786-28.863c-0.646-3.016-16.585-19.601-16.585-19.601"/>
	<path style="fill:#251626;" d="M265.845,99.873c-3.936,0-6.337-1.848-7.603-3.276c-0.348-0.393-0.665-0.81-0.955-1.249   c-2.866,2.345-7.526,3.591-14.985,0.322c-7.272-3.188-11.129-7.071-11.463-11.544c-0.546-7.303,8.588-13.148,8.977-13.392   c0.504-0.32,1.168-0.168,1.485,0.336c0.316,0.503,0.166,1.167-0.335,1.485c-0.085,0.053-8.432,5.402-7.978,11.416   c0.272,3.612,3.698,6.886,10.179,9.727c5.637,2.473,10.092,2.355,13.074-0.303c-2.064-4.803-1.498-11.111,0.775-15.117   c1.295-2.281,2.677-1.878,3.21-1.598c2.594,1.356,2.763,9.309,0.309,14.423c-0.407,0.847-0.957,1.785-1.689,2.681   c0.295,0.494,0.631,0.959,1.007,1.384c2.621,2.956,6.755,3.36,11.96,1.182c3.728-1.562,6.402-3.829,7.825-6.577   c-2.503-3.232-4.139-7.227-4.357-9.921c-0.173-2.157,0.596-3.055,1.271-3.427c0.898-0.496,1.935-0.41,2.923,0.238   c1.969,1.287,3.846,5.026,3.443,9.422c-0.084,0.925-0.298,2.086-0.777,3.35c1.407,1.583,3.047,2.837,4.808,3.341   c2.454,0.713,4.88-0.16,7.205-2.572c2.04-2.117,2.811-4.248,2.358-6.516c-1.511-7.557-15.797-13.836-15.941-13.897   c-0.546-0.238-0.796-0.871-0.559-1.417c0.234-0.547,0.868-0.801,1.415-0.559c0.631,0.273,15.468,6.8,17.196,15.451   c0.593,2.971-0.389,5.808-2.92,8.432c-3.856,4.001-7.513,3.827-9.898,2.971c-1.699-0.606-3.276-1.745-4.667-3.167   c-1.447,2.42-4.005,4.954-8.496,6.834C269.991,99.444,267.74,99.873,265.845,99.873z M259.342,78.702   c-0.1,0.099-0.255,0.288-0.454,0.639c-1.8,3.169-2.367,8.173-1.056,12.183c0.141-0.217,0.278-0.442,0.408-0.675   C260.871,86.14,260.257,79.832,259.342,78.702z M277.775,78.263c-0.067,0-0.128,0.015-0.182,0.044   c-0.084,0.071-0.363,0.738-0.003,2.443c0.402,1.907,1.457,4.376,2.948,6.596c0.111-0.475,0.191-0.963,0.237-1.459   c0.342-3.737-1.276-6.64-2.477-7.425C278.093,78.33,277.919,78.263,277.775,78.263z"/>
	<path style="fill:#251626;" d="M364.507,287.982c0,0-30.777-32.145-32.829-31.461c-2.052,0.684-16.415,11.627-16.415,17.099   c0,5.472,26.674,30.777,29.409,30.777C347.408,304.397,364.507,287.982,364.507,287.982z"/>
	<path style="fill:#251626;" d="M140.859,318.468c-0.021,0-0.042,0-0.062-0.002c-0.594-0.034-1.048-0.543-1.014-1.135   c1.065-18.634,1.457-38.882,0.423-43.512c-3.717,5.114-14.002,31.064-14.002,40.837c0,0.595-0.482,1.077-1.077,1.077   s-1.077-0.482-1.077-1.077c0-10.463,11.803-40.326,15.451-43.245c0.483-0.383,1.072-0.452,1.58-0.193   c2.805,1.449,2.011,25.943,0.851,46.235C141.899,318.026,141.425,318.468,140.859,318.468z"/>
	<path style="fill:#251626;" d="M338.517,338.303c-0.275,0-0.551-0.105-0.761-0.315c-0.421-0.421-0.421-1.102,0-1.522   c1.829-1.831,2.717-21.082,3.248-32.582c0.457-9.912,0.742-15.59,1.301-16.984c0.273-0.681,0.818-0.902,1.275-0.849   c0.948,0.078,2.716,0.225,12.404,44.79c0.126,0.582-0.243,1.154-0.823,1.281c-0.592,0.124-1.154-0.244-1.282-0.822   c-2.885-13.272-7.617-33.629-9.972-40.824c-0.274,3.141-0.516,8.384-0.752,13.508c-0.853,18.493-1.63,31.757-3.876,34.005   C339.068,338.198,338.793,338.303,338.517,338.303z"/>
	<path style="fill:#251626;" d="M168.898,279.483c-0.188,0-0.38-0.048-0.553-0.153c-3.546-2.128-12.757-14.742-13.503-19.213   c-0.167-1.005,0.409-1.497,0.666-1.661c2.337-1.508,14.104,5.816,23.569,12.219c0.492,0.332,0.621,1.003,0.288,1.495   c-0.333,0.49-1.002,0.625-1.495,0.288c-8.166-5.524-17.849-11.325-20.748-12.053c1.358,4.439,9.407,15.325,12.33,17.078   c0.51,0.305,0.675,0.967,0.369,1.476C169.621,279.296,169.264,279.483,168.898,279.483z"/>
	<path style="fill:#251626;" d="M323.469,300.002c-0.211,0-0.426-0.063-0.613-0.191c-0.489-0.341-0.61-1.011-0.27-1.499   c6.471-9.319,13.088-20.453,12.986-22.918c-3.261,0.307-10.278,6.996-14.03,11.25c-0.393,0.446-1.073,0.49-1.52,0.095   c-0.446-0.393-0.488-1.074-0.095-1.52c1.083-1.226,10.729-11.99,15.855-11.99c0.743,0,1.353,0.351,1.673,0.961   c1.746,3.341-8.579,18.84-13.1,25.35C324.145,299.84,323.81,300.002,323.469,300.002z"/>
	<path style="fill:#251626;" d="M244.253,353.588c-18.182,0-39.544-5.406-58.338-24.499c-0.416-0.423-0.411-1.106,0.013-1.522   c0.422-0.418,1.103-0.412,1.522,0.013c42.045,42.713,97.358,15.125,97.912,14.843c0.53-0.269,1.176-0.061,1.449,0.469   c0.271,0.528,0.062,1.178-0.467,1.449C286.024,344.504,267.81,353.588,244.253,353.588z"/>
	<path style="fill:#251626;" d="M401.552,97.248c-5.921,0.002-16.083-4.872-29.186-11.155   c-26.077-12.505-61.788-29.634-79.668-13.115c-0.436,0.402-1.117,0.381-1.521-0.061c-0.404-0.435-0.376-1.117,0.06-1.52   c18.957-17.509,55.428-0.019,82.061,12.753c13.789,6.615,26.814,12.852,30.551,10.432c0.294-0.191,1.191-0.774,1.125-3.091   c-0.154-5.44-2.076-9.916-5.716-13.308c-8.748-8.152-24.654-7.595-24.814-7.576c-0.572,0.013-1.086-0.429-1.12-1.016   c-0.034-0.587,0.411-1.093,0.998-1.135c33.68-2.399,48.076-17.341,50.316-30.523c0.91-5.354-0.46-9.38-2.312-10.179   c-1.383-0.603-2.817,0.929-3.546,1.892c-10.688,14.135-50.435,20.739-52.122,21.013c-0.527,0.097-1.047-0.236-1.204-0.753   c-0.156-0.517,0.098-1.07,0.591-1.291c21.962-9.837,21.976-25.58,20.962-31.892c-1.304-8.121-6.162-14.187-9.707-14.552   c-1.669-0.183-2.976,0.935-3.873,3.287c-6.67,17.475-43.8,35.701-45.377,36.467c-0.499,0.242-1.096,0.067-1.386-0.4   c-0.291-0.471-0.18-1.083,0.258-1.421c14.516-11.184,17.205-22.455,14.88-29.272c-1.288-3.779-4.145-6.218-7.278-6.218   c-0.002,0-0.003,0-0.003,0c-3.823,0.003-7.183,3.444-9.219,9.445c-8.595,25.315-47.581,50.659-49.235,51.725   c-0.5,0.324-1.166,0.177-1.489-0.322c-0.322-0.498-0.178-1.165,0.322-1.487c0.4-0.259,40.011-26.007,48.363-50.611   c2.352-6.926,6.455-10.902,11.256-10.905c0.002,0,0.004,0,0.006,0c4.07,0,7.726,3.012,9.316,7.675   c2.134,6.26,0.588,15.806-8.874,25.681c11.464-6.418,31.904-19.219,36.448-31.126c1.69-4.429,4.551-4.821,6.106-4.662   c5.038,0.519,10.248,7.855,11.612,16.354c0.979,6.098,1.097,20.352-15.692,30.763c12.104-2.595,36.09-8.838,43.621-18.798   c2.681-3.545,5.173-2.982,6.118-2.57c3.082,1.331,4.588,6.594,3.581,12.518c-2.124,12.492-14.3,26.457-41.756,31.072   c5.174,1.001,11.223,3.053,15.716,7.235c4.08,3.8,6.236,8.789,6.407,14.826c0.066,2.34-0.642,4.01-2.105,4.96   C404.113,96.977,402.95,97.248,401.552,97.248z"/>
	<path style="fill:#251626;" d="M180.795,113.91c-3.608,0-7.044-1.199-10.252-3.583c-0.477-0.355-0.576-1.03-0.222-1.508   c0.356-0.475,1.029-0.572,1.507-0.221c3.676,2.734,7.675,3.694,11.887,2.868c12.859-2.534,23.91-20.645,24.021-20.825   c0.306-0.513,0.966-0.677,1.478-0.366c0.509,0.307,0.673,0.967,0.366,1.476c-0.47,0.78-11.664,19.112-25.449,21.826   C183.004,113.801,181.891,113.91,180.795,113.91z"/>
	<g>
		<path style="fill:#251426;" d="M269.081,218.906c-0.128,0-0.258-0.023-0.385-0.072c-0.555-0.212-0.833-0.835-0.62-1.39    c0.014-0.036,1.349-3.594,0.327-5.894c-0.241-0.545,0.003-1.18,0.547-1.421c0.544-0.246,1.18,0.002,1.421,0.547    c1.386,3.12-0.217,7.362-0.285,7.54C269.921,218.643,269.514,218.906,269.081,218.906z"/>
		<path style="fill:#251426;" d="M263.618,211.792c-0.128,0-0.258-0.023-0.385-0.072c-0.555-0.212-0.833-0.835-0.62-1.39    c0.014-0.036,1.349-3.594,0.326-5.892c-0.241-0.543,0.003-1.18,0.547-1.421c0.547-0.24,1.181,0.002,1.421,0.547    c1.387,3.118-0.216,7.36-0.284,7.538C264.458,211.53,264.051,211.792,263.618,211.792z"/>
		<path style="fill:#251426;" d="M264.682,225.33c-0.128,0-0.258-0.023-0.385-0.071c-0.555-0.212-0.833-0.835-0.62-1.39    c0.014-0.036,1.349-3.594,0.326-5.894c-0.241-0.542,0.003-1.18,0.547-1.421c0.545-0.24,1.18,0.004,1.421,0.547    c1.387,3.12-0.216,7.362-0.284,7.54C265.522,225.067,265.115,225.33,264.682,225.33z"/>
		<path style="fill:#251426;" d="M269.843,203.991c-0.128,0-0.258-0.023-0.385-0.072c-0.555-0.212-0.833-0.835-0.62-1.39    c0.014-0.036,1.349-3.594,0.326-5.894c-0.241-0.542,0.003-1.18,0.547-1.421c0.546-0.24,1.181,0.004,1.421,0.547    c1.387,3.12-0.216,7.362-0.284,7.54C270.683,203.728,270.276,203.991,269.843,203.991z"/>
		<path style="fill:#251426;" d="M270.864,187.409c-0.062,0-0.124-0.006-0.187-0.017c-0.585-0.101-0.977-0.658-0.876-1.245    c0.006-0.038,0.633-3.785-0.812-5.846c-0.342-0.488-0.224-1.159,0.263-1.499c0.488-0.345,1.158-0.223,1.499,0.263    c1.96,2.795,1.204,7.265,1.171,7.454C271.83,187.041,271.376,187.409,270.864,187.409z"/>
		<path style="fill:#251426;" d="M258.766,202.927c-0.062,0-0.124-0.006-0.186-0.017c-0.586-0.101-0.978-0.658-0.877-1.245    c0.006-0.038,0.633-3.787-0.812-5.846c-0.342-0.486-0.224-1.159,0.263-1.499c0.488-0.343,1.158-0.223,1.499,0.263    c1.96,2.792,1.204,7.265,1.171,7.452C259.732,202.559,259.278,202.927,258.766,202.927z"/>
		<path style="fill:#251426;" d="M262.376,185.874c-0.062,0-0.124-0.006-0.187-0.017c-0.585-0.101-0.977-0.658-0.876-1.245    c0.006-0.038,0.633-3.785-0.812-5.846c-0.342-0.488-0.224-1.159,0.263-1.499c0.487-0.343,1.16-0.223,1.499,0.263    c1.96,2.795,1.204,7.265,1.171,7.454C263.342,185.506,262.888,185.874,262.376,185.874z"/>
		<path style="fill:#251426;" d="M264.914,198.993c-0.128,0-0.258-0.023-0.385-0.072c-0.555-0.212-0.833-0.835-0.62-1.39    c0.014-0.036,1.349-3.594,0.327-5.892c-0.241-0.543,0.003-1.18,0.547-1.421c0.545-0.242,1.18,0.004,1.421,0.547    c1.386,3.118-0.217,7.36-0.285,7.538C265.754,198.73,265.347,198.993,264.914,198.993z"/>
	</g>
	<g>
		<path style="fill:#251426;" d="M144.306,385.49c-0.221,0-0.444-0.067-0.636-0.208c-2.751-2.021-3.467-6.495-3.497-6.685    c-0.09-0.587,0.312-1.135,0.899-1.228c0.594-0.086,1.138,0.313,1.229,0.898c0.005,0.038,0.614,3.789,2.643,5.278    c0.479,0.353,0.582,1.026,0.23,1.506C144.964,385.339,144.637,385.49,144.306,385.49z"/>
		<path style="fill:#251426;" d="M152.581,388.949c-0.221,0-0.444-0.067-0.635-0.208c-2.754-2.017-3.468-6.495-3.498-6.685    c-0.09-0.589,0.312-1.135,0.899-1.228c0.596-0.088,1.138,0.313,1.229,0.9c0.006,0.038,0.613,3.789,2.642,5.276    c0.479,0.351,0.584,1.026,0.232,1.506C153.239,388.798,152.912,388.949,152.581,388.949z"/>
		<path style="fill:#251426;" d="M144.935,377.729c-0.221,0-0.444-0.067-0.636-0.208c-2.752-2.021-3.467-6.495-3.497-6.685    c-0.09-0.587,0.312-1.135,0.899-1.228c0.586-0.082,1.138,0.311,1.229,0.9c0.006,0.036,0.613,3.787,2.643,5.276    c0.479,0.351,0.582,1.026,0.231,1.506C145.593,377.578,145.266,377.729,144.935,377.729z"/>
		<path style="fill:#251426;" d="M151.053,398.813c-0.221,0-0.444-0.067-0.635-0.208c-2.752-2.017-3.468-6.495-3.498-6.685    c-0.09-0.587,0.312-1.135,0.899-1.228c0.595-0.08,1.138,0.313,1.229,0.898c0.006,0.038,0.614,3.791,2.642,5.278    c0.48,0.351,0.584,1.026,0.232,1.506C151.711,398.662,151.384,398.813,151.053,398.813z"/>
		<path style="fill:#251426;" d="M159.496,413.009c-0.154,0-0.309-0.034-0.456-0.103c-3.09-1.451-4.652-5.707-4.717-5.886    c-0.202-0.559,0.087-1.175,0.647-1.377c0.56-0.202,1.175,0.088,1.378,0.646c0.013,0.036,1.33,3.6,3.607,4.67    c0.538,0.252,0.77,0.894,0.517,1.432C160.288,412.78,159.901,413.009,159.496,413.009z"/>
		<path style="fill:#251426;" d="M162.29,393.533c-0.154,0-0.309-0.034-0.456-0.103c-3.09-1.451-4.653-5.709-4.717-5.888    c-0.202-0.559,0.088-1.175,0.647-1.377c0.56-0.204,1.175,0.088,1.378,0.646c0.013,0.036,1.33,3.602,3.607,4.672    c0.538,0.252,0.77,0.894,0.517,1.432C163.081,393.304,162.694,393.533,162.29,393.533z"/>
		<path style="fill:#251426;" d="M167.625,410.126c-0.153,0-0.309-0.034-0.456-0.103c-3.09-1.451-4.652-5.707-4.717-5.886    c-0.202-0.559,0.087-1.175,0.647-1.377c0.558-0.2,1.176,0.088,1.378,0.646c0.013,0.036,1.33,3.6,3.607,4.67    c0.538,0.252,0.77,0.894,0.517,1.432C168.417,409.897,168.03,410.126,167.625,410.126z"/>
		<path style="fill:#251426;" d="M157.812,400.704c-0.221,0-0.444-0.067-0.636-0.208c-2.751-2.021-3.467-6.495-3.497-6.685    c-0.09-0.587,0.312-1.135,0.899-1.228c0.595-0.088,1.138,0.313,1.229,0.898c0.005,0.038,0.614,3.789,2.643,5.278    c0.479,0.353,0.582,1.026,0.23,1.506C158.47,400.552,158.143,400.704,157.812,400.704z"/>
	</g>
	<path style="fill:#251626;" d="M320.602,103.046c-0.293,0-0.585-0.12-0.797-0.353c-0.139-0.154-13.932-15.318-21.009-20.035   c-0.494-0.33-0.629-0.999-0.299-1.493c0.328-0.494,0.995-0.629,1.493-0.299c7.299,4.864,20.837,19.749,21.409,20.38   c0.4,0.439,0.367,1.121-0.074,1.52C321.119,102.953,320.86,103.046,320.602,103.046z"/>
	<path style="fill:#251426;" d="M115.977,413.728c-0.468,0-0.942-0.029-1.425-0.088c-6.646-0.828-12.433-7.448-17.205-19.673   c-0.217-0.553,0.058-1.178,0.612-1.394c0.552-0.217,1.178,0.057,1.394,0.612c4.461,11.43,9.664,17.596,15.466,18.319   c7.327,0.929,13.344-7.366,13.404-7.45c0.347-0.482,1.02-0.591,1.501-0.25c0.484,0.347,0.596,1.02,0.25,1.503   C129.716,405.668,123.862,413.728,115.977,413.728z"/>
	<path style="fill:#251626;" d="M295.649,487.527c0,0,38.435-25.623,41.851-22.207s10.249,22.207,10.249,22.207   s-42.705,22.207-44.413,19.644C301.628,504.609,295.649,487.527,295.649,487.527z"/>
	<path style="fill:#251626;" d="M169.242,490.09c0,0,47.83-4.271,46.976,0c-0.854,4.271,0.854,21.353-2.562,21.353   s-43.559,1.708-46.122-0.854C164.971,508.026,169.242,490.09,169.242,490.09z"/>
	<g>
		<path style="fill:#251426;" d="M210.94,476.747c-0.088,0-0.178-0.01-0.267-0.034c-0.575-0.147-0.923-0.734-0.777-1.31    c0.011-0.04,1.015-4.09-0.401-6.479c-0.303-0.511-0.134-1.171,0.377-1.476c0.514-0.299,1.173-0.13,1.475,0.378    c1.872,3.16,0.685,7.91,0.634,8.11C211.857,476.423,211.42,476.747,210.94,476.747z"/>
		<path style="fill:#251426;" d="M204.139,469.751c-0.088,0-0.178-0.011-0.267-0.034c-0.575-0.147-0.923-0.734-0.777-1.308    c0.011-0.042,1.014-4.092-0.402-6.481c-0.303-0.511-0.134-1.171,0.377-1.476c0.514-0.299,1.173-0.13,1.475,0.378    c1.872,3.16,0.687,7.91,0.635,8.11C205.056,469.427,204.62,469.751,204.139,469.751z"/>
		<path style="fill:#251426;" d="M206.998,484.245c-0.088,0-0.178-0.011-0.267-0.034c-0.575-0.147-0.923-0.734-0.777-1.308    c0.011-0.042,1.014-4.092-0.402-6.483c-0.303-0.513-0.134-1.173,0.377-1.476c0.514-0.296,1.173-0.13,1.475,0.379    c1.872,3.163,0.687,7.913,0.635,8.112C207.915,483.921,207.478,484.245,206.998,484.245z"/>
		<path style="fill:#251426;" d="M209.881,460.535c-0.088,0-0.178-0.011-0.267-0.034c-0.575-0.147-0.923-0.734-0.777-1.31    c0.011-0.04,1.015-4.09-0.401-6.481c-0.303-0.513-0.134-1.173,0.377-1.476c0.516-0.299,1.174-0.13,1.475,0.379    c1.872,3.163,0.685,7.913,0.634,8.112C210.797,460.211,210.36,460.535,209.881,460.535z"/>
		<path style="fill:#251426;" d="M208.889,442.487c-0.02,0-0.041-0.002-0.061-0.002c-0.593-0.034-1.047-0.543-1.015-1.135    c0.002-0.042,0.208-4.208-1.64-6.281c-0.396-0.444-0.357-1.125,0.087-1.52c0.443-0.395,1.123-0.357,1.519,0.086    c2.445,2.744,2.195,7.631,2.183,7.837C209.93,442.045,209.456,442.487,208.889,442.487z"/>
		<path style="fill:#251426;" d="M197.774,460.783c-0.02,0-0.041-0.002-0.062-0.002c-0.593-0.034-1.046-0.542-1.014-1.135    c0.002-0.042,0.209-4.208-1.639-6.281c-0.396-0.444-0.357-1.125,0.087-1.52c0.443-0.397,1.123-0.357,1.519,0.086    c2.445,2.744,2.194,7.631,2.182,7.837C198.815,460.341,198.341,460.783,197.774,460.783z"/>
		<path style="fill:#251426;" d="M199.524,441.9c-0.02,0-0.041-0.002-0.061-0.002c-0.593-0.034-1.047-0.543-1.015-1.135    c0.002-0.042,0.208-4.208-1.64-6.281c-0.395-0.446-0.355-1.125,0.088-1.52c0.443-0.395,1.122-0.357,1.52,0.086    c2.443,2.744,2.193,7.631,2.181,7.837C200.564,441.459,200.09,441.9,199.524,441.9z"/>
		<path style="fill:#251426;" d="M203.925,455.757c-0.088,0-0.178-0.01-0.267-0.034c-0.575-0.147-0.923-0.734-0.777-1.308    c0.011-0.042,1.014-4.092-0.402-6.483c-0.303-0.513-0.134-1.173,0.377-1.476c0.516-0.299,1.172-0.13,1.475,0.378    c1.872,3.163,0.687,7.913,0.635,8.112C204.841,455.433,204.405,455.757,203.925,455.757z"/>
	</g>
	<g>
		<path style="fill:#251426;" d="M328.596,454.496c-0.49,0-0.933-0.336-1.048-0.835c-0.009-0.04-0.976-4.098-3.33-5.572    c-0.505-0.315-0.657-0.98-0.342-1.485c0.316-0.503,0.983-0.656,1.483-0.341c3.115,1.949,4.24,6.712,4.286,6.914    c0.134,0.58-0.228,1.156-0.807,1.291C328.758,454.485,328.676,454.496,328.596,454.496z"/>
		<path style="fill:#251426;" d="M319.342,451.402c-0.49,0-0.933-0.336-1.048-0.835c-0.009-0.04-0.976-4.1-3.33-5.574    c-0.504-0.315-0.656-0.98-0.341-1.485c0.318-0.503,0.984-0.656,1.485-0.341c3.113,1.951,4.238,6.714,4.284,6.916    c0.134,0.58-0.228,1.156-0.807,1.291C319.504,451.392,319.422,451.402,319.342,451.402z"/>
		<path style="fill:#251426;" d="M328.533,462.967c-0.49,0-0.933-0.336-1.048-0.835c-0.009-0.04-0.976-4.1-3.331-5.574    c-0.504-0.315-0.656-0.98-0.341-1.485c0.318-0.505,0.983-0.656,1.485-0.341c3.114,1.951,4.239,6.714,4.285,6.916    c0.134,0.58-0.228,1.156-0.807,1.291C328.695,462.957,328.613,462.967,328.533,462.967z"/>
		<path style="fill:#251426;" d="M320.215,440.578c-0.489,0-0.933-0.336-1.048-0.835c-0.009-0.04-0.977-4.1-3.331-5.574    c-0.504-0.315-0.656-0.98-0.341-1.484c0.319-0.503,0.982-0.656,1.485-0.341c3.113,1.951,4.239,6.714,4.285,6.916    c0.134,0.58-0.228,1.156-0.806,1.291C320.377,440.567,320.296,440.578,320.215,440.578z"/>
		<path style="fill:#251426;" d="M311.054,424.998c-0.412,0-0.804-0.238-0.984-0.637c-0.017-0.038-1.746-3.835-4.34-4.83    c-0.555-0.212-0.833-0.835-0.619-1.39c0.212-0.555,0.835-0.833,1.391-0.62c3.43,1.316,5.45,5.774,5.534,5.961    c0.242,0.542-0.001,1.18-0.544,1.421C311.35,424.967,311.201,424.998,311.054,424.998z"/>
		<path style="fill:#251426;" d="M309.574,446.354c-0.412,0-0.804-0.238-0.984-0.637c-0.017-0.038-1.745-3.835-4.34-4.83    c-0.555-0.212-0.833-0.835-0.619-1.39c0.212-0.557,0.833-0.831,1.391-0.62c3.431,1.316,5.45,5.774,5.534,5.963    c0.242,0.543-0.001,1.178-0.544,1.419C309.87,446.322,309.72,446.354,309.574,446.354z"/>
		<path style="fill:#251426;" d="M302.463,428.775c-0.412,0-0.804-0.238-0.984-0.637c-0.017-0.038-1.745-3.837-4.339-4.83    c-0.555-0.212-0.834-0.835-0.62-1.39c0.213-0.557,0.839-0.831,1.39-0.62c3.432,1.314,5.451,5.774,5.535,5.963    c0.242,0.543-0.002,1.178-0.544,1.419C302.758,428.743,302.609,428.775,302.463,428.775z"/>
		<path style="fill:#251426;" d="M312.73,439.066c-0.49,0-0.933-0.336-1.048-0.835c-0.009-0.04-0.976-4.1-3.331-5.574    c-0.504-0.315-0.656-0.98-0.341-1.485c0.318-0.503,0.984-0.654,1.485-0.341c3.114,1.951,4.239,6.714,4.285,6.916    c0.134,0.58-0.228,1.156-0.807,1.291C312.892,439.055,312.81,439.066,312.73,439.066z"/>
	</g>
</g>















</svg>
