<?xml version="1.0" encoding="UTF-8"?>
<!-- Generator: Adobe Illustrator 25.2.0, SVG Export Plug-In . SVG Version: 6.00 Build 0)  -->
<svg xmlns="http://www.w3.org/2000/svg" xmlns:xlink="http://www.w3.org/1999/xlink" version="1.1" id="Capa_1" x="0px" y="0px" viewBox="0 0 512 512" style="enable-background:new 0 0 512 512;" xml:space="preserve" width="512" height="512">
<g>
	<path style="fill:#E33961;" d="M88.496,223.441c0,0-47.787,5.254-46.6-12.412c1.038-15.447,22.757-7.874,22.757-7.874   s-16.95-19.391,4.375-23.817C81.201,176.811,88.496,223.441,88.496,223.441z"/>
	<path style="fill:#E33961;" d="M94.223,172.829c0,0-40.094-26.448-27.842-39.266c10.713-11.208,22.542,8.467,22.542,8.467   s-0.578-25.714,18.651-15.511C118.549,132.343,94.223,172.829,94.223,172.829z"/>
	<path style="fill:#EB818A;" d="M50.306,161.832c0,0-47.898,4.127-46.293-13.506c1.404-15.418,22.938-7.336,22.938-7.336   s-16.486-19.784,4.938-23.708C44.117,115.043,50.306,161.832,50.306,161.832z"/>
	<g>
		<path style="fill:#F09A89;" d="M257.318,183.928c0,0,121.48,132.957,62.822,227.429c-8.925,14.375-104.372,30.645-155.263,0.565    c-69.981-41.364,57.993-223.669,57.993-223.669L257.318,183.928z"/>
		<path style="fill:#251626;" d="M186.036,73.042c0,0,46.046-75.665,50.214-72.972c4.168,2.693,28.157,58.666,28.497,63.606    S186.036,73.042,186.036,73.042z"/>
		<path style="fill:#251626;" d="M328.854,100.436c0,0,64.259-25.975,69.554-21.374s-20.923,80.875-26.272,82.73    C366.787,163.646,328.854,100.436,328.854,100.436z"/>
		<path style="fill:#F09A89;" d="M375.283,219.223c0,0,22.074-134.359-88.153-162.929c-93.002-24.105-146.425,37.92-150.708,54.413    S167.689,239.037,375.283,219.223z"/>
		<path style="fill:#FAE2C4;" d="M375.283,219.223c0,0-33.123-94.165-47.228-92.953c-14.105,1.212-104.741,65.967-125.214,54.214    c-20.473-11.753,38.368-100.888,22.599-105.766s-102.082,21.367-92.388,46.512s28.609,63.796,66.683,88.988    S371.061,229.973,375.283,219.223z"/>
		<path style="fill:#251626;" d="M193.262,164.265c0,0,28.666,11.441,29.175,18.851c0.509,7.41-12.523,16.985-27.531,12.303    C179.898,190.737,187.377,161.937,193.262,164.265z"/>
		<path style="fill:#251626;" d="M233.407,206.89c-0.631,0-1.147-0.158-1.595-0.382c-4.478-2.244-1.553-14.497-0.923-16.931    c0.165-0.631,0.793-1.015,1.449-0.851c0.633,0.165,1.015,0.814,0.851,1.449c-1.595,6.141-2.1,13.317-0.313,14.212    c0.732,0.378,3.938,0.519,14.652-12.872c0.41-0.512,1.159-0.589,1.669-0.185c0.512,0.41,0.593,1.157,0.185,1.669    C240.331,204.31,235.947,206.89,233.407,206.89z"/>
		<path style="fill:#251626;" d="M188.105,135.292c-0.693,0-1.31-0.376-1.704-1.045c-2.385-4.04-0.753-19.326-0.559-21.055    c0.074-0.654,0.665-1.12,1.312-1.048c0.651,0.074,1.12,0.661,1.048,1.312c-0.677,6.025-1.215,16.352,0.102,19.309    c1.771-1.331,5.967-9.543,9.024-16.95c0.248-0.607,0.943-0.902,1.548-0.644c0.607,0.25,0.895,0.943,0.644,1.548    c-2.821,6.836-8.037,18.336-11.277,18.565C188.198,135.29,188.151,135.292,188.105,135.292z"/>
		<path style="fill:#251626;" d="M287.983,172.391c-0.693,0-1.31-0.376-1.704-1.045c-2.385-4.04-0.753-19.326-0.559-21.055    c0.074-0.654,0.661-1.127,1.312-1.048c0.651,0.074,1.12,0.661,1.048,1.312c-0.677,6.025-1.215,16.352,0.102,19.309    c1.771-1.328,5.967-9.543,9.027-16.95c0.248-0.607,0.943-0.899,1.548-0.644c0.607,0.25,0.895,0.943,0.644,1.548    c-2.821,6.836-8.039,18.336-11.28,18.565C288.076,172.388,288.029,172.391,287.983,172.391z"/>
		<ellipse style="fill:#F4BBB1;" cx="304.737" cy="192.63" rx="17.67" ry="17.615"/>
		<ellipse style="fill:#F4BBB1;" cx="159.691" cy="135.788" rx="17.67" ry="17.615"/>
		<path style="fill:#251626;" d="M312.348,120.353c-1.099,0-2.274-0.192-3.523-0.577c-5.209-1.604-7.944-4.567-9.372-7.39    c-4.275,3.171-10.077,4.52-15.044,1.011c-3.296-2.325-5.109-6.164-5.816-10.206c-4.286,1.994-9.372,2.392-13.199-0.211    c-3.79-2.578-5.846-6.553-5.83-11.124c-1.326-0.382-2.64-1.05-3.887-2.061c-4.516-3.663-5.526-11.565-2.209-17.258    c3.345-5.737,9.91-7.367,17.571-4.36c0.61,0.241,0.911,0.93,0.672,1.539c-0.241,0.612-0.932,0.913-1.539,0.672    c-6.572-2.587-11.908-1.361-14.652,3.345c-2.714,4.657-1.943,11.301,1.655,14.217c0.832,0.677,1.706,1.157,2.589,1.467    c0.777-4.933,3.707-9.377,6.866-10.38c1.562-0.494,3.046-0.114,4.179,1.08c2.281,2.397,2.086,5.879-0.487,8.663    c-2.01,2.174-5.063,3.63-8.38,3.465c0.072,2.714,1.027,6.215,4.787,8.774c3.208,2.181,7.791,1.637,11.567-0.329    c-0.141-2.16,0.007-4.302,0.392-6.229c0.693-3.47,2.084-5.682,3.811-6.066c0.818-0.19,2.054-0.058,3.268,1.583    c1.98,2.677,1.314,6.198-1.783,9.418c-0.913,0.95-1.982,1.817-3.155,2.568c0.48,3.639,1.91,7.351,4.947,9.495    c4.416,3.111,9.363,1.393,12.761-1.363c-0.517-1.715-0.617-3.192-0.621-4.015c-0.023-3.855,1.458-7.137,3.526-7.8    c0.545-0.178,1.97-0.41,3.192,1.31c1.924,2.712,0.624,7.258-3.162,11.05c-0.056,0.058-0.111,0.114-0.169,0.169    c1.127,2.527,3.459,5.232,8.222,6.699c2.696,0.828,4.805,0.566,6.437-0.811c6.134-5.16,3.873-23.438,3.85-23.621    c-0.083-0.649,0.376-1.245,1.027-1.328c0.628-0.097,1.245,0.376,1.328,1.027c0.102,0.802,2.443,19.745-4.676,25.737    C316.036,119.738,314.314,120.353,312.348,120.353z M302.204,100.533c-0.012,0-0.026,0.002-0.037,0.005    c-0.665,0.216-1.896,2.302-1.878,5.529c0.005,0.563,0.051,1.305,0.209,2.142c2.35-2.691,3.296-5.695,2.198-7.246    C302.642,100.888,302.383,100.533,302.204,100.533z M283.048,90.705c-0.012,0-0.021,0.002-0.032,0.005    c-0.394,0.088-1.405,1.236-2,4.217c-0.243,1.224-0.389,2.701-0.376,4.277c0.591-0.452,1.138-0.936,1.634-1.453    c1.069-1.11,3.363-3.957,1.583-6.363C283.505,90.909,283.206,90.705,283.048,90.705z M262.095,89.863    c2.536,0.121,4.926-1.011,6.481-2.696c0.656-0.707,2.629-3.192,0.512-5.415c-0.508-0.533-1.05-0.675-1.741-0.454    C265.333,81.938,262.756,85.524,262.095,89.863z"/>
		<path style="fill:#F09A89;" d="M320.558,403.094c0,0,1.09-99.837,55.368-109.508c81.421-14.507,82.532-82.124,82.532-82.124    s65.536,43.028,39.672,136.032S340.125,451.62,320.558,403.094z"/>
		<path style="fill:#FAE2C4;" d="M420.116,277.328c0,0-24.259,34.802-16.13,36.561c8.129,1.759,43.605-12.628,43.605-12.628    s-29.458,45.387-12.664,44.099s38.06-24.689,38.06-24.689s-3.985,31.147,8.272,31.932s22.284-18.651,25.367-33.629    c7.613-36.977-16.88-97.179-47.096-117.123C459.529,201.851,448.975,251.842,420.116,277.328z"/>
		<path style="fill:#F09A89;" d="M154.47,400.421c0,0-2.078,87.626,3.327,101.307c5.405,13.681,43.824,3.467,43.824,3.467    s9.393-87.251-1.014-98.752C190.2,394.943,154.47,400.421,154.47,400.421z"/>
		<path style="fill:#F09A89;" d="M207.202,231.316c0,0-77.484-38.093-89.236-47.225c-11.752-9.132-15.112,79.647,66.065,93.559    L207.202,231.316z"/>
		<path style="fill:#FAE2C4;" d="M209.293,427.604c0,0-28.416-91.059-2.764-144.722s139.021-32.284,66.282,145.543    C272.811,428.425,217.739,434.471,209.293,427.604z"/>
		<path style="fill:#EC7659;" d="M368.082,327.464c0,0-11.175-70.083-51.693-66.989c-41.232,3.149-53.321,66.866-53.321,66.866    l18.08,2.097c0,0,1.623-51.176,33.994-56.159c31.344-4.826,35.265,55.618,35.265,55.618L368.082,327.464z"/>
		<path style="fill:#F09A89;" d="M319.232,239.5c0,0-39.453,22.346-35.933,33.087c3.52,10.741,44.843,15.298,56.849,3.728    C352.154,264.746,348.095,232.857,319.232,239.5z"/>
		<g>
			<path style="fill:#251626;" d="M355.829,98.811c0,0,30.011-13.083,30.979-8.159c0.968,4.924-15.48,39.417-15.48,39.417"/>
			<path style="fill:#FFFFFF;" d="M372.4,130.58l-2.142-1.02c6.294-13.201,16.036-35.374,15.387-38.679     c-1.516-1.356-14.968,2.754-29.34,9.017l-0.95-2.174c4.411-1.924,26.655-11.389,31.377-8.913c0.851,0.447,1.145,1.122,1.24,1.611     C388.965,95.475,375.174,124.762,372.4,130.58z"/>
		</g>
		<g>
			<polyline style="fill:#251626;" points="216.674,47.807 236.277,23.223 246.057,46.877    "/>
			<polygon style="fill:#FFFFFF;" points="217.602,48.546 215.748,47.067 236.603,20.91 247.153,46.423 244.96,47.331      235.95,25.537    "/>
		</g>
		<path style="fill:#E33961;" d="M332.546,344.765c0,0-23.77-41.659-7.029-47.571c14.638-5.169,16.268,17.711,16.268,17.711    s11.145-23.197,23.67-5.431C372.604,319.614,332.546,344.765,332.546,344.765z"/>
		<path style="fill:#E33961;" d="M301.478,343.715c0,0-40.53-25.779-28.493-38.798c10.525-11.384,22.68,8.092,22.68,8.092    s-1.007-25.701,18.389-15.818C325.126,302.831,301.478,343.715,301.478,343.715z"/>
		<path style="fill:#EC7659;" d="M259.333,320.131l115.396,3.58c0,0,5.263,61.728-50.83,64.069    C257.402,390.555,259.333,320.131,259.333,320.131z"/>
		<path style="fill:#F09A89;" d="M320.516,404.065c0,0,48.28,82.898,39.496,87.322c-8.785,4.423-46.361,21.992-51.174,20.527    c-4.814-1.465-36.152-81.058-34.62-87.072C275.751,418.828,315.891,398.954,320.516,404.065z"/>
		<path style="fill:#251626;" d="M354.337,495.938c-0.642,0-1.171-0.512-1.187-1.157c-0.181-7.137-9.59-12.258-9.685-12.307    c-0.577-0.311-0.797-1.029-0.487-1.606c0.308-0.579,1.022-0.8,1.604-0.489c0.438,0.234,10.723,5.818,10.941,14.342    c0.016,0.656-0.501,1.201-1.157,1.217C354.358,495.938,354.347,495.938,354.337,495.938z"/>
		<path style="fill:#251626;" d="M341.896,500.173c-0.644,0-1.173-0.517-1.187-1.164c-0.148-7.406-9.951-8.54-10.049-8.551    c-0.654-0.07-1.124-0.654-1.055-1.305c0.07-0.654,0.702-1.113,1.305-1.055c4.145,0.443,12.019,3.285,12.172,10.865    c0.014,0.654-0.508,1.196-1.164,1.21C341.913,500.173,341.903,500.173,341.896,500.173z"/>
		<path style="fill:#251626;" d="M329.333,506.84c-0.051,0-0.102-0.002-0.155-0.009c-0.649-0.083-1.108-0.679-1.025-1.331    c0.876-6.778-8.28-9.511-8.373-9.536c-0.631-0.183-0.992-0.841-0.811-1.47c0.183-0.628,0.844-0.999,1.47-0.811    c3.88,1.122,10.976,5.102,10.07,12.123C330.429,506.404,329.919,506.84,329.333,506.84z"/>
		<path style="fill:#251626;" d="M283.794,276.033c-0.301,0-0.603-0.114-0.834-0.343c-0.466-0.461-0.471-1.212-0.009-1.678    c5.292-5.355,14.56-8.551,14.951-8.686c0.619-0.206,1.293,0.121,1.507,0.742c0.211,0.619-0.121,1.293-0.742,1.507    c-0.09,0.03-9.133,3.153-14.029,8.106C284.406,275.915,284.1,276.033,283.794,276.033z"/>
		<path style="fill:#251626;" d="M285.466,279.165c-0.63,0-1.154-0.494-1.185-1.129c-0.032-0.656,0.473-1.212,1.127-1.242    c5.851-0.283,18.716-5.573,18.844-5.626c0.61-0.255,1.305,0.039,1.551,0.642c0.25,0.607-0.037,1.3-0.642,1.551    c-0.545,0.225-13.378,5.503-19.636,5.802C285.503,279.165,285.484,279.165,285.466,279.165z"/>
		<path style="fill:#251626;" d="M127.388,204.039c-0.19,0-0.38-0.044-0.559-0.139c-10.48-5.591-13.062-17.399-13.167-17.9    c-0.134-0.642,0.276-1.268,0.916-1.405c0.649-0.125,1.273,0.278,1.407,0.916c0.023,0.114,2.478,11.236,11.961,16.294    c0.577,0.308,0.797,1.027,0.489,1.606C128.222,203.812,127.812,204.039,127.388,204.039z"/>
		<path style="fill:#251626;" d="M120.758,214.055c-0.338,0-0.677-0.146-0.911-0.427c-0.29-0.348-7.13-8.623-8.556-17.446    c-0.107-0.647,0.334-1.256,0.981-1.361c0.633-0.109,1.259,0.334,1.361,0.981c1.321,8.171,7.969,16.224,8.037,16.305    c0.42,0.503,0.352,1.252-0.151,1.671C121.296,213.965,121.027,214.055,120.758,214.055z"/>
		<path style="fill:#251626;" d="M189.336,507.58c-0.413,0-0.814-0.216-1.032-0.6c-4.293-7.557,1.356-14.04,1.414-14.105    c0.436-0.489,1.18-0.529,1.671-0.097c0.489,0.433,0.535,1.185,0.102,1.674c-0.188,0.216-4.564,5.301-1.124,11.356    c0.325,0.57,0.125,1.293-0.445,1.618C189.737,507.531,189.535,507.58,189.336,507.58z"/>
		<path style="fill:#251626;" d="M176.443,508.746c-0.413,0-0.814-0.216-1.032-0.6c-4.293-7.557,1.356-14.04,1.414-14.105    c0.436-0.489,1.18-0.529,1.671-0.097c0.489,0.433,0.535,1.185,0.102,1.674c-0.188,0.216-4.564,5.301-1.124,11.356    c0.325,0.57,0.125,1.293-0.445,1.618C176.844,508.697,176.642,508.746,176.443,508.746z"/>
		<path style="fill:#251626;" d="M161.906,506.173c-0.413,0-0.814-0.216-1.032-0.6c-4.293-7.557,1.356-14.04,1.414-14.105    c0.433-0.489,1.18-0.529,1.671-0.097c0.489,0.434,0.535,1.185,0.102,1.674c-0.188,0.216-4.564,5.301-1.124,11.356    c0.325,0.57,0.125,1.293-0.445,1.618C162.307,506.124,162.105,506.173,161.906,506.173z"/>
		<g>
			<path style="fill:#251426;" d="M217.63,290.918c-0.58,0-1.087-0.427-1.173-1.018c-0.586-4.103,2.71-8.537,2.851-8.725     c0.396-0.524,1.138-0.626,1.66-0.234c0.524,0.392,0.631,1.136,0.236,1.66c-0.028,0.039-2.844,3.843-2.397,6.961     c0.093,0.649-0.359,1.252-1.006,1.344C217.744,290.913,217.686,290.918,217.63,290.918z"/>
			<path style="fill:#251426;" d="M221.719,301.166c-0.58,0-1.087-0.427-1.173-1.018c-0.586-4.103,2.71-8.537,2.851-8.725     c0.399-0.524,1.138-0.626,1.66-0.234c0.524,0.392,0.631,1.136,0.236,1.66c-0.028,0.039-2.844,3.843-2.397,6.961     c0.093,0.649-0.359,1.252-1.006,1.344C221.833,301.161,221.775,301.166,221.719,301.166z"/>
			<path style="fill:#251426;" d="M225.013,284.793c-0.58,0-1.087-0.427-1.173-1.018c-0.586-4.103,2.71-8.537,2.851-8.725     c0.396-0.524,1.14-0.626,1.66-0.234c0.524,0.392,0.631,1.136,0.236,1.66c-0.028,0.039-2.844,3.843-2.397,6.961     c0.093,0.649-0.359,1.252-1.006,1.344C225.127,284.789,225.069,284.793,225.013,284.793z"/>
			<path style="fill:#251426;" d="M211.705,308.308c-0.58,0-1.087-0.427-1.173-1.018c-0.586-4.103,2.71-8.537,2.851-8.725     c0.396-0.522,1.138-0.624,1.66-0.234c0.524,0.392,0.631,1.136,0.236,1.66c-0.028,0.039-2.844,3.843-2.397,6.961     c0.093,0.649-0.359,1.252-1.006,1.344C211.819,308.303,211.761,308.308,211.705,308.308z"/>
			<path style="fill:#251426;" d="M206.478,327.937c-0.491,0-0.948-0.306-1.12-0.795c-1.37-3.913,1.011-8.897,1.113-9.108     c0.287-0.589,0.997-0.83,1.586-0.549c0.589,0.285,0.837,0.994,0.552,1.586c-0.021,0.042-2.051,4.312-1.011,7.288     c0.218,0.619-0.109,1.296-0.728,1.511C206.74,327.916,206.608,327.937,206.478,327.937z"/>
			<path style="fill:#251426;" d="M226.058,313.639c-0.491,0-0.95-0.306-1.12-0.795c-1.368-3.911,1.011-8.897,1.113-9.108     c0.287-0.591,0.994-0.828,1.586-0.552c0.589,0.285,0.837,0.994,0.552,1.586c-0.021,0.042-2.049,4.314-1.011,7.29     c0.218,0.619-0.109,1.296-0.728,1.511C226.32,313.618,226.188,313.639,226.058,313.639z"/>
			<path style="fill:#251426;" d="M216.033,332.603c-0.491,0-0.95-0.306-1.12-0.795c-1.368-3.913,1.011-8.897,1.113-9.108     c0.287-0.591,0.994-0.832,1.586-0.552c0.589,0.285,0.837,0.994,0.552,1.586c-0.021,0.042-2.049,4.314-1.011,7.29     c0.218,0.619-0.109,1.296-0.728,1.511C216.295,332.582,216.163,332.603,216.033,332.603z"/>
			<path style="fill:#251426;" d="M215.871,315.872c-0.58,0-1.087-0.427-1.173-1.018c-0.586-4.101,2.71-8.537,2.851-8.725     c0.392-0.519,1.138-0.624,1.66-0.234c0.524,0.392,0.631,1.136,0.239,1.66c-0.03,0.039-2.847,3.843-2.399,6.961     c0.093,0.649-0.357,1.252-1.006,1.344C215.984,315.867,215.928,315.872,215.871,315.872z"/>
		</g>
		<path style="fill:#251426;" d="M212.887,430.194c-0.116,0-0.234-0.016-0.35-0.053c-36.018-11.122-34.194-30.779-34.099-31.609    c0.074-0.654,0.7-1.115,1.314-1.045c0.649,0.074,1.117,0.661,1.045,1.31l0,0c-0.019,0.185-1.553,18.582,32.439,29.078    c0.626,0.192,0.978,0.858,0.784,1.484C213.863,429.867,213.395,430.194,212.887,430.194z"/>
		<g>
			<path style="fill:#251426;" d="M344.08,459.334c-0.57,0-1.076-0.415-1.171-0.999c-0.007-0.046-0.786-4.708-3.345-6.56     c-0.531-0.385-0.651-1.127-0.267-1.657c0.385-0.535,1.127-0.647,1.657-0.267c3.363,2.434,4.263,7.879,4.3,8.111     c0.102,0.647-0.338,1.254-0.985,1.356C344.208,459.329,344.143,459.334,344.08,459.334z"/>
			<path style="fill:#251426;" d="M333.853,455.131c-0.57,0-1.076-0.415-1.171-0.999c-0.007-0.046-0.788-4.71-3.345-6.562     c-0.531-0.385-0.651-1.127-0.267-1.657c0.385-0.538,1.136-0.642,1.657-0.267c3.361,2.434,4.263,7.881,4.3,8.111     c0.102,0.647-0.338,1.254-0.985,1.358C333.98,455.127,333.915,455.131,333.853,455.131z"/>
			<path style="fill:#251426;" d="M343.354,468.882c-0.57,0-1.076-0.415-1.171-0.999c-0.007-0.046-0.788-4.71-3.347-6.562     c-0.531-0.385-0.651-1.127-0.267-1.657c0.385-0.533,1.124-0.647,1.657-0.267c3.364,2.434,4.265,7.881,4.302,8.111     c0.102,0.647-0.338,1.254-0.985,1.358C343.482,468.877,343.417,468.882,343.354,468.882z"/>
			<path style="fill:#251426;" d="M335.677,442.992c-0.573,0-1.076-0.415-1.171-0.999c-0.007-0.046-0.786-4.71-3.345-6.562     c-0.531-0.385-0.651-1.127-0.267-1.657c0.385-0.535,1.127-0.647,1.657-0.267c3.363,2.434,4.263,7.881,4.3,8.113     c0.102,0.647-0.338,1.254-0.985,1.356C335.805,442.987,335.74,442.992,335.677,442.992z"/>
			<path style="fill:#251426;" d="M323.194,448.682c-0.482,0-0.936-0.297-1.113-0.777c-0.019-0.044-1.683-4.472-4.553-5.797     c-0.596-0.276-0.853-0.981-0.579-1.576c0.276-0.596,0.981-0.853,1.576-0.58c3.767,1.743,5.702,6.915,5.784,7.133     c0.225,0.617-0.09,1.296-0.705,1.523C323.47,448.659,323.331,448.682,323.194,448.682z"/>
			<path style="fill:#251426;" d="M327.33,440.708c-0.57,0-1.076-0.415-1.171-0.999c-0.007-0.046-0.788-4.71-3.347-6.562     c-0.531-0.385-0.651-1.127-0.267-1.657c0.382-0.535,1.127-0.647,1.657-0.267c3.363,2.434,4.265,7.881,4.302,8.111     c0.102,0.647-0.338,1.254-0.985,1.358C327.457,440.704,327.392,440.708,327.33,440.708z"/>
		</g>
		<g>
			<path style="fill:#251426;" d="M198.228,476.759c-0.123,0-0.246-0.019-0.371-0.06c-0.621-0.204-0.96-0.874-0.756-1.497     c0.014-0.044,1.458-4.546,0.03-7.358c-0.297-0.586-0.063-1.3,0.522-1.597c0.591-0.287,1.298-0.063,1.597,0.522     c1.875,3.7,0.178,8.955,0.104,9.175C199.19,476.443,198.726,476.759,198.228,476.759z"/>
			<path style="fill:#251426;" d="M191.058,468.358c-0.123,0-0.246-0.019-0.371-0.06c-0.621-0.204-0.96-0.874-0.756-1.497     c0.014-0.044,1.458-4.546,0.03-7.358c-0.297-0.586-0.063-1.3,0.522-1.597c0.589-0.287,1.298-0.063,1.597,0.522     c1.875,3.7,0.178,8.955,0.104,9.175C192.02,468.043,191.556,468.358,191.058,468.358z"/>
			<path style="fill:#251426;" d="M193.202,484.918c-0.123,0-0.246-0.019-0.371-0.06c-0.621-0.204-0.96-0.874-0.756-1.497     c0.014-0.044,1.458-4.546,0.03-7.358c-0.297-0.586-0.063-1.3,0.522-1.597c0.591-0.287,1.3-0.063,1.597,0.522     c1.875,3.7,0.178,8.955,0.104,9.175C194.164,484.603,193.701,484.918,193.202,484.918z"/>
			<path style="fill:#251426;" d="M198.249,458.395c-0.123,0-0.246-0.019-0.371-0.06c-0.621-0.204-0.96-0.874-0.756-1.497     c0.014-0.044,1.458-4.546,0.03-7.358c-0.297-0.584-0.063-1.3,0.522-1.597c0.589-0.29,1.298-0.063,1.597,0.522     c1.875,3.697,0.178,8.952,0.104,9.175C199.211,458.077,198.747,458.395,198.249,458.395z"/>
			<path style="fill:#251426;" d="M184.535,457.767c-0.049,0-0.097-0.005-0.148-0.009c-0.649-0.081-1.11-0.675-1.032-1.324     c0.005-0.046,0.556-4.743-1.389-7.23c-0.403-0.517-0.311-1.263,0.206-1.667c0.51-0.403,1.261-0.313,1.667,0.206     c2.552,3.268,1.901,8.753,1.871,8.985C185.636,457.326,185.124,457.767,184.535,457.767z"/>
			<path style="fill:#251426;" d="M191.869,452.558c-0.123,0-0.246-0.019-0.371-0.06c-0.621-0.204-0.96-0.874-0.756-1.497     c0.014-0.044,1.458-4.546,0.03-7.358c-0.297-0.586-0.063-1.3,0.522-1.597c0.589-0.29,1.298-0.063,1.597,0.522     c1.875,3.7,0.178,8.955,0.104,9.175C192.831,452.243,192.368,452.558,191.869,452.558z"/>
		</g>
		<g>
			<path style="fill:#251426;" d="M433.77,406.839c-0.552,0-1.045-0.389-1.159-0.95c-0.132-0.642,0.283-1.268,0.925-1.4     c0.046-0.009,4.692-0.983,6.44-3.612c0.364-0.547,1.099-0.691,1.646-0.329c0.545,0.362,0.693,1.099,0.329,1.646     c-2.295,3.449-7.714,4.576-7.944,4.622C433.928,406.832,433.849,406.839,433.77,406.839z"/>
			<path style="fill:#251426;" d="M437.556,396.475c-0.554,0-1.048-0.389-1.161-0.95c-0.132-0.642,0.283-1.268,0.925-1.4     c0.046-0.009,4.692-0.983,6.442-3.612c0.362-0.547,1.106-0.691,1.646-0.329c0.545,0.364,0.693,1.099,0.329,1.646     c-2.297,3.449-7.717,4.576-7.946,4.622C437.711,396.468,437.632,396.475,437.556,396.475z"/>
			<path style="fill:#251426;" d="M424.171,406.515c-0.552,0-1.045-0.389-1.159-0.95c-0.132-0.642,0.283-1.268,0.925-1.4     c0.046-0.009,4.692-0.983,6.44-3.612c0.364-0.545,1.099-0.688,1.646-0.329c0.545,0.362,0.693,1.099,0.329,1.646     c-2.295,3.449-7.715,4.576-7.944,4.622C424.329,406.508,424.25,406.515,424.171,406.515z"/>
			<path style="fill:#251426;" d="M449.797,397.782c-0.552,0-1.045-0.387-1.159-0.95c-0.132-0.642,0.283-1.268,0.925-1.4     c0.046-0.009,4.689-0.983,6.44-3.612c0.362-0.547,1.103-0.691,1.646-0.329c0.545,0.364,0.693,1.099,0.329,1.646     c-2.297,3.449-7.715,4.576-7.944,4.622C449.955,397.775,449.876,397.782,449.797,397.782z"/>
			<path style="fill:#251426;" d="M467.73,387.891c-0.464,0-0.906-0.276-1.096-0.733c-0.25-0.605,0.037-1.298,0.642-1.551     c0.044-0.019,4.411-1.864,5.621-4.775c0.253-0.61,0.95-0.895,1.551-0.642c0.607,0.253,0.892,0.946,0.642,1.551     c-1.59,3.825-6.69,5.971-6.905,6.059C468.036,387.863,467.881,387.891,467.73,387.891z"/>
			<path style="fill:#251426;" d="M443.569,385.585c-0.464,0-0.906-0.276-1.096-0.733c-0.25-0.605,0.037-1.298,0.642-1.551     c0.044-0.019,4.411-1.864,5.621-4.775c0.253-0.605,0.953-0.883,1.551-0.642c0.607,0.253,0.892,0.946,0.642,1.551     c-1.59,3.825-6.69,5.971-6.905,6.059C443.875,385.557,443.719,385.585,443.569,385.585z"/>
			<path style="fill:#251426;" d="M463.708,378.072c-0.464,0-0.906-0.276-1.096-0.732c-0.25-0.605,0.037-1.298,0.642-1.551     c0.044-0.019,4.411-1.864,5.619-4.775c0.253-0.607,0.948-0.897,1.551-0.642c0.605,0.25,0.892,0.946,0.642,1.551     c-1.586,3.825-6.688,5.971-6.903,6.059C464.014,378.044,463.859,378.072,463.708,378.072z"/>
			<path style="fill:#251426;" d="M451.733,389.37c-0.552,0-1.045-0.389-1.159-0.95c-0.132-0.642,0.283-1.268,0.925-1.4     c0.046-0.009,4.692-0.983,6.44-3.612c0.362-0.547,1.099-0.691,1.646-0.329c0.545,0.362,0.693,1.099,0.329,1.646     c-2.295,3.449-7.715,4.576-7.944,4.622C451.891,389.363,451.812,389.37,451.733,389.37z"/>
		</g>
		<path style="fill:#251426;" d="M272.811,429.612c-0.647,0-1.173-0.517-1.185-1.166c-0.012-0.654,0.51-1.194,1.164-1.208    c0.716-0.014,17.652-0.61,25.821-23.422c0.22-0.617,0.902-0.934,1.518-0.716c0.617,0.22,0.937,0.899,0.716,1.518    c-8.746,24.421-27.826,24.991-28.016,24.993C272.823,429.612,272.816,429.612,272.811,429.612z"/>
		<g>
			<path style="fill:#251426;" d="M138.26,247.744c-0.058,0-0.114-0.005-0.172-0.012c-4.11-0.589-7.455-4.986-7.594-5.172     c-0.394-0.524-0.29-1.268,0.234-1.662c0.519-0.389,1.263-0.287,1.662,0.234c0.028,0.037,2.902,3.799,6.036,4.249     c0.649,0.093,1.099,0.695,1.006,1.344C139.347,247.317,138.839,247.744,138.26,247.744z"/>
			<path style="fill:#251426;" d="M149.275,246.703c-0.056,0-0.114-0.005-0.169-0.012c-4.112-0.586-7.46-4.984-7.599-5.169     c-0.394-0.524-0.29-1.268,0.234-1.662c0.519-0.392,1.263-0.287,1.662,0.234c0.028,0.037,2.905,3.799,6.036,4.247     c0.649,0.093,1.101,0.693,1.008,1.342C150.362,246.276,149.855,246.703,149.275,246.703z"/>
			<path style="fill:#251426;" d="M134.433,238.961c-0.056,0-0.114-0.005-0.169-0.012c-4.11-0.586-7.457-4.984-7.596-5.169     c-0.394-0.524-0.29-1.268,0.234-1.662c0.519-0.389,1.263-0.287,1.662,0.234c0.028,0.037,2.905,3.799,6.034,4.247     c0.649,0.093,1.101,0.693,1.008,1.342C135.52,238.534,135.012,238.961,134.433,238.961z"/>
			<path style="fill:#251426;" d="M153.343,258.289c-0.058,0-0.114-0.005-0.172-0.012c-4.11-0.589-7.457-4.986-7.596-5.172     c-0.394-0.524-0.29-1.268,0.234-1.662c0.519-0.392,1.266-0.287,1.662,0.234c0.028,0.037,2.905,3.799,6.039,4.249     c0.649,0.093,1.099,0.695,1.006,1.344C154.43,257.862,153.923,258.289,153.343,258.289z"/>
			<path style="fill:#251426;" d="M170.488,268.803c-4.026,0-7.935-3.475-8.104-3.625c-0.487-0.438-0.524-1.189-0.088-1.676     c0.44-0.484,1.189-0.529,1.676-0.09c0.035,0.03,3.482,3.109,6.746,3.013c0.707-0.088,1.212,0.471,1.245,1.124     c0.035,0.654-0.468,1.212-1.124,1.245C170.722,268.801,170.606,268.803,170.488,268.803z"/>
			<path style="fill:#251426;" d="M162.214,246.059c-4.029,0-7.937-3.475-8.106-3.625c-0.487-0.438-0.526-1.189-0.088-1.676     c0.438-0.487,1.191-0.529,1.676-0.09c0.037,0.03,3.577,3.092,6.743,3.013c0.739-0.102,1.21,0.471,1.245,1.124     c0.035,0.654-0.471,1.212-1.124,1.245C162.444,246.056,162.328,246.059,162.214,246.059z"/>
			<path style="fill:#251426;" d="M177.662,260.968c-4.029,0-7.937-3.475-8.106-3.625c-0.487-0.438-0.526-1.189-0.088-1.676     s1.189-0.526,1.676-0.09c0.035,0.03,3.554,3.092,6.743,3.013c0.733-0.095,1.21,0.471,1.245,1.124s-0.471,1.212-1.124,1.245     C177.891,260.966,177.776,260.968,177.662,260.968z"/>
			<path style="fill:#251426;" d="M161.795,256.423c-0.056,0-0.114-0.005-0.169-0.012c-4.11-0.586-7.457-4.986-7.596-5.172     c-0.394-0.524-0.29-1.268,0.234-1.662c0.517-0.389,1.266-0.287,1.662,0.234c0.028,0.037,2.905,3.802,6.034,4.249     c0.649,0.093,1.101,0.693,1.008,1.342C162.882,255.996,162.374,256.423,161.795,256.423z"/>
		</g>
		<path style="fill:#251426;" d="M267.93,338.572c-0.526,0-1.006-0.35-1.147-0.881c-0.169-0.633,0.209-1.284,0.841-1.453    c0.373-0.1,37.411-9.975,42.235-11.903c0.605-0.248,1.298,0.053,1.542,0.661c0.243,0.61-0.051,1.298-0.661,1.542    c-4.956,1.982-40.974,11.588-42.504,11.996C268.133,338.561,268.029,338.572,267.93,338.572z"/>
		<path style="fill:#251426;" d="M274.209,354.131c-0.475,0-0.925-0.29-1.108-0.76c-0.234-0.612,0.07-1.298,0.681-1.535    c6.984-2.691,68.376-26.31,73.265-26.804c0.631-0.079,1.236,0.406,1.3,1.059c0.067,0.654-0.408,1.236-1.059,1.3    c-3.459,0.352-45.344,16.136-72.653,26.66C274.497,354.106,274.351,354.131,274.209,354.131z"/>
		<path style="fill:#251426;" d="M285.732,369.217c-0.484,0-0.939-0.297-1.115-0.779c-0.225-0.614,0.09-1.296,0.707-1.523    l83.601-30.647c0.612-0.22,1.298,0.09,1.523,0.707c0.225,0.614-0.09,1.296-0.707,1.523l-83.601,30.647    C286.006,369.194,285.869,369.217,285.732,369.217z"/>
		<path style="fill:#251426;" d="M302.948,382.365c-0.464,0-0.906-0.274-1.096-0.73c-0.25-0.605,0.035-1.3,0.64-1.553l66.677-27.798    c0.598-0.243,1.3,0.032,1.553,0.64c0.25,0.605-0.035,1.3-0.64,1.553l-66.677,27.798    C303.257,382.335,303.101,382.365,302.948,382.365z"/>
		<path style="fill:#251426;" d="M327.156,382.863c-0.322,0-0.642-0.13-0.876-0.387l-50.807-55.752    c-0.443-0.484-0.408-1.236,0.076-1.676c0.487-0.443,1.236-0.406,1.676,0.077l50.807,55.752c0.443,0.484,0.408,1.236-0.077,1.676    C327.728,382.761,327.441,382.863,327.156,382.863z"/>
		<path style="fill:#251426;" d="M348.732,376.537c-0.32,0-0.637-0.127-0.872-0.38l-47.671-51.503    c-0.445-0.482-0.415-1.233,0.065-1.678c0.482-0.443,1.233-0.415,1.678,0.065l47.671,51.503c0.445,0.482,0.415,1.233-0.065,1.678    C349.31,376.433,349.022,376.537,348.732,376.537z"/>
		<path style="fill:#251426;" d="M363.865,365.049c-0.313,0-0.628-0.123-0.86-0.369l-37.833-39.85    c-0.452-0.478-0.433-1.229,0.042-1.678c0.478-0.45,1.229-0.433,1.678,0.042l37.833,39.85c0.452,0.478,0.433,1.229-0.042,1.678    C364.451,364.94,364.159,365.049,363.865,365.049z"/>
	</g>
</g>















</svg>
