<?xml version="1.0" encoding="UTF-8"?>
<!-- Generator: Adobe Illustrator 25.2.0, SVG Export Plug-In . SVG Version: 6.00 Build 0)  -->
<svg xmlns="http://www.w3.org/2000/svg" xmlns:xlink="http://www.w3.org/1999/xlink" version="1.1" id="Capa_1" x="0px" y="0px" viewBox="0 0 512 512" style="enable-background:new 0 0 512 512;" xml:space="preserve" width="512" height="512">
<g>
	<path style="fill:#F4BF94;" d="M251.062,138.512c0,0-94.039,85.324-77.782,133.019s32.236,148.206,34.946,170.219   c2.709,22.013,175.627,15.997,189.174-4.793c13.547-20.79,7.358-196.675,0.584-219.91s-77.376-67.917-97.697-69.14   S251.062,138.512,251.062,138.512z"/>
	<path style="fill:#F4BF94;" d="M395.559,405.677c0,0,0.922,78.909,0.922,92.437s-52.572,14.655-56.261,12.4   c-3.689-2.255-4.612-84.546-4.612-84.546L395.559,405.677z"/>
	<path style="fill:#F4BF94;" d="M203.512,405.677c0,0-0.922,78.909-0.922,92.437s52.572,14.655,56.261,12.4   c3.689-2.255,4.612-84.546,4.612-84.546L203.512,405.677z"/>
	<path style="fill:#F8DDC0;" d="M273.608,456.404c0,0-69.891-189.383-13.527-223.201s131.772,63.033,72.897,220.57L273.608,456.404z   "/>
	<g>
		<path style="fill:#F4BF94;" d="M213.851,102.548c0,0-7.538-74.115-27.86-56.097s-1.771,185.169,126.456,143.327    s1.767-200.455-34.751-189.208S302.579,47,302.579,47L213.851,102.548z"/>
		<path style="fill:#F8DDC0;" d="M267.26,191.38c0,0-40.302-23.914-8.54-37.162c14.07-5.869,68.182-13.446,68.182-13.446    s16.232-52.924,25.539-49.11c9.307,3.814,33.511,37.757,5.724,68.854C315.813,207.911,267.26,191.38,267.26,191.38z"/>
		<path style="fill:#241726;" d="M308.9,145.279c-2.468,0-13.888-6.645-65.616-59.767c-0.427-0.439-0.419-1.142,0.022-1.571    c0.438-0.427,1.14-0.421,1.571,0.022c27.913,28.665,59.741,59.133,63.744,59.138c5.032-1.56,20.995-13.309,21.853-16.07    c-2.686-3.382-36.983-42.448-55.123-63.065c-0.405-0.46-0.36-1.162,0.101-1.568c0.459-0.405,1.161-0.36,1.568,0.101    c2.19,2.49,53.678,61.01,55.392,63.409c0.241,0.336,0.468,0.916,0.181,1.762c-1.395,4.131-18.425,16.036-23.407,17.571    C309.108,145.265,309.014,145.279,308.9,145.279z"/>
		<path style="fill:#241726;" d="M327.026,146.834c0,0-32.755,3.988-33.287-3.4s24.311-17.134,24.311-17.134    s5.988-17.467,12.212-17.06S342.616,140.87,327.026,146.834z"/>
		<path style="fill:#241726;" d="M330.44,168.838c-3.033,0-9.109-7.497-11.602-10.748c-0.373-0.487-0.281-1.185,0.206-1.558    c0.49-0.371,1.187-0.279,1.558,0.206c3.953,5.157,8.256,9.535,9.657,9.86c0.79-1.903-0.923-9.054-2.446-13.681    c-0.191-0.583,0.126-1.211,0.708-1.403c0.582-0.191,1.21,0.125,1.403,0.708c0.684,2.078,4.002,12.599,2.163,15.674    c-0.34,0.567-0.889,0.9-1.546,0.938C330.508,168.837,330.473,168.838,330.44,168.838z"/>
		<path style="fill:#241726;" d="M268.151,133.228c-3.823,0-13.757-5.795-16.87-7.67c-0.526-0.317-0.695-0.999-0.379-1.524    c0.316-0.527,0.998-0.698,1.524-0.379c6.235,3.755,13.828,7.512,15.615,7.383c0.029-1.47-3.168-6.949-7.121-12.113    c-0.373-0.488-0.281-1.185,0.206-1.558c0.489-0.371,1.186-0.28,1.558,0.206c3.327,4.346,8.7,12.032,7.295,14.686    c-0.161,0.304-0.49,0.705-1.147,0.887C268.635,133.202,268.406,133.228,268.151,133.228z"/>
		<path style="fill:#241726;" d="M323.893,90.474c-3.823,0-13.757-5.795-16.87-7.67c-0.526-0.317-0.695-0.999-0.379-1.524    c0.317-0.527,0.998-0.698,1.524-0.379c6.232,3.753,13.734,7.579,15.615,7.383c0.029-1.471-3.168-6.95-7.121-12.113    c-0.373-0.488-0.281-1.185,0.207-1.558c0.486-0.371,1.184-0.279,1.557,0.206c3.327,4.346,8.7,12.032,7.295,14.686    c-0.161,0.304-0.49,0.705-1.147,0.887C324.378,90.448,324.149,90.474,323.893,90.474z"/>
		<path style="fill:#241726;" d="M193.158,107.059c-0.559,0-1.039-0.42-1.103-0.988c-1.069-9.606-4.017-41.051,2.915-42.371    c1.761-0.331,3.294,0.985,4.552,3.927c2.985,6.979,6.351,34.459,4.393,35.857c-0.498,0.357-1.191,0.241-1.549-0.258    c-0.226-0.316-0.263-0.71-0.132-1.047c0.331-2.685-1.607-31.489-6.112-35.943c-0.419-0.414-0.649-0.372-0.736-0.354    c-2.621,0.499-3.795,15.912-1.122,39.943c0.067,0.61-0.372,1.159-0.982,1.227C193.24,107.057,193.199,107.059,193.158,107.059z"/>
		<path style="fill:#241726;" d="M308.065,42.536c-0.235,0-0.473-0.075-0.674-0.229c-5.825-4.459-24.818-19.383-24.7-24.22    c0.016-0.681,0.324-1.263,0.866-1.637c1.355-0.935,3.91-0.763,7.806,0.534c9.023,3.002,23.075,11.559,25.463,18.675    c0.195,0.582-0.118,1.212-0.7,1.407c-0.578,0.194-1.211-0.118-1.407-0.7c-2.137-6.371-15.676-14.486-24.057-17.273    c-3.743-1.248-5.434-1.099-5.842-0.815c-0.202,2.202,12.232,13.315,23.921,22.265c0.488,0.373,0.58,1.07,0.207,1.557    C308.73,42.386,308.4,42.536,308.065,42.536z"/>
	</g>
	<path style="fill:#F4BF94;" d="M100.574,222.247c37.369,28.745-35.512,175.538,15.216,202.593   c50.727,27.055,84.546-38.327,84.546-38.327l12.4,32.691c0,0-53.282,62.779-103.709,37.2   c-77.782-39.455-9.795-205.593-24.8-213.055c-16.997-8.453-17.357,29.648-35.394,37.539   C30.796,288.779,54.73,186.983,100.574,222.247z"/>
	<path style="fill:#F4BF94;" d="M366.045,184.449c0,0,27.618,23.955,39.455,22.076c14.919-2.368,18.036-75.152,18.036-75.152   s58.618,9.018,57.115,28.558c-1.503,19.539-31.564,106.716-46.594,114.231c-15.03,7.515-94.691-19.539-96.194-24.049   C336.36,245.603,366.045,184.449,366.045,184.449z"/>
	<path style="fill:#F8DDC0;" d="M443.35,148.711c0,0,22.206-0.74,24.427,13.324c2.221,14.064-14.064,19.985-26.647,5.922   C428.546,153.892,434.467,147.971,443.35,148.711z"/>
	<path style="fill:#241726;" d="M425.005,155.785c-0.174,0-0.35-0.041-0.515-0.127c-2.745-1.441-16.445-8.908-16.545-14.452   c-0.017-0.962,0.344-2.327,2.162-3.365c8.193-4.691,21.373,6.598,21.932,7.081c0.463,0.401,0.513,1.103,0.112,1.567   c-0.403,0.462-1.104,0.513-1.567,0.113c-0.124-0.108-12.536-10.741-19.374-6.832c-1.057,0.604-1.047,1.179-1.043,1.396   c0.059,3.285,9.45,9.426,15.356,12.524c0.544,0.285,0.753,0.957,0.468,1.5C425.792,155.569,425.405,155.785,425.005,155.785z"/>
	<path style="fill:#241726;" d="M474.574,151.437c-0.359,0-0.712-0.174-0.925-0.495c-0.341-0.511-0.202-1.201,0.308-1.541   c1.71-1.758,7.994-24.973,4.236-31.106c-0.117-0.191-0.221-0.369-0.365-0.37c-2.492,0.301-8.384,14.068-12.415,26.651   c-0.178,0.559-0.759,0.88-1.325,0.74c-0.567-0.141-0.929-0.697-0.827-1.273c1.813-10.221,3.663-27.627,0.906-30.82   c-0.011,0-0.022-0.001-0.034-0.001c-2.165,0-7.989,12.559-12.853,27.447c-0.178,0.548-0.744,0.871-1.306,0.738   c-0.56-0.13-0.929-0.666-0.849-1.236c1.471-10.554,2.213-28.2-2.057-30.621c-0.354-0.202-0.584-0.162-0.82-0.04   c-3.51,1.794-6.614,18.728-7.745,28.979c-0.067,0.61-0.599,1.063-1.226,0.983c-0.61-0.067-1.05-0.616-0.983-1.226   c0.511-4.627,3.342-27.85,8.943-30.715c0.954-0.487,1.968-0.459,2.927,0.086c4.576,2.594,4.686,14.655,4.104,23.48   c3.215-8.641,7.883-19.447,11.347-20.143c0.843-0.167,1.633,0.123,2.234,0.817c2.607,3.019,2.124,13.145,1.212,21.377   c3.078-8.042,7.227-17.034,10.501-17.429c0.571-0.064,1.671,0.021,2.525,1.415c4.212,6.872-1.956,32.156-4.897,34.115   C474.999,151.377,474.785,151.437,474.574,151.437z"/>
	<path style="fill:#241726;" d="M279.249,196.33c-26.169,0-47.567-11.208-47.874-11.372c-0.54-0.289-0.745-0.962-0.456-1.503   c0.29-0.542,0.962-0.746,1.503-0.457c0.431,0.229,43.538,22.777,81.632,3c0.544-0.28,1.215-0.071,1.498,0.474   c0.282,0.545,0.071,1.215-0.474,1.498C303.139,194.17,290.733,196.33,279.249,196.33z"/>
	<path style="fill:#EB8265;" d="M362.351,180.903c0,0-24.518,4.227-19.446,14.936c5.073,10.709,23.673,6.2,23.673,6.2   s-5.355,35.509,9.018,22.264c14.373-13.245,7.609-29.027,6.2-30.718S364.606,180.621,362.351,180.903z"/>
	<path style="fill:#EB8265;" d="M356.745,251.24c0,0-27.9-10.145-27.336-19.727c0.564-9.582,17.755-3.664,17.755-3.664   s-3.945-18.882,4.227-14.655S374.781,259.131,356.745,251.24z"/>
	<path style="fill:#EB8265;" d="M235.468,411.783c0,0-27.9-10.145-27.336-19.727c0.564-9.582,17.755-3.664,17.755-3.664   s-3.945-18.882,4.227-14.655C238.287,377.964,253.505,419.674,235.468,411.783z"/>
	<path style="fill:#EB8265;" d="M209.917,163.312c0,0-5.823-13.246,4.509-16.346c5.636-1.691,9.864,14.936,9.864,14.936   s9.864-5.636,14.373,0c4.509,5.636-14.655,16.909-17.473,16.064S212.171,170.921,209.917,163.312z"/>
	<path style="fill:#EB8265;" d="M226.482,141.31c0,0,16.156,1.989,17.26-3.304c1.104-5.293-13.02-6.099-13.02-6.099   s12.625-10.209,3.808-11.634C225.713,118.847,211.927,141.243,226.482,141.31z"/>
	<path style="fill:#EB8265;" d="M325.554,54.049c0,0-10.788-6.288-13.167-2.89c-2.379,3.398,7.334,8.237,7.334,8.237   s-11.987,3.379-6.202,7.05C319.304,70.117,335.794,58.498,325.554,54.049z"/>
	<path style="fill:#EB8265;" d="M210.267,136.585c0,0,1.321-12.416-2.753-13.196c-4.074-0.78-4.513,10.064-4.513,10.064   s-7.99-9.553-8.971-2.773S210.401,147.749,210.267,136.585z"/>
	<path style="fill:#EB8265;" d="M341.808,51.994c0,0-11.273,6.482-9.582,14.373s13.245,1.409,13.245,1.409   s-6.482,13.527-2.255,16.909s13.527,0.564,12.964-10.145S341.808,51.994,341.808,51.994z"/>
	<path style="fill:#EB8265;" d="M222.505,230.197c0,0,17.661-31.94,24.049-25.927c6.388,6.012,0.376,17.285,0.376,17.285   s12.024,1.127,13.152,4.509C261.208,229.446,217.62,243.725,222.505,230.197z"/>
	<path style="fill:#EB8265;" d="M204.093,191.494c0,0-3.006,17.661,2.63,24.049c5.636,6.388,8.642-13.903,8.642-13.903   s10.145,13.152,13.527,4.133c3.382-9.018-14.655-28.933-16.158-27.43S204.093,191.494,204.093,191.494z"/>
	<path style="fill:#EB8265;" d="M324.817,188.07c0,0,14.086,13.651,8.651,24.462s-17.174-7.041-17.174-7.041   s1.608,16.494-7.412,14.95c-9.019-1.544,2.777-26.749,2.777-26.749L324.817,188.07z"/>
	<path style="fill:#241726;" d="M403.621,276.775c-0.013,0-0.026,0-0.039-0.001c-0.613-0.021-1.094-0.534-1.072-1.148   c0.731-21.569-9.885-39.797-9.991-39.979c-0.312-0.528-0.138-1.209,0.391-1.521c0.527-0.312,1.21-0.137,1.521,0.389   c0.452,0.764,11.054,18.947,10.299,41.187C404.711,276.302,404.217,276.775,403.621,276.775z"/>
	<path style="fill:#EB8265;" d="M434.433,272.658c0,0-22.17-19.915-19.915-27.43c2.255-7.515,18.788,4.509,18.788,4.509   s-4.509-18.788,3.758-16.909c8.267,1.879,8.267,24.424,7.891,27.43C444.578,263.264,438.19,272.282,434.433,272.658z"/>
	<path style="fill:#EB8265;" d="M424.319,191.392c0,0-15.51,29.015-6.908,30.693c8.602,1.678,11.929-11.001,11.929-11.001   s4.156,18.407,12.983,14.22C451.151,221.117,426.835,183.544,424.319,191.392z"/>
	<path style="fill:#EB8265;" d="M468.627,200.888c0,0-18.036,4.885-18.788,10.145s8.642,5.636,8.642,5.636   s-10.145,3.382-7.891,8.642c2.255,5.261,11.649-2.63,11.649-2.63S469.003,204.27,468.627,200.888z"/>
	<path style="fill:#EB8265;" d="M364.917,281.676c0,0,5.261-31.564,12.776-31.94s7.891,18.036,7.891,18.036   s15.782-5.261,13.903,1.503C397.608,276.04,361.16,296.331,364.917,281.676z"/>
	<path style="fill:#EB8265;" d="M367.355,404.084c0,0,16.064,27.675,10.513,32.754s-17.576-8.869-17.576-8.869   s-8.808,14.113-11.671,7.703C345.757,429.264,360.91,390.397,367.355,404.084z"/>
	<path style="fill:#EB8265;" d="M404.372,295.204c0,0-27.806,4.885-27.43,15.03c0.376,10.146,16.158,7.891,16.158,7.891   s-21.418,24.424-12.024,24.424s21.043-7.515,23.673-12.024C407.378,326.016,406.251,301.216,404.372,295.204z"/>
	<path style="fill:#EB8265;" d="M394.978,377.119c-0.611-1.929-16.909-29.309-22.17-27.055c-5.261,2.255,1.879,22.17,1.879,22.17   s-22.921-11.273-18.036,0.751C361.536,385.01,402.118,399.665,394.978,377.119z"/>
	<path style="fill:#EB8265;" d="M405.124,343.301c0,0-9.77,3.758-10.521,9.018c-0.752,5.261,5.261,5.636,5.261,5.636   s-4.062,3.879-3.382,8.642c0.752,5.261,7.891,4.885,8.642,3.006C405.875,367.725,405.124,346.683,405.124,343.301z"/>
	<path style="fill:#EB8265;" d="M364.166,308.355c0,0,15.406,17.661,12.4,19.164c-3.006,1.503-10.897-3.006-10.897-3.006   s2.255,12.024-4.509,12.4C354.396,337.289,358.53,300.464,364.166,308.355z"/>
	<path style="fill:#EB8265;" d="M258.508,445.202c0,0-19.03-13.678-16.447-15.828c2.584-2.149,11.295,0.44,11.295,0.44   s-4.939-11.192,1.56-13.102C261.417,414.802,265.797,451.598,258.508,445.202z"/>
	<path style="fill:#EB8265;" d="M392.279,422.656c0,0-19.03-13.678-16.447-15.828c2.584-2.149,11.296,0.44,11.296,0.44   s-4.939-11.192,1.56-13.102C395.187,392.257,399.567,429.052,392.279,422.656z"/>
	<path style="fill:#EB8265;" d="M211.73,417.54c0,0,22.57,6.312,20.882,9.218c-1.688,2.906-10.76,3.466-10.76,3.466   s9.136,9.9,3.034,12.841C213.581,448.513,202.689,414.035,211.73,417.54z"/>
	<path style="fill:#241726;" d="M357.778,512c-0.116,0-0.234-0.018-0.352-0.057c-0.582-0.193-0.896-0.822-0.702-1.405   c2.68-8.038-6.147-12.901-6.236-12.948c-0.54-0.292-0.743-0.966-0.452-1.505c0.291-0.54,0.967-0.743,1.505-0.452   c0.106,0.057,10.555,5.817,7.291,15.609C358.677,511.706,358.244,512,357.778,512z"/>
	<path style="fill:#241726;" d="M375.064,509.37c-0.057,0-0.116-0.004-0.175-0.014c-0.605-0.095-1.02-0.664-0.923-1.27   c1.008-6.387-9.599-14.259-9.707-14.337c-0.495-0.363-0.601-1.059-0.238-1.554c0.362-0.494,1.057-0.602,1.552-0.239   c0.482,0.354,11.805,8.756,10.586,16.477C376.074,508.98,375.601,509.37,375.064,509.37z"/>
	<path style="fill:#241726;" d="M386.712,507.116c-0.146,0-0.295-0.028-0.437-0.09c-0.564-0.242-0.826-0.895-0.584-1.458   c1.681-3.923-2.123-13.133-3.731-16.351c-0.274-0.549-0.052-1.216,0.497-1.491c0.549-0.273,1.214-0.052,1.491,0.497   c0.639,1.278,6.174,12.646,3.785,18.219C387.553,506.864,387.143,507.116,386.712,507.116z"/>
	<path style="fill:#241726;" d="M237.665,510.497c-0.465,0-0.898-0.294-1.053-0.759c-3.265-9.792,7.184-15.552,7.291-15.61   c0.537-0.291,1.212-0.088,1.503,0.451c0.292,0.539,0.09,1.212-0.448,1.505c-0.366,0.197-8.908,4.941-6.238,12.951   c0.194,0.583-0.12,1.212-0.702,1.405C237.9,510.479,237.781,510.497,237.665,510.497z"/>
	<path style="fill:#241726;" d="M220.379,507.866c-0.537,0-1.01-0.391-1.096-0.937c-1.219-7.719,10.103-16.122,10.584-16.475   c0.496-0.365,1.189-0.257,1.553,0.239c0.363,0.495,0.257,1.19-0.238,1.554c-0.107,0.078-10.714,7.95-9.706,14.336   c0.097,0.606-0.318,1.175-0.923,1.27C220.495,507.862,220.437,507.866,220.379,507.866z"/>
	<path style="fill:#241726;" d="M208.732,505.612c-0.431,0-0.841-0.252-1.021-0.674c-2.389-5.573,3.146-16.941,3.785-18.219   c0.277-0.55,0.943-0.768,1.491-0.497c0.549,0.274,0.771,0.942,0.497,1.491c-1.608,3.218-5.412,12.428-3.731,16.351   c0.242,0.563-0.02,1.216-0.584,1.458C209.027,505.584,208.878,505.612,208.732,505.612z"/>
	<path style="fill:#EB8265;" d="M347.257,460.162c0,0,12.024-15.406,16.909-12.776c4.885,2.63-2.255,12.024-2.255,12.024   s9.394-5.636,11.649,2.255C375.814,469.556,338.99,474.065,347.257,460.162z"/>
	<path style="fill:#EB8265;" d="M253.693,462.792c0,0-13.152-20.667-19.164-16.533c-6.012,4.133,2.255,13.152,2.255,13.152   s-18.412-4.885-13.903,2.63C227.39,469.556,261.96,479.325,253.693,462.792z"/>
	<path style="fill:#EB8265;" d="M82.347,286.937c1.425,0.891,23.422,6.474,27.931-1.793c4.509-8.267,20.166-74.862-32.44-74.862   s-55.612,76.655-36.824,77.406s42.085-55.612,43.588-37.576S76.335,283.179,82.347,286.937z"/>
	<path style="fill:#EB8265;" d="M250.687,78.766c0,0,9.018,14.655,14.279,15.03c5.261,0.376,1.503-16.533,1.503-16.533   s15.03,10.521,14.279,4.133c-0.752-6.388-9.018-16.533-10.146-15.782C269.475,66.366,250.687,78.766,250.687,78.766z"/>
	<path style="fill:#EB8265;" d="M188.217,404.831c0,0,10.427,8.455,9.018,14.655c-1.409,6.2-15.782-0.282-15.782-0.282   s3.382,17.473-1.127,15.5c-4.509-1.973-10.991-12.964-9.018-15.5C173.28,416.668,187.09,404.831,188.217,404.831z"/>
	<path style="fill:#EB8265;" d="M180.608,447.104c0,0-10.427-13.809-14.373-11.273s-0.282,11.555-0.282,11.555   s-12.964-7.891-12.118-3.382c0.845,4.509,5.073,13.527,6.764,13.809C162.289,458.095,177.508,449.922,180.608,447.104z"/>
	<path style="fill:#EB8265;" d="M116.635,458.659c0,0,10.991-24.518,15.782-21.136s0.282,13.246,0.282,13.246   s12.4-3.945,13.527,0.564c1.127,4.509-13.245,11.273-15.5,11.555C128.471,463.168,118.044,460.631,116.635,458.659z"/>
	<path style="fill:#EB8265;" d="M122.835,427.94c0,0-9.864,16.627-13.809,13.527s-3.945-13.527-3.945-13.527   s-4.227,8.173-9.582,0.564c-5.355-7.609,6.764-16.627,8.455-16.064C105.644,413.004,113.817,422.304,122.835,427.94z"/>
	<path style="fill:#EB8265;" d="M71.262,389.895c0,0,5.636-15.218,10.709-13.246c5.073,1.973-0.282,20.291-0.282,20.291   s9.976-9.351,11.836-5.073c5.636,12.964-16.627,27.336-16.627,27.336S71.544,393.558,71.262,389.895z"/>
	<path style="fill:#EB8265;" d="M96.907,374.958c0,0-23.391-7.327-18.318-18.036c1.838-3.879,11.273,3.945,11.273,3.945   s-6.482-16.064-2.255-16.627s11.679,13.005,11.679,13.005L96.907,374.958z"/>
	<path style="fill:#EB8265;" d="M74.007,329.547c0,0,16.926,10.991,19.124,7.474c2.198-3.517-6.595-13.189-6.595-13.189   s12.969-0.659,11.65-5.715s-22.422-3.297-22.422-2.638S74.007,329.547,74.007,329.547z"/>
	<path style="fill:#EB8265;" d="M108.519,291.299c0,0-11.431,3.077-13.409,7.474c-1.978,4.396,6.595,4.616,6.595,4.616   s-6.155,3.517-4.396,6.595c1.759,3.077,7.254,1.319,8.133-1.539C106.321,305.587,108.299,292.398,108.519,291.299z"/>
	<path style="fill:#EB8265;" d="M204.468,358.331c0,0-1.127,16.158,1.879,19.539s6.388-4.885,6.388-4.885s4.885,6.388,7.515,4.509   S216.868,336.161,204.468,358.331z"/>
	<g>
		<polygon style="fill:#EE919B;" points="129.733,258.103 306.66,235.376 326.895,354.877 142.938,378.794   "/>
		<path style="fill:#F4BF94;" d="M191.173,209.972c0,0,40.571,45.438,27.064,51.234c-13.507,5.796-52.579,14.282-58.53,8.744    c-5.951-5.537-35.163-36.563-21.708-56.072S182.79,198.328,191.173,209.972z"/>
		<path style="fill:#241726;" d="M181.774,285.394c-3.971,0.001-13.1-12.06-16.911-17.347c-0.358-0.498-0.245-1.192,0.252-1.551    c0.499-0.357,1.196-0.243,1.551,0.252c6.509,9.033,13.383,16.626,15.037,16.431c0.73-1.136-1.472-9.919-4.976-19.088    c-0.193-0.503,0.003-1.072,0.465-1.35c0.461-0.276,1.057-0.183,1.409,0.222c6.432,7.386,16.809,17.573,19.607,17.27    c1.167-1.162-2.265-10.571-7.314-20.137c-0.253-0.48-0.123-1.071,0.308-1.401c0.43-0.328,1.034-0.301,1.432,0.069    c8.878,8.265,17.722,14.628,19.33,13.932c1.119-0.792-1.124-9.136-5.803-19.117c-0.26-0.555-0.022-1.217,0.534-1.478    c0.559-0.261,1.218-0.02,1.478,0.534c3.466,7.395,8.697,20.092,4.784,22.049c-2.968,1.475-11.379-5.049-17.445-10.336    c2.807,5.903,6.17,14.096,4.725,16.87c-0.359,0.689-0.982,1.122-1.752,1.218c-3.81,0.501-12.497-8.153-17.761-13.807    c1.92,5.681,4.099,13.374,2.747,15.732c-0.316,0.551-0.816,0.909-1.407,1.008C181.97,285.386,181.874,285.394,181.774,285.394z"/>
		<path style="fill:#241726;" d="M214.613,244.46c-0.518,0-0.981-0.363-1.088-0.89c-3.502-17.262-24.956-35.261-25.172-35.44    c-0.472-0.393-0.537-1.092-0.145-1.564c0.392-0.471,1.091-0.538,1.564-0.145c0.908,0.754,22.272,18.675,25.932,36.707    c0.122,0.602-0.267,1.188-0.868,1.311C214.761,244.453,214.686,244.46,214.613,244.46z"/>
		<path style="fill:#EB8265;" d="M139.462,239.967c0,0,3.006-19.539,12.024-20.291c9.018-0.752,3.758,13.903,3.758,13.903    s9.394-8.642,15.406-1.503c6.012,7.139-18.788,26.679-21.794,24.049C145.85,253.494,141.341,246.731,139.462,239.967z"/>
		<path style="fill:#EB8265;" d="M169.523,201.64c0,0-1.503,17.285,3.758,23.297c5.261,6.012,7.139-7.515,7.139-7.515    s9.77,14.655,12.776,9.77C196.202,222.306,191.693,198.258,169.523,201.64z"/>
		<g>
			<path style="fill:#FFFFFF;" d="M177.851,317.603l2.388,14.646l0.288,2.061l0.235,1.929l0.912-0.127l1.983-0.346     c1.892-0.264,2.917,0.179,3.078,1.327c0.082,0.586-0.08,1.119-0.483,1.6c-0.404,0.481-0.91,0.764-1.517,0.849l-3.04,0.425     c-2.094,0.292-3.44,0.434-4.038,0.426c-0.354,0.095-0.633,0.157-0.835,0.186c-1.644,0.229-2.538-0.174-2.683-1.21     c-0.06-0.428,0.019-0.852,0.236-1.272s0.459-0.66,0.726-0.722l1.959-0.273l0.008-0.931l-2.523-14.627l-1.778-15.453     c-0.368-2.635-0.826-5.096-1.375-7.383l-1.317,0.184l-1.579,0.289c-0.675,0.094-1.223,0.038-1.642-0.167     c-0.419-0.206-0.679-0.669-0.779-1.39c-0.147-1.058,0.915-1.747,3.189-2.064l8.242-1.15c1.869-0.261,2.872,0.094,3.006,1.062     c0.06,0.428-0.088,0.851-0.443,1.267c-0.354,0.417-0.792,0.662-1.309,0.733l-3.547,0.495c0.443,1.867,0.833,3.994,1.166,6.38     L177.851,317.603z"/>
		</g>
		<g>
			<path style="fill:#FFFFFF;" d="M281.011,290.458l0.232,1.172c2.856,20.469,1.312,31.118-4.632,31.948     c-2.293,0.343-4.124-0.354-5.491-2.093c-1.419-1.774-2.386-3.604-2.9-5.482c-0.795-2.896-1.487-6.25-2.075-10.059     c-0.589-3.809-1.386-9.315-2.392-16.521l-1.685-9.854c0.292-1.028,0.714-1.581,1.267-1.658c0.551-0.077,1.1,0.276,1.646,1.061     c0.545,0.786,0.884,1.651,1.017,2.598l2.625,18.812c0.229,1.645,0.734,4.064,1.513,7.262c0.778,3.196,1.284,5.618,1.513,7.262     c0.471,3.377,2.17,4.86,5.097,4.452c3.288-0.459,3.203-13.084-0.257-37.876l-0.542-3.884l-0.194-1.145     c-0.075-0.539-0.008-0.962,0.202-1.268c0.21-0.304,0.624-0.5,1.244-0.587c0.619-0.086,1.1-0.05,1.444,0.108     c0.317,0.141,0.569,0.381,0.755,0.721c0.259,0.54,0.464,1.268,0.615,2.188l0.499,7.023L281.011,290.458z"/>
		</g>
		<path style="fill:#E33961;" d="M229.074,339.301c0,0-49.138-34.396-35.215-49.957c8.89-9.935,29.483,12.284,29.483,12.284    s7.371-32.759,22.112-24.569S229.074,339.301,229.074,339.301z"/>
	</g>
	<path style="fill:#EB8265;" d="M282.393,198.802c0,0,16.203,15.817,10.03,18.903s-16.203-5.015-16.203-5.015   s-5.787,11.959-9.259,10.802s-7.33-24.69-4.244-23.532S281.235,198.802,282.393,198.802z"/>
	<path style="fill:#EB8265;" d="M237.226,88.338c0,0,6.988,4.522,5.755,9.865c-1.233,5.344-12.743-0.411-12.743-0.411   s-0.822,12.332-4.111,12.743c-3.288,0.411-6.577-11.921-6.577-11.921L237.226,88.338z"/>
	<path style="fill:#EB8265;" d="M288.196,55.043c0,0,3.699,11.509,6.577,12.743c2.877,1.233,3.288-10.687,3.288-10.687   s10.276,4.522,9.043-0.411s-9.043-7.81-9.043-7.81L288.196,55.043z"/>
	<path style="fill:#241726;" d="M347.78,116.694c-0.252,0-0.507-0.086-0.715-0.261c-0.469-0.395-0.529-1.096-0.133-1.566   l17.775-21.108c0.395-0.465,1.097-0.531,1.566-0.133c0.469,0.395,0.529,1.096,0.133,1.566l-17.775,21.108   C348.411,116.56,348.096,116.694,347.78,116.694z"/>
	<path style="fill:#241726;" d="M351.114,123.915c-0.434,0-0.847-0.256-1.025-0.682c-0.237-0.566,0.03-1.217,0.597-1.454   l30.551-12.776c0.565-0.235,1.217,0.03,1.454,0.597c0.237,0.566-0.03,1.217-0.597,1.454l-30.551,12.776   C351.402,123.888,351.257,123.915,351.114,123.915z"/>
	<path style="fill:#241726;" d="M353.334,130.026c-0.593,0-1.086-0.47-1.109-1.069c-0.024-0.613,0.455-1.129,1.068-1.152   l28.885-1.111c0.597-0.014,1.128,0.453,1.152,1.068c0.024,0.613-0.455,1.129-1.068,1.152l-28.885,1.111   C353.364,130.026,353.35,130.026,353.334,130.026z"/>
	<path style="fill:#241726;" d="M251.682,162.799c-0.555,0-1.036-0.416-1.102-0.981c-0.072-0.61,0.365-1.162,0.973-1.234   l28.329-3.333c0.613-0.072,1.161,0.363,1.234,0.973c0.072,0.61-0.365,1.162-0.973,1.234l-28.329,3.333   C251.769,162.797,251.726,162.799,251.682,162.799z"/>
	<path style="fill:#241726;" d="M259.461,179.463c-0.397,0-0.78-0.213-0.981-0.587c-0.29-0.541-0.086-1.214,0.456-1.504   l23.885-12.776c0.544-0.288,1.213-0.085,1.504,0.456c0.29,0.541,0.086,1.214-0.456,1.504l-23.885,12.776   C259.817,179.421,259.638,179.463,259.461,179.463z"/>
	<path style="fill:#241726;" d="M270.014,188.906c-0.263,0-0.525-0.092-0.737-0.279c-0.459-0.407-0.502-1.11-0.095-1.569   l17.22-19.442c0.41-0.457,1.11-0.5,1.569-0.095c0.459,0.407,0.502,1.11,0.095,1.569l-17.22,19.442   C270.626,188.779,270.321,188.906,270.014,188.906z"/>
	<g>
		<path style="fill:#251426;" d="M338.93,403.309c-0.197,0-0.398-0.053-0.579-0.164c-0.523-0.32-0.688-1.005-0.367-1.528    c1.453-2.369,0.51-6.444,0.5-6.486c-0.141-0.596,0.227-1.194,0.823-1.337c0.597-0.148,1.194,0.225,1.338,0.82    c0.049,0.203,1.168,5.005-0.767,8.163C339.669,403.12,339.304,403.309,338.93,403.309z"/>
		<path style="fill:#251426;" d="M326.076,406.609c-0.199,0-0.398-0.053-0.579-0.164c-0.523-0.321-0.688-1.005-0.367-1.528    c1.213-1.978,0.774-5.351,0.501-6.483c-0.143-0.597,0.225-1.197,0.821-1.34c0.598-0.14,1.197,0.227,1.34,0.821    c0.049,0.203,1.168,5.005-0.768,8.163C326.815,406.421,326.449,406.609,326.076,406.609z"/>
		<path style="fill:#251426;" d="M331.597,392.27c-0.197,0-0.398-0.053-0.579-0.164c-0.523-0.32-0.688-1.005-0.367-1.528    c1.453-2.369,0.51-6.444,0.5-6.486c-0.141-0.596,0.227-1.194,0.823-1.337c0.6-0.148,1.194,0.225,1.338,0.82    c0.049,0.203,1.168,5.005-0.767,8.163C332.336,392.081,331.971,392.27,331.597,392.27z"/>
		<path style="fill:#251426;" d="M337.276,418.491c-0.199,0-0.398-0.053-0.579-0.164c-0.523-0.321-0.688-1.005-0.367-1.528    c1.213-1.978,0.774-5.351,0.501-6.483c-0.143-0.597,0.225-1.197,0.821-1.34c0.6-0.135,1.197,0.226,1.34,0.821    c0.049,0.203,1.168,5.005-0.768,8.163C338.014,418.302,337.649,418.491,337.276,418.491z"/>
		<path style="fill:#251426;" d="M331.446,434.001c-0.269,0-0.538-0.097-0.752-0.293c-0.451-0.416-0.482-1.119-0.066-1.57    c1.882-2.046,1.74-6.225,1.739-6.268c-0.024-0.612,0.452-1.129,1.065-1.153c0.609-0.081,1.128,0.45,1.154,1.062    c0.009,0.208,0.184,5.136-2.323,7.862C332.045,433.881,331.746,434.001,331.446,434.001z"/>
		<path style="fill:#251426;" d="M316.483,421.223c-0.269,0-0.538-0.097-0.752-0.293c-0.451-0.416-0.482-1.119-0.066-1.57    c1.882-2.046,1.74-6.225,1.739-6.268c-0.024-0.612,0.452-1.129,1.065-1.153c0.6-0.062,1.128,0.449,1.154,1.062    c0.009,0.208,0.184,5.136-2.323,7.862C317.082,421.103,316.783,421.223,316.483,421.223z"/>
		<path style="fill:#251426;" d="M320.229,434.686c-0.269,0-0.538-0.097-0.752-0.293c-0.451-0.416-0.482-1.119-0.066-1.57    c1.882-2.046,1.74-6.225,1.739-6.268c-0.024-0.612,0.452-1.129,1.065-1.153c0.586-0.072,1.128,0.45,1.154,1.062    c0.009,0.208,0.184,5.136-2.323,7.862C320.828,434.565,320.529,434.686,320.229,434.686z"/>
		<path style="fill:#251426;" d="M328.061,420.849c-0.199,0-0.398-0.053-0.579-0.164c-0.523-0.321-0.688-1.005-0.367-1.528    c1.213-1.978,0.774-5.351,0.501-6.483c-0.143-0.597,0.225-1.197,0.821-1.34c0.599-0.14,1.198,0.227,1.34,0.821    c0.049,0.203,1.168,5.005-0.768,8.163C328.8,420.66,328.435,420.849,328.061,420.849z"/>
	</g>
	<g>
		<path style="fill:#251426;" d="M40.746,242.082c-0.184,0-0.372-0.046-0.545-0.143c-0.534-0.301-0.724-0.979-0.422-1.513    c0.102-0.181,2.548-4.463,6.117-5.459c0.586-0.165,1.204,0.179,1.368,0.771c0.165,0.59-0.18,1.203-0.771,1.368    c-2.233,0.624-4.206,3.396-4.778,4.41C41.511,241.878,41.134,242.082,40.746,242.082z"/>
		<path style="fill:#251426;" d="M52.412,248.408c-0.184,0-0.372-0.046-0.545-0.143c-0.534-0.301-0.724-0.979-0.422-1.513    c0.102-0.181,2.548-4.462,6.116-5.459c0.587-0.161,1.205,0.179,1.369,0.77c0.165,0.591-0.18,1.204-0.77,1.369    c-2.234,0.625-4.207,3.396-4.779,4.411C53.177,248.204,52.8,248.408,52.412,248.408z"/>
		<path style="fill:#251426;" d="M38.611,255.161c-0.184,0-0.372-0.046-0.544-0.143c-0.535-0.301-0.725-0.979-0.423-1.512    c0.102-0.182,2.547-4.464,6.117-5.46c0.588-0.163,1.203,0.179,1.368,0.771c0.165,0.59-0.18,1.203-0.771,1.368    c-2.234,0.624-4.206,3.396-4.778,4.41C39.376,254.957,38.999,255.161,38.611,255.161z"/>
		<path style="fill:#251426;" d="M52.288,232.08c-0.184,0-0.372-0.046-0.545-0.143c-0.534-0.301-0.724-0.979-0.422-1.512    c0.102-0.182,2.548-4.464,6.117-5.46c0.588-0.161,1.204,0.18,1.368,0.771c0.165,0.59-0.18,1.203-0.771,1.368    c-2.233,0.624-4.206,3.396-4.778,4.41C53.053,231.876,52.677,232.08,52.288,232.08z"/>
		<path style="fill:#251426;" d="M66.267,223.539c-0.256,0-0.512-0.087-0.721-0.266c-0.467-0.399-0.522-1.099-0.124-1.566    c0.136-0.158,3.359-3.888,7.052-4.181c0.63-0.039,1.147,0.409,1.196,1.02c0.048,0.612-0.408,1.147-1.02,1.196    c-2.772,0.219-5.511,3.377-5.538,3.41C66.891,223.407,66.58,223.539,66.267,223.539z"/>
		<path style="fill:#251426;" d="M74.953,230.67c-0.256,0-0.512-0.088-0.721-0.266c-0.467-0.398-0.522-1.1-0.124-1.567    c0.136-0.158,3.36-3.888,7.052-4.181c0.636-0.042,1.147,0.408,1.196,1.02c0.048,0.612-0.408,1.147-1.02,1.196    c-2.312,0.182-4.781,2.522-5.537,3.409C75.578,230.537,75.267,230.67,74.953,230.67z"/>
		<path style="fill:#251426;" d="M60.645,236.622c-0.184,0-0.372-0.046-0.545-0.143c-0.534-0.301-0.724-0.979-0.422-1.512    c0.102-0.182,2.548-4.464,6.117-5.46c0.586-0.162,1.203,0.179,1.368,0.771c0.165,0.59-0.18,1.203-0.771,1.368    c-2.233,0.624-4.206,3.396-4.778,4.41C61.41,236.418,61.034,236.622,60.645,236.622z"/>
	</g>
</g>















</svg>
