<?xml version="1.0" encoding="UTF-8"?>
<!-- Generator: Adobe Illustrator 25.2.0, SVG Export Plug-In . SVG Version: 6.00 Build 0)  -->
<svg xmlns="http://www.w3.org/2000/svg" xmlns:xlink="http://www.w3.org/1999/xlink" version="1.1" id="Capa_1" x="0px" y="0px" viewBox="0 0 512 512" style="enable-background:new 0 0 512 512;" xml:space="preserve" width="512" height="512">
<g>
	<path style="fill:#251426;" d="M380.418,436.698c-2.935,0-5.801-0.799-8.486-2.428c-4.037-2.449-6.335-4.867-7.555-7.068   c-1.942,0.018-3.967-0.177-6.235-0.668c-5.122-1.107-8.51-3.503-10.071-7.12c-3.201-7.412,2.573-17.128,2.82-17.539   c0.311-0.511,0.971-0.676,1.485-0.368c0.512,0.309,0.677,0.974,0.37,1.486c-0.055,0.091-5.446,9.181-2.685,15.567   c1.269,2.936,4.143,4.905,8.537,5.855c1.758,0.38,3.383,0.573,4.875,0.614c-0.624-2.235-0.222-4.133,0.315-5.448   c2.042-4.997,8.552-8.347,12.267-7.48c2.313,0.542,3.43,2.848,2.78,5.738c-0.817,3.626-4.699,8.257-12.037,9.194   c1.278,1.826,3.373,3.634,6.259,5.385c10.458,6.345,20.32-3.29,23.092-6.393c6.718-7.521,9.756-17.291,6.633-21.336   c-0.366-0.474-0.279-1.154,0.195-1.519c0.47-0.365,1.149-0.28,1.519,0.195c4.297,5.562-0.049,16.624-6.732,24.103   C392.338,433.54,386.249,436.698,380.418,436.698z M374.796,414.131c-2.725,0-7.477,2.53-9.003,6.27   c-0.616,1.509-0.641,3.04-0.089,4.571c6.79-0.554,10.319-4.507,11.017-7.607c0.284-1.263,0.15-2.847-1.162-3.154   C375.332,414.157,375.073,414.131,374.796,414.131z"/>
	<path style="fill:#F4BBB1;" d="M338.868,442.284c0,0,162.453-180.931-46.195-265.622   C117.427,105.529,41.792,390.226,158.707,435.355L338.868,442.284z"/>
	<path style="fill:#F4BBB1;" d="M327.319,132.2c0,0,22.448-99.717-45.137-103.545s-93.134,79.843-93.134,79.843   s-61.215,8.007-83.777,38.023s8.815,134.583,163.727,104.632C435.469,218.965,327.319,132.2,327.319,132.2z"/>
	<path style="fill:#251426;" d="M283.912,164.919c-0.556,0-1.03-0.428-1.077-0.994c-0.021-0.255-2.344-25.62-23.688-42.222   c-17.284-13.445-41.941-17.593-73.299-12.328c-0.576,0.09-1.149-0.296-1.248-0.889c-0.099-0.59,0.298-1.149,0.889-1.248   c31.995-5.37,57.232-1.073,75.018,12.775c22.091,17.204,24.467,43.471,24.488,43.734c0.049,0.596-0.394,1.118-0.99,1.167   C283.974,164.918,283.942,164.919,283.912,164.919z"/>
	<path style="fill:#251426;" d="M162.572,216.982c-0.121,0-0.241-0.02-0.36-0.061c-0.565-0.199-0.861-0.818-0.662-1.383   c0.195-0.551,19.315-55.287,8.664-71.209c-1.733-2.591-4.126-3.932-7.316-4.099c-8.082-0.43-14.021,3.115-17.639,10.523   c-5.62,11.512-3.588,29.028,0.666,33.927c0.47,0.544,0.929,0.84,1.136,0.76c2.484-0.927,4.039-16.025,4.054-29.481   c0-0.598,0.485-1.082,1.083-1.082c0,0,0,0,0.002,0c0.597,0.001,1.081,0.487,1.081,1.084c-0.006,6.917-0.423,29.63-5.463,31.509   c-0.804,0.301-2.071,0.308-3.531-1.369c-4.725-5.443-7.043-23.869-0.975-36.297c3.978-8.146,10.765-12.191,19.7-11.737   c3.866,0.204,6.895,1.906,9.005,5.06c11.248,16.818-7.615,70.843-8.423,73.134C163.437,216.704,163.018,216.982,162.572,216.982z"/>
	<path style="fill:#251426;" d="M195.157,225.504c-0.497,0-0.946-0.344-1.058-0.849c-0.582-2.628-14.076-64.541-0.55-79.509   c2.344-2.594,5.342-3.698,8.956-3.275c8.23,0.964,13.562,6.328,15.418,15.514c2.59,12.814-2.528,29.664-6.969,32.179   c-1.09,0.621-2.232,0.511-3.121-0.301c-6.157-5.616-1.043-26.093-0.438-28.409c0.15-0.578,0.732-0.927,1.32-0.775   c0.58,0.151,0.927,0.743,0.774,1.321c-1.547,5.943-4.598,22.248-0.197,26.262c0.138,0.124,0.241,0.217,0.595,0.017   c3.349-1.897,8.395-17.575,5.914-29.864c-1.678-8.296-6.235-12.936-13.55-13.792c-2.905-0.346-5.222,0.503-7.094,2.576   c-12.786,14.147,0.918,76.957,1.058,77.589c0.129,0.584-0.239,1.163-0.823,1.292C195.311,225.495,195.233,225.504,195.157,225.504z   "/>
	<path style="fill:#251426;" d="M232.89,98.043c-0.305,0-0.603-0.081-0.878-0.243c-2.719-1.6-3.013-14.756-3.013-20.337   c0-0.599,0.485-1.083,1.083-1.083s1.083,0.485,1.083,1.083c0,7.71,0.713,16.544,1.794,18.272   c1.663-1.597,3.965-10.581,5.222-18.443c0.095-0.59,0.66-0.998,1.242-0.898c0.59,0.094,0.992,0.65,0.899,1.241   c-0.683,4.258-3.169,18.296-6.54,20.169C233.495,97.963,233.19,98.043,232.89,98.043z"/>
	<path style="fill:#251426;" d="M265.526,101.411c-0.305,0-0.603-0.081-0.878-0.243c-2.719-1.601-3.013-14.757-3.013-20.338   c0-0.599,0.484-1.083,1.083-1.083c0.599,0,1.083,0.485,1.083,1.083c0,7.71,0.713,16.545,1.794,18.273   c1.663-1.598,3.963-10.582,5.22-18.444c0.097-0.591,0.641-0.993,1.242-0.898c0.59,0.094,0.992,0.65,0.899,1.241   c-0.681,4.258-3.167,18.296-6.538,20.17C266.131,101.331,265.827,101.411,265.526,101.411z"/>
	<path style="fill:#251426;" d="M268.397,63.356c-6.536,0-9.847-2.812-11.512-5.427c-0.446-0.699-0.812-1.44-1.109-2.208   c-2.596,0.781-5.571,0.86-8.781,0.204c-8.992-1.835-11.903-9.294-11.631-15.662c0.343-8.028,5.681-17.14,14.895-18.212   c6.345-0.739,10.896,0.165,13.503,2.686c2.37,2.295,2.169,5.063,2.158,5.179c-0.049,0.599-0.578,1.062-1.17,0.989   c-0.595-0.05-1.039-0.573-0.988-1.169c0.004-0.069,0.104-1.912-1.545-3.477c-2.093-1.993-6.144-2.705-11.709-2.057   c-7.731,0.899-12.671,8.919-12.98,16.153c-0.305,7.092,3.396,12.119,9.898,13.447c3.178,0.646,5.719,0.469,7.735-0.142   c-1.151-5.231,0.4-11.166,2.514-14.291c1.272-1.879,2.767-2.77,4.191-2.497c1.407,0.263,2.499,1.321,3.07,2.979   c1.047,3.025,0.341,8.1-3.03,11.949c-1.168,1.333-2.552,2.381-4.111,3.137c0.245,0.638,0.548,1.25,0.914,1.827   c2.406,3.776,7.024,5.15,13.719,4.081c6.538-1.042,11.042-2.976,13.169-5.588c-1.822-0.719-3.485-1.966-4.896-3.714   c-2.575-3.19-3.639-7.399-2.372-9.384c0.628-0.983,1.718-1.363,2.996-1.042c3.269,0.817,8.057,5.51,7.831,10.722   c-0.027,0.629-0.127,1.29-0.33,1.963c1.244,0.095,2.641-0.08,4.202-0.661c2.88-1.07,4.648-2.691,5.254-4.818   c1.354-4.767-3.216-10.721-3.263-10.78c-0.368-0.473-0.284-1.153,0.19-1.52c0.468-0.368,1.151-0.286,1.519,0.189   c0.218,0.279,5.289,6.892,3.635,12.703c-0.804,2.828-3.017,4.933-6.582,6.256c-2.035,0.755-4.041,0.974-5.918,0.695   c-1.87,2.881-6.129,5.688-15.092,7.116C271.173,63.24,269.72,63.356,268.397,63.356z M280.472,43.172   c-0.216,0-0.275,0.092-0.315,0.154c-0.58,0.91,0.013,4.109,2.23,6.857c0.87,1.075,2.296,2.454,4.299,3.168   c0.18-0.516,0.284-1.052,0.307-1.606c0.171-3.939-3.637-7.888-6.191-8.527C280.663,43.186,280.557,43.172,280.472,43.172z    M261.366,38.993c-0.501,0-1.229,0.606-1.896,1.59c-1.773,2.624-3.129,7.742-2.27,12.239c1.314-0.702,2.321-1.586,3.076-2.449   c2.698-3.076,3.447-7.405,2.615-9.813c-0.218-0.629-0.641-1.411-1.422-1.558C261.436,38.997,261.4,38.993,261.366,38.993z"/>
	<path style="fill:#F4BBB1;" d="M316.326,42.874c0,0,14.435-52.663,21.863-41.257c19.747,30.326-8.11,43.725-14.458,46.194   C317.384,50.279,316.326,42.874,316.326,42.874z"/>
	<path style="fill:#F4BBB1;" d="M232.049,47.458c0,0-8.463-45.841-18.689-41.257s-16.573,35.262,13.047,47.604L232.049,47.458z"/>
	<path style="fill:#251426;" d="M321.971,42.547c-0.047,0-0.095-0.003-0.142-0.01c-0.592-0.077-1.011-0.62-0.935-1.213   c0.106-0.805,2.708-19.779,15.919-23.816c0.582-0.179,1.178,0.149,1.354,0.719c0.173,0.572-0.148,1.177-0.719,1.352   c-11.872,3.628-14.381,21.841-14.404,22.024C322.972,42.149,322.507,42.547,321.971,42.547z"/>
	<path style="fill:#251426;" d="M223.589,49.247c-0.034,0-0.066-0.001-0.097-0.004c-0.597-0.053-1.037-0.58-0.984-1.175   c0.013-0.134,1.128-13.495-4.416-19.703c-1.798-2.014-4.048-3.027-6.874-3.095c-0.597-0.015-1.071-0.512-1.056-1.11   c0.015-0.589,0.497-1.057,1.083-1.057c0.008,0,0.017,0,0.028,0c3.411,0.084,6.25,1.37,8.438,3.822   c6.17,6.913,5.008,20.751,4.955,21.336C224.615,48.823,224.143,49.247,223.589,49.247z"/>
	<path style="fill:#F4BBB1;" d="M156.31,422.209c0,0,14.444,66.028,15.475,70.155c1.032,4.127,45.395,2.063,48.49,1.032   c3.095-1.032,7.222-84.599-2.063-82.536S156.31,422.209,156.31,422.209z"/>
	<path style="fill:#F4BBB1;" d="M349.229,422.209c0,0-14.444,66.028-15.475,70.155c-1.032,4.127-45.395,2.063-48.49,1.032   c-3.095-1.032-7.222-84.599,2.063-82.536S349.229,422.209,349.229,422.209z"/>
	<path style="fill:#251426;" d="M228.366,267.441c-7.928,0-15.282-0.686-21.934-1.754c-35.19-5.651-58.789-22.982-59.024-23.156   c-0.48-0.357-0.578-1.036-0.222-1.515c0.362-0.481,1.041-0.577,1.517-0.223c0.231,0.172,23.475,17.223,58.167,22.77   c31.98,5.117,80.531,1.209,130.269-46.412c0.432-0.414,1.117-0.397,1.532,0.034c0.413,0.432,0.398,1.118-0.034,1.532   C298.543,257.103,259.153,267.441,228.366,267.441z"/>
	<path style="fill:#E23961;" d="M273.425,357.593c0,0-31.001-146.565,15.03-157.408c46.031-10.844,44.888,42.918,44.888,42.918   s54.31-19.256,67.972,17.729C419.709,310.628,273.425,357.593,273.425,357.593z"/>
	<path style="fill:#251426;" d="M274.195,353.287c-0.176,0-0.351-0.042-0.516-0.131c-0.527-0.285-0.721-0.943-0.436-1.468   l59.149-109.101c0.288-0.527,0.946-0.717,1.468-0.436c0.527,0.285,0.721,0.943,0.436,1.468L275.147,352.72   C274.95,353.082,274.577,353.287,274.195,353.287z"/>
	<path style="fill:#251426;" d="M360.584,321.154c-0.19,0-0.383-0.05-0.556-0.153l-96.783-57.947   c-0.514-0.308-0.681-0.973-0.372-1.486c0.307-0.513,0.975-0.678,1.485-0.373l96.783,57.947c0.514,0.308,0.681,0.973,0.372,1.486   C361.31,320.966,360.953,321.154,360.584,321.154z"/>
	<path style="fill:#F4BBB1;" d="M157.341,286.025c0,0,108.328-21.666,113.486-6.19c5.158,15.475-5.158,44.363-5.158,44.363   s-76.345,44.363-99.043,28.887S157.341,286.025,157.341,286.025z"/>
	<path style="fill:#251426;" d="M195.343,347.314c-6.603,0-12.947-0.842-19.019-2.528c-26.737-7.429-38.397-29.151-38.512-29.369   c-0.279-0.53-0.074-1.184,0.455-1.462c0.527-0.277,1.185-0.078,1.462,0.455c0.112,0.211,11.381,21.14,37.215,28.3   c23.071,6.391,50.297,0.202,80.94-18.405c0.51-0.309,1.176-0.148,1.49,0.364c0.309,0.511,0.146,1.177-0.364,1.487   C235.816,340.237,214.487,347.314,195.343,347.314z"/>
	<path style="fill:#251426;" d="M262.223,320.678c-0.484,0-0.927-0.327-1.049-0.818c-0.148-0.581,0.203-1.169,0.785-1.316   c8.178-2.065,20.077-6.15,20.925-8.765c0.04-0.12,0.055-0.226-0.116-0.434c-2.761-3.313-12.989-1.422-16.696-0.412   c-0.571,0.154-1.149-0.169-1.32-0.728c-0.171-0.56,0.131-1.154,0.686-1.342c8.389-2.861,17.652-6.945,18.625-8.667   c-2.433-1.801-12.132-2.617-17.787-2.712c-0.506-0.008-0.937-0.367-1.041-0.862c-0.104-0.496,0.15-0.997,0.611-1.207   c6.203-2.828,16.338-8.337,17.121-11.083c0.057-0.204,0.013-0.27-0.013-0.309c-1.244-1.866-11.406,0.159-20.117,3.22   c-0.565,0.205-1.183-0.098-1.382-0.663c-0.199-0.564,0.097-1.183,0.662-1.381c4.604-1.616,19.844-6.57,22.639-2.378   c0.408,0.614,0.51,1.341,0.292,2.104c-0.958,3.365-9.115,7.933-14.362,10.568c4.936,0.298,12.462,1.083,14.887,3.133   c0.563,0.477,0.812,1.144,0.681,1.828c-0.389,2.061-5.351,4.66-10.539,6.848c3.531-0.071,6.94,0.525,8.715,2.654   c0.616,0.737,0.798,1.622,0.514,2.491c-1.525,4.693-18.974,9.317-22.457,10.196C262.399,320.668,262.31,320.678,262.223,320.678z"/>
	<path style="fill:#F4BBB1;" d="M389.424,280.067c0,0-8.224-7.905-16.199-2.93c-17.154,10.702-20.624,27.689-20.21,30.604   c2.501,17.619,27.915,42.671,35.645,42.163C396.391,349.397,439.492,337.078,389.424,280.067z"/>
	<path style="fill:#251426;" d="M312.594,317.197c-0.3,0-0.599-0.125-0.812-0.368c-0.396-0.449-0.351-1.133,0.097-1.529   c5.391-4.744-0.637-19.2-3.415-24.369c-0.173-0.322-0.171-0.708,0.002-1.029c0.173-0.321,0.497-0.532,0.861-0.563   c14.449-1.232,27.091-3.845,27.607-5.705c-0.489-2.892-1.667-4.666-3.61-5.393c-6.292-2.36-19.311,6.719-23.794,10.414   c-0.353,0.29-0.846,0.327-1.238,0.098c-0.394-0.231-0.599-0.681-0.518-1.129c1.786-9.744,3.18-26.143-0.673-28.664   c-0.906-0.593-2.253-0.295-4.007,0.884c-6.944,4.68,0.808,22.019,4.38,28.305c0.248,0.436,0.165,0.984-0.201,1.326   c-0.368,0.344-0.916,0.391-1.335,0.114c-10.033-6.596-16.751,1.717-17.034,2.076c-0.368,0.47-1.049,0.551-1.521,0.18   c-0.47-0.37-0.55-1.052-0.18-1.521c0.072-0.093,6.796-8.408,16.736-4.258c-3.366-6.824-9.995-22.665-2.054-28.017   c2.545-1.715,4.701-2.017,6.402-0.9c5.309,3.473,3.189,20.998,2.082,28.11c4.915-3.669,16.753-11.659,23.716-9.047   c2.691,1.007,4.369,3.396,4.987,7.1c0.07,0.423,0.042,1.071-0.489,1.755c-2.841,3.659-20.946,5.674-27.476,6.288   c2.321,4.758,8.844,19.73,2.203,25.573C313.104,317.108,312.848,317.197,312.594,317.197z"/>
	<path style="fill:#251426;" d="M356.768,302.184c-0.188,0-0.379-0.049-0.552-0.151c-0.402-0.239-9.896-5.914-11.205-11.663   c-0.36-1.571-0.106-3.02,0.751-4.306c0.743-1.113,1.79-1.738,3.028-1.807c2.008-0.105,4.246,1.204,6.502,3.133   c-3.335-6.159-5.306-12.117-2.152-15.086c0.829-0.779,1.872-1.107,3.04-0.937c4.141,0.597,9.574,7.808,12.777,12.622   c-0.791-6.513-1.968-16.739-1.758-18.208c0.252-1.76,0.796-4.119,2.617-4.283c0.047-0.004,0.093-0.006,0.14-0.006   c3.895,0,9.235,14.246,12.094,22.809c0.188,0.567-0.118,1.181-0.686,1.37c-0.565,0.191-1.181-0.115-1.371-0.684   c-3.743-11.218-8.311-20.955-9.999-21.327c0.019,0.051-0.377,0.51-0.65,2.428c-0.18,1.322,1.352,14.48,2.359,22.463   c0.063,0.51-0.239,0.995-0.726,1.16c-0.482,0.167-1.024-0.034-1.284-0.477c-2.444-4.171-9.69-15.127-13.822-15.721   c-0.508-0.072-0.895,0.042-1.246,0.371c-2.416,2.273-0.118,8.841,6.826,19.52c0.421,0.645,0.73,1.124,0.878,1.385   c0.279,0.487,0.218,1.275-0.243,1.595c-0.834,0.586-1.341-0.018-2.188-1.022c-5.08-6.05-8.726-9.04-10.987-8.941   c-0.349,0.019-0.867,0.128-1.346,0.845c-0.521,0.782-0.666,1.64-0.442,2.623c0.918,4.025,7.672,8.786,10.198,10.281   c0.514,0.305,0.686,0.969,0.381,1.484C357.497,301.995,357.138,302.184,356.768,302.184z"/>
	<path style="fill:#251426;" d="M388.663,350.987c-0.042,0-0.085-0.002-0.127-0.007c-17.572-2.055-31.02-28.632-31.582-29.763   c-0.267-0.535-0.051-1.186,0.485-1.452c0.54-0.266,1.185-0.051,1.454,0.486c0.133,0.267,13.488,26.659,29.894,28.578   c0.595,0.07,1.02,0.607,0.952,1.202C389.672,350.581,389.205,350.987,388.663,350.987z"/>
	<g>
		<path style="fill:#251426;" d="M147.179,413.779c-0.224,0-0.451-0.069-0.643-0.212c-0.173-0.128-4.257-3.18-4.826-6.959    c-0.089-0.591,0.317-1.144,0.91-1.234c0.569-0.072,1.143,0.317,1.231,0.91c0.364,2.408,2.99,4.816,3.971,5.539    c0.482,0.355,0.584,1.034,0.229,1.515C147.839,413.626,147.511,413.779,147.179,413.779z"/>
		<path style="fill:#251426;" d="M155.19,402.548c-0.222,0-0.449-0.069-0.641-0.212c-0.173-0.128-4.257-3.179-4.826-6.958    c-0.089-0.591,0.317-1.144,0.91-1.233c0.569-0.077,1.143,0.318,1.231,0.91c0.436,2.887,3.938,5.513,3.971,5.539    c0.48,0.355,0.582,1.034,0.226,1.515C155.85,402.396,155.522,402.548,155.19,402.548z"/>
		<path style="fill:#251426;" d="M160.401,417.647c-0.224,0-0.451-0.069-0.643-0.212c-0.173-0.128-4.257-3.18-4.826-6.959    c-0.089-0.591,0.317-1.144,0.91-1.233c0.563-0.07,1.143,0.318,1.231,0.91c0.364,2.408,2.99,4.816,3.971,5.539    c0.482,0.355,0.584,1.034,0.229,1.515C161.061,417.495,160.733,417.647,160.401,417.647z"/>
		<path style="fill:#251426;" d="M138.327,400.597c-0.222,0-0.449-0.069-0.641-0.212c-0.173-0.128-4.257-3.179-4.826-6.958    c-0.089-0.591,0.317-1.144,0.91-1.234c0.569-0.073,1.143,0.317,1.231,0.91c0.436,2.887,3.937,5.513,3.971,5.539    c0.48,0.355,0.582,1.034,0.226,1.515C138.987,400.445,138.659,400.597,138.327,400.597z"/>
		<path style="fill:#251426;" d="M131.298,385.088c-0.294,0-0.586-0.118-0.8-0.351c-0.144-0.16-3.565-3.94-3.398-7.758    c0.028-0.597,0.419-1.075,1.132-1.035c0.597,0.026,1.06,0.532,1.035,1.13c-0.129,2.917,2.801,6.168,2.831,6.199    c0.402,0.442,0.372,1.127-0.07,1.53C131.821,384.994,131.558,385.088,131.298,385.088z"/>
		<path style="fill:#251426;" d="M151.751,385.232c-0.294,0-0.586-0.118-0.8-0.351c-0.144-0.16-3.565-3.94-3.398-7.758    c0.027-0.598,0.446-1.092,1.132-1.035c0.597,0.026,1.06,0.532,1.035,1.13c-0.129,2.917,2.801,6.168,2.831,6.199    c0.402,0.442,0.372,1.127-0.07,1.53C152.274,385.138,152.012,385.232,151.751,385.232z"/>
		<path style="fill:#251426;" d="M139.759,377.035c-0.294,0-0.586-0.118-0.8-0.352c-0.144-0.159-3.563-3.939-3.398-7.755    c0.025-0.597,0.506-1.104,1.13-1.036c0.599,0.025,1.062,0.531,1.037,1.129c-0.127,2.918,2.801,6.169,2.831,6.2    c0.402,0.442,0.372,1.128-0.07,1.531C140.282,376.941,140.019,377.035,139.759,377.035z"/>
		<path style="fill:#251426;" d="M144.078,392.553c-0.224,0-0.451-0.069-0.643-0.212c-0.173-0.128-4.255-3.179-4.824-6.958    c-0.089-0.591,0.317-1.144,0.91-1.234c0.569-0.074,1.143,0.318,1.231,0.91c0.364,2.408,2.99,4.815,3.969,5.538    c0.482,0.355,0.584,1.034,0.229,1.515C144.738,392.401,144.41,392.553,144.078,392.553z"/>
	</g>
	<g>
		<path style="fill:#251426;" d="M366.479,377.685c-0.243,0-0.489-0.081-0.692-0.249c-0.459-0.382-0.525-1.064-0.142-1.525    c1.553-1.876,1.597-5.438,1.483-6.651c-0.055-0.597,0.383-1.125,0.977-1.181c0.59-0.061,1.126,0.382,1.181,0.979    c0.019,0.214,0.463,5.292-1.974,8.235C367.099,377.552,366.79,377.685,366.479,377.685z"/>
		<path style="fill:#251426;" d="M352.767,379.194c-0.243,0-0.489-0.081-0.692-0.249c-0.459-0.382-0.525-1.064-0.142-1.525    c1.553-1.876,1.597-5.438,1.483-6.651c-0.055-0.597,0.383-1.125,0.978-1.181c0.586-0.05,1.123,0.383,1.181,0.979    c0.019,0.214,0.463,5.292-1.974,8.235C353.387,379.061,353.078,379.194,352.767,379.194z"/>
		<path style="fill:#251426;" d="M360.553,365.249c-0.243,0-0.489-0.081-0.692-0.249c-0.459-0.382-0.525-1.064-0.142-1.525    c1.553-1.876,1.597-5.438,1.483-6.651c-0.055-0.597,0.383-1.125,0.977-1.181c0.584-0.06,1.124,0.382,1.181,0.979    c0.019,0.214,0.463,5.292-1.974,8.235C361.173,365.115,360.864,365.249,360.553,365.249z"/>
		<path style="fill:#251426;" d="M362.546,393.067c-0.243,0-0.489-0.081-0.692-0.25c-0.459-0.381-0.525-1.064-0.142-1.524    c1.864-2.249,1.487-6.609,1.483-6.652c-0.055-0.596,0.383-1.123,0.98-1.178c0.584-0.06,1.123,0.381,1.178,0.976    c0.019,0.215,0.465,5.293-1.974,8.236C363.166,392.934,362.857,393.067,362.546,393.067z"/>
		<path style="fill:#251426;" d="M354.269,408.173c-0.313,0-0.624-0.135-0.838-0.398c-0.379-0.462-0.311-1.146,0.152-1.524    c1.885-1.541,2.613-5.027,2.736-6.241c0.059-0.596,0.601-1.029,1.185-0.97c0.595,0.06,1.03,0.591,0.969,1.186    c-0.021,0.215-0.561,5.282-3.519,7.703C354.753,408.092,354.51,408.173,354.269,408.173z"/>
		<path style="fill:#251426;" d="M340.747,392.825c-0.313,0-0.624-0.135-0.838-0.398c-0.379-0.463-0.311-1.146,0.152-1.524    c2.26-1.847,2.729-6.198,2.736-6.242c0.061-0.597,0.607-1.034,1.187-0.968c0.595,0.06,1.028,0.59,0.967,1.185    c-0.021,0.215-0.561,5.284-3.519,7.703C341.231,392.744,340.988,392.825,340.747,392.825z"/>
		<path style="fill:#251426;" d="M342.626,407.229c-0.313,0-0.624-0.135-0.838-0.398c-0.379-0.462-0.311-1.146,0.152-1.524    c1.885-1.541,2.613-5.027,2.736-6.241c0.059-0.596,0.599-1.03,1.185-0.97c0.595,0.06,1.03,0.591,0.969,1.186    c-0.021,0.215-0.561,5.282-3.519,7.703C343.11,407.149,342.867,407.229,342.626,407.229z"/>
		<path style="fill:#251426;" d="M352.718,394.14c-0.243,0-0.489-0.081-0.692-0.249c-0.459-0.382-0.525-1.064-0.142-1.525    c1.553-1.876,1.597-5.438,1.483-6.651c-0.055-0.597,0.383-1.125,0.977-1.181c0.58-0.051,1.124,0.383,1.181,0.979    c0.019,0.214,0.463,5.292-1.974,8.235C353.338,394.007,353.029,394.14,352.718,394.14z"/>
	</g>
	<g>
		<path style="fill:#251426;" d="M224.825,308.921c-0.965,0-1.953-0.134-2.865-0.493c-0.556-0.218-0.831-0.847-0.614-1.404    c0.22-0.556,0.851-0.828,1.405-0.613c2.264,0.887,5.664-0.181,6.781-0.668c0.548-0.236,1.187,0.012,1.426,0.561    c0.239,0.548-0.011,1.187-0.559,1.426C230.252,307.794,227.626,308.921,224.825,308.921z"/>
		<path style="fill:#251426;" d="M219.11,296.365c-0.967,0-1.955-0.134-2.867-0.493c-0.556-0.219-0.831-0.847-0.614-1.404    c0.22-0.558,0.853-0.83,1.405-0.613c2.274,0.891,5.664-0.178,6.781-0.668c0.55-0.233,1.187,0.013,1.426,0.561    c0.239,0.548-0.011,1.187-0.559,1.426C224.535,295.238,221.909,296.365,219.11,296.365z"/>
		<path style="fill:#251426;" d="M234.79,299.407c-0.967,0-1.955-0.134-2.867-0.493c-0.556-0.219-0.832-0.847-0.614-1.404    c0.22-0.556,0.853-0.833,1.405-0.613c2.272,0.89,5.664-0.179,6.781-0.668c0.548-0.233,1.187,0.013,1.426,0.561    c0.239,0.548-0.011,1.187-0.559,1.426C240.215,298.281,237.589,299.407,234.79,299.407z"/>
		<path style="fill:#251426;" d="M208.986,309.989c-0.967,0-1.955-0.134-2.867-0.493c-0.556-0.219-0.832-0.847-0.614-1.404    c0.22-0.558,0.851-0.83,1.405-0.613c2.272,0.893,5.664-0.179,6.781-0.668c0.548-0.236,1.185,0.012,1.426,0.561    c0.239,0.548-0.011,1.187-0.559,1.426C214.411,308.863,211.785,309.989,208.986,309.989z"/>
		<path style="fill:#251426;" d="M194.182,307.514c-1.646,0-3.622-0.262-5.184-1.259c-0.506-0.322-0.654-0.991-0.332-1.496    c0.326-0.506,0.999-0.648,1.496-0.33c2.054,1.311,5.592,0.913,6.785,0.65c0.59-0.124,1.162,0.241,1.291,0.824    c0.129,0.584-0.239,1.163-0.825,1.292C197.305,307.219,195.929,307.514,194.182,307.514z"/>
		<path style="fill:#251426;" d="M204.534,289.875c-1.644,0-3.62-0.261-5.179-1.258c-0.506-0.322-0.654-0.991-0.332-1.496    c0.326-0.504,0.997-0.648,1.496-0.33c2.465,1.574,6.741,0.66,6.783,0.648c0.588-0.124,1.162,0.242,1.291,0.825    c0.127,0.584-0.241,1.162-0.823,1.291C207.659,289.579,206.284,289.875,204.534,289.875z"/>
		<path style="fill:#251426;" d="M191.44,296.157c-1.646,0-3.622-0.261-5.184-1.257c-0.506-0.322-0.654-0.991-0.332-1.496    c0.326-0.506,0.999-0.647,1.496-0.332c2.461,1.57,6.741,0.66,6.785,0.65c0.595-0.123,1.162,0.242,1.291,0.825    c0.127,0.584-0.241,1.162-0.823,1.291C194.562,295.862,193.187,296.157,191.44,296.157z"/>
		<path style="fill:#251426;" d="M204.896,300.988c-0.967,0-1.953-0.134-2.867-0.493c-0.556-0.218-0.832-0.846-0.614-1.404    c0.222-0.557,0.851-0.828,1.405-0.613c2.272,0.889,5.664-0.181,6.781-0.668c0.548-0.235,1.187,0.012,1.426,0.561    c0.239,0.548-0.011,1.187-0.559,1.426C210.321,299.861,207.695,300.988,204.896,300.988z"/>
	</g>
	<path style="fill:#251426;" d="M228.959,282.516c-13.928,0-24.82-3.19-32.486-6.603c-13.258-5.902-19.84-13.535-20.113-13.857   c-0.387-0.455-0.332-1.138,0.123-1.525c0.457-0.387,1.14-0.333,1.528,0.122c0.256,0.303,26.401,30.084,78.189,15.826   c0.586-0.16,1.172,0.181,1.333,0.756c0.159,0.577-0.18,1.173-0.757,1.332C246.471,281.403,237.185,282.516,228.959,282.516z"/>
	<g>
		<path style="fill:#251426;" d="M325.653,92.581c-0.157,0-0.315-0.034-0.463-0.105c-0.542-0.256-0.772-0.902-0.516-1.443    c1.045-2.199,0.212-5.663-0.197-6.812c-0.201-0.563,0.093-1.183,0.656-1.384c0.567-0.197,1.185,0.094,1.384,0.658    c0.074,0.203,1.754,5.014,0.116,8.466C326.446,92.353,326.057,92.581,325.653,92.581z"/>
		<path style="fill:#251426;" d="M312.732,97.418c-0.157,0-0.315-0.034-0.465-0.105c-0.54-0.257-0.77-0.902-0.512-1.443    c1.043-2.2,0.212-5.664-0.197-6.813c-0.201-0.563,0.093-1.183,0.656-1.384c0.567-0.196,1.185,0.093,1.384,0.658    c0.074,0.203,1.754,5.015,0.112,8.467C313.525,97.189,313.136,97.418,312.732,97.418z"/>
		<path style="fill:#251426;" d="M316.849,81.985c-0.157,0-0.315-0.034-0.465-0.105c-0.54-0.257-0.77-0.902-0.512-1.443    c1.043-2.2,0.212-5.664-0.197-6.813c-0.201-0.563,0.093-1.183,0.656-1.384c0.567-0.195,1.185,0.093,1.384,0.658    c0.074,0.203,1.754,5.015,0.112,8.467C317.642,81.757,317.253,81.985,316.849,81.985z"/>
		<path style="fill:#251426;" d="M325.625,108.458c-0.157,0-0.315-0.034-0.465-0.105c-0.54-0.257-0.77-0.902-0.512-1.443    c1.043-2.2,0.212-5.663-0.197-6.812c-0.201-0.563,0.093-1.183,0.656-1.384c0.567-0.197,1.185,0.094,1.384,0.658    c0.074,0.203,1.754,5.014,0.112,8.466C326.419,108.23,326.029,108.458,325.625,108.458z"/>
		<path style="fill:#251426;" d="M321.317,125.136c-0.224,0-0.451-0.069-0.645-0.213c-0.48-0.355-0.582-1.035-0.226-1.515    c1.449-1.958,1.297-5.516,1.117-6.722c-0.089-0.591,0.317-1.144,0.91-1.232c0.584-0.077,1.143,0.318,1.231,0.911    c0.032,0.214,0.757,5.259-1.515,8.332C321.975,124.985,321.648,125.136,321.317,125.136z"/>
		<path style="fill:#251426;" d="M304.436,113.587c-0.224,0-0.451-0.069-0.645-0.213c-0.48-0.355-0.582-1.035-0.226-1.515    c1.449-1.958,1.297-5.516,1.117-6.722c-0.089-0.591,0.317-1.144,0.91-1.232c0.582-0.075,1.143,0.318,1.231,0.911    c0.032,0.214,0.757,5.259-1.515,8.332C305.094,113.436,304.766,113.587,304.436,113.587z"/>
		<path style="fill:#251426;" d="M309.799,127.087c-0.224,0-0.451-0.069-0.645-0.213c-0.48-0.355-0.582-1.035-0.226-1.515    c1.449-1.958,1.299-5.517,1.119-6.722c-0.089-0.592,0.319-1.144,0.91-1.232c0.588-0.07,1.143,0.317,1.231,0.911    c0.032,0.214,0.755,5.26-1.517,8.332C310.457,126.935,310.129,127.087,309.799,127.087z"/>
		<path style="fill:#251426;" d="M316.362,111.916c-0.157,0-0.315-0.034-0.465-0.105c-0.54-0.257-0.77-0.902-0.512-1.443    c1.043-2.2,0.212-5.664-0.197-6.813c-0.201-0.563,0.093-1.183,0.656-1.384c0.569-0.195,1.185,0.094,1.384,0.658    c0.074,0.203,1.754,5.015,0.112,8.467C317.156,111.688,316.766,111.916,316.362,111.916z"/>
	</g>
	<path style="fill:#251426;" d="M403.802,405.6c-0.068,0-0.135-0.006-0.203-0.019c-0.76-0.145-18.63-3.661-21.054-13.182   c-0.482-1.898-0.394-3.238,0.277-4.099c0.326-0.421,0.952-0.924,2.069-0.924c1.769,0,4.314,1.378,6.377,2.724   c-1.329-3.18-2.651-7.358-1.466-9.316c0.62-1.025,1.781-1.44,3.307-1.12c2.558,0.538,4.168,2.38,5.182,4.544   c0.391-3.022,1.102-5.873,2.38-7.153c1.32-1.324,3.129-1.099,4.904,0.815c6.57,7.09-0.455,26.216-0.757,27.027   C404.656,405.325,404.248,405.6,403.802,405.6z M384.891,389.542c-0.089,0-0.298,0.008-0.36,0.087   c-0.036,0.046-0.33,0.493,0.112,2.234c1.807,7.091,14.863,10.565,18.452,11.392c1.278-3.774,5.844-18.57,0.889-23.915   c-0.829-0.895-1.282-0.965-1.403-0.965c-0.047,0-0.171,0-0.377,0.207c-1.551,1.556-2.228,8.149-2.211,13.992l0.002,0.386   c-0.011,0.591-0.491,1.066-1.083,1.066l0,0c-0.592,0-1.075-0.474-1.083-1.065l-0.002-0.38c-0.032-1.613-0.434-9.802-5.165-10.799   c-0.686-0.141-0.948,0.025-1.007,0.123c-0.808,1.335,1.098,6.762,3.33,11.025c0.237,0.455,0.123,1.015-0.273,1.34   c-0.402,0.324-0.971,0.325-1.369,0.005C391.075,392.446,386.776,389.542,384.891,389.542z"/>
	<path style="fill:#251426;" d="M195.153,511.741c-1.132,0-1.864-0.496-2.31-0.982c-1.839-2.003-1.274-7.048-0.201-11.727   c-2.528,3.765-5.844,7.693-9.352,9.122c-1.724,0.705-2.782,0.199-3.368-0.348c-2.04-1.904-1.166-7.84,0.049-12.834   c-3.294,4.465-7.852,9.652-11.015,9.099c-0.838-0.147-1.481-0.629-1.86-1.395c-1.773-3.584,3.402-13.94,4.456-15.981   c0.275-0.532,0.933-0.733,1.46-0.464c0.531,0.275,0.741,0.929,0.465,1.46c-2.414,4.67-5.389,12.108-4.439,14.025   c0.07,0.144,0.14,0.196,0.294,0.223c2.342,0.402,8.328-6.831,12.629-13.761c0.29-0.467,0.884-0.639,1.38-0.41   c0.497,0.233,0.741,0.8,0.569,1.32c-2.357,7.166-3.988,15.755-2.509,17.136c0.226,0.212,0.707,0.073,1.073-0.074   c6.527-2.66,12.843-16.165,12.904-16.3c0.245-0.527,0.857-0.77,1.396-0.547c0.535,0.22,0.804,0.824,0.607,1.369   c-2.346,6.509-4.809,16.59-2.941,18.623c0.11,0.12,0.404,0.438,1.382,0.181c5.935-1.583,12.149-14.84,14.04-19.815   c0.214-0.56,0.844-0.84,1.399-0.627c0.559,0.213,0.84,0.838,0.628,1.397c-0.294,0.772-7.291,18.947-15.509,21.138   C195.927,511.689,195.519,511.741,195.153,511.741z"/>
	<path style="fill:#251426;" d="M305.081,512c-0.366,0-0.774-0.052-1.227-0.173c-8.218-2.191-15.215-20.366-15.509-21.138   c-0.212-0.56,0.07-1.185,0.628-1.397c0.554-0.214,1.185,0.066,1.399,0.627c1.892,4.975,8.106,18.233,14.04,19.815   c0.978,0.259,1.274-0.06,1.384-0.181c1.868-2.034-0.595-12.115-2.941-18.623c-0.197-0.545,0.072-1.149,0.607-1.369   c0.537-0.219,1.151,0.021,1.396,0.547c0.061,0.135,6.383,13.643,12.902,16.3c0.364,0.147,0.848,0.284,1.073,0.074   c1.481-1.382-0.15-9.971-2.509-17.136c-0.171-0.521,0.072-1.088,0.569-1.32c0.497-0.229,1.092-0.056,1.379,0.41   c4.304,6.929,10.306,14.135,12.629,13.761c0.154-0.028,0.224-0.079,0.294-0.223c0.95-1.918-2.023-9.355-4.437-14.025   c-0.275-0.531-0.066-1.185,0.465-1.46c0.527-0.269,1.185-0.069,1.46,0.465c1.054,2.04,6.227,12.395,4.454,15.98   c-0.379,0.766-1.022,1.248-1.86,1.395c-3.153,0.56-7.718-4.635-11.015-9.1c1.214,4.994,2.088,10.931,0.049,12.835   c-0.586,0.546-1.644,1.054-3.368,0.348c-3.508-1.428-6.821-5.357-9.352-9.121c1.075,4.678,1.638,9.722-0.201,11.726   C306.947,511.503,306.213,512,305.081,512z"/>
	<path style="fill:#251426;" d="M241.135,439.136c-6.311,0-11.832-0.217-16.529-0.535c-19.114-1.294-28.872-4.395-29.278-4.526   c-0.569-0.184-0.88-0.794-0.696-1.364c0.184-0.569,0.796-0.881,1.363-0.697c0.394,0.125,39.927,12.431,113.789-2.341   c0.559-0.122,1.155,0.261,1.274,0.849c0.118,0.587-0.262,1.157-0.851,1.275C281.706,437.499,258.449,439.136,241.135,439.136z"/>
</g>















</svg>
