<?xml version="1.0" encoding="UTF-8"?>
<!-- Generator: Adobe Illustrator 25.2.0, SVG Export Plug-In . SVG Version: 6.00 Build 0)  -->
<svg xmlns="http://www.w3.org/2000/svg" xmlns:xlink="http://www.w3.org/1999/xlink" version="1.1" id="Capa_1" x="0px" y="0px" viewBox="0 0 512 512" style="enable-background:new 0 0 512 512;" xml:space="preserve" width="512" height="512">
<g>
	<path style="fill:#251626;" d="M70.009,460.326c-0.594,0-1.116-0.43-1.212-1.034c-2.991-18.692,2.474-27.627,7.587-31.83   c4.614-3.797,10.859-5.4,18.166-4.781c1.302-4.423,3.627-8.165,6.958-11.18c11.279-10.208,29.931-8.477,30.725-8.391   c0.674,0.067,1.168,0.667,1.1,1.344c-0.067,0.674-0.679,1.181-1.344,1.099c-0.19-0.019-18.381-1.697-28.839,7.776   c-2.874,2.604-4.915,5.827-6.112,9.641c3.305,0.487,6.803,1.402,10.452,2.748c9.548,3.516,9.215,9.579,8.63,12.022   c-1.379,5.748-8.063,10.527-13.72,9.879c-2.731-0.324-9.086-2.503-9.086-15.74c0-2.398,0.215-4.661,0.641-6.785   c-6.487-0.478-11.982,0.95-16.011,4.263c-6.618,5.443-8.942,15.661-6.72,29.545c0.107,0.67-0.349,1.301-1.019,1.409   C70.139,460.321,70.073,460.326,70.009,460.326z M96.413,425.362c-0.427,2.028-0.642,4.203-0.642,6.519   c0,8.047,2.456,12.771,6.917,13.299c4.476,0.518,9.946-3.439,11.042-8.011c0.928-3.869-1.59-7.116-7.09-9.144   C103.05,426.701,99.624,425.815,96.413,425.362z"/>
	<path style="fill:#251626;" d="M74.935,499.546c-4.336,0-6.99-4.695-8.451-8.614c-1.282,2.957-3.439,6.384-6.555,6.384   c-1.248,0-2.462-0.559-3.612-1.658c-2.308-2.213-2.894-6.036-1.745-11.369c2.323-10.774,11.199-24.99,15.46-26.495   c0.317-0.11,0.665-0.089,0.964,0.062c0.713,0.36,17.495,8.936,20.252,17.561c0.641,2.006,0.511,3.891-0.389,5.602   c-0.95,1.81-2.377,2.189-3.408,2.189c-0.946,0-2.012-0.331-3.195-0.991c1.679,4.495,1.704,10.018-4.039,15.005   c-1.775,1.541-3.551,2.323-5.28,2.323C74.938,499.546,74.936,499.546,74.935,499.546z M67.836,487.056   c1.291,4.908,3.807,10.032,7.099,10.032c0.001,0,0.001,0,0.001,0c1.12,0,2.354-0.581,3.671-1.723   c6.741-5.854,4.031-12.636,0.57-17.297c-1.763-1.766-3.115-3.495-3.172-3.566c-0.391-0.502-0.336-1.217,0.128-1.654   c0.462-0.432,1.182-0.444,1.657-0.019c0.067,0.06,1.661,1.488,3.359,3.773c2.574,2.59,4.912,4.15,6.301,4.15   c0.383,0,0.828-0.103,1.234-0.874c0.589-1.123,0.661-2.335,0.222-3.713c-2.196-6.871-15.64-14.324-18.49-15.838   c-3.255,1.997-11.246,14.3-13.442,24.481c-0.658,3.053-1.012,7.107,1.044,9.075c0.676,0.648,1.318,0.977,1.91,0.977   c1.811,0,3.996-3.207,5.363-7.836c-0.736-3.046-1.644-8.741-0.258-10.522c0.344-0.442,0.823-0.686,1.349-0.686   c0.176,0,0.58,0.094,0.739,0.166C70.209,477.381,68.343,485.157,67.836,487.056z"/>
	<path style="fill:#D6B3C4;" d="M238.549,188.947c0,0,138.163,77.339,138.163,171.556c0,90.161-64.281,86.404-64.281,86.404   l-146.511,5.009c0,0-63.864-28.801-46.333-110.197c8.241-38.264,62.612-140.25,66.368-140.25   C189.712,201.469,238.549,188.947,238.549,188.947z"/>
	<path style="fill:#D6B3C4;" d="M366.277,113.813c0,0-5.009-83.9,11.27-73.882s73.882,101.431,38.819,149.016   s-279.248,48.837-289.266,1.252S101.709-5.051,261.297,36.921c37.543,9.874,27.342,79.396,27.342,79.396L366.277,113.813z"/>
	<path style="fill:#251626;" d="M220.982,117.028c-1.909,0-4.799-1.67-8.592-13.366c-2.071-6.387-3.479-12.915-3.492-12.98   c-0.143-0.662,0.28-1.315,0.943-1.459c0.67-0.127,1.318,0.281,1.459,0.946c2.564,11.964,7.062,24.62,9.767,24.399   c0.052-0.005,0.208-0.017,0.451-0.31c2.506-3.007,2.063-18.121,1.195-26.943c-0.066-0.674,0.427-1.277,1.103-1.344   c0.682-0.038,1.277,0.427,1.343,1.104c0.24,2.441,2.23,23.979-1.752,28.755c-0.746,0.895-1.573,1.14-2.136,1.186   C221.178,117.026,221.081,117.028,220.982,117.028z"/>
	<path style="fill:#251626;" d="M257.883,111.033c-1.91,0-4.799-1.67-8.594-13.368c-2.071-6.387-3.479-12.915-3.492-12.98   c-0.143-0.662,0.28-1.315,0.943-1.459c0.666-0.132,1.316,0.281,1.459,0.946c2.566,11.964,7.122,24.548,9.767,24.402   c0.052-0.005,0.208-0.017,0.451-0.31c2.506-3.007,2.063-18.121,1.195-26.943c-0.066-0.674,0.427-1.277,1.103-1.344   c0.69-0.046,1.277,0.427,1.343,1.104c0.24,2.441,2.23,23.979-1.752,28.755c-0.746,0.895-1.573,1.14-2.136,1.186   C258.077,111.028,257.981,111.033,257.883,111.033z"/>
	<path style="fill:#251626;" d="M389.949,121.667c-11.07,0-21.969-5.355-22.657-5.698c-0.607-0.302-0.853-1.042-0.55-1.649   s1.043-0.852,1.649-0.55c0.242,0.122,24.265,11.907,35.942,0.23c0.48-0.48,1.258-0.48,1.738,0c0.48,0.48,0.48,1.258,0,1.738   C401.621,120.191,395.76,121.667,389.949,121.667z"/>
	<path style="fill:#251626;" d="M389.381,135.677c-7.599,0-15.637-5.818-23.919-17.321c-0.396-0.55-0.271-1.318,0.28-1.716   c0.551-0.394,1.319-0.269,1.715,0.281c8.237,11.439,15.997,16.894,23.066,16.246c8.706-0.811,13.521-10.875,13.569-10.976   c0.287-0.614,1.015-0.881,1.634-0.593c0.614,0.288,0.878,1.02,0.59,1.634c-0.218,0.468-5.473,11.441-15.566,12.382   C390.296,135.655,389.838,135.677,389.381,135.677z"/>
	<path style="fill:#251626;" d="M228.088,132.242c-0.305,0-0.611-0.113-0.848-0.341c-0.491-0.468-0.509-1.246-0.041-1.738   c19.581-20.511,59.896-15.298,61.605-15.063c0.672,0.091,1.144,0.71,1.052,1.382c-0.092,0.672-0.716,1.164-1.384,1.051   c-0.403-0.053-40.785-5.275-59.496,14.328C228.736,132.115,228.412,132.242,228.088,132.242z"/>
	<path style="fill:#251626;" d="M244.83,215.371c-2.52,0-4.372-0.706-5.58-2.114c-5.619-6.55,6.689-25.443,8.111-27.577   c0.374-0.566,1.136-0.718,1.704-0.341c0.564,0.377,0.718,1.14,0.341,1.704c-4.971,7.459-11.616,20.737-8.291,24.613   c1.23,1.435,5.299,2.902,18.742-3.346c0.617-0.29,1.346-0.019,1.632,0.595c0.287,0.614,0.02,1.346-0.595,1.632   C253.958,213.763,248.633,215.371,244.83,215.371z"/>
	<path style="fill:#D6B3C4;" d="M159.364,46.607c0,0,11.992-37.36-34.132-36.899c0,0-12.453,49.814,29.519,40.589L159.364,46.607z"/>
	<path style="fill:#D6B3C4;" d="M261.143,41.868c0,0,39.134,2.847,27.813-41.868c0,0-51.345-0.359-32.486,38.256L261.143,41.868z"/>
	<path style="fill:#251626;" d="M153.37,43.684c-0.082,0-0.164-0.01-0.247-0.026c-0.664-0.134-1.093-0.782-0.959-1.447   c0.119-0.593,2.714-14.556-14.741-18.387c-0.664-0.144-1.082-0.802-0.937-1.464c0.145-0.662,0.81-1.085,1.463-0.936   c19.867,4.359,16.658,21.111,16.623,21.279C154.451,43.283,153.94,43.684,153.37,43.684z"/>
	<path style="fill:#251626;" d="M262.218,35.382c-0.578,0-1.094-0.41-1.206-1.001c-1.802-9.502-0.826-15.706,2.904-18.442   c4.901-3.598,12.404,0.358,12.722,0.528c0.598,0.319,0.822,1.063,0.502,1.661c-0.319,0.6-1.06,0.826-1.662,0.504   c-0.064-0.034-6.46-3.391-10.112-0.708c-2.856,2.1-3.526,7.632-1.939,16.001c0.126,0.665-0.312,1.308-0.978,1.435   C262.371,35.375,262.294,35.382,262.218,35.382z"/>
	<path style="fill:#EE919B;" d="M169.676,373.026c0,0-142.755-46.333-97.674-115.206c27.38-41.831,70.125,13.775,70.125,13.775   s-0.706-54.429,26.297-50.089C238.549,232.775,169.676,373.026,169.676,373.026z"/>
	<path style="fill:#E33961;" d="M338.179,360.545c0,0-58.17-138.354,23.426-149.211c49.559-6.594,35.378,62.094,35.378,62.094   s40.751-36.089,55.104-12.809C489.361,321.078,338.179,360.545,338.179,360.545z"/>
	<path style="fill:#D6B3C4;" d="M89.533,329.197c0,0,35.063-27.549,41.324-23.792c6.261,3.757,25.045,46.333,25.045,46.333   s-32.558,28.801-45.08,31.306C98.299,385.548,45.705,370.521,89.533,329.197z"/>
	<path style="fill:#D6B3C4;" d="M404.238,304.153c0,0-35.063-27.549-41.324-23.792c-6.261,3.757-25.045,46.333-25.045,46.333   s32.558,28.801,45.08,31.306C395.473,360.503,448.067,345.476,404.238,304.153z"/>
	<path style="fill:#251626;" d="M237.908,230.648c-6.826,0-12.693-0.442-17.511-1.037c-15.199-1.879-23.347-5.583-23.686-5.739   c-0.616-0.286-0.884-1.013-0.601-1.63c0.284-0.617,1.016-0.883,1.63-0.602c0.323,0.149,32.878,14.65,88.078-0.072   c0.654-0.163,1.328,0.214,1.504,0.871c0.175,0.655-0.215,1.33-0.87,1.505C267.262,229.062,250.861,230.648,237.908,230.648z"/>
	<path style="fill:#251626;" d="M242.046,255.928c-18.789,0-32.492-11.679-33.103-12.207c-0.512-0.444-0.568-1.219-0.124-1.733   c0.442-0.514,1.22-0.571,1.733-0.125c0.152,0.132,15.436,13.107,35.081,11.456c13.007-1.104,25.051-8.278,35.797-21.325   c0.428-0.523,1.204-0.602,1.729-0.168c0.524,0.432,0.599,1.205,0.167,1.728c-11.189,13.589-23.811,21.063-37.513,22.215   C244.537,255.878,243.279,255.928,242.046,255.928z"/>
	<path style="fill:#251626;" d="M138.673,354.334c-2.159,0-3.883-0.389-4.698-1.406c-2.573-3.219,3.402-17.437,6.871-24.987   c-4.223-0.134-14.362-0.557-18.581-1.61c-0.922-0.23-1.602-0.84-1.918-1.714c-1.601-4.428,7.649-17.384,9.519-19.937   c0.402-0.545,1.17-0.665,1.717-0.264c0.547,0.401,0.666,1.171,0.265,1.718c-5.014,6.843-9.953,15.536-9.19,17.648   c0.03,0.084,0.044,0.125,0.203,0.163c5.015,1.253,19.766,1.589,19.913,1.591c0.416,0.01,0.799,0.228,1.019,0.581   c0.218,0.355,0.244,0.794,0.067,1.171c-5.445,11.568-9.093,22.609-7.966,24.104c1.243,1.56,10.912-0.3,19.168-3.005   c0.65-0.204,1.34,0.144,1.55,0.787c0.211,0.643-0.14,1.339-0.785,1.55C152.665,351.759,144.231,354.334,138.673,354.334z"/>
	<path style="fill:#251626;" d="M351.437,328.972c-5.813,0-11.687-0.768-13.742-1.063c-0.672-0.098-1.138-0.72-1.04-1.392   c0.097-0.67,0.722-1.121,1.391-1.042c11.584,1.675,24.391,1.45,24.883-1.824c0.629-4.191-8.933-12.473-15.107-16.712   c-0.497-0.341-0.673-0.989-0.418-1.534c0.256-0.545,0.862-0.823,1.446-0.662c7.138,2.014,19.653,4.26,22.849,1.74   c0.482-0.382,0.685-0.84,0.66-1.486c-0.308-7.716-10.382-23.821-10.484-23.982c-0.361-0.576-0.188-1.334,0.386-1.694   c0.575-0.367,1.333-0.187,1.694,0.384c0.43,0.684,10.523,16.825,10.858,25.196c0.058,1.428-0.493,2.642-1.594,3.511   c-3.547,2.796-12.897,1.454-19.162,0.13c5.057,4.073,12.026,10.649,11.302,15.473C364.769,327.952,358.144,328.972,351.437,328.972   z"/>
	<path style="fill:#D6B3C4;" d="M331.215,414.349c0,0-3.757,91.413-17.531,93.918c-13.775,2.504-51.342,2.504-51.342,2.504   L249.82,436.89L331.215,414.349z"/>
	<path style="fill:#D6B3C4;" d="M148.388,414.349c0,0,3.757,91.413,17.531,93.918c13.775,2.504,51.342,2.504,51.342,2.504   l12.522-73.882L148.388,414.349z"/>
	<path style="fill:#251626;" d="M273.61,451.892c-0.646,0-1.187-0.504-1.225-1.157c-0.04-0.677,0.476-1.26,1.154-1.298   c45.948-2.703,69.188-16.599,80.592-27.781c12.292-12.051,13.834-23.617,13.847-23.732c0.083-0.674,0.697-1.145,1.367-1.073   c0.673,0.082,1.153,0.691,1.074,1.363c-0.058,0.485-6.774,48.383-96.737,53.675C273.659,451.892,273.634,451.892,273.61,451.892z"/>
	<path style="fill:#251626;" d="M115.831,382.184c-0.455,0-0.893-0.254-1.105-0.689c-0.298-0.61-0.046-1.346,0.565-1.644   c0.176-0.086,17.819-8.775,26.312-18.886c0.434-0.521,1.212-0.588,1.732-0.151c0.52,0.437,0.587,1.212,0.15,1.73   c-8.831,10.515-26.373,19.153-27.116,19.515C116.196,382.144,116.013,382.184,115.831,382.184z"/>
	<path style="fill:#251626;" d="M262.341,512c-0.226,0-0.454-0.062-0.659-0.192c-0.572-0.365-0.742-1.123-0.377-1.697   c2.549-4.006,15.647-23.751,22.976-19.165c4.282,2.676,6.917,7.779,8.349,11.465c1.43-5.343,4.351-13.784,8.948-16.105   c1.636-0.83,3.408-0.84,5.121-0.019c9.14,4.351,14.205,19.697,14.416,20.348c0.209,0.646-0.144,1.339-0.79,1.548   c-0.648,0.209-1.338-0.146-1.548-0.79c-0.048-0.149-4.953-14.993-13.134-18.889c-1.044-0.499-1.984-0.497-2.956-0.005   c-4.589,2.318-7.811,14.319-8.667,18.747c-0.109,0.569-0.604,0.984-1.183,0.996c-0.547,0.086-1.09-0.386-1.22-0.953   c-0.024-0.103-2.476-10.412-8.638-14.261c-3.886-2.436-13.805,9.293-19.599,18.401C263.145,511.798,262.746,512,262.341,512z"/>
	<path style="fill:#251626;" d="M217.261,512c-0.529,0-1.019-0.343-1.177-0.878c-3.127-10.472-10.107-27.087-15.519-27.087   c-5.419,0-11.884,14.571-14.687,23.756c-0.162,0.54-0.635,0.96-1.234,0.869c-0.562-0.026-1.033-0.43-1.145-0.982   c-0.928-4.546-4.188-16.817-8.091-18.975c-0.541-0.3-1.031-0.343-1.543-0.156c-4.937,1.85-8.041,14.108-8.822,18.675   c-0.114,0.67-0.745,1.121-1.417,1.006c-0.67-0.115-1.12-0.749-1.004-1.418c0.311-1.824,3.246-17.888,10.38-20.561   c1.186-0.451,2.43-0.341,3.597,0.305c4.019,2.222,6.881,10.988,8.308,16.405c2.64-7.342,8.61-21.38,15.658-21.38   c9.004,0,16.993,25.892,17.873,28.844c0.194,0.65-0.175,1.334-0.826,1.529C217.495,511.983,217.378,512,217.261,512z"/>
	<g>
		<path style="fill:#251426;" d="M146.014,426.682c-0.25,0-0.503-0.077-0.721-0.235c-0.19-0.137-4.659-3.425-5.31-7.541    c-0.107-0.67,0.35-1.298,1.021-1.406c0.668-0.103,1.301,0.353,1.405,1.022c0.41,2.59,3.264,5.165,4.329,5.938    c0.548,0.398,0.671,1.166,0.272,1.716C146.768,426.507,146.394,426.682,146.014,426.682z"/>
		<path style="fill:#251426;" d="M154.611,414.441c-0.251,0-0.503-0.077-0.721-0.235c-0.19-0.137-4.659-3.427-5.31-7.541    c-0.107-0.67,0.35-1.298,1.021-1.406c0.67-0.096,1.3,0.353,1.405,1.022c0.41,2.587,3.264,5.163,4.329,5.938    c0.55,0.398,0.671,1.166,0.271,1.716C155.365,414.266,154.991,414.441,154.611,414.441z"/>
		<path style="fill:#251426;" d="M160.38,430.769c-0.251,0-0.503-0.077-0.721-0.235c-0.19-0.137-4.657-3.425-5.31-7.541    c-0.107-0.67,0.35-1.298,1.021-1.406c0.67-0.096,1.3,0.353,1.405,1.022c0.493,3.103,4.291,5.909,4.33,5.938    c0.547,0.401,0.668,1.169,0.269,1.716C161.134,430.594,160.76,430.769,160.38,430.769z"/>
		<path style="fill:#251426;" d="M136.312,412.461c-0.25,0-0.503-0.077-0.721-0.235c-0.19-0.137-4.659-3.425-5.31-7.541    c-0.107-0.67,0.35-1.298,1.021-1.406c0.666-0.101,1.301,0.353,1.405,1.022c0.41,2.59,3.264,5.165,4.329,5.938    c0.548,0.398,0.671,1.166,0.272,1.716C137.067,412.286,136.693,412.461,136.312,412.461z"/>
		<path style="fill:#251426;" d="M128.564,395.702c-0.329,0-0.658-0.132-0.9-0.391c-0.16-0.173-3.912-4.26-3.761-8.422    c0.024-0.679,0.581-1.198,1.272-1.183c0.678,0.026,1.208,0.595,1.183,1.274c-0.095,2.618,2.209,5.693,3.106,6.655    c0.462,0.497,0.433,1.274-0.064,1.738C129.164,395.594,128.864,395.702,128.564,395.702z"/>
		<path style="fill:#251426;" d="M150.743,395.692c-0.329,0-0.658-0.132-0.9-0.391c-0.16-0.173-3.912-4.26-3.761-8.422    c0.024-0.679,0.618-1.188,1.272-1.183c0.678,0.026,1.208,0.595,1.183,1.274c-0.095,2.618,2.209,5.693,3.106,6.655    c0.462,0.497,0.433,1.274-0.064,1.738C151.343,395.584,151.043,395.692,150.743,395.692z"/>
		<path style="fill:#251426;" d="M137.674,386.901c-0.329,0-0.658-0.132-0.9-0.391c-0.16-0.173-3.912-4.26-3.761-8.422    c0.024-0.677,0.636-1.2,1.272-1.183c0.678,0.026,1.208,0.595,1.183,1.274c-0.095,2.618,2.209,5.693,3.106,6.655    c0.462,0.497,0.433,1.274-0.064,1.738C138.274,386.793,137.974,386.901,137.674,386.901z"/>
		<path style="fill:#251426;" d="M142.481,403.694c-0.251,0-0.503-0.077-0.721-0.235c-0.19-0.137-4.657-3.427-5.31-7.541    c-0.107-0.67,0.35-1.298,1.02-1.406c0.678-0.094,1.3,0.353,1.406,1.022c0.412,2.587,3.264,5.163,4.329,5.938    c0.55,0.398,0.671,1.166,0.271,1.716C143.235,403.519,142.861,403.694,142.481,403.694z"/>
	</g>
	<g>
		<path style="fill:#251426;" d="M140.865,192.319c-0.395,0-0.782-0.19-1.02-0.542c-0.131-0.194-3.205-4.812-2.411-8.904    c0.128-0.665,0.768-1.099,1.44-0.972c0.666,0.13,1.102,0.775,0.972,1.442c-0.5,2.575,1.301,5.969,2.036,7.061    c0.379,0.562,0.23,1.325-0.331,1.704C141.341,192.251,141.102,192.319,140.865,192.319z"/>
		<path style="fill:#251426;" d="M153.13,183.755c-0.395,0-0.782-0.19-1.02-0.542c-0.131-0.194-3.205-4.812-2.411-8.904    c0.128-0.665,0.769-1.097,1.44-0.972c0.666,0.13,1.102,0.775,0.972,1.442c-0.5,2.575,1.301,5.969,2.036,7.061    c0.379,0.562,0.23,1.325-0.331,1.704C153.605,183.688,153.366,183.755,153.13,183.755z"/>
		<path style="fill:#251426;" d="M152.969,201.072c-0.395,0-0.782-0.19-1.02-0.542c-0.131-0.194-3.208-4.812-2.412-8.902    c0.13-0.665,0.769-1.099,1.44-0.972c0.667,0.13,1.102,0.775,0.972,1.442c-0.5,2.573,1.301,5.967,2.038,7.059    c0.379,0.562,0.232,1.325-0.331,1.704C153.444,201.005,153.205,201.072,152.969,201.072z"/>
		<path style="fill:#251426;" d="M136.611,175.638c-0.395,0-0.782-0.19-1.02-0.542c-0.131-0.194-3.205-4.812-2.411-8.904    c0.128-0.665,0.775-1.102,1.44-0.972c0.666,0.13,1.102,0.775,0.972,1.442c-0.5,2.575,1.301,5.969,2.036,7.061    c0.379,0.562,0.23,1.325-0.331,1.704C137.086,175.571,136.848,175.638,136.611,175.638z"/>
		<path style="fill:#251426;" d="M135.06,157.239c-0.479,0-0.934-0.281-1.132-0.751c-0.091-0.216-2.221-5.338-0.655-9.2    c0.256-0.631,0.973-0.938,1.601-0.677c0.629,0.254,0.931,0.97,0.677,1.598c-1.182,2.914,0.623,7.279,0.642,7.323    c0.262,0.626-0.031,1.346-0.656,1.61C135.38,157.208,135.219,157.239,135.06,157.239z"/>
		<path style="fill:#251426;" d="M155.904,164.814c-0.479,0-0.934-0.281-1.132-0.751c-0.091-0.216-2.221-5.338-0.655-9.2    c0.256-0.626,0.973-0.931,1.601-0.674c0.629,0.254,0.932,0.972,0.677,1.601c-0.986,2.426,0.128,6.106,0.641,7.318    c0.264,0.624-0.028,1.344-0.653,1.61C156.227,164.783,156.064,164.814,155.904,164.814z"/>
		<path style="fill:#251426;" d="M146.63,152.084c-0.479,0-0.934-0.281-1.132-0.751c-0.091-0.216-2.221-5.338-0.655-9.2    c0.257-0.629,0.976-0.934,1.601-0.677c0.629,0.254,0.931,0.97,0.677,1.598c-1.182,2.914,0.623,7.279,0.642,7.323    c0.262,0.626-0.031,1.346-0.656,1.61C146.951,152.053,146.79,152.084,146.63,152.084z"/>
		<path style="fill:#251426;" d="M145.405,169.506c-0.394,0-0.781-0.19-1.019-0.542c-0.131-0.194-3.205-4.81-2.411-8.902    c0.128-0.665,0.775-1.099,1.44-0.972c0.666,0.13,1.102,0.775,0.972,1.442c-0.599,3.087,2.01,7.02,2.036,7.059    c0.378,0.564,0.229,1.327-0.334,1.704C145.88,169.439,145.642,169.506,145.405,169.506z"/>
	</g>
	<path style="fill:#251426;" d="M249.818,144.468c-0.192,0-0.386-0.046-0.568-0.139c-0.601-0.314-0.834-1.056-0.521-1.658   c0.155-0.295,15.776-29.598,40.251-22.525c0.652,0.19,1.027,0.871,0.839,1.522s-0.87,1.03-1.523,0.84   c-22.527-6.523-37.242,21.022-37.387,21.301C250.69,144.228,250.261,144.468,249.818,144.468z"/>
	<path style="fill:#251626;" d="M189.658,277.834c-0.079,0-0.161-0.007-0.242-0.024c-0.665-0.132-1.097-0.78-0.964-1.445   c1.537-7.687-1.09-31.249-16.114-38.761c-3.7-1.85-6.714-2.088-8.958-0.696c-5.243,3.24-5.304,14.072-5.304,14.18   c0,0.679-0.55,1.229-1.229,1.229c-0.679,0-1.229-0.55-1.229-1.229c0-0.502,0.073-12.317,6.469-16.27   c3.019-1.87,6.839-1.668,11.35,0.588c16.421,8.213,19.118,32.972,17.425,41.44C190.745,277.43,190.231,277.834,189.658,277.834z"/>
	<path style="fill:#251626;" d="M390.161,252.316c-0.642,0-1.183-0.499-1.225-1.15c-0.012-0.18-1.277-18.121-10.937-25.443   c-3.785-2.868-8.435-3.742-13.829-2.599c-0.655,0.134-1.316-0.283-1.457-0.948c-0.14-0.662,0.283-1.315,0.948-1.457   c6.118-1.296,11.45-0.274,15.829,3.05c10.557,8.007,11.849,26.459,11.9,27.239c0.043,0.677-0.47,1.262-1.147,1.306   C390.213,252.316,390.187,252.316,390.161,252.316z"/>
</g>















</svg>
