<?xml version="1.0" encoding="UTF-8"?>
<!-- Generator: Adobe Illustrator 25.2.0, SVG Export Plug-In . SVG Version: 6.00 Build 0)  -->
<svg xmlns="http://www.w3.org/2000/svg" xmlns:xlink="http://www.w3.org/1999/xlink" version="1.1" id="Capa_1" x="0px" y="0px" viewBox="0 0 512 512" style="enable-background:new 0 0 512 512;" xml:space="preserve" width="512" height="512">
<g>
	<path style="fill:#FBEADE;" d="M366.686,397.873c0,0,15.435-244.412-138.565-235.506C13.085,174.803,80.359,419.363,80.359,419.363   S295.915,469.197,366.686,397.873z"/>
	<path style="fill:#FBEADE;" d="M312.149,212.581c0,0,45.951,29.738,97.701-24.32l17.297,31.126c0,0-63.722,66.801-119.249,31.424   L312.149,212.581z"/>
	<path style="fill:#FBEADE;" d="M141.656,212.099c0,0-54.184,7.741-78.512-63.031l-24.328,24.328c0,0,25.433,84.041,90.676,75.194   L141.656,212.099z"/>
	<path style="fill:#FBEADE;" d="M177.042,395.661c0,0,17.693,89.938,11.795,91.413s-33.358-0.553-37.781,0.922   c-4.423,1.474-15.297-87.911-15.297-87.911L177.042,395.661z"/>
	<path style="fill:#FBEADE;" d="M321.533,385.341c0,0,17.693,89.938,11.795,91.413c-5.898,1.474-34.648-0.737-39.072,0.737   c-4.423,1.474-14.007-87.727-14.007-87.727L321.533,385.341z"/>
	<path style="fill:#FBEADE;" d="M112.168,416.303c0,0-53.078,1.474-38.334,48.655l-22.116,1.474c0,0-26.539-48.655,41.283-81.092   L112.168,416.303z"/>
	<path style="fill:#251626;" d="M161.561,174.502c0,0,37.597,45.706,15.481,75.194c-22.116,29.488-78.143,23.59-67.822,38.334   s41.283,35.386,25.065,48.655c-16.218,13.27-61.74,31.331-61.74,31.331S41.028,224.263,161.561,174.502z"/>
	<path style="fill:#251626;" d="M322.454,205.464c0,0-42.205,50.13-27.461,75.194c14.744,25.065,54.184,16.218,42.389,35.386   c-11.795,19.167-15.481,47.549,29.857,56.949C367.239,372.993,381.43,255.594,322.454,205.464z"/>
	<path style="fill:#F19EA5;" d="M193.253,357.627l72.736-4.5c32.6,30.814,33.281,119.23-17.549,114.873   S154.041,446.216,193.253,357.627z"/>
	<path style="fill:#251626;" d="M192.302,464.148c-0.257,0-0.502-0.03-0.736-0.094c-0.803-0.219-1.436-0.763-1.83-1.574   c-2.259-4.648,3.959-19.661,4.676-21.358c0.238-0.563,0.886-0.826,1.448-0.589c0.563,0.238,0.826,0.886,0.589,1.448   c-2.555,6.053-6.096,16.708-4.723,19.532c0.145,0.297,0.295,0.373,0.423,0.407c2.59,0.725,10.892-8.274,17.119-16.993   c0.357-0.496,1.046-0.61,1.542-0.257c0.497,0.354,0.612,1.045,0.257,1.542C208.854,449.308,197.956,464.146,192.302,464.148z"/>
	<path style="fill:#251626;" d="M219.544,475.256c-1.222,0-2.288-0.518-3.082-1.498c-3.939-4.859-0.624-21.21-0.233-23.059   c0.126-0.596,0.708-0.978,1.311-0.853c0.597,0.126,0.979,0.714,0.853,1.311c-1.001,4.736-2.991,17.781-0.213,21.208   c0.38,0.47,0.801,0.679,1.364,0.679c4.567,0,9.16-12.08,10.982-19.694c0.144-0.594,0.746-0.952,1.333-0.819   c0.594,0.143,0.96,0.739,0.819,1.333C232.153,456.055,227.337,475.256,219.544,475.256z"/>
	<path style="fill:#251626;" d="M253.231,475.113c-0.477,0-1.017-0.118-1.607-0.432c-7.112-3.794-9.839-22.36-9.952-23.148   c-0.086-0.605,0.334-1.165,0.938-1.252c0.604-0.092,1.165,0.334,1.252,0.938c0.725,5.064,3.718,18.798,8.803,21.509   c0.487,0.261,0.755,0.177,0.975,0.049c3.061-1.806,4.412-16.287,4.544-24.992c0.01-0.605,0.502-1.089,1.106-1.089   c0.005,0,0.011,0,0.017,0c0.61,0.01,1.097,0.512,1.089,1.123c-0.06,3.966-0.614,23.903-5.633,26.862   C254.377,474.91,253.858,475.113,253.231,475.113z"/>
	<path style="fill:#251626;" d="M282.721,464.101c-5.807,0-17.925-16.37-20.308-19.67c-0.357-0.496-0.246-1.187,0.248-1.544   c0.496-0.36,1.186-0.247,1.544,0.248c5.258,7.279,14.888,18.755,18.484,18.755c0.021,0,0.04-0.001,0.06-0.001   c0.237-0.01,0.421-0.075,0.606-0.376c2.349-3.816-5.608-20.226-11.175-29.673c-0.31-0.526-0.135-1.204,0.391-1.514   c0.525-0.31,1.203-0.137,1.514,0.391c1.543,2.619,14.965,25.762,11.153,31.956c-0.551,0.895-1.383,1.388-2.407,1.425   C282.796,464.1,282.758,464.101,282.721,464.101z"/>
	<path style="fill:#251626;" d="M290.112,468.924c0,0,43.978-8.161,45.338-5.441c1.36,2.72,0.907,28.563-1.814,28.563   c-2.72,0-15.868-10.881-15.868-10.881s-14.508,16.775-17.682,16.775S290.112,468.924,290.112,468.924z"/>
	<path style="fill:#251626;" d="M146.389,477.085c0,0,43.978-6.801,44.431-1.814s2.72,35.364-4.08,31.737   c-6.801-3.627-16.322-13.601-16.322-13.601s-13.148,18.135-16.322,18.589S146.389,477.085,146.389,477.085z"/>
	<path style="fill:#251626;" d="M409.85,188.26c0,0-17.653,19.696-14.48,20.603c3.174,0.907,17.597,1.6,17.597,1.6   s-3.162,15.448-1.349,18.169s18.589-7.254,19.949-13.601S419.416,188.693,409.85,188.26z"/>
	<path style="fill:#251626;" d="M63.144,149.068c0,0,10.704,16.09,11.611,19.264c0.907,3.174-19.042,0-19.042,0   s3.627,24.029,0,24.029s-20.402-14.055-20.856-20.856C34.404,164.705,56.521,142.046,63.144,149.068z"/>
	<path style="fill:#251626;" d="M408.208,197.592c-1.306,0-2.834-2.107-13.015-42.71c-5.208-20.77-10.182-41.84-10.232-42.051   c-0.139-0.594,0.228-1.19,0.823-1.33c0.594-0.137,1.189,0.229,1.33,0.823c6.629,28.107,16.739,69.052,20.621,80.408   c2.072-15.116,14.482-42.604,22.091-59.455c2.058-4.559,3.836-8.497,4.951-11.172c0.235-0.564,0.883-0.828,1.446-0.595   c0.564,0.234,0.83,0.882,0.595,1.446c-1.127,2.705-2.911,6.656-4.976,11.231c-8.058,17.846-21.543,47.714-22.171,61.532   c-0.053,1.162-0.47,1.788-1.241,1.861C408.357,197.584,408.282,197.592,408.208,197.592z"/>
	<path style="fill:#251626;" d="M410.167,291.554c-0.203,0-0.408-0.056-0.593-0.173c-6.458-4.11-9.68-8.109-9.849-12.224   c-0.249-6.098,6.214-10.998,12.464-15.735c5.087-3.856,10.346-7.843,10.724-11.794c0.153-1.603-0.491-3.183-1.971-4.832   c-0.28-0.312-0.558-0.609-0.834-0.892c-0.929,1.875-2.342,3.326-4.222,4.329c-5.03,2.684-7.214,0.106-7.761-0.748   c-1.63-2.54-0.785-6.627,1.772-8.574c1.266-0.964,4.38-2.431,9.127,1.09c1.463-9.065-6.142-22.854-6.223-22.999   c-0.298-0.533-0.107-1.207,0.427-1.504c0.533-0.297,1.206-0.106,1.504,0.427c0.364,0.651,8.736,15.842,6.213,25.7   c0.531,0.503,1.079,1.066,1.644,1.695c1.89,2.105,2.74,4.299,2.527,6.521c-0.471,4.917-5.871,9.011-11.59,13.345   c-5.797,4.394-11.792,8.938-11.589,13.882c0.134,3.293,3.104,6.808,8.826,10.449c0.515,0.328,0.667,1.012,0.339,1.527   C410.89,291.373,410.532,291.554,410.167,291.554z M413.347,241.971c-0.785,0-1.493,0.23-2.109,0.699   c-1.757,1.338-2.157,4.209-1.252,5.621c1.076,1.673,3.507,0.713,4.859-0.01c1.674-0.892,2.842-2.194,3.553-3.964   C416.53,242.769,414.808,241.971,413.347,241.971z"/>
	<path style="fill:#251626;" d="M432.877,315.02c-2.649,0-5.297-0.748-7.748-2.471c-0.499-0.351-0.62-1.041-0.269-1.541   c0.351-0.499,1.041-0.62,1.541-0.269c6.808,4.783,15.546,0.582,20.315-5.801c5.32-7.121,7.243-18.837-4.84-28.421   c-8.31-6.591-12.045-13.209-11.101-19.671c0.258-1.771,0.856-3.418,1.681-4.933c-7.516-8.303-12.637-27.543-13.361-30.377   c-0.151-0.592,0.206-1.194,0.797-1.346c0.589-0.154,1.194,0.206,1.346,0.797c1.811,7.083,6.696,22.161,12.429,29.007   c3.308-4.602,8.547-7.709,11.684-8.964c2.164-0.867,3.519-0.112,4.132,0.416c1.259,1.085,1.694,3.064,1.165,5.289   c-0.775,3.258-3.761,7.279-9.817,8.792c-2.372,0.597-4.625-0.247-6.716-2.002c-0.559,1.137-0.963,2.352-1.152,3.64   c-0.821,5.626,2.64,11.554,10.287,17.619c12.472,9.892,11.617,22.937,5.238,31.477C444.758,311.254,438.817,315.02,432.877,315.02z    M435.229,251.628c1.655,1.476,3.363,2.177,5.066,1.755c5.094-1.274,7.576-4.533,8.201-7.16c0.325-1.365,0.145-2.583-0.458-3.104   c-0.51-0.442-1.297-0.262-1.866-0.036C443.751,244.051,438.362,247.06,435.229,251.628z"/>
	<path style="fill:#251626;" d="M63.353,499.151c-1.159,0-2.171-0.378-2.969-0.833c-2.269-1.292-4.229-4.039-5.713-7.249   c-1.519,0.67-3.776,0.623-6.789-2.103c-4.537-4.105-6.894-9.329-6.816-15.111c0.093-6.908,3.665-13.887,9.802-19.146   c0.464-0.398,1.163-0.344,1.558,0.12c0.398,0.463,0.344,1.161-0.12,1.558c-5.654,4.848-8.945,11.224-9.029,17.497   c-0.069,5.128,2.037,9.776,6.088,13.442c1.809,1.636,3.303,2.201,4.447,1.698c-1.707-4.488-2.503-9.434-1.985-12.478   c0.416-2.438,1.603-3.15,2.526-3.317c0.719-0.139,2.52-0.144,3.653,2.549c1.471,3.496,1.211,10.643-1.545,13.914   c1.313,3.004,3.047,5.583,5.016,6.704c1.565,0.891,3.103,0.664,4.705-0.694c4.011-3.409,4.575-9.187,4.456-12.932   c-3.067-2.466-5.727-6.773-4.808-10.22c0.388-1.454,1.076-2.221,2.045-2.281c1.257-0.071,2.293,1.071,3.229,3.397   c0.864,2.148,1.505,4.961,1.704,7.958c1.761,1.185,3.396,1.522,4.445,0.891c0.833-0.499,2.636-2.52,1.395-10.499   c-2.006-12.898-5.508-16.924-7.418-18.177c-1.458-0.956-2.501-0.7-2.543-0.687c-0.58,0.153-1.191-0.183-1.356-0.761   c-0.165-0.578,0.147-1.178,0.72-1.356c0.192-0.065,1.969-0.555,4.235,0.855c4.018,2.501,6.894,9.158,8.547,19.787   c1.064,6.842,0.241,11.127-2.445,12.735c-1.517,0.908-3.464,0.824-5.524-0.199c-0.116,4.957-1.556,10.031-5.251,13.172   C66.076,498.695,64.626,499.15,63.353,499.151z M54.849,475.396c-0.032,0-0.066,0.003-0.099,0.01   c-0.302,0.054-0.593,0.649-0.741,1.513c-0.413,2.421,0.191,6.444,1.481,10.253c1.412-2.812,1.622-7.823,0.479-10.536   C55.727,476.059,55.34,475.396,54.849,475.396z M68.104,472.696c-0.042,0.106-0.089,0.245-0.137,0.424   c-0.451,1.693,0.553,4.198,2.363,6.292C69.796,475.911,68.757,473.483,68.104,472.696z"/>
	<path style="fill:#251626;" d="M277.311,414.176c-0.157,0-0.316-0.033-0.468-0.105c-0.553-0.258-0.792-0.917-0.532-1.47   c10.436-22.297-12.943-50.398-13.18-50.679c-0.394-0.467-0.336-1.164,0.131-1.558c0.469-0.395,1.164-0.337,1.558,0.131   c0.252,0.297,6.2,7.391,10.9,17.471c6.283,13.474,7.179,25.775,2.593,35.572C278.125,413.941,277.727,414.176,277.311,414.176z"/>
	<path style="fill:#251626;" d="M86.657,189.816c0,0-13.336,16.793,2.964,26.672s-3.457,20.251,7.409,25.19   c10.866,4.939,21.239-30.623,21.239-30.623S90.114,194.756,86.657,189.816z"/>
	<path style="fill:#251626;" d="M382.72,209.334c0,0,11.058,21.01-10.505,29.304c-12.556,4.829-23.037-12.901-31.515,5.16   s-18.061-30.962-18.061-30.962S352.864,224.815,382.72,209.334z"/>
	<g>
		<path style="fill:#FBEADE;" d="M164.549,107.073c0,0,40.55-50.87,73.401-46.982s56.825,66.294,73.654,86.525    c16.829,20.231-24.274,68.547-34.47,68.869C266.94,215.807,113.573,179.669,164.549,107.073z"/>
		<path style="fill:#F19EA5;" d="M272.829,217.885c0,0-44.229-9.814-35.717-47.34c5.407-23.836,43.241-11.114,43.241-11.114    s-0.32-43.984,26.182-28.552c26.502,15.431,17.165,66.48,3.787,77.089C295.579,219.658,272.829,217.885,272.829,217.885z"/>
		<path style="fill:#251626;" d="M296.441,209.089c-0.441,0-0.857-0.266-1.029-0.701c-0.105-0.267-10.658-26.774-21.669-29.731    c-2.282-0.618-4.383-0.13-6.416,1.482c-0.478,0.38-1.174,0.298-1.553-0.179c-0.38-0.478-0.299-1.174,0.179-1.553    c2.582-2.049,5.395-2.682,8.364-1.885c12.081,3.247,22.706,29.924,23.153,31.057c0.224,0.568-0.056,1.211-0.624,1.434    C296.713,209.064,296.576,209.089,296.441,209.089z"/>
		<path style="fill:#251626;" d="M304.547,200.459c-0.407,0-0.798-0.225-0.991-0.613c-0.398-0.801-9.697-19.768-5.316-32.233    c1.38-3.925,3.977-6.795,7.72-8.529c0.554-0.258,1.213-0.014,1.468,0.539c0.257,0.554,0.016,1.211-0.539,1.468    c-3.179,1.473-5.386,3.913-6.561,7.252c-4.073,11.583,5.116,30.332,5.209,30.52c0.272,0.546,0.049,1.211-0.499,1.482    C304.879,200.422,304.712,200.459,304.547,200.459z"/>
		<path style="fill:#251626;" d="M179.848,90.191c0,0,12.302-1.017,30.245,27.119s-12.532,36.91,0.058,46.309    c24.68,18.424,9.871,34.727,9.871,34.727s-31.288-0.645-60.636-36.454S179.848,90.191,179.848,90.191z"/>
		<path style="fill:#251626;" d="M193.896,77.72c0,0,25.383,33.445,42.45,37.958c17.067,4.513,27.401-12.41,32.583-3.232    c10.413,18.441,24.732,6.033,24.732,6.033S251.922,17.456,193.896,77.72z"/>
		<path style="fill:#FFFFFF;" d="M197.466,145.387c-5.568,0.001-18.758-9.78-22.954-13.006c-0.484-0.373-0.576-1.067-0.203-1.551    c0.373-0.484,1.066-0.576,1.551-0.203c8.87,6.817,19.789,13.535,21.978,12.506c0.636-1.59-5.983-10.629-14.493-19.691    c-0.419-0.445-0.396-1.145,0.049-1.563c0.446-0.417,1.147-0.397,1.563,0.049c3.733,3.974,15.851,17.28,15.022,21.637    c-0.134,0.711-0.559,1.267-1.197,1.568C198.414,145.306,197.971,145.387,197.466,145.387z"/>
		<path style="fill:#FFFFFF;" d="M246.628,104.452c-0.011,0-0.021,0-0.03,0c-4.655-0.044-15.069-12.54-17.109-15.044    c-0.386-0.474-0.314-1.171,0.159-1.556c0.476-0.387,1.172-0.312,1.556,0.159c4.801,5.894,12.759,14.205,15.415,14.23    c0.137,0.013,0.19-0.036,0.213-0.062c1.295-1.529-3.808-11.587-11.142-21.965c-0.353-0.499-0.234-1.189,0.265-1.541    c0.496-0.354,1.19-0.234,1.541,0.265c3.407,4.82,14.27,20.841,11.023,24.671C248.052,104.161,247.398,104.452,246.628,104.452z"/>
		<path style="fill:#251626;" d="M153.255,134.423c-0.268,0-0.536-0.096-0.748-0.292c-6.92-6.356-25.843-40.365-23.741-49.743    c0.248-1.11,0.922-1.881,1.948-2.23c7.011-2.408,33.571,19.331,38.823,23.711c0.469,0.391,0.532,1.087,0.14,1.557    c-0.39,0.47-1.085,0.533-1.557,0.14c-11.79-9.83-32.185-24.828-36.694-23.315c-0.243,0.082-0.411,0.215-0.502,0.62    c-1.755,7.83,15.929,41.063,23.08,47.63c0.449,0.413,0.479,1.112,0.066,1.563C153.851,134.303,153.553,134.423,153.255,134.423z"/>
		<path style="fill:#251626;" d="M206.463,81.018c-0.275,0-0.551-0.102-0.765-0.307c-8.878-8.501-29.479-28.702-29.044-32.677    c0.055-0.505,0.315-0.923,0.731-1.176c0.208-0.126,21.343-11.75,44.883,17.665c0.381,0.477,0.303,1.173-0.173,1.555    c-0.478,0.383-1.174,0.305-1.554-0.173c-20.604-25.745-38.745-18.711-41.614-17.356c1.131,3.257,14.984,17.814,28.3,30.564    c0.442,0.423,0.457,1.123,0.035,1.564C207.044,80.904,206.754,81.018,206.463,81.018z"/>
		<path style="fill:#251626;" d="M157.081,134.676c0,0-25.636-4.729-33.814,5.135c-8.178,9.864-26.097,31.705-24.888,35.703    s23.647,1.789,34.926-3.018S158.74,134.443,157.081,134.676z"/>
		<path style="fill:#FFFFFF;" d="M119.417,165.322c-0.479,0-0.929-0.325-1.077-0.805c-0.234-0.757-1.624-7.665,21.18-16.956    c0.563-0.234,1.209,0.041,1.441,0.607c0.231,0.565-0.041,1.211-0.607,1.441c-20.774,8.465-19.898,14.252-19.886,14.31    c0.18,0.584-0.154,1.176-0.738,1.356C119.627,165.306,119.521,165.322,119.417,165.322z"/>
		<path style="fill:#251626;" d="M229.401,65.646c0,0,12.611-22.815,25.424-22.877c12.813-0.062,41.064-0.052,43.387,3.418    c2.323,3.47-13.622,19.412-24.494,25.079C262.847,76.934,228.169,66.78,229.401,65.646z"/>
		<path style="fill:#FFFFFF;" d="M251.031,62.326c-0.393,0-0.773-0.209-0.973-0.579c-0.292-0.537-0.092-1.208,0.445-1.499    c21.649-11.731,26.107-6.272,26.545-5.611c0.337,0.51,0.197,1.197-0.312,1.532c-0.497,0.328-1.16,0.203-1.504-0.272    c-0.146-0.159-4.222-4.242-23.674,6.295C251.389,62.282,251.209,62.326,251.031,62.326z"/>
	</g>
	<path style="fill:#251626;" d="M280.52,217.657c-24.905,0-50.408-14.899-51.702-15.665c-0.525-0.311-0.699-0.989-0.388-1.515   c0.312-0.525,0.99-0.698,1.515-0.388c0.375,0.221,37.87,22.121,65.443,13.169c0.577-0.189,1.203,0.128,1.393,0.711   c0.189,0.581-0.13,1.204-0.711,1.393C291.075,216.984,285.81,217.657,280.52,217.657z"/>
	<path style="fill:#251626;" d="M75.861,395.661c0,0,6.635,39.809,66.348,49.761c0,0,8.293-19.351-2.212-32.068   c-10.505-12.717-20.457,16.587-32.068-6.082S75.861,395.661,75.861,395.661z"/>
	<path style="fill:#251626;" d="M367.239,384.603c0,0,8.846,42.02-37.044,49.761c0,0-11.058-13.27-2.212-23.775   c8.846-10.505,16.034,3.87,22.669-12.717S367.239,384.603,367.239,384.603z"/>
	<path style="fill:#251626;" d="M145.167,122.785c-0.2,0-0.403-0.054-0.585-0.168c-0.517-0.323-0.675-1.005-0.351-1.524   l13.997-22.396c0.324-0.519,1.003-0.677,1.524-0.351c0.517,0.323,0.675,1.005,0.351,1.524l-13.997,22.396   C145.896,122.601,145.535,122.785,145.167,122.785z"/>
	<path style="fill:#251626;" d="M135.968,107.188c-0.241,0-0.484-0.079-0.687-0.24c-0.478-0.38-0.558-1.076-0.178-1.554   L147.5,89.797c0.381-0.479,1.076-0.556,1.554-0.178c0.478,0.38,0.558,1.076,0.178,1.554l-12.397,15.598   C136.616,107.046,136.295,107.188,135.968,107.188z"/>
	<path style="fill:#251626;" d="M185.959,60.797c-0.246,0-0.493-0.082-0.699-0.249c-0.473-0.388-0.543-1.084-0.157-1.556   l10.798-13.198c0.387-0.473,1.083-0.543,1.556-0.157c0.473,0.388,0.543,1.084,0.157,1.556l-10.798,13.198   C186.598,60.658,186.28,60.797,185.959,60.797z"/>
	<path style="fill:#251626;" d="M191.96,67.195c-0.346,0-0.687-0.162-0.902-0.465c-0.354-0.497-0.238-1.188,0.26-1.542   l17.996-12.798c0.499-0.352,1.189-0.235,1.542,0.261s0.236,1.188-0.261,1.542L192.6,66.991   C192.405,67.129,192.182,67.195,191.96,67.195z"/>
	<path style="fill:#251626;" d="M60.566,161.6c-0.427,0-0.833-0.247-1.014-0.663c-0.245-0.559,0.01-1.211,0.57-1.456   c9.131-3.996,11.131-51.71,11.131-69.758c0-0.611,0.495-1.106,1.106-1.106s1.106,0.495,1.106,1.106   c0,6.789-0.35,66.487-12.458,71.784C60.864,161.571,60.714,161.6,60.566,161.6z"/>
	<path style="fill:#251626;" d="M39.186,298.718c-0.242,0-0.485-0.079-0.689-0.241c-0.477-0.38-0.556-1.074-0.177-1.553   c0.457-0.576,10.995-14.34-5.149-33.995c-10.547-12.839-7.558-23.037-4.838-27.973c0.348-0.632,0.722-1.236,1.119-1.812   c-0.498-0.58-1.002-1.244-1.508-2.002c-9.14-13.71,14.459-51.22,15.467-52.811c0.327-0.516,1.008-0.667,1.527-0.341   c0.515,0.327,0.668,1.011,0.341,1.527c-0.24,0.377-23.843,37.876-15.495,50.398c0.346,0.518,0.695,0.996,1.05,1.43   c3.255-3.807,7.357-5.929,9.963-5.6c1.599,0.2,2.664,1.29,2.849,2.917c0.301,2.653-1.883,6.543-5.259,7.777   c-1.563,0.569-4.282,0.893-7.343-1.701c-0.27,0.411-0.529,0.84-0.774,1.285c-2.45,4.446-5.109,13.671,4.61,25.503   c9.011,10.969,9.965,20.346,9.18,26.281c-0.86,6.497-3.883,10.337-4.011,10.498C39.831,298.577,39.51,298.718,39.186,298.718z    M32.368,232.949c1.765,1.531,3.567,2.03,5.26,1.412c2.362-0.863,4.021-3.688,3.821-5.45c-0.086-0.763-0.496-0.918-0.925-0.972   C38.729,227.73,35.234,229.507,32.368,232.949z"/>
	<path style="fill:#EE919B;" d="M70.802,122.979c0,0-85.159-82.151-57.553-112.51s58.738,21.513,58.738,21.513   s26.081-58.318,53.082-17.452S70.802,122.979,70.802,122.979z"/>
	<path style="fill:#EE919B;" d="M70.885,113.683c0,0-12.164,11.058-9.952,14.007c2.212,2.949,17.693,2.212,19.904,0   C83.049,125.478,70.885,113.683,70.885,113.683z"/>
	<path style="fill:#251626;" d="M69.51,118.192c-0.214,0-0.43-0.044-0.638-0.134c-2.34-1.014-4.353-11.145-5.344-17.096   c-0.1-0.601,0.307-1.172,0.909-1.272c0.598-0.108,1.172,0.307,1.272,0.909c1.043,6.258,2.743,13.438,3.854,15.16   c2.347-2.136,8.205-11.039,5.909-14.767c-0.32-0.521-0.158-1.202,0.362-1.522c0.519-0.323,1.202-0.158,1.522,0.362   c3.511,5.704-4.755,16.615-6.963,18.087C70.122,118.102,69.817,118.192,69.51,118.192z"/>
	<path style="fill:#251626;" d="M117.327,54.707c-0.156,0-0.314-0.033-0.464-0.103c-0.554-0.258-0.795-0.916-0.538-1.469   c0.119-0.255,11.722-25.561,2.816-34.123c-9.047-8.701-18.064-6.747-18.152-6.723c-0.593,0.141-1.188-0.233-1.326-0.829   c-0.137-0.595,0.234-1.189,0.829-1.326c0.415-0.096,10.282-2.235,20.182,7.285c10.038,9.651-1.834,35.551-2.343,36.649   C118.144,54.471,117.744,54.707,117.327,54.707z"/>
	<path style="fill:#E33961;" d="M394.147,138.379c0,0-103.848-48.451-87.848-86.237c16-37.786,62.548,0.855,62.548,0.855   s7.281-74.972,46.288-45.348S394.147,138.379,394.147,138.379z"/>
	<path style="fill:#EE919B;" d="M433.15,131.675c0,0-22.78-73.31,2.399-81.955s26.688,30.574,26.688,30.574   s39.358-28.968,41.954,2.704S433.15,131.675,433.15,131.675z"/>
	<path style="fill:#E33961;" d="M389.355,127.689c0,0-4.055,21.747-1.843,21.747c2.212,0,17.324-2.949,17.324-5.529   S389.355,127.689,389.355,127.689z"/>
	<path style="fill:#EE919B;" d="M436.167,121.055c0,0-14.375,9.952-12.532,11.427c1.843,1.474,11.058,9.584,12.532,8.478   C437.642,139.853,436.167,121.055,436.167,121.055z"/>
	<path style="fill:#251626;" d="M390.984,132.219c-0.023,0-0.045,0-0.068-0.001c-0.581-0.027-2.35-0.108-10.611-13.532   c-0.32-0.521-0.158-1.202,0.362-1.522c0.522-0.321,1.201-0.158,1.522,0.362c2.983,4.847,6.7,10.276,8.385,12   c0.564-2.446,1.289-9.325,1.734-15.554c0.043-0.609,0.546-1.07,1.181-1.024c0.609,0.043,1.068,0.572,1.024,1.181   c-0.339,4.753-1.255,15.975-2.43,17.541C391.819,132.021,391.422,132.219,390.984,132.219z"/>
	<path style="fill:#251626;" d="M435.061,126.584c-0.177,0-0.354-0.042-0.517-0.129c-0.394-0.208-0.624-0.634-0.584-1.078   l1.106-12.164c0.056-0.608,0.582-1.056,1.202-1.001c0.608,0.055,1.056,0.593,1.001,1.202l-0.867,9.531l8.279-6.8   c0.474-0.39,1.17-0.317,1.556,0.152c0.388,0.472,0.32,1.168-0.152,1.556l-10.322,8.478   C435.561,126.499,435.312,126.584,435.061,126.584z"/>
	<path style="fill:#251626;" d="M421.056,50.652c-0.092,0-0.184-0.011-0.276-0.035c-0.592-0.152-0.947-0.755-0.796-1.347   c0.062-0.238,5.941-23.848-6.692-35.781c-5.168-4.88-10.481-6.57-15.795-5.021c-4.018,1.171-6.572,3.842-6.598,3.869   c-0.418,0.442-1.119,0.465-1.561,0.049c-0.445-0.418-0.469-1.116-0.052-1.562c0.187-0.2,4.658-4.896,11.522-5.109   c4.853-0.161,9.515,1.928,14.003,6.167c13.588,12.832,7.579,36.92,7.316,37.938C421.998,50.321,421.549,50.652,421.056,50.652z"/>
	<path style="fill:#251626;" d="M485.928,106.31c-0.279,0-0.557-0.105-0.773-0.315c-0.436-0.427-0.444-1.126-0.017-1.564   c0.156-0.16,15.566-16.11,10.152-25.586c-1.593-2.787-3.47-4.347-5.579-4.633c-3.487-0.492-6.656,2.625-6.688,2.657   c-0.432,0.428-1.132,0.43-1.564-0.004c-0.43-0.432-0.43-1.131,0.001-1.562c0.159-0.16,3.96-3.897,8.533-3.285   c2.831,0.379,5.26,2.307,7.216,5.73c6.24,10.92-9.805,27.527-10.491,28.229C486.502,106.199,486.215,106.31,485.928,106.31z"/>
</g>















</svg>
