<?xml version="1.0" encoding="UTF-8"?>
<!-- Generator: Adobe Illustrator 25.2.0, SVG Export Plug-In . SVG Version: 6.00 Build 0)  -->
<svg xmlns="http://www.w3.org/2000/svg" xmlns:xlink="http://www.w3.org/1999/xlink" version="1.1" id="Capa_1" x="0px" y="0px" viewBox="0 0 512 512" style="enable-background:new 0 0 512 512;" xml:space="preserve" width="512" height="512">
<g>
	<path style="fill:#251426;" d="M315.078,248.224c-0.323,0-0.643-0.147-0.854-0.425c-0.358-0.471-0.266-1.144,0.207-1.502   c9.695-7.355,17.236-15.253,16.139-16.899c-1.386-2.078-13.121-1.717-23.195-0.191c-0.547,0.075-1.039-0.243-1.19-0.754   c-0.153-0.513,0.096-1.06,0.584-1.282c4.212-1.916,15.31-7.82,16.082-12.084c0.13-0.718-0.082-1.324-0.668-1.91   c-4.404-4.404-18.124,0.555-23.04,2.834c-0.461,0.224-1.022,0.071-1.324-0.35c-0.299-0.421-0.258-0.997,0.103-1.368   c9.236-9.554,16.468-19.054,15.791-20.747c-1.908-1.51-13.199,1.135-20.589,3.508c-0.484,0.159-1.007-0.048-1.259-0.486   c-0.251-0.44-0.163-0.995,0.214-1.332c8.899-7.982,18.074-18.099,17.381-20.533c-0.013-0.042-0.034-0.113-0.222-0.199   c-2.762-1.263-14.897,3.485-21.884,6.771c-0.469,0.22-1.033,0.075-1.334-0.354c-0.299-0.425-0.249-1.005,0.119-1.374   c4.329-4.331,15.496-16.713,15.171-21.924c-0.04-0.62-0.247-1.058-0.653-1.374c-4.241-3.296-12.26,2.618-14.993,5.179   c-0.413,0.387-1.064,0.385-1.477-0.01c-0.41-0.394-0.44-1.043-0.067-1.474c5.301-6.139,12.401-15.982,11.582-18.642   c-0.302-0.982-0.924-1.661-1.897-2.078c-4.788-2.052-16.196,2.689-20.189,4.685c-0.53,0.266-1.173,0.05-1.439-0.48   c-0.264-0.53-0.05-1.175,0.48-1.439c0.622-0.312,15.328-7.584,21.993-4.74c1.567,0.67,2.612,1.822,3.102,3.42   c0.934,3.026-3.276,9.523-7.041,14.518c3.588-1.939,7.963-3.204,11.263-0.632c0.89,0.691,1.401,1.707,1.479,2.932   c0.32,5.154-7.234,14.334-12.057,19.637c6.084-2.578,15.456-6.065,18.732-4.574c0.714,0.323,1.196,0.863,1.395,1.56   c1.129,3.954-8.495,13.821-14.577,19.559c5.986-1.673,15.504-3.862,18.147-1.753c0.325,0.26,0.723,0.746,0.777,1.577   c0.232,3.661-7.979,13.203-13.037,18.709c6.053-2.197,16.407-5.005,20.868-0.545c1.081,1.081,1.516,2.398,1.261,3.81   c-0.714,3.939-6.976,8.145-11.797,10.847c6.987-0.712,17.148-1.173,19.19,1.891c0.955,1.435,1.25,6.235-16.629,19.798   C315.532,248.153,315.304,248.224,315.078,248.224z"/>
	<path style="fill:#251426;" d="M402.893,403.54c-0.057,0-0.113-0.004-0.17-0.015c-0.467-0.073-0.831-0.446-0.894-0.915   c-1.227-9.209-3.636-19.8-5.387-20.849c-1.592-0.142-8.497,8.038-14.931,18.011c-0.272,0.421-0.802,0.599-1.278,0.421   c-0.473-0.178-0.758-0.66-0.685-1.16c1.389-9.433,2.4-20.409,1.722-22.479c-2.025,0.121-10.627,4.723-17.794,9.131   c-0.423,0.26-0.961,0.197-1.315-0.151c-0.352-0.348-0.419-0.89-0.165-1.313c5.984-9.975,10.256-19.584,9.326-20.985   c-1.066-1.06-8.4,2.073-15.695,6.712c-0.4,0.256-0.928,0.216-1.282-0.098c-0.358-0.314-0.467-0.825-0.266-1.259   c3.487-7.51,6.97-16.47,6.758-18.388c-1.481-0.461-7.961,0.39-13.427,1.541c-0.423,0.08-0.838-0.077-1.085-0.415   c-0.249-0.337-0.279-0.792-0.073-1.158c4.241-7.577,7.992-16.792,6.652-18.466c-1.334-1.671-9.63-0.438-16.545,1.665   c-0.448,0.14-0.945-0.038-1.208-0.438c-0.26-0.396-0.228-0.917,0.077-1.282c6.626-7.833,12.543-17.521,10.547-19.519   c-2.513-2.513-11.104-0.779-15.927,0.909c-0.561,0.201-1.171-0.101-1.366-0.658c-0.197-0.559,0.098-1.171,0.658-1.366   c1.407-0.492,13.865-4.689,18.152-0.402c0.731,0.731,3.573,4.991-8.258,19.787c4.953-1.254,13.301-2.844,15.546-0.038   c2.473,3.091-2.524,13.515-5.349,18.826c4.427-0.846,11.198-1.881,12.97-0.699c0.704,0.469,2.501,1.669-4.719,17.806   c5.225-3.07,12.981-6.951,15.366-4.566c2.388,2.388-2.54,12.34-6.874,19.936c9.477-5.619,15.029-7.973,16.541-6.962   c1.497,0.997,1.435,7.701-0.186,19.944c5.169-7.598,12.147-16.577,15.215-14.729c2.836,1.703,4.911,12.535,5.912,18.971   c4.386-8.767,10.796-20.435,13.852-20.435c3.638,0,6.329,12.463,7.611,19.894c0.101,0.584-0.291,1.139-0.875,1.24   c-0.576,0.098-1.139-0.291-1.24-0.875c-1.608-9.332-4.147-17.63-5.544-18.12c-1.778,0.494-8.373,11.98-13.404,22.34   C403.677,403.31,403.3,403.54,402.893,403.54z"/>
	<path style="fill:#EE919B;" d="M207.202,301.588c0,0-84.912-1.635-90.386-0.398c-3.747,0.847,8.049,9.694,8.049,9.694   s-18.648,7.542-13.712,10.212s16.103,6.796,16.103,6.796s-23.871,0.487-16.507,5.746c7.364,5.259,60.65,27.063,78.492,18.848   C207.083,344.273,207.202,301.588,207.202,301.588z"/>
	<path style="fill:#251626;" d="M133.712,316.38c-0.354,0-0.7-0.176-0.905-0.496c-2.153-3.387-9.121-14.69-8.338-18.009   c0.155-0.66,0.536-1.007,0.827-1.181c2.66-1.604,9.173,5.119,14.151,11.043c0.381,0.452,0.323,1.129-0.132,1.51   c-0.454,0.381-1.131,0.32-1.51-0.132c-4.714-5.609-9.72-10.266-11.282-10.543c-0.101,1.912,3.986,9.705,8.093,16.16   c0.318,0.501,0.17,1.162-0.329,1.481C134.11,316.326,133.909,316.38,133.712,316.38z"/>
	<g>
		<path style="fill:#251426;" d="M159.644,306.79c-0.446,0-0.861-0.279-1.016-0.723c-0.193-0.559,0.103-1.169,0.662-1.363    c0.176-0.061,4.339-1.483,7.324-0.036c0.534,0.258,0.756,0.901,0.498,1.433c-0.26,0.534-0.901,0.758-1.433,0.498    c-1.807-0.878-4.719-0.205-5.688,0.132C159.876,306.771,159.759,306.79,159.644,306.79z"/>
		<path style="fill:#251426;" d="M163.676,317.819c-0.444,0-0.859-0.276-1.014-0.72c-0.193-0.559,0.103-1.171,0.662-1.366    c0.176-0.059,4.344-1.479,7.322-0.036c0.534,0.258,0.756,0.901,0.498,1.433c-0.26,0.534-0.901,0.76-1.433,0.498    c-1.82-0.884-4.723-0.203-5.684,0.132C163.91,317.8,163.793,317.819,163.676,317.819z"/>
		<path style="fill:#251426;" d="M150.567,314.215c-0.444,0-0.859-0.276-1.014-0.72c-0.193-0.559,0.103-1.171,0.662-1.366    c0.176-0.059,4.342-1.477,7.322-0.036c0.534,0.258,0.756,0.901,0.498,1.433c-0.26,0.534-0.901,0.756-1.433,0.498    c-1.814-0.882-4.719-0.203-5.684,0.132C150.804,314.196,150.684,314.215,150.567,314.215z"/>
		<path style="fill:#251426;" d="M173.157,306.916c-0.444,0-0.859-0.276-1.014-0.72c-0.193-0.559,0.103-1.171,0.662-1.366    c0.178-0.059,4.344-1.479,7.322-0.036c0.534,0.258,0.756,0.901,0.498,1.433c-0.26,0.534-0.901,0.758-1.433,0.498    c-1.82-0.884-4.723-0.203-5.684,0.132C173.393,306.897,173.274,306.916,173.157,306.916z"/>
		<path style="fill:#251426;" d="M193.826,310.606c-0.224,0-0.45-0.069-0.645-0.216c-1.604-1.206-4.591-1.104-5.602-0.963    c-0.578,0.071-1.129-0.327-1.211-0.913c-0.082-0.586,0.325-1.127,0.911-1.211c0.186-0.027,4.538-0.62,7.192,1.374    c0.473,0.356,0.568,1.026,0.212,1.502C194.473,310.457,194.15,310.606,193.826,310.606z"/>
		<path style="fill:#251426;" d="M183.888,324.902c-0.224,0-0.45-0.069-0.643-0.216c-1.611-1.208-4.595-1.102-5.607-0.963    c-0.584,0.067-1.129-0.327-1.211-0.913c-0.082-0.586,0.325-1.127,0.911-1.211c0.186-0.027,4.543-0.62,7.192,1.374    c0.475,0.354,0.57,1.026,0.214,1.5C184.535,324.753,184.213,324.902,183.888,324.902z"/>
		<path style="fill:#251426;" d="M195.413,320.424c-0.224,0-0.45-0.069-0.645-0.216c-1.617-1.217-4.595-1.11-5.602-0.965    c-0.582,0.071-1.131-0.325-1.213-0.911c-0.084-0.586,0.325-1.129,0.911-1.213c0.188-0.025,4.545-0.618,7.194,1.376    c0.473,0.356,0.568,1.028,0.212,1.502C196.06,320.276,195.738,320.424,195.413,320.424z"/>
		<path style="fill:#251426;" d="M176.041,314.822c-0.446,0-0.861-0.279-1.014-0.723c-0.195-0.559,0.101-1.169,0.66-1.363    c0.176-0.059,4.344-1.474,7.322-0.034c0.534,0.26,0.756,0.901,0.498,1.433c-0.26,0.534-0.901,0.758-1.433,0.498    c-1.81-0.875-4.716-0.205-5.686,0.13C176.273,314.803,176.156,314.822,176.041,314.822z"/>
	</g>
	<path style="fill:#EE919B;" d="M184.877,398.08c0,0-49.89,60.222-55.175,59.095c-5.285-1.127-18.787-3.354-14.653,0.127   c4.133,3.481,45.505,42.69,57.804,41.411s62.726-67.074,60.897-75.265S184.877,398.08,184.877,398.08z"/>
	<path style="fill:#251626;" d="M124.118,466.396c-0.251,0-0.505-0.088-0.71-0.268c-0.444-0.392-0.486-1.068-0.094-1.514   c3.483-3.95,12.723-3.831,13.119-3.833c0.591,0.01,1.064,0.498,1.053,1.091c-0.01,0.591-0.492,1.033-1.091,1.053   c-2.419-0.052-9.123,0.442-11.473,3.108C124.71,466.272,124.415,466.396,124.118,466.396z"/>
	<path style="fill:#251626;" d="M130.763,473.661c-0.482,0-0.919-0.325-1.041-0.813c-0.142-0.574,0.205-1.156,0.781-1.301   c5.956-1.489,13.695-1.506,14.022-1.506c0.593,0,1.072,0.48,1.072,1.072c0,0.593-0.48,1.072-1.072,1.072   c-0.077,0-7.804,0.019-13.502,1.443C130.937,473.651,130.849,473.661,130.763,473.661z"/>
	<g>
		<path style="fill:#251426;" d="M200.722,460.997c-0.457,0-0.88-0.293-1.024-0.752c-0.176-0.565,0.138-1.167,0.704-1.345    c1.921-0.599,3.583-3.079,4.061-3.986c0.279-0.521,0.928-0.723,1.447-0.448c0.524,0.276,0.727,0.924,0.45,1.447    c-0.086,0.165-2.155,4.046-5.318,5.035C200.936,460.982,200.827,460.997,200.722,460.997z"/>
		<path style="fill:#251426;" d="M190.238,455.706c-0.457,0-0.882-0.293-1.024-0.754c-0.176-0.565,0.14-1.167,0.706-1.342    c1.929-0.601,3.583-3.079,4.059-3.981c0.274-0.524,0.926-0.723,1.447-0.45c0.524,0.274,0.727,0.924,0.45,1.447    c-0.086,0.165-2.155,4.046-5.32,5.033C190.452,455.692,190.343,455.706,190.238,455.706z"/>
		<path style="fill:#251426;" d="M202.268,449.373c-0.457,0-0.88-0.293-1.024-0.752c-0.176-0.565,0.138-1.167,0.704-1.345    c1.921-0.599,3.583-3.079,4.061-3.986c0.279-0.524,0.928-0.72,1.447-0.448c0.524,0.276,0.727,0.924,0.45,1.447    c-0.086,0.165-2.155,4.046-5.318,5.035C202.482,449.358,202.373,449.373,202.268,449.373z"/>
		<path style="fill:#251426;" d="M190.776,470.145c-0.457,0-0.88-0.293-1.024-0.752c-0.176-0.565,0.138-1.167,0.704-1.345    c1.921-0.599,3.581-3.079,4.059-3.983c0.276-0.526,0.93-0.723,1.447-0.45c0.524,0.276,0.727,0.924,0.45,1.447    c-0.086,0.163-2.151,4.046-5.315,5.035C190.99,470.13,190.881,470.145,190.776,470.145z"/>
		<path style="fill:#251426;" d="M177.854,477.077c-0.54,0-1.005-0.406-1.064-0.957c-0.065-0.589,0.362-1.116,0.951-1.181    c2.011-0.218,4.109-2.331,4.748-3.127c0.373-0.463,1.047-0.532,1.508-0.163c0.461,0.371,0.534,1.045,0.163,1.508    c-0.117,0.145-2.892,3.556-6.189,3.914C177.934,477.075,177.894,477.077,177.854,477.077z"/>
		<path style="fill:#251426;" d="M175.333,459.851c-0.538,0-1.003-0.406-1.064-0.955c-0.065-0.589,0.36-1.118,0.949-1.183    c2-0.218,4.107-2.333,4.75-3.129c0.375-0.459,1.047-0.534,1.508-0.161c0.461,0.371,0.534,1.043,0.163,1.506    c-0.117,0.145-2.892,3.556-6.187,3.916C175.412,459.849,175.372,459.851,175.333,459.851z"/>
		<path style="fill:#251426;" d="M169.986,470.999c-0.538,0-1.003-0.406-1.064-0.955c-0.065-0.589,0.36-1.118,0.949-1.183    c2-0.218,4.107-2.333,4.75-3.129c0.375-0.461,1.045-0.534,1.508-0.161c0.461,0.371,0.534,1.043,0.163,1.506    c-0.115,0.145-2.892,3.556-6.187,3.916C170.065,470.997,170.026,470.999,169.986,470.999z"/>
		<path style="fill:#251426;" d="M183.266,466.345c-0.457,0-0.882-0.293-1.024-0.754c-0.176-0.565,0.14-1.167,0.706-1.342    c1.918-0.597,3.579-3.077,4.057-3.981c0.279-0.526,0.928-0.725,1.447-0.45c0.524,0.276,0.727,0.924,0.45,1.447    c-0.086,0.163-2.153,4.046-5.318,5.033C183.48,466.331,183.371,466.345,183.266,466.345z"/>
	</g>
	<path style="fill:#EE919B;" d="M290.174,179.652c0,0,108.124,231.041-9.61,261.151c-94.251,24.104-167.708-55.62-36.669-187   L290.174,179.652z"/>
	<path style="fill:#251626;" d="M155.518,262.681c-0.454,0-0.863-0.289-1.014-0.723c-2.695-7.82-6.451-16.606-8.067-17.854   c-1.843,1.596-5.904,7.211-6.216,10.777c-0.065,0.758,0.059,1.313,0.371,1.646c0.406,0.431,0.385,1.11-0.048,1.514   c-0.427,0.404-1.11,0.387-1.514-0.048c-0.748-0.796-1.066-1.906-0.945-3.299c0.375-4.275,5.087-10.842,7.303-12.499   c0.438-0.327,0.97-0.417,1.506-0.251c2.457,0.754,6.059,9.473,8.331,15.645c1.005-4.884,2.815-13.083,4.277-16.42   c0.329-0.754,0.942-1.208,1.684-1.248c3.278-0.22,10.459,10.865,14.683,17.944c0.505-5.15,1.772-14.704,4.436-18.608   c0.584-0.852,1.433-1.301,2.388-1.25c4.178,0.155,11.025,10.486,14.229,15.72c1.095-5.705,3.609-17.863,5.678-20.948   c0.442-0.66,1.215-1.039,1.879-1.001c3.173,0.057,8.658,7.642,11.743,12.321c0.656-6.134,2.201-19.542,3.456-22.583   c0.306-0.743,0.882-1.206,1.623-1.305c3.108-0.415,9.716,7.59,12.382,11.056c0.36,0.469,0.272,1.144-0.197,1.504   c-0.469,0.356-1.141,0.272-1.504-0.197c-4.247-5.523-9.018-10.241-10.336-10.241c-0.023,0-0.044,0.002-0.063,0.004   c-1.156,2.987-2.955,19.077-3.544,25.025c-0.046,0.459-0.377,0.836-0.825,0.94c-0.454,0.105-0.911-0.09-1.154-0.48   c-4.798-7.726-10.258-14.254-11.649-13.898c-1.996,2.98-4.934,17.597-5.9,22.979c-0.08,0.444-0.427,0.79-0.871,0.867   c-0.44,0.08-0.888-0.13-1.112-0.519c-4.071-7.037-11.081-16.998-13.915-17.102c-0.157-0.004-0.329,0.015-0.536,0.318   c-3.324,4.867-4.339,20.765-4.35,20.927c-0.029,0.471-0.364,0.869-0.825,0.976c-0.461,0.115-0.938-0.096-1.175-0.507   c-5.318-9.23-12.2-19.167-14.281-19.773c-2.029,4.767-4.844,19.567-4.874,19.716c-0.09,0.478-0.49,0.836-0.976,0.871   C155.57,262.681,155.543,262.681,155.518,262.681z"/>
	<path style="fill:#251626;" d="M164.746,231.281c-0.029,0-0.059,0-0.088,0c-4.511-0.147-12.386-13.596-15.536-19.32   c-2.308,5.008-7.056,14.225-10.828,13.661c-3.705-0.584-6.306-12.461-7.527-19.494c-4.727,5.437-13.186,14.491-16.323,13.921   c-3.261-0.574-4.44-11.701-4.867-19.934c-2.346,2.601-6.807,6.662-12.595,7.829c-1.397,0.279-2.62-0.067-3.542-1.014   c-4.415-4.536-0.276-23.205,0.209-25.318c0.134-0.576,0.706-0.936,1.286-0.804c0.576,0.132,0.936,0.708,0.804,1.286   c-1.734,7.544-3.477,20.554-0.762,23.341c0.274,0.283,0.706,0.586,1.581,0.406c7.703-1.554,13.033-9.125,13.085-9.203   c0.266-0.377,0.739-0.547,1.183-0.417c0.444,0.13,0.754,0.528,0.771,0.991c0.377,10.505,1.87,20.003,3.261,20.738   c1.694,0.207,9.531-7.598,15.775-14.958c0.27-0.32,0.71-0.454,1.106-0.339c0.404,0.113,0.706,0.452,0.771,0.865   c1.636,10.39,4.494,19.729,6.12,19.984c1.577,0.216,5.998-6.469,9.416-14.392c0.163-0.379,0.53-0.63,0.942-0.647   c0.358-0.002,0.794,0.203,0.989,0.57c4.392,8.291,11.873,20.011,14.753,20.104c0.01,0,0.021,0.002,0.034,0.002   c2.499,0,7.41-8.895,10.547-17.184c0.142-0.377,0.486-0.643,0.886-0.687c0.398-0.042,0.794,0.14,1.014,0.478   c2.367,3.602,9.471,13.31,13.869,14.935c0.362,0.134,0.76,0.09,1.225-0.128c4.069-1.889,9.318-14.332,10.997-18.964   c0.14-0.394,0.498-0.668,0.913-0.704c0.413-0.025,0.815,0.172,1.022,0.532c3.46,5.994,7.956,12.679,9.554,13.643   c1.194-1.541,2.953-10.097,3.962-17.555c0.077-0.589,0.605-1.022,1.206-0.917c0.586,0.08,0.997,0.618,0.917,1.206   c-2.654,19.637-5.2,19.511-6.017,19.498c-2.316-0.073-7.087-7.383-10.344-12.863c-1.908,4.848-6.689,15.925-11.309,18.07   c-0.995,0.465-1.962,0.528-2.869,0.193c-4.748-1.753-11.167-10.365-13.766-14.078C174.48,219.764,169.299,231.281,164.746,231.281z   "/>
	<path style="fill:#EE919B;" d="M284.276,144.263c0,0-7.688-30.304-13.107-32.767c-14.418-6.553-36.103,26.513-36.103,26.513   s-8.377-32.286-15.963-30.647c-7.586,1.639-31.131,31.014-31.131,31.014l-80.959-0.723c0,0-10.561-22.94-14.566-15.535   c-4.005,7.404-25.911,44.365,1.643,65.969s83.147,49.759,144.562,14.07c0,0-6.607,69.119-110.681,49.921   C70.557,241.487,339.276,366.381,284.276,144.263z"/>
	<path style="fill:#251626;" d="M259.125,149.511c-0.846,0-1.464-0.346-1.87-0.7c-3.514-3.047-1.102-16.418-0.582-19.067   c0.111-0.584,0.681-0.97,1.257-0.846c0.582,0.113,0.961,0.676,0.846,1.257c-1.19,6.084-2.013,15.391-0.115,17.035   c0.109,0.098,0.339,0.299,1.003,0.069c4.723-1.642,8.053-11.228,8.937-14.782c0.142-0.572,0.72-0.926,1.298-0.783   c0.576,0.142,0.926,0.725,0.783,1.298c-0.14,0.568-3.529,13.932-10.315,16.294C259.908,149.447,259.496,149.511,259.125,149.511z"/>
	<path style="fill:#251626;" d="M210.939,148.439c-0.547,0-1.104-0.098-1.665-0.295c-0.771-0.27-3.118-1.093,0.457-22.282   c0.098-0.584,0.67-0.972,1.236-0.88c0.584,0.098,0.978,0.651,0.88,1.236c-1.42,8.413-2.436,18.265-1.673,19.963   c0.762,0.218,1.447,0.121,2.153-0.299c3.586-2.132,5.81-11.496,6.365-14.924c0.094-0.586,0.653-0.993,1.229-0.886   c0.584,0.094,0.982,0.643,0.886,1.229c-0.086,0.542-2.207,13.343-7.383,16.424C212.622,148.2,211.791,148.439,210.939,148.439z"/>
	<path style="fill:#251626;" d="M99.549,151.386c-0.545,0-1.012-0.415-1.066-0.97c-0.584-6.053-1.506-12.738-2.237-15.362   c-1.267,2.258-3.523,8.4-5.221,13.831c-0.178,0.565-0.781,0.882-1.345,0.704c-0.565-0.178-0.88-0.779-0.704-1.345   c4.905-15.674,6.637-15.942,7.288-16.043c0.534-0.092,1.028,0.142,1.347,0.597c1.464,2.09,2.762,14.872,3.007,17.412   c0.057,0.589-0.375,1.112-0.965,1.171C99.618,151.384,99.585,151.386,99.549,151.386z"/>
	<path style="fill:#251626;" d="M123.399,156.475c-0.576,0-1.053-0.457-1.072-1.037l-0.39-12.057l-8.187,9.963   c-0.379,0.459-1.053,0.521-1.51,0.149c-0.459-0.377-0.524-1.053-0.149-1.51l9.996-12.164c0.285-0.346,0.752-0.475,1.175-0.335   c0.423,0.145,0.712,0.534,0.727,0.98l0.482,14.903c0.019,0.593-0.446,1.089-1.037,1.108   C123.422,156.475,123.41,156.475,123.399,156.475z"/>
	<circle style="fill:#EC7E91;" cx="265.837" cy="176.315" r="13.44"/>
	<path style="fill:#FDE8CE;" d="M252.82,448.342c0,0-1.482-160.21-24.903-172.355C210.223,266.812,87.425,476.918,252.82,448.342z"/>
	<path style="fill:#EE919B;" d="M292.464,254.178c0,0,49.708-41.834,63.532-52.748c13.474-10.637,27.507,16.048,31.169,22.13   s-31.007,86.525-68.746,87.494S292.464,254.178,292.464,254.178z"/>
	<path style="fill:#EE919B;" d="M330.806,306.788c0,0,23.43,68.587,41.719,85.498c18.289,16.911,59.07-1.865,59.07-1.865   s-40.329,121.745-121.82,40.023S330.806,306.788,330.806,306.788z"/>
	<path style="fill:#FDE8CE;" d="M314.577,432.729c0,0,58.171,26.098,108.632-23.052c0,0-11.141,43.253-39.976,49.806   c-28.835,6.553-73.398-3.932-73.398-3.932L314.577,432.729z"/>
	<path style="fill:#EE919B;" d="M254.7,418.221c0,0-6.298,77.949-11.272,80.059c-4.975,2.11-17.31,8.034-11.927,8.513   c5.383,0.479,61.765,8.847,71.103,0.742c9.338-8.105,20.639-99.41,14.441-105.067S254.7,418.221,254.7,418.221z"/>
	<path style="fill:#251626;" d="M197.116,314.906c-0.442,0-0.857-0.274-1.012-0.716c-0.197-0.557,0.096-1.171,0.656-1.368   c1.516-0.534,37.252-13.033,48.021-7.649c0.53,0.264,0.743,0.909,0.48,1.439c-0.264,0.53-0.907,0.746-1.439,0.48   c-9.963-4.98-45.985,7.625-46.35,7.753C197.355,314.887,197.233,314.906,197.116,314.906z"/>
	<path style="fill:#251626;" d="M181.385,343.248c-0.498,0-0.947-0.352-1.049-0.859c-0.117-0.582,0.258-1.148,0.838-1.265   c2.262-0.457,55.513-11.14,68.131-5.835c0.545,0.23,0.802,0.859,0.572,1.405c-0.23,0.542-0.859,0.8-1.405,0.572   c-12.003-5.062-66.324,5.85-66.87,5.961C181.528,343.242,181.456,343.248,181.385,343.248z"/>
	<path style="fill:#251626;" d="M166.97,375.361c-0.354,0-0.702-0.176-0.907-0.501c-0.316-0.501-0.165-1.162,0.335-1.479   c12.52-7.908,82.68-14.937,85.663-15.234c0.58-0.021,1.112,0.373,1.173,0.963c0.057,0.589-0.373,1.114-0.963,1.171   c-0.725,0.073-72.632,7.274-84.729,14.914C167.366,375.307,167.167,375.361,166.97,375.361z"/>
	<path style="fill:#251626;" d="M168.937,410.094c-0.442,0-0.854-0.274-1.009-0.714c-0.199-0.557,0.092-1.171,0.651-1.368   c13.305-4.731,79.941-28.202,85.273-26.206c0.555,0.207,0.836,0.825,0.626,1.38c-0.207,0.553-0.831,0.84-1.38,0.626   c-3.881-1.137-53.475,15.442-83.803,26.219C169.177,410.075,169.056,410.094,168.937,410.094z"/>
	<path style="fill:#251626;" d="M191.874,442.206c-0.331,0-0.658-0.153-0.867-0.442c-0.348-0.478-0.243-1.148,0.235-1.497   c1.879-1.368,46.178-33.576,61.226-38.812c0.551-0.191,1.169,0.101,1.366,0.662c0.193,0.559-0.103,1.171-0.662,1.366   c-14.748,5.129-60.208,38.186-60.665,38.519C192.316,442.139,192.094,442.206,191.874,442.206z"/>
	<path style="fill:#251626;" d="M231.848,450.068c-0.197,0-0.396-0.054-0.572-0.165c-0.501-0.316-0.651-0.978-0.335-1.479   c1.627-2.578,16.076-25.256,22.097-27.932c0.54-0.241,1.175,0.002,1.416,0.545c0.241,0.54-0.004,1.175-0.545,1.416   c-4.593,2.042-16.828,20.267-21.155,27.115C232.55,449.892,232.202,450.068,231.848,450.068z"/>
	<path style="fill:#251626;" d="M338.015,460.555c-0.302,0-0.601-0.128-0.815-0.375c-4.073-4.75-4.191-27.011-4.191-29.532   c0-0.593,0.48-1.072,1.072-1.072c0.593,0,1.072,0.48,1.072,1.072c0,6.635,0.662,24.623,3.676,28.137   c0.385,0.448,0.333,1.127-0.117,1.512C338.511,460.469,338.262,460.555,338.015,460.555z"/>
	<path style="fill:#251626;" d="M369.472,462.521c-0.161,0-0.325-0.036-0.48-0.113c-6.859-3.431-10.07-24.617-10.413-27.023   c-0.084-0.586,0.325-1.129,0.911-1.213c0.574-0.077,1.129,0.323,1.213,0.911c0.89,6.224,4.285,22.925,9.249,25.406   c0.53,0.266,0.743,0.909,0.48,1.439C370.242,462.303,369.863,462.521,369.472,462.521z"/>
	<path style="fill:#251626;" d="M391.751,454.001c-0.205,0-0.413-0.059-0.595-0.18c-4.09-2.729-10.202-17.789-10.884-19.498   c-0.22-0.549,0.046-1.173,0.597-1.393c0.549-0.222,1.173,0.048,1.393,0.597c1.789,4.471,7.087,16.512,10.084,18.51   c0.492,0.329,0.626,0.995,0.297,1.487C392.436,453.834,392.097,454.001,391.751,454.001z"/>
	<path style="fill:#251626;" d="M410.758,439.584c-0.274,0-0.549-0.105-0.758-0.314c-3.322-3.322-9.075-12.25-9.32-12.629   c-0.32-0.498-0.176-1.162,0.323-1.483c0.496-0.32,1.16-0.178,1.483,0.323c0.059,0.09,5.873,9.115,9.031,12.273   c0.419,0.419,0.419,1.097,0,1.516C411.306,439.479,411.032,439.584,410.758,439.584z"/>
	<path style="fill:#251626;" d="M243.317,509.049c-0.08,0-0.159-0.008-0.241-0.027c-0.578-0.134-0.936-0.71-0.804-1.286   c1.611-6.976,13.588-9.55,14.099-9.655c0.574-0.132,1.148,0.249,1.267,0.829c0.121,0.58-0.251,1.148-0.829,1.269   c-0.111,0.023-11.144,2.396-12.447,8.038C244.247,508.714,243.807,509.049,243.317,509.049z"/>
	<path style="fill:#251626;" d="M258.063,512c-0.593,0-1.072-0.48-1.072-1.072c0-0.628,0-2.099,14.302-10.271   c0.507-0.287,1.167-0.115,1.464,0.4c0.293,0.515,0.115,1.169-0.4,1.464c-5.806,3.317-12.438,7.519-13.251,8.656   C258.995,511.648,258.57,512,258.063,512z"/>
	<path style="fill:#251626;" d="M223.327,277.059c-0.503,0-0.953-0.356-1.051-0.869c-0.111-0.582,0.27-1.143,0.85-1.257   c20.493-3.942,34.546-12.455,40.637-24.623c4.587-9.161,3.093-17.291,3.077-17.37c-0.111-0.582,0.268-1.144,0.848-1.257   c0.57-0.119,1.146,0.262,1.257,0.844c0.09,0.457,2.105,11.305-5.542,22.638c-7.309,10.834-20.724,18.194-39.87,21.875   C223.463,277.053,223.394,277.059,223.327,277.059z"/>
	<g>
		<path style="fill:#251426;" d="M338.974,343.839c-0.01,0-0.021,0-0.031,0c-0.593-0.019-1.058-0.513-1.041-1.104    c0.061-2.021-1.742-4.392-2.442-5.135c-0.406-0.431-0.385-1.11,0.046-1.516c0.431-0.404,1.11-0.385,1.516,0.046    c0.128,0.136,3.125,3.357,3.024,6.668C340.027,343.38,339.552,343.839,338.974,343.839z"/>
		<path style="fill:#251426;" d="M330.557,352.026c-0.01,0-0.021,0-0.031,0c-0.593-0.019-1.058-0.511-1.041-1.104    c0.061-2.008-1.742-4.39-2.442-5.137c-0.404-0.431-0.383-1.11,0.048-1.514c0.434-0.406,1.11-0.383,1.514,0.046    c0.128,0.136,3.121,3.357,3.024,6.668C331.612,351.567,331.135,352.026,330.557,352.026z"/>
		<path style="fill:#251426;" d="M328.49,338.589c-0.01,0-0.021,0-0.031,0c-0.593-0.019-1.058-0.511-1.041-1.104    c0.061-2.008-1.742-4.39-2.442-5.137c-0.404-0.431-0.383-1.11,0.048-1.514c0.431-0.408,1.108-0.385,1.514,0.046    c0.128,0.136,3.121,3.357,3.024,6.668C329.545,338.13,329.068,338.589,328.49,338.589z"/>
		<path style="fill:#251426;" d="M344.382,356.223c-0.01,0-0.021,0-0.031,0c-0.593-0.019-1.058-0.511-1.041-1.104    c0.061-2.021-1.742-4.39-2.442-5.133c-0.406-0.431-0.385-1.11,0.046-1.516c0.431-0.406,1.108-0.387,1.516,0.046    c0.128,0.136,3.123,3.353,3.024,6.666C345.437,355.764,344.96,356.223,344.382,356.223z"/>
		<path style="fill:#251426;" d="M346.725,370.697c-0.078,0-0.157-0.008-0.239-0.027c-0.576-0.13-0.938-0.706-0.806-1.284    c0.448-1.971-0.865-4.643-1.407-5.506c-0.316-0.503-0.165-1.164,0.335-1.479c0.503-0.314,1.164-0.165,1.479,0.335    c0.101,0.157,2.419,3.895,1.684,7.127C347.657,370.36,347.215,370.697,346.725,370.697z"/>
		<path style="fill:#251426;" d="M329.619,367.467c-0.077,0-0.157-0.008-0.237-0.027c-0.578-0.13-0.94-0.704-0.808-1.282    c0.446-1.973-0.867-4.647-1.409-5.51c-0.316-0.503-0.165-1.164,0.335-1.479c0.501-0.316,1.162-0.165,1.479,0.335    c0.101,0.157,2.419,3.893,1.686,7.127C330.551,367.13,330.109,367.467,329.619,367.467z"/>
		<path style="fill:#251426;" d="M338.415,376.155c-0.077,0-0.157-0.008-0.239-0.027c-0.576-0.13-0.938-0.706-0.806-1.284    c0.446-1.958-0.867-4.639-1.412-5.508c-0.312-0.501-0.161-1.162,0.339-1.477c0.505-0.312,1.164-0.163,1.477,0.335    c0.101,0.157,2.421,3.893,1.686,7.127C339.347,375.818,338.905,376.155,338.415,376.155z"/>
		<path style="fill:#251426;" d="M338.344,362.087c-0.01,0-0.021,0-0.031,0c-0.593-0.019-1.058-0.511-1.041-1.104    c0.061-2.008-1.742-4.39-2.442-5.137c-0.404-0.431-0.383-1.11,0.048-1.514c0.434-0.406,1.108-0.383,1.514,0.046    c0.128,0.136,3.121,3.357,3.024,6.668C339.399,361.628,338.922,362.087,338.344,362.087z"/>
	</g>
	<g>
		<path style="fill:#251426;" d="M306.531,456.291c-0.182,0-0.364-0.046-0.532-0.14c-0.515-0.295-0.693-0.949-0.4-1.464    c0.997-1.745,0.524-4.691,0.256-5.68c-0.155-0.57,0.182-1.16,0.754-1.315c0.568-0.151,1.16,0.178,1.315,0.752    c0.048,0.18,1.183,4.427-0.461,7.307C307.264,456.096,306.901,456.291,306.531,456.291z"/>
		<path style="fill:#251426;" d="M295.255,459.568c-0.18,0-0.364-0.046-0.532-0.14c-0.513-0.293-0.693-0.949-0.4-1.464    c0.997-1.747,0.522-4.693,0.256-5.682c-0.155-0.572,0.182-1.16,0.754-1.315c0.565-0.147,1.158,0.182,1.315,0.752    c0.048,0.18,1.181,4.427-0.461,7.309C295.988,459.373,295.625,459.568,295.255,459.568z"/>
		<path style="fill:#251426;" d="M299.739,446.732c-0.182,0-0.364-0.046-0.532-0.14c-0.515-0.295-0.693-0.949-0.4-1.464    c0.997-1.745,0.524-4.691,0.255-5.68c-0.155-0.57,0.182-1.16,0.754-1.315c0.568-0.149,1.16,0.18,1.315,0.752    c0.048,0.18,1.183,4.427-0.461,7.307C300.472,446.537,300.109,446.732,299.739,446.732z"/>
		<path style="fill:#251426;" d="M305.49,469.766c-0.18,0-0.364-0.046-0.532-0.14c-0.513-0.293-0.693-0.949-0.4-1.464    c0.997-1.745,0.521-4.693,0.256-5.682c-0.155-0.572,0.182-1.16,0.754-1.315c0.565-0.147,1.16,0.182,1.315,0.752    c0.048,0.18,1.181,4.43-0.461,7.309C306.223,469.571,305.86,469.766,305.49,469.766z"/>
		<path style="fill:#251426;" d="M300.765,483.645c-0.249,0-0.498-0.086-0.702-0.26c-0.448-0.387-0.496-1.064-0.111-1.514    c1.322-1.529,1.418-4.507,1.342-5.525c-0.042-0.591,0.402-1.104,0.993-1.148c0.545-0.042,1.104,0.4,1.148,0.993    c0.013,0.184,0.306,4.574-1.858,7.083C301.364,483.519,301.064,483.645,300.765,483.645z"/>
		<path style="fill:#251426;" d="M287.177,472.758c-0.249,0-0.498-0.086-0.702-0.26c-0.448-0.387-0.496-1.064-0.111-1.514    c1.322-1.529,1.416-4.505,1.34-5.523c-0.042-0.591,0.4-1.106,0.991-1.15c0.589-0.038,1.106,0.4,1.15,0.991    c0.013,0.186,0.308,4.576-1.856,7.085C287.776,472.633,287.476,472.758,287.177,472.758z"/>
		<path style="fill:#251426;" d="M290.863,484.56c-0.249,0-0.498-0.086-0.702-0.262c-0.448-0.385-0.496-1.064-0.109-1.512    c1.313-1.521,1.414-4.505,1.34-5.525c-0.042-0.591,0.402-1.104,0.993-1.146c0.57-0.042,1.104,0.398,1.148,0.989    c0.013,0.186,0.308,4.576-1.86,7.085C291.462,484.434,291.162,484.56,290.863,484.56z"/>
		<path style="fill:#251426;" d="M297.405,472.105c-0.182,0-0.364-0.046-0.532-0.14c-0.515-0.295-0.693-0.949-0.4-1.464    c0.997-1.745,0.524-4.691,0.255-5.68c-0.155-0.57,0.182-1.16,0.754-1.315c0.57-0.151,1.16,0.178,1.315,0.752    c0.048,0.18,1.183,4.427-0.461,7.307C298.138,471.91,297.776,472.105,297.405,472.105z"/>
	</g>
	<path style="fill:#251426;" d="M354.043,206.411c-0.35,0-0.697-0.13-0.997-0.385c-4.668-4.002-34.89-87.301-38.32-96.786   c-0.203-0.557,0.086-1.171,0.643-1.372c0.549-0.201,1.171,0.084,1.372,0.643c12.861,35.556,32.816,88.679,37.231,95.305   c3.391-8.168,6.469-82.448,1.422-93.173c-0.253-0.536-0.023-1.175,0.513-1.426c0.532-0.251,1.175-0.021,1.426,0.513   c4.899,10.405,2.878,92.358-2.375,96.361C354.677,206.304,354.359,206.411,354.043,206.411z"/>
	<path style="fill:#251426;" d="M362.799,247.631c-1.537,0-2.333-0.685-2.739-1.317c-1.726-2.683,1.307-9.15,3.862-13.678   c-2.526,1.493-6.007,3.112-10.003,3.778c-2.124,0.35-3.068-0.413-3.485-1.116c-1.345-2.279,1.611-7.414,4.235-11.215   c-2.702,1.162-6.078,2.08-8.317,0.767c-1.632-0.959-2.373-2.848-2.199-5.617c0.687-10.985,16.954-18.916,17.645-19.249   c0.534-0.251,1.173-0.031,1.43,0.503s0.031,1.175-0.501,1.433c-0.159,0.075-15.825,7.716-16.434,17.448   c-0.119,1.895,0.266,3.116,1.146,3.634c2.172,1.269,7.477-1.144,10.31-2.963c0.438-0.279,1.02-0.205,1.374,0.182   c0.352,0.39,0.373,0.974,0.046,1.386c-4.371,5.523-7.59,11.412-6.888,12.602c0.057,0.096,0.4,0.241,1.286,0.092   c7.473-1.246,13.169-6.247,13.226-6.298c0.4-0.356,1.001-0.362,1.414-0.01c0.406,0.352,0.49,0.951,0.195,1.401   c-4.046,6.178-7.697,13.961-6.539,15.762c0.249,0.39,0.984,0.367,1.546,0.283c9.852-1.516,16.468-6.53,20.82-15.781   c0.251-0.534,0.896-0.764,1.426-0.513c0.536,0.251,0.767,0.89,0.513,1.426c-4.683,9.954-11.812,15.354-22.432,16.987   C363.396,247.608,363.084,247.631,362.799,247.631z"/>
	<path style="fill:#251426;" d="M376.632,332.844c-4.22,0-8.601-4.298-13.027-12.78c-7.205-13.81,3.774-21.448,12.595-27.585   c7.058-4.911,11.272-8.137,9.033-12.39c-1.715-3.257-3.981-3.967-5.973-3.741c0.036,2.256-0.266,4.212-1.035,5.667   c-0.854,1.621-2.197,2.593-3.992,2.892c-3.305,0.555-4.208-0.867-4.455-1.757c-0.71-2.549,2.645-6.656,6.771-8.296   c0.17-0.067,0.337-0.128,0.503-0.186c-0.804-9.085-6.472-23.134-9.209-29.032c-0.249-0.538-0.017-1.175,0.519-1.424   c0.542-0.253,1.177-0.017,1.424,0.519c0.423,0.909,8.256,17.917,9.349,29.465c3.296-0.339,6.132,1.355,7.994,4.894   c3.236,6.145-3.051,10.518-9.705,15.146c-8.555,5.952-18.25,12.698-11.919,24.833c5.087,9.749,8.911,11.718,11.257,11.626   c3.428-0.111,5.468-4.635,5.487-4.681c0.241-0.54,0.875-0.79,1.414-0.549c0.54,0.237,0.787,0.869,0.551,1.409   c-0.103,0.237-2.591,5.801-7.372,5.965C376.773,332.844,376.701,332.844,376.632,332.844z M377.148,276.929   c-3.324,1.407-5.59,4.616-5.303,5.646c0.073,0.264,0.79,0.421,2.038,0.218c1.129-0.188,1.908-0.754,2.448-1.776   C376.875,279.981,377.127,278.582,377.148,276.929z"/>
	<path style="fill:#251426;" d="M407.214,319.616c-0.836,0-1.703-0.105-2.599-0.316c-0.576-0.134-0.934-0.712-0.798-1.288   c0.134-0.574,0.708-0.945,1.288-0.798c2.932,0.687,5.368-0.002,7.251-2.055c3.822-4.168,4.767-13.67,2.151-21.632   c-1.204-3.667-4.172-10.003-10.509-11.247c-9.971-1.954-12.294-9.626-12.79-14.026c-0.126-1.112-0.161-2.26-0.119-3.395   c-4.725,0.685-8.893-0.188-12.388-2.612c-7.563-5.246-9.238-15.8-9.305-16.246c-0.09-0.586,0.314-1.131,0.898-1.221   c0.578-0.084,1.131,0.314,1.221,0.898c0.017,0.101,1.617,10.103,8.417,14.811c3.144,2.178,6.964,2.913,11.335,2.17   c0.471-3.738,1.749-6.941,3.328-7.642c1.766-0.783,5.718,0.052,7.554,1.596c1.292,1.089,1.244,2.214,1.1,2.788   c-0.327,1.303-1.73,3.232-9.994,5.049c-0.084,1.359-0.046,2.819,0.184,4.308c0.668,4.358,3.116,9.877,10.972,11.418   c5.414,1.06,9.835,5.682,12.135,12.679c2.884,8.775,1.763,18.987-2.607,23.752C412.113,318.598,409.819,319.616,407.214,319.616z    M396.325,256.851c-0.367,0-0.668,0.042-0.861,0.128c-0.526,0.287-1.472,2.346-1.954,5.215c7.033-1.636,7.613-3.139,7.657-3.313   c0.054-0.214-0.262-0.509-0.4-0.624C399.699,257.357,397.611,256.851,396.325,256.851z"/>
	<path style="fill:#83A49F;" d="M321.613,127.438c0,0-101.719-62.095-74.3-104.416c28.445-43.905,62.522,14.42,62.522,14.42   s17.694-62.257,64.879-26.214C408.148,36.77,321.613,127.438,321.613,127.438z"/>
	<path style="fill:#E23961;" d="M354.398,142.297c0,0-63.462-73.539-24.248-85.85s39.976,14.418,39.976,14.418   s33.325-33.476,45.219-1.311C427.238,101.72,354.398,142.297,354.398,142.297z"/>
	<path style="fill:#83A49F;" d="M320.132,121.267c0,0-3.209,21.229-0.494,20.735c2.715-0.494,12.589-3.456,13.823-5.184   C334.695,135.09,322.106,120.526,320.132,121.267z"/>
	<path style="fill:#E23961;" d="M358.639,132.375c0,0-9.627,17.279-7.159,18.76c2.468,1.481,17.032,3.703,16.045-4.196   C366.539,139.039,358.639,132.375,358.639,132.375z"/>
	<path style="fill:#251426;" d="M369.472,45.069c-0.132,0-0.268-0.025-0.398-0.077c-0.551-0.22-0.817-0.844-0.597-1.393   c4.725-11.818,4.911-20.799,0.551-26.694c-6.719-9.081-22.244-7.896-22.403-7.883c-0.626,0.046-1.108-0.39-1.158-0.978   c-0.05-0.591,0.387-1.108,0.978-1.158c0.685-0.057,16.864-1.308,24.303,8.738c4.838,6.532,4.744,16.212-0.281,28.772   C370.299,44.813,369.897,45.069,369.472,45.069z"/>
	<path style="fill:#251426;" d="M403.549,92.908c-0.117,0-0.235-0.019-0.35-0.059c-0.561-0.195-0.857-0.804-0.664-1.363   c3.927-11.343,4.04-19.467,0.331-23.494c-4.36-4.739-12.729-2.664-12.813-2.641c-0.57,0.153-1.158-0.201-1.305-0.773   c-0.147-0.574,0.199-1.158,0.773-1.305c0.392-0.103,9.703-2.402,14.924,3.265c4.337,4.712,4.377,13.341,0.117,25.647   C404.41,92.629,403.993,92.908,403.549,92.908z"/>
	<g>
		<path style="fill:#251426;" d="M361.136,274.196c-0.367,0-0.723-0.188-0.924-0.528c-0.302-0.509-0.132-1.167,0.379-1.468    c1.74-1.028,2.783-3.818,3.037-4.807c0.149-0.572,0.727-0.917,1.307-0.771c0.574,0.149,0.917,0.733,0.771,1.307    c-0.046,0.18-1.171,4.432-4.025,6.118C361.511,274.148,361.323,274.196,361.136,274.196z"/>
		<path style="fill:#251426;" d="M349.72,271.446c-0.367,0-0.723-0.188-0.924-0.528c-0.302-0.509-0.132-1.167,0.379-1.468    c1.73-1.022,2.779-3.816,3.037-4.804c0.149-0.572,0.725-0.917,1.307-0.769c0.574,0.149,0.917,0.731,0.771,1.305    c-0.046,0.18-1.171,4.43-4.025,6.115C350.095,271.398,349.906,271.446,349.72,271.446z"/>
		<path style="fill:#251426;" d="M359.98,262.526c-0.367,0-0.725-0.188-0.924-0.528c-0.302-0.511-0.132-1.167,0.379-1.468    c1.73-1.02,2.779-3.814,3.037-4.804c0.149-0.572,0.731-0.915,1.307-0.769c0.574,0.149,0.917,0.731,0.771,1.305    c-0.046,0.18-1.171,4.434-4.025,6.115C360.353,262.478,360.167,262.526,359.98,262.526z"/>
		<path style="fill:#251426;" d="M353.548,285.378c-0.367,0-0.723-0.189-0.924-0.528c-0.302-0.509-0.132-1.167,0.379-1.468    c1.73-1.022,2.779-3.816,3.037-4.804c0.149-0.574,0.727-0.919,1.307-0.769c0.574,0.149,0.917,0.731,0.771,1.305    c-0.046,0.18-1.171,4.43-4.025,6.115C353.923,285.329,353.735,285.378,353.548,285.378z"/>
		<path style="fill:#251426;" d="M342.559,295.085c-0.442,0-0.857-0.274-1.012-0.716c-0.197-0.557,0.096-1.171,0.656-1.368    c1.895-0.668,3.46-3.209,3.904-4.132c0.258-0.538,0.905-0.76,1.43-0.503c0.534,0.255,0.76,0.894,0.505,1.426    c-0.08,0.17-2,4.128-5.127,5.232C342.798,295.066,342.677,295.085,342.559,295.085z"/>
		<path style="fill:#251426;" d="M336.161,278.894c-0.442,0-0.854-0.274-1.012-0.714c-0.197-0.559,0.096-1.171,0.653-1.37    c1.906-0.674,3.466-3.211,3.906-4.132c0.256-0.534,0.901-0.758,1.43-0.505c0.534,0.256,0.76,0.896,0.505,1.43    c-0.08,0.168-2.002,4.124-5.125,5.23C336.4,278.875,336.281,278.894,336.161,278.894z"/>
		<path style="fill:#251426;" d="M333.508,290.97c-0.442,0-0.854-0.274-1.012-0.714c-0.197-0.559,0.096-1.171,0.653-1.37    c1.906-0.674,3.466-3.211,3.906-4.132c0.256-0.536,0.898-0.758,1.43-0.505c0.534,0.255,0.76,0.896,0.505,1.43    c-0.08,0.168-2.002,4.124-5.125,5.23C333.746,290.951,333.627,290.97,333.508,290.97z"/>
		<path style="fill:#251426;" d="M345.368,283.401c-0.367,0-0.723-0.188-0.924-0.528c-0.302-0.509-0.132-1.167,0.379-1.468    c1.74-1.028,2.783-3.818,3.037-4.807c0.149-0.574,0.729-0.919,1.307-0.771c0.574,0.149,0.917,0.733,0.771,1.307    c-0.046,0.18-1.171,4.432-4.025,6.118C345.743,283.352,345.554,283.401,345.368,283.401z"/>
	</g>
</g>















</svg>
