<?xml version="1.0" encoding="UTF-8"?>
<!-- Generator: Adobe Illustrator 25.2.0, SVG Export Plug-In . SVG Version: 6.00 Build 0)  -->
<svg xmlns="http://www.w3.org/2000/svg" xmlns:xlink="http://www.w3.org/1999/xlink" version="1.1" id="Capa_1" x="0px" y="0px" viewBox="0 0 512 512" style="enable-background:new 0 0 512 512;" xml:space="preserve" width="512" height="512">
<g>
	<path style="fill:#F4BBB1;" d="M380.962,395.717c0,0-6.363,91.629-11.454,95.447c-5.091,3.818-33.693,0.704-33.693,0.704   s-18.485-89.788-13.395-103.787C327.511,374.082,380.962,395.717,380.962,395.717z"/>
	<path style="fill:#F4BBB1;" d="M219.644,414.153c0,0-49.85,77.145-56.152,78.028s-30.244-14.85-30.244-14.85   s27.612-88.356,38.834-98.152C183.303,369.383,219.644,414.153,219.644,414.153z"/>
	<g>
		<path style="fill:#FFFFFF;" d="M315.209,133.556c0,0,3.389-47.9,64.904-27.998c43.269,13.999,28.414,67.825,9.369,79.728    c-19.046,11.903,6.574-33.954,42.284-7.767s26.01,88.645-12.081,95.787s-13.274-40.71,22.437,6.904s2.502,118.046-37.97,106.142    c-40.472-11.904-43.863-37.584-22.437-23.3c21.426,14.284,31.487,69.63-32.792,86.295s-79.482-44.457-50.914-39.696    c28.568,4.761,6.223,52.848-50.914,55.229c-57.137,2.381-95.015-52.401-66.447-59.543c28.568-7.142,18.122,36.244-31.929,27.614    c-68.198-11.758-71.091-112.422-35.381-105.28s-27.731,43.357-47.462,2.589c-31.355-64.785,9.817-122.904,45.528-106.239    s-30.949,38.091-35.71-16.665c-4.761-54.756,40.948-93.22,78.203-62.629c25.141,20.644,10.386,31.751,0.863,19.848    c-9.523-11.903-6.585-81.923,53.822-77.608c46.107,3.293,47.158,31.713,28.112,34.094s-16.737-52.495,32.838-48.821    C358.479,78.833,322.845,165.371,315.209,133.556z"/>
		<path style="fill:#251626;" d="M243.473,466.186c-31.036,0-56.097-16.306-67.496-32.714c-4.453,1.227-9.345,1.849-14.56,1.849    c-0.002,0-0.005,0-0.005,0c-4.102,0-8.442-0.39-12.903-1.159c-44.705-7.707-62.695-54.123-58.4-84.1    c-8.205-1.315-18.821-5.799-25.339-19.266c-21.772-44.986-9.655-88.194,14.747-104.653c-2.731-5.265-4.429-11.542-5.049-18.68    c-1.981-22.796,4.559-44.244,17.946-58.845c9.427-10.283,21.333-15.947,33.525-15.947c8.2,0,16.167,2.492,23.711,7.411    c1.998-25.648,17.075-54.537,53.681-54.537c1.737,0,3.533,0.065,5.337,0.195c7.681,0.548,14.524,1.818,20.365,3.777    c4.22-7.384,14.214-18.684,35.826-18.684c1.549,0,3.154,0.06,4.765,0.18c41.525,3.078,54.399,23.24,58.367,36.236    c11.812-9.221,29.711-10.238,52.501-2.862c12.516,4.049,21.143,11.538,25.639,22.259c5.966,14.22,3.019,30.508-2.042,41.853    c9.365-1.561,19.056,1.174,28.404,8.027c15.117,11.087,23.591,29.88,22.666,50.271c-0.812,17.914-8.932,33.863-21.316,42.077    c3.106,2.977,6.216,6.535,9.264,10.597c21.386,28.517,17.327,61.933,7.352,81.885c-8.627,17.255-22.546,27.557-37.235,27.557    c-3.127,0.001-6.298-0.465-9.418-1.383c-2.09-0.614-4.136-1.281-6.115-1.995c3.086,11.954,1.571,24.638-4.275,35.158    c-7.808,14.054-23.086,24.374-44.186,29.843c-7.486,1.942-14.694,2.927-21.422,2.927c-0.002,0-0.005,0-0.007,0    c-10.76,0-20.531-2.568-28.337-7.437c-12.449,11.908-31.447,19.213-52.319,20.083c-1.227,0.052-2.455,0.077-3.663,0.077    C243.48,466.186,243.475,466.186,243.473,466.186z M178.451,432.712c11.229,15.656,35.283,31.013,65.022,31.015    c0.002,0,0.005,0,0.01,0c1.174,0,2.368-0.025,3.562-0.074c20.055-0.836,38.295-7.749,50.321-19.025    c-11.951-8.488-16.051-20.847-13.774-28.462c1.799-6.008,7.282-8.954,14.62-7.727c6.569,1.095,11.094,4.549,12.739,9.726    c2.361,7.424-1.347,17.311-9.699,26.072c7.333,4.431,16.476,6.767,26.55,6.767c0.002,0,0.005,0,0.007,0    c6.521,0,13.52-0.958,20.807-2.847c20.43-5.297,35.179-15.206,42.651-28.656c5.817-10.468,7.107-23.206,3.572-35.041    c-20.166-7.976-28.217-18.906-27.292-23.836c0.353-1.885,1.9-3.011,4.138-3.011c2.676,0,6.379,1.528,10.712,4.417    c6.298,4.198,11.538,11.672,14.435,20.566c2.447,0.933,5.025,1.799,7.667,2.577c2.897,0.851,5.832,1.284,8.726,1.283    c13.736,0,26.836-9.795,35.035-26.198c9.663-19.324,13.594-51.691-7.121-79.31c-3.118-4.159-6.298-7.767-9.463-10.739    c-3.648,2.079-7.602,3.527-11.764,4.306c-2.704,0.508-5.226,0.765-7.496,0.765c-8.051,0-11.07-3.145-12.153-5.02    c-1.273-2.206-1.223-4.826,0.142-7.186c1.974-3.423,6.105-5.467,11.048-5.467c4.475,0,11.625,1.676,20.526,9.548    c12.023-7.677,19.938-23.083,20.725-40.469c0.889-19.568-7.21-37.578-21.664-48.176c-9.386-6.885-19.102-9.354-28.272-7.243    c-3.487,6.804-7.96,12.141-12.634,15.061c-2.335,1.46-4.222,2.201-5.608,2.201h-0.002c-1.504,0-2.546-0.877-2.721-2.288    c-0.509-4.118,7.083-13.803,19.272-17.087c5.298-10.883,8.75-27.352,2.791-41.557c-4.208-10.03-12.326-17.052-24.131-20.871    c-22.464-7.269-39.916-6.182-51.039,3.115c2.863,12.025,0.235,23.88-3.78,29.06c-1.465,1.888-3.098,2.886-4.727,2.886    c-1.945,0-4.597-1.379-6.173-7.945c-0.029-0.122-0.038-0.249-0.031-0.375c0.043-0.599,1.155-14.554,11.954-24.477    c-3.403-12.284-15.292-32.471-56.496-35.525c-1.552-0.115-3.094-0.173-4.583-0.173c-20.019,0-29.41,10.177-33.474,17.07    c14.377,5.539,18.809,14.255,18.105,20.699c-0.646,5.936-5.611,10.34-12.643,11.219c-4.124,0.524-7.597-1.329-9.838-5.063    c-3.792-6.313-3.401-16.619,0.865-25.494c-5.56-1.822-12.072-3.008-19.378-3.531c-1.749-0.125-3.485-0.187-5.164-0.187    c-35.597,0-49.862,28.771-51.327,53.701c0.896,0.652,1.787,1.341,2.673,2.07c10.76,8.834,15.974,17.483,13.952,23.136    c-0.845,2.363-2.933,3.776-5.579,3.776c-3.163,0-6.533-1.948-9.252-5.344c-3.038-3.8-4.715-12.547-4.316-22.413    c-7.489-5.176-15.405-7.8-23.543-7.8c-11.495,0-22.757,5.38-31.714,15.149c-12.922,14.094-19.229,34.858-17.308,56.969    c0.586,6.73,2.159,12.634,4.684,17.572c9.744-5.781,20.519-6.49,30.323-1.914c10.945,5.109,11.613,10.228,11.036,12.826    c-1.045,4.709-7.422,7.998-15.506,7.998c-10.94,0-20.841-5.744-26.732-15.438c-29.273,19.791-30.03,67.773-13.738,101.432    c6.062,12.524,15.917,16.691,23.528,17.91c2.897-15.246,11.723-23.451,23.067-21.17c10.734,2.146,11.915,6.738,11.663,9.284    c-0.74,7.468-15.038,14.801-28.867,14.802c-0.002,0-0.005,0-0.007,0c-1.283,0-2.563-0.06-3.819-0.18    c-4.184,28.989,13.176,73.918,56.378,81.366c4.323,0.745,8.522,1.123,12.485,1.123c0.002,0,0.002,0,0.005,0    c4.693,0,9.1-0.524,13.136-1.556c-4.578-7.372-6.005-14.203-4.016-19.362c1.492-3.871,4.885-6.567,9.814-7.799    c9.398-2.351,16.138,0.594,17.079,7.075C198.465,418.329,192.149,428.071,178.451,432.712z M294.966,410.617    c-4.609,0-7.813,2.222-9.019,6.254c-2.054,6.861,1.907,18.176,13.203,26.004c7.837-8.085,11.541-17.411,9.456-23.964    c-1.371-4.315-5.106-7.097-10.799-8.046C296.817,410.701,295.861,410.617,294.966,410.617z M186.528,405.77    c-1.684,0-3.562,0.256-5.582,0.76c-4.177,1.045-6.908,3.163-8.116,6.298c-1.729,4.488-0.204,10.928,4.182,17.77    c12.429-3.999,18.902-12.72,17.985-19.024C194.461,407.885,191.375,405.77,186.528,405.77z M371.684,360.073    c-1.535,0-1.672,0.73-1.722,1.005c-0.663,3.539,6.785,13.08,23.836,20.299c-2.82-7.496-7.386-13.714-12.766-17.3    C375.808,360.593,372.933,360.073,371.684,360.073z M92.958,347.941c1.124,0.102,2.265,0.153,3.411,0.153c0.002,0,0.005,0,0.007,0    c13.32-0.001,25.87-7.039,26.42-12.584c0.293-2.967-3.151-5.322-9.696-6.631C103.195,326.893,95.615,334.204,92.958,347.941z     M411.451,260.067c-4.772,0-7.736,2.188-8.918,4.237c-0.913,1.579-0.963,3.301-0.142,4.727c1.982,3.431,8.488,4.674,17.067,3.068    c3.62-0.68,7.071-1.899,10.282-3.629C421.71,261.561,415.4,260.067,411.451,260.067z M82.799,226.973    c7.986,13.248,20.833,14.299,24.657,14.299c6.703,0,12.338-2.61,13.104-6.071c0.711-3.196-2.817-6.864-9.677-10.065    C101.794,220.894,91.863,221.573,82.799,226.973z M384.28,186.054c0.106-0.004,1.076,0.359,4.551-1.81    c3.819-2.387,7.527-6.594,10.611-11.998c-7.83,2.817-13.287,8.52-14.817,12.076c-0.471,1.098-0.413,1.636-0.355,1.737    C384.268,186.055,384.272,186.054,384.28,186.054z M151.892,144.698c-0.168,9.663,1.734,16.492,3.829,19.109    c2.214,2.769,4.955,4.422,7.33,4.422c1.609,0,2.769-0.763,3.264-2.145c1.22-3.412-1.504-10.803-13.198-20.407    C152.708,145.343,152.3,145.016,151.892,144.698z M316.455,133.464c0.91,3.677,2.301,5.865,3.732,5.865    c0.829,0,1.816-0.687,2.784-1.933c3.516-4.537,5.829-14.838,3.632-25.63C318.061,120.362,316.613,131.887,316.455,133.464z     M230.208,92.546c-4.482,9.108-3.989,18.579-1.093,23.406c1.194,1.985,3.581,4.377,7.426,3.889    c5.952-0.743,9.977-4.21,10.503-9.045C247.626,105.479,243.531,97.595,230.208,92.546z"/>
	</g>
	<path style="fill:#EE919B;" d="M270.597,373.792c0,0-130.788-77.582-80.143-127.536c35.084-34.605,65.496,20.929,65.496,20.929   s40.404-90.863,70.754-21.626C347.247,292.423,270.597,373.792,270.597,373.792z"/>
	<g>
		<path style="fill:#F4BBB1;" d="M236.444,80.384c0,0-93.855,102.722-47.301,121.44c114.636,46.093,113.855-94.414,113.855-94.414    s83.169-0.617,79.283-36.644c-4.661-43.21-89.944,24.223-89.944,24.223l-41.882-14.456c0,0-11.101-119.741-36.343-67.207    C197.708,47.466,236.444,80.384,236.444,80.384z"/>
		<g>
			<path style="fill:#FFFFFF;" d="M299.641,95.931c0,0,14.67-21.953-7.244-27.137s-29.698,11.96-23.804,15.161     c5.894,3.201-4.046-53.022-31.173-33.712s-26.549,30.615-11.743,41.861c14.806,11.246,30.022-15.609,21.075-13.751     s-25.799,19.115,0.425,38.852s39.824-13.177,31.174-12.99c-8.65,0.187-5.093,40.619,28.325,19.24c0,0,10.168-8.972,5.981-20.935     C310.643,96.761,299.641,95.931,299.641,95.931z"/>
			<path style="fill:#251626;" d="M289.477,130.919h-0.002c-6.759,0-12.031-3.716-14.694-10.267     c-2.608,2.074-6.461,4.087-11.582,4.087c-5.344,0-10.984-2.205-16.762-6.553c-11.589-8.722-14.404-16.687-14.538-22.171     c-2.426-0.276-4.763-1.26-6.965-2.933c-7.333-5.57-10.707-10.791-10.621-16.433c0.122-7.91,7.239-16.619,22.395-27.408     c3.985-2.838,7.88-4.275,11.577-4.275c12.386,0,19.359,15.699,21.921,26.45c2.618-2.263,7.172-4.82,14.372-4.82     c2.565,0,5.291,0.337,8.104,1.003c6.286,1.487,10.349,4.466,12.076,8.857c2.685,6.831-1.143,15.023-3.089,18.493     c3.451,0.552,10.434,2.263,12.148,7.166c4.41,12.598-6.218,22.168-6.326,22.262C300.67,128.756,294.661,130.919,289.477,130.919z      M276.741,118.879c1.211,3.357,4.556,9.58,12.734,9.581h0.002c4.705,0.001,10.268-2.032,16.536-6.043     c0.238-0.231,9.338-8.475,5.483-19.492c-1.431-4.089-9.11-5.551-11.949-5.768c-0.435-0.034-0.819-0.295-1.011-0.688     c-0.192-0.393-0.161-0.857,0.082-1.22c0.07-0.103,6.816-10.365,3.848-17.9c-1.417-3.593-4.9-6.068-10.352-7.359     c-2.628-0.621-5.161-0.936-7.537-0.936c-7.554,0-11.769,3.071-13.777,5.186c0.526,2.883,1.29,8.469-0.255,10.341     c-0.622,0.76-1.621,0.949-2.539,0.454c-1.29-0.7-2.157-1.947-2.44-3.511c-0.444-2.452,0.521-5.402,2.589-7.991     c-1.95-9.356-8.416-26.108-19.873-26.108c-3.175,0-6.591,1.285-10.15,3.819C223.867,61.4,216.88,69.722,216.772,76.686     c-0.074,4.794,2.993,9.382,9.651,14.439c1.789,1.359,3.665,2.172,5.594,2.426c1.071-8.972,8.916-15.246,14.488-16.403     c1.775-0.364,2.921,0.295,3.406,0.865c0.492,0.575,0.742,1.343,0.742,2.282c0,5.009-7.434,15.019-16.294,15.758     c0.197,6.673,4.859,13.622,13.558,20.169c5.342,4.021,10.484,6.059,15.283,6.059c4.9,0,8.474-2.136,10.734-4.123     c-1.403-5.068-1.018-10.415,0.994-13.223c0.896-1.247,2.07-1.921,3.399-1.95h0.002c1.662,0,2.889,0.829,3.466,2.273     C283.144,108.629,280.891,114.605,276.741,118.879z M278.424,105.442c-0.243,0.005-0.848,0.018-1.499,0.926     c-1.199,1.672-1.825,5.456-0.963,9.706c3.178-3.81,4.258-8.131,3.55-9.901C279.303,105.653,278.989,105.442,278.424,105.442z      M247.575,79.489c-0.166,0-0.358,0.023-0.572,0.067c-4.643,0.963-11.435,6.416-12.506,13.994     c7.655-0.952,13.695-9.801,13.695-13.257c0-0.471-0.115-0.642-0.151-0.683C247.95,79.504,247.712,79.489,247.575,79.489z      M268.762,77.119c-0.697,1.403-0.985,2.804-0.773,3.965c0.12,0.662,0.394,1.177,0.819,1.535     C269.009,81.833,269.127,80.028,268.762,77.119z"/>
		</g>
		<path style="fill:#251626;" d="M187.525,193.978c-0.091,0-0.185-0.011-0.279-0.032c-0.629-0.147-1.038-0.754-0.937-1.391    c0.387-2.421,0.891-4.648,1.516-6.676c0.781-4.679,1.194-10.831-0.922-14.757c-0.946-1.755-2.291-2.864-4.117-3.394    c-0.651-0.189-1.028-0.871-0.838-1.523c0.19-0.652,0.862-1.03,1.525-0.838c2.455,0.712,4.338,2.257,5.596,4.591    c1.355,2.514,1.83,5.702,1.845,8.902c1.458-2.35,3.199-4.207,5.217-5.558c4.979-3.334,9.759-2.251,9.958-2.201    c0.66,0.156,1.069,0.819,0.913,1.48c-0.156,0.659-0.807,1.082-1.475,0.914l0,0c-0.163-0.036-4.006-0.869-8.077,1.884    c-3.175,2.147-5.584,5.827-7.201,10.978c-0.622,3.716-1.468,6.492-1.549,6.755C188.539,193.635,188.053,193.978,187.525,193.978z"/>
		<path style="fill:#251626;" d="M257.632,199.744c-2.491,0-6.838-2.565-15.886-13.654c-0.428-0.526-0.351-1.301,0.175-1.729    c0.524-0.431,1.304-0.353,1.732,0.175c11,13.485,13.938,12.894,14.418,12.631c2.114-1.144,0.452-11.58-2.428-20.608    c-0.207-0.647,0.151-1.339,0.797-1.546c0.658-0.211,1.338,0.154,1.547,0.799c1.542,4.84,6.197,20.841,1.256,23.517    C258.797,199.571,258.278,199.744,257.632,199.744z"/>
		<path style="fill:#251626;" d="M225.918,144.984c-0.694,0-1.302-0.279-1.717-0.785c-2.652-3.235,2.712-17.848,5.14-23.981    c0.252-0.632,0.973-0.94,1.595-0.691c0.632,0.25,0.942,0.964,0.692,1.596c-4.088,10.328-6.619,20.181-5.524,21.517    c0.002,0,0.007,0,0.01,0c1.501,0,8.661-7,15.473-15.43c0.428-0.53,1.201-0.61,1.729-0.185c0.528,0.428,0.61,1.201,0.183,1.729    c-3.072,3.804-13.417,16.216-17.572,16.23C225.923,144.984,225.921,144.984,225.918,144.984z"/>
		<path style="fill:#251626;" d="M252.667,154.475c-0.694,0-1.302-0.279-1.717-0.785c-2.652-3.235,2.714-17.849,5.142-23.982    c0.252-0.632,0.968-0.938,1.597-0.691c0.629,0.25,0.939,0.964,0.689,1.596c-4.09,10.328-6.622,20.182-5.527,21.518    c0.002,0,0.007,0,0.01,0c1.501,0.001,8.663-7,15.475-15.432c0.428-0.53,1.201-0.61,1.729-0.185    c0.528,0.428,0.61,1.201,0.183,1.729c-3.072,3.804-13.419,16.217-17.574,16.232C252.672,154.475,252.67,154.475,252.667,154.475z"/>
	</g>
	<path style="fill:#F4BBB1;" d="M333.662,229.111c0,0-29.875,78.771-43.763,87.631c0,0,20.937,32.979,31.2,30.785   c10.263-2.194,50.813-45.792,54.669-83.86C379.625,225.598,333.662,229.111,333.662,229.111z"/>
	<path style="fill:#F4BBB1;" d="M166.168,261.156c0,0,43.744,53.163,59.957,56.082c0,0-9.187,38.854-19.514,40.724   c-10.326,1.87-48.229-15.094-66.261-48.843S166.168,261.156,166.168,261.156z"/>
	<g>
		<path style="fill:#FFFFFF;" d="M150.919,234.235c0,0,31.158,5.304,15.911,25.192c-9.198,11.997-27.181,6.629-21.214,2.652    s19.888,21.877,1.989,23.203s-14.585-13.259-8.618-7.292s-2.652,38.451-22.54,25.855"/>
		<path style="fill:#251626;" d="M125.123,307.975c-2.69,0-5.8-0.853-9.336-3.092c-0.574-0.363-0.745-1.123-0.382-1.697    c0.367-0.575,1.129-0.741,1.698-0.381c8.392,5.318,13.911,1.741,17.065-2.198c3.413-4.267,5.13-10.126,5.397-14.774    c-3.646-1.081-5.63-3.163-6.302-5.252c-0.629-1.96-0.07-3.94,1.364-4.816c0.56-0.346,2.611-1.267,5.229,1.353    c1.417,1.417,2.133,3.862,2.231,6.768c1.513,0.244,3.317,0.319,5.426,0.167c4.042-0.299,6.516-1.941,7.357-4.879    c0.982-3.441-0.324-7.813-2.299-11.165c-1.705,0.078-3.358-0.092-4.813-0.449c-2.608-0.639-4.256-1.871-4.523-3.383    c-0.118-0.667-0.053-1.957,1.698-3.124c0.886-0.594,2.774-1.292,5.467,0.671c1.213,0.886,2.395,2.174,3.439,3.701    c3.862-0.437,8.514-2.184,12.016-6.749c3.62-4.722,4.753-8.904,3.37-12.427c-3.182-8.107-18.36-10.779-18.513-10.806    c-0.67-0.113-1.119-0.748-1.006-1.418c0.115-0.669,0.761-1.113,1.419-1.005c0.68,0.115,16.705,2.945,20.389,12.331    c1.722,4.381,0.473,9.368-3.708,14.822c-3.411,4.449-8.118,6.782-12.593,7.555c1.996,3.839,3.06,8.489,2.02,12.121    c-0.79,2.774-3.089,6.179-9.538,6.657c-2.147,0.16-4.028,0.092-5.666-0.142c-0.396,5.308-2.52,11.502-5.942,15.779    C134.041,304.703,130.391,307.975,125.123,307.975z M136.256,277.781c-0.142,0-0.259,0.031-0.346,0.085    c-0.379,0.232-0.615,0.999-0.305,1.965c0.406,1.259,1.655,2.574,3.951,3.414c-0.147-2.008-0.636-3.583-1.439-4.386    C137.315,278.057,136.674,277.781,136.256,277.781z M147.011,262.895c-0.252,0-0.495,0.061-0.713,0.207    c-0.55,0.367-0.646,0.62-0.639,0.651c0.036,0.214,0.742,0.945,2.683,1.421c0.682,0.167,1.525,0.295,2.486,0.347    c-0.62-0.739-1.259-1.356-1.878-1.807C148.39,263.304,147.664,262.895,147.011,262.895z"/>
	</g>
	<g>
		<path style="fill:#FFFFFF;" d="M334.748,211.844c0,0-11.07,11.07,0.738,20.663c11.808,9.594,17.711-10.332,14.022-8.856    c-3.69,1.476-14.022,9.594,3.69,21.401c17.711,11.808,27.305-8.856,21.401-11.808s-18.449,31.733,7.38,29.519    c25.829-2.214,19.187-22.877,17.711-33.947"/>
		<path style="fill:#251626;" d="M379.692,264.095c-8.089,0-11.644-3.898-13.205-7.339c-0.949-2.091-1.362-4.494-1.381-6.963    c-3.25,0.348-7.51-0.334-12.59-3.718c-4.921-3.281-8.142-6.562-9.634-9.802c-2.193,0.341-4.96-0.203-8.171-2.813    c-3.706-3.011-5.685-6.489-5.884-10.337c-0.343-6.672,4.83-11.929,5.051-12.15c0.48-0.477,1.256-0.48,1.737-0.001    c0.48,0.479,0.483,1.257,0.005,1.739c-0.048,0.047-4.631,4.729-4.335,10.3c0.166,3.118,1.842,5.991,4.979,8.54    c2.07,1.682,4.028,2.471,5.829,2.332c-0.178-0.898-0.221-1.793-0.127-2.682c0.504-4.836,4.856-7.801,7.088-8.693    c0.941-0.376,1.881-0.091,2.383,0.725c1.237,2.021-0.591,7.782-4.155,10.904c-0.531,0.465-1.211,0.962-2.025,1.369    c1.355,2.728,4.263,5.614,8.625,8.522c4.645,3.094,8.44,3.711,11.334,3.294c0.538-5.794,2.985-11.506,5.591-14.016    c1.979-1.909,3.567-1.548,4.342-1.162c1.52,0.761,2.38,2.341,2.421,4.447c0.067,3.636-2.512,8.952-7.424,11.639    c-0.697,0.381-1.571,0.775-2.616,1.082c-0.029,2.265,0.317,4.488,1.198,6.427c2.006,4.421,6.42,6.365,13.145,5.798    c7.27-0.623,12.422-2.831,15.312-6.559c4.614-5.951,3.11-14.891,1.905-22.075c-0.235-1.397-0.456-2.718-0.617-3.925    c-0.091-0.673,0.382-1.291,1.054-1.381c0.653-0.085,1.29,0.382,1.383,1.057c0.156,1.182,0.375,2.473,0.603,3.84    c1.22,7.253,2.889,17.187-2.383,23.991c-3.331,4.294-9.064,6.819-17.046,7.502C381.246,264.06,380.449,264.095,379.692,264.095z     M373.839,234.298c-0.476,0-1.119,0.58-1.328,0.781c-1.969,1.897-4.131,6.611-4.784,11.577c0.444-0.177,0.857-0.373,1.237-0.581    c3.917-2.144,6.202-6.481,6.146-9.437c-0.017-0.812-0.211-1.867-1.062-2.293C373.983,234.312,373.913,234.298,373.839,234.298z     M349.388,225.056c-1.967,0.998-4.66,3.34-4.979,6.401c-0.058,0.552-0.038,1.116,0.058,1.688c0.24-0.138,0.478-0.294,0.711-0.47    C347.931,230.622,349.328,226.68,349.388,225.056z"/>
	</g>
	<path style="fill:#251626;" d="M297.999,356.683c-0.262,0-0.514-0.014-0.759-0.046c-1.057-0.132-1.859-0.709-2.263-1.625   c-1.797-4.082,6.033-16.73,10.621-23.577c-5.906,2.748-16.525,7.143-22.752,6.54c-2.08-0.208-2.961-1.313-3.334-2.202   c-2.118-5.056,7.484-17.382,9.43-19.802c0.428-0.532,1.199-0.611,1.729-0.187c0.528,0.426,0.612,1.2,0.187,1.729   c-4.458,5.543-10.222,14.579-9.076,17.31c0.074,0.179,0.25,0.599,1.309,0.705c8.046,0.781,25.435-8.256,25.608-8.349   c0.507-0.264,1.122-0.148,1.499,0.28c0.372,0.429,0.406,1.057,0.077,1.522c-7.302,10.289-14.178,22.47-13.047,25.041   c0.034,0.077,0.062,0.144,0.315,0.175c5.171,0.624,16.959-8.752,21.093-12.425c0.504-0.453,1.285-0.407,1.737,0.102   c0.452,0.508,0.404,1.285-0.103,1.735C318.72,344.988,305.341,356.682,297.999,356.683z"/>
	<path style="fill:#251626;" d="M228.366,364.91c-8.683,0-22.229-8.145-24.095-9.294c-0.579-0.355-0.759-1.113-0.404-1.692   c0.355-0.576,1.114-0.76,1.691-0.402c8.212,5.05,22.661,11.643,26.485,7.813c4.158-4.156-6.235-17.014-10.203-21.191   c-0.365-0.383-0.442-0.956-0.195-1.423c0.25-0.468,0.773-0.718,1.287-0.636c11.812,1.967,25.375,2.456,26.696-0.186   c0.046-0.092-0.012-0.288-0.038-0.369c-1.362-4.009-18.047-13.375-28.245-18.337c-0.61-0.298-0.865-1.033-0.567-1.644   c0.298-0.611,1.042-0.859,1.643-0.568c2.793,1.359,27.362,13.463,29.497,19.759c0.348,1.024,0.144,1.794-0.089,2.259   c-2.349,4.693-17.673,3.209-25.887,2.038c4.513,5.276,13.131,16.747,7.84,22.038C232.475,364.382,230.578,364.91,228.366,364.91z"/>
	<path style="fill:#251626;" d="M324.542,250.594c-0.411,0-0.812-0.207-1.045-0.581c-8.205-13.235-16.736-19.946-25.356-19.946   c-0.031,0-0.062,0-0.094,0c-12.252,0.068-20.73,13.856-20.814,13.995c-0.351,0.585-1.11,0.764-1.688,0.416   c-0.581-0.351-0.766-1.107-0.416-1.688c0.372-0.616,9.29-15.106,22.904-15.182c0.036,0,0.072,0,0.108,0   c9.528,0,18.761,7.101,27.446,21.108c0.358,0.578,0.18,1.335-0.396,1.693C324.988,250.534,324.765,250.594,324.542,250.594z"/>
	<path style="fill:#251626;" d="M150.304,507.321c-0.452,0-0.881-0.154-1.254-0.456c-2.222-1.801-1.789-11.09-1.22-17.34   c-3.901,3.652-10.859,9.695-14.303,9.333c-0.814-0.08-1.47-0.464-1.9-1.107c-2.556-3.836,3.843-20.163,5.868-25.076   c0.257-0.628,0.975-0.921,1.604-0.669c0.627,0.258,0.927,0.978,0.668,1.606c-3.905,9.49-7.347,20.896-6.093,22.775   c1.316,0.709,8.406-4.507,14.855-10.953c0.37-0.372,0.937-0.465,1.405-0.238c0.471,0.227,0.745,0.728,0.687,1.247   c-0.872,7.637-1.114,16.507-0.154,18.315c2.363-1.293,8.13-10.026,11.62-16.079c0.339-0.587,1.09-0.793,1.681-0.45   c0.588,0.34,0.79,1.092,0.452,1.68c-1.537,2.664-9.401,16.02-13.236,17.299C150.756,507.284,150.527,507.321,150.304,507.321z"/>
	<path style="fill:#251626;" d="M344.947,512c-0.591,0-1.153-0.246-1.628-0.721c-3.699-3.699-9.254-21.789-9.876-23.839   c-0.197-0.65,0.171-1.337,0.821-1.534c0.646-0.199,1.335,0.171,1.532,0.82c1.638,5.409,6.497,20.049,9.261,22.814   c1.431-0.526,4.945-9.85,7.508-20.357c0.113-0.471,0.495-0.83,0.973-0.918c0.461-0.084,0.958,0.113,1.235,0.513   c6.711,9.759,14.166,17.651,15.847,16.912c1.78-0.763,1.993-12.463,0.461-25.039c-0.082-0.674,0.396-1.287,1.071-1.369   c0.656-0.096,1.287,0.396,1.369,1.071c0.934,7.649,2.611,25.65-1.931,27.597c-4.112,1.753-12.578-8.962-17.296-15.57   c-1.84,7.052-5.334,18.579-8.738,19.532C345.353,511.971,345.149,512,344.947,512z"/>
	<path style="fill:#251626;" d="M313.853,95.973c-0.351,0-0.701-0.15-0.944-0.442c-0.435-0.522-0.365-1.298,0.156-1.733   c10.078-8.398,19.145-12.111,26.999-11.048c7.201,0.98,10.549,5.709,10.688,5.91c0.387,0.558,0.247,1.325-0.312,1.711   c-0.55,0.382-1.316,0.249-1.708-0.307l0,0c-0.118-0.166-2.937-4.077-9.067-4.885c-7.126-0.936-15.533,2.598-25.025,10.51   C314.411,95.879,314.132,95.973,313.853,95.973z"/>
	<path style="fill:#251626;" d="M230.114,49.916c-0.221,0-0.444-0.059-0.644-0.183c-0.579-0.355-0.759-1.113-0.404-1.692   c4.304-6.992-5.243-20.639-5.339-20.776c-0.391-0.555-0.262-1.322,0.293-1.715c0.552-0.388,1.321-0.263,1.715,0.293   c0.435,0.614,10.58,15.116,5.426,23.487C230.928,49.709,230.525,49.916,230.114,49.916z"/>
</g>















</svg>
