<?xml version="1.0" encoding="UTF-8"?>
<!-- Generator: Adobe Illustrator 25.2.0, SVG Export Plug-In . SVG Version: 6.00 Build 0)  -->
<svg xmlns="http://www.w3.org/2000/svg" xmlns:xlink="http://www.w3.org/1999/xlink" version="1.1" id="Capa_1" x="0px" y="0px" viewBox="0 0 512 512" style="enable-background:new 0 0 512 512;" xml:space="preserve" width="512" height="512">
<g>
	<path style="fill:#251626;" d="M87.574,411.976c-4.581,0-11.3-2.351-17.887-13.199c-0.329-0.542-0.157-1.248,0.386-1.578   c0.542-0.325,1.248-0.152,1.576,0.386c4.887,8.049,10.467,12.162,16.193,12.092c4.807-0.114,9.687-3.485,12.952-8.871   c-9.223-7.677-11.339-15.389-10.127-20.237c0.706-2.826,2.566-4.736,4.974-5.106c3.063-0.484,6.284,1.607,8.812,5.716   c3.014,4.897,2.719,12.303-0.712,19.045c0.14,0.108,0.28,0.215,0.423,0.321c4.449,3.337,8.881,4.364,13.166,3.037   c12.918-3.978,21.066-27.403,21.146-27.641c0.206-0.598,0.861-0.919,1.457-0.713c0.601,0.204,0.92,0.856,0.715,1.457   c-0.345,1.009-8.619,24.769-22.642,29.091c-5.026,1.547-10.149,0.41-15.218-3.393c-0.061-0.047-0.121-0.092-0.182-0.137   c-3.699,5.987-9.11,9.593-14.709,9.728C87.791,411.974,87.683,411.976,87.574,411.976z M96.491,377.692   c-0.168,0-0.335,0.011-0.5,0.036c-1.465,0.226-2.622,1.497-3.099,3.398c-0.981,3.92,0.9,10.705,9.02,17.619   c2.873-5.915,3.124-12.238,0.585-16.367C100.664,379.402,98.456,377.692,96.491,377.692z"/>
	<path style="fill:#F4BBB1;" d="M253.292,184.745c0,0,194.284,90.23,57.955,219.997c-16.807,15.998-112.456,19.274-151.006,7.311   S51.24,269.82,194.803,186.075C218.053,172.512,253.292,184.745,253.292,184.745z"/>
	<path style="fill:#F4BBB1;" d="M199.012,52.125c-126.505,50.683-73.7,199.545,68.944,157.148   C372.361,178.242,319.211,3.968,199.012,52.125z"/>
	<path style="fill:#F4BBB1;" d="M176.517,69.967c0,0-42.243-38.732-45.476-35.381c-16.492,17.096,5.586,61.888,12.751,71.495   C150.957,115.687,176.517,69.967,176.517,69.967z"/>
	<path style="fill:#F4BBB1;" d="M232.382,57.661c0,0-1.831-65.103,14.465-56.955s36.824,52.736,25.184,66.704   S232.382,57.661,232.382,57.661z"/>
	<path style="fill:#251626;" d="M152.17,90.011c-0.521,0-1.013-0.278-1.466-0.829c-3.188-3.884-12.556-37.657-11.391-41.064   c0.175-0.509,0.589-0.876,1.111-0.984c2.69-0.634,14.12,11.27,23.223,21.289c0.426,0.468,0.391,1.195-0.077,1.621   c-0.468,0.428-1.195,0.397-1.622-0.078c-8.062-8.874-17.322-18.209-20.458-20.197c0.546,6.02,8.304,35.277,10.993,37.978   c0.448,0.108,0.806,0.48,0.871,0.964c0.084,0.628-0.356,1.206-0.985,1.289C152.302,90.007,152.235,90.011,152.17,90.011z"/>
	<path style="fill:#251626;" d="M259.5,47.497c-0.178,0-0.359-0.04-0.527-0.128c-0.563-0.294-0.782-0.986-0.491-1.549   c5.129-9.891-8.533-23.501-12.052-26.419c-0.984,2.77-2.142,12.812-2.77,21.93c-0.045,0.632-0.586,1.134-1.224,1.067   c-0.633-0.045-1.109-0.592-1.067-1.224c1.051-15.244,2.442-23.422,4.134-24.305c0.459-0.238,0.976-0.222,1.423,0.045   c1.8,1.078,20.035,17.543,13.593,29.965C260.316,47.271,259.915,47.497,259.5,47.497z"/>
	<path style="fill:#251626;" d="M204.592,102.146c-4.173,0-11.279-13.563-13.361-17.727c-0.284-0.567-0.054-1.255,0.513-1.54   c0.567-0.287,1.254-0.052,1.54,0.513c4.464,8.927,9.818,16.685,11.306,16.458c-0.007-0.004,0.068-0.083,0.157-0.276   c2.467-5.341,1.22-22.394,1.208-22.566c-0.047-0.632,0.426-1.181,1.058-1.231c0.628-0.036,1.185,0.428,1.231,1.06   c0.055,0.724,1.3,17.821-1.412,23.7c-0.637,1.378-1.658,1.598-2.209,1.607C204.612,102.146,204.602,102.146,204.592,102.146z"/>
	<path style="fill:#251626;" d="M236.19,91.643c-4.173,0-11.28-13.563-13.362-17.727c-0.284-0.567-0.054-1.255,0.513-1.54   c0.566-0.285,1.255-0.052,1.54,0.513c4.46,8.918,9.661,16.658,11.305,16.458c-0.007-0.004,0.068-0.083,0.157-0.276   c2.464-5.339,1.219-22.396,1.207-22.568c-0.047-0.632,0.426-1.181,1.058-1.231c0.628-0.045,1.185,0.428,1.231,1.06   c0.055,0.724,1.301,17.823-1.411,23.703c-0.637,1.378-1.657,1.598-2.209,1.607C236.21,91.643,236.199,91.643,236.19,91.643z"/>
	<path style="fill:#251626;" d="M204.136,195.408c-0.223,0-0.445-0.013-0.668-0.04c-7.796-0.926-11.512-18.411-11.91-20.401   c-0.124-0.621,0.279-1.226,0.9-1.349c0.62-0.128,1.226,0.278,1.35,0.901c0.993,4.953,4.712,17.951,9.93,18.57   c2.135,0.278,5.659-1.603,10.407-11.843c0.264-0.576,0.945-0.825,1.524-0.56c0.575,0.267,0.825,0.95,0.558,1.524   C212.119,191.077,208.155,195.408,204.136,195.408z"/>
	<circle style="fill:#EE919B;" cx="168.239" cy="130.121" r="24.444"/>
	<circle style="fill:#EE919B;" cx="288.52" cy="102.961" r="24.444"/>
	<g>
		<path style="fill:#F9DAC0;" d="M256.453,195.755c0,0-98.598-44.609-66.345-74.936s50.454-2.587,50.454-2.587    s14.943-32.378,34.416-21.356S268.769,201.51,256.453,195.755z"/>
		<path style="fill:#251626;" d="M245.43,171.313c-0.596,0-1.099-0.459-1.143-1.065c-0.765-10.494-4.835-38.417-14.356-41.544    c-3.335-1.107-7.289,0.993-11.754,6.213c-0.411,0.484-1.136,0.54-1.618,0.126c-0.481-0.412-0.538-1.136-0.126-1.618    c5.127-5.993,9.915-8.316,14.214-6.901c12.924,4.245,15.812,41.956,15.928,43.559c0.046,0.632-0.429,1.181-1.061,1.228    C245.486,171.313,245.458,171.313,245.43,171.313z"/>
		<path style="fill:#251626;" d="M256.287,165.467c-0.452,0-0.881-0.269-1.062-0.713c-8.142-19.937-9.617-33.65-4.385-40.762    c3.766-5.122,9.545-4.7,9.785-4.669c0.632,0.054,1.099,0.61,1.046,1.242c-0.053,0.632-0.606,1.098-1.236,1.044l0,0    c-0.204-0.018-4.782-0.321-7.769,3.772c-3.229,4.427-5.036,14.699,4.684,38.502c0.24,0.587-0.041,1.257-0.629,1.497    C256.579,165.44,256.432,165.467,256.287,165.467z"/>
	</g>
	<path style="fill:#F4BBB1;" d="M295.38,210.51c0,0,80.344,8.096,85.812-7.213c5.468-15.31,33.171,42.284,17.861,51.032   c-15.31,8.748-63.79,24.422-76.912,10.206C309.018,250.319,295.38,210.51,295.38,210.51z"/>
	<path style="fill:#F4BBB1;" d="M303.957,383.601c0,0,14.216,95.503,8.748,103.157s-53.948,1.823-53.948,1.823   s-1.823-77.277-0.729-81.651S303.957,383.601,303.957,383.601z"/>
	<path style="fill:#F4BBB1;" d="M214.469,400.368c0,0-14.763,65.612-62.332,76.548c0,0-37.727-25.151-33.353-32.806   c4.374-7.655,37.727-21.871,49.756-63.425L214.469,400.368z"/>
	<path style="fill:#251626;" d="M232.347,216.36c-16.638,0-25.602-4.575-26.233-4.909c-0.559-0.296-0.773-0.988-0.477-1.549   c0.295-0.56,0.992-0.776,1.55-0.48c0.259,0.137,26.555,13.444,73.517-6.251c0.582-0.242,1.257,0.031,1.502,0.614   c0.245,0.585-0.029,1.257-0.614,1.502C261.158,213.856,244.654,216.36,232.347,216.36z"/>
	<path style="fill:#251626;" d="M232.689,422.022c-24.682,0-43.468-6.796-43.771-6.908c-0.594-0.22-0.898-0.881-0.677-1.475   c0.22-0.592,0.884-0.899,1.475-0.677c0.482,0.179,48.722,17.599,91.853-4.142c0.565-0.287,1.255-0.058,1.541,0.509   c0.286,0.565,0.058,1.255-0.508,1.54C265.705,419.389,248.054,422.022,232.689,422.022z"/>
	<path style="fill:#E33961;" d="M206,344.45c0,0-191.896-14.521-140.489-94.289c24.684-38.303,68.529-21.871,68.529-21.871   s-10.439-60.096,39.367-51.032C223.213,186.323,206,344.45,206,344.45z"/>
	<path style="fill:#F4BBB1;" d="M80.306,320.635c0,0,24.116-31.714,37.932-27.98c20.231,5.468,28.432,36.087,28.432,36.087   s-26.671,36.878-39.902,30.263C93.537,352.389,71.044,332.542,80.306,320.635z"/>
	<path style="fill:#251626;" d="M379.413,210.51c-0.359,0-0.711-0.166-0.935-0.48c-6.773-9.481-1.835-98.688-1.621-102.48   c0.035-0.632,0.568-1.148,1.21-1.08c0.632,0.036,1.116,0.576,1.08,1.21c-1.441,25.612-4.038,93.687,1.197,101.014   c0.369,0.516,0.249,1.233-0.267,1.603C379.877,210.441,379.644,210.51,379.413,210.51z"/>
	<path style="fill:#EE919B;" d="M374.345,159.088c0,0-107.403-113.411-34.054-149.248c35.221-17.209,50.257,49.739,50.257,49.739   s25.888-49.021,58.517-20.178S374.345,159.088,374.345,159.088z"/>
	<path style="fill:#251626;" d="M382.707,247.842c-2.886,0-5.388-0.392-6.879-1.457c-0.973-0.695-1.466-1.656-1.428-2.782   c0.13-3.86,7.163-9.131,11.177-11.832c-5.383-1.253-16.51-4.353-18.178-8.889c-0.891-2.423,0.564-5.471,4.323-9.064   c4.282-4.095,13.1-9.768,15.424-8.793c0.585,0.244,0.86,0.917,0.614,1.502c-0.231,0.551-0.842,0.829-1.4,0.652   c-0.003,0-0.006,0-0.009,0c-1.841,0-11.539,5.686-15.455,10.972c-0.851,1.148-1.775,2.764-1.343,3.938   c1.238,3.369,12.427,6.706,19.19,8.017c0.464,0.092,0.825,0.457,0.91,0.921c0.085,0.464-0.123,0.935-0.526,1.183   c-5.108,3.151-12.343,8.795-12.433,11.469c-0.009,0.256,0.041,0.533,0.467,0.836c3.823,2.732,18.752-0.513,24.183-1.997   c0.606-0.161,1.242,0.195,1.409,0.805c0.167,0.612-0.194,1.244-0.806,1.41C400.425,245.148,390.256,247.842,382.707,247.842z"/>
	<path style="fill:#251626;" d="M412.811,361.738c-3.789,0-8.194-0.648-13.317-2.19c-5.577-1.679-9.299-4.543-11.066-8.517   c-3.892-8.753,2.105-21.441,7.903-33.713c6.264-13.253,12.181-25.771,5.301-31.626c-0.639-0.545-1.268-1.031-1.883-1.457   c-0.563,3.754-2.11,6.903-5.139,8.838c-4.934,3.158-7.373,1.083-8.191,0.045c-2.203-2.795-1.343-8.273,1.772-11.272   c1.336-1.284,4.528-3.432,9.579-1.334c-0.063-12.659-9.051-30.653-9.175-30.9c-0.286-0.567-0.058-1.257,0.507-1.542   c0.563-0.285,1.256-0.058,1.542,0.507c0.537,1.065,9.842,19.704,9.341,33.072c0.987,0.601,2.032,1.356,3.137,2.295   c8.217,6.993,1.937,20.284-4.714,34.356c-5.579,11.803-11.346,24.007-7.882,31.798c1.504,3.382,4.654,5.754,9.63,7.253   c12.227,3.678,21.481,2.544,27.503-3.376c5.664-5.57,6.415-13.65,6.184-14.97c-0.229-0.37-0.236-0.856,0.021-1.242   c0.35-0.529,1.062-0.67,1.591-0.318c1.552,1.033,0.373,7.392-1.645,11.68C431.343,354.364,425.598,361.738,412.811,361.738z    M393.674,281.918c-1.482,0-2.794,0.524-3.891,1.582c-2.414,2.324-2.885,6.52-1.562,8.199c1.25,1.573,3.764,0.329,5.154-0.558   c2.648-1.692,3.917-4.617,4.28-8.159C396.231,282.275,394.895,281.918,393.674,281.918z"/>
	<path style="fill:#251626;" d="M143.388,329.888c-0.281,0-0.563-0.103-0.784-0.309c-0.463-0.433-0.486-1.159-0.054-1.623   c7.398-7.901,14.348-17.808,12.679-20.033c-1.689-2.241-14.031,1.367-24.498,6.011c-0.425,0.195-0.926,0.101-1.263-0.224   c-0.336-0.325-0.442-0.823-0.266-1.255c4.738-11.711,7.296-22.781,5.471-23.694c-2.798-1.396-10.569,1.598-14.811,3.817   c-0.561,0.289-1.254,0.076-1.549-0.486c-0.294-0.56-0.077-1.253,0.484-1.549c1.229-0.643,12.143-6.211,16.902-3.835   c1.534,0.767,4.151,4.655-3.349,24.03c7.2-3.017,21.598-8.347,24.713-4.191c3.579,4.774-8.922,18.794-12.84,22.979   C144,329.767,143.694,329.888,143.388,329.888z"/>
	<g>
		<path style="fill:#251426;" d="M335.778,272.61c-0.033,0-0.065-0.002-0.098-0.004c-0.631-0.054-1.101-0.607-1.047-1.239    c0.228-2.703-2.39-5.852-2.416-5.884c-0.408-0.484-0.345-1.208,0.139-1.616c0.483-0.408,1.207-0.35,1.615,0.137    c0.133,0.157,3.257,3.9,2.949,7.556C336.869,272.157,336.368,272.61,335.778,272.61z"/>
		<path style="fill:#251426;" d="M325.937,281.199c-0.033,0-0.064-0.002-0.097-0.004c-0.631-0.052-1.101-0.607-1.047-1.239    c0.188-2.255-1.68-5.012-2.416-5.884c-0.409-0.484-0.349-1.208,0.136-1.616c0.487-0.408,1.21-0.347,1.617,0.137    c0.133,0.157,3.257,3.9,2.95,7.556C327.03,280.746,326.528,281.199,325.937,281.199z"/>
		<path style="fill:#251426;" d="M324.445,266.15c-0.032,0-0.065-0.002-0.097-0.004c-0.631-0.052-1.101-0.607-1.047-1.239    c0.227-2.705-2.389-5.852-2.416-5.884c-0.408-0.484-0.345-1.208,0.139-1.616s1.208-0.347,1.615,0.137    c0.133,0.157,3.257,3.898,2.949,7.556C325.537,265.697,325.036,266.15,324.445,266.15z"/>
		<path style="fill:#251426;" d="M341.042,286.692c-0.033,0-0.065-0.002-0.098-0.004c-0.631-0.052-1.1-0.607-1.047-1.239    c0.228-2.705-2.389-5.852-2.416-5.884c-0.408-0.484-0.345-1.208,0.139-1.616s1.208-0.347,1.615,0.137    c0.133,0.157,3.257,3.898,2.949,7.556C342.133,286.24,341.632,286.692,341.042,286.692z"/>
		<path style="fill:#251426;" d="M342.779,302.909c-0.104,0-0.211-0.013-0.316-0.045c-0.61-0.173-0.963-0.807-0.789-1.417    c0.621-2.179-0.684-5.24-1.239-6.238c-0.308-0.554-0.109-1.253,0.445-1.56c0.555-0.307,1.252-0.11,1.561,0.444    c0.1,0.179,2.446,4.454,1.441,7.982C343.738,302.579,343.277,302.909,342.779,302.909z"/>
		<path style="fill:#251426;" d="M323.968,298.296c-0.104,0-0.211-0.013-0.315-0.045c-0.61-0.173-0.964-0.807-0.79-1.417    c0.621-2.179-0.684-5.243-1.239-6.24c-0.308-0.554-0.109-1.253,0.445-1.56c0.557-0.309,1.252-0.108,1.561,0.444    c0.1,0.179,2.446,4.454,1.441,7.984C324.927,297.966,324.467,298.296,323.968,298.296z"/>
		<path style="fill:#251426;" d="M333.219,308.474c-0.104,0-0.21-0.013-0.315-0.045c-0.61-0.173-0.964-0.807-0.79-1.417    c0.743-2.611-1.22-6.202-1.239-6.238c-0.307-0.556-0.108-1.253,0.446-1.56c0.554-0.309,1.251-0.11,1.56,0.444    c0.1,0.179,2.445,4.451,1.441,7.982C334.179,308.144,333.719,308.474,333.219,308.474z"/>
		<path style="fill:#251426;" d="M333.984,292.84c-0.033,0-0.065-0.002-0.098-0.004c-0.631-0.054-1.101-0.607-1.047-1.24    c0.226-2.703-2.39-5.85-2.417-5.881c-0.407-0.484-0.346-1.208,0.138-1.616c0.485-0.408,1.209-0.345,1.616,0.134    c0.133,0.159,3.258,3.9,2.95,7.556C335.075,292.388,334.574,292.84,333.984,292.84z"/>
	</g>
	<g>
		<path style="fill:#251426;" d="M304.685,431.588c-0.11,0-0.222-0.016-0.333-0.049c-0.606-0.184-0.949-0.825-0.765-1.43    c0.787-2.598-1.117-6.222-1.136-6.258c-0.298-0.558-0.086-1.253,0.472-1.551c0.558-0.298,1.252-0.087,1.552,0.468    c0.096,0.182,2.372,4.492,1.309,8.004C305.634,431.27,305.179,431.588,304.685,431.588z"/>
		<path style="fill:#251426;" d="M293.27,437.938c-0.11,0-0.222-0.016-0.332-0.049c-0.607-0.184-0.95-0.825-0.767-1.43    c0.656-2.167-0.597-5.254-1.136-6.258c-0.299-0.56-0.089-1.255,0.471-1.553c0.559-0.305,1.254-0.09,1.553,0.468    c0.098,0.184,2.371,4.494,1.309,8.006C294.218,437.618,293.763,437.938,293.27,437.938z"/>
		<path style="fill:#251426;" d="M294.95,422.908c-0.11,0-0.222-0.016-0.332-0.049c-0.607-0.184-0.95-0.825-0.767-1.43    c0.656-2.167-0.597-5.254-1.136-6.258c-0.299-0.56-0.089-1.255,0.471-1.553c0.56-0.307,1.254-0.087,1.553,0.468    c0.098,0.184,2.371,4.494,1.309,8.006C295.898,422.587,295.443,422.908,294.95,422.908z"/>
		<path style="fill:#251426;" d="M306.899,446.458c-0.11,0-0.222-0.016-0.332-0.049c-0.607-0.184-0.95-0.825-0.767-1.43    c0.656-2.167-0.597-5.252-1.136-6.256c-0.299-0.56-0.089-1.255,0.471-1.553c0.555-0.305,1.254-0.09,1.553,0.468    c0.098,0.182,2.371,4.492,1.309,8.004C307.847,446.137,307.392,446.458,306.899,446.458z"/>
		<path style="fill:#251426;" d="M305.216,462.681c-0.182,0-0.365-0.043-0.537-0.134c-0.559-0.296-0.773-0.991-0.476-1.551    c1.06-1.999,0.424-5.267,0.089-6.359c-0.186-0.605,0.155-1.246,0.76-1.432c0.615-0.197,1.248,0.152,1.434,0.76    c0.061,0.197,1.464,4.866-0.254,8.107C306.025,462.459,305.627,462.681,305.216,462.681z"/>
		<path style="fill:#251426;" d="M287.781,454.246c-0.182,0-0.365-0.043-0.536-0.134c-0.56-0.296-0.774-0.991-0.477-1.551    c1.06-1.999,0.423-5.267,0.087-6.359c-0.186-0.605,0.155-1.246,0.76-1.432c0.611-0.193,1.25,0.152,1.434,0.76    c0.061,0.197,1.464,4.866-0.253,8.107C288.59,454.025,288.192,454.246,287.781,454.246z"/>
		<path style="fill:#251426;" d="M294.706,466.13c-0.182,0-0.365-0.043-0.537-0.134c-0.559-0.296-0.773-0.991-0.476-1.551    c1.06-1.999,0.424-5.267,0.089-6.359c-0.186-0.605,0.155-1.246,0.76-1.432c0.615-0.199,1.248,0.152,1.434,0.76    c0.061,0.197,1.464,4.866-0.254,8.107C295.515,465.908,295.117,466.13,294.706,466.13z"/>
		<path style="fill:#251426;" d="M298.713,451.001c-0.11,0-0.222-0.016-0.333-0.049c-0.606-0.184-0.949-0.825-0.765-1.43    c0.656-2.167-0.597-5.252-1.136-6.256c-0.299-0.56-0.089-1.255,0.471-1.553c0.561-0.307,1.253-0.09,1.553,0.468    c0.098,0.184,2.371,4.494,1.309,8.004C299.661,450.683,299.206,451.001,298.713,451.001z"/>
	</g>
	<g>
		<path style="fill:#251426;" d="M190.343,440.505c-0.371,0-0.735-0.179-0.956-0.511c-0.352-0.527-0.21-1.239,0.318-1.591    c2.257-1.506,3.092-5.514,3.1-5.554c0.127-0.621,0.733-1.013,1.352-0.899c0.621,0.125,1.023,0.728,0.899,1.349    c-0.04,0.204-1.024,4.978-4.077,7.013C190.783,440.442,190.561,440.505,190.343,440.505z"/>
		<path style="fill:#251426;" d="M177.493,438.151c-0.371,0-0.735-0.179-0.956-0.511c-0.352-0.527-0.21-1.24,0.318-1.591    c2.257-1.506,3.092-5.514,3.1-5.554c0.127-0.621,0.735-1.006,1.352-0.899c0.621,0.126,1.023,0.728,0.899,1.349    c-0.04,0.204-1.024,4.978-4.077,7.013C177.933,438.088,177.711,438.151,177.493,438.151z"/>
		<path style="fill:#251426;" d="M188.343,427.614c-0.371,0-0.735-0.179-0.956-0.511c-0.352-0.527-0.21-1.239,0.318-1.591    c1.884-1.255,2.876-4.433,3.099-5.552c0.124-0.623,0.726-1.031,1.349-0.901c0.622,0.123,1.025,0.728,0.901,1.349    c-0.04,0.202-1.023,4.978-4.076,7.013C188.784,427.552,188.562,427.614,188.343,427.614z"/>
		<path style="fill:#251426;" d="M182.601,453.39c-0.371,0-0.735-0.179-0.956-0.511c-0.352-0.527-0.21-1.239,0.318-1.591    c1.884-1.255,2.876-4.433,3.099-5.552c0.123-0.623,0.732-1.033,1.349-0.901c0.622,0.123,1.025,0.728,0.901,1.349    c-0.04,0.202-1.023,4.978-4.076,7.013C183.041,453.327,182.82,453.39,182.601,453.39z"/>
		<path style="fill:#251426;" d="M170.991,464.846c-0.449,0-0.875-0.264-1.059-0.706c-0.244-0.585,0.033-1.257,0.617-1.502    c2.09-0.87,3.676-3.797,4.11-4.85c0.242-0.587,0.911-0.872,1.498-0.623c0.586,0.24,0.865,0.912,0.624,1.497    c-0.078,0.191-1.963,4.684-5.349,6.097C171.288,464.817,171.139,464.846,170.991,464.846z"/>
		<path style="fill:#251426;" d="M162.889,447.253c-0.449,0-0.875-0.264-1.059-0.706c-0.244-0.585,0.033-1.257,0.617-1.502    c2.505-1.042,4.095-4.817,4.111-4.855c0.242-0.585,0.912-0.858,1.498-0.621c0.585,0.242,0.864,0.912,0.623,1.497    c-0.078,0.19-1.962,4.687-5.349,6.099C163.186,447.224,163.037,447.253,162.889,447.253z"/>
		<path style="fill:#251426;" d="M160.684,460.832c-0.448,0-0.875-0.264-1.059-0.706c-0.244-0.585,0.033-1.257,0.618-1.502    c2.09-0.872,3.676-3.799,4.11-4.853c0.242-0.587,0.913-0.867,1.498-0.623c0.586,0.24,0.865,0.912,0.624,1.497    c-0.078,0.191-1.962,4.684-5.349,6.099C160.981,460.802,160.832,460.832,160.684,460.832z"/>
		<path style="fill:#251426;" d="M173.393,451.696c-0.371,0-0.735-0.179-0.956-0.511c-0.352-0.527-0.21-1.239,0.318-1.591    c1.884-1.255,2.876-4.433,3.099-5.552c0.123-0.623,0.731-1.031,1.349-0.901c0.622,0.123,1.025,0.728,0.901,1.349    c-0.04,0.202-1.023,4.978-4.076,7.013C173.834,451.633,173.612,451.696,173.393,451.696z"/>
	</g>
	<path style="fill:#251426;" d="M350.615,273.208c-0.486,0-0.937-0.312-1.093-0.798c-5.657-17.68-27.093-34.268-27.309-34.434   c-0.503-0.386-0.598-1.105-0.213-1.609c0.386-0.5,1.105-0.598,1.609-0.211c0.904,0.693,22.224,17.196,28.098,35.555   c0.194,0.603-0.139,1.248-0.743,1.443C350.848,273.19,350.73,273.208,350.615,273.208z"/>
	<path style="fill:#EE919B;" d="M373.494,146.375c0,0-11.059,20.325-9.864,22.716c1.196,2.391,23.314,0.598,23.912-2.69   S378.277,146.972,373.494,146.375z"/>
	<path style="fill:#251626;" d="M374.294,151.802c-0.017,0-0.035,0-0.053-0.002c-1.059-0.061-1.758-0.101-6.652-23.422   c-0.13-0.621,0.267-1.228,0.888-1.358c0.619-0.139,1.228,0.267,1.358,0.888c1.579,7.522,3.454,15.777,4.554,19.735   c2.489-5.574,8.329-17.996,9.126-19.69c0.271-0.572,0.951-0.818,1.527-0.549c0.574,0.269,0.819,0.953,0.55,1.526   c-3.834,8.145-9.689,20.726-10.112,21.995C375.321,151.398,374.797,151.802,374.294,151.802z"/>
	<path style="fill:#251626;" d="M435.182,82.931c-0.142,0-0.286-0.027-0.426-0.083c-0.588-0.235-0.875-0.903-0.64-1.491   c0.113-0.285,11.217-28.486,0.342-37.323c-10.779-8.757-23.517,1.728-24.053,2.176c-0.487,0.403-1.21,0.345-1.617-0.141   c-0.407-0.484-0.345-1.208,0.139-1.616c0.145-0.121,14.718-12.162,26.979-2.199c12.18,9.898,0.83,38.733,0.342,39.955   C436.068,82.657,435.637,82.931,435.182,82.931z"/>
	<path style="fill:#251626;" d="M206.001,345.598c-0.384,0-0.759-0.193-0.976-0.542l-73.365-118.32   c-0.334-0.54-0.168-1.246,0.37-1.58c0.54-0.336,1.246-0.168,1.58,0.37l73.365,118.32c0.334,0.54,0.168,1.246-0.37,1.58   C206.417,345.542,206.207,345.598,206.001,345.598z"/>
	<path style="fill:#251626;" d="M75.043,304.556c-0.396,0-0.78-0.204-0.993-0.572c-0.319-0.547-0.132-1.251,0.416-1.569   l130.496-75.819c0.542-0.321,1.247-0.134,1.568,0.417c0.319,0.547,0.132,1.251-0.416,1.569L75.618,304.401   C75.437,304.507,75.239,304.556,75.043,304.556z"/>
	<path style="fill:#251626;" d="M170.991,270.247c-0.361,0-0.726-0.078-1.08-0.238c-1.325-0.594-2.268-2.172-2.463-4.12   c-0.194-1.939,1.44-4.66,4.008-6.675c-0.359-0.702-0.884-1.262-1.584-1.692c-4.093-2.526-13.178-0.029-16.332,1.15   c-0.453,0.164-0.962,0.036-1.276-0.334c-0.05-0.061-0.094-0.123-0.131-0.191c-0.211-0.117-0.387-0.298-0.493-0.533   c-0.202-0.446-4.918-11.046-1.752-19.144c1.284-3.288,3.68-5.693,7.121-7.15c2.638-1.121,4.55-1.04,5.68,0.233   c3.293,3.712-3.388,17.221-7.125,24.061c4.01-1.136,11.304-2.643,15.513-0.047c0.995,0.612,1.765,1.408,2.306,2.378   c0.848-0.464,1.757-0.838,2.704-1.092c3.288-0.888,9.446-0.919,13.772,8.679c0.26,0.576,0.002,1.257-0.575,1.517   c-0.585,0.26-1.26,0-1.519-0.576c-3.446-7.648-7.928-8.253-11.085-7.403c-0.906,0.242-1.751,0.614-2.517,1.065   c0.047,0.242,0.084,0.491,0.112,0.746c0.499,4.588-0.115,7.654-1.775,8.86C172.041,270.077,171.521,270.247,170.991,270.247z    M172.052,261.728c-1.531,1.452-2.407,3.071-2.321,3.934c0.134,1.347,0.742,2.084,1.117,2.253c0.141,0.067,0.207,0.04,0.3-0.027   C171.668,267.511,172.409,265.791,172.052,261.728z M160.205,232.827c-0.563,0-1.358,0.206-2.302,0.605   c-2.848,1.208-4.825,3.181-5.877,5.868c-2.18,5.568,0.009,12.863,1.13,15.923c5.239-9.501,9.544-20.197,7.815-22.147   C160.823,232.91,160.56,232.827,160.205,232.827z"/>
	<path style="fill:#251626;" d="M154.729,293.963c-0.097,0-0.197-0.011-0.296-0.038c-13.027-3.456-13.597-10.738-12.778-14.768   c0.176-0.87,0.455-1.755,0.806-2.625c-1.255-0.975-1.937-2.282-1.976-3.801c-0.101-3.945,4.182-8.719,7.413-11.747   c-6.341,1.143-17.404,2.427-20.694-1.737c-1.367-1.733-1.319-4.068,0.143-6.942c1.569-3.084,3.807-4.846,6.651-5.24   c8.033-1.098,17.971,9.524,18.391,9.981c0.256,0.276,0.349,0.641,0.286,0.986c0.15,0.108,0.275,0.253,0.36,0.43   c0.235,0.486,0.099,1.069-0.327,1.403c-2.797,2.181-10.034,8.737-9.928,12.807c0.017,0.672,0.245,1.228,0.708,1.708   c1.738-3.149,4.176-5.612,5.494-5.424c0.463,0.067,1.288,0.406,1.637,1.937c0.426,1.863,0.078,5.274-2.019,6.686   c-0.849,0.574-2.204,0.964-4.153,0.125c-0.529,1.417-0.842,2.956-0.724,4.51c0.336,4.398,4.138,7.592,11.3,9.492   c0.612,0.164,0.977,0.791,0.815,1.403C155.701,293.625,155.237,293.963,154.729,293.963z M145.409,275.629   c0.93,0.39,1.643,0.347,2.127-0.132c0.907-0.897,1.042-2.815,0.895-3.853C147.657,272.347,146.423,273.791,145.409,275.629z    M135.251,249.275c-0.317,0-0.63,0.022-0.938,0.065c-2.084,0.289-3.694,1.598-4.918,4.005c-1.021,2.006-1.151,3.512-0.389,4.478   c2.491,3.158,13.802,1.975,21.285,0.35C148.489,256.342,141.151,249.275,135.251,249.275z"/>
	<path style="fill:#251626;" d="M268.879,512c-0.343,0-0.755-0.081-1.207-0.334c-4.08-2.277-9.063-19.372-10.02-22.775   c-0.171-0.612,0.184-1.244,0.795-1.417c0.607-0.166,1.245,0.186,1.415,0.793c3.183,11.319,7.319,21.136,9.032,21.439   c2.498-0.726,11.032-9.239,15.81-14.432c0.398-0.433,1.058-0.491,1.526-0.146c10.742,7.928,21.407,13.829,22.822,12.623   c1.298-3.887,0.409-19.166-0.043-24.729c-0.05-0.63,0.42-1.183,1.051-1.235c0.628-0.036,1.186,0.419,1.237,1.051   c0.067,0.834,1.64,20.522-0.056,25.605c-0.247,0.742-0.805,1.287-1.57,1.529c-4.485,1.434-19.336-9.017-23.976-12.39   c-2.888,3.093-12.62,13.305-16.234,14.336C269.302,511.966,269.106,512,268.879,512z"/>
	<path style="fill:#251626;" d="M125.067,489.01c-1.454,0-2.236-0.713-2.641-1.336c-2.33-3.588,2.776-14.34,5.008-18.671   c-5.974-1.143-19.218-3.768-20.769-4.801c-0.277-0.184-0.564-0.668-0.606-0.997c-0.3-2.329,8.667-12.975,16.242-21.497   c0.421-0.475,1.144-0.516,1.619-0.096c0.474,0.421,0.517,1.148,0.095,1.621c-6.914,7.778-14.195,16.665-15.485,19.296   c2.793,0.917,13.43,3.107,20.854,4.512c0.36,0.067,0.666,0.303,0.824,0.634c0.157,0.329,0.147,0.717-0.027,1.038   c-3.269,6.049-7.239,15.544-5.831,17.711c0.071,0.11,0.217,0.327,0.906,0.285c6.789-0.524,28.85-12.325,29.072-12.444   c0.56-0.296,1.254-0.09,1.553,0.468c0.3,0.558,0.091,1.253-0.468,1.553c-0.923,0.495-22.714,12.151-29.98,12.709   C125.307,489.006,125.185,489.01,125.067,489.01z"/>
	<path style="fill:#251626;" d="M116.598,358.322c-0.397,0-0.783-0.206-0.995-0.574c-0.317-0.551-0.128-1.253,0.421-1.569   c0.177-0.101,17.801-10.331,22.51-19.749c0.285-0.565,0.972-0.798,1.54-0.513c0.567,0.285,0.797,0.973,0.513,1.54   c-5.017,10.035-22.669,20.28-23.418,20.713C116.989,358.273,116.792,358.322,116.598,358.322z"/>
</g>















</svg>
