<?xml version="1.0" encoding="UTF-8"?>
<!-- Generator: Adobe Illustrator 25.2.0, SVG Export Plug-In . SVG Version: 6.00 Build 0)  -->
<svg xmlns="http://www.w3.org/2000/svg" xmlns:xlink="http://www.w3.org/1999/xlink" version="1.1" id="Capa_1" x="0px" y="0px" viewBox="0 0 512 512" style="enable-background:new 0 0 512 512;" xml:space="preserve" width="512" height="512">
<g>
	<path style="fill:#251626;" d="M346.541,468.948c-0.28,0-0.55-0.121-0.735-0.34c-0.236-0.276-0.299-0.662-0.159-0.998   c0.312-0.751,30.69-75.132-7.391-91.802c-0.49-0.214-0.713-0.785-0.499-1.274c0.216-0.492,0.788-0.707,1.274-0.499   c16.551,7.245,23.224,25.926,19.297,54.02c-2.42,17.31-8.204,33.348-10.2,38.546c9.24-2.254,28.491-7.107,30.868-8.467   c1.48-1.781-0.713-21.282-3.728-39.077c-0.085-0.509,0.242-0.996,0.745-1.108c0.51-0.108,1.006,0.193,1.144,0.688l12.881,46.655   l26.239-9.779c-0.573-41.151-18.697-64.084-33.848-76.094c-16.534-13.106-33.214-16.421-33.381-16.453   c-0.526-0.1-0.87-0.609-0.77-1.133c0.1-0.526,0.613-0.866,1.133-0.77c0.681,0.13,68.062,13.938,68.809,95.109   c0.004,0.408-0.248,0.773-0.63,0.917l-27.867,10.386c-0.257,0.093-0.537,0.076-0.779-0.045c-0.242-0.123-0.42-0.342-0.493-0.605   l-8.773-31.774c1.592,11.879,2.511,23.483,0.278,24.761c-3.248,1.86-30.132,8.372-33.188,9.109   C346.692,468.938,346.617,468.948,346.541,468.948z"/>
	<path style="fill:#251626;" d="M401.152,455.618c-0.293,0-0.584-0.134-0.775-0.388c-0.32-0.427-0.233-1.034,0.195-1.356   c4.685-3.515,5.131-7.567,4.681-10.348c-0.38-2.335-1.494-4.483-2.917-6.2c-0.543,2.571-1.484,4.557-2.755,5.57   c-0.913,0.726-2.836,1.651-5.474-0.389c-4.511-3.485-4.965-6.888-3.887-8.911c1.201-2.254,4.214-2.963,7.69-1.809   c1.03,0.344,2.036,0.872,2.984,1.541c0.234-4.761-0.645-10.834-3.201-16.349c-0.25-0.541-0.514-1.034-0.79-1.482   c-0.011,2.517-0.429,4.712-1.182,6.285c-1.392,2.91-3.842,3.942-6.566,2.781c-2.787-1.195-4.169-3.598-3.793-6.595   c0.45-3.57,3.358-6.869,6.483-7.357c0.713-0.108,1.692-0.115,2.768,0.287c-0.976-5.243-3.728-11.047-8.858-15.014   c-0.7,0.995-1.584,1.995-2.655,3.001c-6.903,6.485-10.522,4.734-11.755,3.679c-2.206-1.885-2.377-5.971-0.369-8.926   c0.953-1.403,4.678-5.649,12.56-1.479c0.554,0.295,1.091,0.607,1.607,0.936c0.681-1.492,0.824-2.923,0.424-4.286   c-1.255-4.269-7.673-7.262-13.477-8.332c-1.371-0.253-2.704-0.405-3.952-0.459c0.038,0.204,0.07,0.416,0.095,0.63   c0.348,3.142-1.042,5.655-3.719,6.725c-2.42,0.97-5.192,0.461-6.444-1.185c-0.512-0.673-1.469-2.545,0.686-5.373   c1.274-1.673,3.764-2.454,6.549-2.675c-3.515-5.243-14.725-5.769-14.855-5.772c-0.533-0.023-0.949-0.473-0.928-1.008   c0.023-0.533,0.495-0.909,1.008-0.928c0.611,0.026,13.615,0.643,16.971,7.642c1.69,0.026,3.4,0.216,4.94,0.501   c5.92,1.093,13.394,4.286,14.982,9.69c0.571,1.938,0.346,3.931-0.667,5.958c6.135,4.68,9.157,11.819,9.936,17.971   c0.949,0.853,1.898,2.12,2.759,3.974c2.883,6.222,3.812,13.286,3.262,18.694c2.261,2.233,3.952,5.273,4.451,8.359   c0.76,4.676-1.168,9.009-5.43,12.206C401.559,455.556,401.355,455.618,401.152,455.618z M394.79,433.181   c-1.348,0-2.399,0.458-2.861,1.327c-0.728,1.363,0.03,3.893,3.362,6.468c1.828,1.414,2.774,0.656,3.082,0.406   c1.099-0.875,1.919-2.963,2.309-5.744c-1.1-0.947-2.275-1.645-3.384-2.014C396.401,433.327,395.548,433.181,394.79,433.181z    M392.68,412.483c-0.178,0-0.357,0.013-0.539,0.042c-2.29,0.357-4.515,2.961-4.859,5.685c-0.153,1.22-0.015,3.437,2.636,4.572   c1.749,0.751,3.114,0.132,4.056-1.834c0.872-1.825,1.242-4.572,0.966-7.676C394.223,412.752,393.463,412.483,392.68,412.483z    M377.263,392.313c-1.98,0-3.596,0.809-4.685,2.414c-1.454,2.138-1.443,5.113,0.025,6.364c1.743,1.492,5.175,0.14,9.17-3.617   c0.978-0.919,1.777-1.821,2.399-2.704c-0.495-0.318-1.01-0.616-1.543-0.9C380.663,392.831,378.846,392.313,377.263,392.313z    M366.153,380.014c-2.806,0.123-4.969,0.807-5.857,1.972c-0.558,0.734-1.39,2.101-0.684,3.029c0.707,0.928,2.626,1.184,4.184,0.56   c1.085-0.433,2.857-1.622,2.513-4.712C366.276,380.57,366.223,380.286,366.153,380.014z"/>
	<path style="fill:#251626;" d="M307.575,215.219c-0.242,0-0.484-0.089-0.671-0.27c-0.386-0.371-0.397-0.983-0.026-1.369   c7.317-7.612,5.415-13.061,3.63-15.632c-0.354-0.509-0.741-0.968-1.151-1.38c-1.581,2.048-3.322,3.324-4.923,3.585   c-0.787,0.121-3.403,0.229-4.26-3.768c-0.607-2.83,1.019-3.87,1.745-4.184c1.853-0.804,4.604-0.104,6.99,1.52   c2.413-3.984,4.373-10.34,3.513-18.083c-0.73-6.576-4.211-9.427-6.718-10.639c-0.743,4.163-2.08,7.166-3.953,8.102   c-1.172,0.59-3.04,0.69-5.264-2.137c-2.405-3.061-1.66-5.252-1.002-6.287c1.405-2.212,4.914-3.171,8.523-2.329   c0.04,0.009,0.079,0.019,0.121,0.028c0.724-6.358,0.337-15.241-2.008-24.027c-0.883-3.314-2.133-5.74-3.653-7.164   c-0.106,2.742-0.83,5.027-2.034,6.47c-1.641,1.964-3.999,2.445-6.655,1.339c-2.036-0.849-3.023-2.626-2.645-4.757   c0.524-2.931,3.759-6.307,7.565-6.468c0.495-0.023,1.057,0.011,1.675,0.146c-0.448-3.131-1.673-6.638-3.81-9.941   c-6.6-10.2-21.288-4.84-21.433-4.784c-0.495,0.191-1.059-0.066-1.246-0.565c-0.189-0.501,0.064-1.059,0.565-1.246   c0.163-0.062,16.306-5.952,23.74,5.544c2.573,3.978,3.891,8.149,4.213,11.798c2.019,1.199,4.165,3.785,5.591,9.13   c2.29,8.586,2.887,18.124,2.012,25.158c2.95,1.259,7.459,4.468,8.342,12.414c0.883,7.949-1.085,15.01-3.884,19.541   c0.607,0.569,1.161,1.201,1.635,1.881c1.709,2.462,4.759,9.151-3.825,18.079C308.084,215.119,307.828,215.219,307.575,215.219z    M303.686,193.801c-0.389,0-0.73,0.059-0.998,0.174c-0.236,0.104-0.96,0.418-0.62,2.004c0.357,1.666,1.044,2.411,2.055,2.261   c1.029-0.168,2.386-1.197,3.713-2.94C306.358,194.29,304.811,193.801,303.686,193.801z M301.404,163.98   c-1.932,0-3.585,0.63-4.286,1.734c-0.847,1.333,0.017,2.94,0.892,4.054c0.779,0.993,1.904,2.085,2.876,1.6   c1.276-0.637,2.348-3.243,2.976-7.062c-0.106-0.028-0.204-0.053-0.291-0.074C302.833,164.062,302.1,163.98,301.404,163.98z    M294.983,129.698c-0.068,0-0.136,0.002-0.204,0.004c-2.808,0.119-5.347,2.672-5.738,4.874c-0.223,1.242,0.276,2.127,1.482,2.628   c1.853,0.773,3.341,0.503,4.424-0.79c1.131-1.356,1.705-3.668,1.611-6.44C296.051,129.79,295.526,129.698,294.983,129.698z"/>
	<path style="fill:#251626;" d="M319.19,225.544c-0.448,0-0.853-0.316-0.945-0.773c-0.11-0.524,0.229-1.034,0.753-1.142   c8.253-1.7,13.324-5.182,14.663-10.07c0.522-1.908,0.45-3.897-0.025-5.818c-1.335,0.503-2.781,0.63-4.286,0.363   c-5.099-0.9-7.397-4.163-7.845-6.92c-0.374-2.309,0.467-4.453,2.095-5.336c0.985-0.537,3.067-1.047,5.924,1.552   c2.063,1.874,4.006,4.54,5.205,7.514c0.641-0.51,1.167-1.102,1.584-1.671c4.5-6.12,5.041-20.408-1.847-33.723   c-1.473-2.849-2.927-4.974-4.301-6.512c-0.717,8.132-2.483,13.798-5.056,14.542c-1.76,0.503-3.381-0.911-4.863-4.205   c-3.292-7.313-1.59-13.456,1.955-15.169c1.67-0.805,3.872-0.726,6.315,0.851c0.289-6.406,0.009-14.369-1.248-23.377   c-0.824-5.912-2.551-9.325-4.426-11.269c-0.042,3.861-0.926,6.928-2.711,8.773c-1.505,1.554-4.299,2.927-9.096,0.656   c-3.076-1.458-4.428-3.919-3.71-6.754c1.021-4.016,5.963-7.315,10.488-7.066c0.747,0.042,1.773,0.2,2.914,0.667   c-0.626-5.615-2.776-12.808-6.912-20.84c-3.08-5.98-6.445-8.756-9.217-10c-0.104,4.057-1.25,7.268-2.802,9.085   c-2.174,2.552-5.147,2.772-7.752,0.565c-2.233-1.891-3.057-4.407-2.258-6.907c0.972-3.036,4.099-5.283,7.784-5.589   c0.73-0.062,1.768-0.061,3.006,0.18c-0.7-7.045-4.681-16.151-14.347-24.475c-6.23-5.364-11.923-7.326-16.924-5.81   c-9.544,2.88-13.74,17.455-13.781,17.601c-0.144,0.514-0.686,0.813-1.193,0.671c-0.514-0.144-0.815-0.679-0.671-1.193   c0.18-0.641,4.519-15.739,15.08-18.931c5.678-1.718,11.985,0.369,18.752,6.195c10.698,9.213,14.611,18.998,15.067,26.504   c3.282,1.22,7.368,4.214,10.976,11.22c4.252,8.251,6.729,16.398,7.219,22.863c2.632,1.913,5.345,5.793,6.432,13.585   c1.25,8.953,1.59,17.807,1.167,25.078c1.889,1.738,3.872,4.379,5.835,8.172c7.232,13.982,6.538,29.161,1.687,35.757   c-0.741,1.01-1.579,1.826-2.49,2.445c0.658,2.363,0.8,4.848,0.146,7.236c-1.078,3.933-4.751,9.111-16.141,11.454   C319.32,225.538,319.256,225.544,319.19,225.544z M325.318,197.357c-0.291,0-0.558,0.064-0.796,0.193   c-0.891,0.484-1.346,1.849-1.106,3.324c0.166,1.019,1.108,4.413,6.27,5.324c1.297,0.225,2.413,0.072,3.365-0.304   c-1.068-2.779-2.893-5.3-4.829-7.06C327.157,197.866,326.142,197.357,325.318,197.357z M324.45,159.611   c-0.524,0-0.996,0.11-1.409,0.308c-2.653,1.282-3.8,6.476-1.03,12.632c1.144,2.541,2.091,3.265,2.56,3.139   c1.535-0.442,3.21-5.746,3.814-14.39C326.904,160.106,325.562,159.611,324.45,159.611z M317.29,121.912   c-3.84,0-7.395,2.891-8.089,5.621c-0.484,1.908,0.435,3.473,2.66,4.526c3.016,1.429,5.332,1.346,6.877-0.251   c1.531-1.584,2.337-4.702,2.157-8.949c-1.163-0.654-2.284-0.885-3.19-0.936C317.566,121.916,317.428,121.912,317.29,121.912z    M300.407,88.875c-0.251,0-0.478,0.009-0.679,0.026c-2.914,0.242-5.364,1.951-6.099,4.248c-0.558,1.743,0.034,3.462,1.664,4.84   c1.775,1.501,3.56,1.375,5.029-0.344c1.477-1.73,2.413-4.734,2.365-8.487C301.808,88.943,301.035,88.875,300.407,88.875z"/>
	<path style="fill:#251626;" d="M315.441,249.293c-0.314,0-0.622-0.153-0.809-0.437c-0.293-0.446-0.17-1.046,0.278-1.341   c23.286-15.315,34.542-41.087,33.458-76.602c-1.845-60.422-38.412-125.565-45.147-129.426   c-9.225-5.296-48.582,24.213-62.969,36.029c-0.41,0.338-1.019,0.278-1.363-0.134c-0.338-0.414-0.278-1.023,0.134-1.363   c0.13-0.108,13.262-10.866,27.669-20.654c19.628-13.335,32.235-18.569,37.493-15.556c8.4,4.818,44.326,72.41,46.117,131.047   c1.108,36.232-10.442,62.57-34.33,78.28C315.809,249.242,315.624,249.293,315.441,249.293z"/>
	<path style="fill:#C7AEB0;" d="M173.767,228.207c0,0-48.186,149.967-8.819,187.398c11.826,11.244,125.073,8.147,146.54,3.604   c63.568-13.45,86.649-192.248-23.542-214.511L173.767,228.207z"/>
	<path style="fill:#C7AEB0;" d="M184.195,242.408c0,0-33.622-4.67-41.844-49.89c0,0-38.004-0.936-32.888,11.158   c1.83,4.326,1.768,52.087,32.115,71.189S184.195,242.408,184.195,242.408z"/>
	<path style="fill:#C7AEB0;" d="M212.208,60.79c0,0-111.389,52.697-100.034,102.186c5.161,22.493,104.676-13.033,104.676-13.033   s-32.571,84.244-25.643,96.061c6.928,11.817,84.482,9.081,98.66,1.002S294.771,27.563,212.208,60.79z"/>
	<path style="fill:#C7AEB0;" d="M262.35,88.891c0,0-4.339-88.055,4.636-81.779c8.975,6.276,47.329,70.889-1.394,90.375   L262.35,88.891z"/>
	<path style="fill:#C7AEB0;" d="M246.657,88.256c0.014-1.427,2.369-92.744-7.193-88.084c-9.562,4.66-12.713,80.746-1.826,86.089   L246.657,88.256z"/>
	<path style="fill:#251626;" d="M233.994,156.61c-9.168,0-17.678-7.627-18.089-8.002c-0.397-0.359-0.425-0.972-0.066-1.367   c0.361-0.395,0.972-0.424,1.367-0.066c0.108,0.1,11.01,9.843,20.577,6.956c5.823-1.753,10.089-7.814,12.681-18.017   c0.132-0.518,0.652-0.839,1.176-0.7c0.518,0.13,0.832,0.658,0.7,1.176c-2.772,10.909-7.483,17.436-14.005,19.397   C236.891,156.421,235.435,156.61,233.994,156.61z"/>
	<path style="fill:#F9DAC0;" d="M224.486,95.581c0,0,6.804,16.356-5.233,30.505s-34.356,10.117-30.934,1.113   C191.741,118.195,224.486,95.581,224.486,95.581z"/>
	<path style="fill:#F9DAC0;" d="M211.99,82.195c0,0-14.048-22.026-29.949-2.207s-24.593,32.576-8.372,27.983   C189.892,103.379,211.99,82.195,211.99,82.195z"/>
	<path style="fill:#251626;" d="M208.246,124.733c-0.178,0-0.355-0.009-0.533-0.028c-1.446-0.146-2.116-0.934-2.424-1.569   c-1.562-3.227,2.832-10.386,3.729-11.789c0.287-0.454,0.885-0.58,1.337-0.293c0.45,0.287,0.582,0.885,0.293,1.337   c-1.985,3.11-4.421,8.238-3.615,9.902c0.061,0.127,0.202,0.42,0.875,0.488c3.746,0.352,8.593-5.653,10.117-8.015   c0.291-0.448,0.891-0.579,1.339-0.287c0.448,0.289,0.579,0.889,0.287,1.339C219.409,116.191,213.826,124.731,208.246,124.733z"/>
	<path style="fill:#251626;" d="M181.046,98.024c-0.796,0-1.518-0.189-2.123-0.63c-0.66-0.482-1.004-1.159-0.995-1.961   c0.042-3.471,7.676-8.939,9.206-10c0.437-0.301,1.042-0.195,1.348,0.244c0.304,0.441,0.195,1.044-0.244,1.348   c-3.464,2.401-8.351,6.606-8.374,8.433c-0.002,0.146,0.03,0.248,0.2,0.371c1.847,1.344,7.671-2.422,11.218-5.527   c0.401-0.35,1.012-0.314,1.365,0.091c0.352,0.401,0.312,1.013-0.091,1.365C191.199,92.95,185.164,98.023,181.046,98.024z"/>
	<path style="fill:#251626;" d="M148.993,149.717c-1.178,0-2.256-0.306-3.227-0.923c-5.553-3.519-4.935-15.434-4.689-16.604   c0.505-2.401,49.314-35.438,78.365-54.916c0.439-0.297,1.044-0.18,1.342,0.265s0.18,1.046-0.265,1.342   c-29.909,20.055-74.933,50.737-77.574,53.855c-0.285,1.91-0.276,11.804,3.857,14.422c2.085,1.322,5.073,0.522,8.888-2.369   c14.706-11.148,76.187-54.585,76.807-55.022c0.431-0.308,1.038-0.208,1.348,0.233c0.308,0.437,0.204,1.04-0.233,1.348   c-0.618,0.437-62.072,43.855-76.754,54.984C153.886,148.586,151.254,149.717,148.993,149.717z"/>
	<path style="fill:#F9DAC0;" d="M137.974,109.512c0,0,29.951,48.829,30.844,54.547c0.893,5.718-54.045,16.208-61.926,7.934   C98.188,162.854,98.727,132.9,137.974,109.512z"/>
	<path style="fill:#251626;" d="M255.367,101.893c-3.367,0-6.374-1.501-8.232-4.288c-0.633-0.949-1.085-1.966-1.358-3.019   c-3.197,0.501-7.495-0.095-13.184-3.176c-12.271-6.642-14.591-14.184-14.375-19.342c0.045-1.104,0.212-2.178,0.476-3.212   c-0.043-0.045-0.087-0.091-0.129-0.136c-4.097-4.407-4.559-13.716,1.84-21.072c2.471-2.842,5.362-4.188,8.563-4.038   c8.208,0.416,15.57,10.722,15.878,11.161c0.308,0.437,0.204,1.04-0.233,1.348c-0.429,0.305-1.038,0.207-1.348-0.232   c-0.072-0.1-7.134-9.978-14.4-10.344c-2.554-0.12-4.939,1.006-7.001,3.375c-5.863,6.742-4.997,14.222-2.454,17.778   c1.815-4.443,5.413-7.903,8.9-9.43c3.123-1.368,5.15-1.302,6.026,0.196c1.584,2.719-2.573,8.554-7.294,12.089   c-2.148,1.609-4.557,1.796-6.655,0.622c-0.127,0.645-0.206,1.305-0.234,1.976c-0.191,4.606,1.97,11.392,13.364,17.559   c5.258,2.847,9.147,3.392,11.959,2.938c-0.168-3.044,1.038-6.241,3.536-8.958c2.422-2.636,3.984-2.097,4.7-1.541   c1.637,1.272,1.403,4.825-0.51,7.756c-0.696,1.066-2.405,3.171-5.517,4.218c0.234,0.913,0.609,1.73,1.063,2.411   c2.118,3.173,6.156,4.248,10.28,2.753c9.232-3.356,2.292-22.806,2.222-23.002c-0.183-0.503,0.076-1.059,0.579-1.24   c0.507-0.182,1.059,0.076,1.24,0.579c0.318,0.875,7.661,21.471-3.379,25.483C258.222,101.636,256.764,101.893,255.367,101.893z    M252.377,83.638c-0.299,0-0.964,0.293-1.942,1.358c-2.242,2.441-3.046,4.948-3.018,7.136c2.339-0.887,3.619-2.458,4.161-3.288   c1.59-2.435,1.435-4.785,0.942-5.167C252.491,83.651,252.444,83.638,252.377,83.638z M220.914,68.219   c1.552,1.089,3.313,1.021,4.967-0.219c4.969-3.721,7.404-8.495,6.782-9.563c-0.123-0.214-1.012-0.518-3.577,0.602   C225.871,60.446,222.419,63.901,220.914,68.219z"/>
	<path style="fill:#251626;" d="M117.452,153.799c-0.403,0-0.777-0.251-0.915-0.654c-0.174-0.505,0.095-1.055,0.601-1.229   c5.071-1.741,18.353-7.612,18.892-13.778c0.231-2.645-1.944-5.252-6.462-7.752c-0.467-0.259-0.637-0.847-0.378-1.316   c0.257-0.469,0.847-0.632,1.316-0.378c5.251,2.904,7.758,6.139,7.453,9.614c-0.76,8.677-19.399,15.167-20.193,15.44   C117.662,153.782,117.556,153.799,117.452,153.799z"/>
	<path style="fill:#251626;" d="M129.683,165.419c-0.132,0-0.265-0.026-0.391-0.083c-0.49-0.216-0.711-0.788-0.493-1.276   c0.943-2.133,9.357-20.717,15.82-20.717c0.043,0,0.087,0.002,0.13,0.002c1.874,0.074,3.33,1.543,4.324,4.366   c0.178,0.505-0.087,1.057-0.592,1.235c-0.505,0.18-1.057-0.087-1.235-0.592c-0.705-2-1.571-3.035-2.573-3.072   c-0.025-0.002-0.049-0.002-0.074-0.002c-3.912,0-10.667,11.966-14.031,19.563C130.409,165.204,130.054,165.419,129.683,165.419z"/>
	<path style="fill:#251626;" d="M180.844,160.925c-1.993,0-4.447-0.962-7.34-2.88c-0.446-0.297-0.567-0.896-0.272-1.342   c0.299-0.448,0.9-0.562,1.342-0.272c2.547,1.69,5.997,3.418,7.95,2.085c3.01-2.055,1.987-10.308,1.339-13.314   c-0.113-0.522,0.219-1.038,0.741-1.15c0.512-0.115,1.038,0.219,1.15,0.741c0.268,1.237,2.475,12.172-2.138,15.32   C182.825,160.655,181.899,160.925,180.844,160.925z"/>
	<path style="fill:#251626;" d="M271.859,85.96c-0.285,0-0.567-0.125-0.758-0.367c-0.333-0.418-0.263-1.029,0.157-1.359   c16.2-12.846,3.235-46.456-1.168-53.994c-0.991,5.208-0.647,26.928,0.263,46.59c0.026,0.535-0.388,0.987-0.921,1.012   c-0.533,0.066-0.989-0.388-1.012-0.921c-0.006-0.119-0.554-12.021-0.771-23.882c-0.452-24.672,0.83-25.114,1.859-25.47   c0.274-0.095,0.974-0.218,1.583,0.638c3.957,5.561,19.701,43.009,1.371,57.543C272.283,85.892,272.071,85.96,271.859,85.96z"/>
	<path style="fill:#251626;" d="M238.195,46.443c-0.106,0-0.216-0.018-0.321-0.055c-0.505-0.178-0.77-0.731-0.592-1.235   c0.061-0.17,5.914-17.103-0.062-27.294c-0.27-0.461-0.115-1.054,0.346-1.324c0.458-0.271,1.053-0.116,1.325,0.345   c6.432,10.971,0.475,28.19,0.217,28.918C238.968,46.194,238.594,46.443,238.195,46.443z"/>
	<path style="fill:#C7AEB0;" d="M163.912,389.034c0,0-9.248,100.926-2.272,108.045c6.976,7.119,53.981,5.247,53.981,5.247   s-4.728-112.814-8.239-114.025C203.869,387.09,163.912,389.034,163.912,389.034z"/>
	<path style="fill:#C7AEB0;" d="M258.148,395.361c0,0,12.642,100.557,20.983,106.012c8.342,5.455,53.848-6.468,53.848-6.468   s-28.844-109.167-32.533-109.595C296.757,384.882,258.148,395.361,258.148,395.361z"/>
	<path style="fill:#F9DAC0;" d="M260.395,422.146c0,0,3.524-112.833-21.729-131.118s-48.157,71.107-28.19,132.056   C210.476,423.084,229.856,429.78,260.395,422.146z"/>
	<path style="fill:#EE919B;" d="M93.78,236.324c0,0,193.052-40.327,194.059-23.871c1.008,16.455,18.951,104.57,15.427,107.506   c-8.513,7.094-188.566,34.086-190.867,29.364C110.099,344.601,93.78,236.324,93.78,236.324z"/>
	<path style="fill:#C7AEB0;" d="M297.57,244.203c0,0-43.693,14.961-54.342,50.72c0,0,10.003,19.53,14.163,22.274   c4.16,2.744,56.024-36.677,62.22-41.545C325.806,270.783,297.57,244.203,297.57,244.203z"/>
	<path style="fill:#251626;" d="M252.691,277.134c0,0,22.483,31.797,20.885,32.743c-1.598,0.946-17.66,12.823-19.382,13.195   c-1.722,0.372-18.25-26.102-18.25-26.102L252.691,277.134z"/>
	<path style="fill:#251626;" d="M290.538,297.571c-0.316,0-0.626-0.155-0.811-0.439c-0.291-0.448-0.166-1.047,0.282-1.341   c0.741-0.482,18.304-11.826,34.37-12.878c0.495-0.032,0.993,0.369,1.029,0.904c0.034,0.533-0.369,0.993-0.904,1.029   c-15.561,1.019-33.26,12.452-33.435,12.568C290.903,297.52,290.719,297.571,290.538,297.571z"/>
	<path style="fill:#251626;" d="M110.638,214.247l35.824-9.397c0,0-1.762-23.491-4.698-22.904s-34.062,7.047-34.65,8.809   C106.527,192.518,110.638,214.247,110.638,214.247z"/>
	<path style="fill:#251626;" d="M273.315,483.81c0,0,51.681-14.095,53.443-9.984c1.762,4.111,8.222,23.491,7.635,25.253   s-55.205,9.984-58.728,7.635C272.141,504.365,273.315,483.81,273.315,483.81z"/>
	<path style="fill:#251626;" d="M158.795,483.223c0,0,55.205,0,56.379,1.762c1.175,1.762,4.698,27.015,2.349,27.015   c-2.349,0-57.554-1.175-59.903-2.349C155.272,508.476,158.795,483.223,158.795,483.223z"/>
	<g>
		<path style="fill:#FFFFFF;" d="M148.959,287.266l2.302,14.669l0.275,2.062l0.223,1.934l0.914-0.122l1.985-0.334    c1.895-0.253,2.919,0.196,3.072,1.346c0.078,0.586-0.086,1.12-0.493,1.598c-0.406,0.479-0.914,0.759-1.522,0.84l-3.044,0.406    c-2.098,0.28-3.446,0.414-4.044,0.401c-0.355,0.094-0.634,0.154-0.837,0.181c-1.646,0.22-2.538-0.189-2.677-1.226    c-0.057-0.429,0.023-0.852,0.244-1.272c0.22-0.419,0.463-0.659,0.73-0.717l1.961-0.262l0.014-0.932l-2.436-14.651l-1.686-15.474    c-0.353-2.639-0.796-5.104-1.332-7.396l-1.318,0.176l-1.581,0.279c-0.677,0.09-1.224,0.032-1.642-0.177    c-0.418-0.207-0.675-0.672-0.771-1.394c-0.142-1.06,0.926-1.741,3.205-2.045l8.253-1.101c1.871-0.25,2.872,0.111,3.001,1.08    c0.058,0.429-0.093,0.851-0.451,1.265c-0.356,0.415-0.796,0.658-1.314,0.727l-3.551,0.474c0.433,1.87,0.809,4,1.128,6.391    L148.959,287.266z"/>
	</g>
	<g>
		<path style="fill:#FFFFFF;" d="M238.353,262.048l0.201,1.18c2.306,20.551,0.475,31.161-5.494,31.831    c-2.304,0.28-4.116-0.466-5.437-2.241c-1.372-1.815-2.289-3.669-2.754-5.563c-0.716-2.918-1.318-6.291-1.804-10.116    c-0.487-3.826-1.136-9.355-1.948-16.591l-1.42-9.902c0.32-1.019,0.758-1.562,1.312-1.624s1.094,0.307,1.618,1.106    c0.524,0.799,0.84,1.674,0.947,2.624l2.119,18.889c0.185,1.65,0.624,4.085,1.317,7.304c0.692,3.219,1.132,5.654,1.317,7.304    c0.38,3.391,2.04,4.922,4.979,4.592c3.3-0.37,3.555-13.001,0.762-37.893l-0.438-3.899l-0.164-1.15    c-0.061-0.542,0.019-0.963,0.237-1.263c0.217-0.299,0.637-0.483,1.259-0.553c0.622-0.07,1.103-0.021,1.442,0.147    c0.313,0.148,0.559,0.396,0.735,0.742c0.244,0.545,0.43,1.28,0.557,2.204l0.309,7.039L238.353,262.048z"/>
	</g>
	<path style="fill:#E33961;" d="M199.318,304.689c0,0-48.157-32.301-38.173-44.046c9.984-11.746,26.428,7.635,26.428,7.635   s4.111-24.079,18.793-21.729S199.318,304.689,199.318,304.689z"/>
	<path style="fill:#251626;" d="M211.417,425.609c-0.032,0-0.062-0.002-0.095-0.004c-30.584-2.929-37.947-21.77-38.245-22.57   c-0.185-0.501,0.068-1.057,0.567-1.244c0.505-0.183,1.059,0.066,1.246,0.565c0.07,0.185,7.306,18.514,36.618,21.32   c0.531,0.051,0.923,0.524,0.872,1.057C212.33,425.234,211.909,425.609,211.417,425.609z"/>
	<g>
		<path style="fill:#251426;" d="M207.758,442.96c-0.14,0-0.282-0.03-0.416-0.093c-0.482-0.231-0.688-0.807-0.459-1.291    c1.04-2.188-0.155-5.631-0.168-5.665c-0.178-0.503,0.087-1.057,0.59-1.235c0.505-0.181,1.057,0.083,1.235,0.586    c0.062,0.172,1.479,4.228,0.095,7.145C208.467,442.756,208.12,442.96,207.758,442.96z"/>
		<path style="fill:#251426;" d="M196.928,447.013c-0.14,0-0.282-0.03-0.416-0.093c-0.482-0.231-0.688-0.807-0.459-1.291    c1.04-2.188-0.155-5.631-0.168-5.665c-0.178-0.503,0.087-1.057,0.59-1.235c0.503-0.182,1.055,0.083,1.235,0.586    c0.062,0.172,1.479,4.228,0.095,7.145C197.637,446.809,197.289,447.013,196.928,447.013z"/>
		<path style="fill:#251426;" d="M200.381,434.077c-0.14,0-0.28-0.03-0.414-0.093c-0.484-0.229-0.69-0.807-0.461-1.289    c0.866-1.826,0.174-4.71-0.166-5.665c-0.18-0.505,0.083-1.059,0.586-1.237c0.507-0.189,1.059,0.083,1.237,0.586    c0.062,0.172,1.477,4.228,0.095,7.143C201.09,433.873,200.742,434.077,200.381,434.077z"/>
		<path style="fill:#251426;" d="M207.736,456.267c-0.14,0-0.282-0.03-0.416-0.095c-0.482-0.229-0.688-0.805-0.458-1.289    c0.866-1.825,0.172-4.706-0.168-5.663c-0.18-0.505,0.083-1.057,0.586-1.237c0.505-0.183,1.059,0.083,1.237,0.586    c0.062,0.172,1.479,4.23,0.093,7.145C208.445,456.062,208.097,456.267,207.736,456.267z"/>
		<path style="fill:#251426;" d="M204.126,470.247c-0.2,0-0.403-0.062-0.575-0.189c-0.431-0.32-0.522-0.925-0.204-1.354    c1.202-1.626,1.074-4.587,0.925-5.591c-0.079-0.529,0.284-1.021,0.813-1.1s1.021,0.284,1.1,0.813    c0.028,0.18,0.639,4.434-1.28,7.028C204.714,470.11,204.421,470.247,204.126,470.247z"/>
		<path style="fill:#251426;" d="M189.974,460.566c-0.2,0-0.403-0.062-0.575-0.189c-0.431-0.32-0.522-0.925-0.204-1.354    c1.202-1.626,1.076-4.587,0.926-5.591c-0.079-0.529,0.285-1.023,0.813-1.1c0.52-0.078,1.021,0.284,1.1,0.813    c0.028,0.18,0.637,4.434-1.282,7.028C190.562,460.43,190.269,460.566,189.974,460.566z"/>
		<path style="fill:#251426;" d="M194.47,471.882c-0.2,0-0.403-0.062-0.575-0.189c-0.431-0.32-0.522-0.925-0.204-1.354    c1.202-1.626,1.076-4.587,0.926-5.591c-0.079-0.529,0.286-1.023,0.813-1.1c0.524-0.074,1.021,0.284,1.1,0.813    c0.028,0.18,0.637,4.434-1.282,7.028C195.058,471.746,194.765,471.882,194.47,471.882z"/>
		<path style="fill:#251426;" d="M199.972,459.165c-0.14,0-0.282-0.03-0.414-0.093c-0.484-0.231-0.69-0.807-0.461-1.289    c1.038-2.188-0.155-5.631-0.168-5.665c-0.178-0.503,0.087-1.057,0.59-1.235c0.503-0.178,1.057,0.083,1.235,0.586    c0.062,0.172,1.477,4.228,0.095,7.141C200.681,458.961,200.334,459.165,199.972,459.165z"/>
	</g>
	<g>
		<path style="fill:#251426;" d="M309.424,434.59c-0.03,0-0.061-0.002-0.091-0.004c-0.531-0.049-0.925-0.52-0.875-1.053    c0.183-2.012-1.462-4.477-2.112-5.256c-0.342-0.41-0.287-1.021,0.123-1.363c0.408-0.342,1.019-0.287,1.363,0.123    c0.117,0.14,2.847,3.458,2.554,6.674C310.341,434.211,309.918,434.59,309.424,434.59z"/>
		<path style="fill:#251426;" d="M300.661,442.132c-0.03,0-0.06-0.002-0.089-0.004c-0.533-0.049-0.925-0.52-0.877-1.051    c0.183-2.012-1.463-4.477-2.112-5.256c-0.342-0.412-0.287-1.021,0.123-1.363c0.408-0.342,1.021-0.287,1.363,0.123    c0.117,0.14,2.846,3.458,2.554,6.67C301.578,441.753,301.154,442.132,300.661,442.132z"/>
		<path style="fill:#251426;" d="M299.434,428.8c-0.03,0-0.06-0.002-0.089-0.004c-0.533-0.049-0.925-0.52-0.877-1.051    c0.219-2.413-2.089-5.232-2.114-5.26c-0.34-0.41-0.284-1.021,0.127-1.363c0.412-0.342,1.019-0.285,1.361,0.125    c0.117,0.14,2.846,3.458,2.554,6.672C300.351,428.422,299.927,428.8,299.434,428.8z"/>
		<path style="fill:#251426;" d="M313.998,447.085c-0.03,0-0.06-0.002-0.091-0.004c-0.531-0.049-0.925-0.52-0.875-1.053    c0.221-2.411-2.089-5.228-2.114-5.256c-0.34-0.41-0.284-1.021,0.127-1.361c0.412-0.344,1.019-0.285,1.361,0.123    c0.117,0.14,2.847,3.458,2.554,6.672C314.915,446.707,314.491,447.085,313.998,447.085z"/>
		<path style="fill:#251426;" d="M315.435,461.453c-0.089,0-0.182-0.013-0.272-0.04c-0.512-0.149-0.807-0.686-0.656-1.201    c0.565-1.938-0.577-4.674-1.064-5.564c-0.257-0.469-0.085-1.057,0.384-1.314c0.463-0.255,1.055-0.087,1.314,0.384    c0.087,0.159,2.129,3.94,1.223,7.039C316.24,461.179,315.855,461.453,315.435,461.453z"/>
		<path style="fill:#251426;" d="M298.812,457.254c-0.089,0-0.182-0.013-0.272-0.04c-0.512-0.149-0.807-0.686-0.656-1.201    c0.565-1.938-0.577-4.674-1.064-5.564c-0.257-0.469-0.085-1.057,0.384-1.314c0.461-0.255,1.057-0.087,1.314,0.384    c0.087,0.159,2.129,3.94,1.223,7.039C299.617,456.979,299.231,457.254,298.812,457.254z"/>
		<path style="fill:#251426;" d="M306.938,466.321c-0.089,0-0.182-0.013-0.272-0.04c-0.512-0.149-0.807-0.686-0.656-1.201    c0.565-1.94-0.577-4.676-1.064-5.566c-0.257-0.469-0.085-1.057,0.384-1.314c0.465-0.255,1.055-0.087,1.314,0.384    c0.087,0.159,2.129,3.94,1.223,7.041C307.743,466.047,307.358,466.321,306.938,466.321z"/>
		<path style="fill:#251426;" d="M307.711,452.487c-0.03,0-0.061-0.002-0.091-0.004c-0.531-0.049-0.925-0.52-0.875-1.053    c0.183-2.012-1.462-4.477-2.112-5.256c-0.342-0.41-0.287-1.021,0.123-1.363c0.408-0.342,1.019-0.287,1.363,0.123    c0.117,0.14,2.847,3.458,2.554,6.674C308.628,452.109,308.205,452.487,307.711,452.487z"/>
	</g>
	<g>
		<path style="fill:#251426;" d="M272.708,265.429c-0.193,0-0.386-0.057-0.556-0.176c-0.437-0.306-0.543-0.909-0.238-1.346    c0.106-0.149,2.588-3.657,5.769-4.216c0.516-0.108,1.029,0.257,1.121,0.785c0.093,0.528-0.259,1.029-0.785,1.121    c-2.386,0.422-4.498,3.39-4.519,3.42C273.312,265.285,273.013,265.429,272.708,265.429z"/>
		<path style="fill:#251426;" d="M282.289,271.904c-0.193,0-0.386-0.057-0.556-0.176c-0.437-0.306-0.543-0.909-0.238-1.346    c0.106-0.149,2.588-3.657,5.769-4.216c0.51-0.104,1.027,0.259,1.121,0.785c0.093,0.527-0.259,1.029-0.785,1.121    c-2.386,0.422-4.498,3.39-4.519,3.42C282.892,271.761,282.593,271.904,282.289,271.904z"/>
		<path style="fill:#251426;" d="M269.747,276.59c-0.193,0-0.386-0.057-0.554-0.174c-0.439-0.306-0.546-0.911-0.24-1.348    c0.106-0.149,2.588-3.657,5.767-4.216c0.512-0.102,1.027,0.257,1.121,0.785c0.093,0.528-0.259,1.029-0.785,1.121    c-1.989,0.352-3.935,2.586-4.515,3.418C270.353,276.446,270.052,276.59,269.747,276.59z"/>
		<path style="fill:#251426;" d="M283.567,257.734c-0.193,0-0.386-0.057-0.556-0.174c-0.437-0.308-0.545-0.911-0.238-1.35    c0.106-0.147,2.588-3.653,5.769-4.214c0.514-0.102,1.029,0.257,1.121,0.785c0.093,0.526-0.257,1.029-0.785,1.121    c-1.989,0.352-3.936,2.588-4.517,3.42C284.172,257.59,283.871,257.734,283.567,257.734z"/>
		<path style="fill:#251426;" d="M296.414,251.513c-0.253,0-0.507-0.098-0.698-0.297c-0.371-0.384-0.359-0.996,0.026-1.369    c0.129-0.125,3.178-3.027,6.372-3.027c0.032,0,0.064,0,0.096,0c0.535,0.009,0.96,0.452,0.951,0.985    c-0.009,0.535-0.359,0.921-0.985,0.951c-1.968-0.091-4.36,1.781-5.092,2.486C296.898,251.422,296.656,251.513,296.414,251.513z"/>
		<path style="fill:#251426;" d="M296.726,268.656c-0.253,0-0.507-0.098-0.698-0.297c-0.371-0.384-0.359-0.996,0.026-1.369    c0.129-0.125,3.18-3.029,6.372-3.029c0.034,0,0.064,0,0.096,0c0.535,0.009,0.96,0.452,0.951,0.985    c-0.009,0.535-0.493,1.019-0.985,0.951c-2.097-0.095-4.36,1.783-5.092,2.488C297.21,268.565,296.968,268.656,296.726,268.656z"/>
		<path style="fill:#251426;" d="M303.342,258.433c-0.253,0-0.507-0.098-0.698-0.297c-0.371-0.386-0.359-0.998,0.026-1.369    c0.129-0.125,3.182-3.027,6.372-3.027c0.034,0,0.064,0,0.096,0c0.535,0.009,0.96,0.452,0.951,0.985    c-0.009,0.535-0.355,0.932-0.985,0.951c-2.078-0.008-4.362,1.781-5.092,2.486C303.826,258.342,303.584,258.433,303.342,258.433z"/>
		<path style="fill:#251426;" d="M290.428,262.381c-0.193,0-0.386-0.057-0.556-0.174c-0.437-0.308-0.545-0.911-0.238-1.35    c0.106-0.147,2.588-3.653,5.769-4.214c0.518-0.104,1.029,0.259,1.121,0.785c0.093,0.526-0.257,1.029-0.785,1.121    c-1.989,0.352-3.936,2.588-4.517,3.42C291.033,262.237,290.733,262.381,290.428,262.381z"/>
	</g>
	<g>
		<path style="fill:#251426;" d="M355.009,342.033c-0.185,0-0.374-0.053-0.539-0.164c-0.444-0.297-0.563-0.898-0.265-1.342    c1.348-2.012,0.671-5.593,0.666-5.629c-0.102-0.524,0.24-1.032,0.764-1.134c0.512-0.108,1.03,0.236,1.134,0.762    c0.036,0.178,0.839,4.398-0.957,7.079C355.628,341.882,355.321,342.033,355.009,342.033z"/>
		<path style="fill:#251426;" d="M341.457,381.723c-0.185,0-0.374-0.053-0.539-0.164c-0.444-0.297-0.563-0.898-0.265-1.342    c1.348-2.012,0.671-5.593,0.666-5.629c-0.102-0.524,0.24-1.032,0.764-1.134c0.516-0.106,1.032,0.236,1.134,0.762    c0.036,0.178,0.839,4.398-0.957,7.079C342.075,381.572,341.769,381.723,341.457,381.723z"/>
		<path style="fill:#251426;" d="M343.701,344.451c-0.185,0-0.374-0.053-0.539-0.165c-0.444-0.297-0.563-0.898-0.265-1.342    c1.348-2.012,0.671-5.593,0.666-5.629c-0.102-0.524,0.24-1.032,0.764-1.134c0.516-0.112,1.032,0.236,1.134,0.762    c0.036,0.178,0.839,4.398-0.957,7.079C344.319,344.3,344.013,344.451,343.701,344.451z"/>
		<path style="fill:#251426;" d="M349.016,332.164c-0.185,0-0.372-0.053-0.539-0.164c-0.444-0.297-0.563-0.898-0.265-1.342    c1.348-2.014,0.671-5.595,0.666-5.631c-0.102-0.524,0.24-1.032,0.764-1.134c0.514-0.11,1.032,0.236,1.134,0.762    c0.036,0.178,0.839,4.398-0.957,7.081C349.634,332.012,349.328,332.164,349.016,332.164z"/>
		<path style="fill:#251426;" d="M353.03,355.193c-0.187,0-0.374-0.053-0.539-0.164c-0.444-0.297-0.563-0.898-0.265-1.342    c1.125-1.679,0.862-4.63,0.667-5.627c-0.104-0.524,0.238-1.034,0.762-1.136c0.514-0.108,1.032,0.238,1.136,0.762    c0.036,0.178,0.839,4.398-0.959,7.079C353.646,355.043,353.34,355.193,353.03,355.193z"/>
		<path style="fill:#251426;" d="M347.405,368.49c-0.248,0-0.495-0.095-0.684-0.284c-0.378-0.376-0.378-0.991,0-1.369    c1.709-1.713,1.736-5.356,1.736-5.392c0-0.535,0.435-0.968,0.968-0.968l0,0c0.535,0,0.968,0.433,0.968,0.968    c0,0.182-0.023,4.475-2.303,6.761C347.9,368.395,347.653,368.49,347.405,368.49z"/>
		<path style="fill:#251426;" d="M333.529,394.306c-0.248,0-0.495-0.095-0.684-0.282c-0.378-0.378-0.378-0.991-0.002-1.371    c1.427-1.431,1.739-4.379,1.738-5.394c0-0.533,0.433-0.968,0.968-0.968l0,0c0.535,0,0.968,0.433,0.968,0.968    c0,0.181-0.023,4.475-2.301,6.763C334.026,394.211,333.777,394.306,333.529,394.306z"/>
		<path style="fill:#251426;" d="M331.272,380.43c-0.248,0-0.495-0.095-0.684-0.284c-0.378-0.376-0.378-0.991,0-1.369    c1.709-1.713,1.734-5.358,1.734-5.394c0-0.533,0.433-0.968,0.968-0.968c0.533,0,0.968,0.433,0.968,0.966    c0,0.182-0.021,4.479-2.301,6.765C331.767,380.335,331.519,380.43,331.272,380.43z"/>
		<path style="fill:#251426;" d="M334.83,356.836c-0.248,0-0.495-0.095-0.684-0.284c-0.378-0.376-0.378-0.991,0-1.369    c1.426-1.429,1.738-4.377,1.736-5.394c0-0.533,0.433-0.968,0.968-0.968l0,0c0.535,0,0.968,0.433,0.968,0.968    c0,0.181-0.023,4.477-2.303,6.763C335.325,356.741,335.078,356.836,334.83,356.836z"/>
		<path style="fill:#251426;" d="M337.615,368.689c-0.248,0-0.495-0.095-0.684-0.284c-0.378-0.376-0.378-0.991,0-1.369    c1.709-1.713,1.734-5.358,1.734-5.394c0-0.533,0.433-0.968,0.968-0.968c0.533,0,0.968,0.433,0.968,0.966    c0,0.182-0.021,4.479-2.301,6.765C338.11,368.594,337.863,368.689,337.615,368.689z"/>
		<path style="fill:#251426;" d="M344.924,356.919c-0.187,0-0.374-0.053-0.539-0.164c-0.444-0.297-0.563-0.898-0.265-1.342    c1.125-1.679,0.862-4.63,0.667-5.627c-0.104-0.524,0.238-1.034,0.762-1.136c0.516-0.112,1.032,0.236,1.136,0.762    c0.036,0.178,0.839,4.398-0.959,7.079C345.541,356.769,345.234,356.919,344.924,356.919z"/>
	</g>
	<g>
		<path style="fill:#251426;" d="M208.552,198.008c-0.524,0-0.955-0.418-0.968-0.943c-0.004-0.182-0.091-4.477,2.133-6.818    c0.367-0.391,0.981-0.403,1.367-0.036c0.389,0.367,0.405,0.979,0.036,1.367c-1.668,1.758-1.601,5.402-1.6,5.438    c0.013,0.535-0.41,0.977-0.943,0.993C208.568,198.008,208.56,198.008,208.552,198.008z"/>
		<path style="fill:#251426;" d="M220.107,197.52c-0.524,0-0.953-0.416-0.968-0.942c-0.004-0.183-0.093-4.479,2.131-6.82    c0.369-0.391,0.983-0.401,1.367-0.036c0.389,0.367,0.405,0.979,0.036,1.367c-1.39,1.467-1.624,4.422-1.598,5.436    c0.013,0.535-0.408,0.979-0.942,0.995C220.124,197.52,220.114,197.52,220.107,197.52z"/>
		<path style="fill:#251426;" d="M212.807,208.743c-0.524,0-0.955-0.418-0.968-0.943c-0.004-0.182-0.091-4.477,2.133-6.818    c0.369-0.391,0.981-0.401,1.367-0.036c0.389,0.367,0.405,0.979,0.036,1.367c-1.668,1.758-1.601,5.402-1.6,5.438    c0.013,0.535-0.41,0.977-0.943,0.993C212.822,208.743,212.814,208.743,212.807,208.743z"/>
		<path style="fill:#251426;" d="M212.708,185.364c-0.524,0-0.955-0.416-0.968-0.943c-0.004-0.182-0.091-4.475,2.129-6.816    c0.369-0.388,0.981-0.401,1.369-0.038c0.388,0.369,0.405,0.981,0.038,1.369c-1.392,1.467-1.626,4.421-1.6,5.436    c0.013,0.533-0.408,0.978-0.943,0.993C212.725,185.364,212.716,185.364,212.708,185.364z"/>
		<path style="fill:#251426;" d="M219.341,172.725c-0.055,0-0.11-0.006-0.164-0.015c-0.526-0.089-0.881-0.588-0.792-1.114    c0.03-0.18,0.771-4.411,3.401-6.281c0.435-0.308,1.038-0.208,1.35,0.227c0.31,0.437,0.208,1.04-0.227,1.35    c-1.974,1.405-2.609,4.992-2.615,5.027C220.213,172.39,219.802,172.725,219.341,172.725z"/>
		<path style="fill:#251426;" d="M229.785,186.323c-0.055,0-0.11-0.006-0.165-0.015c-0.526-0.089-0.881-0.586-0.792-1.114    c0.03-0.18,0.77-4.413,3.401-6.283c0.433-0.31,1.04-0.208,1.35,0.227c0.31,0.437,0.208,1.04-0.227,1.35    c-1.976,1.405-2.609,4.993-2.615,5.029C230.657,185.988,230.247,186.323,229.785,186.323z"/>
		<path style="fill:#251426;" d="M229.025,174.171c-0.055,0-0.108-0.004-0.163-0.013c-0.528-0.089-0.883-0.588-0.794-1.116    c0.03-0.18,0.771-4.413,3.403-6.283c0.433-0.31,1.04-0.208,1.35,0.227c0.31,0.437,0.208,1.04-0.227,1.35    c-1.649,1.172-2.448,4.027-2.617,5.027C229.899,173.837,229.488,174.171,229.025,174.171z"/>
		<path style="fill:#251426;" d="M220.988,185.022c-0.524,0-0.955-0.418-0.968-0.943c-0.004-0.182-0.091-4.477,2.133-6.818    c0.367-0.391,0.981-0.401,1.367-0.036c0.389,0.367,0.405,0.979,0.036,1.367c-1.668,1.758-1.601,5.402-1.6,5.438    c0.013,0.535-0.41,0.977-0.943,0.993C221.003,185.022,220.995,185.022,220.988,185.022z"/>
	</g>
</g>















</svg>
