<?xml version="1.0" encoding="UTF-8"?>
<!-- Generator: Adobe Illustrator 25.2.0, SVG Export Plug-In . SVG Version: 6.00 Build 0)  -->
<svg xmlns="http://www.w3.org/2000/svg" xmlns:xlink="http://www.w3.org/1999/xlink" version="1.1" id="Capa_1" x="0px" y="0px" viewBox="0 0 512 512" style="enable-background:new 0 0 512 512;" xml:space="preserve" width="512" height="512">
<g>
	<path style="fill:#251426;" d="M171.097,249.828c-0.368,0-0.73-0.175-0.955-0.501c-0.44-0.637-43.748-64.525-23.073-128.728   c20.922-64.968,74.784-102.268,85.027-103.406c10.284-1.16,24.754,26.539,26.365,29.701c0.291,0.571,0.065,1.268-0.506,1.559   c-0.573,0.29-1.269,0.063-1.559-0.506c-4.178-8.192-16.64-29.272-24.044-28.449c-9.959,1.106-62.461,37.795-83.075,101.812   c-20.33,63.129,22.341,126.072,22.774,126.702c0.363,0.526,0.231,1.249-0.297,1.612   C171.553,249.761,171.323,249.828,171.097,249.828z"/>
	<path style="fill:#251626;" d="M229.029,96.104c0,0-42.309-39.99-45.206-38.252c-2.898,1.739-13.33,16.228-13.33,16.228   s51.582,35.354,53.32,34.774C225.552,108.275,229.029,96.104,229.029,96.104z"/>
	<path style="fill:#251626;" d="M216.858,129.14l-64.912-22.024c0,0-4.057,14.489-4.057,19.126s67.23,16.421,67.23,16.421   L216.858,129.14z"/>
	<path style="fill:#251626;" d="M211.062,167.391c0,0-69.548-10.432-68.969-8.114c0.58,2.318,0,17.387,1.739,20.285   c1.739,2.898,64.912-0.58,64.912-0.58L211.062,167.391z"/>
	<path style="fill:#251626;" d="M202.948,198.108c0,0-55.059,2.318-53.32,5.216s5.216,12.171,5.216,12.171   s46.945-3.477,47.525-5.796C202.948,207.381,202.948,198.108,202.948,198.108z"/>
	<polygon style="fill:#251626;" points="245.837,60.75 211.642,28.874 220.915,22.499 251.632,52.057  "/>
	<path style="fill:#251626;" d="M162.302,368.183c0,0-71.746-27.039-99.113,76.295l35.564,15.973c0,0-2.445-47.322,28.255-57.024   c0,0-18.098,5.201-9.841,38.636l30.664,6.155c0,0-30.022-47.864,15.384-70.527"/>
	<path style="fill:#F9D6BE;" d="M330.054,214.526c0,0,64.009,192.996,10.668,206.573c-53.341,13.578-119.369,4.316-132.866,4.849   c-73.707,2.909-103.772-146.444,0.97-221.121L330.054,214.526z"/>
	<path style="fill:#251626;" d="M248.288,70.587c0,0-44.772-33.108-47.453-28.177s-1.34,17.846,8.043,33.578   c9.383,15.732,38.874,1.174,38.874,1.174L248.288,70.587z"/>
	<path style="fill:#251626;" d="M274.653,54.921c0,0,0.049-55.684-5.51-54.913c-5.559,0.771-15.154,9.519-22.239,26.412   s22.141,31.974,22.141,31.974L274.653,54.921z"/>
	<path style="fill:#F9D6BE;" d="M198.021,254.49c0,0,23.287-212.494,65.495-208.128s145.18,72.345,164.101,88.782   c11.042,9.593-20.012,56.762-25.834,55.307s-82.96-40.752-82.96-40.752l17.465,107.702L198.021,254.49z"/>
	<path style="fill:#251626;" d="M399.235,114.404c0,0-29.473,56.762-27.289,61.128c2.183,4.366,32.747,26.198,32.747,26.198   s33.839-57.854,28.381-63.312C427.616,132.961,399.235,114.404,399.235,114.404z"/>
	<path style="fill:#251426;" d="M293.857,163.438c-2.327,0-4.563-0.4-6.706-1.199c-18.731-6.996-23.151-41.849-23.331-43.33   c-0.076-0.635,0.377-1.212,1.012-1.289c0.64-0.084,1.213,0.375,1.29,1.011c0.042,0.349,4.428,34.936,21.843,41.437   c8.305,3.1,18.424-0.68,30.08-11.229c0.473-0.431,1.207-0.391,1.637,0.081c0.43,0.474,0.393,1.208-0.082,1.637   C310.13,159.128,301.503,163.438,293.857,163.438z"/>
	<path style="fill:#251426;" d="M260.036,84.422c-6.313,0-9.3-3.115-10.701-5.787c-4.201-8.012,0.204-21.746,2.373-24.642   c0.53-0.707,1.122-0.995,1.733-0.878c0.628,0.126,1.035,0.737,0.909,1.364c-0.085,0.423-0.389,0.746-0.771,0.873   c-1.367,1.616-5.627,13.869-2.613,21.296c1.563,3.85,4.744,5.619,9.735,5.444c4.41-0.166,7.704-0.887,9.674-2.083   c-5.509-1.568-8.728-5.737-9.892-9.365c-0.889-2.769-0.549-5.162,0.885-6.245c0.713-0.537,2.302-1.18,4.916,0.563   c5.062,3.376,9.599,8.808,8.321,13.335c-0.002,0.008-0.006,0.017-0.008,0.026c0.037,0.001,0.074,0.002,0.111,0.002   c7.72,0.221,11.37-4.777,12.867-7.759c0.504-1.004,0.894-2.025,1.183-3.034c-0.158-0.033-0.316-0.071-0.472-0.118   c-3.316-0.975-4.588-4.189-4.672-6.873c-0.071-2.289,0.689-4.901,2.55-5.578c0.726-0.261,2.172-0.405,3.737,1.586   c1.533,1.951,2.101,5.081,1.721,8.433c1.313-0.517,2.651-1.594,3.786-3.115c2.925-3.918,4.618-11.157-0.237-18.659   c-1.716-2.652-4.013-4.229-6.825-4.684c-7.858-1.262-17.35,6.248-17.445,6.324c-0.499,0.401-1.228,0.32-1.629-0.18   c-0.401-0.499-0.32-1.228,0.18-1.629c0.42-0.337,10.396-8.245,19.264-6.803c3.486,0.564,6.313,2.486,8.401,5.713   c5.501,8.502,3.517,16.791,0.147,21.306c-1.769,2.368-3.952,3.862-6.109,4.278c-0.348,1.382-0.851,2.762-1.51,4.074   c-2.967,5.91-8.448,9.213-14.997,9.037c-0.444-0.011-0.876-0.038-1.298-0.078c-2.066,2.316-6.273,3.606-12.561,3.843   C260.533,84.418,260.282,84.422,260.036,84.422z M263.169,66.14c-0.179,0-0.314,0.041-0.404,0.11   c-0.491,0.37-0.684,1.789-0.075,3.686c1.055,3.286,4.145,7.101,9.541,8.129c0.057-0.13,0.104-0.263,0.143-0.398   c0.903-3.201-3.125-7.941-7.376-10.775C264.17,66.338,263.562,66.14,263.169,66.14z M287.012,57.133   c-0.022,0-0.04,0.003-0.054,0.009c-0.401,0.146-1.087,1.382-1.026,3.327c0.028,0.909,0.329,3.935,3.009,4.723   c0.1,0.029,0.201,0.053,0.303,0.074c0.449-3.122-0.063-5.882-1.165-7.283C287.579,57.344,287.192,57.133,287.012,57.133z"/>
	<path style="fill:#251426;" d="M301.832,114.638c-4.637,0-14.057-9.039-16.98-11.963c-0.453-0.453-0.453-1.186,0-1.639   s1.186-0.453,1.639,0c5.907,5.905,13.533,11.882,15.49,11.271c0.048-0.016,0.174-0.055,0.25-0.484   c1.049-5.951-5.106-18.363-5.169-18.487c-0.286-0.573-0.054-1.269,0.518-1.555c0.572-0.283,1.268-0.054,1.555,0.518   c0.268,0.537,6.56,13.225,5.377,19.927c-0.278,1.579-1.269,2.113-1.835,2.292C302.419,114.599,302.135,114.638,301.832,114.638z"/>
	<path style="fill:#251426;" d="M336.478,90.536c-4.635,0-14.056-9.04-16.978-11.963c-0.453-0.453-0.453-1.186,0-1.639   c0.453-0.453,1.186-0.453,1.639,0c5.907,5.905,13.511,11.906,15.489,11.27c0.048-0.015,0.174-0.054,0.25-0.484   c0.824-4.673-7.404-12.078-10.645-14.537c-0.509-0.387-0.609-1.114-0.223-1.624c0.386-0.511,1.112-0.612,1.624-0.223   c1.307,0.992,12.744,9.888,11.526,16.787c-0.278,1.579-1.269,2.115-1.835,2.292C337.065,90.497,336.781,90.536,336.478,90.536z"/>
	<path style="fill:#251626;" d="M286.536,75.866c0,0,98.557,77.96,100.063,79.466s6.779-17.323,6.779-17.323L290.463,65.967   L286.536,75.866z"/>
	<path style="fill:#FFFFFF;" d="M385.973,178.371c-0.396,0-0.787-0.063-1.168-0.205c-2.497-0.928-3.483-4.56-3.1-11.431   c0.239-4.314,1.676-7.005,4.273-7.997c7.872-3.007,23.264,12.065,24.993,13.792c0.453,0.453,0.453,1.186,0,1.639   s-1.186,0.453-1.639,0c-4.403-4.401-17.038-15.362-22.527-13.264c-1.664,0.635-2.601,2.641-2.786,5.96   c-0.43,7.76,1.11,8.948,1.594,9.127c1.452,0.556,4.529-2.332,6.156-4.442c0.389-0.506,1.114-0.602,1.626-0.211   c0.506,0.391,0.601,1.117,0.212,1.624C392.849,173.946,389.262,178.371,385.973,178.371z"/>
	<path style="fill:#FFFFFF;" d="M418.072,164.829c-0.294,0-0.59-0.112-0.815-0.335c-2.16-2.137-21.055-21.117-19.488-29.368   c0.292-1.537,1.245-2.693,2.756-3.34c2.46-1.056,4.715-1.002,6.706,0.155c5.392,3.136,6.621,13.508,6.671,13.948   c0.071,0.636-0.386,1.21-1.022,1.281c-0.646,0.085-1.209-0.386-1.281-1.021c-0.306-2.677-1.894-10.09-5.534-12.205   c-1.34-0.779-2.853-0.787-4.626-0.028c-0.801,0.344-1.244,0.866-1.391,1.643c-1.133,5.967,13.216,21.72,18.841,27.287   c0.455,0.451,0.46,1.184,0.009,1.639C418.669,164.715,418.37,164.829,418.072,164.829z"/>
	<path style="fill:#F9D6BE;" d="M326.783,210.569c0,0,51.151,73.409,111.813,27.978l6.867,40.022c0,0-75.542,31.369-127.047-22.715   L326.783,210.569z"/>
	<path style="fill:#F9D6BE;" d="M330.054,393.945c0,0,26.185,48.491,11.638,108.621c-1.228,5.076-40.733,0.97-40.733,0.97   l-0.97-96.983L330.054,393.945z"/>
	<path style="fill:#F9D6BE;" d="M244.709,412.371c0,0-19.397,89.224-73.707,94.073l-23.276-33.944c0,0,56.25-23.276,58.19-65.948   L244.709,412.371z"/>
	<path style="fill:#251626;" d="M418.065,249.98c0,0,5.796,34.774,8.404,34.195c2.608-0.58,21.734-4.637,22.313-6.955   c0.58-2.318-7.622-37.355-10.186-38.672C436.032,237.229,418.065,249.98,418.065,249.98z"/>
	<path style="fill:#251626;" d="M324.465,182.846c0,0-18.16,20.092-42.888,5.409s-58.73-68.776-61.821-64.912   c-3.091,3.864-4.637,19.319-4.637,19.319s26.029,48.151,64.139,61.821c35.547,12.751,48.684-5.409,48.684-5.409L324.465,182.846z"/>
	<path style="fill:#251626;" d="M329.488,219.939c0,0-11.591,18.546-43.275,25.501s-79.594-44.82-81.912-44.047   s-6.182,16.228-6.182,16.228s42.502,40.956,74.958,47.911s67.23-27.819,64.912-30.91S329.488,219.939,329.488,219.939z"/>
	<path style="fill:#251626;" d="M344.621,264.074c0,0-21.315,28.505-60.726,33.914c-39.411,5.409-89.64-34.001-91.958-34.001   c-2.318,0-6.955,19.319-6.955,19.319s49.457,35.547,89.64,37.865c40.183,2.318,77.276-24.728,76.503-30.138   C350.352,285.623,344.621,264.074,344.621,264.074z"/>
	<path style="fill:#251626;" d="M358.216,324.73c0,0-29.805,23.531-93.64,29.669c-40.797,3.923-114.368-46.366-118.232-45.593   c-3.864,0.773-5.654,27.951-5.654,27.951s69.793,39.279,123.113,39.279s97.368-19.319,97.368-23.183S358.216,324.73,358.216,324.73   z"/>
	<path style="fill:#251626;" d="M362.529,370.145c0,0-47.941,34.681-105.063,29.071c-50.184-4.929-113.638-37.36-113.638-37.36   s-0.235,23.512,13.675,31.24c13.91,7.728,64.572,21.578,113.256,23.896c48.684,2.318,86.529-19.805,88.711-23.896   C363.549,385.446,362.529,370.145,362.529,370.145z"/>
	<g>
		<path style="fill:#EE919B;" d="M216.942,325.807c0,0-115.464-37.706-109.948-75.397c8.733-59.673,79.384-26.484,79.384-26.484    s0.914-76.973,57.362-47.223C280.227,195.933,216.942,325.807,216.942,325.807z"/>
		<path style="fill:#F9D6BE;" d="M129.3,294.052c0,0,42.672-50.431,72.737-43.642l4.849,27.155c0,0-60.129,38.793-64.978,52.371    C141.907,329.936,127.36,312.479,129.3,294.052z"/>
		<path style="fill:#251626;" d="M180.442,252.878c0,0,11.881,32.746,13.04,33.615c1.159,0.869,16.518-8.114,17.677-8.983    c1.159-0.869-7.824-35.354-9.563-35.354S180.442,252.878,180.442,252.878z"/>
		<path style="fill:#251626;" d="M161.026,263.986c0,0,20.865,31.683,17.773,34.001s-12.364,8.5-12.364,8.5    s-20.475-31.728-18.546-33.229C151.367,270.554,161.026,263.986,161.026,263.986z"/>
		<path style="fill:#251626;" d="M139.389,283.305c0,0,20.864,31.683,17.001,33.229c-3.864,1.546-7.728,5.409-7.728,5.409    s-20.092-24.342-18.546-28.978C131.661,288.328,139.389,283.305,139.389,283.305z"/>
	</g>
	<path style="fill:#251626;" d="M299.797,485.919c0,0,45.391-2.04,45.391-0.51c0,1.53,1.02,24.481-2.04,25.501   c-3.06,1.02-43.861,2.04-44.881-0.51C297.247,507.849,299.797,485.919,299.797,485.919z"/>
	<path style="fill:#251626;" d="M168.723,459.398c0,0,30.601,33.661,30.091,36.211c-0.51,2.55-20.911,14.79-28.051,14.79   c-7.14,0-23.036-37.899-23.036-37.899L168.723,459.398z"/>
	<path style="fill:#251626;" d="M196.263,433.897c0,0,37.231,12.75,37.231,14.28c0,1.53-5.1,9.18-5.1,9.18   s-35.191-14.28-37.231-15.81C189.123,440.017,196.263,433.897,196.263,433.897z"/>
	<path style="fill:#251626;" d="M186.573,447.668c0,0,33.661,20.401,33.151,23.461s-3.06,6.12-4.59,7.14   c-1.53,1.02-36.211-24.991-36.211-24.991L186.573,447.668z"/>
	<path style="fill:#251626;" d="M300.307,439.507c0,0,42.331-8.16,43.351-6.12c1.02,2.04,1.53,8.67,1.53,8.67l-44.881,8.16V439.507z   "/>
	<path style="fill:#251626;" d="M298.777,459.398c0,0,48.452-3.06,48.452,0c0,3.06-0.51,8.16-0.51,8.16s-45.901,3.06-46.921,1.53   C298.777,467.558,298.777,459.398,298.777,459.398z"/>
	<path style="fill:#251626;" d="M330.398,154.408c0,0,29.581-27.031,40.801-21.421c0,0-11.73-37.231-3.57-42.331l6.12,5.61   c0,0-2.04,22.951,3.06,40.291c0,0-27.031,14.79-35.191,23.971C341.618,160.529,330.908,159.509,330.398,154.408z"/>
	<path style="fill:#251626;" d="M229.415,88.106c0,0,25.216,18.802,32.131,22.951c7.65,4.59,5.61,19.891,5.61,19.891   s-40.291-23.461-41.821-28.051C223.804,98.307,229.415,88.106,229.415,88.106z"/>
	<path style="fill:#251626;" d="M389.376,252.395c0,0-1.546,34.001-3.091,34.774c-1.546,0.773-13.523-1.159-13.523-1.159   s2.705-36.706,3.864-37.092C377.785,248.531,389.376,252.395,389.376,252.395z"/>
	<path style="fill:#251626;" d="M363.489,243.508c0,0-14.296,37.092-15.842,36.706c-1.546-0.386-6.182-23.183-6.182-23.183   l8.114-22.41L363.489,243.508z"/>
	<path style="fill:#251426;" d="M238.688,248.917c-0.147,0-0.298-0.028-0.441-0.087c-0.592-0.245-0.874-0.921-0.631-1.513   c11.057-26.82,7.824-42.665,3.166-51.236c-4.039-7.428-10.935-12.54-18.92-14.025c-15.429-2.877-22.572,18.705-22.641,18.921   c-0.198,0.609-0.85,0.946-1.459,0.747c-0.609-0.196-0.944-0.849-0.748-1.458c0.077-0.238,7.864-23.726,25.271-20.49   c8.675,1.614,16.16,7.153,20.533,15.198c4.899,9.014,8.346,25.564-3.059,53.226C239.576,248.646,239.143,248.917,238.688,248.917z"/>
	<path style="fill:#FFFFFF;" d="M226.416,78.397c-3.376,0-6.376-1.263-8.951-3.775c-6.237-6.083-8.051-17.998-7.547-21.016   c0.098-0.593,0.472-1.064,1.023-1.289c3.005-1.255,16.683,8.158,24.563,13.871c0.518,0.376,0.634,1.1,0.258,1.619   c-0.375,0.516-1.099,0.634-1.619,0.258c-8.752-6.345-19.215-13.028-21.981-13.554c-0.08,2.979,1.546,13.21,6.921,18.452   c2.696,2.633,5.969,3.601,9.726,2.877c0.621-0.117,1.235,0.291,1.357,0.92c0.12,0.628-0.291,1.236-0.92,1.357   C228.277,78.303,227.333,78.397,226.416,78.397z"/>
	<path style="fill:#FFFFFF;" d="M267.861,42.784c-0.02,0-0.041,0-0.061-0.001c-0.64-0.034-1.131-0.578-1.098-1.218   c0.583-11.256,0.523-24.135-0.509-27.294c-0.573,0.711-1.264,1.501-2.015,2.357c-4.874,5.556-11.549,13.165-5.276,20.783   c0.408,0.495,0.337,1.225-0.157,1.631c-0.496,0.406-1.226,0.336-1.631-0.157c-7.526-9.14,0.516-18.307,5.321-23.786   c0.837-0.953,1.597-1.819,2.193-2.584c0.911-1.17,1.813-1.065,2.273-0.894c2.391,0.89,3.104,11.005,2.118,30.065   C268.985,42.304,268.474,42.784,267.861,42.784z"/>
	<path style="fill:#FFFFFF;" d="M88.772,414.288c-0.248,0-0.497-0.079-0.709-0.242c-0.506-0.392-0.599-1.121-0.207-1.627   c1.092-1.41,27.019-34.552,51.308-35.224c0.574-0.019,1.172,0.487,1.191,1.127c0.017,0.64-0.487,1.173-1.127,1.191   c-23.202,0.641-49.277,33.987-49.537,34.325C89.461,414.133,89.118,414.288,88.772,414.288z"/>
	<path style="fill:#FFFFFF;" d="M129.924,419.504c-0.095,0-0.192-0.011-0.289-0.036c-0.62-0.16-0.994-0.791-0.835-1.41   c0.22-0.857,5.04-19.57,9.428-29.745c-4.114,1.392-12.809,5.046-20.215,12.863c-0.439,0.466-1.173,0.486-1.638,0.044   c-0.465-0.44-0.484-1.174-0.044-1.638c10.552-11.14,23.233-14.121,23.767-14.244c0.446-0.1,0.892,0.062,1.169,0.415   c0.276,0.352,0.325,0.833,0.125,1.234c-4.529,9.058-10.288,31.421-10.346,31.645C130.911,419.156,130.44,419.504,129.924,419.504z"/>
</g>















</svg>
