<?xml version="1.0" encoding="UTF-8"?>
<!-- Generator: Adobe Illustrator 25.2.0, SVG Export Plug-In . SVG Version: 6.00 Build 0)  -->
<svg xmlns="http://www.w3.org/2000/svg" xmlns:xlink="http://www.w3.org/1999/xlink" version="1.1" id="Capa_1" x="0px" y="0px" viewBox="0 0 512 512" style="enable-background:new 0 0 512 512;" xml:space="preserve" width="512" height="512">
<g>
	<g>
		<path style="fill:#FFFFFF;" d="M233.349,489.527c0,0-14.363,20.376-20.71,21.378c-6.346,1.002,3.34-22.38,3.34-22.38    s-10.355,15.365-20.376,19.708c-9.506,4.119,6.346-22.38,6.346-22.38s-16.701,15.031-20.376,13.027s11.357-21.044,11.357-21.044"/>
		<path style="fill:#251426;" d="M212.271,512c-0.834,0-1.545-0.331-2.039-0.959c-1.919-2.435,0.114-10.05,2.133-15.953    c-4.011,4.903-10.179,11.453-16.338,14.121c-1.767,0.763-3.071,0.686-3.873-0.227c-2.166-2.468,2.051-11.455,5.775-18.255    c-5.694,4.706-13.883,10.719-16.864,9.085c-0.393-0.212-0.897-0.647-1.072-1.501c-0.897-4.388,9.925-18.376,12.103-21.135    c0.365-0.46,1.037-0.539,1.495-0.177c0.462,0.364,0.541,1.033,0.177,1.495c-7.075,8.964-12.525,18.062-11.664,19.469    c1.79,0.981,11.339-5.887,19.135-12.903c0.391-0.351,0.981-0.364,1.389-0.029c0.407,0.335,0.507,0.915,0.237,1.368    c-6.053,10.118-10.309,20.016-9.108,21.179l0,0c0.002,0,0.337,0.15,1.424-0.324c9.623-4.169,19.814-19.172,19.915-19.324    c0.304-0.453,0.906-0.601,1.386-0.343c0.482,0.258,0.689,0.84,0.48,1.345c-3.632,8.767-6.516,18.941-5.058,20.79    c0.057,0.073,0.155,0.198,0.569,0.129c4.84-0.763,16.082-15.373,20.005-20.938c0.339-0.478,1.003-0.599,1.484-0.256    c0.48,0.337,0.596,1.002,0.257,1.483c-1.497,2.123-14.813,20.771-21.413,21.815C212.624,511.985,212.445,512,212.271,512z"/>
	</g>
	<g>
		<path style="fill:#FFFFFF;" d="M369.632,478.504c0,0,20.042,12.359,14.697,15.031c-5.344,2.672-25.052-8.685-25.052-8.685    s15.031,13.695,10.689,16.033c-4.342,2.338-25.052-7.015-25.052-7.015s15.031,8.685,8.017,12.025    c-7.015,3.34-22.046-10.689-22.046-10.689"/>
		<path style="fill:#251426;" d="M350.453,507.469c-7.736,0.002-18.892-10.177-20.295-11.487c-0.429-0.401-0.452-1.075-0.052-1.503    c0.402-0.428,1.075-0.453,1.505-0.052c4.034,3.762,15.642,12.982,20.862,10.507c1.226-0.584,1.25-1.173,1.257-1.364    c0.09-2.279-5.412-6.504-9.348-8.779c-0.492-0.283-0.674-0.902-0.415-1.408c0.259-0.503,0.868-0.713,1.385-0.485    c7.823,3.533,21.289,8.565,24.109,7.047c0.15-0.079,0.201-0.154,0.221-0.318c0.294-2.389-6.327-9.619-11.123-13.99    c-0.401-0.366-0.463-0.975-0.142-1.414c0.319-0.437,0.921-0.566,1.391-0.295c7.431,4.281,20.52,10.407,24.045,8.654    c0.309-0.154,0.314-0.266,0.317-0.335c0.095-2.121-7.763-8.313-15.096-12.836c-0.501-0.31-0.656-0.965-0.348-1.466    c0.308-0.501,0.963-0.655,1.465-0.347c3.828,2.36,16.3,10.399,16.107,14.745c-0.042,0.921-0.571,1.682-1.492,2.144    c-3.78,1.89-13.128-2.052-19.583-5.259c3.344,3.583,6.892,8.064,6.572,10.661c-0.105,0.853-0.562,1.522-1.325,1.932    c-2.899,1.553-11.137-1.017-17.687-3.523c1.778,1.713,3.144,3.61,3.074,5.354c-0.036,0.942-0.496,2.262-2.469,3.202    C352.496,507.282,351.505,507.469,350.453,507.469z"/>
	</g>
	<path style="fill:#EE919B;" d="M196.393,362.837c0,0-17.743,61.557-51.551,53.361c-44.091-10.689-38.079-74.154-38.079-74.154   l-14.697,4.008c0,0-10.876,78.289,43.969,91.064s76.907-61.93,76.907-61.93L196.393,362.837z"/>
	<path style="fill:#EE919B;" d="M288.419,213.161c0,0,129.999,132.767,40.543,198.111c-23.826,17.404-90.131,10.777-117.219-5.268   c-63.458-37.589,6.533-177.124,33.035-183.543S288.419,213.161,288.419,213.161z"/>
	<path style="fill:#EE919B;" d="M345.416,375.215c0,0,36.344,102.167,31.459,104.658c-4.885,2.491-44.242,20.828-51.525,17.161   c-7.283-3.667-21.136-106.45-21.136-106.45L345.416,375.215z"/>
	<path style="fill:#EE919B;" d="M254.877,389.753c0,0-15.713,107.795-21.06,106.955s-47.633-9.066-52.212-16.528   c-4.579-7.462,30.765-102.259,30.765-102.259L254.877,389.753z"/>
	<path style="fill:#FBCFA0;" d="M296.678,301.816c0,0,34.341,91.117,16.512,111.709c-17.829,20.592-61.645,8.926-62.543,4.634   c-0.897-4.292-1.387-101.159-1.387-101.159S292.593,297.4,296.678,301.816z"/>
	<g>
		<path style="fill:#FFFFFF;" d="M314.024,58.785c0,0,6.693-27.464,48.525-4.993c24.069,12.929,28.671,57.556,11.091,60.247    c-17.58,2.69-2.705-32.285,29.751,2.69s8.79,82.73-12.847,85.421c0,0-25.694,0-9.466-12.78    c11.711-9.223,37.865,37.666-6.085,64.57c-33.538,20.531-52.064-26.232-29.075-12.779s-2.028,40.356-35.16,42.374    c-37.649,2.293-63.559-43.047-41.922-37.666s2.705,45.737-31.103,45.737s-68.206-40.822-42.512-48.894    c25.694-8.071,1.943,31.406-25.103,24.68c-27.046-6.726-37.011-74.353-13.523-75.332c22.73-0.948-14.519,30.311-37.508,0.717    s-1.709-67.977,17.224-57.216s-22.243,23.926-21.407-27.674c0.62-38.257,51.035-61.587,61.912-35.787    c8.3,19.688-28.123,16.931-12.55-30.793c12.158-37.259,68.273-32.023,84.501-9.155s-8.619,29.139-16.733,11.652    S266.738-14.3,303.148,7.186C352.51,36.314,314.861,77.927,314.024,58.785z"/>
		<path style="fill:#251426;" d="M237.733,292.671c-19.323,0-39.329-13.371-47.993-26.575c-6.548,3.123-13.414,3.936-19.88,2.329    c-19.959-4.964-30.474-41.336-26.74-61.816c-6.759-0.044-16.495-2.389-24.876-13.177c-8.148-10.491-11.608-23.119-9.744-35.558    c1.37-9.141,5.562-17.118,11.293-21.578c-4.146-6.868-6.15-16.423-5.955-28.423c0.205-12.649,5.793-24.809,15.736-34.244    c8.889-8.434,20.019-13.472,29.78-13.477c0.314-5.76,1.624-12.204,3.899-19.174c5.697-17.461,21.947-27.885,43.468-27.885    c11.114,0,22.412,2.934,31.165,8.072C246.116,11.236,262.052,0,280.926,0c8.056,0,15.714,2.109,22.763,6.268    c22.95,13.543,26.255,29.103,25.893,38.001c8.828-1.495,20.129,1.416,33.472,8.584c16.151,8.675,24.627,32.568,21.721,48.698    c6.124,2.319,12.645,7.176,19.398,14.454c17.872,19.259,17.224,40.12,15.246,50.841c-2.755,14.941-11.315,28.411-21.459,33.919    c5.921,15.257,3.537,38.199-22.411,54.083c-7.08,4.331-14.138,6.116-20.821,5.228c-4.904,12.616-23.924,23.304-43.906,24.52    c-0.949,0.058-1.897,0.085-2.833,0.087h-0.005c-15.434,0-27.245-7.586-33.423-12.664    C268.562,281.789,255.632,292.671,237.733,292.671z M191.646,265.119c8.406,12.661,27.576,25.423,46.087,25.423    c17.197,0,29.567-10.561,35.187-19.921c-9.14-8.099-14.551-17.908-12.642-23.056c0.444-1.196,1.73-3.204,5.359-3.204    c1.024,0,2.188,0.16,3.456,0.476c4.286,1.067,7.365,3.525,8.906,7.107c2.101,4.887,1.235,11.482-2.363,18.203    c5.861,4.882,17.335,12.408,32.348,12.408c0.002,0,0.003,0,0.005,0c0.892-0.002,1.798-0.027,2.704-0.083    c21.129-1.287,37.523-12.381,41.89-22.776c-11.136-2.493-18.394-12.339-17.909-18.137c0.207-2.466,1.832-3.938,4.346-3.938    c1.964,0,4.466,0.882,7.436,2.62c7.625,4.462,10.764,10.738,8.94,17.773c6.094,0.701,12.521-0.99,19.04-4.982    c24.729-15.136,27.139-36.847,21.603-51.328c-1.798,0.78-3.597,1.283-5.364,1.503c-1.579,0.004-14.014-0.141-15.817-5.346    c-0.906-2.616,0.913-5.666,5.56-9.326c1.189-0.938,2.536-1.412,4.003-1.412c4.545,0,9.456,4.543,12.707,11.67    c9.525-5.269,17.568-18.08,20.196-32.333c1.905-10.328,2.526-30.428-14.714-49.007c-6.417-6.916-12.565-11.551-18.293-13.797    c-1.698,6.608-5.401,10.653-10.517,11.435c-3.736,0.578-6.632-0.435-7.96-2.732c-1.104-1.913-0.964-4.442,0.375-6.762    c2.771-4.799,9.334-6.8,16.514-4.729c2.294-13.807-4.21-37.288-20.686-46.138c-13.172-7.076-24.234-9.875-32.634-8.266    C328.23,56.8,321.998,64.71,317.22,64.71c-1.203,0-4.027-0.572-4.259-5.878c-0.004-0.1,0.005-0.2,0.029-0.297    c0.109-0.447,2.746-10.728,14.436-13.803c0.499-8.274-2.317-23.35-24.819-36.629c-6.718-3.963-14.012-5.973-21.682-5.973    c-17.993,0-33.23,10.658-41.21,20.167c4.138,2.687,7.47,5.791,9.918,9.241c7.132,10.052,5.895,16.009,4.523,18.667    c-1.523,2.949-4.658,4.71-8.384,4.71c-4.502,0-11.054-2.793-14.706-10.663c-2.565-5.527-0.514-13.464,5.484-21.399    c-8.398-4.86-19.193-7.629-29.83-7.629c-20.554,0-36.046,9.875-41.445,26.417c-2.212,6.781-3.487,13.03-3.794,18.594    c7.677,0.618,13.445,4.654,16.313,11.453c1.728,4.101,1.774,7.723,0.128,10.204c-1.167,1.759-3.121,2.77-5.362,2.77    c-0.001,0-0.002,0-0.002,0c-2.565,0-5.191-1.258-7.399-3.539c-3.896-4.03-5.968-10.69-5.877-18.839    c-19.309,0.06-42.907,20.391-43.316,45.624c-0.187,11.526,1.688,20.659,5.577,27.167c4.919-3.038,10.413-3.209,15.291-0.437    c5.85,3.325,5.715,6.588,5.386,7.835c-0.648,2.452-3.408,4.034-7.033,4.034c-5.188,0-10.438-3.127-14.222-8.424    c-5.238,4.148-9.08,11.568-10.36,20.108c-1.778,11.857,1.531,23.909,9.32,33.936c8.043,10.353,17.349,12.343,23.647,12.354    c2.072-8.44,6.658-13.219,12.975-13.483c7.047-0.304,8.163,2.439,8.194,4.036c0.087,4.629-8.955,10.815-19.445,11.512    c-1.918,9.784-0.391,23.539,3.96,35.348c4.955,13.443,12.652,22.362,21.115,24.466c5.916,1.476,12.202,0.74,18.241-2.084    c-3.305-5.71-4.241-10.888-2.704-15.032c1.316-3.545,4.342-6.084,8.991-7.544c2.414-0.759,4.523-1.144,6.267-1.144    c4.399,0,5.633,2.406,5.977,3.841C208.534,250.184,201.236,259.835,191.646,265.119z M265.637,246.489    c-1.809,0-2.909,0.595-3.362,1.815c-1.352,3.647,2.752,12.354,11.708,20.409c3.056-5.922,3.833-11.805,2.061-15.928    c-1.286-2.992-3.798-4.972-7.464-5.883C267.478,246.629,266.488,246.489,265.637,246.489z M201.169,242.684    c-1.528,0-3.422,0.351-5.629,1.044c-3.989,1.254-6.557,3.358-7.633,6.257c-1.299,3.5-0.37,8.203,2.612,13.325    c9.369-5.113,15.592-14.1,14.557-18.417C204.724,243.426,203.41,242.684,201.169,242.684z M339.02,239.75    c-1.404,0-2.111,0.632-2.224,1.986c-0.363,4.338,5.764,13.672,16.489,15.934c1.691-6.19-1.027-11.568-7.904-15.591    C342.092,240.155,340.108,239.75,339.02,239.75z M157.58,193.105c-0.3,0-0.616,0.006-0.941,0.021    c-6.433,0.268-9.437,5.976-10.84,11.245c9.728-0.859,16.868-6.533,16.815-9.299C162.591,193.841,160.709,193.105,157.58,193.105z     M384.422,189.252c-0.977,0-1.881,0.322-2.685,0.954c-3.687,2.903-5.415,5.375-4.867,6.958c0.991,2.857,8.913,3.922,13.674,3.922    c1.463-0.189,3.058-0.643,4.674-1.347C392.383,193.517,388.028,189.252,384.422,189.252z M122.707,136.857    c4.954,6.96,10.766,7.519,12.482,7.519c2.547,0,4.592-1.006,4.974-2.447c0.424-1.607-1.212-3.641-4.379-5.442    C131.553,134.085,126.956,134.235,122.707,136.857z M377.096,102.148c-4.026,0-7.403,1.686-9.034,4.512    c-0.941,1.63-1.084,3.404-0.375,4.631c0.872,1.514,2.881,2.133,5.793,1.695c5.557-0.85,7.874-6.284,8.818-10.027    C380.481,102.42,378.736,102.148,377.096,102.148z M161.412,62.364c-0.107,10.137,3.231,15.157,5.28,17.276    c1.776,1.836,3.914,2.89,5.868,2.89h0.001c1.538,0,2.811-0.647,3.589-1.817c1.238-1.865,1.126-4.778-0.317-8.199    C172.656,64.98,166.444,62.789,161.412,62.364z M315.096,58.902c0.083,1.445,0.477,3.678,2.123,3.678    c2.821,0,8.618-6.012,9.976-15.568C318.035,49.821,315.426,57.763,315.096,58.902z M238.378,23.966    c-5.613,7.349-7.625,14.55-5.379,19.39c3.229,6.958,8.899,9.428,12.774,9.428c2.958,0,5.324-1.298,6.492-3.558    c1.958-3.791,0.366-9.788-4.367-16.458C245.572,29.491,242.372,26.534,238.378,23.966z"/>
	</g>
	<g>
		<path style="fill:#EE919B;" d="M176.574,117.245c0,0-5.935,91.124,69.777,104.672s133.661-80.307,57.152-140.079    s-20.042,12.693-20.042,12.693l-82.538,36.532C200.924,131.063,180.558,65.442,176.574,117.245z"/>
		<path style="fill:#251426;" d="M286.134,179.77c-0.357,0-0.701-0.179-0.9-0.497l-25.34-40.203    c-0.314-0.497-0.164-1.154,0.333-1.468c0.5-0.314,1.157-0.162,1.468,0.333l24.853,39.432c2.862-1.258,12.351-5.581,15.869-9.099    c2.011-2.011-9.096-21.923-24.255-43.482c-0.338-0.48-0.223-1.144,0.259-1.483c0.48-0.339,1.145-0.222,1.484,0.26    c0.071,0.1,7.213,10.274,13.732,20.848c13.595,22.054,11.277,24.373,10.286,25.362c-4.439,4.437-16.849,9.692-17.375,9.915    C286.412,179.743,286.272,179.77,286.134,179.77z"/>
		<path style="fill:#FBCFA0;" d="M232.69,215.782c0,0-17.703-32.066,16.367-37.411c34.071-5.344,53.444-0.668,53.444-0.668    s5.418-37.849,16.033-36.743c13.908,1.449,36.054,18.15,1.315,57.899S234.694,220.459,232.69,215.782z"/>
		<path style="fill:#251426;" d="M308.639,134.058c-0.051,0-0.102-0.002-0.154-0.004c-4.006-0.231-11.978-11.308-13.536-13.527    c-0.338-0.48-0.221-1.146,0.26-1.483c0.48-0.339,1.147-0.22,1.483,0.26c5.507,7.841,10.864,13.148,12.01,12.616    c1.367-1.535-1.609-9.765-5.14-16.521c-0.271-0.52-0.071-1.164,0.451-1.437c0.518-0.266,1.164-0.071,1.436,0.451    c1.883,3.599,7.797,15.604,4.863,18.904C309.879,133.804,309.303,134.058,308.639,134.058z"/>
		<path style="fill:#251426;" d="M251.187,176.145c-0.051,0-0.102-0.002-0.154-0.004c-4.006-0.231-11.978-11.306-13.536-13.524    c-0.338-0.48-0.221-1.144,0.26-1.483s1.146-0.222,1.483,0.26c5.51,7.846,10.88,13.152,12.01,12.614    c1.367-1.535-1.608-9.765-5.139-16.521c-0.272-0.52-0.072-1.164,0.45-1.437c0.519-0.268,1.164-0.071,1.437,0.451    c1.882,3.599,7.795,15.604,4.862,18.904C252.427,175.892,251.851,176.145,251.187,176.145z"/>
		<path style="fill:#251426;" d="M299.569,202.861c-7.159,0-20.918-13.009-23.863-15.876c-0.422-0.41-0.43-1.085-0.021-1.505    c0.411-0.42,1.085-0.433,1.505-0.021c7.668,7.465,20.012,17.055,23.436,15.042c4.366-2.568,8.61-13.816,9.876-17.935    c0.175-0.561,0.771-0.88,1.331-0.703c0.562,0.173,0.878,0.767,0.705,1.331c-0.197,0.636-4.867,15.633-10.833,19.141    C301.093,202.697,300.371,202.861,299.569,202.861z"/>
		<path style="fill:#251426;" d="M289.808,93.591c-0.247,0-0.495-0.085-0.697-0.26c-3.412-2.949-20.217-17.976-15.872-24.131    c0.617-0.873,1.505-1.337,2.571-1.341c0.003,0,0.006,0,0.009,0c6.091,0,18.472,17.091,19.865,19.039    c0.342,0.48,0.231,1.144-0.247,1.487c-0.479,0.341-1.143,0.229-1.485-0.247c-5.013-7.02-14.367-18.149-18.13-18.149    c-0.002,0-0.004,0-0.004,0c-0.377,0.002-0.62,0.129-0.838,0.439c-2.381,3.373,7.645,14.483,15.525,21.295    c0.444,0.385,0.493,1.056,0.109,1.501C290.403,93.466,290.106,93.591,289.808,93.591z"/>
		<path style="fill:#251426;" d="M184.923,134.008c-0.508,0-0.958-0.364-1.048-0.882c-0.498-2.853-2.814-17.236,0.497-20.316    c0.682-0.632,1.543-0.838,2.481-0.607c5.923,1.481,7.043,15.109,7.151,16.658c0.041,0.586-0.401,1.096-0.989,1.137    c-0.595,0.04-1.096-0.401-1.135-0.988c-0.369-5.257-2.2-13.907-5.543-14.741c-0.297-0.075-0.413,0.004-0.515,0.1    c-1.815,1.688-1.004,11.769,0.151,18.39c0.101,0.58-0.287,1.131-0.866,1.231C185.045,134.004,184.983,134.008,184.923,134.008z"/>
		<path style="fill:#251626;" d="M279.453,178.037c0,0,22.046-25.386,26.054-18.037c4.008,7.349,7.349,18.037,2.004,22.046    C302.167,186.054,278.117,183.382,279.453,178.037z"/>
		<path style="fill:#251426;" d="M242.12,140.675c-3.433,0-6.635-1.641-9.152-4.67c-3.434,2.52-8.253,3.98-13.594,3.113    c-3.199-0.516-5.413-2.005-6.578-4.429c-3.297-6.856,3.363-18.785,3.649-19.291c0.289-0.509,0.934-0.692,1.45-0.403    c0.512,0.289,0.692,0.94,0.403,1.451c-0.064,0.114-6.401,11.466-3.584,17.321c0.859,1.782,2.493,2.845,4.998,3.25    c4.685,0.753,8.965-0.551,11.985-2.751c-0.302-0.468-0.59-0.961-0.863-1.478c-2.276-4.298-3.267-10.037-0.986-12.2    c0.647-0.611,2.098-1.416,4.572,0.067c3.442,2.065,4.676,5.55,3.298,9.322c-0.605,1.657-1.677,3.256-3.116,4.652    c1.932,2.333,5.051,4.672,9.464,3.703c3.348-0.732,6.23-1.944,8.526-3.323c-2.862-2.809-4.435-6.307-3.676-8.729    c0.337-1.077,1.46-2.872,4.971-2.736c5.637,0.208,6.704,2.755,6.838,4.254c0.213,2.381-1.594,5.055-4.594,7.378    c0.136,0.094,0.274,0.187,0.416,0.277c2.296,1.472,8.292,4.3,14.392-1.214c6.79-6.134,6.002-12.406,5.348-14.816    c-0.331-1.219-0.843-2.341-1.47-3.283c-0.658,0.43-1.34,0.794-2.026,1.09c-2.416,1.048-5.394,1.404-6.592-0.166    c-0.45-0.588-0.955-1.888,0.713-3.976c1.248-1.56,2.949-2.215,4.79-1.824c1.214,0.252,2.387,0.934,3.42,1.93    c2.078-1.957,3.514-4.909,2.862-8.819c-0.536-3.215-1.847-5.384-3.896-6.446c-4.159-2.163-10.165,0.686-10.224,0.715    c-0.524,0.258-1.164,0.033-1.421-0.497c-0.255-0.528-0.034-1.164,0.495-1.42c0.284-0.137,7.017-3.333,12.123-0.692    c2.681,1.387,4.371,4.076,5.024,7.991c0.803,4.816-0.978,8.434-3.581,10.811c0.794,1.158,1.432,2.529,1.839,4.03    c0.757,2.791,1.69,10.029-5.977,16.953c-7.193,6.492-14.263,3.159-16.967,1.426c-0.385-0.245-0.757-0.505-1.116-0.778    c-2.734,1.726-6.128,3.15-9.76,3.945C243.713,140.587,242.91,140.675,242.12,140.675z M253.51,125.666    c-1.441,0-2.303,0.42-2.563,1.25c-0.489,1.56,0.87,4.481,3.46,6.881c2.808-2.086,4.328-4.331,4.196-5.81    c-0.173-1.936-3.411-2.264-4.796-2.314C253.705,125.668,253.606,125.666,253.51,125.666z M231.849,121.946    c-0.206,0-0.392,0.052-0.535,0.189c-1.007,0.954-0.962,5.19,1.403,9.657c0.166,0.314,0.372,0.678,0.619,1.073    c1.101-1.11,1.92-2.35,2.384-3.618c0.596-1.632,1.078-4.683-2.394-6.766C232.941,122.251,232.339,121.946,231.849,121.946z     M270.691,113.285c-0.806,0-1.515,0.378-2.117,1.131c-0.675,0.842-0.711,1.281-0.685,1.354c0.155,0.235,1.513,0.499,3.666-0.337    c0.621-0.239,1.249-0.551,1.858-0.929c-0.677-0.599-1.409-1.004-2.146-1.158C271.07,113.306,270.878,113.285,270.691,113.285z"/>
		<path style="fill:#251426;" d="M321.586,135.659c-0.25,0-0.499-0.087-0.701-0.264c-0.443-0.387-0.488-1.058-0.101-1.501    l18.238-20.844c0.388-0.445,1.059-0.487,1.502-0.1c0.443,0.387,0.488,1.058,0.101,1.501l-18.238,20.844    C322.177,135.537,321.883,135.659,321.586,135.659z"/>
		<path style="fill:#251426;" d="M325.496,140.436c-0.381,0-0.749-0.204-0.94-0.564c-0.278-0.518-0.081-1.162,0.437-1.441    l25.186-13.462c0.518-0.279,1.165-0.081,1.441,0.439c0.278,0.518,0.081,1.162-0.437,1.441l-25.186,13.462    C325.837,140.396,325.665,140.436,325.496,140.436z"/>
		<path style="fill:#251426;" d="M330.27,145.212c-0.57,0-1.043-0.451-1.063-1.027c-0.022-0.586,0.438-1.081,1.025-1.102    l24.318-0.869c0.6,0.002,1.082,0.437,1.102,1.027c0.022,0.586-0.438,1.081-1.025,1.102l-24.318,0.869    C330.296,145.212,330.283,145.212,330.27,145.212z"/>
		<path style="fill:#251426;" d="M190.882,195.581c-0.495,0-0.939-0.347-1.042-0.85c-0.119-0.576,0.253-1.14,0.829-1.258    l33.869-6.947c0.584-0.121,1.14,0.256,1.257,0.83c0.119,0.576-0.253,1.14-0.829,1.258l-33.869,6.947    C191.025,195.575,190.953,195.581,190.882,195.581z"/>
		<path style="fill:#251426;" d="M199.134,211.649c-0.332,0-0.658-0.154-0.866-0.445c-0.343-0.476-0.233-1.142,0.244-1.485    l23.014-16.5c0.479-0.345,1.143-0.233,1.486,0.245c0.343,0.476,0.233,1.142-0.244,1.485l-23.014,16.5    C199.566,211.584,199.349,211.649,199.134,211.649z"/>
		<path style="fill:#251426;" d="M212.593,220.767c-0.19,0-0.383-0.05-0.556-0.158c-0.501-0.308-0.658-0.963-0.35-1.464    l11.725-19.106c0.307-0.501,0.963-0.663,1.465-0.349c0.501,0.308,0.658,0.963,0.35,1.464l-11.725,19.106    C213.3,220.586,212.951,220.767,212.593,220.767z"/>
		<path style="fill:#251426;" d="M283.259,206.769c-0.407,0-0.778-0.148-1.051-0.422c-1.04-1.04-0.801-5.629,0.709-13.643    c0.108-0.578,0.657-0.95,1.243-0.848c0.577,0.108,0.958,0.665,0.848,1.243c-0.819,4.35-1.479,9.48-1.318,11.31    c1.371-0.882,4.408-4.005,6.807-6.85c0.378-0.449,1.049-0.509,1.5-0.127c0.449,0.378,0.506,1.05,0.128,1.499    c-2.437,2.89-6.819,7.752-8.796,7.835C283.306,206.769,283.282,206.769,283.259,206.769z"/>
		<path style="fill:#251426;" d="M315.2,198.732c-1.549,0-4.257-0.347-9.095-1.451c-0.573-0.131-0.932-0.701-0.801-1.275    c0.13-0.574,0.699-0.936,1.275-0.801c3.239,0.738,7.074,1.402,8.704,1.418c-0.795-1.68-3.486-5.641-5.951-8.929    c-0.354-0.47-0.258-1.137,0.213-1.491c0.468-0.354,1.136-0.256,1.49,0.214c7.467,9.956,6.787,10.975,6.381,11.584    C317.217,198.299,316.929,198.732,315.2,198.732z"/>
	</g>
	<g>
		<path style="fill:#E33961;" d="M279.734,218.011c0,0,133.326-28.829,134.89-21.704c2.586,11.786,31.017,130.451,26.891,132.201    c-4.125,1.751-139.953,22.392-139.953,22.392S271.608,219.512,279.734,218.011z"/>
		<g>
			<path style="fill:#FFFFFF;" d="M321.658,251.716l2.27,11.89l0.28,1.674l0.234,1.569l0.741-0.124l1.609-0.325     c1.537-0.257,2.383,0.08,2.539,1.014c0.079,0.476-0.04,0.914-0.358,1.315s-0.725,0.642-1.219,0.725l-2.469,0.413     c-1.701,0.285-2.796,0.431-3.284,0.437c-0.286,0.086-0.512,0.142-0.677,0.169c-1.335,0.223-2.073-0.085-2.214-0.927     c-0.058-0.348-0.003-0.695,0.164-1.043c0.167-0.346,0.359-0.548,0.576-0.603l1.592-0.267l-0.016-0.759l-2.38-11.872     l-1.791-12.562c-0.357-2.141-0.786-4.137-1.284-5.991l-1.07,0.179l-1.279,0.271c-0.55,0.092-0.997,0.058-1.343-0.1     c-0.347-0.159-0.568-0.53-0.666-1.116c-0.144-0.859,0.707-1.445,2.556-1.753l6.694-1.12c1.519-0.254,2.344,0.014,2.475,0.8     c0.059,0.348-0.053,0.695-0.333,1.042c-0.28,0.348-0.631,0.557-1.051,0.627l-2.881,0.482c0.402,1.513,0.766,3.237,1.091,5.177     L321.658,251.716z"/>
			<path style="fill:#FFFFFF;" d="M338.427,248.771l0.964,6.1c0.83,4.958,1.839,8.803,3.03,11.538l-0.379,1.614l-1.563,0.262     l-0.879-0.7c-0.245-1.688-0.543-3.58-0.894-5.675s-1.259-6.544-2.727-13.351c-1.468-6.807-2.483-11.901-3.05-15.286     c-0.297-1.774,0.177-2.765,1.421-2.974c1.957-0.327,3.688-0.09,5.195,0.71c1.507,0.802,2.419,2.153,2.737,4.055l0.661,3.95     c0.181,1.08,0.144,2.098-0.11,3.051c-0.254,0.955-0.564,1.967-0.932,3.033c-0.366,1.068-0.568,1.661-0.604,1.778     c0.354,0.881,1.011,2.615,1.97,5.2c2.073,5.651,3.992,9.646,5.756,11.984c0.507,0.666,0.794,1.206,0.863,1.617     c0.068,0.412,0.012,0.779-0.169,1.101c-0.182,0.322-0.464,0.515-0.849,0.58c-0.786,0.131-1.691-0.645-2.715-2.325     c-1.024-1.68-1.939-3.582-2.745-5.704c-2.459-6.489-3.891-10.049-4.296-10.677L338.427,248.771z M335.879,232.188l-0.059,0.828     c0.257,1.537,0.664,3.75,1.223,6.635c0.558,2.889,0.946,4.99,1.167,6.307c0.802-0.604,1.311-1.916,1.528-3.937     c0.216-2.019,0.239-3.542,0.068-4.567c-0.172-1.023-0.325-1.773-0.462-2.249c-0.136-0.476-0.345-0.99-0.625-1.545     C338.152,232.513,337.205,232.023,335.879,232.188z"/>
			<path style="fill:#FFFFFF;" d="M362.33,252.388l1.182,3.356c0.076,0.458,0.441,1.543,1.095,3.258     c0.654,1.715,1.026,2.846,1.118,3.395l0.01,0.055c0.138,0.824-0.085,1.406-0.667,1.748c-0.787,0.132-1.421,0.106-1.902-0.077     c-0.482-0.182-0.784-0.639-0.907-1.371c-0.266-1.591-0.927-3.859-1.983-6.804l-5.681,0.104c-0.14,1.302-0.177,2.71-0.111,4.222     c0.064,1.512,0.071,2.621,0.02,3.325c-0.097,1.446-0.593,2.243-1.489,2.393c-0.438,0.073-0.87,0-1.292-0.221     c-0.423-0.22-0.671-0.551-0.744-0.99l0.055-0.517c0.894-10.171,1.181-19.979,0.861-29.421c-0.007-0.263-0.077-1.021-0.212-2.277     c-0.276-2.774-0.221-4.58,0.166-5.416l1.894-0.316c0.512-0.086,0.979-0.042,1.404,0.133c0.424,0.174,0.676,0.498,0.755,0.974     c0.478,2.853,1.565,7.024,3.264,12.513C360.861,245.939,361.917,249.919,362.33,252.388z M359.582,254.004     c-0.201-0.531-0.416-1.478-0.644-2.841c-0.228-1.361-0.589-3.041-1.083-5.036c-0.493-1.996-1.11-4.308-1.852-6.939     c-0.741-2.631-1.268-4.541-1.578-5.729c-0.126,9.705-0.113,16.528,0.039,20.47C355.175,254.242,356.881,254.268,359.582,254.004z     "/>
			<path style="fill:#FFFFFF;" d="M377.548,224.147c-0.153-0.915,0.296-1.46,1.349-1.636c1.052-0.176,1.651,0.175,1.798,1.054     c0.199,1.188,0.281,1.965,0.249,2.328l0.05,0.302c-0.253,1.64-0.221,3.403,0.095,5.286l0.688,4.117     c0.392,2.342,0.693,5.915,0.904,10.721c0.212,4.808,0.492,8.253,0.841,10.338c0.637,3.806,0.231,5.829-1.213,6.071     c-1.079,0.18-1.753-0.529-2.021-2.131c-0.268-1.601-0.593-3.205-0.975-4.815c-0.382-1.61-0.86-3.372-1.435-5.288     s-1.06-3.494-1.455-4.735c-0.396-1.241-0.975-3.016-1.736-5.323c-0.762-2.308-1.277-3.871-1.547-4.691     c0.081,1.266,0.227,2.528,0.438,3.791c0.211,1.262,0.468,3.669,0.771,7.22c0.302,3.55,0.404,7.194,0.306,10.934     c-0.099,3.74-0.596,5.685-1.492,5.834c-1.448,0.224-3.193-3.518-5.234-11.224c-0.893-3.311-1.751-6.646-2.575-10.006     c-2.115-8.597-3.513-13.412-4.194-14.445c0.201-0.711,0.686-1.129,1.454-1.258c1.208-0.202,2.038,1.056,2.493,3.771     c0.454,2.716,1.54,6.793,3.259,12.232c1.718,5.439,2.836,9.43,3.356,11.976c-0.223-11.114-0.809-19.506-1.757-25.177l1.399-0.91     c0.457-0.077,0.87-0.023,1.239,0.159c0.369,0.183,0.59,0.494,0.663,0.933l0.078,0.466c1.664,3.427,3.379,8.509,5.145,15.245     c0.816,3.08,1.496,5.458,2.04,7.134c-0.175-5.311-0.862-11.562-2.064-18.75c-0.159-0.951-0.253-2.383-0.282-4.296     c-0.028-1.913-0.122-3.346-0.281-4.297C377.718,224.767,377.6,224.458,377.548,224.147z"/>
			<path style="fill:#FFFFFF;" d="M389.654,240.202l0.964,6.1c0.829,4.958,1.839,8.803,3.03,11.538l-0.379,1.614l-1.564,0.262     l-0.879-0.7c-0.245-1.688-0.542-3.58-0.893-5.675s-1.259-6.544-2.727-13.351c-1.468-6.807-2.484-11.901-3.051-15.286     c-0.297-1.774,0.177-2.765,1.422-2.974c1.956-0.327,3.688-0.09,5.195,0.71c1.507,0.802,2.419,2.153,2.737,4.055l0.661,3.95     c0.181,1.08,0.144,2.098-0.11,3.051c-0.254,0.955-0.565,1.967-0.932,3.033c-0.366,1.068-0.568,1.661-0.604,1.778     c0.354,0.881,1.011,2.615,1.97,5.2c2.073,5.651,3.991,9.646,5.755,11.984c0.507,0.666,0.795,1.206,0.863,1.617     c0.069,0.412,0.013,0.779-0.168,1.101c-0.182,0.322-0.464,0.515-0.849,0.58c-0.787,0.131-1.691-0.645-2.716-2.325     c-1.023-1.68-1.938-3.582-2.744-5.704c-2.459-6.489-3.891-10.049-4.297-10.677L389.654,240.202z M387.106,223.619l-0.06,0.828     c0.258,1.537,0.665,3.75,1.224,6.635c0.558,2.889,0.946,4.99,1.167,6.307c0.802-0.604,1.311-1.916,1.527-3.937     c0.217-2.019,0.24-3.542,0.068-4.567c-0.171-1.023-0.324-1.773-0.461-2.249c-0.136-0.476-0.345-0.99-0.625-1.545     C389.379,223.945,388.433,223.455,387.106,223.619z"/>
		</g>
		<g>
			<path style="fill:#FFFFFF;" d="M348.578,315.89c0.42,2.506,0.016,3.861-1.209,4.066c-0.678,0.113-1.268-0.211-1.771-0.973     c0.282-0.895-0.038-4.103-0.962-9.627c-0.168-1.007-0.508-2.416-1.018-4.23c-0.511-1.813-0.85-3.111-1.018-3.892l-0.243-1.454     c-0.101-0.152-0.934-1.536-2.5-4.151c-3.537-5.858-5.406-9.391-5.608-10.598l-0.051-0.303l1.106-1.144     c1.155-0.174,3.013,2.496,5.571,8.01c1.116,2.408,1.677,3.622,1.68,3.639c0.076-0.445,0.135-1.894,0.176-4.345     c0.1-6.259,0.764-9.491,1.989-9.696c0.347-0.058,0.681-0.002,1.001,0.17s0.51,0.433,0.568,0.779     c0.312,1.866,0.23,4.667-0.244,8.404c-0.476,3.738-0.575,6.541-0.3,8.413L348.578,315.89z"/>
			<path style="fill:#FFFFFF;" d="M351.94,300.744l-0.303-2.149c-0.031-0.184-0.073-0.27-0.128-0.261l-0.17-1.016     c-0.985-5.89-1.348-10.134-1.087-12.736c0.215-2.199,0.546-3.589,0.994-4.172s0.928-0.917,1.44-1.002     c4.353-0.728,7.721,0.965,10.101,5.08c1.374,2.364,2.37,5.396,2.987,9.091l0.069,0.412l1.175,6.347     c1.802,10.774,0.206,16.579-4.788,17.414c-2.067,0.346-3.841-0.532-5.32-2.636c-1.41-2.021-2.411-4.072-3.004-6.154     C352.988,305.825,352.332,303.085,351.94,300.744z M353.976,292.507l0.593,5.231c0.909,5.433,2.141,10.097,3.695,13.993     c1.327,2.203,2.446,3.444,3.358,3.725c0.677-0.113,1.243-0.49,1.7-1.131c0.457-0.64,0.769-1.45,0.935-2.426     c0.165-0.977,0.272-1.996,0.32-3.058c0.033-1.04,0.008-2.145-0.075-3.315c-0.15-2.024-0.344-3.74-0.579-5.149     c-0.235-1.408-0.72-3.546-1.453-6.414c-0.733-2.867-1.22-5.014-1.458-6.44l-0.166-0.988c-0.266-1.365-0.918-2.512-1.957-3.438     c-1.039-0.926-2.226-1.278-3.561-1.055c-1.28,0.214-2.011,1.079-2.189,2.595c-0.146,1.265-0.07,2.786,0.227,4.56L353.976,292.507     z"/>
			<path style="fill:#FFFFFF;" d="M382.451,287.545l0.217,0.952c2.781,16.628,1.756,25.345-3.073,26.153     c-1.862,0.331-3.37-0.197-4.523-1.584c-1.196-1.416-2.025-2.886-2.486-4.408c-0.712-2.343-1.35-5.062-1.914-8.156     c-0.563-3.092-1.336-7.565-2.315-13.419l-1.591-7.998c0.215-0.845,0.548-1.304,0.996-1.379c0.448-0.075,0.902,0.201,1.365,0.828     c0.462,0.628,0.758,1.326,0.886,2.095l2.557,15.283c0.224,1.336,0.688,3.297,1.394,5.888c0.706,2.589,1.171,4.553,1.395,5.888     c0.458,2.743,1.877,3.917,4.255,3.52c2.671-0.447,2.321-10.741-1.047-30.881l-0.528-3.155l-0.183-0.927     c-0.074-0.439-0.028-0.787,0.137-1.039c0.164-0.253,0.498-0.422,1.001-0.506c0.503-0.084,0.896-0.065,1.18,0.057     c0.263,0.107,0.473,0.297,0.632,0.57c0.223,0.434,0.406,1.023,0.55,1.771l0.562,5.716L382.451,287.545z"/>
		</g>
	</g>
	<g>
		<path style="fill:#FFFFFF;" d="M94.776,344.914c0,0-6.344,12.112-16.726,2.019c-10.382-10.093-3.749-30.856,4.037-20.763    s-23.358,3.749-9.228-14.996s22.205-1.442,18.744,0.288c-3.461,1.73-16.149-23.647,7.209-17.591s19.033,35.759,8.94,34.028    s-0.577-19.321,9.228-5.191s7.786,24.224-9.228,24.512"/>
		<path style="fill:#251426;" d="M86.093,352.015c-2.884,0-5.833-1.447-8.785-4.319c-5.501-5.348-6.495-13.337-5.113-18.864    c-0.155-0.127-0.307-0.258-0.454-0.391c-2.365-2.14-7.073-8.166,0.269-17.906c4.888-6.484,9.008-8.667,12.137-9.023    c-0.341-2.233-0.167-4.444,0.891-6.217c2.09-3.5,6.812-4.327,14.042-2.454c14.31,3.71,19.64,16.843,17.389,27.317    c-0.007,0.037-0.016,0.075-0.024,0.112c0.465,0.541,0.936,1.148,1.41,1.832c5.694,8.205,7.433,15.026,5.026,19.723    c-2.128,4.153-7.212,6.326-15.11,6.461c-0.574,0.042-1.072-0.46-1.082-1.046c-0.009-0.588,0.459-1.073,1.047-1.083    c6.95-0.119,11.532-1.953,13.25-5.302c1.997-3.897,0.264-10.127-4.879-17.538c-0.132-0.189-0.264-0.374-0.397-0.553    c-1.646,4.346-4.714,6.75-8.136,6.186c-3-0.516-4.932-2.422-5.171-5.103c-0.272-3.044,1.759-6.242,4.623-7.28    c1.286-0.466,4.182-0.971,7.589,1.88c1.145-7.952-2.115-19.927-16.068-23.543c-5.581-1.447-9.468-1.148-11.238,0.873    c-1.108,1.266-1.445,3.317-1.007,5.772c0.331,0.05,0.645,0.121,0.942,0.204c3.67,1.04,5.934,4.612,6.2,7.446    c0.145,1.539-0.352,2.709-1.362,3.215c-0.713,0.36-1.91,0.412-3.551-1.356c-1.409-1.518-3.048-4.375-3.921-7.444    c-3.266,0.272-7.055,3.102-10.898,8.201c-5.858,7.769-3.138,12.549-0.784,14.82c1.011-2.35,2.53-3.841,4.289-4.161    c1.344-0.254,3.43,0.083,5.715,3.044c2.375,3.08,1.411,4.758,0.625,5.485c-1.807,1.672-5.973,1.167-9.471-0.863    c-0.969,5.007,0.261,11.705,4.708,16.028c2.906,2.826,5.701,4.047,8.313,3.637c4.187-0.663,6.703-5.342,6.728-5.388    c0.273-0.52,0.917-0.722,1.437-0.447c0.52,0.274,0.721,0.915,0.448,1.437c-0.121,0.231-3.02,5.66-8.267,6.498    C87.001,351.98,86.547,352.015,86.093,352.015z M74.669,328.01c3.098,2.002,6.579,2.223,7.441,1.431    c0.497-0.46-0.122-1.655-0.866-2.62c-0.899-1.169-2.27-2.499-3.645-2.252C76.46,324.777,75.39,326.045,74.669,328.01z     M109.16,318.322c-0.481,0-0.953,0.081-1.41,0.247c-1.966,0.711-3.414,2.994-3.227,5.088c0.152,1.707,1.363,2.843,3.41,3.192    c2.95,0.522,5.138-2.487,6.162-5.982C112.439,319.2,110.742,318.322,109.16,318.322z M86.908,303.879    c0.121,0.356,0.255,0.717,0.403,1.083c1.412,3.481,3.332,5.473,3.924,5.521c-0.019-0.017,0.154-0.36,0.086-1.083    C91.159,307.678,89.65,304.796,86.908,303.879z"/>
	</g>
	<path style="fill:#251426;" d="M305.777,281.205c-3.64,0-7.087-0.245-8.877-0.397c-0.585-0.05-1.02-0.566-0.97-1.15   c0.049-0.586,0.54-1.025,1.151-0.971c8.521,0.726,18.441,0.401,19.604-1.383c0.037-0.058,0.116-0.181-0.086-0.553   c-2.281-4.182-15.833-8.272-20.862-9.497c-0.48-0.116-0.816-0.547-0.813-1.042c0.004-0.493,0.347-0.921,0.829-1.029   c7.85-1.786,16.694-5.005,17.296-7.093c0.028-0.098,0.08-0.279-0.277-0.636c-3.369-3.371-12.744-2.379-16.074-1.713   c-0.459,0.1-0.925-0.129-1.148-0.541c-0.221-0.414-0.146-0.923,0.186-1.256c5.907-5.908,10.681-12.358,10.018-13.531   c-0.836-0.826-6.938,2.73-13.572,8.567c-0.44,0.389-1.112,0.347-1.502-0.096c-0.388-0.441-0.345-1.115,0.096-1.501   c3.992-3.514,13.588-11.366,16.488-8.471c2.44,2.441-3.073,9.262-7.819,14.275c4.19-0.451,11.421-0.651,14.833,2.761   c0.804,0.803,1.094,1.774,0.817,2.732c-0.947,3.281-9.462,6.097-14.885,7.577c5.809,1.695,15.918,5.182,18.258,9.474   c0.707,1.295,0.304,2.271,0,2.734C317.034,280.662,311.192,281.205,305.777,281.205z"/>
	<path style="fill:#EE919B;" d="M286.969,245.177c0,0-76.997,32.44-79.851,38.186c-2.854,5.747,12.632,39.3,12.632,39.3   s66.316-14.971,78.242-30.89C309.918,275.854,305.188,253.527,286.969,245.177z"/>
	<path style="fill:#251426;" d="M407.438,256.938c-2.296,0-4.093-0.393-4.795-1.447c-0.36-0.541-0.446-1.173-0.249-1.83   c0.779-2.591,7.006-5.916,11.201-7.898c-4.708-0.744-11.879-2.36-13.311-5.438c-0.334-0.717-0.541-1.855,0.374-3.196   c2.42-3.55,7.238-4.806,10.791-5.238c-4.303-2.173-10.796-5.856-12.585-9.072c-0.678-1.221-0.278-2.032,0.022-2.406   c1.822-2.289,11.205,0.029,16.636,1.612c0.565,0.166,0.888,0.757,0.724,1.32c-0.164,0.564-0.748,0.88-1.32,0.726   c-6.55-1.911-12.875-2.959-14.251-2.385c0.014,0.027,0.03,0.06,0.051,0.098c1.898,3.416,11.782,8.374,15.429,9.996   c0.468,0.208,0.722,0.719,0.603,1.219c-0.119,0.499-0.562,0.892-1.085,0.817c-0.101,0-9.906-0.397-13.255,4.512   c-0.374,0.549-0.312,0.865-0.203,1.1c1.063,2.283,9.62,4.128,15.356,4.71c0.484,0.048,0.873,0.42,0.946,0.9   c0.072,0.48-0.191,0.95-0.639,1.14c-7.195,3.036-13.483,6.85-13.457,8.16c0.831,1.223,9.236,0.204,17.986-2.206   c0.562-0.15,1.152,0.177,1.309,0.744c0.156,0.568-0.177,1.154-0.743,1.31C419.319,255.19,412.274,256.938,407.438,256.938z"/>
	<path style="fill:#EE919B;" d="M427.761,216.116c0,0-22.046-4.509-18.037,8.518c0,0-5.01,44.091,18.037,35.073   C450.809,250.688,447.802,225.135,427.761,216.116z"/>
	<path style="fill:#251426;" d="M305.174,419.267c-0.448,0-0.865-0.285-1.012-0.734c-0.183-0.559,0.122-1.16,0.681-1.343   c0.322-0.104,32.317-10.778,39.407-31.399c0.191-0.559,0.793-0.853,1.353-0.661c0.556,0.191,0.852,0.796,0.66,1.352   c-7.435,21.63-39.402,32.291-40.758,32.734C305.394,419.25,305.283,419.267,305.174,419.267z"/>
	<path style="fill:#251426;" d="M219.749,323.727c-0.509,0-0.96-0.366-1.048-0.886c-0.1-0.578,0.29-1.129,0.869-1.229   c0.504-0.085,50.612-8.79,67.566-22.483c0.456-0.372,1.126-0.297,1.497,0.158c0.369,0.457,0.297,1.129-0.16,1.497   c-17.385,14.044-66.463,22.57-68.543,22.927C219.868,323.723,219.808,323.727,219.749,323.727z"/>
	<path style="fill:#251426;" d="M265.09,422.946c-0.008,0-0.017,0-0.026,0c-27.583-0.672-44.744-22.911-44.913-23.135   c-0.356-0.468-0.263-1.135,0.205-1.491c0.469-0.358,1.135-0.264,1.492,0.206c0.164,0.216,16.732,21.645,43.268,22.291   c0.587,0.015,1.052,0.503,1.039,1.09C266.14,422.486,265.666,422.946,265.09,422.946z"/>
	<g>
		<path style="fill:#251426;" d="M198.488,376.356c-0.336,0-0.666-0.158-0.873-0.455c-0.103-0.146-2.504-3.629-1.945-6.773    c0.102-0.578,0.654-0.961,1.234-0.861c0.579,0.102,0.965,0.655,0.862,1.235c-0.337,1.894,1.037,4.381,1.594,5.18    c0.337,0.482,0.219,1.146-0.263,1.483C198.911,376.294,198.698,376.356,198.488,376.356z"/>
		<path style="fill:#251426;" d="M207.609,369.765c-0.336,0-0.665-0.158-0.872-0.455c-0.103-0.146-2.505-3.629-1.946-6.773    c0.102-0.578,0.654-0.959,1.234-0.861c0.579,0.102,0.965,0.655,0.862,1.235c-0.335,1.882,1.039,4.377,1.596,5.18    c0.335,0.482,0.216,1.146-0.265,1.483C208.031,369.702,207.819,369.765,207.609,369.765z"/>
		<path style="fill:#251426;" d="M207.698,382.794c-0.336,0-0.666-0.158-0.873-0.455c-0.103-0.146-2.504-3.629-1.945-6.773    c0.103-0.578,0.652-0.961,1.234-0.861c0.579,0.102,0.965,0.655,0.862,1.235c-0.337,1.894,1.037,4.381,1.594,5.18    c0.337,0.482,0.219,1.146-0.263,1.483C208.122,382.732,207.908,382.794,207.698,382.794z"/>
		<path style="fill:#251426;" d="M195.085,363.859c-0.336,0-0.666-0.158-0.873-0.455c-0.103-0.146-2.504-3.629-1.945-6.773    c0.103-0.578,0.651-0.963,1.234-0.861c0.579,0.102,0.965,0.655,0.862,1.235c-0.337,1.894,1.037,4.381,1.594,5.18    c0.337,0.482,0.219,1.146-0.263,1.483C195.508,363.797,195.295,363.859,195.085,363.859z"/>
		<path style="fill:#251426;" d="M193.694,350.039c-0.409,0-0.798-0.237-0.974-0.634c-0.072-0.164-1.758-4.042-0.607-7.02    c0.212-0.549,0.833-0.817,1.377-0.609c0.549,0.212,0.821,0.83,0.609,1.379c-0.69,1.784,0.178,4.496,0.57,5.392    c0.236,0.536-0.008,1.164-0.546,1.402C193.983,350.01,193.837,350.039,193.694,350.039z"/>
		<path style="fill:#251426;" d="M209.466,355.483c-0.409,0-0.798-0.237-0.974-0.634c-0.072-0.164-1.758-4.042-0.606-7.02    c0.212-0.549,0.829-0.823,1.378-0.607c0.548,0.212,0.82,0.828,0.608,1.377c-0.69,1.784,0.177,4.496,0.569,5.392    c0.236,0.536-0.008,1.164-0.546,1.402C209.755,355.454,209.609,355.483,209.466,355.483z"/>
		<path style="fill:#251426;" d="M202.335,346.02c-0.409,0-0.798-0.237-0.974-0.634c-0.072-0.164-1.758-4.042-0.607-7.02    c0.212-0.549,0.833-0.817,1.377-0.609c0.549,0.212,0.821,0.83,0.609,1.379c-0.69,1.784,0.178,4.496,0.57,5.392    c0.236,0.536-0.008,1.164-0.546,1.402C202.624,345.991,202.478,346.02,202.335,346.02z"/>
		<path style="fill:#251426;" d="M201.626,359.141c-0.336,0-0.665-0.158-0.872-0.455c-0.103-0.146-2.504-3.629-1.946-6.771    c0.102-0.58,0.644-0.961,1.234-0.863c0.579,0.102,0.965,0.655,0.862,1.233c-0.334,1.884,1.039,4.379,1.596,5.182    c0.335,0.482,0.216,1.146-0.265,1.483C202.048,359.079,201.836,359.141,201.626,359.141z"/>
	</g>
	<g>
		<path style="fill:#251426;" d="M240.782,276.25c-0.278,0-0.554-0.108-0.763-0.324c-0.41-0.42-0.4-1.094,0.02-1.503    c0.129-0.123,3.087-3.021,6.369-3.015c0.587,0.008,1.058,0.491,1.05,1.079c-0.008,0.582-0.483,1.05-1.065,1.05    c-0.011,0-0.035,0-0.056,0c-1.904,0-4.116,1.738-4.813,2.412C241.317,276.15,241.049,276.25,240.782,276.25z"/>
		<path style="fill:#251426;" d="M248.762,284.185c-0.278,0-0.554-0.108-0.763-0.324c-0.41-0.42-0.4-1.094,0.02-1.503    c0.128-0.123,3.133-3.015,6.3-3.015c0.023,0,0.046,0,0.07,0c0.587,0.008,1.058,0.491,1.05,1.079    c-0.008,0.582-0.483,1.05-1.065,1.05c-0.012,0-0.036,0-0.056,0c-1.904,0-4.116,1.738-4.813,2.412    C249.298,284.085,249.03,284.185,248.762,284.185z"/>
		<path style="fill:#251426;" d="M235.92,286.383c-0.278,0-0.554-0.108-0.763-0.324c-0.41-0.42-0.4-1.094,0.02-1.503    c0.128-0.123,3.136-3.017,6.302-3.017c0.022,0,0.044,0,0.066,0c0.587,0.008,1.058,0.491,1.051,1.077    c-0.007,0.584-0.482,1.052-1.065,1.052c-0.018-0.002-0.035,0-0.053,0c-1.904,0-4.118,1.74-4.815,2.414    C236.456,286.283,236.187,286.383,235.92,286.383z"/>
		<path style="fill:#251426;" d="M252.562,270.868c-0.278,0-0.554-0.108-0.763-0.324c-0.41-0.42-0.4-1.094,0.02-1.503    c0.128-0.123,3.133-3.015,6.3-3.015c0.023,0,0.046,0,0.07,0c0.587,0.008,1.058,0.491,1.05,1.079    c-0.008,0.586-0.398,1.063-1.079,1.05c-0.014,0-0.027,0-0.042,0c-1.904,0-4.116,1.738-4.813,2.412    C253.097,270.768,252.829,270.868,252.562,270.868z"/>
		<path style="fill:#251426;" d="M265.977,267.258c-0.347,0-0.688-0.171-0.892-0.482c-0.322-0.493-0.184-1.152,0.309-1.474    c0.151-0.098,3.711-2.385,6.829-1.734c0.576,0.121,0.944,0.684,0.823,1.26c-0.12,0.574-0.69,0.954-1.26,0.823    c-1.883-0.387-4.413,0.9-5.228,1.435C266.378,267.202,266.176,267.258,265.977,267.258z"/>
		<path style="fill:#251426;" d="M263.157,283.704c-0.347,0-0.688-0.171-0.892-0.482c-0.322-0.493-0.184-1.152,0.309-1.474    c0.15-0.098,3.708-2.379,6.829-1.734c0.576,0.121,0.944,0.684,0.823,1.26c-0.122,0.576-0.682,0.952-1.26,0.823    c-1.882-0.391-4.413,0.9-5.228,1.435C263.558,283.648,263.357,283.704,263.157,283.704z"/>
		<path style="fill:#251426;" d="M271.342,275.135c-0.347,0-0.688-0.171-0.892-0.482c-0.322-0.493-0.184-1.152,0.309-1.474    c0.15-0.098,3.708-2.385,6.829-1.734c0.576,0.121,0.944,0.684,0.823,1.26c-0.12,0.574-0.69,0.957-1.26,0.823    c-1.878-0.391-4.413,0.9-5.228,1.435C271.743,275.079,271.541,275.135,271.342,275.135z"/>
		<path style="fill:#251426;" d="M258.277,276.56c-0.278,0-0.554-0.108-0.763-0.324c-0.41-0.42-0.4-1.094,0.02-1.503    c0.128-0.123,3.133-3.015,6.3-3.015c0.023,0,0.046,0,0.07,0c0.587,0.008,1.057,0.491,1.05,1.079    c-0.008,0.582-0.483,1.05-1.065,1.05c-0.012,0.002-0.035,0-0.056,0c-1.904,0-4.116,1.738-4.813,2.412    C258.812,276.46,258.544,276.56,258.277,276.56z"/>
	</g>
	<g>
		<path style="fill:#251426;" d="M322.031,463.182c-0.332,0-0.659-0.154-0.867-0.445c-0.104-0.146-2.543-3.602-2.02-6.75    c0.096-0.578,0.632-0.984,1.225-0.875c0.58,0.096,0.972,0.645,0.875,1.225c-0.315,1.898,1.085,4.369,1.652,5.161    c0.342,0.478,0.232,1.144-0.246,1.485C322.462,463.117,322.245,463.182,322.031,463.182z"/>
		<path style="fill:#251426;" d="M331.079,456.49c-0.332,0-0.659-0.154-0.867-0.445c-0.104-0.146-2.543-3.602-2.02-6.752    c0.096-0.578,0.632-0.981,1.225-0.875c0.58,0.096,0.972,0.645,0.875,1.225c-0.315,1.901,1.085,4.371,1.652,5.163    c0.342,0.478,0.232,1.144-0.246,1.485C331.509,456.426,331.293,456.49,331.079,456.49z"/>
		<path style="fill:#251426;" d="M331.313,469.518c-0.332,0-0.658-0.154-0.866-0.445c-0.104-0.146-2.544-3.602-2.021-6.752    c0.095-0.578,0.636-0.979,1.225-0.875c0.58,0.096,0.972,0.645,0.875,1.225c-0.313,1.888,1.088,4.369,1.654,5.165    c0.34,0.478,0.229,1.144-0.25,1.485C331.743,469.453,331.527,469.518,331.313,469.518z"/>
		<path style="fill:#251426;" d="M318.49,450.724c-0.332,0-0.659-0.154-0.867-0.445c-0.104-0.146-2.544-3.602-2.021-6.75    c0.096-0.578,0.637-0.986,1.225-0.875c0.58,0.096,0.972,0.645,0.875,1.225c-0.315,1.898,1.086,4.369,1.653,5.161    c0.342,0.478,0.232,1.144-0.246,1.485C318.921,450.66,318.704,450.724,318.49,450.724z"/>
		<path style="fill:#251426;" d="M316.945,436.919c-0.404,0-0.791-0.231-0.97-0.624c-0.074-0.162-1.803-4.022-0.684-7.012    c0.207-0.549,0.819-0.836,1.37-0.622c0.551,0.206,0.83,0.819,0.624,1.37c-0.675,1.801,0.225,4.496,0.628,5.382    c0.243,0.534,0.007,1.167-0.528,1.41C317.242,436.888,317.093,436.919,316.945,436.919z"/>
		<path style="fill:#251426;" d="M332.778,442.188c-0.404,0-0.791-0.231-0.97-0.624c-0.074-0.162-1.803-4.022-0.685-7.01    c0.207-0.551,0.823-0.83,1.37-0.626c0.55,0.208,0.83,0.821,0.624,1.37c-0.674,1.803,0.226,4.498,0.629,5.384    c0.243,0.534,0.007,1.167-0.528,1.41C333.075,442.157,332.925,442.188,332.778,442.188z"/>
		<path style="fill:#251426;" d="M325.54,432.806c-0.404,0-0.79-0.231-0.969-0.624c-0.074-0.162-1.803-4.024-0.685-7.012    c0.206-0.551,0.823-0.832,1.37-0.626c0.55,0.208,0.83,0.821,0.624,1.37c-0.67,1.792,0.228,4.496,0.63,5.388    c0.241,0.534,0.004,1.164-0.53,1.408C325.837,432.775,325.687,432.806,325.54,432.806z"/>
		<path style="fill:#251426;" d="M324.979,445.933c-0.332,0-0.659-0.154-0.867-0.445c-0.104-0.146-2.544-3.602-2.021-6.75    c0.096-0.578,0.632-0.984,1.225-0.875c0.58,0.096,0.972,0.645,0.875,1.225c-0.315,1.898,1.086,4.369,1.653,5.161    c0.342,0.478,0.232,1.144-0.246,1.485C325.409,445.869,325.193,445.933,324.979,445.933z"/>
	</g>
	<g>
		<path style="fill:#251426;" d="M235.533,461.177c-0.214,0-0.43-0.064-0.618-0.198c-0.478-0.341-0.59-1.006-0.25-1.485    c0.566-0.796,1.966-3.277,1.653-5.163c-0.097-0.58,0.295-1.129,0.875-1.225c0.585-0.108,1.129,0.297,1.225,0.875    c0.523,3.148-1.916,6.604-2.02,6.75C236.191,461.021,235.865,461.177,235.533,461.177z"/>
		<path style="fill:#251426;" d="M226.486,454.486c-0.214,0-0.43-0.064-0.618-0.198c-0.478-0.341-0.59-1.006-0.25-1.485    c0.566-0.796,1.966-3.277,1.653-5.163c-0.097-0.58,0.295-1.129,0.875-1.225c0.584-0.106,1.129,0.297,1.225,0.875    c0.523,3.148-1.916,6.604-2.02,6.75C227.144,454.33,226.818,454.486,226.486,454.486z"/>
		<path style="fill:#251426;" d="M226.251,467.513c-0.214,0-0.43-0.064-0.618-0.198c-0.478-0.341-0.59-1.006-0.25-1.485    c0.567-0.796,1.967-3.277,1.654-5.163c-0.097-0.58,0.295-1.129,0.875-1.225c0.592-0.104,1.129,0.297,1.225,0.875    c0.523,3.148-1.917,6.604-2.021,6.75C226.909,467.359,226.583,467.513,226.251,467.513z"/>
		<path style="fill:#251426;" d="M239.075,448.72c-0.214,0-0.43-0.064-0.618-0.198c-0.478-0.341-0.59-1.006-0.25-1.485    c0.567-0.796,1.967-3.277,1.654-5.163c-0.097-0.58,0.295-1.129,0.875-1.225c0.59-0.1,1.129,0.297,1.225,0.875    c0.523,3.148-1.917,6.604-2.021,6.75C239.733,448.566,239.406,448.72,239.075,448.72z"/>
		<path style="fill:#251426;" d="M240.62,434.917c-0.147,0-0.296-0.031-0.44-0.096c-0.534-0.243-0.771-0.873-0.53-1.408    c0.402-0.892,1.3-3.595,0.63-5.388c-0.206-0.549,0.074-1.162,0.624-1.37c0.553-0.204,1.164,0.075,1.37,0.626    c1.118,2.988-0.611,6.85-0.685,7.012C241.41,434.686,241.024,434.917,240.62,434.917z"/>
		<path style="fill:#251426;" d="M224.787,440.186c-0.147,0-0.296-0.031-0.44-0.096c-0.534-0.243-0.771-0.873-0.53-1.41    c0.403-0.89,1.301-3.593,0.63-5.384c-0.206-0.551,0.073-1.164,0.624-1.37c0.55-0.214,1.164,0.073,1.37,0.622    c1.119,2.99-0.611,6.852-0.685,7.014C225.577,439.955,225.191,440.186,224.787,440.186z"/>
		<path style="fill:#251426;" d="M232.023,430.801c-0.148,0-0.296-0.031-0.44-0.096c-0.534-0.243-0.771-0.873-0.529-1.41    c0.402-0.89,1.3-3.593,0.629-5.386c-0.206-0.549,0.073-1.162,0.624-1.37c0.55-0.204,1.164,0.075,1.37,0.626    c1.119,2.99-0.611,6.85-0.685,7.012C232.813,430.571,232.428,430.801,232.023,430.801z"/>
		<path style="fill:#251426;" d="M232.587,443.929c-0.214,0-0.43-0.064-0.618-0.198c-0.478-0.341-0.59-1.006-0.25-1.485    c0.566-0.796,1.966-3.277,1.653-5.163c-0.097-0.58,0.295-1.129,0.875-1.225c0.584-0.106,1.129,0.297,1.225,0.875    c0.523,3.148-1.916,6.604-2.02,6.75C233.245,443.773,232.918,443.929,232.587,443.929z"/>
	</g>
</g>















</svg>
