<?xml version="1.0" encoding="UTF-8"?>
<!-- Generator: Adobe Illustrator 25.2.0, SVG Export Plug-In . SVG Version: 6.00 Build 0)  -->
<svg xmlns="http://www.w3.org/2000/svg" xmlns:xlink="http://www.w3.org/1999/xlink" version="1.1" id="Capa_1" x="0px" y="0px" viewBox="0 0 512 512" style="enable-background:new 0 0 512 512;" xml:space="preserve" width="512" height="512">
<g>
	<path style="fill:#FAC99D;" d="M345.779,226.919c0,0,123.922,112.555,30.048,211.223l-149.925-2.075   c0,0-95.647-68.866,28.056-206.597C308.874,168.326,345.779,226.919,345.779,226.919z"/>
	<path style="fill:#FAC99D;" d="M240.62,247.81c0,0-47.021,5.725-69.67-0.855l2.665,27.967c0,0,39.575,26.322,61.558,18.645   L240.62,247.81z"/>
	<path style="fill:#251426;" d="M383.298,291.761c-0.445,0-0.863-0.279-1.017-0.725c-0.193-0.561,0.105-1.174,0.666-1.368   c8.988-3.099,15.982-11.872,16.631-20.86c0.109-1.506,0.036-2.952-0.214-4.326c-1.708,0.761-3.584,1.204-5.622,1.324   c-9.074,0.521-14.272-3.906-15.969-7.874c-1.242-2.904-0.842-5.792,1.038-7.542c2.523-2.351,7.072-2.09,12.48,0.7   c4.677,2.414,7.881,5.893,9.425,10.127c1.632-1.179,3.044-2.775,4.227-4.784c6.233-10.599,4.635-30.327-0.698-41.405   c-1.62-3.364-4.147-5.841-6.921-7.498c-2.086,5.591-4.567,9.687-7.225,11.076c-1.7,0.889-4.307,1.225-7.063-2.219   c-3.784-4.729-3.53-7.902-2.651-9.732c1.166-2.427,4.172-3.876,8.044-3.876c0.002,0,0.004,0,0.006,0   c2.418,0,5.107,0.544,7.706,1.685c4.641-14.503,6.929-37.794,3.427-49.574c-0.477-1.607-1.057-2.952-1.702-4.076   c-1.668,5.204-3.994,9.192-6.677,11.316c-3.261,2.58-6.921,2.445-10.309-0.376c-3.864-3.219-5.229-7.282-3.744-11.148   c1.729-4.496,7.013-7.664,12.242-7.526c2.878,0.113,5.437,1.195,7.532,3.12c2.857-12.843,1.941-31.348-5.923-47.076   c-0.351-0.704-0.71-1.372-1.074-2.004c-1.689,3.855-4.33,6.66-7.902,8.271c-10.335,4.656-13.738,1.351-14.852-1.034   c-2.317-4.965,1.828-13.652,7.925-16.597c2.523-1.229,8.339-2.765,14.188,4.563c2.261-10.183-1.225-23.965-3.433-31.081   c-8.826-28.474-30.516-61.289-43.298-59.003c-21.549,3.868-30.772,41.487-30.863,41.868c-0.139,0.576-0.712,0.941-1.296,0.796   c-0.578-0.139-0.935-0.719-0.796-1.296c0.384-1.605,9.654-39.372,32.577-43.485c11.721-2.119,34.367,23.831,45.733,60.484   c4.422,14.265,5.368,25.888,2.96,33.93c0.689,1.067,1.376,2.271,2.055,3.626c8.578,17.158,9.147,36.684,5.729,49.956   c1.261,1.679,2.273,3.746,2.99,6.158c3.782,12.723,1.439,36.212-3.565,51.154c3.252,1.851,6.21,4.704,8.116,8.664   c5.57,11.566,7.192,32.247,0.613,43.428c-1.492,2.538-3.311,4.502-5.444,5.883c0.387,1.75,0.515,3.609,0.374,5.559   c-0.71,9.809-8.311,19.373-18.076,22.738C383.533,291.742,383.413,291.761,383.298,291.761z M383.39,250.942   c-1.313,0-2.378,0.338-3.116,1.023c-1.198,1.114-1.397,3.076-0.523,5.122c1.42,3.326,5.902,7.042,13.864,6.572   c1.895-0.111,3.63-0.548,5.2-1.309c-1.319-3.914-4.214-7.131-8.513-9.349C387.659,251.637,385.273,250.942,383.39,250.942z    M388.435,204.929c-0.002,0-0.002,0-0.004,0c-3.025,0-5.309,0.994-6.107,2.658c-0.863,1.798-0.015,4.446,2.393,7.454   c2,2.498,3.467,2.143,4.387,1.658c2.303-1.204,4.479-4.969,6.336-10.158C393.046,205.452,390.582,204.929,388.435,204.929z    M388.893,145.222c-4.238,0-8.379,2.593-9.748,6.156c-1.149,2.994-0.044,6.091,3.114,8.723c2.597,2.164,5.154,2.273,7.595,0.34   c2.689-2.13,4.941-6.332,6.454-11.818c-2.391-2.7-5.185-3.322-7.013-3.393C389.159,145.224,389.025,145.222,388.893,145.222z    M379.52,88.85c-1.16,0-2.328,0.279-3.5,0.847c-5.395,2.607-8.568,10.198-6.91,13.751c1.328,2.836,5.706,2.828,12.017-0.019   c3.763-1.698,6.084-4.742,7.406-8.496C385.75,90.921,382.676,88.85,379.52,88.85z"/>
	<path style="fill:#251426;" d="M261.735,47.413c-0.139,0-0.277-0.025-0.412-0.082c-0.548-0.227-0.809-0.857-0.582-1.406   l8.738-21.07c-2.151-1.515-7.813-6.114-4.925-10.843c1.876-3.065,11.003-6.475,15.988-5.969c2.578,0.256,3.54,1.469,3.893,2.439   c0.948,2.599-1.319,6.696-6.929,12.519l0.786,21.963c0.021,0.592-0.443,1.092-1.038,1.113c-0.618-0.027-1.092-0.443-1.113-1.038   l-0.8-22.421c-0.01-0.292,0.101-0.578,0.305-0.788c6.988-7.173,7.061-9.811,6.769-10.614c-0.258-0.708-1.277-0.954-2.086-1.034   c-4.601-0.469-12.73,2.975-13.938,4.95c-2.34,3.832,4.91,8.353,4.983,8.4c0.45,0.277,0.632,0.84,0.431,1.328l-9.076,21.888   C262.557,47.163,262.158,47.413,261.735,47.413z"/>
	<path style="fill:#FAC99D;" d="M237.539,274.682l13.992-167.176c0,0-68.487,1.094-76.272-1.501s-30.065-43.073-17.09-50.858   c12.975-7.785,185.767-14.018,185.767-14.018l-7.785,236.148L237.539,274.682z"/>
	<path style="fill:#FAC99D;" d="M330.913,49.014c0,0,24.372-32.031,48.047-35.513c0,0,16.712,57.796-41.78,39.691L330.913,49.014z"/>
	<path style="fill:#FDE5C7;" d="M196.521,49.014c0,0,2.785,59.188-0.696,59.188c-3.482,0-35.52,3.266-58.476-7.144   C121.18,93.726,106.919,43.936,196.521,49.014z"/>
	<path style="fill:#251426;" d="M274.198,135.346c-8.46,0-16.421-9.229-23.667-27.442c-0.218-0.55,0.05-1.177,0.603-1.397   c0.548-0.212,1.177,0.048,1.397,0.603c6.887,17.312,14.175,26.085,21.665,26.085c0.09,0,0.181,0,0.273-0.004   c14.688-0.418,26.064-34.042,26.178-34.382c0.189-0.563,0.803-0.866,1.361-0.681c0.563,0.189,0.868,0.798,0.681,1.361   c-0.483,1.445-11.982,35.392-28.159,35.853C274.419,135.344,274.307,135.346,274.198,135.346z"/>
	<path style="fill:#251426;" d="M258.206,79.778c-0.307,0-0.613-0.082-0.901-0.246c-2.914-1.653-4.21-14.948-4.635-20.589   c-0.044-0.592,0.401-1.107,0.994-1.153c0.578-0.053,1.107,0.401,1.153,0.994c0.609,8.135,2.105,17.371,3.416,18.763   c1.712-1.347,4.513-10.547,6.202-18.637c0.12-0.582,0.685-0.964,1.273-0.832c0.58,0.122,0.954,0.691,0.832,1.273   c-0.901,4.315-4.105,18.526-7.511,20.228C258.762,79.713,258.483,79.778,258.206,79.778z"/>
	<path style="fill:#251426;" d="M281.659,80.602c-0.307,0-0.613-0.082-0.901-0.246c-2.914-1.653-4.21-14.948-4.635-20.589   c-0.044-0.592,0.401-1.107,0.994-1.153c0.578-0.044,1.107,0.401,1.153,0.994c0.609,8.135,2.103,17.371,3.416,18.763   c1.71-1.347,4.511-10.549,6.202-18.637c0.12-0.582,0.687-0.962,1.273-0.832c0.582,0.122,0.954,0.691,0.832,1.273   c-0.901,4.313-4.107,18.524-7.511,20.228C282.215,80.534,281.936,80.602,281.659,80.602z"/>
	<path style="fill:#251426;" d="M198.474,106.405c-0.582,0-1.061-0.462-1.076-1.048c-0.015-0.592,0.454-1.086,1.048-1.103   c9.131-0.24,11.751-17.589,11.776-17.763c0.086-0.59,0.664-0.99,1.219-0.912c0.588,0.086,0.996,0.632,0.912,1.219   c-0.116,0.79-2.927,19.32-13.851,19.608C198.493,106.405,198.482,106.405,198.474,106.405z"/>
	<path style="fill:#251426;" d="M165.109,86.385c-0.584,0-1.061-0.466-1.076-1.05c-0.057-2.534-0.378-24.842,6.12-27.928   c1.733-0.828,3.691-0.34,5.796,1.46c0.452,0.384,0.506,1.063,0.12,1.515c-0.384,0.456-1.065,0.508-1.515,0.12   c-1.401-1.195-2.572-1.58-3.479-1.151c-3.95,1.876-5.097,16.904-4.891,25.934c0.013,0.595-0.458,1.086-1.05,1.101   C165.126,86.385,165.117,86.385,165.109,86.385z"/>
	<path style="fill:#251426;" d="M155.766,85.318c-0.149,0-0.3-0.032-0.445-0.097c-0.54-0.246-0.779-0.882-0.534-1.424   c2.174-4.788,7.047-18.129,3.504-22.289c-1.177-1.38-3.37-1.643-6.513-0.786c-0.574,0.153-1.166-0.183-1.321-0.754   c-0.155-0.574,0.181-1.166,0.754-1.321c4.025-1.097,6.954-0.603,8.719,1.469c5.059,5.944-2.326,22.684-3.185,24.573   C156.564,85.085,156.174,85.318,155.766,85.318z"/>
	<path style="fill:#251426;" d="M284.959,47.68c-0.116,0-0.235-0.019-0.351-0.059c-0.561-0.193-0.859-0.805-0.666-1.368   l8.086-23.482c-1.187-1.628-4.534-6.616-3.383-9.788c0.311-0.861,1.09-1.975,3.023-2.395c4.063-0.889,10.748-0.311,12.198,3.051   c1.065,2.462-0.876,5.467-5.769,8.933l2.08,22.333c0.055,0.59-0.38,1.116-0.973,1.17c-0.586,0.034-1.116-0.38-1.17-0.973   l-2.137-22.955c-0.036-0.387,0.141-0.765,0.462-0.985c4.065-2.79,6.133-5.282,5.532-6.67c-0.821-1.899-6.145-2.586-9.765-1.803   c-1.057,0.231-1.338,0.698-1.46,1.027c-0.687,1.895,1.729,6.04,3.414,8.206c0.223,0.286,0.286,0.666,0.168,1.011l-8.273,24.022   C285.823,47.4,285.404,47.68,284.959,47.68z"/>
	<path style="fill:#251426;" d="M349.855,51.867c-1.731,0-3.53-0.25-5.387-0.754c-0.574-0.155-0.912-0.746-0.756-1.319   c0.155-0.571,0.746-0.908,1.319-0.756c6.168,1.674,11.513,0.24,15.889-4.271c6.334-6.53,8.797-17.707,8.851-21.114   c-3.597,2.08-16.198,13.036-27.228,23.209c-0.435,0.405-1.116,0.378-1.519-0.061c-0.403-0.437-0.376-1.118,0.061-1.519   c9.786-9.028,26.566-24.112,29.413-24.112c0.017,0,0.034,0,0.048,0.002c0.294,0.019,0.733,0.231,0.922,0.456   c1.307,1.569-0.59,12.467-5.694,20.417C361.608,48.537,356.173,51.867,349.855,51.867z"/>
	<path style="fill:#F19085;" d="M340.045,130.937c0,0-7.497-25.952-19.031-18.454c-11.534,7.497-2.884,22.491-2.884,22.491   s-24.221-9.804-20.761,7.497s42.676,19.608,42.676,19.608V130.937z"/>
	<path style="fill:#F19085;" d="M244.313,171.883c0,0,15.571-27.105,26.528-23.068c10.957,4.037-4.037,31.142-4.037,31.142   s15.571-1.153,16.724,9.227c1.153,10.381-39.792,9.227-39.792,9.227L244.313,171.883z"/>
	<path style="fill:#F19085;" d="M315.824,217.443c0,0-40.946-38.639-22.491-40.946s21.915,9.804,21.915,9.804   s7.497-22.491,17.301-16.724S315.824,217.443,315.824,217.443z"/>
	<g>
		<path style="fill:#251426;" d="M181.347,365.655c-0.181,0-0.363-0.036-0.538-0.109c-1.063-0.443-123.907-74.724-131.248-87.37    c-7.061-12.167-0.246-25.421,0.048-25.978c0.275-0.525,0.927-0.727,1.452-0.452c0.525,0.275,0.727,0.927,0.452,1.452    c-0.065,0.126-6.547,12.776-0.09,23.898c6.2,10.683,118.583,80.189,129.708,86.197c0.794-1.685,1.849-7.683,2.441-12.86    c0.067-0.59,0.634-1.013,1.191-0.948c0.59,0.069,1.015,0.601,0.948,1.191c-0.71,6.185-1.916,13.77-3.635,14.776    C181.849,365.588,181.597,365.655,181.347,365.655z"/>
		<path style="fill:#E33961;" d="M185.126,352.193c0,0-150.624-73.342-133.167-103.812s77.078-14.992,77.078-14.992    s-13.469-60.391,47.016-37.942S185.126,352.193,185.126,352.193z"/>
		<path style="fill:#251426;" d="M185.125,353.268c-0.403,0-0.79-0.227-0.973-0.616l-56.089-118.804    c-0.254-0.538-0.023-1.179,0.513-1.433c0.538-0.248,1.181-0.025,1.433,0.513l56.089,118.804c0.254,0.538,0.023,1.179-0.513,1.433    C185.435,353.234,185.28,353.268,185.125,353.268z"/>
		<path style="fill:#251426;" d="M93.919,298.152c-0.389,0-0.765-0.212-0.956-0.582c-0.273-0.527-0.065-1.177,0.462-1.45    l112.039-57.973c0.523-0.273,1.174-0.067,1.45,0.462c0.273,0.527,0.065,1.177-0.462,1.45L94.412,298.032    C94.255,298.114,94.087,298.152,93.919,298.152z"/>
		<path style="fill:#251426;" d="M187.936,291.298c-0.58,0-1.057-0.46-1.076-1.042c-0.317-9.969-3.353-15.686-8.776-16.528    c-1.16-0.181-2.374-0.124-3.578,0.107c0.937,7.696-2.437,10.606-4.007,11.524c-2.349,1.378-5.299,1.263-7.173-0.284    c-1.418-1.172-1.878-2.958-1.235-4.778c1.015-2.857,5.223-6.46,9.984-8.032c-0.637-3.027-2.03-4.998-4.248-6.013    c-6.908-3.162-19.251,4.034-19.375,4.105c-0.464,0.277-1.067,0.162-1.399-0.271c-0.33-0.429-0.29-1.04,0.097-1.42    c6.225-6.147,22.009-23.573,20.327-30.289c-0.282-1.122-1.069-1.838-2.479-2.256c-1.771-0.527-3.41-0.279-5.017,0.754    c-8.448,5.427-11.938,29.424-11.971,29.665c-0.082,0.586-0.605,0.99-1.216,0.914c-0.588-0.084-0.998-0.628-0.914-1.216    c0.145-1.027,3.67-25.22,12.94-31.174c2.137-1.372,4.42-1.708,6.792-1.006c2.679,0.794,3.628,2.502,3.952,3.796    c1.744,6.958-9.963,20.766-16.663,27.959c4.591-1.874,11.095-3.681,15.822-1.517c2.817,1.29,4.643,3.786,5.435,7.425    c1.429-0.275,2.866-0.338,4.259-0.12c4.584,0.712,10.145,4.517,10.595,18.587c0.019,0.592-0.447,1.09-1.042,1.109    C187.959,291.298,187.946,291.298,187.936,291.298z M172.408,274.415c-4.038,1.441-7.551,4.525-8.286,6.601    c-0.437,1.229,0.074,1.983,0.576,2.399c1.004,0.828,2.941,1.124,4.717,0.088C171.815,282.096,172.872,278.832,172.408,274.415z"/>
		<path style="fill:#251426;" d="M137.416,323.773c-0.084,0-0.17-0.01-0.254-0.032c-4.33-1.055-6.933-4.086-7.53-8.765    c-0.641-5.04,1.151-11.206,3.714-16.215c-0.426-0.34-0.863-0.735-1.309-1.191c-2.118-2.168-3.116-4.769-2.962-7.729    c0.357-6.908,6.941-13.988,10.215-17.1c-5.916-0.777-20.85-3.357-23.854-9.82c-1.021-2.193-0.66-4.57,1.074-7.059    c1.723-2.479,3.95-3.735,6.616-3.738h0.004c9.738,0,22.056,17.499,22.575,18.245c0.34,0.487,0.221,1.158-0.267,1.498    c-0.481,0.336-1.156,0.225-1.498-0.267c-0.12-0.174-12.19-17.324-20.81-17.324c-0.002,0-0.002,0-0.004,0    c-1.948,0.002-3.534,0.922-4.851,2.813c-1.282,1.845-1.574,3.454-0.889,4.925c2.63,5.654,18.572,8.313,24.493,8.862    c0.433,0.04,0.8,0.338,0.929,0.752c0.128,0.416-0.004,0.868-0.34,1.147c-0.107,0.088-10.828,9.105-11.242,17.179    c-0.122,2.368,0.647,4.368,2.351,6.112c0.258,0.263,0.534,0.525,0.824,0.773c1.941-3.307,4.16-5.876,6.059-6.895    c2.563-1.376,3.754,0.01,4.057,0.466c1.382,2.084-0.034,6.614-2.754,8.816c-1.046,0.845-3.452,2.246-6.635,0.681    c-2.305,4.599-3.937,10.261-3.359,14.797c0.481,3.773,2.467,6.11,5.904,6.95c0.578,0.141,0.931,0.723,0.79,1.298    C138.341,323.443,137.902,323.773,137.416,323.773z M136.152,298.005c1.33,0.628,2.813,0.714,4.257-0.452    c2.147-1.737,2.88-5.101,2.315-5.952c-0.206-0.315-1.141,0.179-1.248,0.237C139.828,292.723,137.879,295.028,136.152,298.005z"/>
	</g>
	<path style="fill:#FAC99D;" d="M309.015,294.664c0,0-76.438,18.639-121.362,1.165l-14.081,35.531c0,0,71.744,37.279,142.148,8.737   L309.015,294.664z"/>
	<polygon style="fill:#251626;" points="212.294,303.917 195.699,342.427 168.208,332.525 187.653,295.828  "/>
	<polygon style="fill:#FAC99D;" points="380.212,419.489 367.14,505.89 328.881,507.803 318.662,427.696  "/>
	<polygon style="fill:#FAC99D;" points="286.004,427.572 270.21,505.245 230.049,505.685 223.962,430.127  "/>
	<path style="fill:#FDE5C7;" d="M280.739,437.343c0,0-38.618-85.561-1.695-126.042c25.839-28.33,69.285,44.423,38.678,124.767   L280.739,437.343z"/>
	<path style="fill:#FAC99D;" d="M333.026,271.555l25.506,34.433c0,0-29.332,73.967-140.282,39.534l6.376-36.983   C224.626,308.538,304.969,322.566,333.026,271.555z"/>
	<path style="fill:#251426;" d="M249.321,309.785c-17.841,0-31.083-3.95-31.388-4.044c-0.567-0.174-0.887-0.777-0.71-1.345   c0.174-0.567,0.775-0.895,1.345-0.71c0.691,0.214,69.779,20.774,104.625-33.985c0.324-0.502,0.99-0.643,1.485-0.33   c0.5,0.319,0.649,0.983,0.33,1.485C304.645,302.852,272.95,309.785,249.321,309.785z"/>
	<path style="fill:#251426;" d="M269.223,356.159c-31.485,0-58.467-9.437-58.988-9.624c-0.559-0.202-0.849-0.817-0.649-1.376   c0.202-0.559,0.815-0.847,1.376-0.649c0.998,0.359,100.108,34.993,138.994-30.144c0.307-0.515,0.966-0.676,1.475-0.374   c0.511,0.305,0.679,0.966,0.374,1.475C332.503,347.793,298.867,356.159,269.223,356.159z"/>
	<path style="fill:#FAC99D;" d="M393.921,393.026c0,0-12.434,32.52,15.304,42.085s31.564-64.083,31.564-64.083l12.434,2.869   c0,0,5.739,65.996-26.781,80.343s-52.606-35.389-52.606-35.389L393.921,393.026z"/>
	<circle style="fill:#F19085;" cx="312.244" cy="76.544" r="7.931"/>
	<polygon style="fill:#251626;" points="228.636,486.943 274.937,487.488 274.392,512 225.912,509.821  "/>
	<polygon style="fill:#251626;" points="326.686,486.398 368.629,486.398 367.54,511.455 325.596,511.455  "/>
	<path style="fill:#F19085;" d="M285.287,277.77c0,0-33.228-38.13-20.699-46.301c12.529-8.171,21.244,9.805,21.244,9.805   s5.626-21.461,19.065-16.342C327.775,233.647,285.287,277.77,285.287,277.77z"/>
	<path style="fill:#F19085;" d="M223.284,302.192c0,0,8.451-30.053,14.255-27.51c5.804,2.543,6.894,16.161,6.894,16.161   s19.065-10.35,22.334-5.992c3.268,4.358-5.313,20.352-14.028,21.441C244.022,307.382,224.918,304.37,223.284,302.192z"/>
	<path style="fill:#F19085;" d="M353.377,239.639c0,0-21.789-0.545-21.789,11.439s24.512,15.797,24.512,15.797   s-10.35,6.537-5.447,17.431c4.902,10.894,26.147-17.431,26.147-19.065C376.8,263.607,357.19,241.274,353.377,239.639z"/>
	<path style="fill:#251426;" d="M208.481,296.822c-0.185,0-0.37-0.046-0.54-0.145c-0.513-0.298-0.689-0.956-0.391-1.471   c5.946-10.267,19.522-29.838,19.656-30.033c0.34-0.49,1.008-0.605,1.498-0.271c0.487,0.34,0.609,1.011,0.271,1.498   c-0.137,0.195-13.662,19.692-19.564,29.886C209.212,296.629,208.85,296.822,208.481,296.822z"/>
	<path style="fill:#F19085;" d="M323.463,340.013c0,0-35.952-5.447-27.236-16.342s25.057-7.626,25.057-7.626   s0.545-22.334,7.626-20.155c7.081,2.179,11.984,25.602,11.984,28.87C340.894,328.029,326.731,340.013,323.463,340.013z"/>
	<path style="fill:#F19085;" d="M279.044,309.076c0,0,6.243,28.613-10.099,32.426c-6.41,1.496-10.894-14.707-10.894-14.707   s-8.716,18.521-19.065,9.805c-3.359-2.829,4.902-22.334,10.35-23.968C254.782,310.998,270.592,311.745,279.044,309.076z"/>
	<path style="fill:#F19085;" d="M359.448,357.451c0,0-2.397-48.335,9.587-49.134s7.989,16.778,7.989,16.778   s19.174-9.587,23.169,0.399C404.188,335.48,358.649,361.046,359.448,357.451z"/>
	<path style="fill:#F19085;" d="M402.591,396.598c0,0-23.968,0.399-25.166-13.182c-1.198-13.582,17.577-11.585,17.577-11.585   s-11.185-15.18,2.796-17.177c13.981-1.997,13.182,19.973,13.182,19.973S407.384,391.405,402.591,396.598z"/>
	<path style="fill:#F19085;" d="M347.065,361.845c0,0,29.037,24.079,21.172,34.754c-3.944,5.352-19.174-7.59-19.174-7.59   s-0.399,27.164-10.386,19.574S337.877,359.848,347.065,361.845z"/>
	<path style="fill:#F19085;" d="M375.826,438.143c0,0-21.971-0.399-21.571-10.786c0.399-10.386,17.576-7.989,17.576-7.989   s-5.375-17.168,4.794-16.778c6.644,0.255,10.386,15.579,10.786,23.169C387.81,433.349,375.826,438.143,375.826,438.143z"/>
	<path style="fill:#F19085;" d="M323.097,450.526c0,0,14.78-18.375,18.775-11.185c3.995,7.19-2.796,14.381-2.796,14.381   s15.579-0.799,10.786,8.389s-24.767,7.19-24.767,7.19L323.097,450.526z"/>
	<path style="fill:#F19085;" d="M191.673,370.633c0,0,9.987-18.375,17.576-13.582c7.59,4.794,2.796,21.971,2.796,21.971   s6.391-11.185,14.381-1.997c7.989,9.188-26.365,25.965-27.963,23.568C196.866,398.196,191.273,376.625,191.673,370.633z"/>
	<path style="fill:#F19085;" d="M252.391,421.365c0,0-33.555-14.78-25.166-23.568s17.576,0.799,17.576,0.799   s-2.941-21.539,5.772-19.233C265.698,383.367,256.786,423.762,252.391,421.365z"/>
	<path style="fill:#F19085;" d="M227.625,457.717c0,0,11.185-19.174,16.778-13.981c5.593,5.193-2.397,17.976-2.397,17.976   s6.791-7.989,11.185-0.799c4.394,7.19-21.571,17.177-22.77,17.177S227.625,457.717,227.625,457.717z"/>
	<path style="fill:#F19085;" d="M279.555,456.518c0,0-25.89-7.901-22.488-12.767c3.403-4.867,15.056-1.932,15.056-1.932   s-9.461-14.09-3.914-14.802c5.547-0.712,16.331,9.89,16.139,11.526C284.156,440.178,279.555,456.518,279.555,456.518z"/>
	<path style="fill:#251426;" d="M453.786,375.515c-0.454,0-0.874-0.288-1.023-0.742c-0.183-0.565,0.124-1.172,0.689-1.357   c0.074-0.023,7.397-2.464,9.488-6.818c0.664-1.38,0.712-2.78,0.153-4.273c-1.334-3.553-1.595-7.589-1.824-11.15   c-0.181-2.813-0.387-6.002-1.24-6.612c-0.063-0.044-0.237-0.166-0.731-0.025c-0.908,0.248-1.853,1.332-2.662,3.057   c-0.267,0.567-0.504,1.168-0.712,1.78c0.471,4.429,0.311,8.618-0.994,9.421c-0.492,0.303-1.061,0.303-1.515,0   c-0.342-0.231-1.387-0.931-0.584-5.847c0.101-0.603,0.384-2.156,0.941-3.891c-0.441-3.769-1.37-7.994-2.994-10.587   c-0.849-1.357-1.763-1.99-2.687-1.891c-2.057,0.225-3.696,2.483-4.708,4.338c-0.847,1.555-1.534,3.311-2.061,5.067   c1.101,4.391,0.901,9.618,0.017,11.232c-0.435,0.792-1.046,0.952-1.366,0.895c-0.622-0.01-1.137-0.416-1.529-1.204   c-0.973-1.943-0.586-6.523,0.66-10.948c-0.326-1.137-0.758-2.185-1.319-3.027c-0.96-1.441-1.374-1.527-1.393-1.529   c-0.884,0.324-2.427,5.305-4.061,10.58c-0.45,1.454-0.941,3.044-1.487,4.767c-1.204,3.807-1.011,6.95,0.571,9.347   c2.817,4.269,9.194,4.939,9.257,4.946c0.59,0.059,1.023,0.584,0.966,1.174c-0.057,0.592-0.578,1.013-1.172,0.969   c-0.3-0.029-7.446-0.765-10.839-5.891c-1.964-2.967-2.246-6.731-0.834-11.192c0.544-1.721,1.036-3.307,1.483-4.757   c2.576-8.313,3.641-11.755,5.834-12.074c1.481-0.212,2.574,1.13,3.464,2.466c0.212,0.319,0.412,0.664,0.595,1.027   c0.399-1.023,0.845-1.996,1.326-2.878c1.803-3.307,4.004-5.191,6.366-5.448c1.798-0.185,4.404,0.74,6.32,6.336   c0.445,1.298,0.847,2.92,1.17,4.658c0.853-1.424,1.96-2.586,3.38-2.973c0.99-0.271,1.843-0.151,2.548,0.351   c1.683,1.202,1.874,4.147,2.137,8.223c0.221,3.412,0.469,7.278,1.689,10.532c0.769,2.046,0.691,4.055-0.229,5.967   c-2.494,5.181-10.421,7.818-10.757,7.927C454.009,375.498,453.898,375.515,453.786,375.515z"/>
	<g>
		<path style="fill:#251426;" d="M312.818,341.612c-0.065,0-0.132,0-0.198-0.002c-0.595-0.021-1.059-0.521-1.038-1.113    c0.023-0.595,0.565-0.994,1.113-1.038c2.53,0.179,5.366-2.504,5.393-2.53c0.435-0.399,1.116-0.38,1.521,0.055    c0.403,0.435,0.38,1.116-0.055,1.519C319.417,338.633,316.183,341.612,312.818,341.612z"/>
		<path style="fill:#251426;" d="M304.33,332.798c-0.065,0-0.13,0-0.195-0.002c-0.592-0.021-1.057-0.519-1.038-1.113    c0.021-0.592,0.54-1.036,1.114-1.038c2.601,0.124,5.366-2.502,5.393-2.53c0.435-0.399,1.116-0.382,1.521,0.057    c0.403,0.433,0.38,1.113-0.055,1.517C310.931,329.819,307.695,332.798,304.33,332.798z"/>
		<path style="fill:#251426;" d="M318.343,330.716c-0.065,0-0.13,0-0.195-0.002c-0.592-0.021-1.059-0.519-1.038-1.113    c0.021-0.592,0.548-1.021,1.113-1.038c2.582,0.164,5.364-2.504,5.391-2.53c0.437-0.401,1.116-0.382,1.521,0.057    c0.403,0.433,0.38,1.113-0.055,1.517C324.942,327.737,321.707,330.716,318.343,330.716z"/>
		<path style="fill:#251426;" d="M299.884,347.179c-0.065,0-0.132,0-0.198-0.002c-0.595-0.021-1.059-0.521-1.038-1.113    c0.021-0.595,0.561-1.002,1.113-1.038c0.044,0.002,0.086,0.002,0.13,0.002c2.504,0,5.236-2.504,5.263-2.53    c0.435-0.401,1.116-0.382,1.521,0.057c0.403,0.433,0.38,1.114-0.055,1.517C306.483,344.202,303.25,347.179,299.884,347.179z"/>
		<path style="fill:#251426;" d="M285.814,349.671c-0.479,0-0.956-0.046-1.424-0.155c-0.578-0.134-0.939-0.714-0.805-1.292    c0.134-0.576,0.71-0.935,1.292-0.805c2.053,0.483,4.872-0.878,5.778-1.443c0.511-0.309,1.168-0.158,1.483,0.345    c0.313,0.506,0.16,1.168-0.345,1.483C291.651,347.889,288.751,349.671,285.814,349.671z"/>
		<path style="fill:#251426;" d="M289.268,331.863c-0.477,0-0.954-0.048-1.422-0.155c-0.578-0.134-0.939-0.714-0.805-1.292    s0.708-0.935,1.292-0.805c2.473,0.588,5.746-1.424,5.78-1.445c0.504-0.313,1.168-0.158,1.481,0.347s0.16,1.166-0.345,1.481    C295.109,330.08,292.207,331.863,289.268,331.863z"/>
		<path style="fill:#251426;" d="M280.171,340.982c-0.479,0-0.956-0.046-1.424-0.155c-0.578-0.134-0.939-0.714-0.805-1.292    c0.134-0.576,0.712-0.935,1.292-0.805c2.057,0.487,4.872-0.878,5.778-1.443c0.508-0.309,1.17-0.158,1.483,0.345    c0.313,0.506,0.16,1.168-0.345,1.483C286.007,339.2,283.108,340.982,280.171,340.982z"/>
		<path style="fill:#251426;" d="M293.806,340.858c-0.065,0-0.13,0-0.195-0.002c-0.592-0.021-1.057-0.519-1.038-1.113    c0.023-0.592,0.536-1.027,1.113-1.038c2.54,0.099,5.366-2.502,5.393-2.53c0.437-0.401,1.116-0.382,1.521,0.057    c0.403,0.433,0.38,1.113-0.055,1.517C300.407,337.878,297.172,340.858,293.806,340.858z"/>
	</g>
	<g>
		<path style="fill:#251426;" d="M218.023,422.529c-0.231,0-0.46-0.074-0.658-0.225c-0.151-0.118-3.752-2.929-4.191-6.339    c-0.076-0.588,0.34-1.128,0.931-1.204c0.574-0.078,1.128,0.338,1.204,0.931c0.271,2.103,2.525,4.257,3.372,4.91    c0.471,0.361,0.557,1.038,0.193,1.508C218.664,422.384,218.345,422.529,218.023,422.529z"/>
		<path style="fill:#251426;" d="M225.339,412.722c-0.231,0-0.462-0.074-0.658-0.225c-0.153-0.118-3.75-2.929-4.191-6.334    c-0.076-0.59,0.34-1.128,0.929-1.206c0.599-0.08,1.128,0.338,1.206,0.929c0.271,2.103,2.525,4.257,3.372,4.91    c0.471,0.361,0.557,1.038,0.193,1.508C225.979,412.577,225.66,412.722,225.339,412.722z"/>
		<path style="fill:#251426;" d="M229.671,426.21c-0.229,0-0.46-0.074-0.656-0.225c-0.153-0.118-3.75-2.929-4.191-6.336    c-0.076-0.59,0.34-1.13,0.929-1.206c0.599-0.082,1.128,0.338,1.206,0.929c0.326,2.521,3.343,4.889,3.372,4.912    c0.469,0.363,0.557,1.04,0.193,1.508C230.312,426.067,229.992,426.21,229.671,426.21z"/>
		<path style="fill:#251426;" d="M210.424,410.674c-0.231,0-0.462-0.074-0.658-0.225c-0.153-0.118-3.75-2.929-4.191-6.334    c-0.076-0.59,0.34-1.128,0.929-1.206c0.597-0.08,1.128,0.338,1.206,0.929c0.271,2.103,2.525,4.257,3.372,4.91    c0.471,0.361,0.557,1.038,0.193,1.508C211.065,410.529,210.745,410.674,210.424,410.674z"/>
		<path style="fill:#251426;" d="M204.483,396.791c-0.298,0-0.597-0.124-0.809-0.366c-0.128-0.145-3.118-3.597-2.893-7.026    c0.038-0.592,0.544-1.067,1.143-1.004c0.595,0.04,1.042,0.55,1.004,1.143c-0.139,2.118,1.66,4.664,2.364,5.467    c0.391,0.448,0.347,1.126-0.099,1.519C204.987,396.703,204.735,396.791,204.483,396.791z"/>
		<path style="fill:#251426;" d="M222.616,397.303c-0.298,0-0.597-0.124-0.809-0.366c-0.126-0.145-3.118-3.597-2.893-7.023    c0.04-0.595,0.609-1.046,1.143-1.004c0.595,0.04,1.042,0.55,1.004,1.143c-0.139,2.116,1.66,4.662,2.364,5.465    c0.391,0.448,0.347,1.126-0.099,1.519C223.12,397.215,222.868,397.303,222.616,397.303z"/>
		<path style="fill:#251426;" d="M212.138,389.809c-0.298,0-0.597-0.124-0.809-0.366c-0.126-0.145-3.116-3.595-2.895-7.026    c0.04-0.595,0.611-1.048,1.143-1.004c0.592,0.038,1.042,0.55,1.004,1.143c-0.164,2.538,2.34,5.439,2.366,5.469    c0.391,0.448,0.347,1.126-0.101,1.517C212.643,389.721,212.391,389.809,212.138,389.809z"/>
		<path style="fill:#251426;" d="M215.674,403.65c-0.231,0-0.462-0.074-0.658-0.225c-0.153-0.118-3.75-2.929-4.191-6.334    c-0.076-0.59,0.34-1.128,0.929-1.206c0.599-0.082,1.128,0.338,1.206,0.929c0.271,2.103,2.525,4.257,3.372,4.91    c0.471,0.361,0.557,1.038,0.193,1.508C216.315,403.505,215.996,403.65,215.674,403.65z"/>
	</g>
	<g>
		<path style="fill:#251426;" d="M331.524,170.894c-0.109,0-0.223-0.017-0.334-0.053c-0.563-0.185-0.872-0.792-0.689-1.357    c0.658-2.017-0.454-4.929-0.937-5.881c-0.271-0.529-0.059-1.177,0.471-1.445c0.527-0.269,1.179-0.059,1.445,0.471    c0.088,0.172,2.132,4.254,1.067,7.523C332.398,170.606,331.978,170.894,331.524,170.894z"/>
		<path style="fill:#251426;" d="M320.709,176.61c-0.109,0-0.223-0.017-0.334-0.053c-0.565-0.185-0.872-0.792-0.689-1.357    c0.788-2.414-0.922-5.847-0.941-5.883c-0.267-0.529-0.055-1.177,0.475-1.443c0.527-0.269,1.174-0.059,1.443,0.471    c0.088,0.172,2.135,4.257,1.069,7.523C321.583,176.322,321.162,176.61,320.709,176.61z"/>
		<path style="fill:#251426;" d="M322.581,162.57c-0.109,0-0.223-0.017-0.334-0.053c-0.563-0.185-0.872-0.792-0.689-1.357    c0.658-2.017-0.454-4.929-0.937-5.881c-0.271-0.529-0.059-1.177,0.471-1.445c0.527-0.269,1.179-0.059,1.445,0.471    c0.088,0.172,2.132,4.254,1.067,7.523C323.455,162.282,323.034,162.57,322.581,162.57z"/>
		<path style="fill:#251426;" d="M333.3,184.861c-0.109,0-0.223-0.017-0.334-0.053c-0.565-0.185-0.872-0.792-0.689-1.357    c0.658-2.015-0.454-4.929-0.937-5.881c-0.271-0.529-0.059-1.177,0.471-1.445c0.527-0.267,1.177-0.059,1.445,0.471    c0.088,0.172,2.132,4.257,1.067,7.523C334.174,184.573,333.753,184.861,333.3,184.861z"/>
		<path style="fill:#251426;" d="M331.402,200.019c-0.179,0-0.357-0.044-0.523-0.137c-0.519-0.288-0.706-0.943-0.416-1.462    c1.032-1.853,0.5-4.925,0.208-5.952c-0.162-0.571,0.17-1.166,0.742-1.33c0.576-0.164,1.168,0.172,1.33,0.742    c0.053,0.187,1.271,4.584-0.401,7.587C332.146,199.819,331.779,200.019,331.402,200.019z"/>
		<path style="fill:#251426;" d="M315.242,191.773c-0.179,0-0.357-0.044-0.523-0.137c-0.519-0.29-0.706-0.945-0.416-1.462    c1.034-1.853,0.502-4.925,0.21-5.952c-0.164-0.571,0.168-1.166,0.74-1.328c0.574-0.176,1.166,0.168,1.328,0.74    c0.055,0.185,1.275,4.586-0.399,7.587C315.984,191.573,315.618,191.773,315.242,191.773z"/>
		<path style="fill:#251426;" d="M321.49,203.04c-0.179,0-0.357-0.044-0.523-0.137c-0.519-0.29-0.706-0.945-0.416-1.462    c1.034-1.853,0.502-4.925,0.21-5.952c-0.164-0.571,0.168-1.166,0.74-1.328c0.578-0.17,1.166,0.17,1.328,0.74    c0.055,0.185,1.275,4.586-0.399,7.586C322.232,202.841,321.866,203.04,321.49,203.04z"/>
		<path style="fill:#251426;" d="M325.545,188.951c-0.109,0-0.223-0.017-0.334-0.053c-0.565-0.185-0.872-0.792-0.689-1.357    c0.658-2.015-0.456-4.927-0.939-5.878c-0.271-0.529-0.059-1.177,0.471-1.445c0.521-0.265,1.177-0.061,1.445,0.471    c0.088,0.172,2.135,4.254,1.069,7.521C326.419,188.663,325.999,188.951,325.545,188.951z"/>
	</g>
	<g>
		<path style="fill:#251426;" d="M398.836,392.041c-0.244,0-0.487-0.082-0.689-0.25c-0.456-0.38-0.517-1.059-0.137-1.515    c1.359-1.628,1.408-4.744,1.313-5.807c-0.053-0.592,0.384-1.116,0.975-1.168c0.574-0.046,1.114,0.382,1.168,0.975    c0.017,0.193,0.397,4.742-1.805,7.379C399.45,391.908,399.143,392.041,398.836,392.041z"/>
		<path style="fill:#251426;" d="M386.67,393.331c-0.244,0-0.487-0.082-0.689-0.25c-0.456-0.38-0.517-1.059-0.137-1.515    c1.359-1.628,1.408-4.746,1.313-5.809c-0.053-0.592,0.384-1.116,0.975-1.168c0.584-0.04,1.113,0.38,1.168,0.975    c0.017,0.193,0.397,4.744-1.805,7.381C387.283,393.198,386.976,393.331,386.67,393.331z"/>
		<path style="fill:#251426;" d="M393.624,380.992c-0.244,0-0.487-0.082-0.689-0.25c-0.456-0.38-0.517-1.059-0.137-1.515    c1.63-1.952,1.319-5.773,1.315-5.811c-0.05-0.59,0.387-1.113,0.977-1.166c0.563-0.042,1.111,0.382,1.166,0.975    c0.017,0.193,0.397,4.742-1.807,7.381C394.237,380.859,393.931,380.992,393.624,380.992z"/>
		<path style="fill:#251426;" d="M395.294,405.669c-0.244,0-0.487-0.082-0.689-0.25c-0.456-0.38-0.517-1.059-0.137-1.515    c1.359-1.628,1.41-4.746,1.313-5.809c-0.053-0.592,0.382-1.116,0.975-1.168c0.574-0.04,1.113,0.38,1.168,0.975    c0.017,0.193,0.399,4.744-1.805,7.381C395.908,405.537,395.601,405.669,395.294,405.669z"/>
		<path style="fill:#251426;" d="M387.899,419.036c-0.313,0-0.624-0.137-0.836-0.399c-0.374-0.46-0.303-1.139,0.16-1.513    c1.973-1.599,2.401-5.41,2.406-5.448c0.063-0.59,0.601-1.025,1.183-0.956c0.59,0.063,1.019,0.59,0.956,1.181    c-0.019,0.193-0.521,4.731-3.191,6.895C388.378,418.958,388.138,419.036,387.899,419.036z"/>
		<path style="fill:#251426;" d="M375.961,405.377c-0.313,0-0.622-0.137-0.836-0.397c-0.374-0.462-0.303-1.139,0.158-1.515    c1.973-1.601,2.403-5.412,2.408-5.45c0.063-0.588,0.603-1.023,1.183-0.956c0.59,0.063,1.019,0.59,0.956,1.181    c-0.019,0.193-0.521,4.731-3.189,6.897C376.44,405.3,376.201,405.377,375.961,405.377z"/>
		<path style="fill:#251426;" d="M377.575,418.159c-0.313,0-0.622-0.137-0.836-0.399c-0.374-0.46-0.303-1.139,0.16-1.513    c1.973-1.601,2.401-5.41,2.406-5.45c0.063-0.588,0.567-1.032,1.183-0.956c0.59,0.063,1.017,0.59,0.956,1.181    c-0.019,0.191-0.519,4.731-3.191,6.897C378.054,418.082,377.814,418.159,377.575,418.159z"/>
		<path style="fill:#251426;" d="M386.573,406.585c-0.244,0-0.487-0.082-0.689-0.25c-0.456-0.38-0.517-1.059-0.137-1.515    c1.359-1.628,1.41-4.746,1.313-5.809c-0.053-0.592,0.382-1.116,0.975-1.168c0.59-0.042,1.114,0.382,1.168,0.975    c0.017,0.193,0.399,4.744-1.805,7.381C387.187,406.453,386.88,406.585,386.573,406.585z"/>
	</g>
	<path style="fill:#F19085;" d="M402.224,431.738c0,0-4.22,13.262,1.005,14.468c5.224,1.206,7.837-4.622,7.837-4.622   s2.21,6.229,8.64,6.028c6.43-0.201,2.813-14.267,1.005-14.468C418.902,432.944,415.888,437.767,402.224,431.738z"/>
	<path style="fill:#F19085;" d="M440.403,440.982c0,0-10.65-3.818-7.837-8.44s11.253-4.622,11.253-4.622s-6.631-11.253,0-12.458   c6.631-1.206,6.832,5.024,6.832,7.033S444.02,438.169,440.403,440.982z"/>
</g>















</svg>
