<?xml version="1.0" encoding="UTF-8"?>
<!-- Generator: Adobe Illustrator 25.2.0, SVG Export Plug-In . SVG Version: 6.00 Build 0)  -->
<svg xmlns="http://www.w3.org/2000/svg" xmlns:xlink="http://www.w3.org/1999/xlink" version="1.1" id="Capa_1" x="0px" y="0px" viewBox="0 0 512 512" style="enable-background:new 0 0 512 512;" xml:space="preserve" width="512" height="512">
<g>
	<path style="fill:#251426;" d="M325.634,244.983c-0.664,0-1.086-0.384-1.267-0.781c-2.557-5.566,25.656-89.635,31.338-106.432   c0.183-0.541,0.769-0.827,1.309-0.648c0.541,0.183,0.83,0.769,0.648,1.309c-12.501,36.956-31.56,96.352-31.492,104.276   c4.242-2.169,24.206-20.726,60.192-58.32c30.315-31.669,55.583-59.858,56.326-62.838c0.062-0.568,0.576-0.966,1.137-0.896   c0.567,0.062,0.974,0.59,0.911,1.157c-0.447,4.062-37.061,43.286-56.358,63.458c-13.165,13.762-56.575,58.737-62.441,59.688   C325.831,244.975,325.73,244.983,325.634,244.983z"/>
	<path style="fill:#251426;" d="M336.685,246.279c-3.822,0-7.709-0.469-11.644-1.509c-0.552-0.146-0.881-0.711-0.734-1.263   c0.145-0.552,0.715-0.875,1.263-0.734c39.241,10.381,74.593-38.54,74.945-39.035c0.329-0.465,0.975-0.575,1.441-0.242   c0.464,0.33,0.573,0.976,0.242,1.441C401.871,205.393,372.325,246.279,336.685,246.279z"/>
	<path style="fill:#E33961;" d="M351.686,158.338c0,0-96.317-57.041-70.43-99.422s60.478,19.872,60.478,19.872   s-1.969-56.741,38.861-36.815S351.686,158.338,351.686,158.338z"/>
	<path style="fill:#F9D998;" d="M441.559,128.092c0,0-15.293-72.599,17.005-78.944s17.39,38.442,17.39,38.442   s26.831-26.383,35.392,2.486S441.559,128.092,441.559,128.092z"/>
	<path style="fill:#84A4A0;" d="M375.415,229.908c0,0-24.313-109.268,24.306-119.392s26.893,57.7,26.893,57.7   s40.029-40.262,53.438,3.146S375.415,229.908,375.415,229.908z"/>
	<path style="fill:#251426;" d="M319.978,342.404c-0.274,0-0.548-0.109-0.752-0.324c-8.315-8.807-2.252-14.824,5.424-22.441   c5.758-5.715,12.924-12.827,17.007-23.461c9.267-24.137-16.707-41.809-16.97-41.985c-0.474-0.317-0.602-0.957-0.286-1.433   c0.314-0.476,0.956-0.605,1.432-0.286c0.277,0.185,27.617,18.755,17.754,44.444c-4.241,11.048-11.582,18.333-17.48,24.186   c-8.313,8.25-12.014,12.527-5.377,19.557c0.391,0.415,0.372,1.068-0.042,1.461C320.487,342.31,320.232,342.404,319.978,342.404z"/>
	<path style="fill:#EE919B;" d="M247.059,255.942c0,0,77.416-20.13,80.751-16.053c14.36,17.555-41.382,55.21-70.158,55.406   S247.059,255.942,247.059,255.942z"/>
	<path style="fill:#EE919B;" d="M184.62,227.167c-6.043,1.854-11.16,5.708-14.411,10.917   c-18.789,30.112-87.143,97.211-10.088,168.402c15.339,14.172,103.931,8.814,113.144,0.9   c73.535-63.176-24.212-173.559-47.297-181.602C211.408,220.711,194.857,224.027,184.62,227.167z"/>
	<path style="fill:#EE919B;" d="M160.819,258.618c0,0-84.219-27.978-85.349-17.709c-1.13,10.268,44.333,69.315,56.419,63.37   S160.819,258.618,160.819,258.618z"/>
	<path style="fill:#EE919B;" d="M277.311,378.303c0,0,20.831,66.409,10.983,81.204c-11.296,16.971-42.102-28.261-55.619-65.523   C227.975,381.028,277.311,378.303,277.311,378.303z"/>
	<path style="fill:#EE919B;" d="M143.11,371.565c0.97-3.665,0.831-7.519-0.361-11.118c-3.697-11.164-22.187-18.759-54.825-15.212   c-31.013,3.37-50.499,27.846-67.117,47.486c-7.209,8.52-5.854,21.391,3.011,28.17c14.153,10.822,36.255,20.845,63.915,10.942   C127.243,417.688,139.678,384.527,143.11,371.565z"/>
	<path style="fill:#F9DEC1;" d="M235.632,237.017c0,0,42.957,114.56,3.344,138.195c-61.465,36.672-110.076-93.824-33.809-144.667   L235.632,237.017z"/>
	<path style="fill:#F9DEC1;" d="M38.569,373.146c0,0,22.368-4.235,21.6,1.07s-15.55,19.811-15.55,19.811s25.346-8.089,21.221,3.071   c-4.125,11.16-20.683,16.03-20.683,16.03s24.784,5.833,21.255,14.702S27.476,445.842,0,405.668   C0,405.668,32.92,378.405,38.569,373.146z"/>
	<path style="fill:#251426;" d="M294.936,331.877c-0.318,0-0.632-0.146-0.834-0.423c-0.441-0.601-10.739-14.832-6.667-24.42   c1.809-4.26,6.117-6.882,12.806-7.793c15.145-2.062,25.124-7.299,28.096-14.745c2.73-6.839-0.129-15.601-8.5-26.044   c-0.357-0.445-0.285-1.095,0.16-1.452c0.444-0.355,1.097-0.285,1.452,0.16c8.871,11.065,11.833,20.52,8.807,28.102   c-4.18,10.467-18.477,14.493-29.737,16.026c-5.916,0.805-9.679,3.01-11.183,6.553c-3.618,8.518,6.331,22.253,6.432,22.392   c0.337,0.46,0.237,1.107-0.223,1.444C295.362,331.812,295.148,331.877,294.936,331.877z"/>
	<path style="fill:#251426;" d="M238.198,412.381c-0.62-0.002-1.191-0.411-1.189-1.036c0.002-0.569,0.464-1.03,1.033-1.03   c0.038-0.038,0.106-0.001,0.156,0c28.029,0,40.031-22.44,40.15-22.667c0.262-0.505,0.886-0.705,1.393-0.439   c0.505,0.263,0.702,0.887,0.439,1.393C280.056,388.84,267.462,412.381,238.198,412.381z"/>
	<g>
		<path style="fill:#251426;" d="M244.153,356.06c-0.175,0-0.35-0.044-0.512-0.136c-0.494-0.283-0.667-0.914-0.384-1.409    c0.02-0.035,1.982-3.525,1.284-6.097c-0.149-0.55,0.176-1.118,0.726-1.267c0.55-0.154,1.117,0.176,1.267,0.726    c0.924,3.402-1.386,7.491-1.484,7.664C244.858,355.873,244.511,356.06,244.153,356.06z"/>
		<path style="fill:#251426;" d="M239.648,347.852c-0.175,0-0.35-0.044-0.512-0.136c-0.494-0.283-0.667-0.914-0.384-1.409    c0.02-0.035,1.982-3.525,1.284-6.097c-0.149-0.55,0.176-1.118,0.726-1.267c0.552-0.152,1.118,0.176,1.267,0.726    c0.924,3.402-1.386,7.491-1.484,7.664C240.353,347.666,240.006,347.852,239.648,347.852z"/>
		<path style="fill:#251426;" d="M238.591,361.988c-0.175,0-0.35-0.044-0.512-0.136c-0.494-0.283-0.667-0.914-0.384-1.409    c0.02-0.035,1.982-3.525,1.284-6.097c-0.149-0.55,0.176-1.118,0.726-1.267c0.552-0.15,1.118,0.176,1.267,0.726    c0.924,3.402-1.386,7.491-1.484,7.664C239.297,361.801,238.95,361.988,238.591,361.988z"/>
		<path style="fill:#251426;" d="M247.312,340.792c-0.175,0-0.35-0.044-0.512-0.136c-0.494-0.283-0.667-0.914-0.384-1.409    c0.02-0.035,1.982-3.524,1.284-6.097c-0.149-0.551,0.176-1.118,0.726-1.267c0.55-0.155,1.117,0.176,1.267,0.726    c0.924,3.403-1.386,7.491-1.485,7.664C248.017,340.606,247.67,340.792,247.312,340.792z"/>
		<path style="fill:#251426;" d="M251.003,323.847c-0.11,0-0.222-0.018-0.331-0.054c-0.541-0.183-0.83-0.769-0.649-1.308    c0.012-0.038,1.267-3.841,0.088-6.23c-0.253-0.511-0.042-1.131,0.469-1.383c0.509-0.252,1.13-0.043,1.383,0.469    c1.561,3.161,0.081,7.618,0.017,7.806C251.834,323.576,251.433,323.847,251.003,323.847z"/>
		<path style="fill:#251426;" d="M236.051,337.932c-0.11,0-0.222-0.018-0.331-0.054c-0.541-0.183-0.83-0.769-0.649-1.309    c0.013-0.037,1.268-3.84,0.088-6.23c-0.253-0.511-0.043-1.131,0.469-1.383c0.511-0.252,1.131-0.043,1.383,0.469    c1.562,3.162,0.081,7.619,0.017,7.807C236.883,337.661,236.481,337.932,236.051,337.932z"/>
		<path style="fill:#251426;" d="M242.491,320.913c-0.11,0-0.222-0.018-0.331-0.054c-0.541-0.183-0.83-0.769-0.649-1.309    c0.012-0.037,1.267-3.839,0.088-6.229c-0.253-0.511-0.042-1.131,0.469-1.383c0.509-0.254,1.131-0.043,1.383,0.469    c1.561,3.162,0.081,7.618,0.017,7.806C243.322,320.641,242.92,320.913,242.491,320.913z"/>
		<path style="fill:#251426;" d="M243.022,334.854c-0.175,0-0.35-0.044-0.512-0.136c-0.494-0.283-0.667-0.914-0.384-1.409    c0.02-0.035,1.982-3.525,1.284-6.097c-0.149-0.55,0.176-1.118,0.726-1.267c0.55-0.154,1.118,0.176,1.267,0.726    c0.924,3.402-1.386,7.491-1.484,7.664C243.727,334.667,243.38,334.854,243.022,334.854z"/>
	</g>
	<path style="fill:#251626;" d="M100.103,240.764c0,0,16.856,4.318,15.37,8.383c-1.486,4.065-11.824,4.168-11.824,4.168   s14.308,14.252,6.896,14.861c-7.412,0.609-15.917-8.399-15.917-8.399s6.19,13.323,1.218,14.824s-24.718-26.178-26.422-33.622   C67.721,233.536,100.103,240.764,100.103,240.764z"/>
	<g>
		<path style="fill:#251426;" d="M105.958,351.163c-0.347,0-0.685-0.175-0.881-0.49c-0.299-0.486-0.148-1.123,0.337-1.422    c3.001-1.85,7.578-0.796,7.771-0.748c0.555,0.131,0.898,0.687,0.767,1.242c-0.131,0.555-0.699,0.896-1.242,0.769    c-0.041-0.009-3.944-0.903-6.21,0.496C106.33,351.114,106.142,351.163,105.958,351.163z"/>
		<path style="fill:#251426;" d="M99.363,357.809c-0.347,0-0.685-0.175-0.881-0.491c-0.299-0.485-0.148-1.122,0.338-1.421    c3-1.849,7.576-0.795,7.77-0.748c0.555,0.131,0.898,0.687,0.767,1.242c-0.131,0.555-0.687,0.896-1.242,0.769    c-0.038-0.008-3.942-0.902-6.211,0.496C99.735,357.76,99.548,357.809,99.363,357.809z"/>
		<path style="fill:#251426;" d="M113.218,354.817c-0.347,0-0.685-0.175-0.881-0.49c-0.299-0.486-0.148-1.123,0.337-1.422    c3.003-1.851,7.579-0.795,7.771-0.748c0.555,0.131,0.898,0.687,0.767,1.242c-0.13,0.554-0.698,0.894-1.242,0.769    c-0.04-0.01-3.943-0.904-6.21,0.496C113.59,354.768,113.403,354.817,113.218,354.817z"/>
		<path style="fill:#251426;" d="M90.421,352.459c-0.347,0-0.685-0.175-0.881-0.491c-0.299-0.485-0.148-1.122,0.338-1.421    c3.002-1.848,7.576-0.794,7.77-0.748c0.555,0.131,0.898,0.687,0.767,1.242c-0.13,0.555-0.69,0.897-1.242,0.769    c-0.041-0.009-3.942-0.904-6.211,0.496C90.793,352.41,90.605,352.459,90.421,352.459z"/>
		<path style="fill:#251426;" d="M73.374,355.055c-0.277,0-0.555-0.112-0.759-0.332c-0.387-0.419-0.361-1.072,0.058-1.46    c2.59-2.393,7.284-2.236,7.481-2.228c0.57,0.022,1.013,0.502,0.992,1.071c-0.022,0.569-0.447,1.021-1.071,0.993    c-0.041-0.003-4.043-0.126-5.999,1.682C73.876,354.964,73.625,355.055,73.374,355.055z"/>
		<path style="fill:#251426;" d="M91.118,365.403c-0.277,0-0.555-0.112-0.759-0.332c-0.387-0.419-0.361-1.072,0.058-1.46    c2.589-2.392,7.286-2.238,7.481-2.228c0.57,0.022,1.013,0.502,0.992,1.071c-0.022,0.569-0.443,1.031-1.071,0.993    c-0.043,0.004-4.042-0.126-5.999,1.682C91.62,365.312,91.369,365.403,91.118,365.403z"/>
		<path style="fill:#251426;" d="M72.971,364.05c-0.277,0-0.555-0.112-0.759-0.332c-0.387-0.42-0.361-1.072,0.058-1.46    c2.59-2.393,7.288-2.229,7.481-2.228c0.57,0.022,1.013,0.501,0.992,1.071s-0.468,1.065-1.071,0.993    c-0.042,0.001-4.042-0.126-5.999,1.682C73.474,363.959,73.223,364.05,72.971,364.05z"/>
		<path style="fill:#251426;" d="M85.941,358.256c-0.347,0-0.685-0.175-0.881-0.491c-0.299-0.485-0.148-1.122,0.338-1.421    c3-1.849,7.576-0.793,7.77-0.748c0.555,0.131,0.898,0.687,0.767,1.242c-0.131,0.555-0.689,0.89-1.242,0.769    c-0.039-0.008-3.939-0.903-6.211,0.496C86.313,358.207,86.125,358.256,85.941,358.256z"/>
	</g>
	<path style="fill:#251426;" d="M299.823,293.127c-1.718,0-3.528-0.126-5.427-0.379c-0.566-0.076-0.963-0.595-0.888-1.16   c0.076-0.566,0.59-0.96,1.16-0.888c8.832,1.177,15.499-0.529,19.827-5.068c8.326-8.728,5.45-25.182,5.42-25.347   c-0.103-0.561,0.269-1.099,0.831-1.201c0.557-0.112,1.1,0.269,1.201,0.831c0.131,0.716,3.087,17.661-5.957,27.142   C312.14,291.094,306.717,293.127,299.823,293.127z"/>
	<g>
		<path style="fill:#251626;" d="M152.335,120.01c0,0-55.461-11.439-63.486-6.86c-8.025,4.579,25.569,69.982,35.714,66.321    S152.335,120.01,152.335,120.01z"/>
		<path style="fill:#251626;" d="M262.045,116.68c0,0-29.559-63.145-44.805-58.17c-8.784,2.867-27.743,45.557-20.671,53.7    C203.642,120.353,262.045,116.68,262.045,116.68z"/>
		<g>
			<path style="fill:#EE919B;" d="M112.513,204.964c0,0,0.975-92.361,80.292-107.719c112.795-21.84,77.227,56.626,77.227,56.626     c11.039-2.673,41.891-27.794,50.083-18.091c8.192,9.703-12.703,87.371-77.843,95.15     C148.062,242.18,112.513,204.964,112.513,204.964z"/>
			<path style="fill:#F9DEC1;" d="M132.014,218.208c0,0,22.749-74.018,44.755-69.722c22.007,4.296,58.825,54.157,83.73,39.191     c24.905-14.966,47.363-71.272,59.615-51.898s-9.306,93.594-76.856,101.356S132.014,218.208,132.014,218.208z"/>
			<path style="fill:#F9DEC1;" d="M269.111,154.244c0,0-52.626-15.277-33.762-38.684     C255.246,90.872,288.797,136.385,269.111,154.244z"/>
			<path style="fill:#251626;" d="M301.006,137.646c0,0,9.374-15.871,19.075-6.543s9.207,34.533-8.457,30.791     C286.467,156.564,301.006,137.646,301.006,137.646z"/>
			<path style="fill:#251426;" d="M258.4,219.27c-0.52,0-1.009-0.123-1.467-0.371c-4.826-2.613-2.612-19.364-2.119-22.696     c0.083-0.564,0.608-0.948,1.173-0.871c0.564,0.084,0.954,0.608,0.871,1.173c-1.137,7.691-1.56,19.159,1.058,20.577     c0.912,0.489,2.429-0.668,3.255-1.401c9.873-8.755,10.587-18.143,10.594-18.236c0.036-0.57,0.522-0.99,1.096-0.965     c0.568,0.035,1.001,0.524,0.966,1.092c-0.025,0.417-0.734,10.3-11.286,19.656C261.007,218.587,259.62,219.27,258.4,219.27z"/>
			<path style="fill:#251426;" d="M261.896,146.563c-0.051,0-0.104-0.002-0.155-0.006c-3.617-0.241-9.352-10.382-11.022-13.484     c-0.271-0.502-0.084-1.129,0.419-1.399c0.505-0.274,1.129-0.083,1.399,0.419c3.168,5.876,7.64,12.289,9.342,12.403     c1.679-2.223-1.027-10.402-3.441-15.53c-0.243-0.516-0.022-1.131,0.494-1.374c0.518-0.247,1.131-0.022,1.374,0.494     c1.058,2.247,6.193,13.649,3.38,17.527C263.238,146.23,262.607,146.563,261.896,146.563z"/>
			<path style="fill:#251426;" d="M206.403,196.097c-0.06,0-0.119-0.002-0.18-0.006c-4.672-0.313-12.58-14.567-14.117-17.421     c-0.271-0.502-0.084-1.129,0.419-1.399c0.505-0.272,1.128-0.084,1.399,0.419c3.6,6.68,9.839,16.166,12.438,16.34     c0.139,0.008,0.27-0.003,0.45-0.252c2.206-3.041-1.671-14.156-4.631-20.448c-0.243-0.517-0.022-1.132,0.494-1.374     c0.517-0.246,1.131-0.022,1.374,0.494c0.838,1.779,8.078,17.521,4.436,22.54C207.963,195.709,207.229,196.097,206.403,196.097z"/>
			<path style="fill:#251426;" d="M179.366,143.484c-0.457,0-0.922-0.023-1.396-0.07c-5.323-0.524-8.49-2.968-10.372-5.572     c-3.001,2.495-6.904,3.794-10.951,2.268c-10.315-3.887-9.757-26.336-9.729-27.29c0.018-0.57,0.512-1.051,1.064-1.001     c0.57,0.017,1.018,0.492,1.002,1.063c-0.007,0.219-0.55,21.925,8.391,25.295c3.342,1.259,6.609,0.076,9.129-2.115     c-0.787-1.516-1.198-2.95-1.411-3.946c-0.997-4.683,0.069-9.403,2.424-10.745c1.17-0.666,2.513-0.424,3.686,0.659     c2.726,2.515,2.682,7.241-0.105,11.759c-0.565,0.915-1.229,1.795-1.974,2.603c1.596,2.301,4.341,4.504,9.047,4.967     c3.914,0.385,7.006-1.068,9.191-4.322c1.698-2.526,2.645-5.904,2.953-9.302c-0.538-0.422-1.067-0.878-1.588-1.367     c-4.367-4.108-6.895-9.553-5.756-12.397c0.487-1.216,1.611-1.943,3.039-1.868c1.231,0.009,3.004,0.601,4.467,3.369     c1.469,2.78,2.192,6.971,1.978,11.258c3.064,2.115,7.983,4.203,13.553,1.565c4.307-2.04,6.879-4.747,7.429-7.696     c-0.798,0.014-1.623-0.033-2.484-0.152c-6.474-0.897-13.473-5.64-13.373-9.064c0.027-0.921,0.555-2.504,3.792-2.761     c6.5-0.508,12.506,3.119,13.933,8.463c0.107,0.4,0.186,0.799,0.237,1.196c2.755-0.635,5.339-2.573,6.495-7.178     c1.319-5.25,0.911-8.943-1.211-10.979c-3.611-3.463-11.203-1.275-11.279-1.252c-0.548,0.157-1.122-0.151-1.283-0.697     c-0.162-0.547,0.148-1.121,0.695-1.284c0.358-0.105,8.81-2.553,13.292,1.738c2.701,2.587,3.302,6.953,1.789,12.976     c-1.235,4.918-4.237,7.961-8.486,8.776c-0.453,3.825-3.502,7.337-8.663,9.78c-4.757,2.255-9.926,1.835-14.649-1.077     c-0.437,3.329-1.462,6.57-3.166,9.106C186.738,141.673,183.401,143.484,179.366,143.484z M168.879,123.068     c-0.166,0-0.276,0.063-0.339,0.099c-1.178,0.671-2.319,4.323-1.425,8.519c0.154,0.726,0.434,1.724,0.93,2.808     c0.478-0.568,0.912-1.17,1.295-1.79c1.875-3.04,2.745-7.049,0.462-9.156C169.391,123.168,169.089,123.068,168.879,123.068z      M185.973,114.168c-0.854,0-1.009,0.385-1.083,0.571c-0.63,1.572,1.064,6.183,5.254,10.123c0.09,0.084,0.185,0.172,0.284,0.261     c-0.014-3.365-0.644-6.541-1.778-8.688c-0.544-1.03-1.447-2.259-2.656-2.268C185.987,114.168,185.98,114.168,185.973,114.168z      M202.62,110.637c-0.358,0-0.719,0.014-1.083,0.043c-0.864,0.069-1.877,0.309-1.891,0.762c-0.049,1.71,5.402,6.1,11.591,6.957     c0.722,0.1,1.478,0.155,2.255,0.134c-0.039-0.305-0.1-0.61-0.183-0.917C212.214,113.511,207.723,110.637,202.62,110.637z"/>
		</g>
		<path style="fill:#FFFFFF;" d="M118.202,153.705c-1.609,0-4.542-3.791-8.722-11.277c-1.506-2.699-6.481-11.93-7.237-17.464    c-0.156-1.146,0.207-2.143,1.051-2.88c5.244-4.586,31.54,2.493,34.521,3.316c0.55,0.151,0.873,0.72,0.721,1.27    c-0.15,0.551-0.721,0.875-1.27,0.721c-10.85-2.991-29.296-6.658-32.612-3.753c-0.317,0.277-0.426,0.59-0.363,1.045    c1.099,8.041,11.903,25.763,13.985,26.959c0.473,0.037,0.874,0.399,0.941,0.89c0.077,0.565-0.319,1.086-0.884,1.164    C118.29,153.702,118.246,153.705,118.202,153.705z"/>
		<path style="fill:#FFFFFF;" d="M207.877,92.795c-0.074,0-0.148-0.008-0.224-0.024c-0.557-0.123-0.909-0.674-0.786-1.232    c0.842-3.818,5.283-22.953,9.962-24.672c0.802-0.295,1.63-0.16,2.334,0.371c4.727,3.59,16.448,20.176,16.944,20.88    c0.329,0.466,0.217,1.111-0.249,1.44c-0.465,0.327-1.11,0.217-1.44-0.249c-0.12-0.169-12.031-17.027-16.504-20.425    c-0.179-0.135-0.264-0.118-0.373-0.078c-2.658,0.977-6.662,14.142-8.657,23.179C208.778,92.467,208.351,92.795,207.877,92.795z"/>
	</g>
	<path style="fill:#251426;" d="M218.275,243.783c-17.363,0-29.252-7.044-29.42-7.146c-0.488-0.296-0.643-0.93-0.347-1.418   c0.295-0.487,0.931-0.643,1.418-0.348c0.234,0.142,23.594,13.932,52.5,1.983c0.526-0.217,1.131,0.032,1.349,0.56   c0.218,0.527-0.032,1.131-0.56,1.349C234.221,242.48,225.742,243.783,218.275,243.783z"/>
	<path style="fill:#251626;" d="M258.85,445.609c0,0-1.092-7.168,0.974-10.955c1.461-2.678,10.224,3.895,10.224,3.895   s-1.217-10.468,2.678-9.007s7.547,6.573,7.547,6.573s2.921-11.685,7.79-8.033c4.869,3.652,6.218,23.971,6.329,26.048   c0.841,15.691-20.239,14.289-23.048,10.957C268.829,462.102,258.85,445.609,258.85,445.609z"/>
	<path style="fill:#EE919B;" d="M146.116,386.13c0,0-11.053,68.716,0.822,81.939c13.622,15.168,37.595-34.028,45.606-72.848   C195.33,381.723,146.116,386.13,146.116,386.13z"/>
	<path style="fill:#251626;" d="M174.074,450.077c0,0,0.049-7.25-2.541-10.7c-1.831-2.44-9.557,5.326-9.557,5.326   s-0.303-10.534-3.947-8.528s-8.812,7.433-8.812,7.433s-2.283-10.985-6.575-6.67s-6.035,31.008-1.504,33.785   c7.158,4.387,18.396,4.387,21.184,1.728C165.147,469.757,174.074,450.077,174.074,450.077z"/>
	<path style="fill:#251426;" d="M189.149,415.205c-20.575,0-31.531-18.617-31.646-18.817c-0.283-0.494-0.114-1.125,0.38-1.409   c0.495-0.284,1.126-0.115,1.41,0.379c0.116,0.2,11.847,20.033,33.595,17.568c0.577-0.083,1.078,0.343,1.143,0.909   c0.065,0.567-0.342,1.079-0.909,1.143C191.761,415.132,190.436,415.205,189.149,415.205z"/>
	<path style="fill:#251626;" d="M298.633,243.76c0,0,28.666-8.522,33.315-4.132s-13.429,30.474-19.886,32.799   s0.775-13.171,0.775-13.171s-7.489,5.165-10.33,3.357s4.39-12.138,4.39-12.138S293.21,247.633,298.633,243.76z"/>
	<path style="fill:#84A4A0;" d="M381.277,224.932c0,0-11.823,3.566-12.198,4.879s7.507,9.759,8.633,9.196   C378.838,238.444,383.905,225.87,381.277,224.932z"/>
	<path style="fill:#251426;" d="M378.275,228.592c-0.302,0-0.738-0.21-0.935-0.439c-0.318-0.371-1.283-1.5,0.852-15.204   c0.089-0.563,0.604-0.945,1.18-0.862c0.564,0.088,0.949,0.616,0.862,1.18c-0.8,5.132-1.466,11.128-1.33,13.122   c2.154-0.596,8.464-3.028,10.102-5.232c0.123-0.164,0.322-0.473,0.272-0.681c-0.13-0.556,0.214-1.112,0.769-1.243   c0.554-0.129,1.112,0.214,1.243,0.769c0.193,0.82-0.049,1.664-0.718,2.509C388.099,225.634,379.612,228.592,378.275,228.592z"/>
	<path style="fill:#E33961;" d="M349.749,151.554c0,0-10.322,14.45-7.131,14.826c3.19,0.375,10.509,4.316,11.072,1.689   C354.253,165.442,354.066,150.804,349.749,151.554z"/>
	<path style="fill:#251426;" d="M350.701,156.04c-0.037,0-0.074-0.003-0.109-0.008c-0.652-0.089-1.636-0.223-5.202-11.1   c-0.178-0.542,0.118-1.126,0.66-1.303c0.545-0.178,1.127,0.117,1.303,0.66c1.017,3.1,2.3,6.593,3.163,8.501   c0.706-2.624,1.902-7.965,2.913-12.891c0.114-0.559,0.665-0.919,1.22-0.804c0.559,0.115,0.919,0.661,0.804,1.22   c-0.859,4.179-2.939,14.024-3.717,15.191C351.535,155.805,351.077,156.04,350.701,156.04z"/>
	<path style="fill:#F9D998;" d="M446.356,117.73c0,0-15.754,8.264-12.396,10.589s3.099,7.231,8.264,6.456   C447.389,134.001,447.131,117.73,446.356,117.73z"/>
	<path style="fill:#251426;" d="M442.948,125.998c-0.428,0-0.819-0.194-1.073-0.538c-0.334-0.455-1.351-1.837,4.574-14.872   c0.236-0.518,0.845-0.752,1.368-0.512c0.52,0.236,0.749,0.848,0.512,1.368c-2.084,4.586-4.213,10.01-4.637,12.182   c1.717-0.867,5.156-3.368,7.947-5.66c0.443-0.364,1.094-0.299,1.454,0.142c0.362,0.441,0.299,1.092-0.142,1.454   c-1.246,1.024-7.576,6.144-9.825,6.425C443.066,125.995,443.007,125.998,442.948,125.998z"/>
	<path style="fill:#251426;" d="M465.208,194.949c-0.201,0-0.404-0.059-0.582-0.181c-0.471-0.322-0.591-0.964-0.269-1.436   c6.553-9.579,8.606-17.28,6.101-22.891c-3.203-7.174-13.032-8.546-13.131-8.559c-0.565-0.074-0.963-0.592-0.89-1.158   c0.075-0.565,0.588-0.96,1.157-0.891c0.45,0.059,11.06,1.523,14.744,9.753c2.827,6.313,0.714,14.694-6.277,24.912   C465.861,194.792,465.537,194.949,465.208,194.949z"/>
	<path style="fill:#251426;" d="M382.567,79.25c-0.053,0-0.109-0.004-0.164-0.013c-0.563-0.09-0.946-0.619-0.856-1.183   c0.039-0.25,3.882-25.083-6.101-29.362c-10.146-4.346-22.583,5.44-22.708,5.539c-0.445,0.358-1.097,0.282-1.452-0.162   c-0.356-0.446-0.283-1.095,0.161-1.452c0.547-0.438,13.525-10.662,24.812-5.824c11.456,4.909,7.503,30.499,7.328,31.587   C383.506,78.888,383.067,79.25,382.567,79.25z"/>
	<path style="fill:#251426;" d="M496.716,107.658c-0.355,0-0.7-0.184-0.892-0.512c-0.289-0.493-0.121-1.126,0.371-1.413   c3.527-2.057,6.953-7.917,7.8-13.34c0.498-3.19,0.026-5.777-1.334-7.287c-4.007-4.456-13.052,1.158-13.143,1.216   c-0.479,0.307-1.118,0.161-1.424-0.323c-0.304-0.482-0.16-1.12,0.322-1.424c0.431-0.272,10.608-6.599,15.783-0.85   c1.808,2.009,2.443,5.117,1.838,8.988c-0.948,6.067-4.731,12.432-8.801,14.806C497.073,107.613,496.893,107.658,496.716,107.658z"/>
	<g>
		<path style="fill:#251426;" d="M179.707,230.189c-1.351,0-4.835-0.197-6.972-2.093c-0.427-0.379-0.465-1.032-0.087-1.459    c0.381-0.429,1.032-0.465,1.459-0.087c1.662,1.476,4.922,1.623,6.03,1.564c0.593-0.032,1.059,0.399,1.093,0.969    c0.034,0.57-0.4,1.059-0.969,1.093C180.221,230.178,180.023,230.189,179.707,230.189z"/>
		<path style="fill:#251426;" d="M174.359,222.502c-1.351,0-4.834-0.196-6.971-2.092c-0.427-0.379-0.465-1.032-0.087-1.459    c0.379-0.428,1.031-0.466,1.459-0.087c1.663,1.476,4.924,1.623,6.03,1.563c0.592-0.029,1.059,0.401,1.093,0.969    c0.034,0.57-0.4,1.059-0.969,1.093C174.875,222.491,174.676,222.502,174.359,222.502z"/>
		<path style="fill:#251426;" d="M187.489,227.846c-1.351,0-4.835-0.197-6.972-2.093c-0.427-0.379-0.465-1.032-0.087-1.459    c0.378-0.429,1.033-0.465,1.459-0.087c1.662,1.476,4.922,1.624,6.03,1.564c0.58-0.025,1.059,0.4,1.093,0.969    c0.034,0.57-0.4,1.059-0.969,1.093C188.003,227.834,187.805,227.846,187.489,227.846z"/>
		<path style="fill:#251426;" d="M164.628,226.225c-1.351,0-4.835-0.197-6.972-2.093c-0.427-0.379-0.465-1.032-0.087-1.459    c0.381-0.43,1.032-0.466,1.459-0.087c1.662,1.476,4.922,1.622,6.03,1.564c0.586-0.037,1.059,0.4,1.093,0.969    c0.034,0.57-0.4,1.059-0.969,1.093C165.143,226.214,164.944,226.225,164.628,226.225z"/>
		<path style="fill:#251426;" d="M148.304,221.979c-0.045,0-0.093-0.003-0.139-0.009c-0.197-0.027-4.847-0.684-6.984-3.489    c-0.345-0.453-0.257-1.102,0.197-1.448c0.453-0.346,1.101-0.257,1.448,0.197c1.615,2.12,5.578,2.687,5.617,2.693    c0.565,0.078,0.96,0.598,0.884,1.163C149.255,221.604,148.812,221.979,148.304,221.979z"/>
		<path style="fill:#251426;" d="M167.569,214.856c-0.045,0-0.093-0.003-0.139-0.009c-0.197-0.027-4.847-0.684-6.984-3.49    c-0.345-0.453-0.257-1.102,0.197-1.448c0.453-0.346,1.101-0.257,1.448,0.197c1.614,2.12,5.578,2.687,5.617,2.693    c0.565,0.078,0.96,0.598,0.884,1.163C168.52,214.481,168.077,214.856,167.569,214.856z"/>
		<path style="fill:#251426;" d="M149.463,213.05c-0.045,0-0.093-0.003-0.139-0.009c-0.197-0.027-4.847-0.684-6.984-3.489    c-0.345-0.453-0.257-1.102,0.197-1.448c0.454-0.345,1.101-0.258,1.448,0.197c1.614,2.12,5.578,2.687,5.617,2.693    c0.565,0.078,0.96,0.598,0.884,1.163C150.414,212.675,149.971,213.05,149.463,213.05z"/>
		<path style="fill:#251426;" d="M161.217,219.741c-1.351,0-4.835-0.197-6.972-2.093c-0.427-0.379-0.465-1.032-0.087-1.459    c0.38-0.427,1.033-0.467,1.459-0.087c1.663,1.476,4.923,1.626,6.03,1.564c0.591-0.026,1.059,0.4,1.093,0.969    c0.034,0.57-0.4,1.059-0.969,1.093C161.732,219.73,161.533,219.741,161.217,219.741z"/>
	</g>
</g>















</svg>
